<svg xmlns="http://www.w3.org/2000/svg" viewBox="0 0 78.16 37.23"><path d="M9.05,16.54h8V28.08c0,5.83-2.92,9.15-8.53,9.15S0,33.91,0,28.08V9.15C0,3.33,2.91,0,8.53,0s8.53,3.33,8.53,9.15v3.54H11.65V8.79c0-2.6-1.15-3.59-3-3.59s-3,1-3,3.59V28.45C5.72,31,6.86,32,8.68,32s3-.94,3-3.53V21.74H9.05Z" fill="#fff"/><path d="M19.08.42H36.76v5.2h-6v31.2H25.06V5.62h-6Z" fill="#fff"/><path d="M39.26.42h9.05c5.72,0,8.53,3.17,8.53,9V27.82c0,5.83-2.81,9-8.53,9H39.26ZM45,5.62v26H48.2c1.82,0,2.92-.94,2.92-3.54V9.15c0-2.6-1.1-3.53-2.92-3.53Z" fill="#fff"/><path d="M77.58,8.79v1.3c0,3.74-1.14,6.13-3.69,7.33,3.07,1.2,4.27,3.95,4.27,7.8v3c0,5.61-3,8.63-8.69,8.63h-9V.42h8.64C75,.42,77.58,3.17,77.58,8.79ZM66.19,5.62v9.62h2.24c2.13,0,3.43-.94,3.43-3.85v-2c0-2.6-.88-3.74-2.91-3.74Zm0,14.82V31.62h3.28c1.93,0,3-.89,3-3.59V24.86c0-3.38-1.09-4.42-3.69-4.42Z" fill="#fff"/></svg>