<?xml version="1.0" encoding="utf-8"?>
<!-- Generator: Adobe Illustrator 26.0.3, SVG Export Plug-In . SVG Version: 6.00 Build 0)  -->
<svg version="1.1" id="Layer_1" xmlns="http://www.w3.org/2000/svg" xmlns:xlink="http://www.w3.org/1999/xlink" x="0px" y="0px"
	 viewBox="0 0 78.2 37.2" style="enable-background:new 0 0 78.2 37.2;" xml:space="preserve">
<style type="text/css">
	.st0{fill:#FFFFFF;}
	.st1{fill:#FFFFFF;stroke:#FFFFFF;stroke-miterlimit:10;}
</style>
<path class="st0" d="M9.1,16.5h8v11.5c0,5.8-2.9,9.1-8.5,9.1S0,33.9,0,28.1V9.1C0,3.3,2.9,0,8.5,0s8.5,3.3,8.5,9.1v3.5h-5.4V8.8
	c0-2.6-1.1-3.6-3-3.6s-3,1-3,3.6v19.7C5.7,31,6.9,32,8.7,32s3-0.9,3-3.5v-6.7H9.1V16.5z"/>
<path class="st0" d="M19.1,0.4h17.7v5.2h-6v31.2h-5.7V5.6h-6L19.1,0.4z"/>
<path class="st1" d="M46.6,0.4c5.6,0,7.8,4,7.8,9.1v18.2c0,5-2.2,9-7.7,9h-7.4V0.4H46.6z M46.7,36.3c5.2,0,7.2-3.8,7.2-8.5V9.5
	c0-4.8-2-8.6-7.3-8.6h-6.9v35.4H46.7z"/>
<path class="st1" d="M65.7,0.4c5.2,0,6.8,2.7,6.8,7.4v2.5c0,4.1-1.1,6.6-5.4,7.1c4.5,0.5,6.1,3.5,6.1,7.8v3.3c0,5.1-2.1,8.3-7.5,8.3
	h-7.1V0.4H65.7z M64.2,17.2c5.5,0,7.8-1.2,7.8-6.8V7.8c0-4.5-1.4-6.9-6.3-6.9h-6.6v16.2H64.2z M65.7,36.3c5.2,0,7-3,7-7.8v-3.3
	c0-5.5-2.7-7.5-8-7.5h-5.6v18.6H65.7z"/>
</svg>
