<svg xmlns="http://www.w3.org/2000/svg" viewBox="0 0 100 100"><rect width="100" height="100" rx="22.56" fill="#5a6755"/><path d="M19.32,48.82h8.62V61.26c0,6.27-3.13,9.85-9.18,9.85s-9.19-3.58-9.19-9.85V40.87c0-6.27,3.14-9.85,9.19-9.85s9.18,3.58,9.18,9.85v3.81H22.12v-4.2c0-2.8-1.23-3.86-3.19-3.86s-3.2,1.06-3.2,3.86V61.65c0,2.8,1.24,3.81,3.2,3.81s3.19-1,3.19-3.81V54.42h-2.8Z" fill="#fff"/><path d="M30.13,31.46h19v5.6H42.73v33.6H36.57V37.06H30.13Z" fill="#fff"/><path d="M59.81,31.46c6,0,8.4,4.32,8.4,9.8V60.92c0,5.43-2.41,9.74-8.35,9.74h-8V31.46Zm0,38.64c5.66,0,7.79-4,7.79-9.18V41.26c0-5.2-2.19-9.24-7.84-9.24h-7.4V70.1Z" fill="#fff"/><path d="M80.36,31.46c5.6,0,7.33,2.86,7.33,8v2.69c0,4.37-1.17,7.06-5.82,7.62,4.82.56,6.61,3.8,6.61,8.4V61.7c0,5.49-2.24,9-8.12,9H72.69V31.46Zm-1.68,18c5.88,0,8.45-1.29,8.45-7.34V39.47c0-4.87-1.51-7.45-6.77-7.45H73.25V49.5Zm1.68,20.6c5.54,0,7.56-3.19,7.56-8.4V58.18c0-5.94-2.92-8.12-8.63-8.12h-6v20Z" fill="#fff"/></svg>