<?xml version="1.0" encoding="UTF-8"?><svg id="a" xmlns="http://www.w3.org/2000/svg" xmlns:xlink="http://www.w3.org/1999/xlink" viewBox="0 0 345.44 195.81"><defs><clipPath id="ah"><rect x="44.27" y="9.48" width="223.2" height="166.32" fill="none" stroke-width="0"/></clipPath><clipPath id="an"><rect x="44.27" y="9.48" width="223.2" height="166.32" fill="none" stroke-width="0"/></clipPath><clipPath id="at"><rect x="44.27" y="9.48" width="223.2" height="166.32" fill="none" stroke-width="0"/></clipPath><clipPath id="az"><rect x="44.27" y="9.48" width="223.2" height="166.32" fill="none" stroke-width="0"/></clipPath><clipPath id="bf"><rect x="44.27" y="9.48" width="223.2" height="166.32" fill="none" stroke-width="0"/></clipPath><clipPath id="bl"><rect x="44.27" y="9.48" width="223.2" height="166.32" fill="none" stroke-width="0"/></clipPath><clipPath id="br"><rect x="44.27" y="9.48" width="223.2" height="166.32" fill="none" stroke-width="0"/></clipPath><clipPath id="bx"><rect x="44.27" y="9.48" width="223.2" height="166.32" fill="none" stroke-width="0"/></clipPath><clipPath id="cd"><rect x="44.27" y="9.48" width="223.2" height="166.32" fill="none" stroke-width="0"/></clipPath><clipPath id="cj"><rect x="44.27" y="9.48" width="223.2" height="166.32" fill="none" stroke-width="0"/></clipPath><clipPath id="cp"><rect x="44.27" y="9.48" width="223.2" height="166.32" fill="none" stroke-width="0"/></clipPath><clipPath id="cv"><rect x="44.27" y="9.48" width="223.2" height="166.32" fill="none" stroke-width="0"/></clipPath><clipPath id="cx"><rect x="44.27" y="9.48" width="223.2" height="166.32" fill="none" stroke-width="0"/></clipPath><clipPath id="cz"><rect x="44.27" y="9.48" width="223.2" height="166.32" fill="none" stroke-width="0"/></clipPath><clipPath id="db"><rect x="44.27" y="9.48" width="223.2" height="166.32" fill="none" stroke-width="0"/></clipPath><clipPath id="dd"><rect x="44.27" y="9.48" width="223.2" height="166.32" fill="none" stroke-width="0"/></clipPath><clipPath id="df"><rect x="44.27" y="9.48" width="223.2" height="166.32" fill="none" stroke-width="0"/></clipPath><clipPath id="dh"><rect x="44.27" y="9.48" width="223.2" height="166.32" fill="none" stroke-width="0"/></clipPath><clipPath id="dj"><rect x="44.27" y="9.48" width="223.2" height="166.32" fill="none" stroke-width="0"/></clipPath><clipPath id="dl"><rect x="44.27" y="9.48" width="223.2" height="166.32" fill="none" stroke-width="0"/></clipPath><clipPath id="dn"><rect x="44.27" y="9.48" width="223.2" height="166.32" fill="none" stroke-width="0"/></clipPath><clipPath id="dp"><rect x="44.27" y="9.48" width="223.2" height="166.32" fill="none" stroke-width="0"/></clipPath><clipPath id="dr"><rect x="44.27" y="9.48" width="223.2" height="166.32" fill="none" stroke-width="0"/></clipPath><clipPath id="dt"><rect x="44.27" y="9.48" width="223.2" height="166.32" fill="none" stroke-width="0"/></clipPath><clipPath id="dv"><rect x="44.27" y="9.48" width="223.2" height="166.32" fill="none" stroke-width="0"/></clipPath><clipPath id="dx"><rect x="44.27" y="9.48" width="223.2" height="166.32" fill="none" stroke-width="0"/></clipPath><clipPath id="dz"><rect x="44.27" y="9.48" width="223.2" height="166.32" fill="none" stroke-width="0"/></clipPath><clipPath id="eb"><rect x="44.27" y="9.48" width="223.2" height="166.32" fill="none" stroke-width="0"/></clipPath><clipPath id="ed"><rect x="44.27" y="9.48" width="223.2" height="166.32" fill="none" stroke-width="0"/></clipPath></defs><g id="b"><g id="c"><path d="M0,195.81h345.44V0H0v195.81Z" fill="#fff" stroke-width="0"/></g><g id="d"><g id="e"><path d="M44.27,175.8h223.2V9.48H44.27v166.32Z" fill="#fff" stroke-width="0"/></g><g id="f"><g id="g"><g id="h"><path id="i" d="M66.87,175.8v3.5" fill="gray" stroke="#000" stroke-linejoin="round" stroke-width=".8"/></g><g id="j"><g isolation="isolate"><path d="M57.38,183.05h1.93c.38,0,.69.11.92.32.23.22.35.52.35.91,0,.34-.1.63-.31.88-.21.25-.53.37-.96.37h-1.34v1.82h-.58v-4.3ZM59.64,183.65c-.13-.06-.3-.09-.53-.09h-1.15v1.49h1.15c.26,0,.47-.06.63-.17.16-.11.24-.31.24-.59,0-.32-.12-.53-.35-.64Z" fill="#000" stroke-width="0"/><path d="M61.26,183.04h.53v1.61c.12-.16.24-.27.34-.33.17-.11.38-.17.64-.17.46,0,.76.16.93.48.09.17.13.42.13.72v2.01h-.54v-1.98c0-.23-.03-.4-.09-.51-.1-.17-.28-.26-.54-.26-.22,0-.42.08-.59.23s-.27.43-.27.85v1.66h-.53v-4.32Z" fill="#000" stroke-width="0"/><path d="M66.55,184.22h.58c-.07.2-.24.66-.5,1.38-.19.54-.35.98-.48,1.32-.3.8-.52,1.29-.64,1.46s-.34.26-.64.26c-.07,0-.13,0-.17,0s-.09-.02-.15-.03v-.48c.09.03.16.04.2.05s.08,0,.11,0c.1,0,.17-.02.21-.05s.08-.07.12-.12c0-.02.04-.09.1-.24.06-.14.1-.25.13-.32l-1.16-3.23h.6l.84,2.56.85-2.56Z" fill="#000" stroke-width="0"/><path d="M67.61,183.05h.53v4.3h-.53v-4.3Z" fill="#000" stroke-width="0"/><path d="M69.45,184.22v2.08c0,.16.02.29.07.39.09.19.26.28.51.28.36,0,.6-.16.73-.49.07-.18.11-.42.11-.72v-1.54h.53v3.14h-.5v-.46c-.06.12-.14.22-.24.3-.2.16-.44.25-.72.25-.44,0-.74-.15-.9-.45-.09-.16-.13-.37-.13-.64v-2.13h.54Z" fill="#000" stroke-width="0"/><path d="M72.26,184.22h.52v.45c.12-.15.24-.27.34-.34.17-.12.37-.18.59-.18.25,0,.45.06.6.18.09.07.16.17.23.31.12-.17.25-.29.41-.37s.34-.12.53-.12c.42,0,.71.15.86.46.08.16.12.38.12.66v2.09h-.55v-2.18c0-.21-.05-.35-.16-.43s-.23-.12-.38-.12c-.21,0-.39.07-.53.21s-.22.37-.22.69v1.83h-.54v-2.05c0-.21-.03-.37-.08-.47-.08-.15-.23-.22-.45-.22-.2,0-.38.08-.54.23s-.24.43-.24.84v1.66h-.53v-3.14Z" fill="#000" stroke-width="0"/></g></g></g><g id="k"><g id="l"><path id="m" d="M102.47,175.8v3.5" fill="gray" stroke="#000" stroke-linejoin="round" stroke-width=".8"/></g><g id="n"><g isolation="isolate"><path d="M98.47,183.37c.3.29.46.61.5.98h-.57c-.06-.28-.19-.5-.38-.66s-.45-.24-.8-.24c-.42,0-.75.15-1.01.45-.26.3-.38.75-.38,1.37,0,.5.12.91.35,1.23.23.31.58.47,1.03.47.42,0,.74-.17.96-.5.12-.17.2-.4.26-.69h.57c-.05.45-.22.83-.5,1.14-.34.37-.79.55-1.37.55-.49,0-.91-.15-1.25-.45-.44-.4-.66-1.02-.66-1.86,0-.63.17-1.16.5-1.56.36-.44.85-.66,1.49-.66.54,0,.96.14,1.25.43Z" fill="#000" stroke-width="0"/><path d="M99.7,183.05h.53v4.3h-.53v-4.3Z" fill="#000" stroke-width="0"/><path d="M102.7,185.46c.12-.02.2-.07.24-.15.02-.05.04-.12.04-.2,0-.18-.06-.31-.19-.39-.13-.08-.31-.12-.55-.12-.27,0-.47.07-.58.22-.06.08-.11.21-.13.37h-.49c0-.39.14-.66.38-.81.24-.15.52-.23.84-.23.37,0,.67.07.9.21.23.14.34.36.34.66v1.81c0,.05.01.1.03.13s.07.05.14.05c.02,0,.05,0,.08,0,.03,0,.06,0,.09-.01v.39c-.08.02-.14.04-.19.04s-.1,0-.18,0c-.18,0-.31-.06-.4-.19-.04-.07-.07-.17-.09-.29-.11.14-.26.26-.46.37s-.42.16-.67.16c-.29,0-.53-.09-.71-.26s-.28-.4-.28-.66c0-.29.09-.52.27-.68s.42-.26.71-.3l.84-.1ZM101.59,186.88c.11.09.24.13.4.13.19,0,.37-.04.54-.13.29-.14.44-.38.44-.7v-.42c-.06.04-.15.08-.25.1-.1.03-.2.05-.3.06l-.32.04c-.19.03-.33.07-.43.12-.16.09-.24.24-.24.44,0,.15.06.27.17.36Z" fill="#000" stroke-width="0"/><path d="M104.67,186.37c.02.18.06.31.13.4.14.17.37.25.71.25.2,0,.37-.04.53-.13.15-.08.23-.22.23-.39,0-.13-.06-.24-.18-.31-.08-.04-.23-.09-.46-.15l-.43-.11c-.27-.07-.47-.14-.6-.22-.23-.14-.35-.34-.35-.59,0-.3.11-.54.33-.72s.51-.28.87-.28c.48,0,.82.14,1.04.42.13.18.2.37.19.57h-.5c-.01-.12-.05-.23-.13-.32-.12-.14-.34-.21-.65-.21-.2,0-.36.04-.46.11-.1.08-.16.18-.16.3,0,.14.07.25.21.33.08.05.2.09.35.13l.36.08c.39.09.64.18.78.27.21.13.31.35.31.64s-.11.52-.32.72c-.21.2-.54.3-.98.3-.47,0-.81-.11-1-.32-.2-.21-.3-.47-.32-.79h.51Z" fill="#000" stroke-width="0"/><path d="M107.67,186.37c.02.18.06.31.13.4.14.17.37.25.71.25.2,0,.37-.04.53-.13.15-.08.23-.22.23-.39,0-.13-.06-.24-.18-.31-.08-.04-.23-.09-.46-.15l-.43-.11c-.27-.07-.47-.14-.6-.22-.23-.14-.35-.34-.35-.59,0-.3.11-.54.33-.72s.51-.28.87-.28c.48,0,.82.14,1.04.42.13.18.2.37.19.57h-.5c-.01-.12-.05-.23-.13-.32-.12-.14-.34-.21-.65-.21-.2,0-.36.04-.46.11-.1.08-.16.18-.16.3,0,.14.07.25.21.33.08.05.2.09.35.13l.36.08c.39.09.64.18.78.27.21.13.31.35.31.64s-.11.52-.32.72c-.21.2-.54.3-.98.3-.47,0-.81-.11-1-.32-.2-.21-.3-.47-.32-.79h.51Z" fill="#000" stroke-width="0"/></g></g></g><g id="o"><g id="p"><path id="q" d="M138.07,175.8v3.5" fill="gray" stroke="#000" stroke-linejoin="round" stroke-width=".8"/></g><g id="r"><g isolation="isolate"><path d="M134.4,183.67c.29.38.43.87.43,1.46,0,.64-.16,1.18-.49,1.6-.38.5-.93.75-1.64.75-.66,0-1.18-.22-1.56-.66-.34-.42-.51-.96-.51-1.6,0-.58.14-1.08.43-1.49.37-.53.92-.8,1.65-.8s1.32.24,1.69.73ZM133.89,186.41c.23-.37.34-.79.34-1.27,0-.51-.13-.91-.4-1.22-.26-.31-.63-.46-1.09-.46s-.81.15-1.09.46-.42.76-.42,1.35c0,.48.12.88.36,1.21s.63.49,1.17.49.89-.18,1.11-.55Z" fill="#000" stroke-width="0"/><path d="M135.47,184.22h.5v.54c.04-.11.14-.23.3-.38s.34-.23.55-.23c0,0,.03,0,.05,0s.06,0,.12.01v.56s-.06,0-.09-.01-.06,0-.09,0c-.27,0-.47.09-.61.26s-.21.37-.21.59v1.8h-.53v-3.14Z" fill="#000" stroke-width="0"/><path d="M139.17,184.32c.09.06.2.16.32.31v-1.58h.51v4.32h-.47v-.44c-.12.19-.27.33-.44.42-.17.09-.36.13-.57.13-.35,0-.65-.15-.9-.44-.25-.29-.38-.68-.38-1.17,0-.46.12-.85.35-1.19.23-.33.56-.5,1-.5.24,0,.44.05.6.15ZM138,186.67c.14.23.37.34.68.34.24,0,.44-.1.6-.32.16-.21.23-.51.23-.9s-.08-.69-.24-.88c-.16-.19-.36-.29-.6-.29-.26,0-.48.1-.64.3-.16.2-.25.5-.25.9,0,.34.07.62.21.84Z" fill="#000" stroke-width="0"/><path d="M142.72,184.31c.21.1.37.24.47.41.1.16.17.34.21.55.03.14.05.38.05.69h-2.28c0,.32.08.58.22.77.14.19.36.29.65.29.27,0,.49-.09.65-.27.09-.11.16-.23.19-.37h.52c-.01.12-.06.24-.14.38-.08.14-.16.26-.26.35-.16.16-.36.26-.59.32-.13.03-.27.05-.43.05-.39,0-.72-.14-.99-.43-.27-.29-.4-.68-.4-1.19s.14-.91.41-1.23c.27-.31.63-.47,1.07-.47.22,0,.44.05.64.16ZM142.91,185.54c-.02-.23-.07-.41-.15-.55-.14-.25-.38-.38-.72-.38-.24,0-.44.09-.6.26-.16.18-.25.4-.26.67h1.73Z" fill="#000" stroke-width="0"/><path d="M144.14,184.22h.5v.54c.04-.11.14-.23.3-.38s.34-.23.55-.23c0,0,.03,0,.05,0s.06,0,.12.01v.56s-.06,0-.09-.01-.06,0-.09,0c-.27,0-.47.09-.61.26s-.21.37-.21.59v1.8h-.53v-3.14Z" fill="#000" stroke-width="0"/></g></g></g><g id="s"><g id="t"><path id="u" d="M173.66,175.8v3.5" fill="gray" stroke="#000" stroke-linejoin="round" stroke-width=".8"/></g><g id="v"><g isolation="isolate"><path d="M165.34,183.05h2.99v.53h-2.4v1.31h2.11v.51h-2.11v1.96h-.58v-4.3Z" fill="#000" stroke-width="0"/><path d="M170.56,185.46c.12-.02.2-.07.24-.15.02-.05.04-.12.04-.2,0-.18-.06-.31-.19-.39-.13-.08-.31-.12-.55-.12-.27,0-.47.07-.58.22-.06.08-.11.21-.13.37h-.49c0-.39.14-.66.38-.81.24-.15.52-.23.84-.23.37,0,.67.07.9.21.23.14.34.36.34.66v1.81c0,.05.01.1.03.13s.07.05.14.05c.02,0,.05,0,.08,0,.03,0,.06,0,.09-.01v.39c-.08.02-.14.04-.19.04s-.1,0-.18,0c-.18,0-.31-.06-.4-.19-.04-.07-.07-.17-.09-.29-.11.14-.26.26-.46.37s-.42.16-.67.16c-.29,0-.53-.09-.71-.26s-.28-.4-.28-.66c0-.29.09-.52.27-.68s.42-.26.71-.3l.84-.1ZM169.45,186.88c.11.09.24.13.4.13.19,0,.37-.04.54-.13.29-.14.44-.38.44-.7v-.42c-.06.04-.15.08-.25.1-.1.03-.2.05-.3.06l-.32.04c-.19.03-.33.07-.43.12-.16.09-.24.24-.24.44,0,.15.06.27.17.36Z" fill="#000" stroke-width="0"/><path d="M172.22,184.22h.52v.45c.12-.15.24-.27.34-.34.17-.12.37-.18.59-.18.25,0,.45.06.6.18.09.07.16.17.23.31.12-.17.25-.29.41-.37s.34-.12.53-.12c.42,0,.71.15.86.46.08.16.12.38.12.66v2.09h-.55v-2.18c0-.21-.05-.35-.16-.43s-.23-.12-.38-.12c-.21,0-.39.07-.54.21s-.22.37-.22.69v1.83h-.54v-2.05c0-.21-.03-.37-.08-.47-.08-.15-.23-.22-.45-.22-.2,0-.38.08-.54.23s-.24.43-.24.84v1.66h-.53v-3.14Z" fill="#000" stroke-width="0"/><path d="M177.22,183.05h.54v.6h-.54v-.6ZM177.22,184.24h.54v3.12h-.54v-3.12Z" fill="#000" stroke-width="0"/><path d="M178.57,183.05h.53v4.3h-.53v-4.3Z" fill="#000" stroke-width="0"/><path d="M181.85,184.22h.58c-.07.2-.24.66-.5,1.38-.19.54-.35.98-.48,1.32-.3.8-.52,1.29-.64,1.46s-.34.26-.64.26c-.07,0-.13,0-.17,0s-.09-.02-.15-.03v-.48c.09.03.16.04.2.05s.08,0,.11,0c.1,0,.17-.02.21-.05s.08-.07.12-.12c0-.02.04-.09.1-.24.06-.14.1-.25.13-.32l-1.16-3.23h.6l.84,2.56.85-2.56Z" fill="#000" stroke-width="0"/></g></g></g><g id="w"><g id="x"><path id="y" d="M209.26,175.8v3.5" fill="gray" stroke="#000" stroke-linejoin="round" stroke-width=".8"/></g><g id="z"><g isolation="isolate"><path d="M203.75,183.18c.42.22.68.62.77,1.18h-.58c-.07-.31-.21-.54-.43-.69-.22-.14-.49-.21-.82-.21-.39,0-.72.15-.99.45s-.4.74-.4,1.34c0,.51.11.93.33,1.25.22.32.58.48,1.08.48.38,0,.7-.11.95-.34.25-.23.38-.59.38-1.09h-1.35v-.48h1.89v2.3h-.38l-.14-.55c-.19.22-.37.37-.52.45-.25.14-.57.22-.96.22-.5,0-.93-.17-1.29-.5-.39-.41-.59-.98-.59-1.71s.19-1.29.58-1.72c.37-.41.84-.61,1.42-.61.4,0,.74.08,1.03.23Z" fill="#000" stroke-width="0"/><path d="M207.42,184.31c.21.1.37.24.47.41.1.16.17.34.21.55.03.14.05.38.05.69h-2.28c0,.32.08.58.22.77.14.19.36.29.65.29.27,0,.49-.09.65-.27.09-.11.16-.23.19-.37h.52c-.01.12-.06.24-.14.38-.08.14-.16.26-.26.35-.16.16-.36.26-.59.32-.13.03-.27.05-.43.05-.39,0-.72-.14-.99-.43-.27-.29-.41-.68-.41-1.19s.14-.91.41-1.23c.27-.31.63-.47,1.07-.47.22,0,.44.05.64.16ZM207.6,185.54c-.02-.23-.07-.41-.15-.55-.14-.25-.38-.38-.72-.38-.24,0-.44.09-.6.26-.16.18-.25.4-.26.67h1.73Z" fill="#000" stroke-width="0"/><path d="M208.81,184.22h.5v.45c.15-.18.31-.32.47-.4s.35-.12.55-.12c.45,0,.75.16.9.47.09.17.13.41.13.73v2.01h-.54v-1.98c0-.19-.03-.35-.08-.46-.09-.2-.26-.29-.51-.29-.12,0-.23.01-.31.04-.14.04-.27.13-.38.26-.09.1-.14.21-.17.32-.03.11-.04.27-.04.47v1.64h-.53v-3.14Z" fill="#000" stroke-width="0"/><path d="M212.68,184.22v2.08c0,.16.03.29.07.39.09.19.26.28.51.28.36,0,.6-.16.73-.49.07-.18.11-.42.11-.72v-1.54h.53v3.14h-.5v-.46c-.06.12-.14.22-.24.3-.2.16-.44.25-.72.25-.44,0-.74-.15-.9-.45-.09-.16-.13-.37-.13-.64v-2.13h.54Z" fill="#000" stroke-width="0"/><path d="M215.8,186.37c.02.18.06.31.13.4.14.17.37.25.71.25.2,0,.37-.04.53-.13.15-.08.23-.22.23-.39,0-.13-.06-.24-.18-.31-.08-.04-.23-.09-.46-.15l-.43-.11c-.27-.07-.47-.14-.6-.22-.23-.14-.35-.34-.35-.59,0-.3.11-.54.33-.72s.51-.28.88-.28c.48,0,.82.14,1.04.42.13.18.2.37.19.57h-.5c0-.12-.05-.23-.13-.32-.12-.14-.34-.21-.64-.21-.2,0-.36.04-.46.11-.1.08-.16.18-.16.3,0,.14.07.25.21.33.08.05.2.09.35.13l.36.08c.39.09.64.18.78.27.21.13.31.35.31.64s-.11.52-.32.72c-.21.2-.54.3-.98.3-.47,0-.81-.11-1-.32-.2-.21-.3-.47-.32-.79h.51Z" fill="#000" stroke-width="0"/></g></g></g><g id="aa"><g id="ab"><path id="ac" d="M244.86,175.8v3.5" fill="gray" stroke="#000" stroke-linejoin="round" stroke-width=".8"/></g><g id="ad"><g isolation="isolate"><path d="M235.03,185.97c.01.24.07.44.17.59.19.29.51.43.99.43.21,0,.4-.03.58-.09.33-.12.5-.34.5-.65,0-.23-.07-.4-.21-.5-.14-.1-.37-.18-.68-.25l-.56-.13c-.37-.09-.63-.18-.78-.28-.27-.18-.4-.45-.4-.81,0-.39.13-.7.39-.95.26-.25.63-.37,1.11-.37.44,0,.81.11,1.12.33.31.22.46.57.46,1.04h-.55c-.03-.23-.09-.41-.18-.53-.17-.22-.46-.34-.87-.34-.33,0-.57.07-.71.22-.14.14-.22.31-.22.5,0,.21.08.37.25.46.11.06.36.14.76.23l.58.14c.28.07.5.16.65.27.26.2.4.49.4.88,0,.48-.17.82-.51,1.02-.34.21-.73.31-1.18.31-.52,0-.93-.14-1.23-.41-.29-.27-.44-.64-.43-1.1h.55Z" fill="#000" stroke-width="0"/><path d="M238.53,184.24h.52v.42c.11-.14.22-.25.35-.33.18-.12.39-.18.63-.18.36,0,.66.14.91.41.25.27.37.66.37,1.17,0,.68-.18,1.17-.54,1.46-.23.19-.49.28-.79.28-.24,0-.44-.05-.6-.16-.09-.06-.2-.16-.31-.3v1.6h-.53v-4.37ZM240.52,186.69c.16-.21.25-.51.25-.92,0-.25-.04-.46-.11-.64-.14-.35-.39-.52-.75-.52s-.62.18-.75.55c-.07.2-.11.44-.11.74,0,.24.04.45.11.62.14.32.39.49.75.49.25,0,.45-.1.62-.31Z" fill="#000" stroke-width="0"/><path d="M243.85,184.31c.21.1.37.24.47.41.11.16.17.34.21.55.03.14.05.38.05.69h-2.28c0,.32.08.58.22.77.14.19.36.29.65.29.27,0,.49-.09.65-.27.09-.11.16-.23.19-.37h.52c-.01.12-.06.24-.14.38-.08.14-.16.26-.26.35-.16.16-.36.26-.59.32-.13.03-.27.05-.43.05-.39,0-.72-.14-.99-.43-.27-.29-.4-.68-.4-1.19s.14-.91.41-1.23.63-.47,1.07-.47c.22,0,.44.05.64.16ZM244.04,185.54c-.02-.23-.07-.41-.15-.55-.14-.25-.38-.38-.72-.38-.24,0-.44.09-.6.26-.16.18-.25.4-.26.67h1.73Z" fill="#000" stroke-width="0"/><path d="M247.32,184.39c.22.17.36.47.4.89h-.51c-.03-.19-.1-.35-.21-.48s-.29-.19-.54-.19c-.34,0-.58.16-.72.49-.09.21-.14.48-.14.79s.07.58.2.79c.13.21.34.32.63.32.22,0,.39-.07.52-.2.13-.13.22-.32.27-.55h.51c-.06.42-.21.72-.44.91s-.53.29-.9.29c-.41,0-.74-.15-.98-.45-.24-.3-.37-.67-.37-1.12,0-.55.13-.98.4-1.29s.61-.46,1.02-.46c.35,0,.64.09.86.26Z" fill="#000" stroke-width="0"/><path d="M248.25,183.05h.54v.6h-.54v-.6ZM248.25,184.24h.54v3.12h-.54v-3.12Z" fill="#000" stroke-width="0"/><path d="M251.52,184.31c.21.1.37.24.47.41.11.16.17.34.21.55.03.14.05.38.05.69h-2.28c0,.32.08.58.22.77.14.19.36.29.65.29.27,0,.49-.09.65-.27.09-.11.16-.23.19-.37h.52c-.01.12-.06.24-.14.38-.08.14-.16.26-.26.35-.16.16-.36.26-.59.32-.13.03-.27.05-.43.05-.39,0-.72-.14-.99-.43-.27-.29-.4-.68-.4-1.19s.14-.91.41-1.23.63-.47,1.07-.47c.22,0,.44.05.64.16ZM251.71,185.54c-.02-.23-.07-.41-.15-.55-.14-.25-.38-.38-.72-.38-.24,0-.44.09-.6.26-.16.18-.25.4-.26.67h1.73Z" fill="#000" stroke-width="0"/><path d="M253.23,186.37c.02.18.06.31.13.4.13.17.37.25.71.25.2,0,.38-.04.53-.13.15-.08.23-.22.23-.39,0-.13-.06-.24-.18-.31-.08-.04-.23-.09-.46-.15l-.43-.11c-.27-.07-.47-.14-.6-.22-.23-.14-.34-.34-.34-.59,0-.3.11-.54.33-.72s.51-.28.87-.28c.48,0,.82.14,1.04.42.13.18.2.37.19.57h-.5c-.01-.12-.05-.23-.13-.32-.12-.14-.34-.21-.65-.21-.2,0-.36.04-.46.11-.11.08-.16.18-.16.3,0,.14.07.25.21.33.08.05.2.09.35.13l.36.08c.39.09.64.18.78.27.21.13.31.35.31.64s-.11.52-.32.72-.54.3-.98.3c-.47,0-.81-.11-1-.32-.2-.21-.3-.47-.32-.79h.51Z" fill="#000" stroke-width="0"/></g></g></g></g><g id="ae"><g id="af"><g id="ag"><g clip-path="url(#ah)"><path d="M44.27,175.8h223.2" fill="none" stroke="rgba(211,211,211,.7)" stroke-linecap="square" stroke-linejoin="round" stroke-width=".8"/></g></g><g id="ai"><path id="aj" d="M44.27,175.8h-3.5" fill="gray" stroke="#000" stroke-linejoin="round" stroke-width=".8"/></g><g id="ak"><g isolation="isolate"><path d="M36.73,174.55c.19.35.28.82.28,1.42,0,.57-.08,1.04-.25,1.42-.25.54-.65.8-1.21.8-.5,0-.88-.22-1.12-.66-.21-.37-.31-.86-.31-1.47,0-.48.06-.89.18-1.23.23-.64.65-.96,1.25-.96.54,0,.94.22,1.18.67ZM36.2,177.35c.16-.24.24-.69.24-1.35,0-.48-.06-.87-.18-1.18-.12-.31-.35-.46-.68-.46-.31,0-.54.15-.68.44-.14.29-.22.72-.22,1.29,0,.43.05.77.14,1.03.14.4.38.59.72.59.27,0,.49-.12.65-.36Z" fill="#000" stroke-width="0"/></g></g></g><g id="al"><g id="am"><g clip-path="url(#an)"><path d="M44.27,159.17h223.2" fill="none" stroke="rgba(211,211,211,.7)" stroke-linecap="square" stroke-linejoin="round" stroke-width=".8"/></g></g><g id="ao"><path id="ap" d="M44.27,159.17h-3.5" fill="gray" stroke="#000" stroke-linejoin="round" stroke-width=".8"/></g><g id="aq"><g isolation="isolate"><path d="M31.17,158.48v-.4c.38-.04.65-.1.8-.19s.26-.29.34-.62h.42v4.18h-.56v-2.97h-.99Z" fill="#000" stroke-width="0"/><path d="M36.73,157.92c.19.35.28.82.28,1.42,0,.57-.08,1.04-.25,1.42-.25.54-.65.8-1.21.8-.5,0-.88-.22-1.12-.66-.21-.37-.31-.86-.31-1.47,0-.48.06-.89.18-1.23.23-.64.65-.96,1.25-.96.54,0,.94.22,1.18.67ZM36.2,160.72c.16-.24.24-.69.24-1.35,0-.48-.06-.87-.18-1.18-.12-.31-.35-.46-.68-.46-.31,0-.54.15-.68.44-.14.29-.22.72-.22,1.29,0,.43.05.77.14,1.03.14.4.38.59.72.59.27,0,.49-.12.65-.36Z" fill="#000" stroke-width="0"/></g></g></g><g id="ar"><g id="as"><g clip-path="url(#at)"><path d="M44.27,142.54h223.2" fill="none" stroke="rgba(211,211,211,.7)" stroke-linecap="square" stroke-linejoin="round" stroke-width=".8"/></g></g><g id="au"><path id="av" d="M44.27,142.54h-3.5" fill="gray" stroke="#000" stroke-linejoin="round" stroke-width=".8"/></g><g id="aw"><g isolation="isolate"><path d="M31,143.87c.13-.27.38-.51.76-.73l.56-.32c.25-.15.43-.27.53-.38.16-.16.24-.35.24-.56,0-.24-.07-.44-.22-.58-.15-.14-.34-.22-.59-.22-.36,0-.61.14-.75.41-.07.15-.12.35-.12.61h-.54c0-.37.07-.66.2-.89.23-.41.63-.61,1.21-.61.48,0,.83.13,1.05.39s.33.55.33.87c0,.34-.12.62-.35.86-.14.14-.38.31-.74.5l-.4.22c-.19.11-.34.21-.45.3-.2.17-.32.36-.37.57h2.29v.5h-2.88c.02-.36.09-.68.22-.94Z" fill="#000" stroke-width="0"/><path d="M36.73,141.29c.19.35.28.82.28,1.42,0,.57-.08,1.04-.25,1.41-.25.54-.65.8-1.21.8-.5,0-.88-.22-1.12-.66-.21-.37-.31-.86-.31-1.47,0-.48.06-.88.18-1.23.23-.64.65-.96,1.25-.96.54,0,.94.22,1.18.67ZM36.2,144.09c.16-.24.24-.69.24-1.35,0-.48-.06-.87-.18-1.18-.12-.31-.35-.46-.68-.46-.31,0-.54.15-.68.44-.14.29-.22.72-.22,1.29,0,.43.05.77.14,1.03.14.4.38.59.72.59.27,0,.49-.12.65-.36Z" fill="#000" stroke-width="0"/></g></g></g><g id="ax"><g id="ay"><g clip-path="url(#az)"><path d="M44.27,125.9h223.2" fill="none" stroke="rgba(211,211,211,.7)" stroke-linecap="square" stroke-linejoin="round" stroke-width=".8"/></g></g><g id="ba"><path id="bb" d="M44.27,125.9h-3.5" fill="gray" stroke="#000" stroke-linejoin="round" stroke-width=".8"/></g><g id="bc"><g isolation="isolate"><path d="M31.07,127.89c-.22-.27-.34-.6-.34-.99h.55c.02.27.07.47.15.59.14.22.38.33.74.33.28,0,.5-.07.67-.22s.25-.34.25-.57c0-.29-.09-.49-.27-.61s-.42-.17-.74-.17c-.04,0-.07,0-.11,0-.04,0-.07,0-.11,0v-.47c.05,0,.1,0,.14.01s.08,0,.12,0c.2,0,.36-.03.49-.09.22-.11.33-.3.33-.59,0-.21-.07-.37-.22-.48s-.32-.17-.52-.17c-.35,0-.59.12-.73.35-.07.13-.12.31-.13.55h-.52c0-.31.06-.58.19-.8.21-.39.59-.59,1.13-.59.43,0,.76.1.99.29.23.19.35.47.35.83,0,.26-.07.47-.21.63-.09.1-.2.18-.33.23.22.06.39.18.52.35.12.17.19.38.19.63,0,.4-.13.73-.4.98s-.64.38-1.12.38-.86-.14-1.08-.41Z" fill="#000" stroke-width="0"/><path d="M36.73,124.66c.19.35.28.82.28,1.42,0,.57-.08,1.04-.25,1.42-.25.54-.65.8-1.21.8-.5,0-.88-.22-1.12-.66-.21-.37-.31-.86-.31-1.47,0-.48.06-.89.18-1.23.23-.64.65-.96,1.25-.96.54,0,.94.22,1.18.67ZM36.2,127.45c.16-.24.24-.69.24-1.35,0-.48-.06-.87-.18-1.18-.12-.31-.35-.46-.68-.46-.31,0-.54.15-.68.44-.14.29-.22.72-.22,1.29,0,.43.05.77.14,1.03.14.4.38.59.72.59.27,0,.49-.12.65-.36Z" fill="#000" stroke-width="0"/></g></g></g><g id="bd"><g id="be"><g clip-path="url(#bf)"><path d="M44.27,109.27h223.2" fill="none" stroke="rgba(211,211,211,.7)" stroke-linecap="square" stroke-linejoin="round" stroke-width=".8"/></g></g><g id="bg"><path id="bh" d="M44.27,109.27h-3.5" fill="gray" stroke="#000" stroke-linejoin="round" stroke-width=".8"/></g><g id="bi"><g isolation="isolate"><path d="M32.58,111.55v-1.03h-1.84v-.52l1.92-2.67h.45v2.72h.62v.46h-.62v1.03h-.53ZM32.58,110.07v-1.91l-1.34,1.91h1.34Z" fill="#000" stroke-width="0"/><path d="M36.73,108.03c.19.35.28.82.28,1.42,0,.57-.08,1.04-.25,1.42-.25.54-.65.8-1.21.8-.5,0-.88-.22-1.12-.66-.21-.37-.31-.86-.31-1.47,0-.48.06-.89.18-1.23.23-.64.65-.96,1.25-.96.54,0,.94.22,1.18.67ZM36.2,110.82c.16-.24.24-.69.24-1.35,0-.48-.06-.87-.18-1.18-.12-.31-.35-.46-.68-.46-.31,0-.54.15-.68.44-.14.29-.22.72-.22,1.29,0,.43.05.77.14,1.03.14.4.38.59.72.59.27,0,.49-.12.65-.36Z" fill="#000" stroke-width="0"/></g></g></g><g id="bj"><g id="bk"><g clip-path="url(#bl)"><path d="M44.27,92.64h223.2" fill="none" stroke="rgba(211,211,211,.7)" stroke-linecap="square" stroke-linejoin="round" stroke-width=".8"/></g></g><g id="bm"><path id="bn" d="M44.27,92.64h-3.5" fill="gray" stroke="#000" stroke-linejoin="round" stroke-width=".8"/></g><g id="bo"><g isolation="isolate"><path d="M31.33,93.85c.04.3.17.51.42.62.12.06.27.09.43.09.31,0,.54-.1.69-.3s.23-.42.23-.66c0-.29-.09-.52-.27-.68s-.39-.24-.64-.24c-.18,0-.34.04-.47.11s-.24.17-.33.29l-.46-.03.32-2.26h2.18v.51h-1.78l-.18,1.17c.1-.07.19-.13.28-.17.16-.06.34-.1.54-.1.38,0,.71.12.98.37s.4.56.4.94-.12.75-.37,1.05-.64.45-1.17.45c-.34,0-.64-.1-.91-.29-.26-.19-.41-.49-.44-.89h.55Z" fill="#000" stroke-width="0"/><path d="M36.73,91.39c.19.35.28.82.28,1.42,0,.57-.08,1.04-.25,1.42-.25.54-.65.8-1.21.8-.5,0-.88-.22-1.12-.66-.21-.37-.31-.86-.31-1.47,0-.48.06-.89.18-1.23.23-.64.65-.96,1.25-.96.54,0,.94.22,1.18.67ZM36.2,94.19c.16-.24.24-.69.24-1.35,0-.48-.06-.87-.18-1.18-.12-.31-.35-.46-.68-.46-.31,0-.54.15-.68.44-.14.29-.22.72-.22,1.29,0,.43.05.77.14,1.03.14.4.38.59.72.59.27,0,.49-.12.65-.36Z" fill="#000" stroke-width="0"/></g></g></g><g id="bp"><g id="bq"><g clip-path="url(#br)"><path d="M44.27,76.01h223.2" fill="none" stroke="rgba(211,211,211,.7)" stroke-linecap="square" stroke-linejoin="round" stroke-width=".8"/></g></g><g id="bs"><path id="bt" d="M44.27,76.01h-3.5" fill="gray" stroke="#000" stroke-linejoin="round" stroke-width=".8"/></g><g id="bu"><g isolation="isolate"><path d="M33.33,74.44c.18.24.28.49.28.75h-.52c-.03-.17-.08-.3-.15-.39-.13-.18-.32-.26-.58-.26-.29,0-.53.14-.7.41-.17.27-.27.66-.29,1.17.12-.18.27-.31.46-.4.17-.08.36-.12.56-.12.35,0,.66.11.92.34s.39.56.39,1c0,.38-.12.72-.37,1.01s-.6.44-1.06.44c-.39,0-.73-.15-1.02-.45s-.43-.8-.43-1.5c0-.52.06-.96.19-1.33.24-.7.69-1.04,1.34-1.04.47,0,.8.12.98.37ZM32.93,77.65c.14-.19.21-.41.21-.66,0-.21-.06-.42-.18-.61s-.35-.29-.67-.29c-.23,0-.43.08-.6.23s-.26.38-.26.68c0,.27.08.49.23.67s.37.27.65.27.48-.09.62-.28Z" fill="#000" stroke-width="0"/><path d="M36.73,74.76c.19.35.28.82.28,1.42,0,.57-.08,1.04-.25,1.42-.25.54-.65.8-1.21.8-.5,0-.88-.22-1.12-.66-.21-.37-.31-.86-.31-1.47,0-.48.06-.89.18-1.23.23-.64.65-.96,1.25-.96.54,0,.94.22,1.18.67ZM36.2,77.56c.16-.24.24-.69.24-1.35,0-.48-.06-.87-.18-1.18-.12-.31-.35-.46-.68-.46-.31,0-.54.15-.68.44-.14.29-.22.72-.22,1.29,0,.43.05.77.14,1.03.14.4.38.59.72.59.27,0,.49-.12.65-.36Z" fill="#000" stroke-width="0"/></g></g></g><g id="bv"><g id="bw"><g clip-path="url(#bx)"><path d="M44.27,59.38h223.2" fill="none" stroke="rgba(211,211,211,.7)" stroke-linecap="square" stroke-linejoin="round" stroke-width=".8"/></g></g><g id="by"><path id="bz" d="M44.27,59.38h-3.5" fill="gray" stroke="#000" stroke-linejoin="round" stroke-width=".8"/></g><g id="ca"><g isolation="isolate"><path d="M33.73,57.53v.46c-.13.13-.31.36-.54.68s-.42.67-.59,1.05c-.17.37-.3.7-.39,1-.06.19-.13.5-.22.93h-.58c.13-.8.43-1.6.88-2.39.27-.46.55-.87.84-1.2h-2.32v-.53h2.92Z" fill="#000" stroke-width="0"/><path d="M36.73,58.13c.19.35.28.82.28,1.42,0,.57-.08,1.04-.25,1.42-.25.54-.65.8-1.21.8-.5,0-.88-.22-1.12-.66-.21-.37-.31-.86-.31-1.47,0-.48.06-.89.18-1.23.23-.64.65-.96,1.25-.96.54,0,.94.22,1.18.67ZM36.2,60.93c.16-.24.24-.69.24-1.35,0-.48-.06-.87-.18-1.18-.12-.31-.35-.46-.68-.46-.31,0-.54.15-.68.44-.14.29-.22.72-.22,1.29,0,.43.05.77.14,1.03.14.4.38.59.72.59.27,0,.49-.12.65-.36Z" fill="#000" stroke-width="0"/></g></g></g><g id="cb"><g id="cc"><g clip-path="url(#cd)"><path d="M44.27,42.74h223.2" fill="none" stroke="rgba(211,211,211,.7)" stroke-linecap="square" stroke-linejoin="round" stroke-width=".8"/></g></g><g id="ce"><path id="cf" d="M44.27,42.74h-3.5" fill="gray" stroke="#000" stroke-linejoin="round" stroke-width=".8"/></g><g id="cg"><g isolation="isolate"><path d="M31.16,42.57c-.15-.16-.23-.36-.23-.61,0-.31.11-.58.34-.81.23-.22.55-.34.96-.34s.72.11.95.32c.23.21.34.46.34.74,0,.26-.07.47-.2.64-.07.09-.19.18-.35.27.17.08.31.17.41.28.19.2.28.45.28.76,0,.37-.12.68-.37.94-.25.26-.6.39-1.05.39-.41,0-.75-.11-1.04-.33-.28-.22-.42-.54-.42-.96,0-.25.06-.46.18-.64s.3-.32.54-.42c-.15-.06-.26-.14-.34-.22ZM32.86,44.46c.16-.13.24-.33.24-.59s-.08-.48-.25-.62-.38-.21-.64-.21-.46.07-.62.22c-.16.14-.24.34-.24.6,0,.22.07.41.22.57.15.16.37.24.68.24.24,0,.45-.07.61-.2ZM32.77,42.39c.13-.13.2-.29.2-.47,0-.16-.06-.3-.19-.43-.12-.13-.31-.2-.57-.2s-.44.07-.55.2c-.11.13-.17.29-.17.46,0,.2.07.35.22.46.15.11.32.17.52.17.23,0,.41-.07.54-.2Z" fill="#000" stroke-width="0"/><path d="M36.73,41.5c.19.35.28.82.28,1.42,0,.57-.08,1.04-.25,1.42-.25.54-.65.8-1.21.8-.5,0-.88-.22-1.12-.66-.21-.37-.31-.86-.31-1.47,0-.48.06-.89.18-1.23.23-.64.65-.96,1.25-.96.54,0,.94.22,1.18.67ZM36.2,44.29c.16-.24.24-.69.24-1.35,0-.48-.06-.87-.18-1.18-.12-.31-.35-.46-.68-.46-.31,0-.54.15-.68.44-.14.29-.22.72-.22,1.29,0,.43.05.77.14,1.03.14.4.38.59.72.59.27,0,.49-.12.65-.36Z" fill="#000" stroke-width="0"/></g></g></g><g id="ch"><g id="ci"><g clip-path="url(#cj)"><path d="M44.27,26.11h223.2" fill="none" stroke="rgba(211,211,211,.7)" stroke-linecap="square" stroke-linejoin="round" stroke-width=".8"/></g></g><g id="ck"><path id="cl" d="M44.27,26.11h-3.5" fill="gray" stroke="#000" stroke-linejoin="round" stroke-width=".8"/></g><g id="cm"><g isolation="isolate"><path d="M31.39,27.37c.02.29.13.49.34.6.11.06.23.09.36.09.25,0,.47-.1.64-.32.18-.21.3-.64.38-1.28-.12.19-.26.32-.44.39s-.36.11-.56.11c-.4,0-.72-.13-.96-.38-.24-.25-.35-.58-.35-.97s.12-.71.35-1c.23-.29.58-.43,1.03-.43.61,0,1.03.28,1.27.83.13.3.19.68.19,1.14,0,.51-.08.97-.23,1.36-.26.66-.69.99-1.3.99-.41,0-.72-.11-.93-.32s-.32-.48-.32-.81h.53ZM32.76,26.31c.17-.14.26-.38.26-.72,0-.31-.08-.54-.23-.69s-.35-.23-.59-.23c-.26,0-.46.09-.61.26s-.23.4-.23.69.07.49.2.65.34.24.64.24c.21,0,.4-.07.57-.21Z" fill="#000" stroke-width="0"/><path d="M36.73,24.87c.19.35.28.82.28,1.42,0,.57-.08,1.04-.25,1.42-.25.54-.65.8-1.21.8-.5,0-.88-.22-1.12-.66-.21-.37-.31-.86-.31-1.47,0-.48.06-.89.18-1.23.23-.64.65-.96,1.25-.96.54,0,.94.22,1.18.67ZM36.2,27.66c.16-.24.24-.69.24-1.35,0-.48-.06-.87-.18-1.18-.12-.31-.35-.46-.68-.46-.31,0-.54.15-.68.44-.14.29-.22.72-.22,1.29,0,.43.05.77.14,1.03.14.4.38.59.72.59.27,0,.49-.12.65-.36Z" fill="#000" stroke-width="0"/></g></g></g><g id="cn"><g id="co"><g clip-path="url(#cp)"><path d="M44.27,9.48h223.2" fill="none" stroke="rgba(211,211,211,.7)" stroke-linecap="square" stroke-linejoin="round" stroke-width=".8"/></g></g><g id="cq"><path id="cr" d="M44.27,9.48h-3.5" fill="gray" stroke="#000" stroke-linejoin="round" stroke-width=".8"/></g><g id="cs"><g isolation="isolate"><path d="M27.83,8.79v-.4c.38-.04.65-.1.8-.19s.26-.29.34-.62h.42v4.18h-.56v-2.97h-.99Z" fill="#000" stroke-width="0"/><path d="M33.39,8.23c.19.35.28.82.28,1.42,0,.57-.08,1.04-.25,1.42-.25.54-.65.8-1.21.8-.5,0-.88-.22-1.12-.66-.21-.37-.31-.86-.31-1.47,0-.48.06-.89.18-1.23.23-.64.65-.96,1.25-.96.54,0,.94.22,1.18.67ZM32.86,11.03c.16-.24.24-.69.24-1.35,0-.48-.06-.87-.18-1.18-.12-.31-.35-.46-.68-.46-.31,0-.54.15-.68.44-.14.29-.22.72-.22,1.29,0,.43.05.77.14,1.03.14.4.38.59.72.59.27,0,.49-.12.65-.36Z" fill="#000" stroke-width="0"/><path d="M36.73,8.23c.19.35.28.82.28,1.42,0,.57-.08,1.04-.25,1.42-.25.54-.65.8-1.21.8-.5,0-.88-.22-1.12-.66-.21-.37-.31-.86-.31-1.47,0-.48.06-.89.18-1.23.23-.64.65-.96,1.25-.96.54,0,.94.22,1.18.67ZM36.2,11.03c.16-.24.24-.69.24-1.35,0-.48-.06-.87-.18-1.18-.12-.31-.35-.46-.68-.46-.31,0-.54.15-.68.44-.14.29-.22.72-.22,1.29,0,.43.05.77.14,1.03.14.4.38.59.72.59.27,0,.49-.12.65-.36Z" fill="#000" stroke-width="0"/></g></g></g><g id="ct"><g isolation="isolate"><path d="M7.5,143.36v-2.28c0-.38.06-.69.17-.93.21-.46.61-.69,1.19-.69.3,0,.55.06.74.19.19.12.35.3.46.52.08-.2.18-.34.31-.44.13-.1.34-.16.63-.17l.67-.02c.19,0,.33-.02.43-.05.16-.04.26-.11.31-.22h.11v.83s-.1.04-.17.05-.2.02-.4.03l-.84.04c-.33.02-.55.13-.66.36-.06.13-.09.32-.09.59v1.5h2.15v.68h-5.02ZM9.8,141.15c0-.31-.06-.56-.19-.74s-.36-.27-.69-.27c-.36,0-.6.13-.73.38-.07.14-.1.32-.1.54v1.62h1.72v-1.53Z" fill="#000" stroke-width="0"/><path d="M8.96,136.21c.12-.24.28-.43.47-.55.18-.12.4-.2.65-.25.17-.04.44-.05.81-.05v2.66c.37-.01.67-.1.9-.26.22-.16.34-.41.34-.76,0-.32-.11-.57-.32-.76-.12-.11-.27-.18-.43-.23v-.6c.13.02.28.07.45.16s.3.19.41.3c.18.19.31.42.37.69.04.15.05.31.05.5,0,.45-.17.84-.5,1.15-.33.31-.8.47-1.39.47s-1.07-.16-1.43-.48-.55-.73-.55-1.24c0-.26.06-.51.18-.75ZM10.4,135.99c-.27.03-.48.08-.64.17-.3.17-.44.45-.44.84,0,.28.1.52.31.71.2.19.46.29.78.3v-2.02Z" fill="#000" stroke-width="0"/><path d="M8.88,134.63v-.6h.49c-.17-.12-.29-.26-.39-.4-.14-.21-.21-.45-.21-.73,0-.42.16-.77.48-1.06.32-.29.77-.44,1.36-.44.8,0,1.37.21,1.71.63.22.27.32.57.32.93,0,.28-.06.51-.18.7-.07.11-.19.23-.35.37h1.87v.62h-5.1ZM11.74,132.31c-.24-.19-.6-.29-1.08-.29-.29,0-.54.04-.75.13-.4.16-.6.45-.6.88s.21.72.64.88c.23.08.52.13.87.13.28,0,.52-.04.72-.13.38-.16.57-.45.57-.88,0-.29-.12-.53-.36-.72Z" fill="#000" stroke-width="0"/><path d="M8.86,130.67v-.58h.63c-.12-.05-.27-.16-.45-.35s-.26-.4-.26-.65c0-.01,0-.03,0-.06s0-.07.01-.14h.65s-.01.07-.01.1c0,.03,0,.06,0,.1,0,.31.1.55.3.71.2.17.43.25.69.25h2.11v.62h-3.66Z" fill="#000" stroke-width="0"/><path d="M8.96,126.09c.12-.24.28-.43.47-.55.18-.12.4-.2.65-.25.17-.04.44-.05.81-.05v2.66c.37-.01.67-.1.9-.26.22-.16.34-.41.34-.76,0-.32-.11-.57-.32-.76-.12-.11-.27-.18-.43-.23v-.6c.13.02.28.07.45.16s.3.19.41.3c.18.19.31.42.37.69.04.15.05.31.05.5,0,.45-.17.84-.5,1.15-.33.31-.8.47-1.39.47s-1.07-.16-1.43-.48-.55-.73-.55-1.24c0-.26.06-.51.18-.75ZM10.4,125.87c-.27.03-.48.08-.64.17-.3.17-.44.45-.44.84,0,.28.1.52.31.71.2.19.46.29.78.3v-2.02Z" fill="#000" stroke-width="0"/><path d="M11.37,124.09c.21-.02.36-.07.47-.16.2-.16.3-.43.3-.82,0-.23-.05-.44-.15-.61-.1-.18-.25-.27-.46-.27-.16,0-.28.07-.36.21-.05.09-.11.27-.17.53l-.12.5c-.08.32-.16.55-.26.7-.17.27-.4.4-.69.4-.35,0-.63-.13-.84-.38-.21-.25-.32-.59-.32-1.02,0-.56.16-.96.48-1.21.21-.15.43-.23.66-.22v.58c-.14.01-.26.06-.38.15-.16.14-.24.4-.24.75,0,.24.04.42.13.54.09.12.21.18.35.18.16,0,.29-.08.38-.24.06-.09.11-.23.15-.41l.1-.41c.11-.45.21-.75.31-.91.16-.24.4-.36.74-.36s.61.12.84.38c.24.25.36.63.36,1.14,0,.55-.12.94-.37,1.17-.25.23-.55.35-.92.37v-.59Z" fill="#000" stroke-width="0"/><path d="M8.96,118.7c.12-.24.28-.43.47-.55.18-.12.4-.2.65-.24.17-.04.44-.05.81-.05v2.66c.37-.01.67-.1.9-.26.22-.16.34-.42.34-.76,0-.32-.11-.57-.32-.76-.12-.11-.27-.18-.43-.23v-.6c.13.02.28.07.45.16s.3.19.41.3c.18.19.31.42.37.69.04.15.05.31.05.5,0,.45-.17.84-.5,1.15-.33.32-.8.47-1.39.47s-1.07-.16-1.43-.47c-.37-.32-.55-.73-.55-1.24,0-.26.06-.51.18-.75ZM10.4,118.48c-.27.03-.48.08-.64.17-.3.17-.44.45-.44.84,0,.28.1.52.31.71s.46.29.78.3v-2.02Z" fill="#000" stroke-width="0"/><path d="M8.86,117.07v-.58h.52c-.21-.17-.37-.36-.46-.55-.09-.19-.14-.41-.14-.65,0-.52.18-.87.54-1.05.2-.1.48-.15.85-.15h2.35v.63h-2.31c-.22,0-.4.03-.54.1-.23.11-.34.31-.34.59,0,.15.02.27.04.36.05.17.15.32.3.44.12.1.25.17.37.2.13.03.31.04.55.04h1.92v.62h-3.66Z" fill="#000" stroke-width="0"/><path d="M7.84,113.05v-.62h1.02v-.58h.5v.58h2.39c.13,0,.21-.04.26-.13.03-.05.04-.13.04-.24,0-.03,0-.06,0-.1,0-.03,0-.07-.01-.12h.49c.02.07.04.14.04.22,0,.08.01.16.01.25,0,.29-.07.48-.22.58-.15.1-.34.15-.57.15h-2.42v.5h-.5v-.5h-1.02Z" fill="#000" stroke-width="0"/><path d="M10.3,109.27c-.02-.14-.08-.24-.18-.28-.05-.03-.13-.04-.24-.04-.21,0-.36.08-.46.22-.09.15-.14.36-.14.64,0,.32.09.55.26.68.1.07.24.12.43.15v.57c-.45-.01-.77-.16-.94-.44-.18-.28-.27-.61-.27-.98,0-.43.08-.78.25-1.05.16-.27.42-.4.77-.4h2.11c.06,0,.12-.01.15-.04.04-.03.06-.08.06-.17,0-.03,0-.06,0-.09,0-.03,0-.07-.02-.11h.46c.03.1.04.17.05.22s0,.12,0,.21c0,.21-.07.37-.22.46-.08.05-.19.09-.34.11.16.13.31.31.43.54.12.23.18.49.18.78,0,.34-.1.62-.31.83-.21.22-.46.32-.77.32-.34,0-.6-.11-.79-.32s-.3-.49-.34-.83l-.12-.98ZM11.97,110.56c.1-.13.15-.28.15-.46,0-.22-.05-.43-.15-.63-.17-.34-.44-.51-.82-.51h-.5c.05.08.09.17.12.29.03.12.05.23.07.35l.05.37c.03.22.08.39.14.5.11.19.28.29.51.29.18,0,.32-.07.42-.2Z" fill="#000" stroke-width="0"/><path d="M7.84,107.21v-.62h1.02v-.58h.5v.58h2.39c.13,0,.21-.04.26-.13.03-.05.04-.13.04-.24,0-.03,0-.06,0-.1,0-.03,0-.07-.01-.12h.49c.02.07.04.14.04.22,0,.08.01.16.01.25,0,.29-.07.48-.22.58-.15.1-.34.15-.57.15h-2.42v.5h-.5v-.5h-1.02Z" fill="#000" stroke-width="0"/><path d="M7.5,105.39v-.62h.7v.62h-.7ZM8.88,105.39v-.62h3.64v.62h-3.64Z" fill="#000" stroke-width="0"/><path d="M8.86,103.53l2.98-.98-2.98-1.02v-.67l3.66,1.38v.66l-3.66,1.35v-.71Z" fill="#000" stroke-width="0"/><path d="M8.96,98.08c.12-.24.28-.43.47-.55.18-.12.4-.2.65-.24.17-.04.44-.05.81-.05v2.66c.37-.01.67-.1.9-.26.22-.16.34-.41.34-.76,0-.32-.11-.57-.32-.76-.12-.11-.27-.18-.43-.23v-.6c.13.02.28.07.45.16.17.09.3.19.41.3.18.19.31.42.37.69.04.15.05.31.05.5,0,.45-.17.84-.5,1.15-.33.31-.8.47-1.39.47s-1.07-.16-1.43-.48c-.37-.32-.55-.73-.55-1.24,0-.26.06-.51.18-.75ZM10.4,97.86c-.27.02-.48.08-.64.17-.3.17-.44.45-.44.84,0,.28.1.52.31.71.2.19.46.29.78.3v-2.02Z" fill="#000" stroke-width="0"/><path d="M7.64,91.07c.26-.49.72-.79,1.38-.9v.67c-.37.08-.63.25-.8.5-.17.25-.25.57-.25.95,0,.46.17.84.52,1.15.35.31.87.47,1.56.47.6,0,1.08-.13,1.46-.39s.56-.68.56-1.26c0-.44-.13-.81-.39-1.1-.26-.29-.69-.44-1.28-.45v1.57h-.56v-2.2h2.69v.44l-.65.16c.25.23.43.43.53.6.17.29.25.67.25,1.12,0,.58-.19,1.09-.58,1.51-.48.46-1.15.69-1.99.69s-1.51-.22-2.01-.67c-.47-.43-.71-.98-.71-1.66,0-.46.09-.87.27-1.21Z" fill="#000" stroke-width="0"/><path d="M8.96,86.79c.12-.24.28-.43.47-.55.18-.12.4-.2.65-.24.17-.04.44-.05.81-.05v2.66c.37-.01.67-.1.9-.26.22-.16.34-.41.34-.76,0-.32-.11-.57-.32-.76-.12-.11-.27-.18-.43-.23v-.6c.13.02.28.07.45.16.17.09.3.19.41.3.18.19.31.42.37.69.04.15.05.31.05.5,0,.45-.17.84-.5,1.15-.33.31-.8.47-1.39.47s-1.07-.16-1.43-.48-.55-.73-.55-1.24c0-.26.06-.51.18-.75ZM10.4,86.57c-.27.02-.48.08-.64.17-.3.17-.44.45-.44.84,0,.28.1.52.31.71.2.19.46.29.78.3v-2.02Z" fill="#000" stroke-width="0"/><path d="M8.86,85.16v-.58h.52c-.21-.17-.37-.36-.46-.55s-.14-.41-.14-.65c0-.52.18-.87.54-1.05.2-.1.48-.15.85-.15h2.35v.63h-2.31c-.22,0-.4.03-.54.1-.23.11-.34.31-.34.59,0,.15.02.27.04.36.05.17.15.32.3.44.12.1.25.17.37.2.13.03.31.05.55.05h1.92v.62h-3.66Z" fill="#000" stroke-width="0"/><path d="M9.22,78.62c.31-.32.78-.49,1.39-.49s1.08.14,1.46.43.58.73.58,1.33c0,.5-.17.9-.51,1.19-.34.29-.8.44-1.37.44-.61,0-1.1-.15-1.47-.46s-.55-.73-.55-1.25c0-.47.16-.86.47-1.19ZM11.66,79c-.31-.15-.65-.22-1.03-.22-.34,0-.62.05-.83.16-.34.17-.51.47-.51.89,0,.37.14.64.43.81s.63.25,1.04.25.71-.08.97-.25.39-.44.39-.8c0-.4-.15-.68-.46-.83Z" fill="#000" stroke-width="0"/><path d="M8.86,77.38v-.61h.52c-.18-.15-.31-.28-.39-.4-.14-.2-.21-.43-.21-.69,0-.29.07-.53.21-.7.08-.1.2-.19.36-.27-.2-.14-.34-.3-.44-.48s-.14-.39-.14-.62c0-.49.18-.83.53-1,.19-.1.45-.14.77-.14h2.44v.64h-2.54c-.24,0-.41.06-.5.18-.09.12-.14.27-.14.45,0,.24.08.45.24.62.16.17.43.26.81.26h2.13v.63h-2.39c-.25,0-.43.03-.54.09-.17.09-.26.27-.26.52,0,.23.09.44.27.63.18.19.51.29.98.29h1.94v.62h-3.66Z" fill="#000" stroke-width="0"/><path d="M8.96,69.28c.12-.24.28-.43.47-.55.18-.12.4-.2.65-.24.17-.04.44-.05.81-.05v2.66c.37-.01.67-.1.9-.26.22-.16.34-.41.34-.76,0-.32-.11-.57-.32-.76-.12-.11-.27-.18-.43-.23v-.6c.13.02.28.07.45.16.17.09.3.19.41.3.18.19.31.42.37.69.04.15.05.31.05.5,0,.45-.17.84-.5,1.15-.33.31-.8.47-1.39.47s-1.07-.16-1.43-.48-.55-.73-.55-1.24c0-.26.06-.51.18-.75ZM10.4,69.06c-.27.02-.48.08-.64.17-.3.17-.44.45-.44.84,0,.28.1.52.31.71.2.19.46.29.78.3v-2.02Z" fill="#000" stroke-width="0"/><path d="M11.37,67.29c.21-.02.36-.07.47-.16.2-.16.3-.43.3-.82,0-.23-.05-.44-.15-.61-.1-.18-.25-.27-.46-.27-.16,0-.28.07-.36.21-.05.09-.11.27-.17.53l-.12.5c-.08.32-.16.55-.26.7-.17.27-.4.4-.69.4-.35,0-.63-.13-.84-.38-.21-.25-.32-.59-.32-1.02,0-.56.16-.96.48-1.21.21-.15.43-.23.66-.23v.58c-.14.01-.26.06-.38.15-.16.14-.24.4-.24.75,0,.24.04.42.13.54s.21.18.35.18c.16,0,.29-.08.38-.24.06-.09.11-.23.15-.41l.1-.41c.11-.45.21-.75.31-.91.16-.24.4-.36.74-.36s.61.12.84.38c.24.25.36.63.36,1.14,0,.55-.12.94-.37,1.17s-.55.35-.92.37v-.59Z" fill="#000" stroke-width="0"/><path d="M7.42,60.59c.7.36,1.21.59,1.54.7.5.16,1.08.24,1.73.24s1.26-.09,1.81-.28c.34-.11.82-.34,1.46-.67v.41c-.52.33-.85.54-1,.62-.14.08-.34.17-.58.26-.34.13-.7.22-1.08.27-.2.02-.39.04-.57.04-.67,0-1.27-.11-1.8-.32-.33-.13-.84-.41-1.5-.84v-.43Z" fill="#000" stroke-width="0"/><path d="M7.65,56.05v-.38l5,2.74v.38l-5-2.74ZM8.12,58.07c.23-.23.51-.35.84-.35s.61.12.84.35.35.51.35.84-.12.61-.35.84-.51.35-.84.35-.61-.12-.84-.35-.35-.51-.35-.84.12-.61.35-.84ZM9.46,58.41c-.14-.14-.3-.21-.5-.21s-.36.07-.5.21c-.14.14-.21.31-.21.5s.07.36.21.5c.14.14.3.21.5.21s.36-.07.5-.21c.14-.14.21-.3.21-.5s-.07-.36-.21-.5ZM10.49,54.71c.23-.23.51-.35.84-.35s.61.12.84.35c.23.23.35.51.35.84s-.12.61-.35.84c-.23.23-.51.35-.84.35s-.61-.12-.84-.35-.35-.51-.35-.84.12-.61.35-.84ZM11.83,55.06c-.14-.14-.3-.21-.5-.21s-.36.07-.5.21c-.14.14-.21.3-.21.5s.07.36.21.5c.14.14.3.21.5.21s.36-.07.5-.21c.14-.14.21-.31.21-.5s-.07-.36-.21-.5Z" fill="#000" stroke-width="0"/><path d="M13.95,53.86c-.71-.36-1.22-.6-1.54-.7-.49-.16-1.06-.24-1.72-.24s-1.26.09-1.81.28c-.34.11-.82.34-1.46.67v-.41c.56-.35.91-.56,1.04-.64.13-.07.31-.15.54-.24.28-.11.57-.19.84-.23.28-.05.55-.07.8-.07.67,0,1.28.11,1.8.32.34.13.84.41,1.5.84v.43Z" fill="#000" stroke-width="0"/></g><g isolation="isolate"><path d="M15.25,107.77c.7.36,1.21.59,1.54.7.5.16,1.08.24,1.73.24s1.26-.09,1.81-.28c.34-.11.82-.34,1.46-.67v.41c-.52.33-.85.54-1,.62-.14.08-.34.17-.58.26-.34.13-.7.22-1.08.27-.2.02-.39.04-.57.04-.67,0-1.27-.11-1.8-.32-.33-.13-.84-.41-1.5-.84v-.43Z" fill="#000" stroke-width="0"/><path d="M16.89,106.84h-.47c-.04-.44-.12-.75-.22-.93s-.34-.31-.72-.39v-.49h4.87v.66h-3.47v1.15Z" fill="#000" stroke-width="0"/><path d="M16.89,103.47h-.47c-.04-.44-.12-.75-.22-.93s-.34-.31-.72-.39v-.49h4.87v.66h-3.47v1.15Z" fill="#000" stroke-width="0"/><path d="M20.01,99.68c-.32.26-.7.39-1.16.39v-.64c.32-.03.55-.09.69-.18.26-.16.39-.45.39-.86,0-.32-.09-.58-.26-.78-.17-.2-.4-.29-.67-.29-.34,0-.57.1-.71.31-.13.21-.2.49-.2.86,0,.04,0,.08,0,.12,0,.04,0,.08,0,.13h-.54c0-.06.01-.12.01-.16s0-.09,0-.14c0-.23-.04-.42-.11-.57-.13-.26-.36-.39-.68-.39-.24,0-.43.09-.56.26s-.2.38-.2.6c0,.41.14.69.41.85.15.09.36.14.64.15v.61c-.36,0-.67-.07-.93-.22-.46-.25-.68-.69-.68-1.32,0-.5.11-.89.33-1.16.22-.27.54-.41.97-.41.3,0,.54.08.73.24.12.1.21.23.27.39.07-.26.21-.46.41-.6.2-.14.45-.22.74-.22.47,0,.85.15,1.14.46s.44.74.44,1.31-.16,1-.48,1.26Z" fill="#000" stroke-width="0"/><path d="M21.08,95.77c-.03-.16-.14-.27-.33-.33-.1-.03-.2-.05-.3-.05-.02,0-.03,0-.04,0-.01,0-.03,0-.04,0v.37h-.75v-.73h.69c.27,0,.51.05.71.16s.33.3.38.57h-.32Z" fill="#000" stroke-width="0"/><path d="M16.89,93.73h-.47c-.04-.44-.12-.75-.22-.93s-.34-.31-.72-.39v-.49h4.87v.66h-3.47v1.15Z" fill="#000" stroke-width="0"/><path d="M16.25,87.24c.4-.22.96-.33,1.66-.33.67,0,1.22.1,1.65.3.62.29.94.76.94,1.41,0,.59-.25,1.03-.77,1.31-.43.24-1,.36-1.71.36-.56,0-1.03-.07-1.43-.22-.74-.27-1.11-.76-1.11-1.46,0-.63.26-1.09.78-1.37ZM19.51,87.86c-.28-.19-.81-.28-1.58-.28-.56,0-1.01.07-1.37.21-.36.14-.54.4-.54.8,0,.36.17.63.51.8.34.17.84.25,1.51.25.5,0,.9-.05,1.2-.16.46-.16.69-.44.69-.84,0-.32-.14-.57-.42-.76Z" fill="#000" stroke-width="0"/><path d="M20.36,84.29h-1.2v2.15h-.6l-3.11-2.24v-.52h3.18v-.72h.54v.72h1.2v.62ZM18.62,84.3h-2.22l2.22,1.57v-1.57Z" fill="#000" stroke-width="0"/><path d="M21.79,82.48c-.71-.36-1.22-.6-1.54-.7-.49-.16-1.06-.24-1.72-.24s-1.26.09-1.81.28c-.34.11-.82.34-1.46.67v-.41c.56-.35.91-.56,1.04-.64.13-.07.31-.15.54-.24.28-.11.57-.19.84-.23.28-.05.55-.07.8-.07.67,0,1.28.11,1.8.32.34.13.84.41,1.5.84v.43Z" fill="#000" stroke-width="0"/></g></g></g><g id="cu"><g clip-path="url(#cv)"><path d="M54.41,175.8h24.92V63.43h-24.92v112.37Z" fill="#80b1d3" stroke-width="0"/></g></g><g id="cw"><g clip-path="url(#cx)"><path d="M90.01,175.8h24.92v-99h-24.92v99Z" fill="#80b1d3" stroke-width="0"/></g></g><g id="cy"><g clip-path="url(#cz)"><path d="M125.61,175.8h24.92v-60.6h-24.92v60.6Z" fill="#80b1d3" stroke-width="0"/></g></g><g id="da"><g clip-path="url(#db)"><path d="M161.21,175.8h24.92v-59.54h-24.92v59.54Z" fill="#80b1d3" stroke-width="0"/></g></g><g id="dc"><g clip-path="url(#dd)"><path d="M196.8,175.8h24.92v-47.2h-24.92v47.2Z" fill="#80b1d3" stroke-width="0"/></g></g><g id="de"><g clip-path="url(#df)"><path d="M232.4,175.8h24.92v-22.02h-24.92v22.02Z" fill="#80b1d3" stroke-width="0"/></g></g><g id="dg"><g clip-path="url(#dh)"><path d="M54.41,63.43h24.92v-7.78h-24.92v7.78Z" fill="#fdae6b" stroke-width="0"/></g></g><g id="di"><g clip-path="url(#dj)"><path d="M90.01,76.8h24.92v-34.7h-24.92v34.7Z" fill="#fdae6b" stroke-width="0"/></g></g><g id="dk"><g clip-path="url(#dl)"><path d="M125.61,115.2h24.92v-55.87h-24.92v55.87Z" fill="#fdae6b" stroke-width="0"/></g></g><g id="dm"><g clip-path="url(#dn)"><path d="M161.21,116.26h24.92V42.36h-24.92v73.9Z" fill="#fdae6b" stroke-width="0"/></g></g><g id="do"><g clip-path="url(#dp)"><path d="M196.8,128.6h24.92V31.5h-24.92v97.1Z" fill="#fdae6b" stroke-width="0"/></g></g><g id="dq"><g clip-path="url(#dr)"><path d="M232.4,153.78h24.92V21.91h-24.92v131.87Z" fill="#fdae6b" stroke-width="0"/></g></g><g id="ds"><g clip-path="url(#dt)"><path d="M54.41,55.65h24.92V9.48h-24.92v46.17Z" fill="#b3de69" stroke-width="0"/></g></g><g id="du"><g clip-path="url(#dv)"><path d="M90.01,42.1h24.92V9.48h-24.92v32.62Z" fill="#b3de69" stroke-width="0"/></g></g><g id="dw"><g clip-path="url(#dx)"><path d="M125.61,59.33h24.92V9.48h-24.92v49.85Z" fill="#b3de69" stroke-width="0"/></g></g><g id="dy"><g clip-path="url(#dz)"><path d="M161.21,42.36h24.92V9.48h-24.92v32.88Z" fill="#b3de69" stroke-width="0"/></g></g><g id="ea"><g clip-path="url(#eb)"><path d="M196.8,31.5h24.92V9.48h-24.92v22.02Z" fill="#b3de69" stroke-width="0"/></g></g><g id="ec"><g clip-path="url(#ed)"><path d="M232.4,21.91h24.92v-12.43h-24.92v12.43Z" fill="#b3de69" stroke-width="0"/></g></g><g id="ee"><path d="M44.27,175.8V9.48" fill="none" stroke="gray" stroke-linecap="square" stroke-width=".8"/></g><g id="ef"><path d="M44.27,175.8h223.2" fill="none" stroke="gray" stroke-linecap="square" stroke-width=".8"/></g><g id="eg"><g id="eh"><path d="M272.87,19.44h12v-4.2h-12v4.2Z" fill="#b3de69" stroke-width="0"/></g><g id="ei"><g isolation="isolate"><path d="M291.37,15.13h.66l1.56,4.3h-.64l-.44-1.29h-1.7l-.47,1.29h-.6l1.62-4.3ZM292.33,17.67l-.65-1.9-.69,1.9h1.35Z" fill="#000" stroke-width="0"/><path d="M296.13,16.47c.22.17.36.47.4.89h-.51c-.03-.19-.1-.35-.21-.48s-.29-.19-.54-.19c-.34,0-.58.16-.72.49-.09.21-.14.48-.14.79s.07.58.2.79c.13.21.34.32.63.32.22,0,.39-.07.52-.2.13-.13.22-.32.27-.55h.51c-.06.42-.21.72-.44.91s-.53.29-.9.29c-.41,0-.74-.15-.98-.45-.24-.3-.37-.67-.37-1.12,0-.55.13-.98.4-1.29s.61-.46,1.02-.46c.35,0,.64.09.86.26Z" fill="#000" stroke-width="0"/><path d="M297.16,15.42h.53v.88h.5v.43h-.5v2.05c0,.11.04.18.11.22.04.02.11.03.21.03.03,0,.05,0,.08,0s.06,0,.1,0v.42c-.06.02-.12.03-.19.04s-.14.01-.21.01c-.25,0-.41-.06-.5-.19-.09-.13-.13-.29-.13-.49v-2.08h-.42v-.43h.42v-.88Z" fill="#000" stroke-width="0"/><path d="M298.72,15.13h.54v.6h-.54v-.6ZM298.72,16.32h.54v3.12h-.54v-3.12Z" fill="#000" stroke-width="0"/><path d="M300.31,16.3l.84,2.55.87-2.55h.58l-1.18,3.14h-.56l-1.16-3.14h.61Z" fill="#000" stroke-width="0"/><path d="M304.99,16.39c.21.1.37.24.47.41.11.16.17.34.21.55.03.14.05.38.05.69h-2.28c0,.32.08.58.22.77.14.19.36.29.65.29.27,0,.49-.09.65-.27.09-.11.16-.23.19-.37h.52c-.01.12-.06.24-.14.38-.08.14-.16.26-.26.35-.16.16-.36.26-.59.32-.13.03-.27.05-.43.05-.39,0-.72-.14-.99-.43-.27-.29-.4-.68-.4-1.19s.14-.91.41-1.23.63-.47,1.07-.47c.22,0,.44.05.64.16ZM305.18,17.62c-.02-.23-.07-.41-.15-.55-.14-.25-.38-.38-.72-.38-.24,0-.44.09-.6.26-.16.18-.25.4-.26.67h1.73Z" fill="#000" stroke-width="0"/><path d="M310.13,16.47c.22.17.36.47.4.89h-.51c-.03-.19-.1-.35-.21-.48s-.29-.19-.54-.19c-.34,0-.58.16-.72.49-.09.21-.14.48-.14.79s.07.58.2.79c.13.21.34.32.63.32.22,0,.39-.07.52-.2.13-.13.22-.32.27-.55h.51c-.06.42-.21.72-.44.91s-.53.29-.9.29c-.41,0-.74-.15-.98-.45-.24-.3-.37-.67-.37-1.12,0-.55.13-.98.4-1.29s.61-.46,1.02-.46c.35,0,.64.09.86.26Z" fill="#000" stroke-width="0"/><path d="M311.06,15.12h.53v1.61c.12-.16.24-.27.34-.33.17-.11.38-.17.64-.17.46,0,.76.16.93.48.09.17.13.42.13.72v2.01h-.54v-1.98c0-.23-.03-.4-.09-.51-.1-.17-.28-.26-.54-.26-.22,0-.42.08-.59.23s-.27.43-.27.85v1.66h-.53v-4.32Z" fill="#000" stroke-width="0"/><path d="M316.08,17.54c.12-.02.2-.07.24-.15.02-.05.04-.12.04-.2,0-.18-.06-.31-.19-.39-.13-.08-.31-.12-.55-.12-.27,0-.47.07-.58.22-.06.08-.11.21-.12.37h-.49c0-.39.13-.66.38-.81.24-.15.52-.23.84-.23.37,0,.67.07.9.21.23.14.34.36.34.66v1.81c0,.05.01.1.03.13s.07.05.14.05c.02,0,.05,0,.08,0,.03,0,.06,0,.09-.01v.39c-.08.02-.14.04-.19.04s-.1,0-.18,0c-.18,0-.31-.06-.4-.19-.04-.07-.07-.17-.09-.29-.11.14-.26.26-.46.37s-.42.16-.67.16c-.29,0-.53-.09-.71-.26s-.28-.4-.28-.66c0-.29.09-.52.27-.68s.42-.26.71-.3l.84-.1ZM314.97,18.96c.11.09.24.13.4.13.19,0,.37-.04.54-.13.29-.14.44-.38.44-.7v-.42c-.06.04-.15.08-.25.1-.1.03-.2.05-.3.06l-.32.04c-.19.03-.33.07-.43.12-.16.09-.24.24-.24.44,0,.15.06.27.17.36Z" fill="#000" stroke-width="0"/><path d="M317.73,16.3h.5v.45c.15-.18.31-.32.47-.4s.35-.12.55-.12c.45,0,.75.16.9.47.09.17.13.41.13.73v2.01h-.54v-1.98c0-.19-.03-.35-.08-.46-.09-.2-.26-.29-.51-.29-.12,0-.23.01-.31.04-.14.04-.27.13-.38.26-.09.1-.15.21-.17.32-.03.11-.04.27-.04.47v1.64h-.53v-3.14Z" fill="#000" stroke-width="0"/><path d="M322.81,16.43c.1.07.2.17.3.3v-.4h.49v2.85c0,.4-.06.71-.18.94-.22.43-.63.64-1.23.64-.34,0-.62-.08-.85-.23-.23-.15-.36-.39-.39-.71h.54c.03.14.08.25.15.33.12.12.3.18.56.18.4,0,.67-.14.79-.43.07-.17.11-.47.1-.9-.11.16-.23.28-.38.36-.15.08-.34.12-.59.12-.34,0-.63-.12-.89-.36-.25-.24-.38-.64-.38-1.2,0-.53.13-.94.38-1.23s.56-.44.93-.44c.25,0,.46.06.64.18ZM322.88,16.99c-.16-.19-.36-.28-.61-.28-.37,0-.62.17-.76.52-.07.19-.11.43-.11.73,0,.35.07.62.21.81.14.19.33.28.58.28.38,0,.64-.17.79-.51.09-.19.13-.42.13-.68,0-.39-.08-.68-.24-.86Z" fill="#000" stroke-width="0"/><path d="M326.34,16.39c.21.1.37.24.47.41.11.16.17.34.21.55.03.14.05.38.05.69h-2.28c0,.32.08.58.22.77.14.19.36.29.65.29.27,0,.49-.09.65-.27.09-.11.16-.23.19-.37h.52c-.01.12-.06.24-.14.38-.08.14-.16.26-.26.35-.16.16-.36.26-.59.32-.13.03-.27.05-.43.05-.39,0-.72-.14-.99-.43-.27-.29-.4-.68-.4-1.19s.14-.91.41-1.23.63-.47,1.07-.47c.22,0,.44.05.64.16ZM326.53,17.62c-.02-.23-.07-.41-.15-.55-.14-.25-.38-.38-.72-.38-.24,0-.44.09-.6.26-.16.18-.25.4-.26.67h1.73Z" fill="#000" stroke-width="0"/></g></g><g id="ej"><path d="M272.87,28.25h12v-4.2h-12v4.2Z" fill="#fdae6b" stroke-width="0"/></g><g id="ek"><g isolation="isolate"><path d="M290.18,23.94h1.93c.38,0,.69.11.92.32.23.22.35.52.35.91,0,.34-.1.63-.31.88-.21.25-.53.37-.96.37h-1.34v1.82h-.58v-4.3ZM292.44,24.53c-.13-.06-.3-.09-.53-.09h-1.15v1.49h1.15c.26,0,.47-.06.63-.17s.24-.31.24-.59c0-.32-.12-.53-.35-.64Z" fill="#000" stroke-width="0"/><path d="M295.74,26.35c.12-.02.2-.07.24-.15.02-.05.04-.12.04-.2,0-.18-.06-.31-.19-.39-.13-.08-.31-.12-.55-.12-.27,0-.47.07-.58.22-.06.08-.11.21-.12.37h-.49c0-.39.13-.66.38-.81.24-.15.52-.23.84-.23.37,0,.67.07.9.21.23.14.34.36.34.66v1.81c0,.05.01.1.03.13s.07.05.14.05c.02,0,.05,0,.08,0,.03,0,.06,0,.09-.01v.39c-.08.02-.14.04-.19.04s-.1,0-.18,0c-.18,0-.31-.06-.4-.19-.04-.07-.07-.17-.09-.29-.11.14-.26.26-.46.37s-.42.16-.67.16c-.29,0-.53-.09-.71-.26s-.28-.4-.28-.66c0-.29.09-.52.27-.68s.42-.26.71-.3l.84-.1ZM294.63,27.77c.11.09.24.13.4.13.19,0,.37-.04.54-.13.29-.14.44-.38.44-.7v-.42c-.06.04-.15.08-.25.1-.1.03-.2.05-.3.06l-.32.04c-.19.03-.33.07-.43.12-.16.09-.24.24-.24.44,0,.15.06.27.17.36Z" fill="#000" stroke-width="0"/><path d="M297.71,27.26c.02.18.06.31.13.4.13.17.37.25.71.25.2,0,.38-.04.53-.13.15-.08.23-.22.23-.39,0-.13-.06-.24-.18-.31-.08-.04-.23-.09-.46-.15l-.43-.11c-.27-.07-.47-.14-.6-.22-.23-.14-.34-.34-.34-.59,0-.3.11-.54.33-.72s.51-.28.87-.28c.48,0,.82.14,1.04.42.13.18.2.37.19.57h-.5c-.01-.12-.05-.23-.13-.32-.12-.14-.34-.21-.65-.21-.2,0-.36.04-.46.11-.11.08-.16.18-.16.3,0,.14.07.25.21.33.08.05.2.09.35.13l.36.08c.39.09.64.18.78.27.21.13.31.35.31.64s-.11.52-.32.72-.54.3-.98.3c-.47,0-.81-.11-1-.32-.2-.21-.3-.47-.32-.79h.51Z" fill="#000" stroke-width="0"/><path d="M300.71,27.26c.02.18.06.31.13.4.13.17.37.25.71.25.2,0,.38-.04.53-.13.15-.08.23-.22.23-.39,0-.13-.06-.24-.18-.31-.08-.04-.23-.09-.46-.15l-.43-.11c-.27-.07-.47-.14-.6-.22-.23-.14-.34-.34-.34-.59,0-.3.11-.54.33-.72s.51-.28.87-.28c.48,0,.82.14,1.04.42.13.18.2.37.19.57h-.5c-.01-.12-.05-.23-.13-.32-.12-.14-.34-.21-.65-.21-.2,0-.36.04-.46.11-.11.08-.16.18-.16.3,0,.14.07.25.21.33.08.05.2.09.35.13l.36.08c.39.09.64.18.78.27.21.13.31.35.31.64s-.11.52-.32.72-.54.3-.98.3c-.47,0-.81-.11-1-.32-.2-.21-.3-.47-.32-.79h.51Z" fill="#000" stroke-width="0"/><path d="M303.39,23.94h.54v.6h-.54v-.6ZM303.39,25.12h.54v3.12h-.54v-3.12Z" fill="#000" stroke-width="0"/><path d="M304.98,25.11l.84,2.55.87-2.55h.58l-1.18,3.14h-.56l-1.16-3.14h.61Z" fill="#000" stroke-width="0"/><path d="M309.66,25.19c.21.1.37.24.47.41.11.16.17.34.21.55.03.14.05.38.05.69h-2.28c0,.32.08.58.22.77.14.19.36.29.65.29.27,0,.49-.09.65-.27.09-.11.16-.23.19-.37h.52c-.01.12-.06.24-.14.38-.08.14-.16.26-.26.35-.16.16-.36.26-.59.32-.13.03-.27.05-.43.05-.39,0-.72-.14-.99-.43-.27-.29-.4-.68-.4-1.19s.14-.91.41-1.23.63-.47,1.07-.47c.22,0,.44.05.64.16ZM309.85,26.43c-.02-.23-.07-.41-.15-.55-.14-.25-.38-.38-.72-.38-.24,0-.44.09-.6.26-.16.18-.25.4-.26.67h1.73Z" fill="#000" stroke-width="0"/><path d="M314.8,25.27c.22.17.36.47.4.89h-.51c-.03-.19-.1-.35-.21-.48s-.29-.19-.54-.19c-.34,0-.58.16-.72.49-.09.21-.14.48-.14.79s.07.58.2.79c.13.21.34.32.63.32.22,0,.39-.07.52-.2.13-.13.22-.32.27-.55h.51c-.06.42-.21.72-.44.91s-.53.29-.9.29c-.41,0-.74-.15-.98-.45-.24-.3-.37-.67-.37-1.12,0-.55.13-.98.4-1.29s.61-.46,1.02-.46c.35,0,.64.09.86.26Z" fill="#000" stroke-width="0"/><path d="M315.73,23.93h.53v1.61c.12-.16.24-.27.34-.33.17-.11.38-.17.64-.17.46,0,.76.16.93.48.09.17.13.42.13.72v2.01h-.54v-1.98c0-.23-.03-.4-.09-.51-.1-.17-.28-.26-.54-.26-.22,0-.42.08-.59.23s-.27.43-.27.85v1.66h-.53v-4.32Z" fill="#000" stroke-width="0"/><path d="M320.75,26.35c.12-.02.2-.07.24-.15.02-.05.04-.12.04-.2,0-.18-.06-.31-.19-.39-.13-.08-.31-.12-.55-.12-.27,0-.47.07-.58.22-.06.08-.11.21-.12.37h-.49c0-.39.13-.66.38-.81.24-.15.52-.23.84-.23.37,0,.67.07.9.21.23.14.34.36.34.66v1.81c0,.05.01.1.03.13s.07.05.14.05c.02,0,.05,0,.08,0,.03,0,.06,0,.09-.01v.39c-.08.02-.14.04-.19.04s-.1,0-.18,0c-.18,0-.31-.06-.4-.19-.04-.07-.07-.17-.09-.29-.11.14-.26.26-.46.37s-.42.16-.67.16c-.29,0-.53-.09-.71-.26s-.28-.4-.28-.66c0-.29.09-.52.27-.68s.42-.26.71-.3l.84-.1ZM319.64,27.77c.11.09.24.13.4.13.19,0,.37-.04.54-.13.29-.14.44-.38.44-.7v-.42c-.06.04-.15.08-.25.1-.1.03-.2.05-.3.06l-.32.04c-.19.03-.33.07-.43.12-.16.09-.24.24-.24.44,0,.15.06.27.17.36Z" fill="#000" stroke-width="0"/><path d="M322.4,25.11h.5v.45c.15-.18.31-.32.47-.4s.35-.12.55-.12c.45,0,.75.16.9.47.09.17.13.41.13.73v2.01h-.54v-1.98c0-.19-.03-.35-.08-.46-.09-.2-.26-.29-.51-.29-.12,0-.23.01-.31.04-.14.04-.27.13-.38.26-.09.1-.15.21-.17.32-.03.11-.04.27-.04.47v1.64h-.53v-3.14Z" fill="#000" stroke-width="0"/><path d="M327.48,25.23c.1.07.2.17.3.3v-.4h.49v2.85c0,.4-.06.71-.18.94-.22.43-.63.64-1.23.64-.34,0-.62-.08-.85-.23-.23-.15-.36-.39-.39-.71h.54c.03.14.08.25.15.33.12.12.3.18.56.18.4,0,.67-.14.79-.43.07-.17.11-.47.1-.9-.11.16-.23.28-.38.36-.15.08-.34.12-.59.12-.34,0-.63-.12-.89-.36-.25-.24-.38-.64-.38-1.2,0-.53.13-.94.38-1.23s.56-.44.93-.44c.25,0,.46.06.64.18ZM327.55,25.8c-.16-.19-.36-.28-.61-.28-.37,0-.62.17-.76.52-.07.19-.11.43-.11.73,0,.35.07.62.21.81.14.19.33.28.58.28.38,0,.64-.17.79-.51.09-.19.13-.42.13-.68,0-.39-.08-.68-.24-.86Z" fill="#000" stroke-width="0"/><path d="M331.01,25.19c.21.1.37.24.47.41.11.16.17.34.21.55.03.14.05.38.05.69h-2.28c0,.32.08.58.22.77.14.19.36.29.65.29.27,0,.49-.09.65-.27.09-.11.16-.23.19-.37h.52c-.01.12-.06.24-.14.38-.08.14-.16.26-.26.35-.16.16-.36.26-.59.32-.13.03-.27.05-.43.05-.39,0-.72-.14-.99-.43-.27-.29-.4-.68-.4-1.19s.14-.91.41-1.23.63-.47,1.07-.47c.22,0,.44.05.64.16ZM331.2,26.43c-.02-.23-.07-.41-.15-.55-.14-.25-.38-.38-.72-.38-.24,0-.44.09-.6.26-.16.18-.25.4-.26.67h1.73Z" fill="#000" stroke-width="0"/></g></g><g id="el"><path d="M272.87,37.05h12v-4.2h-12v4.2Z" fill="#80b1d3" stroke-width="0"/></g><g id="em"><g isolation="isolate"><path d="M290.75,32.75v2.66c0,.31.06.57.18.78.18.31.47.47.89.47.5,0,.84-.17,1.02-.51.1-.18.14-.43.14-.74v-2.66h.59v2.42c0,.53-.07.94-.21,1.22-.26.52-.76.78-1.49.78s-1.22-.26-1.48-.78c-.14-.29-.21-.69-.21-1.22v-2.42h.59Z" fill="#000" stroke-width="0"/><path d="M294.39,33.91h.5v.45c.15-.18.31-.32.47-.4s.35-.12.55-.12c.45,0,.75.16.9.47.09.17.13.41.13.73v2.01h-.54v-1.98c0-.19-.03-.35-.08-.46-.09-.2-.26-.29-.51-.29-.12,0-.23.01-.31.04-.14.04-.27.13-.38.26-.09.1-.15.21-.17.32-.03.11-.04.27-.04.47v1.64h-.53v-3.14Z" fill="#000" stroke-width="0"/><path d="M299.79,34.08c.22.17.36.47.4.89h-.51c-.03-.19-.1-.35-.21-.48s-.29-.19-.54-.19c-.34,0-.58.16-.72.49-.09.21-.14.48-.14.79s.07.58.2.79c.13.21.34.32.63.32.22,0,.39-.07.52-.2.13-.13.22-.32.27-.55h.51c-.06.42-.21.72-.44.91s-.53.29-.9.29c-.41,0-.74-.15-.98-.45-.24-.3-.37-.67-.37-1.12,0-.55.13-.98.4-1.29s.61-.46,1.02-.46c.35,0,.64.09.86.26Z" fill="#000" stroke-width="0"/><path d="M300.72,32.73h.53v1.61c.12-.16.24-.27.34-.33.17-.11.38-.17.64-.17.46,0,.76.16.93.48.09.17.13.42.13.72v2.01h-.54v-1.98c0-.23-.03-.4-.09-.51-.1-.17-.28-.26-.54-.26-.22,0-.42.08-.59.23s-.27.43-.27.85v1.66h-.53v-4.32Z" fill="#000" stroke-width="0"/><path d="M305.74,35.15c.12-.02.2-.07.24-.15.02-.05.04-.12.04-.2,0-.18-.06-.31-.19-.39-.13-.08-.31-.12-.55-.12-.27,0-.47.07-.58.22-.06.08-.11.21-.12.37h-.49c0-.39.13-.66.38-.81.24-.15.52-.23.84-.23.37,0,.67.07.9.21.23.14.34.36.34.66v1.81c0,.05.01.1.03.13s.07.05.14.05c.02,0,.05,0,.08,0,.03,0,.06,0,.09-.01v.39c-.08.02-.14.04-.19.04s-.1,0-.18,0c-.18,0-.31-.06-.4-.19-.04-.07-.07-.17-.09-.29-.11.14-.26.26-.46.37s-.42.16-.67.16c-.29,0-.53-.09-.71-.26s-.28-.4-.28-.66c0-.29.09-.52.27-.68s.42-.26.71-.3l.84-.1ZM304.63,36.58c.11.09.24.13.4.13.19,0,.37-.04.54-.13.29-.14.44-.38.44-.7v-.42c-.06.04-.15.08-.25.1-.1.03-.2.05-.3.06l-.32.04c-.19.03-.33.07-.43.12-.16.09-.24.24-.24.44,0,.15.06.27.17.36Z" fill="#000" stroke-width="0"/><path d="M307.4,33.91h.5v.45c.15-.18.31-.32.47-.4s.35-.12.55-.12c.45,0,.75.16.9.47.09.17.13.41.13.73v2.01h-.54v-1.98c0-.19-.03-.35-.08-.46-.09-.2-.26-.29-.51-.29-.12,0-.23.01-.31.04-.14.04-.27.13-.38.26-.09.1-.15.21-.17.32-.03.11-.04.27-.04.47v1.64h-.53v-3.14Z" fill="#000" stroke-width="0"/><path d="M312.48,34.04c.1.07.2.17.3.3v-.4h.49v2.85c0,.4-.06.71-.18.94-.22.43-.63.64-1.23.64-.34,0-.62-.08-.85-.23-.23-.15-.36-.39-.39-.71h.54c.03.14.08.25.15.33.12.12.3.18.56.18.4,0,.67-.14.79-.43.07-.17.11-.47.1-.9-.11.16-.23.28-.38.36-.15.08-.34.12-.59.12-.34,0-.63-.12-.89-.36-.25-.24-.38-.64-.38-1.2,0-.53.13-.94.38-1.23s.56-.44.93-.44c.25,0,.46.06.64.18ZM312.54,34.61c-.16-.19-.36-.28-.61-.28-.37,0-.62.17-.76.52-.07.19-.11.43-.11.73,0,.35.07.62.21.81.14.19.33.28.58.28.38,0,.64-.17.79-.51.09-.19.13-.42.13-.68,0-.39-.08-.68-.24-.86Z" fill="#000" stroke-width="0"/><path d="M316.01,34c.21.1.37.24.47.41.11.16.17.34.21.55.03.14.05.38.05.69h-2.28c0,.32.08.58.22.77.14.19.36.29.65.29.27,0,.49-.09.65-.27.09-.11.16-.23.19-.37h.52c-.01.12-.06.24-.14.38-.08.14-.16.26-.26.35-.16.16-.36.26-.59.32-.13.03-.27.05-.43.05-.39,0-.72-.14-.99-.43-.27-.29-.4-.68-.4-1.19s.14-.91.41-1.23.63-.47,1.07-.47c.22,0,.44.05.64.16ZM316.2,35.23c-.02-.23-.07-.41-.15-.55-.14-.25-.38-.38-.72-.38-.24,0-.44.09-.6.26-.16.18-.25.4-.26.67h1.73Z" fill="#000" stroke-width="0"/><path d="M319.13,34.01c.09.06.2.16.32.31v-1.58h.51v4.32h-.47v-.44c-.12.19-.27.33-.44.42-.17.09-.36.13-.57.13-.35,0-.65-.15-.91-.44-.25-.29-.38-.68-.38-1.17,0-.46.12-.85.35-1.19.23-.33.56-.5,1-.5.24,0,.44.05.6.15ZM317.95,36.36c.14.23.37.34.68.34.24,0,.44-.1.6-.32.16-.21.24-.51.24-.9s-.08-.69-.24-.88c-.16-.19-.36-.29-.6-.29-.26,0-.48.1-.64.3s-.25.5-.25.9c0,.34.07.62.21.84Z" fill="#000" stroke-width="0"/></g></g></g></g></g></svg>