<?xml version="1.0" encoding="UTF-8"?><svg id="a" xmlns="http://www.w3.org/2000/svg" xmlns:xlink="http://www.w3.org/1999/xlink" viewBox="0 0 326.49 202.53"><defs><clipPath id="ah"><rect x="36.43" y="9.48" width="223.2" height="166.32" fill="none" stroke-width="0"/></clipPath><clipPath id="an"><rect x="36.43" y="9.48" width="223.2" height="166.32" fill="none" stroke-width="0"/></clipPath><clipPath id="at"><rect x="36.43" y="9.48" width="223.2" height="166.32" fill="none" stroke-width="0"/></clipPath><clipPath id="az"><rect x="36.43" y="9.48" width="223.2" height="166.32" fill="none" stroke-width="0"/></clipPath><clipPath id="bf"><rect x="36.43" y="9.48" width="223.2" height="166.32" fill="none" stroke-width="0"/></clipPath><clipPath id="bl"><rect x="36.43" y="9.48" width="223.2" height="166.32" fill="none" stroke-width="0"/></clipPath><clipPath id="br"><rect x="36.43" y="9.48" width="223.2" height="166.32" fill="none" stroke-width="0"/></clipPath><clipPath id="bx"><rect x="36.43" y="9.48" width="223.2" height="166.32" fill="none" stroke-width="0"/></clipPath><clipPath id="cd"><rect x="36.43" y="9.48" width="223.2" height="166.32" fill="none" stroke-width="0"/></clipPath><clipPath id="cj"><rect x="36.43" y="9.48" width="223.2" height="166.32" fill="none" stroke-width="0"/></clipPath><clipPath id="cp"><rect x="36.43" y="9.48" width="223.2" height="166.32" fill="none" stroke-width="0"/></clipPath><clipPath id="cv"><rect x="36.43" y="9.48" width="223.2" height="166.32" fill="none" stroke-width="0"/></clipPath><clipPath id="cx"><rect x="36.43" y="9.48" width="223.2" height="166.32" fill="none" stroke-width="0"/></clipPath><clipPath id="cz"><rect x="36.43" y="9.48" width="223.2" height="166.32" fill="none" stroke-width="0"/></clipPath><clipPath id="db"><rect x="36.43" y="9.48" width="223.2" height="166.32" fill="none" stroke-width="0"/></clipPath><clipPath id="dd"><rect x="36.43" y="9.48" width="223.2" height="166.32" fill="none" stroke-width="0"/></clipPath><clipPath id="df"><rect x="36.43" y="9.48" width="223.2" height="166.32" fill="none" stroke-width="0"/></clipPath><clipPath id="dh"><rect x="36.43" y="9.48" width="223.2" height="166.32" fill="none" stroke-width="0"/></clipPath><clipPath id="dj"><rect x="36.43" y="9.48" width="223.2" height="166.32" fill="none" stroke-width="0"/></clipPath><clipPath id="dl"><rect x="36.43" y="9.48" width="223.2" height="166.32" fill="none" stroke-width="0"/></clipPath><clipPath id="dn"><rect x="36.43" y="9.48" width="223.2" height="166.32" fill="none" stroke-width="0"/></clipPath><clipPath id="dp"><rect x="36.43" y="9.48" width="223.2" height="166.32" fill="none" stroke-width="0"/></clipPath><clipPath id="dr"><rect x="36.43" y="9.48" width="223.2" height="166.32" fill="none" stroke-width="0"/></clipPath></defs><g id="b"><g id="c"><path d="M0,202.53h326.49V0H0v202.53Z" fill="#fff" stroke-width="0"/></g><g id="d"><g id="e"><path d="M36.43,175.8h223.2V9.48H36.43v166.32Z" fill="#fff" stroke-width="0"/></g><g id="f"><g id="g"><g id="h"><path id="i" d="M59.03,175.8v3.5" fill="gray" stroke="#000" stroke-linejoin="round" stroke-width=".8"/></g><g id="j"><g isolation="isolate"><path d="M48.4,183.05h1.93c.38,0,.69.11.92.32.23.22.35.52.35.91,0,.34-.1.63-.31.88-.21.25-.53.37-.96.37h-1.34v1.82h-.58v-4.3ZM50.66,183.65c-.13-.06-.3-.09-.53-.09h-1.15v1.49h1.15c.26,0,.47-.06.63-.17.16-.11.24-.31.24-.59,0-.32-.12-.53-.35-.64Z" fill="#000" stroke-width="0"/><path d="M52.28,183.04h.53v1.61c.12-.16.24-.27.34-.33.17-.11.38-.17.64-.17.46,0,.76.16.93.48.09.17.13.42.13.72v2.01h-.54v-1.98c0-.23-.03-.4-.09-.51-.1-.17-.28-.26-.54-.26-.22,0-.42.08-.59.23s-.27.43-.27.85v1.66h-.53v-4.32Z" fill="#000" stroke-width="0"/><path d="M57.58,184.22h.58c-.07.2-.24.66-.5,1.38-.19.54-.35.98-.48,1.32-.3.8-.52,1.29-.64,1.46s-.34.26-.64.26c-.07,0-.13,0-.17,0s-.09-.02-.15-.03v-.48c.09.03.16.04.2.05s.08,0,.11,0c.1,0,.17-.02.21-.05s.08-.07.12-.12c0-.02.04-.09.1-.24.06-.14.1-.25.13-.32l-1.16-3.23h.6l.84,2.56.85-2.56Z" fill="#000" stroke-width="0"/><path d="M58.63,183.05h.53v4.3h-.53v-4.3Z" fill="#000" stroke-width="0"/><path d="M60.48,184.22v2.08c0,.16.02.29.07.39.09.19.26.28.51.28.36,0,.6-.16.73-.49.07-.18.11-.42.11-.72v-1.54h.53v3.14h-.5v-.46c-.06.12-.14.22-.24.3-.2.16-.44.25-.72.25-.44,0-.74-.15-.9-.45-.09-.16-.13-.37-.13-.64v-2.13h.54Z" fill="#000" stroke-width="0"/><path d="M63.28,184.22h.52v.45c.12-.15.24-.27.34-.34.17-.12.37-.18.59-.18.25,0,.45.06.6.18.09.07.16.17.23.31.12-.17.25-.29.41-.37s.34-.12.53-.12c.42,0,.71.15.86.46.08.16.12.38.12.66v2.09h-.55v-2.18c0-.21-.05-.35-.16-.43s-.23-.12-.38-.12c-.21,0-.39.07-.53.21s-.22.37-.22.69v1.83h-.54v-2.05c0-.21-.03-.37-.08-.47-.08-.15-.23-.22-.45-.22-.2,0-.38.08-.54.23s-.24.43-.24.84v1.66h-.53v-3.14Z" fill="#000" stroke-width="0"/></g><g isolation="isolate"><path d="M53.72,193.13c.13-.27.38-.51.76-.73l.56-.33c.25-.15.43-.27.53-.38.16-.16.24-.35.24-.56,0-.25-.07-.44-.22-.58s-.34-.22-.59-.22c-.36,0-.61.14-.75.41-.07.15-.12.35-.12.61h-.54c0-.37.07-.66.2-.89.23-.41.63-.61,1.21-.61.48,0,.83.13,1.05.39s.33.55.33.87c0,.34-.12.62-.35.86-.14.14-.38.31-.74.5l-.4.22c-.19.11-.34.21-.45.3-.2.17-.32.36-.37.57h2.29v.5h-2.88c.02-.36.09-.68.22-.94Z" fill="#000" stroke-width="0"/><path d="M57.22,191.11v-.4c.38-.04.65-.1.8-.19s.26-.29.34-.62h.42v4.18h-.56v-2.97h-.99Z" fill="#000" stroke-width="0"/><path d="M63.12,189.95v.46c-.13.13-.31.36-.54.68s-.42.67-.59,1.05c-.17.37-.3.7-.39,1-.06.19-.13.5-.22.93h-.58c.13-.8.43-1.6.88-2.39.27-.46.55-.87.84-1.2h-2.32v-.53h2.92Z" fill="#000" stroke-width="0"/></g></g></g><g id="k"><g id="l"><path id="m" d="M94.63,175.8v3.5" fill="gray" stroke="#000" stroke-linejoin="round" stroke-width=".8"/></g><g id="n"><g isolation="isolate"><path d="M90.24,183.37c.3.29.46.61.5.98h-.57c-.06-.28-.19-.5-.38-.66s-.45-.24-.8-.24c-.42,0-.75.15-1.01.45-.26.3-.38.75-.38,1.37,0,.5.12.91.35,1.23.23.31.58.47,1.03.47.42,0,.74-.17.96-.5.12-.17.2-.4.26-.69h.57c-.05.45-.22.83-.5,1.14-.34.37-.79.55-1.37.55-.49,0-.91-.15-1.25-.45-.44-.4-.66-1.02-.66-1.86,0-.63.17-1.16.5-1.56.36-.44.85-.66,1.49-.66.54,0,.96.14,1.25.43Z" fill="#000" stroke-width="0"/><path d="M91.47,183.05h.53v4.3h-.53v-4.3Z" fill="#000" stroke-width="0"/><path d="M94.47,185.46c.12-.02.2-.07.24-.15.02-.05.04-.12.04-.2,0-.18-.06-.31-.19-.39-.13-.08-.31-.12-.55-.12-.27,0-.47.07-.58.22-.06.08-.11.21-.13.37h-.49c0-.39.14-.66.38-.81.24-.15.52-.23.84-.23.37,0,.67.07.9.21.23.14.34.36.34.66v1.81c0,.05.01.1.03.13s.07.05.14.05c.02,0,.05,0,.08,0,.03,0,.06,0,.09-.01v.39c-.08.02-.14.04-.19.04s-.1,0-.18,0c-.18,0-.31-.06-.4-.19-.04-.07-.07-.17-.09-.29-.11.14-.26.26-.46.37s-.42.16-.67.16c-.29,0-.53-.09-.71-.26s-.28-.4-.28-.66c0-.29.09-.52.27-.68s.42-.26.71-.3l.84-.1ZM93.36,186.88c.11.09.24.13.4.13.19,0,.37-.04.54-.13.29-.14.44-.38.44-.7v-.42c-.06.04-.15.08-.25.1-.1.03-.2.05-.3.06l-.32.04c-.19.03-.33.07-.43.12-.16.09-.24.24-.24.44,0,.15.06.27.17.36Z" fill="#000" stroke-width="0"/><path d="M96.44,186.37c.02.18.06.31.13.4.14.17.37.25.71.25.2,0,.37-.04.53-.13.15-.08.23-.22.23-.39,0-.13-.06-.24-.18-.31-.08-.04-.23-.09-.46-.15l-.43-.11c-.27-.07-.47-.14-.6-.22-.23-.14-.35-.34-.35-.59,0-.3.11-.54.33-.72s.51-.28.87-.28c.48,0,.82.14,1.04.42.13.18.2.37.19.57h-.5c-.01-.12-.05-.23-.13-.32-.12-.14-.34-.21-.65-.21-.2,0-.36.04-.46.11-.1.08-.16.18-.16.3,0,.14.07.25.21.33.08.05.2.09.35.13l.36.08c.39.09.64.18.78.27.21.13.31.35.31.64s-.11.52-.32.72c-.21.2-.54.3-.98.3-.47,0-.81-.11-1-.32-.2-.21-.3-.47-.32-.79h.51Z" fill="#000" stroke-width="0"/><path d="M99.44,186.37c.02.18.06.31.13.4.14.17.37.25.71.25.2,0,.37-.04.53-.13.15-.08.23-.22.23-.39,0-.13-.06-.24-.18-.31-.08-.04-.23-.09-.46-.15l-.43-.11c-.27-.07-.47-.14-.6-.22-.23-.14-.35-.34-.35-.59,0-.3.11-.54.33-.72s.51-.28.87-.28c.48,0,.82.14,1.04.42.13.18.2.37.19.57h-.5c-.01-.12-.05-.23-.13-.32-.12-.14-.34-.21-.65-.21-.2,0-.36.04-.46.11-.1.08-.16.18-.16.3,0,.14.07.25.21.33.08.05.2.09.35.13l.36.08c.39.09.64.18.78.27.21.13.31.35.31.64s-.11.52-.32.72c-.21.2-.54.3-.98.3-.47,0-.81-.11-1-.32-.2-.21-.3-.47-.32-.79h.51Z" fill="#000" stroke-width="0"/></g><g isolation="isolate"><path d="M91.64,190.23c.18.24.28.49.28.75h-.52c-.03-.17-.08-.3-.15-.39-.13-.18-.32-.26-.58-.26-.29,0-.53.14-.7.41-.17.27-.27.66-.29,1.17.12-.18.27-.31.46-.4.17-.08.36-.12.56-.12.35,0,.66.11.92.34s.39.56.39,1c0,.38-.12.72-.37,1.01s-.6.44-1.06.44c-.39,0-.73-.15-1.02-.45s-.43-.8-.43-1.5c0-.52.06-.96.19-1.33.24-.7.69-1.04,1.34-1.04.47,0,.8.12.98.37ZM91.24,193.44c.14-.19.21-.41.21-.66,0-.21-.06-.42-.18-.61s-.35-.29-.67-.29c-.23,0-.43.08-.6.23s-.26.38-.26.68c0,.27.08.49.23.67s.37.27.65.27.48-.09.62-.28Z" fill="#000" stroke-width="0"/><path d="M95.04,190.55c.19.35.28.82.28,1.42,0,.57-.08,1.04-.25,1.42-.25.54-.65.8-1.21.8-.5,0-.88-.22-1.12-.66-.21-.37-.31-.86-.31-1.47,0-.48.06-.89.18-1.23.23-.64.65-.96,1.25-.96.54,0,.94.22,1.18.67ZM94.51,193.35c.16-.24.24-.69.24-1.35,0-.48-.06-.87-.18-1.18-.12-.31-.35-.46-.68-.46-.31,0-.54.15-.68.44-.14.29-.22.72-.22,1.29,0,.43.05.77.14,1.03.14.4.38.59.72.59.27,0,.49-.12.65-.36Z" fill="#000" stroke-width="0"/><path d="M98.72,189.95v.46c-.13.13-.31.36-.54.68s-.42.67-.59,1.05c-.17.37-.3.7-.39,1-.06.19-.13.5-.22.93h-.58c.13-.8.43-1.6.88-2.39.27-.46.55-.87.84-1.2h-2.32v-.53h2.92Z" fill="#000" stroke-width="0"/></g></g></g><g id="o"><g id="p"><path id="q" d="M130.23,175.8v3.5" fill="gray" stroke="#000" stroke-linejoin="round" stroke-width=".8"/></g><g id="r"><g isolation="isolate"><path d="M125.7,183.67c.29.38.43.87.43,1.46,0,.64-.16,1.18-.49,1.6-.38.5-.93.75-1.64.75-.66,0-1.18-.22-1.56-.66-.34-.42-.51-.96-.51-1.6,0-.58.14-1.08.43-1.49.37-.53.92-.8,1.65-.8s1.32.24,1.69.73ZM125.19,186.41c.23-.37.34-.79.34-1.27,0-.51-.13-.91-.4-1.22-.26-.31-.63-.46-1.09-.46s-.81.15-1.09.46-.42.76-.42,1.35c0,.48.12.88.36,1.21s.63.49,1.17.49.89-.18,1.11-.55Z" fill="#000" stroke-width="0"/><path d="M126.77,184.22h.5v.54c.04-.11.14-.23.3-.38s.34-.23.55-.23c0,0,.03,0,.05,0s.06,0,.12.01v.56s-.06,0-.09-.01-.06,0-.09,0c-.27,0-.47.09-.61.26s-.21.37-.21.59v1.8h-.53v-3.14Z" fill="#000" stroke-width="0"/><path d="M130.48,184.32c.09.06.2.16.32.31v-1.58h.51v4.32h-.47v-.44c-.12.19-.27.33-.44.42-.17.09-.36.13-.57.13-.35,0-.65-.15-.9-.44-.25-.29-.38-.68-.38-1.17,0-.46.12-.85.35-1.19.23-.33.56-.5,1-.5.24,0,.44.05.6.15ZM129.3,186.67c.14.23.37.34.68.34.24,0,.44-.1.6-.32.16-.21.23-.51.23-.9s-.08-.69-.24-.88c-.16-.19-.36-.29-.6-.29-.26,0-.48.1-.64.3-.16.2-.25.5-.25.9,0,.34.07.62.21.84Z" fill="#000" stroke-width="0"/><path d="M134.03,184.31c.21.1.37.24.47.41.1.16.17.34.21.55.03.14.05.38.05.69h-2.28c0,.32.08.58.22.77.14.19.36.29.65.29.27,0,.49-.09.65-.27.09-.11.16-.23.19-.37h.52c-.01.12-.06.24-.14.38-.08.14-.16.26-.26.35-.16.16-.36.26-.59.32-.13.03-.27.05-.43.05-.39,0-.72-.14-.99-.43-.27-.29-.4-.68-.4-1.19s.14-.91.41-1.23c.27-.31.63-.47,1.07-.47.22,0,.44.05.64.16ZM134.22,185.54c-.02-.23-.07-.41-.15-.55-.14-.25-.38-.38-.72-.38-.24,0-.44.09-.6.26-.16.18-.25.4-.26.67h1.73Z" fill="#000" stroke-width="0"/><path d="M135.44,184.22h.5v.54c.04-.11.14-.23.3-.38s.34-.23.55-.23c0,0,.03,0,.05,0s.06,0,.12.01v.56s-.06,0-.09-.01-.06,0-.09,0c-.27,0-.47.09-.61.26s-.21.37-.21.59v1.8h-.53v-3.14Z" fill="#000" stroke-width="0"/></g><g isolation="isolate"><path d="M122.05,193.13c.13-.27.38-.51.76-.73l.56-.33c.25-.15.43-.27.53-.38.16-.16.24-.35.24-.56,0-.25-.07-.44-.22-.58s-.34-.22-.59-.22c-.36,0-.61.14-.75.41-.07.15-.12.35-.12.61h-.54c0-.37.07-.66.2-.89.23-.41.63-.61,1.21-.61.48,0,.83.13,1.05.39s.33.55.33.87c0,.34-.12.62-.35.86-.14.14-.38.31-.74.5l-.4.22c-.19.11-.34.21-.45.3-.2.17-.32.36-.37.57h2.29v.5h-2.88c.02-.36.09-.68.22-.94Z" fill="#000" stroke-width="0"/><path d="M125.47,194.69c.13-.02.23-.12.28-.29.03-.09.04-.17.04-.26,0-.01,0-.03,0-.04s0-.02,0-.04h-.32v-.64h.63v.59c0,.23-.05.44-.14.61s-.26.28-.49.33v-.28Z" fill="#000" stroke-width="0"/><path d="M129.44,190.55c.19.35.28.82.28,1.42,0,.57-.08,1.04-.25,1.42-.25.54-.65.8-1.21.8-.5,0-.88-.22-1.12-.66-.21-.37-.31-.86-.31-1.47,0-.48.06-.89.18-1.23.23-.64.65-.96,1.25-.96.54,0,.94.22,1.18.67ZM128.91,193.35c.16-.24.24-.69.24-1.35,0-.48-.06-.87-.18-1.18-.12-.31-.35-.46-.68-.46-.31,0-.54.15-.68.44-.14.29-.22.72-.22,1.29,0,.43.05.77.14,1.03.14.4.38.59.72.59.27,0,.49-.12.65-.36Z" fill="#000" stroke-width="0"/><path d="M130.46,193.78c-.22-.27-.34-.6-.34-.99h.55c.02.27.07.47.15.59.14.22.38.33.74.33.28,0,.5-.07.67-.22s.25-.34.25-.57c0-.29-.09-.49-.27-.61s-.42-.17-.74-.17c-.04,0-.07,0-.11,0-.04,0-.07,0-.11,0v-.47c.05,0,.1,0,.14.01s.08,0,.12,0c.2,0,.36-.03.49-.09.22-.11.33-.3.33-.59,0-.21-.07-.37-.22-.48s-.32-.17-.52-.17c-.35,0-.59.12-.73.35-.07.13-.12.31-.13.55h-.52c0-.31.06-.58.19-.8.21-.39.59-.59,1.13-.59.43,0,.76.1.99.29.23.19.35.47.35.83,0,.26-.07.47-.21.63-.09.1-.2.18-.33.23.22.06.39.18.52.35.12.17.19.38.19.63,0,.4-.13.73-.4.98s-.64.38-1.12.38-.86-.14-1.08-.41Z" fill="#000" stroke-width="0"/><path d="M136.12,190.55c.19.35.28.82.28,1.42,0,.57-.08,1.04-.25,1.42-.25.54-.65.8-1.21.8-.5,0-.88-.22-1.12-.66-.21-.37-.31-.86-.31-1.47,0-.48.06-.89.18-1.23.23-.64.65-.96,1.25-.96.54,0,.94.22,1.18.67ZM135.59,193.35c.16-.24.24-.69.24-1.35,0-.48-.06-.87-.18-1.18-.12-.31-.35-.46-.68-.46-.31,0-.54.15-.68.44-.14.29-.22.72-.22,1.29,0,.43.05.77.14,1.03.14.4.38.59.72.59.27,0,.49-.12.65-.36Z" fill="#000" stroke-width="0"/></g></g></g><g id="s"><g id="t"><path id="u" d="M165.83,175.8v3.5" fill="gray" stroke="#000" stroke-linejoin="round" stroke-width=".8"/></g><g id="v"><g isolation="isolate"><path d="M156.68,183.05h2.99v.53h-2.4v1.31h2.11v.51h-2.11v1.96h-.58v-4.3Z" fill="#000" stroke-width="0"/><path d="M161.9,185.46c.12-.02.2-.07.24-.15.02-.05.04-.12.04-.2,0-.18-.06-.31-.19-.39-.13-.08-.31-.12-.55-.12-.27,0-.47.07-.58.22-.06.08-.11.21-.13.37h-.49c0-.39.14-.66.38-.81.24-.15.52-.23.84-.23.37,0,.67.07.9.21.23.14.34.36.34.66v1.81c0,.05.01.1.03.13s.07.05.14.05c.02,0,.05,0,.08,0,.03,0,.06,0,.09-.01v.39c-.08.02-.14.04-.19.04s-.1,0-.18,0c-.18,0-.31-.06-.4-.19-.04-.07-.07-.17-.09-.29-.11.14-.26.26-.46.37s-.42.16-.67.16c-.29,0-.53-.09-.71-.26s-.28-.4-.28-.66c0-.29.09-.52.27-.68s.42-.26.71-.3l.84-.1ZM160.79,186.88c.11.09.24.13.4.13.19,0,.37-.04.54-.13.29-.14.44-.38.44-.7v-.42c-.06.04-.15.08-.25.1-.1.03-.2.05-.3.06l-.32.04c-.19.03-.33.07-.43.12-.16.09-.24.24-.24.44,0,.15.06.27.17.36Z" fill="#000" stroke-width="0"/><path d="M163.56,184.22h.52v.45c.12-.15.24-.27.34-.34.17-.12.37-.18.59-.18.25,0,.45.06.6.18.09.07.16.17.23.31.12-.17.25-.29.41-.37s.34-.12.53-.12c.42,0,.71.15.86.46.08.16.12.38.12.66v2.09h-.55v-2.18c0-.21-.05-.35-.16-.43s-.23-.12-.38-.12c-.21,0-.39.07-.54.21s-.22.37-.22.69v1.83h-.54v-2.05c0-.21-.03-.37-.08-.47-.08-.15-.23-.22-.45-.22-.2,0-.38.08-.54.23s-.24.43-.24.84v1.66h-.53v-3.14Z" fill="#000" stroke-width="0"/><path d="M168.56,183.05h.54v.6h-.54v-.6ZM168.56,184.24h.54v3.12h-.54v-3.12Z" fill="#000" stroke-width="0"/><path d="M169.91,183.05h.53v4.3h-.53v-4.3Z" fill="#000" stroke-width="0"/><path d="M173.19,184.22h.58c-.07.2-.24.66-.5,1.38-.19.54-.35.98-.48,1.32-.3.8-.52,1.29-.64,1.46s-.34.26-.64.26c-.07,0-.13,0-.17,0s-.09-.02-.15-.03v-.48c.09.03.16.04.2.05s.08,0,.11,0c.1,0,.17-.02.21-.05s.08-.07.12-.12c0-.02.04-.09.1-.24.06-.14.1-.25.13-.32l-1.16-3.23h.6l.84,2.56.85-2.56Z" fill="#000" stroke-width="0"/></g><g isolation="isolate"><path d="M157.98,193.01c.04.3.17.51.42.62.12.06.27.09.43.09.31,0,.54-.1.69-.3s.23-.42.23-.66c0-.29-.09-.52-.27-.68s-.39-.24-.64-.24c-.18,0-.34.04-.47.11s-.24.17-.33.29l-.46-.03.32-2.26h2.18v.51h-1.78l-.18,1.17c.1-.07.19-.13.28-.17.16-.06.34-.1.54-.1.38,0,.71.12.98.37s.4.56.4.94-.12.75-.37,1.05-.64.45-1.17.45c-.34,0-.64-.1-.91-.29-.26-.19-.41-.49-.44-.89h.55Z" fill="#000" stroke-width="0"/><path d="M161.07,194.69c.13-.02.23-.12.28-.29.03-.09.04-.17.04-.26,0-.01,0-.03,0-.04s0-.02,0-.04h-.32v-.64h.63v.59c0,.23-.05.44-.14.61s-.26.28-.49.33v-.28Z" fill="#000" stroke-width="0"/><path d="M164.23,194.08v-1.03h-1.84v-.52l1.92-2.67h.45v2.72h.62v.46h-.62v1.03h-.53ZM164.22,192.59v-1.91l-1.34,1.91h1.34Z" fill="#000" stroke-width="0"/><path d="M168.31,190.23c.18.24.28.49.28.75h-.52c-.03-.17-.08-.3-.15-.39-.13-.18-.32-.26-.58-.26-.29,0-.53.14-.7.41-.17.27-.27.66-.29,1.17.12-.18.27-.31.46-.4.17-.08.36-.12.56-.12.35,0,.66.11.92.34s.39.56.39,1c0,.38-.12.72-.37,1.01s-.6.44-1.06.44c-.39,0-.73-.15-1.02-.45s-.43-.8-.43-1.5c0-.52.06-.96.19-1.33.24-.7.69-1.04,1.34-1.04.47,0,.79.12.98.37ZM167.92,193.44c.14-.19.21-.41.21-.66,0-.21-.06-.42-.19-.61s-.35-.29-.67-.29c-.23,0-.43.08-.6.23s-.26.38-.26.68c0,.27.08.49.23.67s.37.27.65.27.49-.09.62-.28Z" fill="#000" stroke-width="0"/><path d="M171.72,190.55c.19.35.28.82.28,1.42,0,.57-.09,1.04-.26,1.42-.25.54-.65.8-1.21.8-.5,0-.88-.22-1.12-.66-.21-.37-.31-.86-.31-1.47,0-.48.06-.89.18-1.23.23-.64.65-.96,1.25-.96.54,0,.94.22,1.18.67ZM171.19,193.35c.16-.24.24-.69.24-1.35,0-.48-.06-.87-.18-1.18-.12-.31-.34-.46-.68-.46-.31,0-.54.15-.68.44-.14.29-.21.72-.21,1.29,0,.43.04.77.14,1.03.14.4.38.59.72.59.27,0,.49-.12.65-.36Z" fill="#000" stroke-width="0"/></g></g></g><g id="w"><g id="x"><path id="y" d="M201.42,175.8v3.5" fill="gray" stroke="#000" stroke-linejoin="round" stroke-width=".8"/></g><g id="z"><g isolation="isolate"><path d="M195.21,183.18c.42.22.68.62.77,1.18h-.58c-.07-.31-.21-.54-.43-.69-.22-.14-.49-.21-.82-.21-.39,0-.72.15-.99.45-.27.3-.4.74-.4,1.34,0,.51.11.93.33,1.25.22.32.58.48,1.08.48.38,0,.7-.11.95-.34.25-.23.38-.59.38-1.09h-1.35v-.48h1.89v2.3h-.38l-.14-.55c-.19.22-.37.37-.52.45-.25.14-.57.22-.96.22-.5,0-.93-.17-1.29-.5-.39-.41-.59-.98-.59-1.71s.19-1.29.58-1.72c.37-.41.84-.61,1.42-.61.4,0,.74.08,1.03.23Z" fill="#000" stroke-width="0"/><path d="M198.88,184.31c.21.1.37.24.47.41.11.16.17.34.21.55.03.14.05.38.05.69h-2.28c0,.32.08.58.22.77.14.19.36.29.65.29.27,0,.49-.09.65-.27.09-.11.16-.23.19-.37h.52c-.01.12-.06.24-.14.38-.08.14-.16.26-.26.35-.16.16-.36.26-.59.32-.13.03-.27.05-.43.05-.39,0-.72-.14-.99-.43-.27-.29-.4-.68-.4-1.19s.14-.91.41-1.23.63-.47,1.07-.47c.22,0,.44.05.64.16ZM199.07,185.54c-.02-.23-.07-.41-.15-.55-.14-.25-.38-.38-.72-.38-.24,0-.44.09-.6.26-.16.18-.25.4-.26.67h1.73Z" fill="#000" stroke-width="0"/><path d="M200.28,184.22h.5v.45c.15-.18.31-.32.47-.4s.35-.12.55-.12c.45,0,.75.16.9.47.09.17.13.41.13.73v2.01h-.54v-1.98c0-.19-.03-.35-.08-.46-.09-.2-.26-.29-.51-.29-.12,0-.23.01-.31.04-.14.04-.27.13-.38.26-.09.1-.15.21-.17.32-.03.11-.04.27-.04.47v1.64h-.53v-3.14Z" fill="#000" stroke-width="0"/><path d="M204.14,184.22v2.08c0,.16.02.29.07.39.09.19.26.28.51.28.36,0,.6-.16.73-.49.07-.18.11-.42.11-.72v-1.54h.53v3.14h-.5v-.46c-.06.12-.14.22-.24.3-.2.16-.44.25-.72.25-.44,0-.74-.15-.9-.45-.09-.16-.13-.37-.13-.64v-2.13h.54Z" fill="#000" stroke-width="0"/><path d="M207.27,186.37c.02.18.06.31.13.4.13.17.37.25.71.25.2,0,.38-.04.53-.13.15-.08.23-.22.23-.39,0-.13-.06-.24-.18-.31-.08-.04-.23-.09-.46-.15l-.43-.11c-.27-.07-.47-.14-.6-.22-.23-.14-.34-.34-.34-.59,0-.3.11-.54.33-.72s.51-.28.87-.28c.48,0,.82.14,1.04.42.13.18.2.37.19.57h-.5c-.01-.12-.05-.23-.13-.32-.12-.14-.34-.21-.65-.21-.2,0-.36.04-.46.11-.11.08-.16.18-.16.3,0,.14.07.25.21.33.08.05.2.09.35.13l.36.08c.39.09.64.18.78.27.21.13.31.35.31.64s-.11.52-.32.72-.54.3-.98.3c-.47,0-.81-.11-1-.32-.2-.21-.3-.47-.32-.79h.51Z" fill="#000" stroke-width="0"/></g><g isolation="isolate"><path d="M191.34,193.13c.13-.27.38-.51.76-.73l.56-.33c.25-.15.43-.27.53-.38.16-.16.24-.35.24-.56,0-.25-.07-.44-.22-.58s-.34-.22-.59-.22c-.36,0-.61.14-.75.41-.07.15-.12.35-.12.61h-.54c0-.37.07-.66.2-.89.23-.41.63-.61,1.21-.61.48,0,.83.13,1.05.39s.33.55.33.87c0,.34-.12.62-.35.86-.14.14-.38.31-.74.5l-.4.22c-.19.11-.34.21-.45.3-.2.17-.32.36-.37.57h2.29v.5h-2.88c.02-.36.09-.68.22-.94Z" fill="#000" stroke-width="0"/><path d="M196.26,194.08v-1.03h-1.84v-.52l1.92-2.67h.45v2.72h.62v.46h-.62v1.03h-.53ZM196.25,192.59v-1.91l-1.34,1.91h1.34Z" fill="#000" stroke-width="0"/><path d="M198.1,194.69c.13-.02.23-.12.28-.29.03-.09.04-.17.04-.26,0-.01,0-.03,0-.04s0-.02,0-.04h-.32v-.64h.63v.59c0,.23-.05.44-.14.61s-.26.28-.49.33v-.28Z" fill="#000" stroke-width="0"/><path d="M200.06,193.06c.02.29.13.49.34.6.11.06.23.09.36.09.25,0,.47-.1.64-.32.18-.21.3-.64.38-1.28-.12.19-.26.32-.43.39s-.36.11-.56.11c-.4,0-.72-.13-.96-.38-.24-.25-.35-.58-.35-.97s.12-.71.35-1c.23-.29.58-.43,1.03-.43.61,0,1.03.28,1.27.83.13.3.19.68.19,1.14,0,.51-.08.97-.23,1.36-.26.66-.69.99-1.3.99-.41,0-.72-.11-.93-.32s-.32-.48-.32-.81h.53ZM201.44,191.99c.17-.14.26-.38.26-.72,0-.31-.08-.54-.23-.69s-.35-.23-.59-.23c-.26,0-.46.09-.61.26s-.23.4-.23.69.07.49.2.65.34.24.64.24c.21,0,.4-.07.57-.21Z" fill="#000" stroke-width="0"/><path d="M203.35,193.01c.04.3.17.51.42.62.12.06.27.09.43.09.31,0,.54-.1.69-.3s.23-.42.23-.66c0-.29-.09-.52-.27-.68s-.39-.24-.64-.24c-.18,0-.34.04-.47.11s-.24.17-.33.29l-.46-.03.32-2.26h2.18v.51h-1.78l-.18,1.17c.1-.07.19-.13.28-.17.16-.06.34-.1.54-.1.38,0,.71.12.98.37s.4.56.4.94-.12.75-.37,1.05-.64.45-1.17.45c-.34,0-.64-.1-.91-.29-.26-.19-.41-.49-.44-.89h.55Z" fill="#000" stroke-width="0"/><path d="M206.74,193.06c.02.29.13.49.34.6.11.06.23.09.36.09.25,0,.47-.1.64-.32.18-.21.3-.64.38-1.28-.12.19-.26.32-.43.39s-.36.11-.56.11c-.4,0-.72-.13-.96-.38-.24-.25-.35-.58-.35-.97s.12-.71.35-1c.23-.29.58-.43,1.03-.43.61,0,1.03.28,1.27.83.13.3.19.68.19,1.14,0,.51-.08.97-.23,1.36-.26.66-.69.99-1.3.99-.41,0-.72-.11-.93-.32s-.32-.48-.32-.81h.53ZM208.11,191.99c.17-.14.26-.38.26-.72,0-.31-.08-.54-.23-.69s-.35-.23-.59-.23c-.26,0-.46.09-.61.26s-.23.4-.23.69.07.49.2.65.34.24.64.24c.21,0,.4-.07.57-.21Z" fill="#000" stroke-width="0"/></g></g></g><g id="aa"><g id="ab"><path id="ac" d="M237.02,175.8v3.5" fill="gray" stroke="#000" stroke-linejoin="round" stroke-width=".8"/></g><g id="ad"><g isolation="isolate"><path d="M226.31,185.97c.01.24.07.44.17.59.19.29.51.43.98.43.21,0,.4-.03.58-.09.33-.12.5-.34.5-.65,0-.23-.07-.4-.21-.5-.14-.1-.37-.18-.67-.25l-.57-.13c-.37-.09-.63-.18-.78-.28-.26-.18-.4-.45-.4-.81,0-.39.13-.7.39-.95.26-.25.63-.37,1.11-.37.44,0,.81.11,1.12.33.31.22.46.57.46,1.04h-.55c-.03-.23-.09-.41-.18-.53-.17-.22-.46-.34-.87-.34-.33,0-.57.07-.71.22-.14.14-.22.31-.22.5,0,.21.08.37.26.46.11.06.36.14.76.23l.58.14c.28.07.5.16.65.27.27.2.4.49.4.88,0,.48-.17.82-.51,1.02s-.73.31-1.18.31c-.52,0-.93-.14-1.23-.41-.3-.27-.44-.64-.43-1.1h.55Z" fill="#000" stroke-width="0"/><path d="M229.82,184.24h.52v.42c.11-.14.22-.25.35-.33.18-.12.39-.18.63-.18.36,0,.66.14.91.41.25.27.37.66.37,1.17,0,.68-.18,1.17-.54,1.46-.23.19-.49.28-.79.28-.24,0-.44-.05-.6-.16-.09-.06-.2-.16-.32-.3v1.6h-.53v-4.37ZM231.8,186.69c.16-.21.25-.51.25-.92,0-.25-.04-.46-.11-.64-.14-.35-.39-.52-.75-.52s-.62.18-.75.55c-.07.2-.11.44-.11.74,0,.24.04.45.11.62.14.32.39.49.75.49.25,0,.45-.1.62-.31Z" fill="#000" stroke-width="0"/><path d="M235.14,184.31c.21.1.37.24.47.41.1.16.17.34.21.55.03.14.05.38.05.69h-2.28c0,.32.08.58.22.77.14.19.36.29.65.29.27,0,.49-.09.65-.27.09-.11.16-.23.19-.37h.52c-.01.12-.06.24-.14.38-.08.14-.16.26-.26.35-.16.16-.36.26-.59.32-.13.03-.27.05-.43.05-.39,0-.72-.14-.99-.43-.27-.29-.41-.68-.41-1.19s.14-.91.41-1.23c.27-.31.63-.47,1.07-.47.22,0,.44.05.64.16ZM235.33,185.54c-.02-.23-.07-.41-.15-.55-.14-.25-.38-.38-.72-.38-.24,0-.44.09-.6.26-.16.18-.25.4-.26.67h1.73Z" fill="#000" stroke-width="0"/><path d="M238.61,184.39c.22.17.35.47.4.89h-.51c-.03-.19-.1-.35-.21-.48s-.29-.19-.54-.19c-.34,0-.58.16-.72.49-.09.21-.14.48-.14.79s.07.58.2.79c.13.21.34.32.63.32.22,0,.39-.07.52-.2.13-.13.22-.32.26-.55h.51c-.06.42-.21.72-.44.91s-.53.29-.9.29c-.41,0-.74-.15-.98-.45-.24-.3-.37-.67-.37-1.12,0-.55.13-.98.4-1.29s.61-.46,1.02-.46c.35,0,.64.09.86.26Z" fill="#000" stroke-width="0"/><path d="M239.54,183.05h.54v.6h-.54v-.6ZM239.54,184.24h.54v3.12h-.54v-3.12Z" fill="#000" stroke-width="0"/><path d="M242.81,184.31c.21.1.37.24.47.41.1.16.17.34.21.55.03.14.05.38.05.69h-2.28c0,.32.08.58.22.77.14.19.36.29.65.29.27,0,.49-.09.65-.27.09-.11.16-.23.19-.37h.52c-.01.12-.06.24-.14.38-.08.14-.16.26-.26.35-.16.16-.36.26-.59.32-.13.03-.27.05-.43.05-.39,0-.72-.14-.99-.43-.27-.29-.41-.68-.41-1.19s.14-.91.41-1.23c.27-.31.63-.47,1.07-.47.22,0,.44.05.64.16ZM243,185.54c-.02-.23-.07-.41-.15-.55-.14-.25-.38-.38-.72-.38-.24,0-.44.09-.6.26-.16.18-.25.4-.26.67h1.73Z" fill="#000" stroke-width="0"/><path d="M244.52,186.37c.02.18.06.31.13.4.14.17.37.25.71.25.2,0,.37-.04.53-.13.15-.08.23-.22.23-.39,0-.13-.06-.24-.18-.31-.08-.04-.23-.09-.46-.15l-.43-.11c-.27-.07-.47-.14-.6-.22-.23-.14-.35-.34-.35-.59,0-.3.11-.54.33-.72s.51-.28.88-.28c.48,0,.82.14,1.04.42.13.18.2.37.19.57h-.5c0-.12-.05-.23-.13-.32-.12-.14-.34-.21-.64-.21-.2,0-.36.04-.46.11-.1.08-.16.18-.16.3,0,.14.07.25.21.33.08.05.2.09.35.13l.36.08c.39.09.64.18.78.27.21.13.31.35.31.64s-.11.52-.32.72c-.21.2-.54.3-.98.3-.47,0-.81-.11-1-.32-.2-.21-.3-.47-.32-.79h.51Z" fill="#000" stroke-width="0"/></g><g isolation="isolate"><path d="M225.19,191.11v-.4c.38-.04.65-.1.8-.19s.26-.29.34-.62h.42v4.18h-.56v-2.97h-.99Z" fill="#000" stroke-width="0"/><path d="M228.08,191.11v-.4c.38-.04.65-.1.8-.19s.26-.29.34-.62h.42v4.18h-.56v-2.97h-.99Z" fill="#000" stroke-width="0"/><path d="M231.33,193.78c-.22-.27-.34-.6-.34-.99h.55c.02.27.07.47.15.59.14.22.38.33.74.33.28,0,.5-.07.67-.22s.25-.34.25-.57c0-.29-.09-.49-.26-.61s-.42-.17-.74-.17c-.04,0-.07,0-.11,0-.04,0-.07,0-.11,0v-.47c.05,0,.1,0,.14.01s.08,0,.12,0c.2,0,.36-.03.49-.09.22-.11.33-.3.33-.59,0-.21-.07-.37-.22-.48s-.32-.17-.52-.17c-.35,0-.59.12-.73.35-.07.13-.12.31-.13.55h-.52c0-.31.06-.58.19-.8.21-.39.59-.59,1.13-.59.43,0,.76.1.99.29.23.19.35.47.35.83,0,.26-.07.47-.21.63-.09.1-.2.18-.33.23.22.06.39.18.52.35.12.17.19.38.19.63,0,.4-.13.73-.4.98s-.64.38-1.12.38-.86-.14-1.08-.41Z" fill="#000" stroke-width="0"/><path d="M234.68,194.69c.13-.02.23-.12.28-.29.03-.09.04-.17.04-.26,0-.01,0-.03,0-.04s0-.02,0-.04h-.32v-.64h.63v.59c0,.23-.05.44-.14.61s-.26.28-.49.33v-.28Z" fill="#000" stroke-width="0"/><path d="M236.43,191.11v-.4c.38-.04.65-.1.8-.19s.26-.29.34-.62h.42v4.18h-.56v-2.97h-.99Z" fill="#000" stroke-width="0"/><path d="M241.99,190.55c.19.35.28.82.28,1.42,0,.57-.08,1.04-.25,1.42-.25.54-.65.8-1.21.8-.5,0-.88-.22-1.12-.66-.21-.37-.31-.86-.31-1.47,0-.48.06-.89.18-1.23.23-.64.65-.96,1.25-.96.54,0,.94.22,1.18.67ZM241.46,193.35c.16-.24.24-.69.24-1.35,0-.48-.06-.87-.18-1.18-.12-.31-.35-.46-.68-.46-.31,0-.54.15-.68.44-.14.29-.22.72-.22,1.29,0,.43.05.77.14,1.03.14.4.38.59.72.59.27,0,.49-.12.65-.36Z" fill="#000" stroke-width="0"/><path d="M244.52,194.08v-1.03h-1.84v-.52l1.92-2.67h.45v2.72h.62v.46h-.62v1.03h-.53ZM244.51,192.59v-1.91l-1.34,1.91h1.34Z" fill="#000" stroke-width="0"/></g></g></g></g><g id="ae"><g id="af"><g id="ag"><g clip-path="url(#ah)"><path d="M36.43,175.8h223.2" fill="none" stroke="rgba(211,211,211,.7)" stroke-linecap="square" stroke-linejoin="round" stroke-width=".8"/></g></g><g id="ai"><path id="aj" d="M36.43,175.8h-3.5" fill="gray" stroke="#000" stroke-linejoin="round" stroke-width=".8"/></g><g id="ak"><g isolation="isolate"><path d="M28.89,174.55c.19.35.28.82.28,1.42,0,.57-.08,1.04-.25,1.42-.25.54-.65.8-1.21.8-.5,0-.88-.22-1.12-.66-.21-.37-.31-.86-.31-1.47,0-.48.06-.89.18-1.23.23-.64.65-.96,1.25-.96.54,0,.94.22,1.18.67ZM28.36,177.35c.16-.24.24-.69.24-1.35,0-.48-.06-.87-.18-1.18-.12-.31-.35-.46-.68-.46-.31,0-.54.15-.68.44-.14.29-.22.72-.22,1.29,0,.43.05.77.14,1.03.14.4.38.59.72.59.27,0,.49-.12.65-.36Z" fill="#000" stroke-width="0"/></g></g></g><g id="al"><g id="am"><g clip-path="url(#an)"><path d="M36.43,159.17h223.2" fill="none" stroke="rgba(211,211,211,.7)" stroke-linecap="square" stroke-linejoin="round" stroke-width=".8"/></g></g><g id="ao"><path id="ap" d="M36.43,159.17h-3.5" fill="gray" stroke="#000" stroke-linejoin="round" stroke-width=".8"/></g><g id="aq"><g isolation="isolate"><path d="M23.33,158.48v-.4c.38-.04.65-.1.8-.19s.26-.29.34-.62h.42v4.18h-.56v-2.97h-.99Z" fill="#000" stroke-width="0"/><path d="M28.89,157.92c.19.35.28.82.28,1.42,0,.57-.08,1.04-.25,1.42-.25.54-.65.8-1.21.8-.5,0-.88-.22-1.12-.66-.21-.37-.31-.86-.31-1.47,0-.48.06-.89.18-1.23.23-.64.65-.96,1.25-.96.54,0,.94.22,1.18.67ZM28.36,160.72c.16-.24.24-.69.24-1.35,0-.48-.06-.87-.18-1.18-.12-.31-.35-.46-.68-.46-.31,0-.54.15-.68.44-.14.29-.22.72-.22,1.29,0,.43.05.77.14,1.03.14.4.38.59.72.59.27,0,.49-.12.65-.36Z" fill="#000" stroke-width="0"/></g></g></g><g id="ar"><g id="as"><g clip-path="url(#at)"><path d="M36.43,142.54h223.2" fill="none" stroke="rgba(211,211,211,.7)" stroke-linecap="square" stroke-linejoin="round" stroke-width=".8"/></g></g><g id="au"><path id="av" d="M36.43,142.54h-3.5" fill="gray" stroke="#000" stroke-linejoin="round" stroke-width=".8"/></g><g id="aw"><g isolation="isolate"><path d="M23.17,143.87c.13-.27.38-.51.76-.73l.56-.32c.25-.15.43-.27.53-.38.16-.16.24-.35.24-.56,0-.24-.07-.44-.22-.58-.15-.14-.34-.22-.59-.22-.36,0-.61.14-.75.41-.07.15-.12.35-.12.61h-.54c0-.37.07-.66.2-.89.23-.41.63-.61,1.21-.61.48,0,.83.13,1.05.39s.33.55.33.87c0,.34-.12.62-.35.86-.14.14-.38.31-.74.5l-.4.22c-.19.11-.34.21-.45.3-.2.17-.32.36-.37.57h2.29v.5h-2.88c.02-.36.09-.68.22-.94Z" fill="#000" stroke-width="0"/><path d="M28.89,141.29c.19.35.28.82.28,1.42,0,.57-.08,1.04-.25,1.41-.25.54-.65.8-1.21.8-.5,0-.88-.22-1.12-.66-.21-.37-.31-.86-.31-1.47,0-.48.06-.88.18-1.23.23-.64.65-.96,1.25-.96.54,0,.94.22,1.18.67ZM28.36,144.09c.16-.24.24-.69.24-1.35,0-.48-.06-.87-.18-1.18-.12-.31-.35-.46-.68-.46-.31,0-.54.15-.68.44-.14.29-.22.72-.22,1.29,0,.43.05.77.14,1.03.14.4.38.59.72.59.27,0,.49-.12.65-.36Z" fill="#000" stroke-width="0"/></g></g></g><g id="ax"><g id="ay"><g clip-path="url(#az)"><path d="M36.43,125.9h223.2" fill="none" stroke="rgba(211,211,211,.7)" stroke-linecap="square" stroke-linejoin="round" stroke-width=".8"/></g></g><g id="ba"><path id="bb" d="M36.43,125.9h-3.5" fill="gray" stroke="#000" stroke-linejoin="round" stroke-width=".8"/></g><g id="bc"><g isolation="isolate"><path d="M23.23,127.89c-.22-.27-.34-.6-.34-.99h.55c.02.27.07.47.15.59.14.22.38.33.74.33.28,0,.5-.07.67-.22s.25-.34.25-.57c0-.29-.09-.49-.27-.61s-.42-.17-.74-.17c-.04,0-.07,0-.11,0-.04,0-.07,0-.11,0v-.47c.05,0,.1,0,.14.01s.08,0,.12,0c.2,0,.36-.03.49-.09.22-.11.33-.3.33-.59,0-.21-.07-.37-.22-.48s-.32-.17-.52-.17c-.35,0-.59.12-.73.35-.07.13-.12.31-.13.55h-.52c0-.31.06-.58.19-.8.21-.39.59-.59,1.13-.59.43,0,.76.1.99.29.23.19.35.47.35.83,0,.26-.07.47-.21.63-.09.1-.2.18-.33.23.22.06.39.18.52.35.12.17.19.38.19.63,0,.4-.13.73-.4.98s-.64.38-1.12.38-.86-.14-1.08-.41Z" fill="#000" stroke-width="0"/><path d="M28.89,124.66c.19.35.28.82.28,1.42,0,.57-.08,1.04-.25,1.42-.25.54-.65.8-1.21.8-.5,0-.88-.22-1.12-.66-.21-.37-.31-.86-.31-1.47,0-.48.06-.89.18-1.23.23-.64.65-.96,1.25-.96.54,0,.94.22,1.18.67ZM28.36,127.45c.16-.24.24-.69.24-1.35,0-.48-.06-.87-.18-1.18-.12-.31-.35-.46-.68-.46-.31,0-.54.15-.68.44-.14.29-.22.72-.22,1.29,0,.43.05.77.14,1.03.14.4.38.59.72.59.27,0,.49-.12.65-.36Z" fill="#000" stroke-width="0"/></g></g></g><g id="bd"><g id="be"><g clip-path="url(#bf)"><path d="M36.43,109.27h223.2" fill="none" stroke="rgba(211,211,211,.7)" stroke-linecap="square" stroke-linejoin="round" stroke-width=".8"/></g></g><g id="bg"><path id="bh" d="M36.43,109.27h-3.5" fill="gray" stroke="#000" stroke-linejoin="round" stroke-width=".8"/></g><g id="bi"><g isolation="isolate"><path d="M24.75,111.55v-1.03h-1.84v-.52l1.92-2.67h.45v2.72h.62v.46h-.62v1.03h-.53ZM24.74,110.07v-1.91l-1.34,1.91h1.34Z" fill="#000" stroke-width="0"/><path d="M28.89,108.03c.19.35.28.82.28,1.42,0,.57-.08,1.04-.25,1.42-.25.54-.65.8-1.21.8-.5,0-.88-.22-1.12-.66-.21-.37-.31-.86-.31-1.47,0-.48.06-.89.18-1.23.23-.64.65-.96,1.25-.96.54,0,.94.22,1.18.67ZM28.36,110.82c.16-.24.24-.69.24-1.35,0-.48-.06-.87-.18-1.18-.12-.31-.35-.46-.68-.46-.31,0-.54.15-.68.44-.14.29-.22.72-.22,1.29,0,.43.05.77.14,1.03.14.4.38.59.72.59.27,0,.49-.12.65-.36Z" fill="#000" stroke-width="0"/></g></g></g><g id="bj"><g id="bk"><g clip-path="url(#bl)"><path d="M36.43,92.64h223.2" fill="none" stroke="rgba(211,211,211,.7)" stroke-linecap="square" stroke-linejoin="round" stroke-width=".8"/></g></g><g id="bm"><path id="bn" d="M36.43,92.64h-3.5" fill="gray" stroke="#000" stroke-linejoin="round" stroke-width=".8"/></g><g id="bo"><g isolation="isolate"><path d="M23.49,93.85c.04.3.17.51.42.62.12.06.27.09.43.09.31,0,.54-.1.69-.3s.23-.42.23-.66c0-.29-.09-.52-.27-.68s-.39-.24-.64-.24c-.18,0-.34.04-.47.11s-.24.17-.33.29l-.46-.03.32-2.26h2.18v.51h-1.78l-.18,1.17c.1-.07.19-.13.28-.17.16-.06.34-.1.54-.1.38,0,.71.12.98.37s.4.56.4.94-.12.75-.37,1.05-.64.45-1.17.45c-.34,0-.64-.1-.91-.29-.26-.19-.41-.49-.44-.89h.55Z" fill="#000" stroke-width="0"/><path d="M28.89,91.39c.19.35.28.82.28,1.42,0,.57-.08,1.04-.25,1.42-.25.54-.65.8-1.21.8-.5,0-.88-.22-1.12-.66-.21-.37-.31-.86-.31-1.47,0-.48.06-.89.18-1.23.23-.64.65-.96,1.25-.96.54,0,.94.22,1.18.67ZM28.36,94.19c.16-.24.24-.69.24-1.35,0-.48-.06-.87-.18-1.18-.12-.31-.35-.46-.68-.46-.31,0-.54.15-.68.44-.14.29-.22.72-.22,1.29,0,.43.05.77.14,1.03.14.4.38.59.72.59.27,0,.49-.12.65-.36Z" fill="#000" stroke-width="0"/></g></g></g><g id="bp"><g id="bq"><g clip-path="url(#br)"><path d="M36.43,76.01h223.2" fill="none" stroke="rgba(211,211,211,.7)" stroke-linecap="square" stroke-linejoin="round" stroke-width=".8"/></g></g><g id="bs"><path id="bt" d="M36.43,76.01h-3.5" fill="gray" stroke="#000" stroke-linejoin="round" stroke-width=".8"/></g><g id="bu"><g isolation="isolate"><path d="M25.49,74.44c.18.24.28.49.28.75h-.52c-.03-.17-.08-.3-.15-.39-.13-.18-.32-.26-.58-.26-.29,0-.53.14-.7.41-.17.27-.27.66-.29,1.17.12-.18.27-.31.46-.4.17-.08.36-.12.56-.12.35,0,.66.11.92.34s.39.56.39,1c0,.38-.12.72-.37,1.01s-.6.44-1.06.44c-.39,0-.73-.15-1.02-.45s-.43-.8-.43-1.5c0-.52.06-.96.19-1.33.24-.7.69-1.04,1.34-1.04.47,0,.8.12.98.37ZM25.09,77.65c.14-.19.21-.41.21-.66,0-.21-.06-.42-.18-.61s-.35-.29-.67-.29c-.23,0-.43.08-.6.23s-.26.38-.26.68c0,.27.08.49.23.67s.37.27.65.27.48-.09.62-.28Z" fill="#000" stroke-width="0"/><path d="M28.89,74.76c.19.35.28.82.28,1.42,0,.57-.08,1.04-.25,1.42-.25.54-.65.8-1.21.8-.5,0-.88-.22-1.12-.66-.21-.37-.31-.86-.31-1.47,0-.48.06-.89.18-1.23.23-.64.65-.96,1.25-.96.54,0,.94.22,1.18.67ZM28.36,77.56c.16-.24.24-.69.24-1.35,0-.48-.06-.87-.18-1.18-.12-.31-.35-.46-.68-.46-.31,0-.54.15-.68.44-.14.29-.22.72-.22,1.29,0,.43.05.77.14,1.03.14.4.38.59.72.59.27,0,.49-.12.65-.36Z" fill="#000" stroke-width="0"/></g></g></g><g id="bv"><g id="bw"><g clip-path="url(#bx)"><path d="M36.43,59.38h223.2" fill="none" stroke="rgba(211,211,211,.7)" stroke-linecap="square" stroke-linejoin="round" stroke-width=".8"/></g></g><g id="by"><path id="bz" d="M36.43,59.38h-3.5" fill="gray" stroke="#000" stroke-linejoin="round" stroke-width=".8"/></g><g id="ca"><g isolation="isolate"><path d="M25.89,57.53v.46c-.13.13-.31.36-.54.68s-.42.67-.59,1.05c-.17.37-.3.7-.39,1-.06.19-.13.5-.22.93h-.58c.13-.8.43-1.6.88-2.39.27-.46.55-.87.84-1.2h-2.32v-.53h2.92Z" fill="#000" stroke-width="0"/><path d="M28.89,58.13c.19.35.28.82.28,1.42,0,.57-.08,1.04-.25,1.42-.25.54-.65.8-1.21.8-.5,0-.88-.22-1.12-.66-.21-.37-.31-.86-.31-1.47,0-.48.06-.89.18-1.23.23-.64.65-.96,1.25-.96.54,0,.94.22,1.18.67ZM28.36,60.93c.16-.24.24-.69.24-1.35,0-.48-.06-.87-.18-1.18-.12-.31-.35-.46-.68-.46-.31,0-.54.15-.68.44-.14.29-.22.72-.22,1.29,0,.43.05.77.14,1.03.14.4.38.59.72.59.27,0,.49-.12.65-.36Z" fill="#000" stroke-width="0"/></g></g></g><g id="cb"><g id="cc"><g clip-path="url(#cd)"><path d="M36.43,42.74h223.2" fill="none" stroke="rgba(211,211,211,.7)" stroke-linecap="square" stroke-linejoin="round" stroke-width=".8"/></g></g><g id="ce"><path id="cf" d="M36.43,42.74h-3.5" fill="gray" stroke="#000" stroke-linejoin="round" stroke-width=".8"/></g><g id="cg"><g isolation="isolate"><path d="M23.32,42.57c-.15-.16-.23-.36-.23-.61,0-.31.11-.58.34-.81.23-.22.55-.34.96-.34s.72.11.95.32c.23.21.34.46.34.74,0,.26-.07.47-.2.64-.07.09-.19.18-.35.27.17.08.31.17.41.28.19.2.28.45.28.76,0,.37-.12.68-.37.94-.25.26-.6.39-1.05.39-.41,0-.75-.11-1.04-.33-.28-.22-.42-.54-.42-.96,0-.25.06-.46.18-.64s.3-.32.54-.42c-.15-.06-.26-.14-.34-.22ZM25.03,44.46c.16-.13.24-.33.24-.59s-.08-.48-.25-.62-.38-.21-.64-.21-.46.07-.62.22c-.16.14-.24.34-.24.6,0,.22.07.41.22.57.15.16.37.24.68.24.24,0,.45-.07.61-.2ZM24.93,42.39c.13-.13.2-.29.2-.47,0-.16-.06-.3-.19-.43-.12-.13-.31-.2-.57-.2s-.44.07-.55.2c-.11.13-.17.29-.17.46,0,.2.07.35.22.46.15.11.32.17.52.17.23,0,.41-.07.54-.2Z" fill="#000" stroke-width="0"/><path d="M28.89,41.5c.19.35.28.82.28,1.42,0,.57-.08,1.04-.25,1.42-.25.54-.65.8-1.21.8-.5,0-.88-.22-1.12-.66-.21-.37-.31-.86-.31-1.47,0-.48.06-.89.18-1.23.23-.64.65-.96,1.25-.96.54,0,.94.22,1.18.67ZM28.36,44.29c.16-.24.24-.69.24-1.35,0-.48-.06-.87-.18-1.18-.12-.31-.35-.46-.68-.46-.31,0-.54.15-.68.44-.14.29-.22.72-.22,1.29,0,.43.05.77.14,1.03.14.4.38.59.72.59.27,0,.49-.12.65-.36Z" fill="#000" stroke-width="0"/></g></g></g><g id="ch"><g id="ci"><g clip-path="url(#cj)"><path d="M36.43,26.11h223.2" fill="none" stroke="rgba(211,211,211,.7)" stroke-linecap="square" stroke-linejoin="round" stroke-width=".8"/></g></g><g id="ck"><path id="cl" d="M36.43,26.11h-3.5" fill="gray" stroke="#000" stroke-linejoin="round" stroke-width=".8"/></g><g id="cm"><g isolation="isolate"><path d="M23.55,27.37c.02.29.13.49.34.6.11.06.23.09.36.09.25,0,.47-.1.64-.32.18-.21.3-.64.38-1.28-.12.19-.26.32-.44.39s-.36.11-.56.11c-.4,0-.72-.13-.96-.38-.24-.25-.35-.58-.35-.97s.12-.71.35-1c.23-.29.58-.43,1.03-.43.61,0,1.03.28,1.27.83.13.3.19.68.19,1.14,0,.51-.08.97-.23,1.36-.26.66-.69.99-1.3.99-.41,0-.72-.11-.93-.32s-.32-.48-.32-.81h.53ZM24.92,26.31c.17-.14.26-.38.26-.72,0-.31-.08-.54-.23-.69s-.35-.23-.59-.23c-.26,0-.46.09-.61.26s-.23.4-.23.69.07.49.2.65.34.24.64.24c.21,0,.4-.07.57-.21Z" fill="#000" stroke-width="0"/><path d="M28.89,24.87c.19.35.28.82.28,1.42,0,.57-.08,1.04-.25,1.42-.25.54-.65.8-1.21.8-.5,0-.88-.22-1.12-.66-.21-.37-.31-.86-.31-1.47,0-.48.06-.89.18-1.23.23-.64.65-.96,1.25-.96.54,0,.94.22,1.18.67ZM28.36,27.66c.16-.24.24-.69.24-1.35,0-.48-.06-.87-.18-1.18-.12-.31-.35-.46-.68-.46-.31,0-.54.15-.68.44-.14.29-.22.72-.22,1.29,0,.43.05.77.14,1.03.14.4.38.59.72.59.27,0,.49-.12.65-.36Z" fill="#000" stroke-width="0"/></g></g></g><g id="cn"><g id="co"><g clip-path="url(#cp)"><path d="M36.43,9.48h223.2" fill="none" stroke="rgba(211,211,211,.7)" stroke-linecap="square" stroke-linejoin="round" stroke-width=".8"/></g></g><g id="cq"><path id="cr" d="M36.43,9.48h-3.5" fill="gray" stroke="#000" stroke-linejoin="round" stroke-width=".8"/></g><g id="cs"><g isolation="isolate"><path d="M19.99,8.79v-.4c.38-.04.65-.1.8-.19s.26-.29.34-.62h.42v4.18h-.56v-2.97h-.99Z" fill="#000" stroke-width="0"/><path d="M25.55,8.23c.19.35.28.82.28,1.42,0,.57-.08,1.04-.25,1.42-.25.54-.65.8-1.21.8-.5,0-.88-.22-1.12-.66-.21-.37-.31-.86-.31-1.47,0-.48.06-.89.18-1.23.23-.64.65-.96,1.25-.96.54,0,.94.22,1.18.67ZM25.02,11.03c.16-.24.24-.69.24-1.35,0-.48-.06-.87-.18-1.18-.12-.31-.35-.46-.68-.46-.31,0-.54.15-.68.44-.14.29-.22.72-.22,1.29,0,.43.05.77.14,1.03.14.4.38.59.72.59.27,0,.49-.12.65-.36Z" fill="#000" stroke-width="0"/><path d="M28.89,8.23c.19.35.28.82.28,1.42,0,.57-.08,1.04-.25,1.42-.25.54-.65.8-1.21.8-.5,0-.88-.22-1.12-.66-.21-.37-.31-.86-.31-1.47,0-.48.06-.89.18-1.23.23-.64.65-.96,1.25-.96.54,0,.94.22,1.18.67ZM28.36,11.03c.16-.24.24-.69.24-1.35,0-.48-.06-.87-.18-1.18-.12-.31-.35-.46-.68-.46-.31,0-.54.15-.68.44-.14.29-.22.72-.22,1.29,0,.43.05.77.14,1.03.14.4.38.59.72.59.27,0,.49-.12.65-.36Z" fill="#000" stroke-width="0"/></g></g></g><g id="ct"><g isolation="isolate"><path d="M7.5,102.26h.6v1.69h4.42v.69h-4.42v1.69h-.6v-4.07Z" fill="#000" stroke-width="0"/><path d="M10.3,100.54c-.02-.14-.08-.24-.18-.28-.05-.03-.13-.04-.24-.04-.21,0-.36.07-.46.22-.09.15-.14.36-.14.64,0,.32.09.55.26.68.1.07.24.12.43.15v.57c-.45-.01-.77-.16-.94-.44-.18-.28-.27-.61-.27-.98,0-.43.08-.78.25-1.05.16-.27.42-.4.77-.4h2.11c.06,0,.12-.01.15-.04.04-.03.06-.08.06-.17,0-.03,0-.06,0-.09,0-.03,0-.07-.02-.11h.46c.03.1.04.17.05.22s0,.12,0,.21c0,.21-.07.37-.22.46-.08.05-.19.09-.34.11.16.13.31.31.43.54.12.23.18.49.18.78,0,.34-.1.62-.31.83-.21.22-.46.32-.77.32-.34,0-.6-.11-.79-.32-.19-.21-.3-.49-.34-.83l-.12-.98ZM11.97,101.83c.1-.13.15-.28.15-.46,0-.22-.05-.43-.15-.63-.17-.34-.44-.51-.82-.51h-.5c.05.08.09.17.12.29s.05.23.07.35l.05.37c.03.22.08.39.14.5.11.19.28.29.51.29.18,0,.32-.07.42-.19Z" fill="#000" stroke-width="0"/><path d="M8.86,98.95v-.8l1.29-.84-1.29-.85.02-.75,1.77,1.23,1.88-1.29v.79l-1.37.91,1.37.88v.78l-1.88-1.29-1.78,1.22Z" fill="#000" stroke-width="0"/><path d="M10.3,93.14c-.02-.14-.08-.24-.18-.28-.05-.03-.13-.04-.24-.04-.21,0-.36.07-.46.22-.09.15-.14.36-.14.64,0,.32.09.55.26.68.1.07.24.12.43.15v.57c-.45-.01-.77-.16-.94-.44-.18-.28-.27-.61-.27-.98,0-.43.08-.78.25-1.05.16-.27.42-.4.77-.4h2.11c.06,0,.12-.01.15-.04.04-.03.06-.08.06-.17,0-.03,0-.06,0-.09,0-.03,0-.07-.02-.11h.46c.03.1.04.17.05.22s0,.12,0,.21c0,.21-.07.37-.22.46-.08.05-.19.09-.34.11.16.13.31.31.43.54.12.23.18.49.18.78,0,.34-.1.62-.31.83-.21.22-.46.32-.77.32-.34,0-.6-.11-.79-.32s-.3-.49-.34-.83l-.12-.98ZM11.97,94.44c.1-.13.15-.28.15-.46,0-.22-.05-.43-.15-.63-.17-.34-.44-.51-.82-.51h-.5c.05.08.09.17.12.29s.05.23.07.35l.05.37c.03.22.08.39.14.5.11.19.28.29.51.29.18,0,.32-.06.42-.19Z" fill="#000" stroke-width="0"/><path d="M7.42,87.65c.7.36,1.21.59,1.54.7.5.16,1.08.24,1.73.24s1.26-.09,1.81-.28c.34-.11.82-.34,1.46-.67v.41c-.52.33-.85.54-1,.62-.14.08-.34.17-.58.26-.34.13-.7.22-1.08.27-.2.02-.39.04-.57.04-.67,0-1.27-.11-1.8-.32-.33-.13-.84-.41-1.5-.84v-.43Z" fill="#000" stroke-width="0"/><path d="M7.65,83.11v-.38l5,2.74v.38l-5-2.74ZM8.12,85.13c.23-.23.51-.35.84-.35s.61.12.84.35.35.51.35.84-.12.61-.35.84-.51.35-.84.35-.61-.12-.84-.35-.35-.51-.35-.84.12-.61.35-.84ZM9.46,85.47c-.14-.14-.3-.21-.5-.21s-.36.07-.5.21c-.14.14-.21.31-.21.5s.07.36.21.5c.14.14.3.21.5.21s.36-.07.5-.21c.14-.14.21-.3.21-.5s-.07-.36-.21-.5ZM10.49,81.77c.23-.23.51-.35.84-.35s.61.12.84.35c.23.23.35.51.35.84s-.12.61-.35.84c-.23.23-.51.35-.84.35s-.61-.12-.84-.35-.35-.51-.35-.84.12-.61.35-.84ZM11.83,82.12c-.14-.14-.3-.21-.5-.21s-.36.07-.5.21c-.14.14-.21.3-.21.5s.07.36.21.5c.14.14.3.21.5.21s.36-.07.5-.21c.14-.14.21-.31.21-.5s-.07-.36-.21-.5Z" fill="#000" stroke-width="0"/><path d="M13.95,80.92c-.71-.36-1.22-.6-1.54-.7-.49-.16-1.06-.24-1.72-.24s-1.26.09-1.81.28c-.34.11-.82.34-1.46.67v-.41c.56-.35.91-.56,1.04-.64.13-.07.31-.15.54-.24.28-.11.57-.19.84-.23.28-.05.55-.07.8-.07.67,0,1.28.11,1.8.32.34.13.84.41,1.5.84v.43Z" fill="#000" stroke-width="0"/></g></g></g><g id="cu"><g clip-path="url(#cv)"><path d="M46.57,175.8h24.92v-68.21h-24.92v68.21Z" fill="#80b1d3" stroke-width="0"/></g></g><g id="cw"><g clip-path="url(#cx)"><path d="M82.17,175.8h24.92v-54.53h-24.92v54.53Z" fill="#80b1d3" stroke-width="0"/></g></g><g id="cy"><g clip-path="url(#cz)"><path d="M117.77,175.8h24.92v-36.79h-24.92v36.79Z" fill="#80b1d3" stroke-width="0"/></g></g><g id="da"><g clip-path="url(#db)"><path d="M153.37,175.8h24.92v-27.75h-24.92v27.75Z" fill="#80b1d3" stroke-width="0"/></g></g><g id="dc"><g clip-path="url(#dd)"><path d="M188.96,175.8h24.92v-28.1h-24.92v28.1Z" fill="#80b1d3" stroke-width="0"/></g></g><g id="de"><g clip-path="url(#df)"><path d="M224.56,175.8h24.92v-24.77h-24.92v24.77Z" fill="#80b1d3" stroke-width="0"/></g></g><g id="dg"><g clip-path="url(#dh)"><path d="M46.57,107.59h24.92V9.48h-24.92v98.11Z" fill="#fdae6b" stroke-width="0"/></g></g><g id="di"><g clip-path="url(#dj)"><path d="M82.17,121.27h24.92V9.48h-24.92v111.79Z" fill="#fdae6b" stroke-width="0"/></g></g><g id="dk"><g clip-path="url(#dl)"><path d="M117.77,139.01h24.92V9.48h-24.92v129.53Z" fill="#fdae6b" stroke-width="0"/></g></g><g id="dm"><g clip-path="url(#dn)"><path d="M153.37,148.05h24.92V9.48h-24.92v138.57Z" fill="#fdae6b" stroke-width="0"/></g></g><g id="do"><g clip-path="url(#dp)"><path d="M188.96,147.7h24.92V9.48h-24.92v138.22Z" fill="#fdae6b" stroke-width="0"/></g></g><g id="dq"><g clip-path="url(#dr)"><path d="M224.56,151.03h24.92V9.48h-24.92v141.55Z" fill="#fdae6b" stroke-width="0"/></g></g><g id="ds"><path d="M36.43,175.8V9.48" fill="none" stroke="gray" stroke-linecap="square" stroke-width=".8"/></g><g id="dt"><path d="M36.43,175.8h223.2" fill="none" stroke="gray" stroke-linecap="square" stroke-width=".8"/></g><g id="du"><g id="dv"><path d="M265.03,19.44h12v-4.2h-12v4.2Z" fill="#fdae6b" stroke-width="0"/></g><g id="dw"><g isolation="isolate"><path d="M282.34,15.13h1.93c.38,0,.69.11.92.32.23.22.35.52.35.91,0,.34-.1.63-.31.88-.21.25-.53.37-.96.37h-1.34v1.82h-.58v-4.3ZM284.6,15.73c-.13-.06-.3-.09-.53-.09h-1.15v1.49h1.15c.26,0,.47-.06.63-.17.16-.11.24-.31.24-.59,0-.32-.12-.53-.35-.64Z" fill="#000" stroke-width="0"/><path d="M286.23,15.13h.53v4.3h-.53v-4.3Z" fill="#000" stroke-width="0"/><path d="M289.23,17.54c.12-.02.2-.07.24-.15.02-.05.04-.12.04-.2,0-.18-.06-.31-.19-.39s-.31-.12-.55-.12c-.28,0-.47.07-.58.22-.06.08-.11.21-.13.37h-.49c0-.39.14-.66.38-.81.24-.15.52-.23.84-.23.37,0,.67.07.9.21.23.14.34.36.34.66v1.81c0,.05.01.1.03.13s.07.05.14.05c.02,0,.05,0,.08,0,.03,0,.06,0,.09-.01v.39c-.08.02-.14.04-.19.04s-.1,0-.18,0c-.18,0-.31-.06-.4-.19-.04-.07-.07-.17-.09-.29-.11.14-.26.26-.46.37s-.42.16-.67.16c-.29,0-.53-.09-.71-.26s-.28-.4-.28-.66c0-.29.09-.52.27-.68s.42-.26.71-.3l.84-.1ZM288.12,18.96c.11.09.24.13.4.13.19,0,.37-.04.54-.13.29-.14.44-.38.44-.7v-.42c-.06.04-.15.08-.25.1-.1.03-.2.05-.3.06l-.32.04c-.19.03-.33.07-.43.12-.16.09-.25.24-.25.44,0,.15.06.27.17.36Z" fill="#000" stroke-width="0"/><path d="M292.96,16.47c.22.17.35.47.4.89h-.51c-.03-.19-.1-.35-.21-.48s-.29-.19-.54-.19c-.34,0-.58.16-.72.49-.09.21-.14.48-.14.79s.07.58.2.79c.13.21.34.32.63.32.22,0,.39-.07.52-.2.13-.13.22-.32.26-.55h.51c-.06.42-.21.72-.44.91s-.53.29-.9.29c-.41,0-.74-.15-.98-.45-.24-.3-.37-.67-.37-1.12,0-.55.13-.98.4-1.29s.61-.46,1.02-.46c.35,0,.64.09.86.26Z" fill="#000" stroke-width="0"/><path d="M295.82,16.39c.21.1.37.24.47.41.1.16.17.34.21.55.03.14.05.38.05.69h-2.28c0,.32.08.58.22.77.14.19.36.29.65.29.27,0,.49-.09.65-.27.09-.11.16-.23.19-.37h.52c-.01.12-.06.24-.14.38-.08.14-.16.26-.26.35-.16.16-.36.26-.59.32-.13.03-.27.05-.43.05-.39,0-.72-.14-.99-.43-.27-.29-.41-.68-.41-1.19s.14-.91.41-1.23c.27-.31.63-.47,1.07-.47.22,0,.44.05.64.16ZM296.01,17.62c-.02-.23-.07-.41-.15-.55-.14-.25-.38-.38-.72-.38-.24,0-.44.09-.6.26-.16.18-.25.4-.26.67h1.73Z" fill="#000" stroke-width="0"/><path d="M297.22,15.12h.53v1.61c.12-.16.24-.27.34-.33.17-.11.38-.17.64-.17.46,0,.76.16.93.48.09.17.13.42.13.72v2.01h-.54v-1.98c0-.23-.03-.4-.09-.51-.1-.17-.28-.26-.54-.26-.22,0-.42.08-.59.23s-.27.43-.27.85v1.66h-.53v-4.32Z" fill="#000" stroke-width="0"/><path d="M302.83,16.61c.28.27.42.67.42,1.19s-.12.92-.37,1.25c-.24.33-.62.5-1.14.5-.43,0-.77-.15-1.02-.44-.25-.29-.38-.68-.38-1.18,0-.53.13-.95.4-1.26.27-.31.62-.47,1.07-.47.4,0,.74.13,1.02.4ZM302.51,18.7c.13-.26.19-.56.19-.88,0-.29-.05-.53-.14-.71-.15-.29-.4-.43-.76-.43-.32,0-.55.12-.7.37-.15.25-.22.54-.22.89s.07.61.22.83c.14.22.37.33.69.33.35,0,.58-.13.71-.4Z" fill="#000" stroke-width="0"/><path d="M303.91,15.13h.53v4.3h-.53v-4.3Z" fill="#000" stroke-width="0"/><path d="M306.95,16.4c.09.06.2.16.32.31v-1.58h.51v4.32h-.47v-.44c-.12.19-.27.33-.43.42s-.36.13-.58.13c-.35,0-.65-.15-.9-.44-.25-.29-.38-.68-.38-1.17,0-.46.12-.85.35-1.19.23-.33.57-.5,1-.5.24,0,.44.05.6.15ZM305.78,18.75c.14.23.37.34.68.34.24,0,.44-.1.6-.32.16-.21.23-.51.23-.9s-.08-.69-.24-.88c-.16-.19-.36-.29-.6-.29-.26,0-.48.1-.64.3-.16.2-.25.5-.25.9,0,.34.07.62.21.84Z" fill="#000" stroke-width="0"/><path d="M310.5,16.39c.21.1.37.24.47.41.1.16.17.34.21.55.03.14.05.38.05.69h-2.28c0,.32.08.58.22.77.14.19.36.29.65.29.27,0,.49-.09.65-.27.09-.11.16-.23.19-.37h.52c-.01.12-.06.24-.14.38-.08.14-.16.26-.26.35-.16.16-.36.26-.59.32-.13.03-.27.05-.43.05-.39,0-.72-.14-.99-.43-.27-.29-.41-.68-.41-1.19s.14-.91.41-1.23c.27-.31.63-.47,1.07-.47.22,0,.44.05.64.16ZM310.69,17.62c-.02-.23-.07-.41-.15-.55-.14-.25-.38-.38-.72-.38-.24,0-.44.09-.6.26-.16.18-.25.4-.26.67h1.73Z" fill="#000" stroke-width="0"/><path d="M311.92,16.3h.5v.54c.04-.11.14-.23.3-.38s.34-.23.55-.23c0,0,.03,0,.05,0s.06,0,.12.01v.56s-.06,0-.09-.01-.06,0-.09,0c-.27,0-.47.09-.61.26s-.21.37-.21.59v1.8h-.53v-3.14Z" fill="#000" stroke-width="0"/></g></g><g id="dx"><path d="M265.03,28.25h12v-4.2h-12v4.2Z" fill="#80b1d3" stroke-width="0"/></g><g id="dy"><g isolation="isolate"><path d="M282.28,23.94h.58v3.79h2.16v.51h-2.74v-4.3Z" fill="#000" stroke-width="0"/><path d="M287.23,26.35c.12-.02.2-.07.24-.15.02-.05.04-.12.04-.2,0-.18-.06-.31-.19-.39s-.31-.12-.55-.12c-.28,0-.47.07-.58.22-.06.08-.11.21-.13.37h-.49c0-.39.14-.66.38-.81.24-.15.52-.23.84-.23.37,0,.67.07.9.21.23.14.34.36.34.66v1.81c0,.05.01.1.03.13s.07.05.14.05c.02,0,.05,0,.08,0,.03,0,.06,0,.09-.01v.39c-.08.02-.14.04-.19.04s-.1,0-.18,0c-.18,0-.31-.06-.4-.19-.04-.07-.07-.17-.09-.29-.11.14-.26.26-.46.37s-.42.16-.67.16c-.29,0-.53-.09-.71-.26s-.28-.4-.28-.66c0-.29.09-.52.27-.68s.42-.26.71-.3l.84-.1ZM286.12,27.77c.11.09.24.13.4.13.19,0,.37-.04.54-.13.29-.14.44-.38.44-.7v-.42c-.06.04-.15.08-.25.1-.1.03-.2.05-.3.06l-.32.04c-.19.03-.33.07-.43.12-.16.09-.25.24-.25.44,0,.15.06.27.17.36Z" fill="#000" stroke-width="0"/><path d="M288.99,24.23h.53v.88h.5v.43h-.5v2.05c0,.11.04.18.11.22.04.02.11.03.21.03.03,0,.05,0,.08,0s.06,0,.1,0v.42c-.06.02-.12.03-.19.04s-.14.01-.21.01c-.25,0-.41-.06-.5-.19-.09-.13-.13-.29-.13-.49v-2.08h-.42v-.43h.42v-.88Z" fill="#000" stroke-width="0"/><path d="M290.55,23.94h.54v.6h-.54v-.6ZM290.55,25.12h.54v3.12h-.54v-3.12Z" fill="#000" stroke-width="0"/><path d="M291.89,25.11h.5v.45c.15-.18.31-.32.47-.4s.35-.12.55-.12c.45,0,.75.16.9.47.09.17.13.41.13.73v2.01h-.54v-1.98c0-.19-.03-.35-.08-.46-.09-.2-.26-.29-.51-.29-.12,0-.23.01-.31.04-.14.04-.27.13-.38.26-.09.1-.14.21-.17.32-.03.11-.04.27-.04.47v1.64h-.53v-3.14Z" fill="#000" stroke-width="0"/><path d="M295.22,23.94h.54v.6h-.54v-.6ZM295.22,25.12h.54v3.12h-.54v-3.12Z" fill="#000" stroke-width="0"/><path d="M296.32,27.83l1.86-2.25h-1.73v-.47h2.43v.43l-1.85,2.24h1.91v.47h-2.63v-.42Z" fill="#000" stroke-width="0"/><path d="M301.5,25.19c.21.1.37.24.47.41.1.16.17.34.21.55.03.14.05.38.05.69h-2.28c0,.32.08.58.22.77.14.19.36.29.65.29.27,0,.49-.09.65-.27.09-.11.16-.23.19-.37h.52c-.01.12-.06.24-.14.38-.08.14-.16.26-.26.35-.16.16-.36.26-.59.32-.13.03-.27.05-.43.05-.39,0-.72-.14-.99-.43-.27-.29-.41-.68-.41-1.19s.14-.91.41-1.23c.27-.31.63-.47,1.07-.47.22,0,.44.05.64.16ZM301.68,26.43c-.02-.23-.07-.41-.15-.55-.14-.25-.38-.38-.72-.38-.24,0-.44.09-.6.26-.16.18-.25.4-.26.67h1.73Z" fill="#000" stroke-width="0"/><path d="M304.62,25.2c.09.06.2.16.32.31v-1.58h.51v4.32h-.47v-.44c-.12.19-.27.33-.43.42s-.36.13-.58.13c-.35,0-.65-.15-.9-.44-.25-.29-.38-.68-.38-1.17,0-.46.12-.85.35-1.19.23-.33.57-.5,1-.5.24,0,.44.05.6.15ZM303.44,27.56c.14.23.37.34.68.34.24,0,.44-.1.6-.32.16-.21.23-.51.23-.9s-.08-.69-.24-.88c-.16-.19-.36-.29-.6-.29-.26,0-.48.1-.64.3-.16.2-.25.5-.25.9,0,.34.07.62.21.84Z" fill="#000" stroke-width="0"/></g></g></g></g></g></svg>