<?xml version="1.0" encoding="UTF-8"?><svg id="a" xmlns="http://www.w3.org/2000/svg" viewBox="0 0 290.87 180.72"><g id="b"><g id="c"><path d="M0,180.72h290.87V0H0v180.72Z" fill="#fff" stroke-width="0"/></g><g id="d"><g id="e"><path d="M147.58,14.76c-11.49,0-22.84,2.63-33.16,7.68-10.32,5.05-19.34,12.4-26.37,21.47l35.72,27.54c2.81-3.63,6.42-6.57,10.55-8.59,4.13-2.02,8.66-3.07,13.26-3.07V14.76Z" fill="#fdae6b" stroke="#fff"/></g><g id="f"><path d="M88.06,43.91c-.37.48-.73.96-1.09,1.44-.36.48-.71.97-1.05,1.47l37,25.8c.14-.2.28-.39.42-.59.14-.19.29-.39.44-.58l-35.72-27.54Z" fill="#b3de69" stroke="#fff"/></g><g id="g"><path d="M85.91,46.81s0,0,0,.01h0s37.01,25.79,37.01,25.79c0,0,0,0,0,0,0,0,0,0,0,0l-37-25.8Z" fill="#80b1d3" stroke="#fff"/></g><g id="h"><path d="M85.9,46.84c-.48.68-.94,1.37-1.4,2.07-.45.7-.9,1.4-1.33,2.11l38.65,23.27c.17-.28.35-.57.53-.85s.37-.55.56-.83l-37.01-25.78Z" fill="#fdae6b" stroke="#fff"/></g><g id="i"><path d="M83.17,51.02c-.13.22-.27.44-.4.67-.13.22-.26.45-.39.67l39.12,22.47c.05-.09.1-.18.16-.27.05-.09.11-.18.16-.27l-38.65-23.27Z" fill="#b3de69" stroke="#fff"/></g><g id="j"><path d="M82.38,52.36l-.02.03s-.01.02-.02.03l39.14,22.44s0,0,0-.01c0,0,0,0,0-.01l-39.12-22.47Z" fill="#80b1d3" stroke="#fff"/></g><g id="k"><path d="M82.35,52.41c-4.45,7.73-7.49,16.19-8.97,24.98-1.48,8.79-1.38,17.77.3,26.53l44.34-8.47c-.67-3.5-.71-7.1-.12-10.61.59-3.52,1.81-6.9,3.59-9.99l-39.14-22.44Z" fill="#fdae6b" stroke="#fff"/></g><g id="l"><path d="M73.69,103.92c2.66,13.87,9.19,26.71,18.84,37.04,9.65,10.33,22.02,17.74,35.7,21.37,13.68,3.63,28.11,3.34,41.63-.84,13.52-4.18,25.59-12.08,34.81-22.8,9.22-10.71,15.22-23.81,17.32-37.77s.2-28.24-5.47-41.17c-5.67-12.94-14.89-24.02-26.58-31.97-11.7-7.95-25.41-12.44-39.56-12.97l-1.68,45c5.66.21,11.14,2.01,15.82,5.19s8.37,7.61,10.63,12.79c2.27,5.17,3.03,10.88,2.19,16.47-.84,5.59-3.24,10.82-6.93,15.11-3.69,4.29-8.51,7.45-13.92,9.12-5.41,1.67-11.18,1.79-16.65.34-5.47-1.45-10.42-4.42-14.28-8.55-3.86-4.13-6.47-9.27-7.54-14.82l-44.34,8.47Z" fill="#b3de69" stroke="#fff"/></g><g id="m"><path d="M150.38,14.81c-.47-.02-.93-.03-1.4-.04-.47,0-.93-.01-1.4-.01v45.03c.19,0,.37,0,.56,0,.19,0,.37,0,.56.02l1.68-45Z" fill="#80b1d3" stroke="#fff"/></g><g id="n"><path d="M147.58,14.76c-12.11,0-24.04,2.92-34.78,8.5-10.74,5.58-19.97,13.67-26.9,23.58l24.67,17.19c4.16-5.94,9.7-10.8,16.14-14.15,6.44-3.35,13.6-5.1,20.87-5.1V14.76Z" fill="#fb8072" stroke="#fff"/></g><g id="o"><path d="M85.9,46.84c-.63.9-1.24,1.82-1.84,2.75-.59.93-1.16,1.87-1.71,2.83l26.09,14.96c.33-.57.67-1.14,1.03-1.7.35-.56.72-1.11,1.1-1.65l-24.67-17.19Z" fill="#bebada" stroke="#fff"/></g><g id="p"><path d="M82.35,52.41c-4.1,7.11-7,14.84-8.59,22.89-1.59,8.05-1.85,16.3-.76,24.43,1.09,8.13,3.5,16.03,7.15,23.38,3.65,7.35,8.48,14.05,14.3,19.84,5.82,5.79,12.56,10.59,19.94,14.21,7.38,3.62,15.3,6,23.46,7.06,8.15,1.06,16.43.78,24.49-.83s15.81-4.53,22.92-8.63c7.12-4.11,13.51-9.35,18.93-15.52,5.42-6.17,9.78-13.19,12.92-20.77,3.14-7.58,5.02-15.62,5.55-23.81s-.28-16.4-2.42-24.32c-2.13-7.92-5.55-15.44-10.12-22.26-4.57-6.82-10.23-12.84-16.76-17.83-6.52-4.99-13.83-8.88-21.61-11.52-7.79-2.64-15.95-3.98-24.18-3.98v30.02c4.93,0,9.83.81,14.51,2.39s9.05,3.92,12.97,6.91c3.91,2.99,7.31,6.61,10.05,10.7,2.74,4.09,4.79,8.6,6.07,13.35,1.28,4.75,1.77,9.68,1.45,14.59-.32,4.91-1.44,9.74-3.33,14.28-1.88,4.55-4.5,8.76-7.75,12.46-3.25,3.7-7.09,6.85-11.36,9.31-4.27,2.46-8.92,4.21-13.75,5.18-4.84.97-9.8,1.13-14.69.5-4.89-.64-9.65-2.07-14.07-4.24s-8.47-5.05-11.96-8.52c-3.49-3.47-6.39-7.5-8.58-11.91-2.19-4.41-3.64-9.15-4.29-14.03-.65-4.88-.5-9.83.45-14.66.95-4.83,2.69-9.47,5.15-13.73l-26.09-14.96Z" fill="#8dd3c7" stroke="#fff"/></g><g id="q"><g isolation="isolate"><path d="M75.27,9.6v.6h-1.69v4.42h-.69v-4.42h-1.69v-.6h4.07Z" fill="#000" stroke-width="0"/><path d="M77.71,10.96h.68c-.09.23-.28.77-.58,1.61-.22.63-.41,1.14-.56,1.54-.35.93-.61,1.5-.75,1.71s-.4.31-.75.31c-.09,0-.15,0-.2,0-.05,0-.1-.02-.17-.04v-.56c.11.03.18.05.23.05.05,0,.09,0,.13,0,.11,0,.2-.02.25-.06.05-.04.1-.08.13-.14.01-.02.05-.11.12-.28.07-.17.12-.29.15-.38l-1.35-3.77h.7l.98,2.98.99-2.98Z" fill="#000" stroke-width="0"/><path d="M78.87,10.98h.6v.49c.12-.17.26-.29.4-.39.21-.14.45-.21.73-.21.42,0,.77.16,1.06.48.29.32.44.77.44,1.36,0,.8-.21,1.37-.63,1.71-.27.22-.57.32-.93.32-.28,0-.51-.06-.7-.18-.11-.07-.23-.19-.37-.35v1.87h-.62v-5.1ZM81.19,13.84c.19-.24.29-.6.29-1.08,0-.29-.04-.54-.13-.75-.16-.4-.45-.6-.88-.6s-.72.21-.88.64c-.08.23-.13.52-.13.87,0,.28.04.52.13.72.16.38.45.57.88.57.29,0,.53-.12.72-.36Z" fill="#000" stroke-width="0"/><path d="M85.08,11.06c.24.12.43.28.55.47.12.18.2.4.24.65.04.17.05.44.05.81h-2.66c.01.37.1.67.26.9.16.22.41.34.76.34.32,0,.57-.11.76-.32.11-.12.18-.27.23-.43h.6c-.02.13-.07.28-.16.45-.09.17-.19.3-.3.41-.19.18-.42.31-.69.37-.15.04-.31.05-.5.05-.45,0-.84-.17-1.15-.5-.31-.33-.47-.8-.47-1.39s.16-1.07.48-1.43.73-.55,1.24-.55c.26,0,.51.06.75.18ZM85.3,12.5c-.02-.27-.08-.48-.17-.64-.17-.3-.45-.44-.84-.44-.28,0-.52.1-.71.31-.19.2-.29.46-.3.78h2.02Z" fill="#000" stroke-width="0"/><path d="M89.02,13.47c.02.21.07.36.16.47.16.2.43.3.82.3.23,0,.44-.05.61-.15.18-.1.27-.25.27-.46,0-.16-.07-.28-.21-.36-.09-.05-.27-.11-.53-.17l-.5-.12c-.32-.08-.55-.16-.7-.26-.27-.17-.4-.4-.4-.69,0-.35.13-.63.38-.84.25-.21.59-.32,1.02-.32.56,0,.96.16,1.21.48.15.21.23.43.23.66h-.58c-.01-.14-.06-.26-.15-.38-.14-.16-.4-.24-.75-.24-.24,0-.42.04-.54.13s-.18.21-.18.35c0,.16.08.29.24.38.09.06.23.11.41.15l.41.1c.45.11.75.21.91.31.24.16.36.4.36.74s-.12.61-.38.84c-.25.24-.63.36-1.14.36-.55,0-.94-.12-1.17-.37s-.35-.55-.37-.92h.59Z" fill="#000" stroke-width="0"/><path d="M92.28,9.94h.62v1.02h.58v.5h-.58v2.39c0,.13.04.21.13.26.05.03.13.04.24.04.03,0,.06,0,.1,0,.03,0,.07,0,.12-.01v.49c-.07.02-.14.04-.22.04-.08,0-.16.01-.25.01-.29,0-.48-.07-.58-.22-.1-.15-.15-.34-.15-.57v-2.42h-.5v-.5h.5v-1.02Z" fill="#000" stroke-width="0"/><path d="M94.12,10.96h.58v.63c.05-.12.17-.27.35-.45s.4-.26.65-.26c.01,0,.03,0,.06,0s.07,0,.14.01v.65s-.07-.01-.1-.01c-.03,0-.06,0-.1,0-.31,0-.55.1-.71.3s-.25.43-.25.69v2.11h-.62v-3.66Z" fill="#000" stroke-width="0"/><path d="M98.39,12.4c.14-.02.24-.08.28-.18.03-.05.04-.13.04-.24,0-.21-.07-.36-.22-.46-.15-.09-.36-.14-.64-.14-.32,0-.55.09-.68.26-.07.1-.12.24-.15.43h-.57c.01-.45.16-.77.44-.94.28-.18.61-.27.98-.27.43,0,.78.08,1.05.25.27.16.4.42.4.77v2.11c0,.06.01.12.04.15.03.04.08.06.17.06.03,0,.06,0,.09,0,.03,0,.07,0,.11-.02v.46c-.1.03-.17.04-.22.05s-.12,0-.21,0c-.21,0-.37-.07-.46-.22-.05-.08-.09-.19-.11-.34-.13.16-.31.31-.54.43-.23.12-.49.18-.78.18-.34,0-.62-.1-.83-.31-.22-.21-.32-.46-.32-.77,0-.34.11-.6.32-.79s.49-.3.83-.34l.98-.12ZM97.1,14.07c.13.1.28.15.46.15.22,0,.43-.05.63-.15.34-.17.51-.44.51-.82v-.5c-.08.05-.17.09-.29.12s-.23.05-.35.07l-.37.05c-.22.03-.39.08-.5.14-.19.11-.29.28-.29.51,0,.18.06.32.19.42Z" fill="#000" stroke-width="0"/><path d="M100.33,9.6h.63v.7h-.63v-.7ZM100.33,10.98h.63v3.64h-.63v-3.64Z" fill="#000" stroke-width="0"/><path d="M101.88,10.96h.58v.52c.17-.21.36-.37.55-.46s.41-.14.65-.14c.52,0,.87.18,1.05.54.1.2.15.48.15.85v2.35h-.63v-2.31c0-.22-.03-.4-.1-.54-.11-.23-.31-.34-.59-.34-.15,0-.27.02-.36.04-.17.05-.32.15-.44.3-.1.12-.17.25-.2.37-.03.13-.05.31-.05.55v1.92h-.62v-3.66Z" fill="#000" stroke-width="0"/></g><g isolation="isolate"><path d="M81.44,17.35c-.36.7-.59,1.21-.7,1.54-.16.5-.24,1.08-.24,1.73s.09,1.26.28,1.81c.11.34.34.82.67,1.46h-.41c-.33-.52-.54-.85-.62-1-.08-.14-.17-.34-.26-.58-.13-.34-.22-.7-.27-1.08-.02-.2-.04-.39-.04-.57,0-.67.11-1.27.32-1.8.13-.33.41-.84.84-1.5h.43Z" fill="#000" stroke-width="0"/><path d="M82.37,18.99v-.47c.44-.04.75-.12.93-.22s.31-.34.39-.72h.49v4.87h-.66v-3.47h-1.15Z" fill="#000" stroke-width="0"/><path d="M89.25,17.64v.54c-.16.15-.37.42-.63.8-.26.38-.49.79-.69,1.22-.2.43-.35.81-.45,1.17-.07.22-.15.59-.26,1.09h-.68c.15-.93.5-1.86,1.03-2.79.31-.54.64-1.01.98-1.4h-2.71v-.62h3.4Z" fill="#000" stroke-width="0"/><path d="M90.06,23.17c.16-.03.27-.14.33-.33.03-.1.05-.2.05-.3,0-.02,0-.03,0-.04,0-.01,0-.03,0-.04h-.37v-.75h.73v.69c0,.27-.05.51-.16.71s-.3.33-.57.38v-.32Z" fill="#000" stroke-width="0"/><path d="M91.99,22.11c-.26-.32-.39-.7-.39-1.16h.64c.03.32.09.55.18.69.16.26.45.39.86.39.32,0,.58-.09.78-.26.2-.17.29-.4.29-.67,0-.34-.1-.57-.31-.71-.21-.13-.49-.2-.86-.2-.04,0-.08,0-.12,0-.04,0-.08,0-.13,0v-.54c.06,0,.12.01.16.01s.09,0,.14,0c.23,0,.42-.04.57-.11.26-.13.39-.36.39-.68,0-.24-.09-.43-.26-.56s-.38-.2-.6-.2c-.41,0-.69.14-.85.41-.09.15-.14.36-.15.64h-.61c0-.36.07-.67.22-.93.25-.46.69-.68,1.32-.68.5,0,.89.11,1.16.33.27.22.41.54.41.97,0,.3-.08.54-.24.73-.1.12-.23.21-.39.27.26.07.46.21.6.41.14.2.22.45.22.74,0,.47-.15.85-.46,1.14s-.74.44-1.31.44-1-.16-1.26-.48Z" fill="#000" stroke-width="0"/><path d="M98.59,18.35c.22.4.33.96.33,1.66,0,.67-.1,1.22-.3,1.65-.29.62-.76.94-1.41.94-.59,0-1.03-.25-1.31-.77-.24-.43-.36-1-.36-1.71,0-.56.07-1.03.22-1.43.27-.74.76-1.11,1.46-1.11.63,0,1.09.26,1.37.78ZM97.97,21.61c.19-.28.28-.81.28-1.58,0-.56-.07-1.01-.21-1.37-.14-.36-.4-.54-.8-.54-.36,0-.63.17-.8.51-.17.34-.25.84-.25,1.51,0,.5.05.9.16,1.2.16.46.44.69.84.69.32,0,.57-.14.76-.42Z" fill="#000" stroke-width="0"/><path d="M99.69,21.36c.15-.31.45-.6.89-.85l.66-.38c.29-.17.5-.32.62-.44.19-.19.28-.41.28-.65,0-.29-.09-.51-.26-.68s-.4-.25-.68-.25c-.42,0-.71.16-.88.48-.09.17-.13.41-.14.71h-.63c0-.43.09-.77.24-1.04.27-.47.74-.71,1.41-.71.56,0,.97.15,1.23.46.26.3.39.64.39,1.01,0,.39-.14.73-.41,1-.16.16-.45.36-.86.59l-.47.26c-.22.12-.4.24-.53.35-.23.2-.37.42-.43.66h2.67v.58h-3.36c.02-.42.11-.79.26-1.1Z" fill="#000" stroke-width="0"/><path d="M103.35,23.89c.36-.71.6-1.22.7-1.54.16-.49.24-1.06.24-1.72s-.09-1.26-.28-1.81c-.11-.34-.34-.82-.67-1.46h.41c.35.56.56.91.64,1.04.07.13.15.31.24.54.11.28.19.57.23.84.05.28.07.55.07.8,0,.67-.11,1.28-.32,1.8-.13.34-.41.84-.84,1.5h-.43Z" fill="#000" stroke-width="0"/></g></g><g id="r"><g isolation="isolate"><path d="M110.5,35.04v-.47c.44-.04.75-.12.93-.22s.31-.34.39-.72h.49v4.87h-.66v-3.47h-1.15Z" fill="#000" stroke-width="0"/><path d="M114.59,37.25c.04.35.2.59.49.73.15.07.31.1.51.1.36,0,.63-.12.81-.35s.26-.49.26-.77c0-.34-.1-.61-.31-.79-.21-.19-.46-.28-.75-.28-.21,0-.39.04-.55.12-.15.08-.28.2-.39.34l-.53-.03.37-2.63h2.54v.59h-2.08l-.21,1.36c.11-.09.22-.15.32-.2.18-.07.39-.11.63-.11.45,0,.83.14,1.14.43.31.29.47.66.47,1.1s-.14.87-.43,1.22c-.29.35-.74.53-1.37.53-.4,0-.75-.11-1.06-.34-.31-.22-.48-.57-.51-1.03h.64Z" fill="#000" stroke-width="0"/><path d="M118.22,37.76h.71v.75h-.71v-.75Z" fill="#000" stroke-width="0"/><path d="M120.12,38.16c-.26-.32-.39-.7-.39-1.16h.64c.03.32.09.55.18.69.16.26.45.39.86.39.32,0,.58-.09.78-.26.2-.17.29-.4.29-.67,0-.34-.1-.57-.31-.71-.21-.13-.49-.2-.86-.2-.04,0-.08,0-.12,0-.04,0-.08,0-.13,0v-.54c.06,0,.12.01.16.01s.09,0,.14,0c.23,0,.42-.04.57-.11.26-.13.39-.36.39-.68,0-.24-.09-.43-.26-.56s-.38-.2-.6-.2c-.41,0-.69.14-.85.41-.09.15-.14.36-.15.64h-.61c0-.36.07-.67.22-.93.25-.46.69-.68,1.32-.68.5,0,.89.11,1.16.33.27.22.41.54.41.97,0,.3-.08.54-.24.73-.1.12-.23.21-.39.27.26.07.46.21.6.41.14.2.22.45.22.74,0,.47-.15.85-.46,1.14s-.74.44-1.31.44-1-.16-1.26-.48Z" fill="#000" stroke-width="0"/><path d="M125.72,34.1c.23.23.35.51.35.84s-.12.61-.35.84-.51.35-.84.35-.61-.12-.84-.35-.35-.51-.35-.84.12-.61.35-.84.51-.35.84-.35.61.12.84.35ZM125.37,35.44c.14-.14.21-.3.21-.5s-.07-.36-.21-.5c-.14-.14-.31-.21-.5-.21s-.36.07-.5.21c-.14.14-.21.3-.21.5s.07.36.21.5c.14.14.3.21.5.21s.36-.07.5-.21ZM127.73,33.63h.38l-2.74,5h-.38l2.74-5ZM129.07,36.47c.23.23.35.51.35.84s-.12.61-.35.84c-.23.23-.51.35-.84.35s-.61-.12-.84-.35c-.23-.23-.35-.51-.35-.84s.12-.61.35-.84.51-.35.84-.35.61.12.84.35ZM128.72,37.81c.14-.14.21-.3.21-.5s-.07-.36-.21-.5c-.14-.14-.3-.21-.5-.21s-.36.07-.5.21c-.14.14-.21.3-.21.5s.07.36.21.5c.14.14.31.21.5.21s.36-.07.5-.21Z" fill="#000" stroke-width="0"/></g></g><g id="s"><g isolation="isolate"><path d="M7.73,38.55h.68v4.42h2.52v.6h-3.2v-5.02Z" fill="#000" stroke-width="0"/><path d="M13.51,41.36c.14-.02.24-.08.28-.18.03-.05.04-.13.04-.24,0-.21-.07-.36-.22-.46-.15-.09-.36-.14-.64-.14-.32,0-.55.09-.68.26-.07.1-.12.24-.15.43h-.57c.01-.45.16-.77.44-.94.28-.18.61-.27.98-.27.43,0,.78.08,1.05.25.27.16.4.42.4.77v2.11c0,.06.01.12.04.15.03.04.08.06.17.06.03,0,.06,0,.09,0,.03,0,.07,0,.11-.02v.46c-.1.03-.17.04-.22.05s-.12,0-.21,0c-.21,0-.37-.07-.46-.22-.05-.08-.09-.19-.11-.34-.13.16-.31.31-.54.43-.23.12-.49.18-.78.18-.34,0-.62-.1-.83-.31-.22-.21-.32-.46-.32-.77,0-.34.11-.6.32-.79s.49-.3.83-.34l.98-.12ZM12.21,43.02c.13.1.28.15.46.15.22,0,.43-.05.63-.15.34-.17.51-.44.51-.82v-.5c-.08.05-.17.09-.29.12s-.23.05-.35.07l-.37.05c-.22.03-.39.08-.5.14-.19.11-.29.28-.29.51,0,.18.06.32.19.42Z" fill="#000" stroke-width="0"/><path d="M15.56,38.89h.62v1.02h.58v.5h-.58v2.39c0,.13.04.21.13.26.05.03.13.04.24.04.03,0,.06,0,.1,0,.03,0,.07,0,.12-.01v.49c-.07.02-.14.04-.22.04-.08,0-.16.01-.25.01-.29,0-.48-.07-.58-.22-.1-.15-.15-.34-.15-.57v-2.42h-.5v-.5h.5v-1.02Z" fill="#000" stroke-width="0"/><path d="M17.38,38.55h.63v.7h-.63v-.7ZM17.38,39.93h.63v3.64h-.63v-3.64Z" fill="#000" stroke-width="0"/><path d="M18.94,39.92h.58v.52c.17-.21.36-.37.55-.46s.41-.14.65-.14c.52,0,.87.18,1.05.54.1.2.15.48.15.85v2.35h-.63v-2.31c0-.22-.03-.4-.1-.54-.11-.23-.31-.34-.59-.34-.15,0-.27.02-.36.04-.17.05-.32.15-.44.3-.1.12-.17.25-.2.37-.03.13-.05.31-.05.55v1.92h-.62v-3.66Z" fill="#000" stroke-width="0"/><path d="M22.96,44.29c.16-.03.27-.14.33-.33.03-.1.05-.2.05-.3,0-.02,0-.03,0-.04,0-.01,0-.03,0-.04h-.37v-.75h.73v.69c0,.27-.05.51-.16.71s-.3.33-.57.38v-.32Z" fill="#000" stroke-width="0"/><path d="M26.72,39.92h.58v.52c.17-.21.36-.37.55-.46s.41-.14.65-.14c.52,0,.87.18,1.05.54.1.2.15.48.15.85v2.35h-.63v-2.31c0-.22-.03-.4-.1-.54-.11-.23-.31-.34-.59-.34-.15,0-.27.02-.36.04-.17.05-.32.15-.44.3-.1.12-.17.25-.2.37-.03.13-.05.31-.05.55v1.92h-.62v-3.66Z" fill="#000" stroke-width="0"/><path d="M33.27,40.28c.32.31.49.78.49,1.39s-.14,1.08-.43,1.46-.73.58-1.33.58c-.5,0-.9-.17-1.19-.51-.29-.34-.44-.8-.44-1.37,0-.61.15-1.1.46-1.47s.73-.55,1.25-.55c.47,0,.86.16,1.19.47ZM32.88,42.71c.15-.31.22-.65.22-1.03,0-.34-.05-.62-.16-.83-.17-.34-.47-.51-.89-.51-.37,0-.64.14-.81.43s-.25.63-.25,1.04.08.71.25.97.44.39.8.39c.4,0,.68-.15.83-.46Z" fill="#000" stroke-width="0"/><path d="M36.57,38.89h.62v1.02h.58v.5h-.58v2.39c0,.13.04.21.13.26.05.03.13.04.24.04.03,0,.06,0,.1,0,.03,0,.07,0,.12-.01v.49c-.07.02-.14.04-.22.04-.08,0-.16.01-.25.01-.29,0-.48-.07-.58-.22-.1-.15-.15-.34-.15-.57v-2.42h-.5v-.5h.5v-1.02Z" fill="#000" stroke-width="0"/><path d="M40.68,39.92h.68c-.09.23-.28.77-.58,1.61-.22.63-.41,1.14-.56,1.54-.35.93-.61,1.5-.75,1.71s-.4.31-.75.31c-.09,0-.15,0-.2,0-.05,0-.1-.02-.17-.04v-.56c.11.03.18.05.23.05.05,0,.09,0,.13,0,.11,0,.2-.02.25-.06.05-.04.1-.08.13-.14.01-.02.05-.11.12-.28.07-.17.12-.29.15-.38l-1.35-3.77h.7l.98,2.98.99-2.98Z" fill="#000" stroke-width="0"/><path d="M41.84,39.93h.6v.49c.12-.17.26-.29.4-.39.21-.14.45-.21.73-.21.42,0,.77.16,1.06.48.29.32.44.77.44,1.36,0,.8-.21,1.37-.63,1.71-.27.22-.57.32-.93.32-.28,0-.51-.06-.7-.18-.11-.07-.23-.19-.37-.35v1.87h-.62v-5.1ZM44.16,42.8c.19-.24.29-.6.29-1.08,0-.29-.04-.54-.13-.75-.16-.4-.45-.6-.88-.6s-.72.21-.88.64c-.08.23-.13.52-.13.87,0,.28.04.52.13.72.16.38.45.57.88.57.29,0,.53-.12.72-.36Z" fill="#000" stroke-width="0"/><path d="M48.05,40.02c.24.12.43.28.55.47.12.18.2.4.24.65.04.17.05.44.05.81h-2.66c.01.37.1.67.26.9.16.22.41.34.76.34.32,0,.57-.11.76-.32.11-.12.18-.27.23-.43h.6c-.02.13-.07.28-.16.45-.09.17-.19.3-.3.41-.19.18-.42.31-.69.37-.15.04-.31.05-.5.05-.45,0-.84-.17-1.15-.5-.31-.33-.47-.8-.47-1.39s.16-1.07.48-1.43.73-.55,1.24-.55c.26,0,.51.06.75.18ZM48.27,41.45c-.02-.27-.08-.48-.17-.64-.17-.3-.45-.44-.84-.44-.28,0-.52.1-.71.31-.19.2-.29.46-.3.78h2.02Z" fill="#000" stroke-width="0"/><path d="M51.99,42.43c.02.21.07.36.16.47.16.2.43.3.82.3.23,0,.44-.05.61-.15.18-.1.27-.25.27-.46,0-.16-.07-.28-.21-.36-.09-.05-.27-.11-.53-.17l-.5-.12c-.32-.08-.55-.16-.7-.26-.27-.17-.4-.4-.4-.69,0-.35.13-.63.38-.84.25-.21.59-.32,1.02-.32.56,0,.96.16,1.21.48.15.21.23.43.23.66h-.58c-.01-.14-.06-.26-.15-.38-.14-.16-.4-.24-.75-.24-.24,0-.42.04-.54.13s-.18.21-.18.35c0,.16.08.29.24.38.09.06.23.11.41.15l.41.1c.45.11.75.21.91.31.24.16.36.4.36.74s-.12.61-.38.84c-.25.24-.63.36-1.14.36-.55,0-.94-.12-1.17-.37s-.35-.55-.37-.92h.59Z" fill="#000" stroke-width="0"/><path d="M55.25,38.89h.62v1.02h.58v.5h-.58v2.39c0,.13.04.21.13.26.05.03.13.04.24.04.03,0,.06,0,.1,0,.03,0,.07,0,.12-.01v.49c-.07.02-.14.04-.22.04-.08,0-.16.01-.25.01-.29,0-.48-.07-.58-.22-.1-.15-.15-.34-.15-.57v-2.42h-.5v-.5h.5v-1.02Z" fill="#000" stroke-width="0"/><path d="M57.09,39.92h.58v.63c.05-.12.17-.27.35-.45s.4-.26.65-.26c.01,0,.03,0,.06,0s.07,0,.14.01v.65s-.07-.01-.1-.01c-.03,0-.06,0-.1,0-.31,0-.55.1-.71.3s-.25.43-.25.69v2.11h-.62v-3.66Z" fill="#000" stroke-width="0"/><path d="M61.36,41.36c.14-.02.24-.08.28-.18.03-.05.04-.13.04-.24,0-.21-.07-.36-.22-.46-.15-.09-.36-.14-.64-.14-.32,0-.55.09-.68.26-.07.1-.12.24-.15.43h-.57c.01-.45.16-.77.44-.94.28-.18.61-.27.98-.27.43,0,.78.08,1.05.25.27.16.4.42.4.77v2.11c0,.06.01.12.04.15.03.04.08.06.17.06.03,0,.06,0,.09,0,.03,0,.07,0,.11-.02v.46c-.1.03-.17.04-.22.05s-.12,0-.21,0c-.21,0-.37-.07-.46-.22-.05-.08-.09-.19-.11-.34-.13.16-.31.31-.54.43-.23.12-.49.18-.78.18-.34,0-.62-.1-.83-.31-.22-.21-.32-.46-.32-.77,0-.34.11-.6.32-.79s.49-.3.83-.34l.98-.12ZM60.07,43.02c.13.1.28.15.46.15.22,0,.43-.05.63-.15.34-.17.51-.44.51-.82v-.5c-.08.05-.17.09-.29.12s-.23.05-.35.07l-.37.05c-.22.03-.39.08-.5.14-.19.11-.29.28-.29.51,0,.18.06.32.19.42Z" fill="#000" stroke-width="0"/><path d="M63.3,38.55h.63v.7h-.63v-.7ZM63.3,39.93h.63v3.64h-.63v-3.64Z" fill="#000" stroke-width="0"/><path d="M64.85,39.92h.58v.52c.17-.21.36-.37.55-.46s.41-.14.65-.14c.52,0,.87.18,1.05.54.1.2.15.48.15.85v2.35h-.63v-2.31c0-.22-.03-.4-.1-.54-.11-.23-.31-.34-.59-.34-.15,0-.27.02-.36.04-.17.05-.32.15-.44.3-.1.12-.17.25-.2.37-.03.13-.05.31-.05.55v1.92h-.62v-3.66Z" fill="#000" stroke-width="0"/></g><g isolation="isolate"><path d="M54.28,46.31c-.36.7-.59,1.21-.7,1.54-.16.5-.24,1.08-.24,1.73s.09,1.26.28,1.81c.11.34.34.82.67,1.46h-.41c-.33-.52-.54-.85-.62-1-.08-.14-.17-.34-.26-.58-.13-.34-.22-.7-.27-1.08-.02-.2-.04-.39-.04-.57,0-.67.11-1.27.32-1.8.13-.33.41-.84.84-1.5h.43Z" fill="#000" stroke-width="0"/><path d="M55.21,47.95v-.47c.44-.04.75-.12.93-.22s.31-.34.39-.72h.49v4.87h-.66v-3.47h-1.15Z" fill="#000" stroke-width="0"/><path d="M59.01,52.13c.16-.03.27-.14.33-.33.03-.1.05-.2.05-.3,0-.02,0-.03,0-.04,0-.01,0-.03,0-.04h-.37v-.75h.73v.69c0,.27-.05.51-.16.71s-.3.33-.57.38v-.32Z" fill="#000" stroke-width="0"/><path d="M61.24,50.17c.04.35.2.59.49.73.15.07.31.1.51.1.36,0,.63-.12.81-.35s.26-.49.26-.77c0-.34-.1-.61-.31-.79-.21-.19-.46-.28-.75-.28-.21,0-.39.04-.55.12-.15.08-.28.2-.39.34l-.53-.03.37-2.63h2.54v.59h-2.08l-.21,1.36c.11-.09.22-.15.32-.2.18-.07.39-.11.63-.11.45,0,.83.14,1.14.43.31.29.47.66.47,1.1s-.14.87-.43,1.22c-.29.35-.74.53-1.37.53-.4,0-.75-.11-1.06-.34-.31-.22-.48-.57-.51-1.03h.64Z" fill="#000" stroke-width="0"/><path d="M64.94,48.55c-.18-.18-.27-.42-.27-.71,0-.36.13-.68.4-.94.26-.26.64-.39,1.12-.39s.84.12,1.1.37.4.54.4.87c0,.31-.08.55-.23.74-.09.11-.22.21-.4.31.2.09.36.2.48.32.22.23.33.52.33.89,0,.43-.14.79-.43,1.09s-.7.45-1.23.45c-.48,0-.88-.13-1.21-.39-.33-.26-.49-.63-.49-1.13,0-.29.07-.54.21-.75s.35-.37.63-.48c-.17-.07-.3-.16-.4-.26ZM66.92,50.76c.19-.15.28-.38.28-.69s-.1-.56-.29-.72-.44-.25-.75-.25-.53.08-.72.25c-.19.17-.28.4-.28.7,0,.25.08.48.25.66.17.19.43.28.79.28.28,0,.52-.08.71-.23ZM66.81,48.34c.15-.15.23-.33.23-.54,0-.18-.07-.35-.22-.5s-.37-.23-.67-.23-.51.08-.64.23-.2.33-.2.54c0,.23.09.41.26.54s.37.2.6.2c.27,0,.48-.08.63-.23Z" fill="#000" stroke-width="0"/><path d="M70.49,51.41v-1.2h-2.15v-.6l2.24-3.11h.52v3.18h.72v.54h-.72v1.2h-.62ZM70.48,49.68v-2.22l-1.57,2.22h1.57Z" fill="#000" stroke-width="0"/><path d="M72.3,52.84c.36-.71.6-1.22.7-1.54.16-.49.24-1.06.24-1.72s-.09-1.26-.28-1.81c-.11-.34-.34-.82-.67-1.46h.41c.35.56.56.91.64,1.04.07.13.15.31.24.54.11.28.19.57.23.84.05.28.07.55.07.8,0,.67-.11,1.28-.32,1.8-.13.34-.41.84-.84,1.5h-.43Z" fill="#000" stroke-width="0"/></g></g><g id="t"><g isolation="isolate"><path d="M89.46,56.1v-.47c.44-.04.75-.12.93-.22s.31-.34.39-.72h.49v4.87h-.66v-3.47h-1.15Z" fill="#000" stroke-width="0"/><path d="M93.28,58.82h.71v.75h-.71v-.75Z" fill="#000" stroke-width="0"/><path d="M96.95,59.56v-1.2h-2.15v-.6l2.24-3.11h.52v3.18h.72v.54h-.72v1.2h-.62ZM96.94,57.83v-2.22l-1.57,2.22h1.57Z" fill="#000" stroke-width="0"/><path d="M100.78,55.16c.23.23.35.51.35.84s-.12.61-.35.84-.51.35-.84.35-.61-.12-.84-.35-.35-.51-.35-.84.12-.61.35-.84.51-.35.84-.35.61.12.84.35ZM100.44,56.5c.14-.14.21-.3.21-.5s-.07-.36-.21-.5c-.14-.14-.31-.21-.5-.21s-.36.07-.5.21c-.14.14-.21.3-.21.5s.07.36.21.5c.14.14.3.21.5.21s.36-.07.5-.21ZM102.8,54.69h.38l-2.74,5h-.38l2.74-5ZM104.13,57.53c.23.23.35.51.35.84s-.12.61-.35.84c-.23.23-.51.35-.84.35s-.61-.12-.84-.35c-.23-.23-.35-.51-.35-.84s.12-.61.35-.84.51-.35.84-.35.61.12.84.35ZM103.79,58.87c.14-.14.21-.3.21-.5s-.07-.36-.21-.5c-.14-.14-.3-.21-.5-.21s-.36.07-.5.21c-.14.14-.21.3-.21.5s.07.36.21.5c.14.14.31.21.5.21s.36-.07.5-.21Z" fill="#000" stroke-width="0"/></g></g><g id="u"><g isolation="isolate"><path d="M189.63,154.25h2.25c.44,0,.8.13,1.08.38.27.25.41.61.41,1.06,0,.39-.12.73-.37,1.02-.24.29-.62.44-1.12.44h-1.57v2.12h-.68v-5.02ZM192.27,154.94c-.15-.07-.35-.11-.61-.11h-1.34v1.74h1.34c.3,0,.55-.06.74-.19.19-.13.28-.36.28-.69,0-.37-.14-.62-.41-.75Z" fill="#000" stroke-width="0"/><path d="M194.17,154.25h.62v5.02h-.62v-5.02Z" fill="#000" stroke-width="0"/><path d="M197.67,157.05c.14-.02.24-.08.28-.18.03-.05.04-.13.04-.24,0-.21-.08-.36-.22-.46-.15-.09-.36-.14-.64-.14-.32,0-.55.09-.68.26-.07.1-.12.24-.15.43h-.57c.01-.45.16-.77.44-.94.28-.18.61-.27.98-.27.43,0,.78.08,1.05.25.27.16.4.42.4.77v2.11c0,.06.01.12.04.15.03.04.08.06.17.06.03,0,.06,0,.09,0,.03,0,.07,0,.11-.02v.46c-.1.03-.17.04-.22.05-.05,0-.12,0-.21,0-.21,0-.37-.07-.46-.22-.05-.08-.08-.19-.11-.34-.13.16-.31.31-.54.43-.24.12-.49.18-.78.18-.34,0-.62-.1-.83-.31-.22-.21-.32-.46-.32-.77,0-.34.11-.6.32-.79s.49-.3.83-.34l.98-.12ZM196.37,158.72c.13.1.28.15.46.15.22,0,.43-.05.63-.15.34-.17.51-.44.51-.82v-.5c-.08.05-.17.09-.29.12s-.23.05-.35.07l-.37.05c-.22.03-.39.08-.5.14-.19.11-.29.28-.29.51,0,.18.07.32.2.42Z" fill="#000" stroke-width="0"/><path d="M202.02,155.8c.26.2.41.55.47,1.04h-.6c-.04-.23-.12-.41-.25-.56s-.34-.22-.63-.22c-.39,0-.67.19-.84.57-.11.25-.16.55-.16.92s.08.67.23.92c.16.25.4.38.73.38.26,0,.46-.08.61-.23.15-.16.25-.37.31-.64h.6c-.07.48-.24.84-.51,1.06s-.62.34-1.05.34c-.48,0-.86-.17-1.14-.52-.29-.35-.43-.79-.43-1.31,0-.64.16-1.14.47-1.5.31-.36.71-.54,1.19-.54.41,0,.75.1,1.01.3Z" fill="#000" stroke-width="0"/><path d="M205.36,155.71c.24.12.43.28.55.47.12.18.2.4.25.65.04.17.05.44.05.81h-2.66c.01.37.1.67.26.9.16.22.42.34.76.34.32,0,.57-.11.76-.32.11-.12.18-.27.23-.43h.61c-.02.13-.07.28-.16.45s-.19.3-.3.41c-.19.18-.42.31-.69.37-.15.04-.31.05-.5.05-.45,0-.84-.17-1.15-.5-.32-.33-.47-.8-.47-1.39s.16-1.07.48-1.43c.32-.37.73-.55,1.24-.55.26,0,.51.06.75.18ZM205.58,157.15c-.03-.27-.08-.48-.17-.64-.17-.3-.45-.44-.84-.44-.28,0-.52.1-.71.31-.19.2-.29.46-.3.78h2.02Z" fill="#000" stroke-width="0"/><path d="M206.99,154.23h.62v1.87c.15-.18.28-.31.39-.39.2-.13.45-.2.74-.2.53,0,.89.19,1.08.56.1.2.15.48.15.84v2.35h-.63v-2.31c0-.27-.03-.47-.1-.59-.11-.2-.32-.3-.63-.3-.25,0-.49.09-.69.26-.21.17-.31.51-.31.99v1.94h-.62v-5.04Z" fill="#000" stroke-width="0"/><path d="M213.54,155.97c.32.31.49.78.49,1.39s-.14,1.08-.43,1.46-.73.58-1.33.58c-.5,0-.9-.17-1.19-.51-.29-.34-.44-.8-.44-1.37,0-.61.16-1.1.46-1.47.31-.36.73-.55,1.25-.55.47,0,.86.16,1.19.47ZM213.16,158.41c.15-.31.22-.65.22-1.03,0-.34-.05-.62-.16-.83-.17-.34-.47-.51-.89-.51-.37,0-.64.14-.81.43s-.25.63-.25,1.04.08.71.25.97.44.39.8.39c.4,0,.68-.15.83-.46Z" fill="#000" stroke-width="0"/><path d="M214.8,154.25h.62v5.02h-.62v-5.02Z" fill="#000" stroke-width="0"/><path d="M218.35,155.72c.11.07.23.19.37.36v-1.85h.59v5.04h-.55v-.51c-.14.23-.31.39-.51.49s-.42.15-.67.15c-.41,0-.76-.17-1.05-.51-.3-.34-.45-.8-.45-1.37,0-.53.14-1,.41-1.39.27-.39.66-.59,1.16-.59.28,0,.51.06.7.18ZM216.97,158.47c.17.26.43.4.8.4.28,0,.52-.12.7-.37.18-.25.27-.6.27-1.05s-.09-.81-.28-1.03c-.19-.22-.42-.33-.7-.33-.31,0-.56.12-.75.36-.19.24-.29.59-.29,1.05,0,.39.08.72.25.98Z" fill="#000" stroke-width="0"/><path d="M222.49,155.71c.24.12.43.28.55.47.12.18.2.4.24.65.04.17.05.44.05.81h-2.66c.01.37.1.67.26.9.16.22.41.34.76.34.32,0,.57-.11.76-.32.11-.12.18-.27.23-.43h.6c-.02.13-.07.28-.16.45-.09.17-.19.3-.3.41-.19.18-.42.31-.69.37-.15.04-.31.05-.5.05-.45,0-.84-.17-1.15-.5-.31-.33-.47-.8-.47-1.39s.16-1.07.48-1.43c.32-.37.73-.55,1.24-.55.26,0,.51.06.75.18ZM222.71,157.15c-.02-.27-.08-.48-.17-.64-.17-.3-.45-.44-.84-.44-.28,0-.52.1-.71.31s-.29.46-.3.78h2.02Z" fill="#000" stroke-width="0"/><path d="M224.14,155.61h.58v.63c.05-.12.17-.27.35-.45.19-.18.4-.26.65-.26.01,0,.03,0,.06,0s.07,0,.14.01v.65s-.07-.01-.1-.01c-.03,0-.06,0-.1,0-.31,0-.55.1-.71.3-.17.2-.25.43-.25.69v2.11h-.62v-3.66Z" fill="#000" stroke-width="0"/></g><g isolation="isolate"><path d="M191.1,162.01c-.36.7-.59,1.21-.7,1.54-.16.5-.24,1.08-.24,1.73s.09,1.26.28,1.81c.11.34.34.82.67,1.46h-.41c-.33-.52-.54-.85-.62-1-.08-.14-.17-.34-.26-.58-.13-.34-.22-.7-.27-1.08-.02-.2-.04-.39-.04-.57,0-.67.11-1.27.32-1.8.13-.33.42-.84.84-1.5h.43Z" fill="#000" stroke-width="0"/><path d="M192.29,165.92c.02.34.15.57.39.7.13.07.27.1.42.1.29,0,.54-.12.75-.37.21-.25.35-.74.44-1.49-.14.22-.31.37-.51.46-.2.09-.42.13-.65.13-.47,0-.84-.15-1.12-.44-.27-.29-.41-.67-.41-1.13s.14-.83.41-1.17c.27-.34.67-.5,1.2-.5.71,0,1.21.32,1.48.96.15.35.23.79.23,1.33,0,.6-.09,1.13-.27,1.59-.3.77-.8,1.15-1.52,1.15-.48,0-.84-.12-1.09-.38-.25-.25-.37-.57-.37-.94h.62ZM193.89,164.68c.2-.16.3-.44.3-.84,0-.36-.09-.63-.27-.8-.18-.18-.41-.26-.69-.26-.3,0-.54.1-.72.3s-.26.47-.26.81c0,.32.08.57.23.76.15.19.4.28.74.28.24,0,.47-.08.67-.24Z" fill="#000" stroke-width="0"/><path d="M197.58,167.11v-1.2h-2.15v-.6l2.24-3.11h.52v3.18h.72v.54h-.72v1.2h-.62ZM197.57,165.38v-2.22l-1.57,2.22h1.57Z" fill="#000" stroke-width="0"/><path d="M199.73,167.83c.16-.03.27-.14.33-.33.03-.1.05-.2.05-.3,0-.02,0-.03,0-.04s0-.03,0-.04h-.37v-.75h.73v.69c0,.27-.05.51-.16.71s-.3.33-.57.38v-.32Z" fill="#000" stroke-width="0"/><path d="M201.57,166.01c.15-.31.45-.6.89-.85l.66-.38c.29-.17.5-.32.62-.44.19-.19.28-.41.28-.65,0-.29-.09-.51-.26-.68s-.4-.25-.68-.25c-.42,0-.71.16-.88.48-.09.17-.13.41-.14.71h-.62c0-.43.08-.77.24-1.04.27-.47.74-.71,1.41-.71.56,0,.97.15,1.23.46s.39.64.39,1.01c0,.39-.14.73-.41,1-.16.16-.45.36-.86.59l-.47.26c-.22.12-.4.24-.53.35-.23.2-.37.42-.43.66h2.67v.58h-3.36c.02-.42.11-.79.26-1.1Z" fill="#000" stroke-width="0"/><path d="M205.66,163.64v-.47c.44-.04.75-.12.93-.22.17-.1.31-.34.39-.72h.49v4.87h-.66v-3.47h-1.15Z" fill="#000" stroke-width="0"/><path d="M209.55,164.24c-.18-.18-.27-.42-.27-.71,0-.36.13-.68.4-.94.26-.26.64-.39,1.12-.39s.84.12,1.1.37c.27.25.4.54.4.87,0,.31-.08.55-.23.74-.09.11-.22.21-.4.31.2.09.36.2.48.32.22.23.33.52.33.89,0,.43-.14.79-.43,1.09-.29.3-.7.45-1.23.45-.48,0-.88-.13-1.21-.39s-.49-.63-.49-1.13c0-.29.07-.54.21-.75.14-.21.35-.37.63-.48-.17-.07-.3-.16-.4-.26ZM211.53,166.46c.19-.15.28-.38.28-.69s-.1-.56-.29-.72c-.19-.16-.44-.25-.75-.25s-.53.08-.72.25c-.19.17-.28.4-.28.7,0,.25.08.48.25.66.17.19.43.28.79.28.29,0,.52-.08.71-.23ZM211.42,164.04c.15-.15.23-.33.23-.54,0-.18-.07-.35-.22-.5s-.37-.23-.67-.23-.51.08-.64.23-.2.33-.2.54c0,.23.08.41.26.54.17.13.37.2.6.2.27,0,.48-.08.63-.23Z" fill="#000" stroke-width="0"/><path d="M213.02,168.54c.36-.71.6-1.22.7-1.54.16-.49.24-1.06.24-1.72s-.09-1.26-.28-1.81c-.11-.34-.34-.82-.67-1.46h.41c.35.56.56.91.64,1.04s.15.31.24.54c.11.28.19.57.23.84.05.28.07.55.07.8,0,.67-.11,1.28-.32,1.8-.13.34-.41.84-.84,1.5h-.43Z" fill="#000" stroke-width="0"/></g></g><g id="v"><g isolation="isolate"><path d="M168.47,140.84c-.18-.18-.27-.42-.27-.71,0-.36.13-.68.4-.94.26-.26.64-.39,1.12-.39s.84.12,1.1.37c.27.25.4.54.4.87,0,.31-.08.55-.23.74-.09.11-.22.21-.4.31.2.09.36.2.48.32.22.23.33.52.33.89,0,.43-.14.79-.43,1.09-.29.3-.7.45-1.23.45-.48,0-.88-.13-1.21-.39s-.49-.63-.49-1.13c0-.29.07-.54.21-.75.14-.21.35-.37.63-.48-.17-.07-.3-.16-.4-.26ZM170.45,143.05c.19-.15.28-.38.28-.69s-.1-.56-.29-.72c-.19-.16-.44-.25-.75-.25s-.53.08-.72.25c-.19.17-.28.4-.28.7,0,.25.08.48.25.66.17.19.43.28.79.28.29,0,.52-.08.71-.23ZM170.34,140.63c.15-.15.23-.33.23-.54,0-.18-.07-.35-.22-.5s-.37-.23-.67-.23-.51.08-.64.23-.2.33-.2.54c0,.23.08.41.26.54.17.13.37.2.6.2.27,0,.48-.08.63-.23Z" fill="#000" stroke-width="0"/><path d="M172.25,143.36c-.26-.32-.39-.7-.39-1.16h.64c.03.32.09.55.18.69.16.26.45.39.87.39.32,0,.58-.09.78-.26.2-.17.29-.4.29-.67,0-.34-.1-.57-.31-.71s-.49-.2-.86-.2c-.04,0-.08,0-.12,0s-.08,0-.13,0v-.54c.06,0,.12.01.16.01.04,0,.09,0,.14,0,.23,0,.42-.04.57-.11.26-.13.39-.36.39-.68,0-.24-.09-.43-.26-.56-.17-.13-.38-.2-.61-.2-.41,0-.69.14-.85.41-.09.15-.14.36-.15.64h-.61c0-.36.07-.67.22-.93.25-.46.69-.68,1.32-.68.5,0,.88.11,1.16.33.27.22.41.54.41.97,0,.3-.08.54-.24.73-.1.12-.23.21-.39.27.26.07.46.21.6.41.14.2.22.45.22.74,0,.47-.15.85-.46,1.14s-.74.44-1.31.44-1-.16-1.26-.48Z" fill="#000" stroke-width="0"/><path d="M176.19,142.96h.71v.75h-.71v-.75Z" fill="#000" stroke-width="0"/><path d="M178.09,143.36c-.26-.32-.39-.7-.39-1.16h.64c.03.32.09.55.18.69.16.26.45.39.87.39.32,0,.58-.09.78-.26.2-.17.29-.4.29-.67,0-.34-.1-.57-.31-.71s-.49-.2-.86-.2c-.04,0-.08,0-.12,0s-.08,0-.13,0v-.54c.06,0,.12.01.16.01.04,0,.09,0,.14,0,.23,0,.42-.04.57-.11.26-.13.39-.36.39-.68,0-.24-.09-.43-.26-.56-.17-.13-.38-.2-.61-.2-.41,0-.69.14-.85.41-.09.15-.14.36-.15.64h-.61c0-.36.07-.67.22-.93.25-.46.69-.68,1.32-.68.5,0,.88.11,1.16.33.27.22.41.54.41.97,0,.3-.08.54-.24.73-.1.12-.23.21-.39.27.26.07.46.21.6.41.14.2.22.45.22.74,0,.47-.15.85-.46,1.14s-.74.44-1.31.44-1-.16-1.26-.48Z" fill="#000" stroke-width="0"/><path d="M183.69,139.3c.23.23.35.51.35.84s-.12.61-.35.84-.51.35-.84.35-.61-.12-.84-.35-.35-.51-.35-.84.12-.61.35-.84.51-.35.84-.35.61.12.84.35ZM183.34,140.64c.14-.14.21-.3.21-.5s-.07-.36-.21-.5-.3-.21-.5-.21-.36.07-.5.21-.21.3-.21.5.07.36.21.5.3.21.5.21.36-.07.5-.21ZM185.7,138.83h.38l-2.74,5h-.38l2.74-5ZM187.04,141.67c.23.23.35.51.35.84s-.12.61-.35.84c-.23.23-.51.35-.84.35s-.61-.12-.84-.35c-.23-.23-.35-.51-.35-.84s.12-.61.35-.84.51-.35.84-.35.61.12.84.35ZM186.7,143.01c.14-.14.21-.3.21-.5s-.07-.36-.21-.5c-.14-.14-.3-.21-.5-.21s-.36.07-.5.21-.21.3-.21.5.07.36.21.5c.14.14.31.21.5.21s.36-.07.5-.21Z" fill="#000" stroke-width="0"/></g></g><g id="w"><g id="x"><path d="M237.99,18.82h14v-4.9h-14v4.9Z" fill="#fdae6b" stroke="#fff"/></g><g id="y"><g isolation="isolate"><path d="M258.28,13.8h.69v5.02h-.69v-5.02Z" fill="#000" stroke-width="0"/><path d="M260.36,17.67c.02.21.07.36.16.47.16.2.43.3.82.3.23,0,.44-.05.61-.15.18-.1.26-.25.26-.46,0-.16-.07-.28-.21-.36-.09-.05-.27-.11-.53-.17l-.5-.12c-.32-.08-.55-.16-.7-.26-.27-.17-.4-.4-.4-.69,0-.35.13-.63.38-.84.25-.21.59-.32,1.02-.32.56,0,.96.16,1.21.48.15.21.23.43.22.66h-.58c-.01-.14-.06-.26-.15-.38-.14-.16-.4-.24-.75-.24-.24,0-.42.04-.54.13-.12.09-.18.21-.18.35,0,.16.08.29.24.38.09.06.23.11.41.15l.42.1c.45.11.75.21.91.31.24.16.36.4.36.74s-.12.61-.38.84c-.25.24-.63.36-1.14.36-.55,0-.94-.12-1.17-.37s-.35-.55-.37-.92h.59Z" fill="#000" stroke-width="0"/><path d="M266.14,15.52c.32.31.49.78.49,1.39s-.14,1.08-.43,1.46-.73.58-1.33.58c-.5,0-.9-.17-1.19-.51-.29-.34-.44-.8-.44-1.37,0-.61.16-1.1.46-1.47.31-.36.73-.55,1.25-.55.47,0,.86.16,1.19.47ZM265.76,17.96c.15-.31.22-.65.22-1.03,0-.34-.05-.62-.16-.83-.17-.34-.47-.51-.89-.51-.37,0-.64.14-.81.43s-.25.63-.25,1.04.08.71.25.97.44.39.8.39c.4,0,.68-.15.83-.46Z" fill="#000" stroke-width="0"/><path d="M267.4,13.8h.62v5.02h-.62v-5.02Z" fill="#000" stroke-width="0"/><path d="M270.9,16.6c.14-.02.24-.08.28-.18.03-.05.04-.13.04-.24,0-.21-.07-.36-.22-.46-.15-.09-.36-.14-.64-.14-.32,0-.55.09-.68.26-.08.1-.12.24-.15.43h-.57c.01-.45.16-.77.44-.94.28-.18.61-.27.98-.27.43,0,.78.08,1.05.25.27.16.4.42.4.77v2.11c0,.06.01.12.04.15.03.04.08.06.17.06.03,0,.06,0,.09,0,.03,0,.07,0,.11-.02v.46c-.1.03-.17.04-.22.05-.05,0-.12,0-.21,0-.21,0-.37-.07-.46-.22-.05-.08-.09-.19-.11-.34-.12.16-.3.31-.54.43-.23.12-.49.18-.78.18-.34,0-.62-.1-.83-.31-.22-.21-.32-.46-.32-.77,0-.34.11-.6.32-.79s.49-.3.83-.34l.98-.12ZM269.6,18.27c.13.1.28.15.46.15.22,0,.43-.05.63-.15.34-.17.51-.44.51-.82v-.5c-.08.05-.17.09-.29.12s-.23.05-.35.07l-.37.05c-.22.03-.39.08-.5.14-.19.11-.29.28-.29.51,0,.18.06.32.19.42Z" fill="#000" stroke-width="0"/><path d="M272.95,14.14h.62v1.02h.58v.5h-.58v2.39c0,.13.04.21.13.26.05.03.13.04.24.04.03,0,.06,0,.1,0,.03,0,.07,0,.12-.01v.49c-.07.02-.14.04-.22.04-.08,0-.16.01-.25.01-.29,0-.48-.07-.58-.22-.1-.15-.15-.34-.15-.57v-2.42h-.5v-.5h.5v-1.02Z" fill="#000" stroke-width="0"/><path d="M277.04,15.26c.24.12.43.28.55.47.12.18.2.4.25.65.04.17.05.44.05.81h-2.66c.01.37.1.67.26.9.16.22.42.34.76.34.32,0,.57-.11.76-.32.11-.12.18-.27.23-.43h.61c-.02.13-.07.28-.16.45s-.19.3-.3.41c-.19.18-.42.31-.69.37-.15.04-.31.05-.5.05-.45,0-.84-.17-1.15-.5-.32-.33-.47-.8-.47-1.39s.16-1.07.48-1.43c.32-.37.73-.55,1.24-.55.26,0,.51.06.75.18ZM277.26,16.7c-.03-.27-.08-.48-.17-.64-.17-.3-.45-.44-.84-.44-.28,0-.52.1-.71.31-.19.2-.29.46-.3.78h2.02Z" fill="#000" stroke-width="0"/></g></g><g id="z"><path d="M237.99,29.09h14v-4.9h-14v4.9Z" fill="#b3de69" stroke="#fff"/></g><g id="aa"><g isolation="isolate"><path d="M258.11,24.07h.97l1.44,4.25,1.43-4.25h.97v5.02h-.65v-2.96c0-.1,0-.27,0-.51,0-.24,0-.49,0-.76l-1.43,4.23h-.67l-1.45-4.23v.15c0,.12,0,.31,0,.56s.01.44.01.56v2.96h-.65v-5.02Z" fill="#000" stroke-width="0"/><path d="M265.42,24.07h.77l1.82,5.02h-.75l-.51-1.5h-1.99l-.54,1.5h-.7l1.89-5.02ZM266.54,27.04l-.76-2.22-.81,2.22h1.57Z" fill="#000" stroke-width="0"/><path d="M271.97,24.22c.49.26.79.72.9,1.38h-.67c-.08-.37-.25-.63-.5-.8-.25-.17-.57-.25-.95-.25-.46,0-.84.17-1.15.52-.31.35-.47.87-.47,1.56,0,.6.13,1.08.38,1.46s.68.56,1.26.56c.44,0,.81-.13,1.1-.39.29-.26.44-.69.45-1.28h-1.57v-.56h2.2v2.69h-.44l-.16-.65c-.23.25-.43.43-.6.53-.29.17-.67.25-1.12.25-.58,0-1.09-.19-1.51-.58-.46-.48-.69-1.15-.69-1.99s.22-1.51.67-2.01c.43-.47.98-.71,1.66-.71.46,0,.87.09,1.21.27Z" fill="#000" stroke-width="0"/></g></g><g id="ab"><path d="M237.99,39.37h14v-4.9h-14v4.9Z" fill="#80b1d3" stroke="#fff"/></g><g id="ac"><g isolation="isolate"><path d="M258.57,37.75c.02.29.08.52.19.69.22.33.6.5,1.15.5.25,0,.47-.04.67-.11.39-.14.59-.39.59-.76,0-.27-.08-.47-.25-.58-.17-.11-.43-.21-.79-.3l-.66-.15c-.43-.1-.74-.21-.91-.33-.31-.21-.46-.52-.46-.94,0-.45.15-.82.46-1.11.3-.29.73-.43,1.29-.43.51,0,.95.13,1.31.38s.54.66.54,1.22h-.64c-.03-.27-.1-.48-.21-.62-.2-.26-.54-.39-1.01-.39-.38,0-.66.08-.83.25s-.25.36-.25.59c0,.25.1.43.3.54.13.07.42.16.88.27l.68.16c.33.08.58.18.76.32.31.23.46.58.46,1.02,0,.56-.2.95-.59,1.19s-.85.36-1.38.36c-.61,0-1.09-.16-1.43-.48-.34-.32-.51-.75-.51-1.29h.64Z" fill="#000" stroke-width="0"/><path d="M264.26,34.35h.77l1.82,5.02h-.75l-.51-1.5h-1.99l-.54,1.5h-.7l1.89-5.02ZM265.37,37.31l-.76-2.22-.81,2.22h1.57Z" fill="#000" stroke-width="0"/><path d="M270.81,34.49c.49.26.79.72.9,1.38h-.67c-.08-.37-.25-.63-.5-.8-.25-.17-.57-.25-.95-.25-.46,0-.84.17-1.15.52-.31.35-.47.87-.47,1.56,0,.6.13,1.08.38,1.46s.68.56,1.26.56c.44,0,.81-.13,1.1-.39.29-.26.44-.69.45-1.28h-1.57v-.56h2.2v2.69h-.44l-.16-.65c-.23.25-.43.43-.6.53-.29.17-.67.25-1.12.25-.58,0-1.09-.19-1.51-.58-.46-.48-.69-1.15-.69-1.99s.22-1.51.67-2.01c.43-.47.98-.71,1.66-.71.46,0,.87.09,1.21.27Z" fill="#000" stroke-width="0"/></g></g></g></g></g></svg>