<?xml version="1.0" encoding="utf-8" standalone="no"?>
<!DOCTYPE svg PUBLIC "-//W3C//DTD SVG 1.1//EN"
  "http://www.w3.org/Graphics/SVG/1.1/DTD/svg11.dtd">
<svg xmlns:xlink="http://www.w3.org/1999/xlink" width="290.874313pt" height="180.72pt" viewBox="0 0 290.874313 180.72" xmlns="http://www.w3.org/2000/svg" version="1.1">
 <metadata>
  <rdf:RDF xmlns:dc="http://purl.org/dc/elements/1.1/" xmlns:cc="http://creativecommons.org/ns#" xmlns:rdf="http://www.w3.org/1999/02/22-rdf-syntax-ns#">
   <cc:Work>
    <dc:type rdf:resource="http://purl.org/dc/dcmitype/StillImage"/>
    <dc:date>2024-12-03T15:12:17.381189</dc:date>
    <dc:format>image/svg+xml</dc:format>
    <dc:creator>
     <cc:Agent>
      <dc:title>Matplotlib v3.5.1, https://matplotlib.org/</dc:title>
     </cc:Agent>
    </dc:creator>
   </cc:Work>
  </rdf:RDF>
 </metadata>
 <defs>
  <style type="text/css">*{stroke-linejoin: round; stroke-linecap: butt}</style>
 </defs>
 <g id="figure_1">
  <g id="patch_1">
   <path d="M 0 180.72 
L 290.874313 180.72 
L 290.874313 0 
L 0 0 
z
" style="fill: #ffffff"/>
  </g>
  <g id="axes_1">
   <g id="patch_2">
    <path d="M 147.581294 14.76 
C 136.08679 14.76 124.743699 17.387496 114.425523 22.440151 
C 104.107348 27.492807 95.085923 34.837508 88.055966 43.908657 
L 123.771163 71.447458 
C 126.583146 67.818998 130.191716 64.881118 134.318986 62.860056 
C 138.446256 60.838993 142.983493 59.787995 147.581294 59.787995 
L 147.581294 14.76 
z
" style="fill: #ffbc79; stroke: #ffffff; stroke-linejoin: miter"/>
   </g>
   <g id="patch_3">
    <path d="M 88.055966 43.908657 
C 87.687443 44.384184 87.32466 44.864109 86.967696 45.348329 
C 86.610732 45.832549 86.259613 46.32103 85.914415 46.813664 
L 122.914543 72.609461 
C 123.052622 72.412407 123.19307 72.217015 123.335855 72.023327 
C 123.478641 71.829639 123.623754 71.637669 123.771163 71.447458 
L 88.055966 43.908657 
z
" style="fill: #5f9ed1; stroke: #ffffff; stroke-linejoin: miter"/>
   </g>
   <g id="patch_4">
    <path d="M 85.914415 46.813664 
C 85.911621 46.817651 85.908828 46.821638 85.906035 46.825625 
C 85.903243 46.829612 85.90045 46.833599 85.897658 46.837587 
L 122.90784 72.61903 
C 122.908957 72.617435 122.910074 72.61584 122.911191 72.614245 
C 122.912308 72.61265 122.913425 72.611055 122.914543 72.609461 
L 85.914415 46.813664 
z
" style="fill: #ababab; stroke: #ffffff; stroke-linejoin: miter"/>
   </g>
   <g id="patch_5">
    <path d="M 85.897658 46.837587 
C 85.420228 47.519495 84.954196 48.209272 84.499755 48.906633 
C 84.045314 49.603995 83.602527 50.308844 83.171577 51.020888 
L 121.817408 74.29235 
C 121.989787 74.007533 122.166902 73.725593 122.348679 73.446648 
C 122.530455 73.167704 122.716868 72.891793 122.90784 72.61903 
L 85.897658 46.837587 
z
" style="fill: #ffbc79; stroke: #ffffff; stroke-linejoin: miter"/>
   </g>
   <g id="patch_6">
    <path d="M 83.171577 51.020888 
C 83.037651 51.242171 82.904872 51.464142 82.773245 51.686792 
C 82.641617 51.909443 82.511145 52.132771 82.381831 52.356766 
L 121.501509 74.826702 
C 121.553234 74.737103 121.605424 74.647772 121.658074 74.558712 
C 121.710725 74.469652 121.763837 74.380863 121.817408 74.29235 
L 83.171577 51.020888 
z
" style="fill: #5f9ed1; stroke: #ffffff; stroke-linejoin: miter"/>
   </g>
   <g id="patch_7">
    <path d="M 82.381831 52.356766 
C 82.376617 52.365799 82.371404 52.374832 82.366194 52.383866 
C 82.360983 52.3929 82.355775 52.401935 82.350568 52.410972 
L 121.489004 74.848384 
C 121.491087 74.844769 121.49317 74.841155 121.495254 74.837541 
C 121.497338 74.833928 121.499423 74.830314 121.501509 74.826702 
L 82.381831 52.356766 
z
" style="fill: #ababab; stroke: #ffffff; stroke-linejoin: miter"/>
   </g>
   <g id="patch_8">
    <path d="M 82.350568 52.410972 
C 77.897599 60.139238 74.860426 68.597408 73.38168 77.388271 
C 71.902935 86.179134 72.006133 95.16289 73.686429 103.917648 
L 118.023348 95.451054 
C 117.35123 91.949151 117.309951 88.355649 117.901449 84.839303 
C 118.492947 81.322958 119.707816 77.93969 121.489004 74.848384 
L 82.350568 52.410972 
z
" style="fill: #ffbc79; stroke: #ffffff; stroke-linejoin: miter"/>
   </g>
   <g id="patch_9">
    <path d="M 73.686429 103.917648 
C 76.347931 117.78474 82.87943 130.625169 92.526936 140.956656 
C 102.174443 151.288143 114.55187 158.697227 128.230386 162.328613 
C 141.908902 165.96 156.341099 165.668363 169.860946 161.487369 
C 183.380793 157.306376 195.447233 149.403346 204.667333 138.690594 
C 213.887433 127.977843 219.89221 114.884088 221.988482 100.920854 
C 224.084753 86.95762 222.188627 72.683708 216.51899 59.746877 
C 210.849352 46.810047 201.633099 35.728023 189.934142 27.780099 
C 178.235184 19.832174 164.521708 15.33642 150.376776 14.811821 
L 148.699487 59.808723 
C 154.35746 60.018563 159.84285 61.816865 164.522433 64.996034 
C 169.202016 68.175204 172.888517 72.608014 175.156372 77.782746 
C 177.424227 82.957478 178.182678 88.667043 177.344169 94.252337 
C 176.505661 99.83763 174.10375 105.075132 170.41571 109.360233 
C 166.72767 113.645333 161.901094 116.806545 156.493155 118.478943 
C 151.085216 120.15134 145.312337 120.267995 139.840931 118.81544 
C 134.369525 117.362886 129.418554 114.399252 125.559551 110.266658 
C 121.700548 106.134063 119.087949 100.997891 118.023348 95.451054 
L 73.686429 103.917648 
z
" style="fill: #5f9ed1; stroke: #ffffff; stroke-linejoin: miter"/>
   </g>
   <g id="patch_10">
    <path d="M 150.376776 14.811821 
C 149.911072 14.794549 149.445216 14.781594 148.979271 14.772956 
C 148.513325 14.764319 148.047309 14.76 147.581282 14.76 
L 147.58129 59.787995 
C 147.7677 59.787995 147.954107 59.789723 148.140485 59.793178 
C 148.326863 59.796633 148.513205 59.801815 148.699487 59.808723 
L 150.376776 14.811821 
z
" style="fill: #ababab; stroke: #ffffff; stroke-linejoin: miter"/>
   </g>
   <g id="patch_11">
    <path d="M 147.581294 14.76 
C 135.471094 14.76 123.53803 17.676515 112.799604 23.260861 
C 102.061179 28.845207 92.831535 36.934019 85.89766 46.837584 
L 110.571114 64.025214 
C 114.731439 58.083075 120.269225 53.229787 126.71228 49.87918 
C 133.155336 46.528572 140.315174 44.778663 147.581294 44.778663 
L 147.581294 14.76 
z
" style="fill: #fb8072; stroke: #ffffff; stroke-linejoin: miter"/>
   </g>
   <g id="patch_12">
    <path d="M 85.89766 46.837584 
C 85.265862 47.739974 84.654042 48.656119 84.062646 49.585353 
C 83.47125 50.514588 82.900419 51.456688 82.35057 52.410969 
L 108.44286 67.369245 
C 108.772769 66.796676 109.115268 66.231416 109.470105 65.673875 
C 109.824943 65.116335 110.192035 64.566648 110.571114 64.025214 
L 85.89766 46.837584 
z
" style="fill: #bebada; stroke: #ffffff; stroke-linejoin: miter"/>
   </g>
   <g id="patch_13">
    <path d="M 82.35057 52.410969 
C 78.253436 59.52167 75.352464 67.254454 73.763227 75.301248 
C 72.173991 83.348043 71.917879 91.600547 73.005095 99.729984 
C 74.092311 107.859421 76.508222 115.756379 80.15658 123.106244 
C 83.804937 130.456108 88.636639 137.15996 94.45919 142.950719 
C 100.281741 148.741479 107.016777 153.541209 114.395977 157.158689 
C 121.775177 160.77617 129.699225 163.162714 137.852429 164.223243 
C 146.005632 165.283771 154.27826 165.004011 162.340732 163.395107 
C 170.403204 161.786204 178.14701 158.86981 185.263637 154.762116 
C 192.380264 150.654422 198.773932 145.410711 204.189919 139.239892 
C 209.605906 133.069072 213.971319 126.054196 217.11224 118.474734 
C 220.253162 110.895273 222.12732 102.853235 222.660048 94.669016 
C 223.192776 86.484796 222.376904 78.268543 220.244936 70.347591 
C 218.112969 62.426639 214.693599 54.907594 210.123054 48.090013 
C 205.55251 41.272431 199.892304 35.24807 193.367938 30.256938 
C 186.843573 25.265807 179.542857 21.375079 171.75665 18.73976 
C 163.970443 16.104442 155.803538 14.760001 147.581302 14.76 
L 147.581299 44.778663 
C 152.514641 44.778664 157.414784 45.585328 162.086508 47.166519 
C 166.758232 48.747711 171.138661 51.082147 175.053281 54.076826 
C 178.9679 57.071505 182.364024 60.686122 185.10635 64.776671 
C 187.848677 68.86722 189.900299 73.378647 191.179479 78.131218 
C 192.45866 82.883789 192.948183 87.813541 192.628546 92.724073 
C 192.30891 97.634605 191.184415 102.459827 189.299862 107.007504 
C 187.415309 111.555181 184.796061 115.764107 181.546469 119.466598 
C 178.296877 123.16909 174.460676 126.315317 170.1907 128.779933 
C 165.920724 131.24455 161.27444 132.994386 156.436957 133.959728 
C 151.599474 134.92507 146.635897 135.092926 141.743975 134.456609 
C 136.852053 133.820292 132.097624 132.388365 127.670104 130.217877 
C 123.242584 128.047389 119.201562 125.167551 115.708031 121.693095 
C 112.214501 118.21864 109.31548 114.196328 107.126466 109.78641 
C 104.937451 105.376491 103.487904 100.638316 102.835574 95.760654 
C 102.183245 90.882992 102.336912 85.931489 103.290454 81.103412 
C 104.243996 76.275336 105.984579 71.635666 108.44286 67.369245 
L 82.35057 52.410969 
z
" style="fill: #8dd3c7; stroke: #ffffff; stroke-linejoin: miter"/>
   </g>
   <g id="matplotlib.axis_1"/>
   <g id="matplotlib.axis_2"/>
   <g id="text_1">
    <text style="font: 7px 'sans-serif'" transform="translate(71.081748 14.618609)">Type strain</text>
    <text style="font: 7px 'sans-serif'" transform="translate(79.36581 22.457078)">(17,302)</text>
   </g>
   <g id="text_2">
    <text style="font: 7px 'sans-serif'; text-anchor: middle" x="119.755942" y="38.501583" transform="rotate(-0, 119.755942, 38.501583)">15.3%</text>
   </g>
   <g id="text_3">
    <text style="font: 7px 'sans-serif'" transform="translate(7.2 43.575551)">Latin, no type strain</text>
    <text style="font: 7px 'sans-serif'" transform="translate(52.208906 51.41402)">(1,584)</text>
   </g>
   <g id="text_4">
    <text style="font: 7px 'sans-serif'; text-anchor: middle" x="96.766376" y="59.561177" transform="rotate(-0, 96.766376, 59.561177)">1.4%</text>
   </g>
   <g id="text_5">
    <text style="font: 7px 'sans-serif'" transform="translate(189.031871 159.26999)">Placeholder</text>
    <text style="font: 7px 'sans-serif'" transform="translate(189.031871 167.108459)"> (94,218)</text>
   </g>
   <g id="text_6">
    <text style="font: 7px 'sans-serif'; text-anchor: middle" x="177.727168" y="143.702587" transform="rotate(-0, 177.727168, 143.702587)">83.3%</text>
   </g>
   <g id="legend_1">
    <g id="patch_14">
     <path d="M 237.993844 18.818906 
L 251.993844 18.818906 
L 251.993844 13.918906 
L 237.993844 13.918906 
z
" style="fill: #ffbc79; stroke: #ffffff; stroke-linejoin: miter"/>
    </g>
    <g id="text_7">
     <text style="font: 7px 'sans-serif'; text-anchor: start" x="257.593844" y="18.818906" transform="rotate(-0, 257.593844, 18.818906)">Isolate</text>
    </g>
    <g id="patch_15">
     <path d="M 237.993844 29.093594 
L 251.993844 29.093594 
L 251.993844 24.193594 
L 237.993844 24.193594 
z
" style="fill: #5f9ed1; stroke: #ffffff; stroke-linejoin: miter"/>
    </g>
    <g id="text_8">
     <text style="font: 7px 'sans-serif'; text-anchor: start" x="257.593844" y="29.093594" transform="rotate(-0, 257.593844, 29.093594)">MAG</text>
    </g>
    <g id="patch_16">
     <path d="M 237.993844 39.368281 
L 251.993844 39.368281 
L 251.993844 34.468281 
L 237.993844 34.468281 
z
" style="fill: #ababab; stroke: #ffffff; stroke-linejoin: miter"/>
    </g>
    <g id="text_9">
     <text style="font: 7px 'sans-serif'; text-anchor: start" x="257.593844" y="39.368281" transform="rotate(-0, 257.593844, 39.368281)">SAG</text>
    </g>
   </g>
  </g>
 </g>
</svg>
