<?xml version="1.0" encoding="utf-8" standalone="no"?>
<!DOCTYPE svg PUBLIC "-//W3C//DTD SVG 1.1//EN"
  "http://www.w3.org/Graphics/SVG/1.1/DTD/svg11.dtd">
<svg xmlns:xlink="http://www.w3.org/1999/xlink" width="273.555987pt" height="185.460711pt" viewBox="0 0 273.555987 185.460711" xmlns="http://www.w3.org/2000/svg" version="1.1">
 <metadata>
  <rdf:RDF xmlns:dc="http://purl.org/dc/elements/1.1/" xmlns:cc="http://creativecommons.org/ns#" xmlns:rdf="http://www.w3.org/1999/02/22-rdf-syntax-ns#">
   <cc:Work>
    <dc:type rdf:resource="http://purl.org/dc/dcmitype/StillImage"/>
    <dc:date>2026-04-01T16:22:29.709767</dc:date>
    <dc:format>image/svg+xml</dc:format>
    <dc:creator>
     <cc:Agent>
      <dc:title>Matplotlib v3.5.1, https://matplotlib.org/</dc:title>
     </cc:Agent>
    </dc:creator>
   </cc:Work>
  </rdf:RDF>
 </metadata>
 <defs>
  <style type="text/css">*{stroke-linejoin: round; stroke-linecap: butt}</style>
 </defs>
 <g id="figure_1">
  <g id="patch_1">
   <path d="M 0 185.460711 
L 273.555987 185.460711 
L 273.555987 0 
L 0 0 
z
" style="fill: #ffffff"/>
  </g>
  <g id="axes_1">
   <g id="patch_2">
    <path d="M 130.690222 17.469732 
C 122.813659 17.469732 114.985165 18.697611 107.487925 21.10895 
C 99.990686 23.52029 92.916208 27.08566 86.520403 31.676087 
L 113.022294 68.492818 
C 115.580616 66.656647 118.410408 65.230499 121.409303 64.265963 
C 124.408199 63.301427 127.539597 62.810276 130.690222 62.810276 
L 130.690222 17.469732 
z
" style="fill: #ffbc79; stroke: #ffffff; stroke-linejoin: miter"/>
   </g>
   <g id="patch_3">
    <path d="M 86.520403 31.676087 
C 86.067188 32.00137 85.617591 32.33165 85.171695 32.666865 
C 84.725798 33.002081 84.283629 33.342212 83.845268 33.687196 
L 111.95224 69.297261 
C 112.127585 69.159268 112.304452 69.023215 112.482811 68.889129 
C 112.66117 68.755043 112.841008 68.622931 113.022294 68.492818 
L 86.520403 31.676087 
z
" style="fill: #5f9ed1; stroke: #ffffff; stroke-linejoin: miter"/>
   </g>
   <g id="patch_4">
    <path d="M 83.845268 33.687196 
C 83.839976 33.691361 83.834684 33.695527 83.829392 33.699694 
C 83.824101 33.703861 83.81881 33.708028 83.813519 33.712196 
L 111.939541 69.307261 
C 111.941657 69.305594 111.943773 69.303927 111.94589 69.302261 
C 111.948007 69.300594 111.950123 69.298927 111.95224 69.297261 
L 83.845268 33.687196 
z
" style="fill: #ababab; stroke: #ffffff; stroke-linejoin: miter"/>
   </g>
   <g id="patch_5">
    <path d="M 83.813519 33.712196 
C 83.465594 33.98631 83.120087 34.26347 82.777038 34.543644 
C 82.433989 34.823819 82.093411 35.106997 81.755344 35.393146 
L 111.116271 69.979641 
C 111.251498 69.865182 111.387729 69.75191 111.524948 69.639841 
C 111.662168 69.527771 111.800371 69.416907 111.939541 69.307261 
L 83.813519 33.712196 
z
" style="fill: #ffbc79; stroke: #ffffff; stroke-linejoin: miter"/>
   </g>
   <g id="patch_6">
    <path d="M 81.755344 35.393146 
C 81.675213 35.460971 81.595222 35.528963 81.515374 35.597121 
C 81.435526 35.66528 81.35582 35.733604 81.276257 35.802093 
L 110.924636 70.14322 
C 110.956461 70.115824 110.988344 70.088495 111.020283 70.061232 
C 111.052222 70.033968 111.084218 70.006771 111.116271 69.979641 
L 81.755344 35.393146 
z
" style="fill: #5f9ed1; stroke: #ffffff; stroke-linejoin: miter"/>
   </g>
   <g id="patch_7">
    <path d="M 81.276257 35.802093 
C 81.274155 35.803902 81.272054 35.805712 81.269952 35.807521 
C 81.267851 35.809331 81.26575 35.81114 81.263648 35.81295 
L 110.919592 70.147563 
C 110.920433 70.146839 110.921274 70.146115 110.922114 70.145391 
C 110.922955 70.144668 110.923795 70.143944 110.924636 70.14322 
L 81.276257 35.802093 
z
" style="fill: #ababab; stroke: #ffffff; stroke-linejoin: miter"/>
   </g>
   <g id="patch_8">
    <path d="M 81.263648 35.81295 
C 76.017292 40.33113 71.417041 45.547355 67.591947 51.315292 
C 63.766853 57.083229 60.753023 63.348432 58.635006 69.935141 
L 101.868136 83.796439 
C 102.715342 81.161756 103.920874 78.655675 105.450912 76.3485 
C 106.98095 74.041325 108.82105 71.954835 110.919592 70.147563 
L 81.263648 35.81295 
z
" style="fill: #ffbc79; stroke: #ffffff; stroke-linejoin: miter"/>
   </g>
   <g id="patch_9">
    <path d="M 58.635006 69.935141 
C 56.220193 77.44484 54.997656 85.285963 55.011868 93.17327 
C 55.02608 101.060578 56.276867 108.897257 58.718728 116.39823 
C 61.160589 123.899204 64.763552 130.9724 69.39655 137.360515 
C 74.029548 143.74863 79.635713 149.373253 86.011109 154.029775 
C 92.386505 158.686297 99.452875 162.317561 106.953165 164.791471 
C 114.453455 167.265382 122.295601 168.551573 130.194327 168.603255 
C 138.093054 168.654938 145.951407 167.471479 153.483521 165.095928 
C 161.015635 162.720378 168.129056 159.181895 174.565017 154.6092 
C 181.000979 150.036505 186.680482 144.485727 191.396922 138.158786 
C 196.113361 131.831846 199.808845 124.806405 202.348941 117.33803 
C 204.889037 109.869654 206.242567 102.050016 206.360293 94.163571 
C 206.478019 86.277127 205.358496 78.42068 203.042449 70.880026 
C 200.726402 63.339372 197.24226 56.20707 192.716766 49.742574 
C 188.191272 43.278077 182.679975 37.560736 176.383362 32.798531 
C 170.086748 28.036326 163.082106 24.287711 155.624245 21.689051 
C 148.166384 19.090391 140.346847 17.673583 132.450087 17.490167 
L 131.394168 62.81845 
C 134.552872 62.891816 137.680687 63.458539 140.663831 64.498003 
C 143.646976 65.537467 146.448832 67.036913 148.967478 68.941795 
C 151.486123 70.846677 153.690642 73.133614 155.500839 75.719412 
C 157.311037 78.305211 158.704694 81.158132 159.631113 84.174393 
C 160.557531 87.190655 161.005341 90.333234 160.95825 93.487812 
C 160.91116 96.642389 160.369748 99.770245 159.353709 102.757595 
C 158.337671 105.744945 156.859478 108.555122 154.972902 111.085898 
C 153.086326 113.616674 150.814525 115.836985 148.24014 117.666063 
C 145.665755 119.495141 142.820387 120.910534 139.807541 121.860754 
C 136.794696 122.810975 133.651355 123.284358 130.491864 123.263685 
C 127.332374 123.243012 124.195515 122.728536 121.195399 121.738972 
C 118.195283 120.749407 115.368735 119.296902 112.818577 117.434293 
C 110.268418 115.571684 108.025952 113.321835 106.172753 110.766589 
C 104.319554 108.211343 102.878369 105.382064 101.901624 102.381675 
C 100.92488 99.381286 100.424565 96.246614 100.41888 93.091691 
C 100.413195 89.936768 100.90221 86.800319 101.868136 83.796439 
L 58.635006 69.935141 
z
" style="fill: #5f9ed1; stroke: #ffffff; stroke-linejoin: miter"/>
   </g>
   <g id="patch_10">
    <path d="M 132.450087 17.490167 
C 132.156827 17.483356 131.863529 17.478247 131.570209 17.474841 
C 131.276889 17.471435 130.983551 17.469732 130.690211 17.469732 
L 130.690218 62.810276 
C 130.807554 62.810276 130.924889 62.810957 131.042217 62.812319 
C 131.159545 62.813682 131.276864 62.815725 131.394168 62.81845 
L 132.450087 17.490167 
z
" style="fill: #ababab; stroke: #ffffff; stroke-linejoin: miter"/>
   </g>
   <g id="patch_11">
    <path d="M 130.690222 17.469732 
C 122.245117 17.469732 113.859272 18.881268 105.880859 21.645735 
C 97.902446 24.410202 90.443435 28.488802 83.813518 33.712197 
L 102.5642 57.44224 
C 106.54215 54.308203 111.017557 51.861043 115.804604 50.202363 
C 120.591652 48.543683 125.623159 47.696761 130.690222 47.696761 
L 130.690222 17.469732 
z
" style="fill: #fb8072; stroke: #ffffff; stroke-linejoin: miter"/>
   </g>
   <g id="patch_12">
    <path d="M 83.813518 33.712197 
C 83.380944 34.053001 82.952111 34.398513 82.527094 34.74867 
C 82.102078 35.098827 81.680904 35.453608 81.263647 35.812951 
L 101.034277 58.702692 
C 101.284631 58.487087 101.537335 58.274218 101.792345 58.064124 
C 102.047355 57.85403 102.304655 57.646723 102.5642 57.44224 
L 83.813518 33.712197 
z
" style="fill: #bebada; stroke: #ffffff; stroke-linejoin: miter"/>
   </g>
   <g id="patch_13">
    <path d="M 81.263647 35.812951 
C 74.594946 41.55606 68.981054 48.417644 64.675156 56.088249 
C 60.369258 63.758855 57.437073 72.121408 56.010841 80.798761 
C 54.584609 89.476114 54.686098 98.335829 56.310732 106.978337 
C 57.935365 115.620844 61.058346 123.914238 65.53883 131.484488 
C 70.019313 139.054739 75.788916 145.786306 82.587432 151.375599 
C 89.385948 156.964891 97.109614 161.326602 105.410096 164.264021 
C 113.710578 167.201439 122.461189 168.669732 131.267281 168.602681 
C 140.073374 168.53563 148.800543 166.934257 157.055199 163.870785 
C 165.309855 160.807312 172.966009 156.328496 179.678374 150.63633 
C 186.390738 144.944163 192.056864 138.125522 196.421212 130.487925 
C 200.785561 122.850327 203.78152 114.510343 205.273974 105.844102 
C 206.766427 97.17786 206.732597 88.31763 205.174009 79.663004 
C 203.61542 71.008377 200.555861 62.691447 196.133317 55.087302 
C 191.710772 47.483156 185.992742 40.707855 179.237105 35.066962 
C 172.481469 29.426068 164.791335 25.005676 156.513526 22.005143 
C 148.235717 19.00461 139.496572 17.469732 130.690224 17.469732 
L 130.690223 47.696761 
C 135.974032 47.696761 141.217519 48.617688 146.184204 50.418008 
C 151.15089 52.218327 155.76497 54.870563 159.818352 58.255099 
C 163.871734 61.639635 167.302552 65.704816 169.956079 70.267303 
C 172.609605 74.82979 174.445341 79.819948 175.380494 85.012724 
C 176.315647 90.2055 176.335945 95.521638 175.440473 100.721383 
C 174.545001 105.921128 172.747425 110.925118 170.128816 115.507677 
C 167.510207 120.090235 164.110532 124.18142 160.083113 127.59672 
C 156.055694 131.01202 151.462002 133.699309 146.509208 135.537393 
C 141.556415 137.375476 136.320113 138.3363 131.036458 138.37653 
C 125.752802 138.416761 120.502435 137.535785 115.522146 135.773334 
C 110.541857 134.010883 105.907658 131.393857 101.828548 128.040281 
C 97.749439 124.686706 94.287677 120.647766 91.599386 116.105615 
C 88.911096 111.563465 87.037308 106.587429 86.062528 101.401924 
C 85.087748 96.216419 85.026854 90.900591 85.882593 85.694179 
C 86.738333 80.487767 88.497644 75.470235 91.081182 70.867872 
C 93.664721 66.265509 97.033056 62.148558 101.034277 58.702692 
L 81.263647 35.812951 
z
" style="fill: #8dd3c7; stroke: #ffffff; stroke-linejoin: miter"/>
   </g>
   <g id="matplotlib.axis_1"/>
   <g id="matplotlib.axis_2"/>
   <g id="text_1">
    <text style="font: 7px 'sans-serif'" transform="translate(65.160235 12.518906)">Type strain</text>
    <text style="font: 7px 'sans-serif'" transform="translate(73.444298 20.357375)">(21,255)</text>
   </g>
   <g id="text_2">
    <text style="font: 7px 'sans-serif'; text-anchor: middle" x="110.842732" y="37.855612" transform="rotate(-0, 110.842732, 37.855612)">10.6%</text>
   </g>
   <g id="text_3">
    <text style="font: 7px 'sans-serif'" transform="translate(7.2 26.932134)">Latin, no type strain</text>
    <text style="font: 7px 'sans-serif'" transform="translate(52.208906 34.770603)">(1,390)</text>
   </g>
   <g id="text_4">
    <text style="font: 7px 'sans-serif'; text-anchor: middle" x="92.15972" y="48.337959" transform="rotate(-0, 92.15972, 48.337959)">0.7%</text>
   </g>
   <g id="text_5">
    <text style="font: 7px 'sans-serif'" transform="translate(159.691697 168.966461)">Placeholder</text>
    <text style="font: 7px 'sans-serif'" transform="translate(159.691697 176.80493)"> (177,278)</text>
   </g>
   <g id="text_6">
    <text style="font: 7px 'sans-serif'; text-anchor: middle" x="151.782204" y="151.635651" transform="rotate(-0, 151.782204, 151.635651)">88.7%</text>
   </g>
   <g id="legend_1">
    <g id="patch_14">
     <path d="M 220.675518 21.528638 
L 234.675518 21.528638 
L 234.675518 16.628638 
L 220.675518 16.628638 
z
" style="fill: #ffbc79; stroke: #ffffff; stroke-linejoin: miter"/>
    </g>
    <g id="text_7">
     <text style="font: 7px 'sans-serif'; text-anchor: start" x="240.275518" y="21.528638" transform="rotate(-0, 240.275518, 21.528638)">Isolate</text>
    </g>
    <g id="patch_15">
     <path d="M 220.675518 31.803326 
L 234.675518 31.803326 
L 234.675518 26.903326 
L 220.675518 26.903326 
z
" style="fill: #5f9ed1; stroke: #ffffff; stroke-linejoin: miter"/>
    </g>
    <g id="text_8">
     <text style="font: 7px 'sans-serif'; text-anchor: start" x="240.275518" y="31.803326" transform="rotate(-0, 240.275518, 31.803326)">MAG</text>
    </g>
    <g id="patch_16">
     <path d="M 220.675518 42.078013 
L 234.675518 42.078013 
L 234.675518 37.178013 
L 220.675518 37.178013 
z
" style="fill: #ababab; stroke: #ffffff; stroke-linejoin: miter"/>
    </g>
    <g id="text_9">
     <text style="font: 7px 'sans-serif'; text-anchor: start" x="240.275518" y="42.078013" transform="rotate(-0, 240.275518, 42.078013)">SAG</text>
    </g>
   </g>
  </g>
 </g>
</svg>
