<?xml version="1.0" encoding="UTF-8"?>
<svg id="Layer_1" data-name="Layer 1" xmlns="http://www.w3.org/2000/svg" viewBox="0 0 195.22 57">
  <defs>
    <style>
      .cls-1 {
        fill: #fff;
        stroke-width: 0px;
      }
    </style>
  </defs>
  <g>
    <path class="cls-1" d="M77.69,15.43l-.47-1.59s-.05-.07-.09-.07h-4.08s-.07.02-.09.07l-.47,1.59c-.04.12-.12.18-.25.18h-2.74c-.07,0-.13-.02-.16-.06s-.04-.1-.02-.19l3.83-12.1c.04-.12.11-.18.23-.18h3.38c.12,0,.2.06.23.18l3.85,12.1s.02.05.02.09c0,.11-.07.16-.2.16h-2.74c-.13,0-.22-.06-.25-.18ZM73.76,11.48h2.67c.07,0,.1-.04.07-.11l-1.36-4.6s-.03-.07-.05-.06c-.02,0-.04.03-.05.06l-1.34,4.6c-.01.07.01.11.07.11Z"/>
    <path class="cls-1" d="M93.34,15.43l-.47-1.59s-.05-.07-.09-.07h-4.08s-.07.02-.09.07l-.47,1.59c-.04.12-.12.18-.25.18h-2.74c-.07,0-.13-.02-.16-.06s-.04-.1-.02-.19l3.83-12.1c.04-.12.11-.18.23-.18h3.38c.12,0,.2.06.23.18l3.85,12.1s.02.05.02.09c0,.11-.07.16-.2.16h-2.74c-.13,0-.22-.06-.25-.18ZM89.4,11.48h2.67c.07,0,.1-.04.07-.11l-1.36-4.6s-.03-.07-.05-.06c-.02,0-.04.03-.05.06l-1.34,4.6c-.01.07.01.11.07.11Z"/>
    <path class="cls-1" d="M101.12,15.55s-.06-.09-.06-.15V3.29c0-.06.02-.11.06-.15.04-.04.09-.06.15-.06h2.54c.06,0,.11.02.15.06s.06.09.06.15v9.69c0,.06.03.09.09.09h5.71c.06,0,.11.02.15.06.04.04.06.09.06.15v2.11c0,.06-.02.11-.06.15s-.09.06-.15.06h-8.56c-.06,0-.11-.02-.15-.06Z"/>
    <path class="cls-1" d="M122.37,9.2c1.09.57,1.63,1.53,1.63,2.86,0,1.19-.41,2.08-1.24,2.67-.82.58-1.9.88-3.24.88h-4.76c-.06,0-.11-.02-.15-.06-.04-.04-.06-.09-.06-.15V3.29c0-.06.02-.11.06-.15.04-.04.09-.06.15-.06h4.62c1.46,0,2.56.27,3.3.82.75.55,1.12,1.44,1.12,2.67s-.48,2.01-1.43,2.53c-.07.04-.07.07,0,.11ZM117.51,5.71v2.26c0,.06.03.09.09.09h1.77c.49,0,.87-.1,1.13-.31.26-.21.39-.5.39-.89s-.13-.7-.39-.91c-.26-.22-.64-.32-1.13-.32h-1.77c-.06,0-.09.03-.09.09ZM120.63,12.72c.26-.22.39-.54.39-.96s-.13-.72-.39-.94c-.26-.22-.63-.33-1.12-.33h-1.92c-.06,0-.09.03-.09.09v2.38c0,.06.03.09.09.09h1.92c.48,0,.85-.11,1.11-.33Z"/>
    <path class="cls-1" d="M130.94,15.23c-.73-.39-1.3-.93-1.71-1.64s-.61-1.52-.61-2.45v-3.58c0-.91.2-1.71.61-2.41.41-.7.98-1.24,1.71-1.63s1.58-.58,2.55-.58,1.82.19,2.56.58,1.31.93,1.72,1.63c.41.7.61,1.5.61,2.41v3.58c0,.93-.2,1.75-.61,2.45-.41.7-.98,1.25-1.72,1.64s-1.59.58-2.56.58-1.82-.19-2.55-.58ZM134.87,12.71c.35-.37.53-.87.53-1.49v-3.71c0-.61-.18-1.1-.53-1.48-.35-.38-.81-.56-1.39-.56s-1.02.19-1.37.56c-.35.38-.53.87-.53,1.48v3.71c0,.62.18,1.12.53,1.49.35.37.81.56,1.37.56s1.04-.19,1.39-.56Z"/>
    <path class="cls-1" d="M149.62,15.45l-2.11-4.76s-.06-.07-.11-.07h-1.18c-.06,0-.09.03-.09.09v4.69c0,.06-.02.11-.06.15s-.09.06-.15.06h-2.54c-.06,0-.11-.02-.15-.06-.04-.04-.06-.09-.06-.15V3.29c0-.06.02-.11.06-.15.04-.04.09-.06.15-.06h5.32c.79,0,1.48.16,2.08.48.6.32,1.06.78,1.39,1.37.33.59.49,1.27.49,2.03s-.2,1.49-.59,2.08c-.39.59-.94,1.01-1.65,1.27-.06.02-.08.07-.05.13l2.36,4.92s.04.08.04.11c0,.09-.07.14-.2.14h-2.69c-.12,0-.2-.05-.25-.16ZM146.13,5.71v2.54c0,.06.03.09.09.09h1.99c.44,0,.8-.12,1.07-.37.27-.25.41-.57.41-.98s-.14-.75-.41-1c-.27-.25-.63-.38-1.07-.38h-1.99c-.06,0-.09.03-.09.09Z"/>
    <path class="cls-1" d="M159.46,15.18c-.72-.38-1.28-.92-1.68-1.61-.4-.69-.6-1.49-.6-2.4v-3.67c0-.91.2-1.7.6-2.39.4-.69.96-1.22,1.68-1.6.72-.38,1.56-.57,2.52-.57s1.78.18,2.51.55c.73.37,1.29.86,1.69,1.5.4.63.6,1.33.6,2.1v.09c0,.06-.02.11-.06.15-.04.04-.09.06-.15.06h-2.54c-.06,0-.11-.02-.15-.06s-.06-.09-.06-.15c0-.47-.16-.86-.49-1.19s-.77-.49-1.33-.49-.99.18-1.32.54c-.33.36-.5.82-.5,1.4v3.85c0,.57.19,1.04.56,1.4.37.36.83.54,1.4.54.52,0,.95-.14,1.27-.42.32-.28.48-.67.48-1.17v-.5c0-.06-.03-.09-.09-.09h-1.79c-.06,0-.11-.02-.15-.06-.04-.04-.06-.09-.06-.15v-1.97c0-.06.02-.11.06-.15.04-.04.09-.06.15-.06h4.58c.06,0,.11.02.15.06.04.04.06.09.06.15v2.44c0,.9-.2,1.68-.6,2.36-.4.68-.96,1.21-1.68,1.58-.72.37-1.56.55-2.52.55s-1.79-.19-2.52-.57Z"/>
    <path class="cls-1" d="M71.97,37.59c-.72-.37-1.28-.88-1.68-1.55-.4-.67-.6-1.44-.6-2.31v-8.06c0-.06.02-.11.06-.15.04-.04.09-.06.15-.06h2.54c.06,0,.11.02.15.06.04.04.06.09.06.15v8.06c0,.56.16,1.01.49,1.35.33.34.77.51,1.32.51s.97-.17,1.3-.51c.33-.34.49-.79.49-1.35v-8.06c0-.06.02-.11.06-.15.04-.04.09-.06.15-.06h2.54c.06,0,.11.02.15.06.04.04.06.09.06.15v8.06c0,.87-.2,1.64-.59,2.31-.39.67-.95,1.18-1.67,1.55-.72.36-1.55.55-2.5.55s-1.78-.18-2.5-.55Z"/>
    <path class="cls-1" d="M91.31,25.52s.09-.06.15-.06h2.54c.06,0,.11.02.15.06.04.04.06.09.06.15v12.1c0,.06-.02.11-.06.15-.04.04-.09.06-.15.06h-2.44c-.12,0-.2-.05-.25-.14l-4.12-6.84s-.05-.05-.07-.05c-.02,0-.04.03-.04.08l.02,6.73c0,.06-.02.11-.06.15-.04.04-.09.06-.15.06h-2.54c-.06,0-.11-.02-.15-.06-.04-.04-.06-.09-.06-.15v-12.1c0-.06.02-.11.06-.15s.09-.06.15-.06h2.45c.12,0,.2.05.25.14l4.1,6.82s.05.05.07.05c.02,0,.03-.03.03-.08l-.02-6.72c0-.06.02-.11.06-.15Z"/>
    <path class="cls-1" d="M99.28,37.93s-.06-.09-.06-.15v-12.1c0-.06.02-.11.06-.15s.09-.06.15-.06h2.54c.06,0,.11.02.15.06.04.04.06.09.06.15v12.1c0,.06-.02.11-.06.15-.04.04-.09.06-.15.06h-2.54c-.06,0-.11-.02-.15-.06Z"/>
    <path class="cls-1" d="M110.37,37.81l-3.62-12.1-.02-.07c0-.12.07-.18.2-.18h2.74c.13,0,.21.06.25.18l2.06,8.15s.03.05.05.05.04-.02.05-.05l2.02-8.15c.04-.12.12-.18.25-.18h2.69c.07,0,.13.02.16.07s.04.11.02.18l-3.67,12.1c-.04.12-.11.18-.23.18h-2.72c-.12,0-.2-.06-.23-.18Z"/>
    <path class="cls-1" d="M130.54,27.94s-.09.06-.15.06h-5.62c-.06,0-.09.03-.09.09v2.2c0,.06.03.09.09.09h3.6c.06,0,.11.02.15.06.04.04.06.09.06.15v2.1c0,.06-.02.11-.06.15-.04.04-.09.06-.15.06h-3.6c-.06,0-.09.03-.09.09v2.36c0,.06.03.09.09.09h5.62c.06,0,.11.02.15.06.04.04.06.09.06.15v2.11c0,.06-.02.11-.06.15-.04.04-.09.06-.15.06h-8.47c-.06,0-.11-.02-.15-.06-.04-.04-.06-.09-.06-.15v-12.1c0-.06.02-.11.06-.15s.09-.06.15-.06h8.47c.06,0,.11.02.15.06.04.04.06.09.06.15v2.11c0,.06-.02.11-.06.15Z"/>
    <path class="cls-1" d="M141.72,37.83l-2.11-4.76s-.06-.07-.11-.07h-1.18c-.06,0-.09.03-.09.09v4.69c0,.06-.02.11-.06.15-.04.04-.09.06-.15.06h-2.54c-.06,0-.11-.02-.15-.06-.04-.04-.06-.09-.06-.15v-12.1c0-.06.02-.11.06-.15s.09-.06.15-.06h5.32c.79,0,1.48.16,2.08.48.6.32,1.06.78,1.39,1.37s.49,1.27.49,2.03-.2,1.49-.59,2.08-.94,1.01-1.65,1.27c-.06.02-.08.07-.05.13l2.36,4.92s.04.08.04.11c0,.1-.07.14-.2.14h-2.69c-.12,0-.2-.05-.25-.16ZM138.23,28.09v2.54c0,.06.03.09.09.09h1.99c.44,0,.8-.12,1.07-.37.27-.25.41-.57.41-.98s-.14-.75-.41-1c-.27-.25-.63-.38-1.07-.38h-1.99c-.06,0-.09.03-.09.09Z"/>
    <path class="cls-1" d="M151.44,37.66c-.73-.32-1.3-.77-1.7-1.36s-.6-1.27-.6-2.05v-.34c0-.06.02-.11.06-.15s.09-.06.15-.06h2.49c.06,0,.11.02.15.06s.06.09.06.15v.21c0,.39.2.74.59,1.03.39.29.92.44,1.59.44.53,0,.91-.11,1.16-.34.25-.23.38-.49.38-.79,0-.24-.07-.43-.22-.58-.15-.15-.35-.27-.6-.38-.25-.1-.64-.24-1.16-.42-.07-.04-.14-.06-.22-.08-.07-.02-.14-.04-.2-.06-.78-.25-1.45-.52-2.02-.81-.57-.29-1.06-.7-1.47-1.22s-.61-1.16-.61-1.92.19-1.39.58-1.94c.39-.55.93-.98,1.62-1.28s1.47-.45,2.35-.45c.92,0,1.75.17,2.48.5s1.31.81,1.73,1.42c.42.61.63,1.31.63,2.09v.25c0,.06-.02.11-.06.15-.04.04-.09.06-.15.06h-2.49c-.06,0-.11-.02-.15-.06s-.06-.09-.06-.15v-.13c0-.42-.18-.79-.55-1.11-.37-.32-.87-.48-1.49-.48-.47,0-.83.1-1.09.29-.26.19-.39.46-.39.81,0,.26.08.48.25.65.17.17.43.33.78.48.35.15.89.34,1.62.58.83.29,1.49.54,1.95.75s.9.56,1.32,1.05c.41.48.62,1.12.62,1.91s-.2,1.44-.59,2.01c-.39.56-.95.99-1.66,1.3-.71.3-1.54.46-2.48.46-.99,0-1.85-.16-2.59-.47Z"/>
    <path class="cls-1" d="M163.49,37.93s-.06-.09-.06-.15v-12.1c0-.06.02-.11.06-.15s.09-.06.15-.06h2.54c.06,0,.11.02.15.06.04.04.06.09.06.15v12.1c0,.06-.02.11-.06.15-.04.04-.09.06-.15.06h-2.54c-.06,0-.11-.02-.15-.06Z"/>
    <path class="cls-1" d="M180.6,25.52s.06.09.06.15v2.13c0,.06-.02.11-.06.15-.04.04-.09.06-.15.06h-3.13c-.06,0-.09.03-.09.09v9.67c0,.06-.02.11-.06.15-.04.04-.09.06-.15.06h-2.54c-.06,0-.11-.02-.15-.06-.04-.04-.06-.09-.06-.15v-9.67c0-.06-.03-.09-.09-.09h-3.03c-.06,0-.11-.02-.15-.06-.04-.04-.06-.09-.06-.15v-2.13c0-.06.02-.11.06-.15s.09-.06.15-.06h9.31c.06,0,.11.02.15.06Z"/>
    <path class="cls-1" d="M188.55,37.89s-.06-.09-.06-.15v-4.24s0-.08-.02-.11l-3.67-7.68s-.04-.08-.04-.11c0-.1.07-.14.2-.14h2.76c.12,0,.2.05.25.16l1.95,4.53c.04.07.07.07.11,0l1.97-4.53c.05-.11.13-.16.25-.16h2.78c.08,0,.14.02.17.06.03.04.03.1,0,.19l-3.72,7.68s-.02.06-.02.11v4.24c0,.06-.02.11-.06.15-.04.04-.09.06-.15.06h-2.52c-.06,0-.11-.02-.15-.06Z"/>
  </g>
  <g>
    <path class="cls-1" d="M53.78,43.27c-1.45-.66-2.9-.93-5.37-2.69-6.29-4.46-9.12-9.63-5.09-20.55,2.32-6.3,3.27-10.94,3.14-17.06-.08-.06-.38-.26-.46-.32-1.25,7.6-3.35,11.35-8.07,19.01-10.68,17.34-.64,27.95,4.1,31.78,4.39-2.11,8.99-5.77,11.75-10.16Z"/>
    <path class="cls-1" d="M32.88,21.06c7.44-9.41,10.49-13.34,11.15-19.66-.08-.05-.31-.17-.4-.21-2.02,7.63-6.19,10.97-18.64,19.58s-12.49,22.45-8.96,32.3c4,2.05,8.54,3.22,13.34,3.22,1.02,0,2.04-.05,3.03-.16-8.91-14.25-8.21-24.1.47-35.07Z"/>
    <path class="cls-1" d="M27.8,13.92c8.45-4.18,12.19-8.36,13.85-13.75-.07-.04-.39-.18-.4-.17-4.78,8.2-10.72,8.8-24.23,11.06-7.76,1.3-11.98,4.69-16.34,9.46C.28,22.23,0,24.97,0,26.8c.01,7.03,2.41,13.68,6.74,18.83.24-22.02,10.51-26.48,21.07-31.71Z"/>
  </g>
  <g>
    <path class="cls-1" d="M70.79,46.49h2.04c2.48,0,3.83,1.48,3.83,4.1s-1.35,4.17-3.78,4.17h-2.09v-8.27ZM72.75,53.88c1.88,0,2.81-1.21,2.81-3.3s-.93-3.23-2.81-3.23h-.91v6.53h.91Z"/>
    <path class="cls-1" d="M81.91,46.49h5.12v.9h-4.06v2.58h3.43v.89h-3.43v3h4.18v.89h-5.24v-8.27Z"/>
    <path class="cls-1" d="M92.29,46.49h1.16l2.65,5.19.79,1.71h.03c-.04-.82-.14-1.75-.14-2.62v-4.29h1.01v8.27h-1.16l-2.65-5.19-.79-1.71h-.03c.04.84.14,1.73.14,2.58v4.32h-1.01v-8.27Z"/>
    <path class="cls-1" d="M102.95,46.49h1.29l1.16,3.53.4,1.34h.05l.39-1.34,1.17-3.53h1.29v8.27h-1.01v-4.13c0-.81.13-2.22.18-2.92h-.04l-.47,1.61-1.18,3.25h-.76l-1.16-3.25-.48-1.61h-.03c.08.71.18,2.12.18,2.92v4.13h-.98v-8.27Z"/>
    <path class="cls-1" d="M116.01,46.49h1.21l2.79,8.27h-1.13l-1.42-4.61c-.29-.92-.57-1.83-.82-2.79h-.05c-.26.96-.53,1.87-.82,2.79l-1.45,4.61h-1.08l2.79-8.27ZM114.7,51.39h3.79v.86h-3.79v-.86Z"/>
    <path class="cls-1" d="M124.86,46.49h2.58c1.68,0,2.9.61,2.9,2.33s-1.22,2.45-2.9,2.45h-1.51v3.49h-1.07v-8.27ZM127.3,50.41c1.29,0,1.99-.53,1.99-1.59s-.71-1.47-1.99-1.47h-1.36v3.06h1.36ZM128.07,50.42l2.52,4.34h-1.2l-2.16-3.78.83-.55Z"/>
    <path class="cls-1" d="M135.62,46.49h1.07v4.13h.04l3.47-4.13h1.21l-4.71,5.63v2.63h-1.07v-8.27ZM137.97,50.14l.64-.83,3.1,5.44h-1.2l-2.55-4.61Z"/>
  </g>
</svg>
