<svg xmlns="http://www.w3.org/2000/svg" viewBox="0 0 1445.49 1037.35"><path d="M610.81,1035.55c-.22-1-3.74-24.66-7.82-52.6s-7.47-50.89-7.54-51-4.33.4-9.47,1.13c-7.45,1.06-11.93,2-11.92,3-69.79-12.69-61.93,2.44-131.16-7-3.4-2-22.27-6.38-23.13-5.42-.36.41-16.51,54-29.12,96.66l-1.22,4.14-3-.78c-11-2.84-26.24-7.47-26.46-8-.15-.37-.64-.44-1.09-.16a1,1,0,0,1-1.33-.28c-.28-.43-4.65-2.14-9.71-3.81s-9.92-3.41-10.8-3.89a15.83,15.83,0,0,0-2-1c-1.85-.39-4.8-2.42-4.52-3.11,5.39-13.39,39.17-96.21,39.38-96.55s-1.72-1.27-4.19-2.22c-10-3.83-26.67-11.52-26.67-12.31,0-.47-.23-.62-.5-.35s-1,0-1.63-.65a12.33,12.33,0,0,0-4.31-2c-1.74-.47-3.16-1.14-3.16-1.49,0-.65-3.52-2.5-4.75-2.5-.37,0-7.43,12.51-15.68,27.8s-15.08,27.89-15.16,28c-.38.52-26.81-15.18-37.93-22.53-15-9.88-37.7-26.81-37.64-28,0-.47,8.82-12,19.55-25.66l19.5-24.8-3.75-3.41c-2.06-1.87-4.72-4.14-5.92-5l-2.17-1.63L228.87,851c-50.93,64.18-48.15,60.82-49.71,60-.8-.43-6.8-5.93-13.33-12.22-13.19-12.7-12.59-12.1-19-18.8l-4.58-4.81,34.81-39.35,34.82-39.34-3.76-4.4c-2.06-2.41-4-4.29-4.37-4.17s-9.14,9.41-19.56,20.63S164,830.33,162.31,832l-3,3.06-8.22-9.86a497.14,497.14,0,0,1-43.6-61.1c-3.38-5.6-5.85-10.43-5.5-10.74s12.83-7.71,27.71-16.46c26.64-15.67,27.06-15.95,26.61-18.18-.54-2.73-2.52-4.88-4-4.32-.58.22-20.71,11.42-44.74,24.88s-44,24.47-44.44,24.47-3.21-5-6.21-11-5.76-11.22-6.15-11.49a1.93,1.93,0,0,1-.76-1.2,40.59,40.59,0,0,0-1.93-4.93,33.16,33.16,0,0,1-1.87-4.83c0-.34,16.65-8.31,37-17.73s41.42-19.2,46.82-21.74l9.82-4.62-1.24-3a32.86,32.86,0,0,0-1.48-3.22c-.13-.12-13.53,5.67-29.78,12.87L77.85,706l-2.11-4.5c-3.73-8-12.48-32.11-16.7-46.11C54.11,639,48.37,616,48.88,614.7c.2-.53,4.28-1.62,9.07-2.43,13.5-2.28,54-10,54.38-10.34.18-.17-.38-3.68-1.24-7.78s-2.39-13.53-3.4-20.94l-1.84-13.46-3.6.46c-11.87,1.52-99.62,12.11-99.7,12C1.74,571.52.38,543.37.07,521c-.33-23.78.54-53.59,1.58-54.43.11-.09,23.22,2.3,51.36,5.31s51.32,5.31,51.51,5.12a19.69,19.69,0,0,0,.24-4.79,17.37,17.37,0,0,1,.63-5.83c.41-.76,1.15-5,1.64-9.51s1.55-12,2.36-16.8,1.24-8.89,1-9.17-14.52-3.07-31.66-6.22-31.24-5.81-31.34-5.91.84-4.68,2.08-10.17a491.09,491.09,0,0,1,27.36-85.2c5.15-12.16,20.59-43.62,21.37-43.56.27,0,12.91,6.63,28.09,14.67s28,14.48,28.53,14.3a3.24,3.24,0,0,0,1.37-2.12,13.31,13.31,0,0,1,2.47-4.14c1.91-2.22,2.34-3.14,2.12-4.55-.05-.33.27-.6.71-.6s.8-.52.8-1.17a4.74,4.74,0,0,1,1.49-2.6,13.58,13.58,0,0,0,2.57-4.43c.58-1.65,1.34-3,1.68-3s1.15-1,1.79-2.27l1.18-2.27L149.2,267.72c-12-7.64-24-15.38-26.75-17.2l-5-3.31,6.09-8.73c3.35-4.8,7-9.9,8-11.33l2-2.6,5.36,4.25c3,2.34,14.22,11.12,25.06,19.51l19.7,15.27,2.78-3.72a31.88,31.88,0,0,0,3.27-5.1c.39-1.1,13-8.57,10.81-13.22,0,0,10.15-12.19,10.4-12.19.76,0,4.94-4.25,4.94-5,0-.41.9-1.45,2-2.31s2-1.9,2-2.29-9.54-10.78-21.2-23.08-21.2-22.7-21.2-23.12c0-1,19.7-19.38,32.14-30A491.57,491.57,0,0,1,319.85,73.33c11.28-5.15,24.15-10.5,24.45-10.17.1.1,5.3,12.61,11.56,27.79s11.48,27.71,11.59,27.83c.35.42,9.21-3.54,9.3-3.63s3.06-.92,2.43-2.55c3.93-2,5.13.67,7.46-1l36.48-10.72c2.35-.07,4.41-.52,4.57-1S429,99,430.31,99s2.34-.35,2.34-.77,1.81-1,4-1.31c3.19-.42,3.94-.8,3.64-1.82-.44-1.49-9.81-52.26-10.2-55.3-.26-2-.18-2,12.54-4.14a434.71,434.71,0,0,1,77.29-6.26H541.4l-.39,6.2c-.6,9.52-2,43.06-2,48.32v4.68h6.2c3.41,0,10.16.35,15,.76s12.52,1,17.06,1.19,8.82.75,9.51,1.13a4.33,4.33,0,0,0,2.79.3,5.61,5.61,0,0,1,3.29.45c1.77.85,14.26,3.15,20.15,3.69,5.08.48,9.18,1.39,9.65,2.16a2.46,2.46,0,0,0,1.87.71,11.15,11.15,0,0,1,3.75,1.13,23,23,0,0,0,5.78,1.58c4.14.55,9.84,2,10.95,2.83a38.93,38.93,0,0,0,6,2.07c2.86.81,5.3,1.55,5.42,1.62a53,53,0,0,1-2.6,6.84,54.8,54.8,0,0,0-2.82,7.62,6.79,6.79,0,0,1-1.51,2.8c-1.15,1.41-1.77,1.65-2.6,1-1.46-1.16-5.46-2.29-12.49-3.52-3.19-.56-5.8-1.31-5.8-1.66s-.54-.44-1.2-.19a1.27,1.27,0,0,1-1.65-.74,1.56,1.56,0,0,0-1.91-.81,1.91,1.91,0,0,1-2-.49,3.53,3.53,0,0,0-2.62-.87c-3,0-16.58-2.65-16.86-3.29-.13-.3-.94-.35-1.8-.13a3.33,3.33,0,0,1-2.57-.37c-1.32-1-11-2.4-21.59-3-4.73-.29-8.6-.76-8.6-1s-1.81-.39-4-.24a17.63,17.63,0,0,1-5.4-.28c-.76-.31-4.32-.5-7.91-.43-3.87.07-6.73-.22-7-.72s-1.58-.85-2.86-.85c-1.79,0-2.43.43-2.7,1.8-.2,1-.94,17.1-1.63,35.8s-1.48,36.43-1.74,39.4l-.46,5.4H518.77a312.93,312.93,0,0,0-49.86,4c-5.15.88-9.6,1.33-9.9,1s-3.71-17.95-7.59-39.14l-7.05-38.53-2.26-.33c-1.25-.18-2.26,0-2.26.33s-1.44.66-3.2.66-3.2.36-3.2.8-.7.8-1.56.8a2.65,2.65,0,0,0-2,.71c-.24.39-1.7,1-3.24,1.24a8.77,8.77,0,0,0-2.81.77c0,.13-39.62,12.57-40,12.19s-1.82-.13-3.27.6a12.28,12.28,0,0,1-3.67,1.29,1.23,1.23,0,0,0-1.07,1.34c0,.73,6.69,17.5,14.86,37.26s14.75,36,14.6,36.18-3.32,1.45-7.06,2.91c-10.38,4-34.38,16.4-46,23.66a322.78,322.78,0,0,0-55,43.09c-5.16,5-9.55,9.16-9.75,9.16s-12.3-12.6-26.88-28l-26.52-28-2.84,3a47.56,47.56,0,0,0-4.06,4.84c-1.12,1.7-1.8,2.82-.41,4.13.84.78-19.67,19.66-19.78,19.81-5,6.57-7.29,10-6.71,10.53.4.36,12.61,9.77,27.13,20.91s27.91,21.45,29.76,22.93l3.36,2.68L257,328.17c-2,2.85-4,5.18-4.4,5.18s-14.85-9-32.06-20-31.6-20.11-32-20.2-1.31.91-2.07,2.21a24.44,24.44,0,0,1-2.48,3.56,11.59,11.59,0,0,0-1.87,3.42c-.44,1.24-1.11,2.25-1.51,2.25s-.72.51-.72,1.14a3.77,3.77,0,0,1-1,2.2,15.21,15.21,0,0,0-2.14,3.77,18.68,18.68,0,0,1-3,4.75c-1.41,1.53-1.62,2.18-.85,2.58l33.43,17.55c17.82,9.36,32.69,17.27,33,17.59s-2.39,6.67-6.1,14.1a324.52,324.52,0,0,0-24.95,67.64c-1.52,6.23-2.94,11.49-3.14,11.7s-16.86-2.69-37-6.43-36.76-6.69-36.91-6.56-1.05,5-2,10.9-2,11.13-2.4,11.7-.86,5.88-1.11,11.8c-.43,10.2-.37,10.77,1.07,10.79,2.37,0,50.06,5.46,50.33,5.73s-.12,4.93-.57,10.65c-.87,11.25-.43,31.61,1,45.47.49,4.76.71,8.84.49,9.06s-49.16,6.56-51.92,6.65c-.71,0,.2,9.85,1,10.42.51.38,3,15.29,4,23.6.88,7.74-2.43,7.77,37.7-.38,19.56-4,36-7.22,36.47-7.22s1.55,2.61,2.32,5.8A347.73,347.73,0,0,0,222.89,637l1.63,4.07-33.34,14.67c-18.33,8.07-33.65,15-34.05,15.28s-.13,1.83.63,3.43c1.15,2.44,1.58,2.73,3.11,2.12,1-.39,11.5-5.21,23.38-10.71l21.6-10,5.32,10.94c4,8.16,5.09,11.16,4.4,11.81-.51.48-6.32,3.86-12.92,7.52s-16.41,9.13-21.79,12.17l-9.78,5.52,2.1,3.17c1.93,2.93,2.23,3.09,3.78,2.1,6-3.85,62-36.55,62.59-36.55.39,0,1.6,1.7,2.7,3.77,3,5.6,15.07,23.85,21.64,32.63l5.75,7.69-1.6,1.75c-.88,1-12.44,13.42-25.7,27.67s-24.09,26.13-24.09,26.4c0,.78,6.46,8.09,7.14,8.09.33,0,8.25-8.65,17.6-19.23l17-19.23,2.53,3.06c3.08,3.71,14.17,15.44,21.53,22.79,3,3,5.41,5.68,5.41,6s-6.7,9.08-14.89,19.41-15.1,19.29-15.35,19.92c-.6,1.52,9.39,10.55,10.8,9.76.56-.31,11.13-13.51,23.48-29.34s22.75-28.87,23.1-29,2.58,1.34,5,3.27a335.92,335.92,0,0,0,42.52,28.52l6.21,3.4-4.17,7.72c-2.3,4.24-10.4,19.23-18,33.31S334.25,866.75,334.25,867s1.62,1.12,3.6,1.88,3.6,1.7,3.6,2.11.54.73,1.2.73,1.2.36,1.2.8.27.74.6.67c.95-.21,8,3.11,8.54,4,.29.47,2.37,1.39,4.61,2.06a36.19,36.19,0,0,1,6.61,2.7c2.51,1.48,13.22,5.23,13.64,4.77.13-.13,4.29-10.32,9.25-22.64s9.12-22.53,9.24-22.68c.24-.34,15.64,5,19.34,6.76,2.86,1.33,21.42,6.72,23.13,6.72.57,0,1,.27,1,.6s-3.21,11.14-7.1,24-6.85,23.54-6.58,23.7,3.47.92,7.1,1.7,6.6,1.63,6.6,1.89,1.74.57,3.86.67l3.85.19,44.71,1.71c20.93.8,30.88-20.71,32.85.73s49.43,3.66,49.48,3.75,17.56-2.19,17.76-2.42-1.46-10.76-3.39-23.74-3.37-24-3.19-24.49,2.25-1.13,4.6-1.42c5.45-.68,20.7-3.62,22.27-4.29a8.49,8.49,0,0,1,2-.58,4.12,4.12,0,0,0,1.6-.57,15.61,15.61,0,0,1,3.6-1l2.8-.52,5.94,23.45c3.26,12.9,6,23.53,6,23.62.14.24,18-5.1,18.34-5.47.14-.17-2.56-9.66-6-21.1-8.1-26.91-7.74-25-5-26,1.24-.45,3-1.17,3.86-1.6s5.64-2.2,10.58-4,10.16-3.81,11.6-4.58,2.8-1.44,3-1.5,2-.83,4-1.74,3.84-1.41,4.15-1.13,5.07,10,10.59,21.63S700,877.8,700.28,878.05s.71.1,1-.32a31.41,31.41,0,0,1,5.76-3.36c10.83-5.39,26.63-13.78,27.89-14.82a31.93,31.93,0,0,1,4.31-2.62c1.65-.85,3-1.84,3-2.21s.45-.39,1-.05c1.32.82,1.23.68-23.37-35.32-11.73-17.16-21.58-31.63-21.9-32.16s1.62-2.43,5.65-5.13c3.42-2.3,10-7,14.52-10.5s8.58-6,8.92-5.67,11.3,15.06,24.36,32.66,24.08,32.12,24.48,32.27,3.61-2.11,7.11-5,6.69-5.27,7.08-5.27a4.81,4.81,0,0,0,2.11-1.56c1.53-1.69,2.73,0-23.6-33.92l-4.44-5.72,15.24-15.27,15.24-15.26,17,16.81,16.95,16.81,3.05-3.24c4.64-4.93,7.45-8.38,7.45-9.15,0-1.82,2.25-.14,8.45,6.3,6.77,7,7.35,7.84,6,8.33a53.17,53.17,0,0,0-5.67,6.19l-5,5.92L881.14,835l38.24,38.25-6.36,6.6c-14.7,15.22-39.46,38.31-41,38.23-.32,0-15.31-19.1-33.31-42.4s-33-42.37-33.38-42.37-1.25.9-2,2-1.7,2-2.19,2a5.51,5.51,0,0,0-2.5,1.6c-.9.88-3.52,3-5.83,4.82s-4.2,3.6-4.2,4.08,7.47,10.91,16.6,23.19S821.93,893.64,822,894c.21.66-11.83,9.82-24.94,19L788.32,919l-1.4-1.85c-.76-1-8.16-11.82-16.43-24-13.37-19.7-17-24.31-17-21.38,0,.46-.3.66-.66.44s-1.26.29-2,1.15a4.35,4.35,0,0,1-2.54,1.56c-.67,0-1.21.28-1.21.62s-1.71,1.5-3.8,2.59a37.68,37.68,0,0,0-5.6,3.52c-1,.85-1.8,1.28-1.8,1,0-.73-9,4.28-9.79,5.47-.32.47-.59.55-.6.19s-2.08.49-4.61,1.9-6.33,3.43-8.44,4.48-3.65,2.21-3.44,2.56c1.06,1.71,45.28,95.57,45.28,96.11,0,.34-1.17,1.09-2.6,1.67a11.73,11.73,0,0,0-3,1.57c-.22.28-5.26,2.42-11.2,4.75s-11,4.58-11.31,5a1,1,0,0,1-1.33.3c-.46-.28-.95-.2-1.09.17s-5,2.24-10.67,4.13-10.63,3.79-10.91,4.22a1,1,0,0,1-1.4.23c-.49-.3-.89-.13-.89.39s-.54.72-1.2.47-1.2-.19-1.2.15c0,.58-7.21,2.83-7.61,2.36-.11-.12-7-23.08-15.37-51-14.8-49.6-15.21-50.8-17.09-50.6-1.06.11-5.47,1.18-9.8,2.37-7.61,2.1-7.85,2.24-7.42,4.2.25,1.12,6.18,24.61,13.19,52.22l12.75,50.19-2.93.76c-1.61.43-9.22,2.08-16.92,3.68s-14.72,3.22-15.6,3.6c-1.4.62-16.41,3.18-18.61,3.18-.45,0-1-.81-1.23-1.8Z" style="fill:#fff"/><g style="isolation:isolate"><path d="M466.48,699.79V594.42h78.13v17.83H487.76v23.36h52.9v17.75h-52.9V682h58.87v17.75Z" style="fill:#fff"/><path d="M635.05,646l-19.91,3.59q-1-6-4.56-9a13.8,13.8,0,0,0-9.24-3,15.11,15.11,0,0,0-12,5.21q-4.49,5.22-4.49,17.43,0,13.59,4.57,19.19a15,15,0,0,0,12.25,5.61,13.64,13.64,0,0,0,9.42-3.27q3.66-3.27,5.17-11.25l19.84,3.38Q633,687.57,624.2,694.55t-23.5,7q-16.76,0-26.7-10.57T564,661.7q0-18.9,10-29.43t27-10.53q13.94,0,22.17,6T635.05,646Z" style="fill:#fff"/><path d="M649.67,660.55a41.26,41.26,0,0,1,5-19.48,33.89,33.89,0,0,1,14-14.37,41.65,41.65,0,0,1,20.3-5q17.32,0,28.39,11.25t11.07,28.42q0,17.33-11.18,28.72t-28.13,11.39a44.24,44.24,0,0,1-20-4.75,32.46,32.46,0,0,1-14.48-13.9Q649.67,673.71,649.67,660.55Zm20.7,1.08q0,11.36,5.39,17.39a17.61,17.61,0,0,0,26.55,0q5.36-6,5.36-17.54,0-11.21-5.36-17.25a17.63,17.63,0,0,0-26.55,0Q670.36,650.28,670.37,661.63Z" style="fill:#fff"/><path d="M746.36,704.82l23.07,2.81c.38,2.68,1.27,4.53,2.66,5.53,1.92,1.44,4.93,2.16,9.06,2.16q7.9,0,11.86-2.37a9.81,9.81,0,0,0,4-5.11c.62-1.67.93-4.77.93-9.27V687.43q-9,12.36-22.85,12.36-15.39,0-24.37-13-7-10.28-7-25.58,0-19.2,9.23-29.33a29.84,29.84,0,0,1,23-10.13q14.16,0,23.36,12.43V623.46h18.9V692q0,13.51-2.23,20.2a25,25,0,0,1-6.25,10.49,27.69,27.69,0,0,1-10.75,6,56.78,56.78,0,0,1-17,2.15q-19.41,0-27.53-6.65a20.83,20.83,0,0,1-8.12-16.85C746.29,706.6,746.31,705.78,746.36,704.82Zm18-44.77q0,12.13,4.71,17.79a14.53,14.53,0,0,0,11.6,5.64,16,16,0,0,0,12.51-5.79q5.1-5.78,5.1-17.14,0-11.87-4.88-17.61a15.55,15.55,0,0,0-12.37-5.75,14.89,14.89,0,0,0-12,5.64Q764.4,648.47,764.4,660.05Z" style="fill:#fff"/><path d="M886.32,675.5l20.12,3.38q-3.87,11.07-12.25,16.85t-21,5.79q-19.9,0-29.47-13-7.54-10.43-7.55-26.31,0-19,9.92-29.72t25.09-10.74q17,0,26.88,11.25t9.41,34.46h-50.6q.23,9,4.89,14a15.3,15.3,0,0,0,11.64,5,12.37,12.37,0,0,0,8-2.58Q884.67,681.25,886.32,675.5Zm1.15-20.41q-.21-8.77-4.53-13.34a13.89,13.89,0,0,0-10.49-4.56A14,14,0,0,0,861.52,642q-4.31,4.82-4.24,13.08Z" style="fill:#fff"/><path d="M997.39,699.79h-20.2V660.84c0-8.24-.43-13.58-1.29-16a11.28,11.28,0,0,0-4.21-5.65,12,12,0,0,0-7-2,16.24,16.24,0,0,0-9.41,2.87,14.5,14.5,0,0,0-5.71,7.62Q948,652.44,948,665.22v34.57h-20.2V623.46h18.76v11.21q10-12.93,25.16-12.93a30.42,30.42,0,0,1,12.22,2.4,20.5,20.5,0,0,1,8.37,6.15,22.26,22.26,0,0,1,3.95,8.48,62.55,62.55,0,0,1,1.12,13.59Z" style="fill:#fff"/><path d="M1017.18,660.55a41.26,41.26,0,0,1,5-19.48,33.89,33.89,0,0,1,14.05-14.37,41.65,41.65,0,0,1,20.3-5q17.33,0,28.39,11.25T1096,661.41q0,17.33-11.18,28.72t-28.13,11.39a44.24,44.24,0,0,1-20-4.75,32.46,32.46,0,0,1-14.48-13.9Q1017.18,673.71,1017.18,660.55Zm20.7,1.08q0,11.36,5.39,17.39a17.61,17.61,0,0,0,26.55,0q5.36-6,5.36-17.54,0-11.21-5.36-17.25a17.63,17.63,0,0,0-26.55,0Q1037.87,650.28,1037.88,661.63Z" style="fill:#fff"/><path d="M1114.23,623.46h18.61v10.42q10-12.14,23.79-12.14a25.59,25.59,0,0,1,12.73,3,23.2,23.2,0,0,1,8.84,9.12,35.19,35.19,0,0,1,10.85-9.12,26.51,26.51,0,0,1,12.43-3,27.8,27.8,0,0,1,14.24,3.41,20.94,20.94,0,0,1,8.69,10q2.08,4.89,2.09,15.81v48.8h-20.2V656.17q0-11.35-2.08-14.67-2.81-4.31-8.63-4.31a13.73,13.73,0,0,0-8,2.59,14.32,14.32,0,0,0-5.39,7.58q-1.65,5-1.65,15.78v36.65h-20.2V658c0-7.42-.36-12.22-1.08-14.37a9.19,9.19,0,0,0-3.34-4.82,10.6,10.6,0,0,0-6.14-1.58,14.69,14.69,0,0,0-8.41,2.52A13.72,13.72,0,0,0,1136,647q-1.62,4.74-1.62,15.74v37.08h-20.19Z" style="fill:#fff"/><path d="M1250.6,613.11V594.42h20.19v18.69Zm0,86.68V623.46h20.19v76.33Z" style="fill:#fff"/><path d="M1362,646l-19.91,3.59q-1-6-4.56-9a13.8,13.8,0,0,0-9.24-3,15.11,15.11,0,0,0-12,5.21q-4.49,5.22-4.49,17.43,0,13.59,4.57,19.19a15,15,0,0,0,12.25,5.61,13.64,13.64,0,0,0,9.42-3.27q3.66-3.27,5.17-11.25l19.84,3.38q-3.09,13.65-11.86,20.63t-23.5,7q-16.76,0-26.7-10.57t-10-29.25q0-18.9,10-29.43t27-10.53q13.93,0,22.17,6T1362,646Z" style="fill:#fff"/><path d="M1374.19,678l20.27-3.09a14.8,14.8,0,0,0,5.25,9q3.94,3.06,11.07,3.06,7.83,0,11.78-2.88a6.4,6.4,0,0,0,2.66-5.39,5.35,5.35,0,0,0-1.43-3.81c-1-1-3.26-1.84-6.76-2.66q-24.43-5.38-31-9.84a19.67,19.67,0,0,1-9.06-17.18,21.21,21.21,0,0,1,7.84-16.68q7.83-6.75,24.29-6.75,15.68,0,23.29,5.1t10.49,15.09l-19,3.53a11.79,11.79,0,0,0-4.64-6.83q-3.42-2.37-9.74-2.37-8,0-11.43,2.22a4.8,4.8,0,0,0-2.3,4.1,4.46,4.46,0,0,0,2,3.67q2.73,2,18.86,5.67t22.54,9q6.32,5.39,6.32,15,0,10.5-8.77,18t-25.94,7.55q-15.6,0-24.69-6.33A29.09,29.09,0,0,1,1374.19,678Z" style="fill:#fff"/></g><g style="isolation:isolate"><path d="M403.85,397.6H380.71l-9.2-23.93H329.39l-8.7,23.93H298.12l41-105.37h22.5Zm-39.17-41.68-14.52-39.1-14.23,39.1Z" style="fill:#fff"/><path d="M469.21,397.6V386.17a29.47,29.47,0,0,1-11,9.64,30.83,30.83,0,0,1-14.34,3.52,28,28,0,0,1-13.8-3.38,19.87,19.87,0,0,1-8.84-9.49q-2.75-6.1-2.74-16.89v-48.3h20.2v35.08q0,16.09,1.12,19.73a10.74,10.74,0,0,0,4.06,5.75,12.48,12.48,0,0,0,7.47,2.12,15.9,15.9,0,0,0,9.27-2.84,14.45,14.45,0,0,0,5.61-7.05q1.51-4.2,1.51-20.59v-32.2H488V397.6Z" style="fill:#fff"/><path d="M505.74,375.82,526,372.73a14.8,14.8,0,0,0,5.25,8.95q3.94,3.06,11.06,3.06,7.84,0,11.79-2.88a6.42,6.42,0,0,0,2.66-5.39,5.31,5.31,0,0,0-1.44-3.81c-1-1-3.25-1.84-6.75-2.66q-24.44-5.38-31-9.84A19.67,19.67,0,0,1,508.54,343a21.18,21.18,0,0,1,7.84-16.68q7.83-6.75,24.29-6.75,15.68,0,23.29,5.1t10.49,15.09l-19,3.53a11.76,11.76,0,0,0-4.64-6.83q-3.42-2.37-9.74-2.37-8,0-11.43,2.22a4.8,4.8,0,0,0-2.3,4.1,4.46,4.46,0,0,0,2,3.67q2.73,2,18.86,5.67t22.54,9q6.31,5.38,6.32,15,0,10.5-8.77,18t-25.95,7.55q-15.59,0-24.68-6.33A29.09,29.09,0,0,1,505.74,375.82Z" style="fill:#fff"/><path d="M633.7,321.27v16.1H619.9v30.76q0,9.35.39,10.89a4.49,4.49,0,0,0,1.8,2.55,5.65,5.65,0,0,0,3.42,1,26.3,26.3,0,0,0,8.12-1.94l1.72,15.67a40.15,40.15,0,0,1-16,3,25.14,25.14,0,0,1-9.85-1.84,14.33,14.33,0,0,1-6.43-4.74,18.54,18.54,0,0,1-2.84-7.87q-.64-3.53-.65-14.23V337.37h-9.27v-16.1h9.27V306.11l20.27-11.79v26.95Z" style="fill:#fff"/><path d="M671,397.6H650.83V321.27h18.76v10.85q4.81-7.68,8.66-10.13a15.9,15.9,0,0,1,8.73-2.44,25.66,25.66,0,0,1,13.3,3.81L694,341q-5.1-3.32-9.48-3.31a11.24,11.24,0,0,0-7.19,2.33q-3,2.34-4.64,8.45T671,374Z" style="fill:#fff"/><path d="M728,344.56l-18.33-3.31q3.09-11.07,10.64-16.38t22.43-5.32q13.5,0,20.12,3.19t9.31,8.13q2.7,4.92,2.69,18.07l-.21,23.58a81.55,81.55,0,0,0,1,14.84,43.5,43.5,0,0,0,3.63,10.24h-20q-.79-2-1.94-6-.51-1.8-.72-2.37a36.33,36.33,0,0,1-11.07,7.54A31.65,31.65,0,0,1,733,399.33q-11.79,0-18.58-6.4a21.24,21.24,0,0,1-6.79-16.17,21.74,21.74,0,0,1,3.09-11.54,20.27,20.27,0,0,1,8.66-7.76q5.57-2.7,16.06-4.71,14.16-2.65,19.63-5v-2q0-5.82-2.88-8.3T741.34,335q-5.4,0-8.41,2.12T728,344.56Zm27,16.39q-3.89,1.29-12.29,3.09t-11,3.52a8.41,8.41,0,0,0-3.95,7.11A9.91,9.91,0,0,0,731,382a11,11,0,0,0,8,3.09,17.48,17.48,0,0,0,10.42-3.6,12.7,12.7,0,0,0,4.82-6.68c.52-1.73.79-5,.79-9.85Z" style="fill:#fff"/><path d="M798.79,397.6V292.23H819V397.6Z" style="fill:#fff"/><path d="M843.66,310.92V292.23h20.2v18.69Zm0,86.68V321.27h20.2V397.6Z" style="fill:#fff"/><path d="M903.62,344.56l-18.32-3.31q3.08-11.07,10.63-16.38t22.43-5.32q13.51,0,20.12,3.19t9.31,8.13q2.7,4.92,2.7,18.07l-.22,23.58a81.55,81.55,0,0,0,1,14.84,43.5,43.5,0,0,0,3.63,10.24h-20q-.79-2-1.94-6-.51-1.8-.72-2.37a36.33,36.33,0,0,1-11.07,7.54,31.65,31.65,0,0,1-12.58,2.52q-11.79,0-18.58-6.4a21.24,21.24,0,0,1-6.79-16.17,21.74,21.74,0,0,1,3.09-11.54,20.27,20.27,0,0,1,8.66-7.76q5.58-2.7,16.07-4.71,14.16-2.65,19.62-5v-2q0-5.82-2.88-8.3T916.92,335c-3.59,0-6.4.71-8.41,2.12S904.87,341,903.62,344.56Zm27,16.39q-3.89,1.29-12.29,3.09t-11,3.52a8.41,8.41,0,0,0-4,7.11,9.91,9.91,0,0,0,3.16,7.34,11,11,0,0,0,8,3.09A17.46,17.46,0,0,0,925,381.5a12.65,12.65,0,0,0,4.82-6.68q.79-2.6.79-9.85Z" style="fill:#fff"/><path d="M1043.8,397.6h-20.2v-39q0-12.36-1.29-16a11.23,11.23,0,0,0-4.2-5.64,12,12,0,0,0-7-2,16.25,16.25,0,0,0-9.42,2.87,14.5,14.5,0,0,0-5.71,7.62q-1.54,4.75-1.55,17.54V397.6H974.23V321.27H993v11.21q10-12.93,25.15-12.93a30.38,30.38,0,0,1,12.22,2.4,20.5,20.5,0,0,1,8.37,6.15,22.27,22.27,0,0,1,4,8.48,63.31,63.31,0,0,1,1.11,13.59Z" style="fill:#fff"/></g><g style="isolation:isolate"><path d="M435.65,510l20.63,6.54q-4.74,17.25-15.77,25.62t-28,8.37q-21,0-34.5-14.34T364.5,497q0-26.31,13.58-40.86t35.72-14.56q19.33,0,31.41,11.43,7.19,6.75,10.78,19.41l-21.06,5a21.74,21.74,0,0,0-22.2-17.68q-11.72,0-19,8.4t-7.3,27.25q0,20,7.19,28.46a23.34,23.34,0,0,0,18.68,8.48,21.35,21.35,0,0,0,14.6-5.39Q433,521.55,435.65,510Z" style="fill:#fff"/><path d="M522.57,524.43l20.13,3.38q-3.88,11.07-12.26,16.86t-21,5.78q-19.9,0-29.47-13-7.54-10.41-7.55-26.3,0-19,9.92-29.72t25.09-10.75q17,0,26.88,11.25t9.41,34.46H493.18q.21,9,4.88,14a15.31,15.31,0,0,0,11.65,5,12.31,12.31,0,0,0,8-2.59Q520.92,530.19,522.57,524.43ZM523.72,504q-.21-8.76-4.53-13.33a13.9,13.9,0,0,0-10.49-4.57,14,14,0,0,0-10.93,4.82q-4.31,4.81-4.24,13.08Z" style="fill:#fff"/><path d="M633.64,548.73h-20.2v-39q0-12.36-1.29-16a11.15,11.15,0,0,0-4.21-5.64,12,12,0,0,0-7-2,16.19,16.19,0,0,0-9.42,2.88,14.5,14.5,0,0,0-5.71,7.62q-1.54,4.74-1.55,17.53v34.58h-20.2V472.4h18.76v11.21q10-12.94,25.16-12.94a30.22,30.22,0,0,1,12.22,2.41,20.4,20.4,0,0,1,8.37,6.14,22.32,22.32,0,0,1,4,8.49,63.27,63.27,0,0,1,1.11,13.58Z" style="fill:#fff"/><path d="M693.1,472.4v16.1H679.3v30.76q0,9.35.4,10.89a4.42,4.42,0,0,0,1.79,2.55,5.74,5.74,0,0,0,3.42,1,26,26,0,0,0,8.12-2l1.73,15.67a40.06,40.06,0,0,1-16,3,25.35,25.35,0,0,1-9.85-1.83,14.39,14.39,0,0,1-6.43-4.74,18.78,18.78,0,0,1-2.84-7.87q-.64-3.53-.65-14.24V488.5h-9.27V472.4H659V457.23l20.27-11.79v27Z" style="fill:#fff"/><path d="M730.43,548.73h-20.2V472.4H729v10.85q4.82-7.69,8.66-10.14a16,16,0,0,1,8.73-2.44,25.66,25.66,0,0,1,13.3,3.81l-6.25,17.61q-5.11-3.3-9.49-3.31a11.21,11.21,0,0,0-7.19,2.34q-2.94,2.34-4.63,8.44t-1.69,25.59Z" style="fill:#fff"/><path d="M816.55,524.43l20.13,3.38q-3.88,11.07-12.26,16.86t-20.95,5.78q-19.9,0-29.47-13-7.54-10.41-7.54-26.3,0-19,9.92-29.72t25.08-10.75q17,0,26.88,11.25t9.42,34.46h-50.6q.21,9,4.89,14a15.27,15.27,0,0,0,11.64,5,12.36,12.36,0,0,0,8-2.59Q814.9,530.19,816.55,524.43ZM817.7,504q-.21-8.76-4.52-13.33a14.57,14.57,0,0,0-21.42.25q-4.32,4.81-4.24,13.08Z" style="fill:#fff"/><path d="M894.22,472.4h11.21v-5.75q0-9.64,2.05-14.38a16.22,16.22,0,0,1,7.55-7.73q5.49-3,13.91-3a56.06,56.06,0,0,1,16.89,2.59l-2.73,14.09a39.72,39.72,0,0,0-9.28-1.15q-4.38,0-6.28,2.05T925.63,467v5.39h15.09v15.88H925.63v60.45h-20.2V488.28H894.22Z" style="fill:#fff"/><path d="M951.38,509.48a41.31,41.31,0,0,1,5-19.47,34.08,34.08,0,0,1,14-14.38,41.69,41.69,0,0,1,20.31-5q17.32,0,28.39,11.25t11.07,28.43q0,17.31-11.18,28.71t-28.14,11.39a44.31,44.31,0,0,1-20-4.74,32.56,32.56,0,0,1-14.49-13.91Q951.39,522.64,951.38,509.48Zm20.7,1.08q0,11.35,5.39,17.4a17.64,17.64,0,0,0,26.56,0q5.36-6,5.36-17.54,0-11.22-5.36-17.25a17.62,17.62,0,0,0-26.56,0Q972.09,499.2,972.08,510.56Z" style="fill:#fff"/><path d="M1069.28,548.73h-20.2V472.4h18.76v10.85q4.82-7.69,8.66-10.14a16,16,0,0,1,8.74-2.44,25.6,25.6,0,0,1,13.29,3.81l-6.25,17.61q-5.1-3.3-9.49-3.31a11.21,11.21,0,0,0-7.19,2.34q-2.94,2.34-4.63,8.44t-1.69,25.59Z" style="fill:#fff"/></g><path d="M341.81,17.92c-.28-1,.67-1.66,3.9-2.71A49.67,49.67,0,0,0,351.58,13a15,15,0,0,1,2-1c.22-.05,1.3-.47,2.4-.93s7.4-2.39,14-4.29,12.18-3.7,12.4-4c.77-1,12.12-3.36,12.78-2.66.36.38,5.86,23.2,12.23,50.7,0,0,19.13,82.67,22.23,96,5.75,24.68,5.83,25.53,2.61,25.57-1.22,0-18.26,5.18-21.45,6.49-1.32.55-2.58,1-2.8,1.13s-1.41.55-2.65,1.06a13.08,13.08,0,0,1-2.9.94c-.35,0-4.49-10.53-9.2-23.4S342.13,19.07,341.8,17.92Z" style="fill:#fff"/><path d="M148.87,222.54l-41.09-30.93,2.86-4.08a46.74,46.74,0,0,1,4.16-5.28c.72-.66,3.25-3.72,5.61-6.8s5.44-6.86,6.85-8.4,3.59-4,4.85-5.39l2.3-2.59,37.9,35.19c20.85,19.35,64.15,59.64,73.5,68.31s17,16.15,17,16.62c0,.8-1.9,3.22-7.3,9.31a62.76,62.76,0,0,0-4.43,5.8,17,17,0,0,1-2.39,3.15c-.17,0-9.7-7.05-21.17-15.67s-46-34.64-78.65-59.24Z" style="fill:#fff"/><path d="M578.86,966c1.5,15.84,2.65,28.87,2.55,29s-5.74.81-12.54,1.59C559,997.71,549.72,998,522.11,998c-36,0-45.66-.58-71.2-4.44-18.53-2.79-20.4-3.21-20.4-4.52,0-.66,2.72-14.34,6.05-30.4s18.17-87.94,18.17-87.94c4.24-20.51,7.89-37.46,8.1-37.68s2.66,0,5.43.49c25.84,4.45,58.72,5.62,83.23,3,7.81-.85,14.44-1.3,14.75-1s2.17,18.11,4.14,39.55S577.36,950.17,578.86,966Z" style="fill:#fff"/></svg>