<svg xmlns="http://www.w3.org/2000/svg" viewBox="0 0 204.09 53.58"><path d="M182.33,24.41h-3.11V25h.16c.46,0,.7.07.85.28l.17.18c.19.2.35.38.59.66v8.53a.77.77,0,0,1-.86.69h-.22V36h3.41v-.62h-.21c-.44,0-.88-.21-.88-.69v-7L189.37,36l0,0h.47V25.73a.75.75,0,0,1,.83-.69H191v-.63h-3.37V25h.16c.44,0,.88.26.88.69v6l-6.29-7.29ZM143,49.68l.79-1.8.78,1.8ZM140.9,52h-.23v.39h1.92V52h-.19a.31.31,0,0,1-.24-.12.17.17,0,0,1,0-.18l.58-1.36h2.13l.59,1.36a.19.19,0,0,1,0,.2.24.24,0,0,1-.19.1H145v.39h2.45V52h-.18c-.19,0-.35-.16-.49-.49l-2.49-5.74a.25.25,0,0,0-.18-.14.22.22,0,0,0-.21.09l-2.39,5.76c-.11.24-.3.52-.56.52m-5.27-6.25h-2.52v.39h.17c.22,0,.48.07.48.57v4.73c0,.39-.15.56-.48.56h-.17v.39h2.52V52h-.14c-.34,0-.49-.17-.49-.56V46.73c0-.51.28-.57.49-.57h.14ZM124,36h8.62l1.07-3.35h-.66l0,.11c-.46,1.48-1.21,2.11-2.5,2.11H127.7a.4.4,0,0,1-.41-.43v-4h3.08c.47,0,.72.47.72.93v.2h.6V28.15h-.6v.23c0,.43-.23.9-.72.9h-3.08V25.51h3.34c.82,0,1.36.64,1.42,1.67v.15h.58l-.21-2.92H124V25h.21c.59,0,.88.34.88,1.05v8.29c0,.7-.28,1-.88,1H124Zm1.12,9.77h-2.53v.38h.16c.12,0,.48,0,.48.6v4.68c0,.52-.27.58-.48.58h-.16v.39h4.86l.58-2h-.4l0,.07c-.26.85-.7,1.22-1.41,1.22h-1.5c-.11,0-.23-.15-.23-.3V46.76c0-.42.15-.6.5-.6h.15ZM113.27,36h8.67l1-3.34h-.64l0,.11c-.46,1.46-1.23,2.11-2.5,2.11H117a.43.43,0,0,1-.46-.43v-4h3.13c.42,0,.67.47.67.93v.2h.6V28.15h-.6v.23c0,.44-.24.9-.67.9h-3.13V25.51h3.34c.85,0,1.41.64,1.45,1.67v.15h.58l-.22-2.92h-8.41V25h.23c.61,0,.89.32.89,1v8.3c0,.71-.28,1-.89,1h-.23Zm-.08,13.68.78-1.8.78,1.8ZM111.1,52h-.23v.39h1.93V52h-.19a.32.32,0,0,1-.25-.12.19.19,0,0,1,0-.18l.58-1.36h2.14l.59,1.36a.22.22,0,0,1,0,.2.26.26,0,0,1-.19.1h-.28v.39h2.44V52h-.17c-.19,0-.36-.16-.5-.49l-2.48-5.74a.25.25,0,0,0-.18-.14.25.25,0,0,0-.22.09l-2.39,5.76c-.11.24-.29.52-.56.52m-9.38-5.55a1,1,0,0,1,.43-.07,1.24,1.24,0,0,1,1.3,1.19,1.27,1.27,0,0,1-1.3,1.24h-.43Zm-.11-.69H99.83v.38H100c.32,0,.47.19.47.57v4.72c0,.51-.25.57-.47.57h-.17v.39h2.52V52h-.14c-.34,0-.49-.17-.49-.57v-2H102l2.25,3h1.61V52h-.15c-.17,0-.31-.16-.46-.34l-1.85-2.42a1.87,1.87,0,0,0,1.38-1.67h0a1.63,1.63,0,0,0-.47-1.24,3.64,3.64,0,0,0-2.68-.57m-12.49.14-.05,1.59h.35v-.1c0-.63.27-.94.7-.94h1.19v5c0,.37-.15.53-.51.53h-.14v.39h2.5V52H93c-.35,0-.49-.14-.49-.53v-5h1.18c.29,0,.64.11.69.94v.1h.37l-.07-1.59a.16.16,0,0,0-.14-.15H89.27a.17.17,0,0,0-.15.15M73.52,30.45h3.13c.61,0,.65.78.65.93v.21h.62V28.15H77.3v.23c0,.15,0,.91-.65.91H73.52V25.51h3.89c.79,0,1.36.68,1.42,1.68v.14h.58l-.21-2.91H70.28V25h.23c.61,0,.88.33.88,1.07v8.27c0,.71-.27,1-.88,1h-.23V36h4.38v-.6h-.28c-.6,0-.86-.3-.86-1Zm-2.6,15.33H68.46v.38h.11a.51.51,0,0,1,.46.52v3.46a2.4,2.4,0,0,0,2.65,2.34,2.27,2.27,0,0,0,2.55-2.22V46.5a.3.3,0,0,1,.32-.34h.3v-.38h-2v.38h.28a.32.32,0,0,1,.34.34v3.76a1.6,1.6,0,0,1-1.75,1.52,1.46,1.46,0,0,1-1.44-1.6v-3.5a.52.52,0,0,1,.44-.52h.15ZM59,49.68l.79-1.8.78,1.8ZM56.93,52H56.7v.39h1.92V52h-.19a.31.31,0,0,1-.24-.12.17.17,0,0,1,0-.18l.58-1.36h2.13l.59,1.36a.19.19,0,0,1,0,.2.24.24,0,0,1-.19.1H61v.39h2.45V52h-.18c-.19,0-.35-.16-.49-.49l-2.49-5.74s-.06-.13-.17-.14a.21.21,0,0,0-.22.09L57.49,51.5c-.11.24-.3.52-.56.52M10.8,24.68h1c-.08-.32-.29-.56-.52-.56s-.45.24-.53.56m1,.56h-1c.08.32.29.56.53.56s.44-.24.52-.56m-1-5.33h1c-.08-.32-.29-.56-.52-.56s-.45.24-.53.56m1,.56h-1c.08.32.29.56.53.56s.44-.24.52-.56M25.7,28a3,3,0,0,0-1.71.28,3.74,3.74,0,0,1-1.41.36,3.9,3.9,0,0,1-1.43-.36,2.93,2.93,0,0,0-1.7-.28H14.3V25.8H12.22a1.06,1.06,0,0,1-.89.56,1.22,1.22,0,0,1-1.1-1.12h-.3A.27.27,0,0,1,9.65,25a.28.28,0,0,1,.28-.28h.3a1.22,1.22,0,0,1,1.1-1.12,1.06,1.06,0,0,1,.89.56H14.3V21H12.22a1.06,1.06,0,0,1-.89.56,1.22,1.22,0,0,1-1.1-1.12h-.3a.27.27,0,0,1-.28-.28.28.28,0,0,1,.28-.28h.3a1.22,1.22,0,0,1,1.1-1.12,1.06,1.06,0,0,1,.89.56H14.3V17.76l1.12-.63v9.73h4a3.88,3.88,0,0,1,2.14.37,2.61,2.61,0,0,0,1,.27,2.55,2.55,0,0,0,1-.27,3.9,3.9,0,0,1,2.14-.37h4v-9.6l1.12.5v1.59h2.7a.84.84,0,1,1,0,1.68h-2.7v3.09h2.7a.84.84,0,1,1,0,1.68h-2.7V28Zm2.92-2.12H25.7a5,5,0,0,0-2.56.45V17.89c0-.83.85-1.33,2-1.33,1.68,0,2.57.55,3.5.37Zm-6.6.42a5,5,0,0,0-2.57-.44H16.54V16.9c.92.18,1.82-.37,3.49-.37,1.13,0,2,.5,2,1.33Zm7.72,3.45c5.58.89,8,3,9.57,6.3h0V9.13h0c-1.56,3.28-4,5.41-9.57,6.29.88-5.58,3-8,6.29-9.57H9.13c3.28,1.56,5.41,4,6.29,9.57-5.58-.88-8-3-9.57-6.29h0V36h0c1.56-3.29,4-5.41,9.57-6.3-.88,5.59-3,8-6.29,9.58H36c-3.28-1.56-5.41-4-6.29-9.58m14.3-2c0,10.28-9,20.77-21.44,24.66C10.08,48.52,1.12,38,1.12,27.75V1.12H44Zm1.12,0V0H0V27.75c0,10.9,9.36,21.72,22.26,25.72l.34.11.33-.11c12.88-4,22.23-14.82,22.23-25.72M66.57,3.84h.67L67.09.28A.3.3,0,0,0,66.84,0H55.33a.3.3,0,0,0-.25.28l-.15,3.56h.67V3.69c0-1,.38-2.24,1.67-2.24h2.48V12.64a1.18,1.18,0,0,1-1.1,1.19h-.8v.71h6.46v-.71h-.79a1.18,1.18,0,0,1-1.1-1.19V1.45H64.9c1.29,0,1.62,1.22,1.67,2.24Zm-.65,24.79c0,3.78-1.64,6.33-4.08,6.33h-.05a3.18,3.18,0,0,1-2.26-1,7.47,7.47,0,0,1-1.76-5.27c0-1.41.28-6,4.07-6.22,1.49.08,4,1,4.08,6.12m2.84.1c0-4.3-2.84-7.35-6.91-7.41A6.88,6.88,0,0,0,57.24,23a7.86,7.86,0,0,0-2.31,5.72c0,4.28,2.91,7.39,6.92,7.39s6.91-3.11,6.91-7.39m6.68-14.19h4.4v-.62h-.27c-.6,0-.86-.31-.86-1V4.6c0-.71.26-1,.86-1h.27V3h-4.4v.62h.23c.62,0,.9.32.9,1V8.06h-4.5V4.6c0-.69.28-1,.86-1h.23V3H68.8v.62H69c.62,0,.86.28.86,1v8.3c0,.74-.24,1-.86,1H68.8v.62h4.36v-.62h-.23c-.6,0-.86-.32-.86-1V9.18h4.5V12.9c0,.71-.27,1-.9,1h-.23ZM82.84,46a2,2,0,0,0-2.38.17,1.89,1.89,0,0,0-.56,1.51A1.78,1.78,0,0,0,80.79,49l.51.31a5.19,5.19,0,0,1,1.41,1,.88.88,0,0,1-.21,1.29,1.05,1.05,0,0,1-1.17.11,1.78,1.78,0,0,1-1-1.62V50h-.4v2.38h.38l0-.08a.31.31,0,0,1,.16-.24.27.27,0,0,1,.24,0,3,3,0,0,0,1.35.35,1.92,1.92,0,0,0,1.2-.39,1.79,1.79,0,0,0,.55-2.26,5.09,5.09,0,0,0-2.08-1.65l-.13-.07a1.14,1.14,0,0,1-.68-.93.82.82,0,0,1,.44-.7,1.06,1.06,0,0,1,1.07,0A1.68,1.68,0,0,1,83.28,48v.11h.4V45.78h-.37l0,.08c0,.11-.06.17-.12.2s-.18,0-.33,0m7.39-31.48,1-3.34h-.66l0,.12a2.41,2.41,0,0,1-2.49,2.08H85.25a.41.41,0,0,1-.41-.41V9h3.1c.45,0,.65.47.65.91v.22h.65V6.69h-.65v.23c0,.37-.2.9-.65.9h-3.1V4h3.34c.82,0,1.37.64,1.43,1.67v.15h.6L90,3H81.57v.63h.23c.6,0,.88.32.88,1v8.3c0,.71-.27,1-.88,1h-.23v.62Zm6.2,14.19c0,3.1-1.25,6.22-4.05,6.22-2.48,0-4.07-2.44-4.07-6.22,0-2.42.59-4.19,1.7-5.24a3.45,3.45,0,0,1,2.28-1h0c2.05,0,4.11,1.93,4.11,6.23m2.89.1c-.09-5.93-4.62-7.51-7-7.51h0c-4,0-6.91,3.14-6.91,7.41,0,3.72,2.22,6.65,5.52,7.31a11.12,11.12,0,0,0,8.28,3.27h.16v-.68h-.15a5.39,5.39,0,0,1-4.4-2.87,7,7,0,0,0,4.5-6.92M111,.74h.62V0h-4.4V.74h.7a.74.74,0,0,1,.79.84V9.85c0,2.36-2,3.43-3.91,3.43a3.32,3.32,0,0,1-3.32-3.6V1.91A1.18,1.18,0,0,1,102.63.74H103V0H97.42V.74h.32a1.16,1.16,0,0,1,1.12,1.17v7.7c0,3,2.37,5.12,5.76,5.12s5.59-2,5.59-4.88V1.58c0-.57.26-.84.82-.84m.34,24.3h.51v-.63H108.5V25H109a.58.58,0,0,1,.62.62v6.59a2.84,2.84,0,0,1-3.1,2.71,2.6,2.6,0,0,1-2.56-2.85V26a.92.92,0,0,1,.81-.93H105v-.63H100.7v.47l0,.16h.16a.91.91,0,0,1,.83.93V32c0,2.4,1.9,4.08,4.63,4.08s4.46-1.55,4.46-3.87V25.66c0-.4.2-.62.57-.62M124,3.58h.22V3h-3.43v.62h.25a.75.75,0,0,1,.84.69v6L115.59,3h-3.11v.62h.15c.44,0,.71,0,.9.28l.4.45.32.38v8.54c0,.46-.43.67-.84.67h-.27v.64h3.46V13.9h-.23c-.44,0-.88-.23-.88-.67v-7l7.16,8.31,0,0h.47V4.27a.77.77,0,0,1,.86-.69m1.6,11H130v-.62h-.21c-.61,0-.88-.31-.88-1V4.6c0-.7.28-1,.88-1H130V3h-4.34v.63h.21c.64,0,.93.31.93,1v8.3c0,.72-.28,1-.93,1h-.21Zm16.56-11h.16V3h-2.92v.63h.32a.45.45,0,0,1,.35.18.41.41,0,0,1,.05.36l-2.65,6.6-2.9-6.6a.39.39,0,0,1,0-.36.43.43,0,0,1,.32-.18h.53V3h-4.14v.63h.15c.36,0,.62.25.9.84l4.3,10,0,0a.49.49,0,0,0,.35.17h0a.35.35,0,0,0,.29-.19l3.91-9.91c.32-.66.56-.9.9-.9m1.56,22.15v6l-6.32-7.29-.05-.06h-3.11V25h.16c.47,0,.72.07.87.28l.17.18c.19.2.36.38.59.66v8.53c0,.48-.44.69-.86.69H135V36h3.43v-.62h-.23c-.43,0-.86-.21-.86-.69v-7L144.45,36l0,0H145V25.73a.76.76,0,0,1,.84-.69h.25v-.63h-3.41V25h.22c.44,0,.89.26.89.69m8.62-11.19,1.07-3.34h-.67l0,.11c-.46,1.45-1.22,2.09-2.5,2.09h-2.83A.4.4,0,0,1,147,13V9h3.08c.53,0,.67.57.67.91v.22h.64V6.69h-.64v.23c0,.35-.18.9-.67.9H147V4h3.34c.8,0,1.36.65,1.42,1.67v.15h.61L152.14,3h-8.41v.63H144c.59,0,.86.31.86,1v8.3c0,.72-.26,1-.86,1h-.23v.62Zm-2.92,12.31a1.43,1.43,0,0,1,.79-1.24,1.84,1.84,0,0,1,1.89.05,3,3,0,0,1,1.48,2.6v.16h.65v-4h-.62l0,.13a.48.48,0,0,1-.22.37.72.72,0,0,1-.6-.08c-1.66-.79-3-.69-4.15.31a3.24,3.24,0,0,0-1,2.62,3.08,3.08,0,0,0,1.54,2.31l.87.53a9,9,0,0,1,2.51,1.84,1.56,1.56,0,0,1-.37,2.3,1.88,1.88,0,0,1-2.08.2,3.17,3.17,0,0,1-1.77-2.87v-.16h-.65V36h.62l0-.1a.6.6,0,0,1,.31-.44.5.5,0,0,1,.44,0,5.13,5.13,0,0,0,2.36.61,3.36,3.36,0,0,0,2.08-.67,3.1,3.1,0,0,0,1-3.93c-.65-1.24-2.3-2.16-3.64-2.89l-.23-.13a2,2,0,0,1-1.21-1.65m9.34-18.53H158V4.13a2,2,0,0,1,.79-.13,2.19,2.19,0,0,1,2.3,2.12,2.26,2.26,0,0,1-2.3,2.2m3.66,6.22h2.78v-.62H165c-.31,0-.56-.3-.83-.61L160.89,9a3.27,3.27,0,0,0,2.45-2.92A2.83,2.83,0,0,0,162.52,4c-.86-.8-2.39-1.13-4.68-1h-3.11v.62H155c.58,0,.86.33.86,1v8.3c0,.71-.27,1-.86,1h-.28v.62h4.38v-.62h-.23c-.61,0-.88-.31-.88-1V9.35h.5ZM165.19,36l1-3.39h-.66l0,.12c-.47,1.49-1.24,2.15-2.5,2.15H160.4a.54.54,0,0,1-.44-.55V26.11c0-.74.28-1.08.91-1.08h.23v-.62h-4.38V25H157c.58,0,.86.36.86,1.08v8.22c0,.94-.49,1.05-.86,1.05h-.25V36Zm5.4-4.72L172,28l1.41,3.27ZM167,35.39h-.37V36h3.32v-.62h-.3a.61.61,0,0,1-.46-.23.33.33,0,0,1,0-.33l1-2.41h3.79l1,2.4a.37.37,0,0,1,0,.37.46.46,0,0,1-.37.2h-.46V36h4.24v-.62h-.28c-.35,0-.64-.29-.89-.88l-4.37-10.07a.41.41,0,0,0-.28-.25.41.41,0,0,0-.37.17L168,34.46c-.2.42-.53.93-1,.93M173.58,10c-.67-1.26-2.35-2.21-3.87-3a2.06,2.06,0,0,1-1.19-1.62,1.54,1.54,0,0,1,.76-1.3,1.93,1.93,0,0,1,1.95.09,3,3,0,0,1,1.46,2.56v.16h.6V3h-.58l0,.13a.46.46,0,0,1-.18.32.84.84,0,0,1-.66-.09c-1.7-.77-3-.66-4.1.34a3.19,3.19,0,0,0-1,2.61,3.05,3.05,0,0,0,1.52,2.3l.82.49a10,10,0,0,1,2.56,1.88,1.51,1.51,0,0,1-.37,2.29,1.85,1.85,0,0,1-2.06.23,3.18,3.18,0,0,1-1.77-2.9V10.4h-.65v4.14h.61l0-.11a.62.62,0,0,1,.35-.44.42.42,0,0,1,.4,0,4.9,4.9,0,0,0,2.29.6,3.47,3.47,0,0,0,2.13-.68,3.13,3.13,0,0,0,1-3.94m2.35,4.53h4.38v-.62h-.23c-.61,0-.88-.32-.88-1V4.6c0-.7.28-1,.88-1h.23V3h-4.38v.63h.28c.59,0,.85.31.85,1v8.3c0,.71-.25,1-.85,1h-.28Zm15.58-8.6h.59L192,3.18a.26.26,0,0,0-.23-.23h-9.31a.26.26,0,0,0-.23.22l-.1,2.77h.57V5.79c.06-1.12.48-1.67,1.26-1.67h2.11V13c0,.67-.28.95-.93.95h-.21v.62h4.34v-.62h-.21c-.63,0-.88-.27-.88-.95V4.12h2.09c.49,0,1.15.17,1.24,1.67Zm5.63,19.41a4.64,4.64,0,0,1,3.72,1.34,5.3,5.3,0,0,1,1.19,3.49c0,3-1.78,4.78-4.88,4.78a3.69,3.69,0,0,1-.95-.1V25.47a1.72,1.72,0,0,1,.92-.12m0-.93h-4.45V25H193c.37,0,.86.11.86,1.07v8.23c0,.73-.27,1-.86,1h-.26V36h5.38a5.84,5.84,0,0,0,6-5.8,5.66,5.66,0,0,0-1.45-4c-1.2-1.26-3-1.86-5.46-1.78M204.09,3.6V3H201V3.6h.45a.29.29,0,0,1,.21.15.4.4,0,0,1,0,.37l-2.45,4.17L196.54,4.2a.45.45,0,0,1,0-.43.37.37,0,0,1,.28-.17h.42V3h-4.31V3.6h.16c.28,0,.65.09,1,.82l3.42,5.24V12.9c0,.74-.25,1-.88,1h-.23v.63h4.43v-.63h-.23c-.65,0-.9-.28-.9-1V9.58l3-5.2a1.44,1.44,0,0,1,1.15-.78Z" style="fill:#fff"/></svg>