<?xml version="1.0" encoding="UTF-8"?><svg id="Layer_1" xmlns="http://www.w3.org/2000/svg" xmlns:xlink="http://www.w3.org/1999/xlink" viewBox="0 0 399.58 202.53"><defs><style>.cls-1,.cls-2,.cls-3{fill:none;}.cls-4{fill:#b3de69;}.cls-5{fill:gray;stroke:#000;}.cls-5,.cls-2,.cls-3{stroke-width:.8px;}.cls-5,.cls-3{stroke-linejoin:round;}.cls-2{stroke:gray;}.cls-2,.cls-3{stroke-linecap:square;}.cls-6{isolation:isolate;}.cls-7{clip-path:url(#clippath-19);}.cls-8{clip-path:url(#clippath-11);}.cls-9{clip-path:url(#clippath-16);}.cls-10{clip-path:url(#clippath-18);}.cls-11{clip-path:url(#clippath-10);}.cls-12{clip-path:url(#clippath-15);}.cls-13{clip-path:url(#clippath-13);}.cls-14{clip-path:url(#clippath-14);}.cls-15{clip-path:url(#clippath-12);}.cls-16{clip-path:url(#clippath-31);}.cls-17{clip-path:url(#clippath-32);}.cls-18{clip-path:url(#clippath-33);}.cls-19{clip-path:url(#clippath-34);}.cls-20{clip-path:url(#clippath-35);}.cls-21{clip-path:url(#clippath-39);}.cls-22{clip-path:url(#clippath-30);}.cls-23{clip-path:url(#clippath-36);}.cls-24{clip-path:url(#clippath-37);}.cls-25{clip-path:url(#clippath-38);}.cls-26{clip-path:url(#clippath-27);}.cls-27{clip-path:url(#clippath-29);}.cls-28{clip-path:url(#clippath-26);}.cls-29{clip-path:url(#clippath-28);}.cls-30{clip-path:url(#clippath-20);}.cls-31{clip-path:url(#clippath-21);}.cls-32{clip-path:url(#clippath-22);}.cls-33{clip-path:url(#clippath-23);}.cls-34{clip-path:url(#clippath-24);}.cls-35{clip-path:url(#clippath-25);}.cls-36{clip-path:url(#clippath-41);}.cls-37{clip-path:url(#clippath-42);}.cls-38{fill:#fdae6b;}.cls-39{clip-path:url(#clippath-1);}.cls-40{clip-path:url(#clippath-3);}.cls-41{clip-path:url(#clippath-4);}.cls-42{clip-path:url(#clippath-2);}.cls-43{clip-path:url(#clippath-7);}.cls-44{clip-path:url(#clippath-6);}.cls-45{clip-path:url(#clippath-9);}.cls-46{clip-path:url(#clippath-8);}.cls-47{clip-path:url(#clippath-5);}.cls-48{fill:#fff;}.cls-3{stroke:rgba(211,211,211,.7);}.cls-49{fill:#80b1d3;}.cls-50{clip-path:url(#clippath);}</style><clipPath id="clippath"><rect class="cls-1" x="36.43" y="9.48" width="158.72" height="166.32"/></clipPath><clipPath id="clippath-1"><rect class="cls-1" x="36.43" y="9.48" width="158.72" height="166.32"/></clipPath><clipPath id="clippath-2"><rect class="cls-1" x="36.43" y="9.48" width="158.72" height="166.32"/></clipPath><clipPath id="clippath-3"><rect class="cls-1" x="36.43" y="9.48" width="158.72" height="166.32"/></clipPath><clipPath id="clippath-4"><rect class="cls-1" x="36.43" y="9.48" width="158.72" height="166.32"/></clipPath><clipPath id="clippath-5"><rect class="cls-1" x="36.43" y="9.48" width="158.72" height="166.32"/></clipPath><clipPath id="clippath-6"><rect class="cls-1" x="36.43" y="9.48" width="158.72" height="166.32"/></clipPath><clipPath id="clippath-7"><rect class="cls-1" x="36.43" y="9.48" width="158.72" height="166.32"/></clipPath><clipPath id="clippath-8"><rect class="cls-1" x="36.43" y="9.48" width="158.72" height="166.32"/></clipPath><clipPath id="clippath-9"><rect class="cls-1" x="36.43" y="9.48" width="158.72" height="166.32"/></clipPath><clipPath id="clippath-10"><rect class="cls-1" x="36.43" y="9.48" width="158.72" height="166.32"/></clipPath><clipPath id="clippath-11"><rect class="cls-1" x="36.43" y="9.48" width="158.72" height="166.32"/></clipPath><clipPath id="clippath-12"><rect class="cls-1" x="36.43" y="9.48" width="158.72" height="166.32"/></clipPath><clipPath id="clippath-13"><rect class="cls-1" x="36.43" y="9.48" width="158.72" height="166.32"/></clipPath><clipPath id="clippath-14"><rect class="cls-1" x="36.43" y="9.48" width="158.72" height="166.32"/></clipPath><clipPath id="clippath-15"><rect class="cls-1" x="36.43" y="9.48" width="158.72" height="166.32"/></clipPath><clipPath id="clippath-16"><rect class="cls-1" x="36.43" y="9.48" width="158.72" height="166.32"/></clipPath><clipPath id="clippath-18"><rect class="cls-1" x="36.43" y="9.48" width="158.72" height="166.32"/></clipPath><clipPath id="clippath-19"><rect class="cls-1" x="36.43" y="9.48" width="158.72" height="166.32"/></clipPath><clipPath id="clippath-20"><rect class="cls-1" x="36.43" y="9.48" width="158.72" height="166.32"/></clipPath><clipPath id="clippath-21"><rect class="cls-1" x="36.43" y="9.48" width="158.72" height="166.32"/></clipPath><clipPath id="clippath-22"><rect class="cls-1" x="36.43" y="9.48" width="158.72" height="166.32"/></clipPath><clipPath id="clippath-23"><rect class="cls-1" x="36.43" y="9.48" width="158.72" height="166.32"/></clipPath><clipPath id="clippath-24"><rect class="cls-1" x="36.43" y="9.48" width="158.72" height="166.32"/></clipPath><clipPath id="clippath-25"><rect class="cls-1" x="36.43" y="9.48" width="158.72" height="166.32"/></clipPath><clipPath id="clippath-26"><rect class="cls-1" x="36.43" y="9.48" width="158.72" height="166.32"/></clipPath><clipPath id="clippath-27"><rect class="cls-1" x="36.43" y="9.48" width="158.72" height="166.32"/></clipPath><clipPath id="clippath-28"><rect class="cls-1" x="36.43" y="9.48" width="158.72" height="166.32"/></clipPath><clipPath id="clippath-29"><rect class="cls-1" x="239.79" y="9.48" width="19.84" height="166.32"/></clipPath><clipPath id="clippath-30"><rect class="cls-1" x="239.79" y="9.48" width="19.84" height="166.32"/></clipPath><clipPath id="clippath-31"><rect class="cls-1" x="239.79" y="9.48" width="19.84" height="166.32"/></clipPath><clipPath id="clippath-32"><rect class="cls-1" x="239.79" y="9.48" width="19.84" height="166.32"/></clipPath><clipPath id="clippath-33"><rect class="cls-1" x="239.79" y="9.48" width="19.84" height="166.32"/></clipPath><clipPath id="clippath-34"><rect class="cls-1" x="239.79" y="9.48" width="19.84" height="166.32"/></clipPath><clipPath id="clippath-35"><rect class="cls-1" x="239.79" y="9.48" width="19.84" height="166.32"/></clipPath><clipPath id="clippath-36"><rect class="cls-1" x="239.79" y="9.48" width="19.84" height="166.32"/></clipPath><clipPath id="clippath-37"><rect class="cls-1" x="239.79" y="9.48" width="19.84" height="166.32"/></clipPath><clipPath id="clippath-38"><rect class="cls-1" x="239.79" y="9.48" width="19.84" height="166.32"/></clipPath><clipPath id="clippath-39"><rect class="cls-1" x="239.79" y="9.48" width="19.84" height="166.32"/></clipPath><clipPath id="clippath-41"><rect class="cls-1" x="239.79" y="9.48" width="19.84" height="166.32"/></clipPath><clipPath id="clippath-42"><rect class="cls-1" x="239.79" y="9.48" width="19.84" height="166.32"/></clipPath></defs><g id="figure_1"><g id="patch_1"><path class="cls-48" d="M0,202.53h399.58V0H0v202.53Z"/></g><g id="axes_1"><g id="patch_2"><path class="cls-48" d="M36.43,175.8h158.72V9.48H36.43v166.32Z"/></g><g id="matplotlib.axis_1"><g id="xtick_1"><g id="line2d_1"><path id="m21d6d002bb" class="cls-5" d="M52.5,175.8v3.5"/></g><g id="text_1"><g class="cls-6"><path d="M41.87,183.06h1.93c.38,0,.69.11.92.32.23.22.35.52.35.91,0,.34-.1.63-.31.88-.21.25-.53.37-.96.37h-1.34v1.82h-.58v-4.3ZM44.13,183.65c-.13-.06-.3-.09-.53-.09h-1.15v1.49h1.15c.26,0,.47-.06.63-.17.16-.11.24-.31.24-.59,0-.32-.12-.53-.35-.64Z"/><path d="M45.75,183.04h.53v1.61c.12-.16.24-.27.34-.33.17-.11.38-.17.64-.17.46,0,.76.16.93.48.09.17.13.42.13.72v2.01h-.54v-1.98c0-.23-.03-.4-.09-.51-.1-.17-.28-.26-.54-.26-.22,0-.42.08-.59.23s-.27.43-.27.85v1.66h-.53v-4.32Z"/><path d="M51.05,184.22h.58c-.07.2-.24.66-.5,1.38-.19.54-.35.98-.48,1.32-.3.8-.52,1.29-.64,1.46s-.34.26-.64.26c-.07,0-.13,0-.17,0s-.09-.02-.15-.03v-.48c.09.03.16.04.2.05s.08,0,.11,0c.1,0,.17-.02.21-.05s.08-.07.12-.12c0-.02.04-.09.1-.24.06-.14.1-.25.13-.32l-1.16-3.23h.6l.84,2.56.85-2.56Z"/><path d="M52.1,183.06h.53v4.3h-.53v-4.3Z"/><path d="M53.94,184.22v2.08c0,.16.02.29.07.39.09.19.26.28.51.28.36,0,.6-.16.73-.49.07-.18.11-.42.11-.72v-1.54h.53v3.14h-.5v-.46c-.06.12-.14.22-.24.3-.2.16-.44.25-.72.25-.44,0-.74-.15-.9-.45-.09-.16-.13-.37-.13-.64v-2.13h.54Z"/><path d="M56.75,184.22h.52v.45c.12-.15.24-.27.34-.34.17-.12.37-.18.59-.18.25,0,.45.06.6.18.09.07.16.17.23.31.12-.17.25-.29.41-.37s.34-.12.53-.12c.42,0,.71.15.86.46.08.16.12.38.12.66v2.09h-.55v-2.18c0-.21-.05-.35-.16-.43-.11-.08-.23-.12-.38-.12-.21,0-.38.07-.54.21-.15.14-.22.37-.22.69v1.83h-.54v-2.05c0-.21-.03-.37-.08-.47-.08-.15-.23-.22-.45-.22-.2,0-.38.08-.54.23s-.24.43-.24.84v1.66h-.53v-3.14Z"/></g><g class="cls-6"><path d="M47.35,191.11v-.4c.38-.04.65-.1.8-.19s.26-.29.34-.62h.42v4.18h-.56v-2.97h-.99Z"/><path d="M50.68,191.62c-.15-.16-.23-.36-.23-.61,0-.31.11-.58.34-.81.23-.22.55-.34.96-.34s.72.11.95.32c.23.21.34.46.34.74,0,.26-.07.47-.2.64-.07.09-.19.18-.35.27.17.08.31.17.41.28.19.2.28.45.28.76,0,.37-.12.68-.37.94-.25.26-.6.39-1.05.39-.41,0-.75-.11-1.04-.33-.28-.22-.42-.54-.42-.96,0-.25.06-.46.18-.64s.3-.32.54-.42c-.15-.06-.26-.14-.34-.22ZM52.38,193.52c.16-.13.24-.33.24-.59s-.08-.48-.25-.62-.38-.21-.64-.21-.46.07-.62.22c-.16.14-.24.34-.24.6,0,.22.07.41.22.57.15.16.37.24.68.24.24,0,.45-.07.61-.2ZM52.29,191.44c.13-.13.2-.29.2-.47,0-.16-.06-.3-.19-.43-.12-.13-.31-.2-.57-.2s-.44.07-.55.2c-.11.13-.17.29-.17.46,0,.2.07.35.22.46.15.11.32.17.52.17.23,0,.41-.07.54-.2Z"/><path d="M54.25,193.06c.02.29.13.49.34.6.11.06.23.09.36.09.25,0,.47-.1.64-.32.18-.21.3-.64.38-1.28-.12.19-.26.32-.44.39s-.36.11-.56.11c-.4,0-.72-.13-.96-.38-.24-.25-.35-.58-.35-.97s.12-.71.35-1c.23-.29.58-.43,1.03-.43.61,0,1.03.28,1.27.83.13.3.19.68.19,1.14,0,.51-.08.97-.23,1.36-.26.66-.69.99-1.3.99-.41,0-.72-.11-.93-.32s-.32-.48-.32-.81h.53ZM55.62,191.99c.17-.14.26-.38.26-.72,0-.31-.08-.54-.23-.69s-.35-.23-.59-.23c-.26,0-.46.09-.61.26s-.23.4-.23.69.07.49.2.65.34.24.64.24c.21,0,.4-.07.57-.21Z"/></g></g></g><g id="xtick_2"><g id="line2d_2"><path id="m21d6d002bb-2" class="cls-5" d="M77.82,175.8v3.5"/></g><g id="text_2"><g class="cls-6"><path d="M73.42,183.37c.3.29.46.61.5.98h-.57c-.06-.28-.19-.5-.38-.66s-.45-.24-.8-.24c-.42,0-.75.15-1.01.45-.26.3-.38.75-.38,1.37,0,.5.12.91.35,1.23.23.31.58.47,1.03.47.42,0,.74-.17.96-.5.12-.17.2-.4.26-.69h.57c-.05.45-.22.83-.5,1.14-.34.37-.79.55-1.37.55-.49,0-.91-.15-1.25-.45-.44-.4-.66-1.02-.66-1.86,0-.63.17-1.16.5-1.56.36-.44.85-.66,1.49-.66.54,0,.96.14,1.25.43Z"/><path d="M74.66,183.06h.53v4.3h-.53v-4.3Z"/><path d="M77.66,185.46c.12-.02.2-.07.24-.15.02-.05.04-.12.04-.2,0-.18-.06-.31-.19-.39-.13-.08-.31-.12-.55-.12-.27,0-.47.07-.58.22-.06.08-.11.21-.13.37h-.49c0-.39.14-.66.38-.81.24-.15.52-.23.84-.23.37,0,.67.07.9.21.23.14.34.36.34.66v1.81c0,.05.01.1.03.13s.07.05.14.05c.02,0,.05,0,.08,0,.03,0,.06,0,.09-.01v.39c-.08.02-.14.04-.19.04s-.1,0-.18,0c-.18,0-.31-.06-.4-.19-.04-.07-.07-.17-.09-.29-.11.14-.26.26-.46.37s-.42.16-.67.16c-.29,0-.53-.09-.71-.26s-.28-.4-.28-.66c0-.29.09-.52.27-.68s.42-.26.71-.3l.84-.1ZM76.55,186.88c.11.09.24.13.4.13.19,0,.37-.04.54-.13.29-.14.44-.38.44-.7v-.42c-.06.04-.15.08-.25.1-.1.03-.2.05-.3.06l-.32.04c-.19.03-.33.07-.43.12-.16.09-.24.24-.24.44,0,.15.06.27.17.36Z"/><path d="M79.63,186.37c.02.18.06.31.13.4.14.17.37.25.71.25.2,0,.37-.04.53-.13.15-.08.23-.22.23-.39,0-.13-.06-.24-.18-.31-.08-.04-.23-.09-.46-.15l-.43-.11c-.27-.07-.47-.14-.6-.22-.23-.14-.35-.34-.35-.59,0-.3.11-.54.33-.72s.51-.28.87-.28c.48,0,.82.14,1.04.42.13.18.2.37.19.57h-.5c-.01-.12-.05-.23-.13-.32-.12-.14-.34-.21-.65-.21-.2,0-.36.04-.46.11-.1.08-.16.18-.16.3,0,.14.07.25.21.33.08.05.2.09.35.13l.36.08c.39.09.64.18.78.27.21.13.31.35.31.64s-.11.52-.32.72c-.21.2-.54.3-.98.3-.47,0-.81-.11-1-.32-.2-.21-.3-.47-.32-.79h.51Z"/><path d="M82.63,186.37c.02.18.06.31.13.4.14.17.37.25.71.25.2,0,.37-.04.53-.13.15-.08.23-.22.23-.39,0-.13-.06-.24-.18-.31-.08-.04-.23-.09-.46-.15l-.43-.11c-.27-.07-.47-.14-.6-.22-.23-.14-.35-.34-.35-.59,0-.3.11-.54.33-.72s.51-.28.87-.28c.48,0,.82.14,1.04.42.13.18.2.37.19.57h-.5c-.01-.12-.05-.23-.13-.32-.12-.14-.34-.21-.65-.21-.2,0-.36.04-.46.11-.1.08-.16.18-.16.3,0,.14.07.25.21.33.08.05.2.09.35.13l.36.08c.39.09.64.18.78.27.21.13.31.35.31.64s-.11.52-.32.72c-.21.2-.54.3-.98.3-.47,0-.81-.11-1-.32-.2-.21-.3-.47-.32-.79h.51Z"/></g><g class="cls-6"><path d="M74.82,190.23c.18.24.28.49.28.75h-.52c-.03-.17-.08-.3-.15-.39-.13-.18-.32-.26-.58-.26-.29,0-.53.14-.7.41-.17.27-.27.66-.29,1.17.12-.18.27-.31.46-.4.17-.08.36-.12.56-.12.35,0,.66.11.92.34s.39.56.39,1c0,.38-.12.72-.37,1.01s-.6.44-1.06.44c-.39,0-.73-.15-1.02-.45s-.43-.8-.43-1.5c0-.52.06-.96.19-1.33.24-.7.69-1.04,1.34-1.04.47,0,.8.12.98.37ZM74.43,193.44c.14-.19.21-.41.21-.66,0-.21-.06-.42-.18-.61s-.35-.29-.67-.29c-.23,0-.43.08-.6.23s-.26.38-.26.68c0,.27.08.49.23.67s.37.27.65.27.48-.09.62-.28Z"/><path d="M75.91,193.78c-.22-.27-.34-.6-.34-.99h.55c.02.27.07.47.15.59.14.22.38.33.74.33.28,0,.5-.07.67-.22s.25-.34.25-.57c0-.29-.09-.49-.27-.61s-.42-.17-.74-.17c-.04,0-.07,0-.11,0-.04,0-.07,0-.11,0v-.47c.05,0,.1,0,.14.01s.08,0,.12,0c.2,0,.36-.03.49-.09.22-.11.33-.3.33-.59,0-.21-.07-.37-.22-.48s-.32-.17-.52-.17c-.35,0-.59.12-.73.35-.07.13-.12.31-.13.55h-.52c0-.31.06-.58.19-.8.21-.39.59-.59,1.13-.59.43,0,.76.1.99.29.23.19.35.47.35.83,0,.26-.07.47-.21.63-.09.1-.2.18-.33.23.22.06.39.18.52.35.12.17.19.38.19.63,0,.4-.13.73-.4.98s-.64.38-1.12.38-.86-.14-1.08-.41Z"/><path d="M80.76,194.08v-1.03h-1.84v-.52l1.92-2.67h.45v2.72h.62v.46h-.62v1.03h-.53ZM80.75,192.59v-1.91l-1.34,1.91h1.34Z"/></g></g></g><g id="xtick_3"><g id="line2d_3"><path id="m21d6d002bb-3" class="cls-5" d="M103.13,175.8v3.5"/></g><g id="text_3"><g class="cls-6"><path d="M98.61,183.67c.29.38.43.87.43,1.46,0,.64-.16,1.18-.49,1.6-.38.5-.93.75-1.64.75-.66,0-1.18-.22-1.56-.66-.34-.42-.51-.96-.51-1.6,0-.58.14-1.08.43-1.49.37-.53.92-.8,1.65-.8s1.32.24,1.69.73ZM98.09,186.41c.23-.37.34-.79.34-1.27,0-.51-.13-.91-.4-1.22-.26-.31-.63-.46-1.09-.46s-.81.15-1.09.46-.42.76-.42,1.35c0,.48.12.88.36,1.21s.63.49,1.17.49.89-.18,1.11-.55Z"/><path d="M99.67,184.22h.5v.54c.04-.11.14-.23.3-.38s.34-.23.55-.23c0,0,.03,0,.05,0s.06,0,.12.01v.56s-.06,0-.09-.01-.06,0-.09,0c-.27,0-.47.09-.61.26s-.21.37-.21.59v1.8h-.53v-3.14Z"/><path d="M103.38,184.32c.09.06.2.16.32.31v-1.58h.51v4.32h-.47v-.44c-.12.19-.27.33-.44.42-.17.09-.36.13-.57.13-.35,0-.65-.15-.9-.44-.25-.29-.38-.68-.38-1.17,0-.46.12-.85.35-1.19.23-.33.56-.5,1-.5.24,0,.44.05.6.15ZM102.2,186.67c.14.23.37.34.68.34.24,0,.44-.1.6-.32.16-.21.23-.51.23-.9s-.08-.69-.24-.88c-.16-.19-.36-.29-.6-.29-.26,0-.48.1-.64.3-.16.2-.25.5-.25.9,0,.34.07.62.21.84Z"/><path d="M106.93,184.31c.21.1.37.24.47.41.1.16.17.34.21.55.03.14.05.38.05.69h-2.28c0,.32.08.58.22.77.14.19.36.29.65.29.27,0,.49-.09.65-.27.09-.11.16-.23.19-.37h.52c-.01.12-.06.24-.14.38-.08.14-.16.26-.26.35-.16.16-.36.26-.59.32-.13.03-.27.05-.43.05-.39,0-.72-.14-.99-.43-.27-.29-.4-.68-.4-1.19s.14-.91.41-1.23c.27-.31.63-.47,1.07-.47.22,0,.44.05.64.16ZM107.12,185.54c-.02-.23-.07-.41-.15-.55-.14-.25-.38-.38-.72-.38-.24,0-.44.09-.6.26-.16.18-.25.4-.26.67h1.73Z"/><path d="M108.34,184.22h.5v.54c.04-.11.14-.23.3-.38s.34-.23.55-.23c0,0,.03,0,.05,0s.06,0,.12.01v.56s-.06,0-.09-.01-.06,0-.09,0c-.27,0-.47.09-.61.26s-.21.37-.21.59v1.8h-.53v-3.14Z"/></g><g class="cls-6"><path d="M94.95,193.13c.13-.27.38-.51.76-.73l.56-.33c.25-.15.43-.27.53-.38.16-.16.24-.35.24-.56,0-.25-.07-.44-.22-.58s-.34-.22-.59-.22c-.36,0-.61.14-.75.41-.07.15-.12.35-.12.61h-.54c0-.37.07-.66.2-.89.23-.41.63-.61,1.21-.61.48,0,.83.13,1.05.39s.33.55.33.87c0,.34-.12.62-.35.86-.14.14-.38.31-.74.5l-.4.22c-.19.11-.34.21-.45.3-.2.17-.32.36-.37.57h2.29v.5h-2.88c.02-.36.09-.68.22-.94Z"/><path d="M98.38,194.69c.13-.02.23-.12.28-.29.03-.09.04-.17.04-.26,0-.01,0-.03,0-.04s0-.02,0-.04h-.32v-.64h.63v.59c0,.23-.05.44-.14.61s-.26.28-.49.33v-.28Z"/><path d="M100.12,191.11v-.4c.38-.04.65-.1.8-.19s.26-.29.34-.62h.42v4.18h-.56v-2.97h-.99Z"/><path d="M104.87,194.08v-1.03h-1.84v-.52l1.92-2.67h.45v2.72h.62v.46h-.62v1.03h-.53ZM104.87,192.59v-1.91l-1.34,1.91h1.34Z"/><path d="M109.36,189.95v.46c-.13.13-.31.36-.54.68s-.42.67-.59,1.05c-.17.37-.3.7-.39,1-.06.19-.13.5-.22.93h-.58c.13-.8.43-1.6.88-2.39.27-.46.55-.87.84-1.2h-2.32v-.53h2.92Z"/></g></g></g><g id="xtick_4"><g id="line2d_4"><path id="m21d6d002bb-4" class="cls-5" d="M128.44,175.8v3.5"/></g><g id="text_4"><g class="cls-6"><path d="M119.3,183.06h2.99v.53h-2.4v1.31h2.11v.51h-2.11v1.96h-.58v-4.3Z"/><path d="M124.52,185.46c.12-.02.2-.07.24-.15.02-.05.04-.12.04-.2,0-.18-.06-.31-.19-.39-.13-.08-.31-.12-.55-.12-.27,0-.47.07-.58.22-.06.08-.11.21-.13.37h-.49c0-.39.14-.66.38-.81.24-.15.52-.23.84-.23.37,0,.67.07.9.21.23.14.34.36.34.66v1.81c0,.05.01.1.03.13s.07.05.14.05c.02,0,.05,0,.08,0,.03,0,.06,0,.09-.01v.39c-.08.02-.14.04-.19.04s-.1,0-.18,0c-.18,0-.31-.06-.4-.19-.04-.07-.07-.17-.09-.29-.11.14-.26.26-.46.37s-.42.16-.67.16c-.29,0-.53-.09-.71-.26s-.28-.4-.28-.66c0-.29.09-.52.27-.68s.42-.26.71-.3l.84-.1ZM123.41,186.88c.11.09.24.13.4.13.19,0,.37-.04.54-.13.29-.14.44-.38.44-.7v-.42c-.06.04-.15.08-.25.1-.1.03-.2.05-.3.06l-.32.04c-.19.03-.33.07-.43.12-.16.09-.24.24-.24.44,0,.15.06.27.17.36Z"/><path d="M126.18,184.22h.52v.45c.12-.15.24-.27.34-.34.17-.12.37-.18.59-.18.25,0,.45.06.6.18.09.07.16.17.23.31.12-.17.25-.29.41-.37s.34-.12.53-.12c.42,0,.71.15.86.46.08.16.12.38.12.66v2.09h-.55v-2.18c0-.21-.05-.35-.16-.43s-.23-.12-.38-.12c-.21,0-.39.07-.53.21s-.22.37-.22.69v1.83h-.54v-2.05c0-.21-.03-.37-.08-.47-.08-.15-.23-.22-.45-.22-.2,0-.38.08-.54.23s-.24.43-.24.84v1.66h-.53v-3.14Z"/><path d="M131.18,183.06h.54v.6h-.54v-.6ZM131.18,184.24h.54v3.12h-.54v-3.12Z"/><path d="M132.52,183.06h.53v4.3h-.53v-4.3Z"/><path d="M135.8,184.22h.58c-.08.2-.24.66-.5,1.38-.19.54-.35.98-.48,1.32-.3.8-.52,1.29-.64,1.46s-.34.26-.64.26c-.07,0-.13,0-.17,0s-.09-.02-.15-.03v-.48c.09.03.16.04.2.05s.08,0,.11,0c.1,0,.17-.02.21-.05s.08-.07.12-.12c0-.02.04-.09.1-.24.06-.14.1-.25.13-.32l-1.16-3.23h.6l.84,2.56.85-2.56Z"/></g><g class="cls-6"><path d="M120.6,193.01c.04.3.17.51.42.62.12.06.27.09.43.09.31,0,.54-.1.69-.3s.23-.42.23-.66c0-.29-.09-.52-.27-.68s-.39-.24-.64-.24c-.18,0-.34.04-.47.11s-.24.17-.33.29l-.46-.03.32-2.26h2.18v.51h-1.78l-.18,1.17c.1-.07.19-.13.28-.17.16-.06.34-.1.54-.1.38,0,.71.12.98.37s.4.56.4.94-.12.75-.37,1.05-.64.45-1.17.45c-.34,0-.64-.1-.91-.29-.26-.19-.41-.49-.44-.89h.55Z"/><path d="M123.69,194.69c.13-.02.23-.12.28-.29.03-.09.04-.17.04-.26,0-.01,0-.03,0-.04s0-.02,0-.04h-.32v-.64h.63v.59c0,.23-.05.44-.14.61s-.26.28-.49.33v-.28Z"/><path d="M125.66,193.06c.02.29.13.49.34.6.11.06.23.09.36.09.25,0,.47-.1.64-.32.18-.21.3-.64.38-1.28-.12.19-.26.32-.44.39s-.36.11-.56.11c-.4,0-.72-.13-.96-.38-.24-.25-.35-.58-.35-.97s.12-.71.35-1c.23-.29.58-.43,1.03-.43.61,0,1.03.28,1.27.83.13.3.19.68.19,1.14,0,.51-.08.97-.23,1.36-.26.66-.69.99-1.3.99-.41,0-.72-.11-.93-.32s-.32-.48-.32-.81h.53ZM127.03,191.99c.17-.14.26-.38.26-.72,0-.31-.08-.54-.23-.69s-.35-.23-.59-.23c-.26,0-.46.09-.61.26s-.23.4-.23.69.07.49.2.65.34.24.64.24c.21,0,.4-.07.57-.21Z"/><path d="M128.77,191.11v-.4c.38-.04.65-.1.8-.19s.26-.29.34-.62h.42v4.18h-.56v-2.97h-.99Z"/><path d="M133.53,194.08v-1.03h-1.84v-.52l1.92-2.67h.45v2.72h.62v.46h-.62v1.03h-.53ZM133.52,192.59v-1.91l-1.34,1.91h1.34Z"/></g></g></g><g id="xtick_5"><g id="line2d_5"><path id="m21d6d002bb-5" class="cls-5" d="M153.76,175.8v3.5"/></g><g id="text_5"><g class="cls-6"><path d="M147.54,183.18c.42.22.68.62.77,1.18h-.58c-.07-.31-.21-.54-.43-.69-.22-.14-.49-.21-.82-.21-.39,0-.72.15-.99.45-.27.3-.4.74-.4,1.34,0,.51.11.93.33,1.25.22.32.58.48,1.08.48.38,0,.7-.11.95-.34.25-.23.38-.59.38-1.09h-1.35v-.48h1.89v2.3h-.38l-.14-.55c-.19.22-.37.37-.52.45-.25.14-.57.22-.96.22-.5,0-.93-.17-1.29-.5-.39-.41-.59-.98-.59-1.71s.19-1.29.58-1.72c.37-.41.84-.61,1.42-.61.4,0,.74.08,1.03.23Z"/><path d="M151.21,184.31c.21.1.37.24.47.41.1.16.17.34.21.55.03.14.05.38.05.69h-2.28c0,.32.08.58.22.77.14.19.36.29.65.29.27,0,.49-.09.65-.27.09-.11.16-.23.19-.37h.52c-.01.12-.06.24-.14.38-.08.14-.16.26-.26.35-.16.16-.36.26-.59.32-.13.03-.27.05-.43.05-.39,0-.72-.14-.99-.43-.27-.29-.4-.68-.4-1.19s.14-.91.41-1.23c.27-.31.63-.47,1.07-.47.22,0,.44.05.64.16ZM151.4,185.54c-.02-.23-.07-.41-.15-.55-.14-.25-.38-.38-.72-.38-.24,0-.44.09-.6.26-.16.18-.25.4-.26.67h1.73Z"/><path d="M152.61,184.22h.5v.45c.15-.18.31-.32.47-.4s.35-.12.55-.12c.45,0,.75.16.9.47.09.17.13.41.13.73v2.01h-.54v-1.98c0-.19-.03-.35-.08-.46-.09-.2-.26-.29-.51-.29-.12,0-.23.01-.31.04-.14.04-.27.13-.38.26-.09.1-.15.21-.17.32-.03.11-.04.27-.04.47v1.64h-.53v-3.14Z"/><path d="M156.48,184.22v2.08c0,.16.02.29.07.39.09.19.26.28.51.28.36,0,.6-.16.73-.49.07-.18.11-.42.11-.72v-1.54h.53v3.14h-.5v-.46c-.06.12-.14.22-.24.3-.2.16-.44.25-.72.25-.44,0-.74-.15-.9-.45-.09-.16-.13-.37-.13-.64v-2.13h.54Z"/><path d="M159.6,186.37c.02.18.06.31.13.4.14.17.37.25.71.25.2,0,.37-.04.53-.13.15-.08.23-.22.23-.39,0-.13-.06-.24-.18-.31-.08-.04-.23-.09-.46-.15l-.43-.11c-.27-.07-.47-.14-.6-.22-.23-.14-.35-.34-.35-.59,0-.3.11-.54.33-.72s.51-.28.87-.28c.48,0,.82.14,1.04.42.13.18.2.37.19.57h-.5c0-.12-.05-.23-.13-.32-.12-.14-.34-.21-.65-.21-.2,0-.36.04-.46.11-.1.08-.16.18-.16.3,0,.14.07.25.21.33.08.05.2.09.35.13l.36.08c.39.09.64.18.78.27.21.13.31.35.31.64s-.11.52-.32.72c-.21.2-.54.3-.98.3-.47,0-.81-.11-1-.32-.2-.21-.3-.47-.32-.79h.51Z"/></g><g class="cls-6"><path d="M143.67,193.13c.13-.27.38-.51.76-.73l.56-.33c.25-.15.43-.27.53-.38.16-.16.24-.35.24-.56,0-.25-.07-.44-.22-.58s-.34-.22-.59-.22c-.36,0-.61.14-.75.41-.07.15-.12.35-.12.61h-.54c0-.37.07-.66.2-.89.23-.41.63-.61,1.21-.61.48,0,.83.13,1.05.39s.33.55.33.87c0,.34-.12.62-.35.86-.14.14-.38.31-.74.5l-.4.22c-.19.11-.34.21-.45.3-.2.17-.32.36-.37.57h2.29v.5h-2.88c.02-.36.09-.68.22-.94Z"/><path d="M147.4,193.06c.02.29.13.49.34.6.11.06.23.09.36.09.25,0,.47-.1.64-.32.18-.21.3-.64.38-1.28-.12.19-.26.32-.44.39s-.36.11-.56.11c-.4,0-.72-.13-.96-.38-.24-.25-.35-.58-.35-.97s.12-.71.35-1c.23-.29.58-.43,1.03-.43.61,0,1.03.28,1.27.83.13.3.19.68.19,1.14,0,.51-.08.97-.23,1.36-.26.66-.69.99-1.3.99-.41,0-.72-.11-.93-.32s-.32-.48-.32-.81h.53ZM148.77,191.99c.17-.14.26-.38.26-.72,0-.31-.08-.54-.23-.69s-.35-.23-.59-.23c-.26,0-.46.09-.61.26s-.23.4-.23.69.07.49.2.65.34.24.64.24c.21,0,.4-.07.57-.21Z"/><path d="M150.43,194.69c.13-.02.23-.12.28-.29.03-.09.04-.17.04-.26,0-.01,0-.03,0-.04s0-.02,0-.04h-.32v-.64h.63v.59c0,.23-.05.44-.14.61s-.26.28-.49.33v-.28Z"/><path d="M153.59,194.08v-1.03h-1.84v-.52l1.92-2.67h.45v2.72h.62v.46h-.62v1.03h-.53ZM153.59,192.59v-1.91l-1.34,1.91h1.34Z"/><path d="M157.74,190.55c.19.35.28.82.28,1.42,0,.57-.08,1.04-.25,1.42-.25.54-.65.8-1.21.8-.5,0-.88-.22-1.12-.66-.21-.37-.31-.86-.31-1.47,0-.48.06-.89.18-1.23.23-.64.65-.96,1.25-.96.54,0,.94.22,1.18.67ZM157.21,193.35c.16-.24.24-.69.24-1.35,0-.48-.06-.87-.18-1.18-.12-.31-.35-.46-.68-.46-.31,0-.54.15-.68.44-.14.29-.22.72-.22,1.29,0,.43.05.77.14,1.03.14.4.38.59.72.59.27,0,.49-.12.65-.36Z"/><path d="M159.02,193.01c.04.3.17.51.42.62.12.06.27.09.43.09.31,0,.54-.1.69-.3s.23-.42.23-.66c0-.29-.09-.52-.27-.68-.18-.16-.39-.24-.64-.24-.18,0-.34.04-.47.11s-.24.17-.33.29l-.46-.03.32-2.26h2.18v.51h-1.78l-.18,1.17c.1-.07.19-.13.28-.17.16-.06.34-.1.54-.1.38,0,.71.12.98.37s.4.56.4.94-.12.75-.37,1.05c-.25.3-.64.45-1.17.45-.34,0-.64-.1-.91-.29-.26-.19-.41-.49-.44-.89h.55Z"/></g></g></g><g id="xtick_6"><g id="line2d_6"><path id="m21d6d002bb-6" class="cls-5" d="M179.07,175.8v3.5"/></g><g id="text_6"><g class="cls-6"><path d="M168.36,185.97c.01.24.07.44.17.59.19.29.51.43.98.43.21,0,.4-.03.58-.09.33-.12.5-.34.5-.65,0-.23-.07-.4-.21-.5-.14-.1-.37-.18-.68-.25l-.56-.13c-.37-.09-.63-.18-.78-.28-.27-.18-.4-.45-.4-.81,0-.39.13-.7.39-.95s.63-.37,1.11-.37c.44,0,.81.11,1.12.33.31.22.46.57.46,1.04h-.55c-.03-.23-.09-.41-.18-.53-.17-.22-.46-.34-.87-.34-.33,0-.57.07-.71.22s-.22.31-.22.5c0,.21.08.37.26.46.11.06.36.14.76.23l.58.14c.28.07.5.16.65.27.27.2.4.49.4.88,0,.48-.17.82-.51,1.02-.34.21-.73.31-1.18.31-.52,0-.93-.14-1.23-.41-.3-.27-.44-.64-.43-1.1h.55Z"/><path d="M171.87,184.24h.52v.42c.11-.14.22-.25.35-.33.18-.12.39-.18.63-.18.36,0,.66.14.91.41.25.27.37.66.37,1.17,0,.68-.18,1.17-.54,1.46-.23.19-.49.28-.79.28-.24,0-.44-.05-.6-.16-.09-.06-.2-.16-.31-.3v1.6h-.53v-4.37ZM173.85,186.69c.16-.21.25-.51.25-.92,0-.25-.04-.46-.11-.64-.14-.35-.39-.52-.75-.52s-.62.18-.75.55c-.07.2-.11.44-.11.74,0,.24.04.45.11.62.14.32.39.49.75.49.25,0,.45-.1.62-.31Z"/><path d="M177.19,184.31c.21.1.37.24.47.41.1.16.17.34.21.55.03.14.05.38.05.69h-2.28c0,.32.08.58.22.77.14.19.36.29.65.29.27,0,.49-.09.65-.27.09-.11.16-.23.19-.37h.52c-.01.12-.06.24-.14.38-.08.14-.16.26-.26.35-.16.16-.36.26-.59.32-.13.03-.27.05-.43.05-.39,0-.72-.14-.99-.43-.27-.29-.4-.68-.4-1.19s.14-.91.41-1.23c.27-.31.63-.47,1.07-.47.22,0,.44.05.64.16ZM177.38,185.54c-.02-.23-.07-.41-.15-.55-.14-.25-.38-.38-.72-.38-.24,0-.44.09-.6.26-.16.18-.25.4-.26.67h1.73Z"/><path d="M180.66,184.39c.22.17.35.47.4.89h-.51c-.03-.19-.1-.35-.21-.48s-.29-.19-.54-.19c-.34,0-.58.16-.72.49-.09.21-.14.48-.14.79s.07.58.2.79c.13.21.34.32.63.32.22,0,.39-.07.52-.2.13-.13.22-.32.27-.55h.51c-.06.42-.21.72-.44.91s-.53.29-.9.29c-.41,0-.74-.15-.98-.45-.24-.3-.37-.67-.37-1.12,0-.55.13-.98.4-1.29s.61-.46,1.02-.46c.35,0,.64.09.86.26Z"/><path d="M181.59,183.06h.54v.6h-.54v-.6ZM181.59,184.24h.54v3.12h-.54v-3.12Z"/><path d="M184.86,184.31c.21.1.37.24.47.41.1.16.17.34.21.55.03.14.05.38.05.69h-2.28c0,.32.08.58.22.77.14.19.36.29.65.29.27,0,.49-.09.65-.27.09-.11.16-.23.19-.37h.52c-.01.12-.06.24-.14.38-.08.14-.16.26-.26.35-.16.16-.36.26-.59.32-.13.03-.27.05-.43.05-.39,0-.72-.14-.99-.43-.27-.29-.4-.68-.4-1.19s.14-.91.41-1.23c.27-.31.63-.47,1.07-.47.22,0,.44.05.64.16ZM185.05,185.54c-.02-.23-.07-.41-.15-.55-.14-.25-.38-.38-.72-.38-.24,0-.44.09-.6.26-.16.18-.25.4-.26.67h1.73Z"/><path d="M186.57,186.37c.02.18.06.31.13.4.14.17.37.25.71.25.2,0,.38-.04.53-.13.15-.08.23-.22.23-.39,0-.13-.06-.24-.18-.31-.08-.04-.23-.09-.46-.15l-.43-.11c-.27-.07-.47-.14-.6-.22-.23-.14-.35-.34-.35-.59,0-.3.11-.54.33-.72s.51-.28.87-.28c.48,0,.82.14,1.04.42.13.18.2.37.19.57h-.5c0-.12-.05-.23-.13-.32-.12-.14-.34-.21-.64-.21-.2,0-.36.04-.46.11-.1.08-.16.18-.16.3,0,.14.07.25.21.33.08.05.2.09.35.13l.35.08c.39.09.64.18.78.27.21.13.31.35.31.64s-.11.52-.32.72c-.21.2-.54.3-.98.3-.47,0-.81-.11-1-.32-.2-.21-.3-.47-.32-.79h.51Z"/></g><g class="cls-6"><path d="M167.24,191.11v-.4c.38-.04.65-.1.8-.19s.26-.29.34-.62h.42v4.18h-.56v-2.97h-.99Z"/><path d="M172,194.08v-1.03h-1.84v-.52l1.92-2.67h.45v2.72h.62v.46h-.62v1.03h-.53ZM171.99,192.59v-1.91l-1.34,1.91h1.34Z"/><path d="M173.82,193.78c-.22-.27-.34-.6-.34-.99h.55c.02.27.07.47.15.59.14.22.38.33.74.33.28,0,.5-.07.67-.22s.25-.34.25-.57c0-.29-.09-.49-.27-.61s-.42-.17-.74-.17c-.04,0-.07,0-.11,0-.04,0-.07,0-.11,0v-.47c.05,0,.1,0,.14.01s.08,0,.12,0c.2,0,.36-.03.49-.09.22-.11.33-.3.33-.59,0-.21-.07-.37-.22-.48s-.32-.17-.52-.17c-.35,0-.59.12-.73.35-.07.13-.12.31-.13.55h-.52c0-.31.06-.58.19-.8.21-.39.59-.59,1.13-.59.43,0,.76.1.99.29.23.19.35.47.35.83,0,.26-.07.47-.21.63-.09.1-.2.18-.33.23.22.06.39.18.52.35.12.17.19.38.19.63,0,.4-.13.73-.4.98s-.64.38-1.12.38-.86-.14-1.08-.41Z"/><path d="M177.18,194.69c.13-.02.23-.12.28-.29.03-.09.04-.17.04-.26,0-.01,0-.03,0-.04s0-.02,0-.04h-.32v-.64h.63v.59c0,.23-.05.44-.14.61s-.26.28-.49.33v-.28Z"/><path d="M181.08,190.23c.18.24.28.49.28.75h-.52c-.03-.17-.08-.3-.15-.39-.13-.18-.32-.26-.58-.26-.29,0-.53.14-.7.41-.17.27-.27.66-.29,1.17.12-.18.27-.31.46-.4.17-.08.36-.12.56-.12.35,0,.66.11.92.34s.39.56.39,1c0,.38-.12.72-.37,1.01s-.6.44-1.06.44c-.39,0-.73-.15-1.02-.45s-.43-.8-.43-1.5c0-.52.06-.96.19-1.33.24-.7.69-1.04,1.34-1.04.47,0,.8.12.98.37ZM180.68,193.44c.14-.19.21-.41.21-.66,0-.21-.06-.42-.18-.61s-.35-.29-.67-.29c-.23,0-.43.08-.6.23s-.26.38-.26.68c0,.27.08.49.23.67s.37.27.65.27.48-.09.62-.28Z"/><path d="M182.26,191.11v-.4c.38-.04.65-.1.8-.19s.26-.29.34-.62h.42v4.18h-.56v-2.97h-.99Z"/><path d="M187.01,194.08v-1.03h-1.84v-.52l1.92-2.67h.45v2.72h.62v.46h-.62v1.03h-.53ZM187,192.59v-1.91l-1.34,1.91h1.34Z"/></g></g></g></g><g id="matplotlib.axis_2"><g id="ytick_1"><g id="line2d_7"><g class="cls-50"><path class="cls-3" d="M36.43,175.8h158.72"/></g></g><g id="line2d_8"><path id="m615a5551e9" class="cls-5" d="M36.43,175.8h-3.5"/></g><g id="text_7"><g class="cls-6"><path d="M28.89,174.55c.19.35.28.82.28,1.42,0,.57-.08,1.04-.25,1.41-.25.54-.65.8-1.21.8-.5,0-.88-.22-1.12-.66-.21-.37-.31-.86-.31-1.47,0-.48.06-.88.18-1.23.23-.64.65-.96,1.25-.96.54,0,.94.22,1.18.67ZM28.36,177.35c.16-.24.24-.69.24-1.35,0-.48-.06-.87-.18-1.18-.12-.31-.35-.46-.68-.46-.31,0-.54.15-.68.44-.14.29-.22.72-.22,1.29,0,.43.05.77.14,1.03.14.4.38.59.72.59.27,0,.49-.12.65-.36Z"/></g></g></g><g id="ytick_2"><g id="line2d_9"><g class="cls-39"><path class="cls-3" d="M36.43,159.17h158.72"/></g></g><g id="line2d_10"><path id="m615a5551e9-2" class="cls-5" d="M36.43,159.17h-3.5"/></g><g id="text_8"><g class="cls-6"><path d="M23.33,158.48v-.4c.38-.04.65-.1.8-.19s.26-.29.34-.62h.42v4.18h-.56v-2.97h-.99Z"/><path d="M28.89,157.92c.19.35.28.82.28,1.42,0,.57-.08,1.04-.25,1.42-.25.54-.65.8-1.21.8-.5,0-.88-.22-1.12-.66-.21-.37-.31-.86-.31-1.47,0-.48.06-.89.18-1.23.23-.64.65-.96,1.25-.96.54,0,.94.22,1.18.67ZM28.36,160.72c.16-.24.24-.69.24-1.35,0-.48-.06-.87-.18-1.18-.12-.31-.35-.46-.68-.46-.31,0-.54.15-.68.44-.14.29-.22.72-.22,1.29,0,.43.05.77.14,1.03.14.4.38.59.72.59.27,0,.49-.12.65-.36Z"/></g></g></g><g id="ytick_3"><g id="line2d_11"><g class="cls-42"><path class="cls-3" d="M36.43,142.54h158.72"/></g></g><g id="line2d_12"><path id="m615a5551e9-3" class="cls-5" d="M36.43,142.54h-3.5"/></g><g id="text_9"><g class="cls-6"><path d="M23.17,143.87c.13-.27.38-.51.76-.73l.56-.33c.25-.15.43-.27.53-.38.16-.16.24-.35.24-.56,0-.25-.07-.44-.22-.58s-.34-.22-.59-.22c-.36,0-.61.14-.75.41-.07.15-.12.35-.12.61h-.54c0-.37.07-.66.2-.89.23-.41.63-.61,1.21-.61.48,0,.83.13,1.05.39s.33.55.33.87c0,.34-.12.62-.35.86-.14.14-.38.31-.74.5l-.4.22c-.19.11-.34.21-.45.3-.2.17-.32.36-.37.57h2.29v.5h-2.88c.02-.36.09-.68.22-.94Z"/><path d="M28.89,141.29c.19.35.28.82.28,1.42,0,.57-.08,1.04-.25,1.42-.25.54-.65.8-1.21.8-.5,0-.88-.22-1.12-.66-.21-.37-.31-.86-.31-1.47,0-.48.06-.89.18-1.23.23-.64.65-.96,1.25-.96.54,0,.94.22,1.18.67ZM28.36,144.09c.16-.24.24-.69.24-1.35,0-.48-.06-.87-.18-1.18-.12-.31-.35-.46-.68-.46-.31,0-.54.15-.68.44-.14.29-.22.72-.22,1.29,0,.43.05.77.14,1.03.14.4.38.59.72.59.27,0,.49-.12.65-.36Z"/></g></g></g><g id="ytick_4"><g id="line2d_13"><g class="cls-40"><path class="cls-3" d="M36.43,125.9h158.72"/></g></g><g id="line2d_14"><path id="m615a5551e9-4" class="cls-5" d="M36.43,125.9h-3.5"/></g><g id="text_10"><g class="cls-6"><path d="M23.23,127.89c-.22-.27-.34-.6-.34-.99h.55c.02.27.07.47.15.59.14.22.38.33.74.33.28,0,.5-.07.67-.22s.25-.34.25-.57c0-.29-.09-.49-.27-.61s-.42-.17-.74-.17c-.04,0-.07,0-.11,0-.04,0-.07,0-.11,0v-.47c.05,0,.1,0,.14.01s.08,0,.12,0c.2,0,.36-.03.49-.09.22-.11.33-.3.33-.59,0-.21-.07-.37-.22-.48s-.32-.17-.52-.17c-.35,0-.59.12-.73.35-.07.13-.12.31-.13.55h-.52c0-.31.06-.58.19-.8.21-.39.59-.59,1.13-.59.43,0,.76.1.99.29.23.19.35.47.35.83,0,.26-.07.47-.21.63-.09.1-.2.18-.33.23.22.06.39.18.52.35.12.17.19.38.19.63,0,.4-.13.73-.4.98s-.64.38-1.12.38-.86-.14-1.08-.41Z"/><path d="M28.89,124.66c.19.35.28.82.28,1.42,0,.57-.08,1.04-.25,1.42-.25.54-.65.8-1.21.8-.5,0-.88-.22-1.12-.66-.21-.37-.31-.86-.31-1.47,0-.48.06-.89.18-1.23.23-.64.65-.96,1.25-.96.54,0,.94.22,1.18.67ZM28.36,127.45c.16-.24.24-.69.24-1.35,0-.48-.06-.87-.18-1.18-.12-.31-.35-.46-.68-.46-.31,0-.54.15-.68.44-.14.29-.22.72-.22,1.29,0,.43.05.77.14,1.03.14.4.38.59.72.59.27,0,.49-.12.65-.36Z"/></g></g></g><g id="ytick_5"><g id="line2d_15"><g class="cls-41"><path class="cls-3" d="M36.43,109.27h158.72"/></g></g><g id="line2d_16"><path id="m615a5551e9-5" class="cls-5" d="M36.43,109.27h-3.5"/></g><g id="text_11"><g class="cls-6"><path d="M24.75,111.55v-1.03h-1.84v-.52l1.92-2.67h.45v2.72h.62v.46h-.62v1.03h-.53ZM24.74,110.07v-1.91l-1.34,1.91h1.34Z"/><path d="M28.89,108.03c.19.35.28.82.28,1.42,0,.57-.08,1.04-.25,1.42-.25.54-.65.8-1.21.8-.5,0-.88-.22-1.12-.66-.21-.37-.31-.86-.31-1.47,0-.48.06-.89.18-1.23.23-.64.65-.96,1.25-.96.54,0,.94.22,1.18.67ZM28.36,110.82c.16-.24.24-.69.24-1.35,0-.48-.06-.87-.18-1.18-.12-.31-.35-.46-.68-.46-.31,0-.54.15-.68.44-.14.29-.22.72-.22,1.29,0,.43.05.77.14,1.03.14.4.38.59.72.59.27,0,.49-.12.65-.36Z"/></g></g></g><g id="ytick_6"><g id="line2d_17"><g class="cls-47"><path class="cls-3" d="M36.43,92.64h158.72"/></g></g><g id="line2d_18"><path id="m615a5551e9-6" class="cls-5" d="M36.43,92.64h-3.5"/></g><g id="text_12"><g class="cls-6"><path d="M23.49,93.85c.04.3.17.51.42.62.12.06.27.09.43.09.31,0,.54-.1.69-.3s.23-.42.23-.66c0-.29-.09-.52-.27-.68s-.39-.24-.64-.24c-.18,0-.34.04-.47.11s-.24.17-.33.29l-.46-.03.32-2.26h2.18v.51h-1.78l-.18,1.17c.1-.07.19-.13.28-.17.16-.06.34-.1.54-.1.38,0,.71.12.98.37s.4.56.4.94-.12.75-.37,1.05-.64.45-1.17.45c-.34,0-.64-.1-.91-.29-.26-.19-.41-.49-.44-.89h.55Z"/><path d="M28.89,91.39c.19.35.28.82.28,1.42,0,.57-.08,1.04-.25,1.42-.25.54-.65.8-1.21.8-.5,0-.88-.22-1.12-.66-.21-.37-.31-.86-.31-1.47,0-.48.06-.89.18-1.23.23-.64.65-.96,1.25-.96.54,0,.94.22,1.18.67ZM28.36,94.19c.16-.24.24-.69.24-1.35,0-.48-.06-.87-.18-1.18-.12-.31-.35-.46-.68-.46-.31,0-.54.15-.68.44-.14.29-.22.72-.22,1.29,0,.43.05.77.14,1.03.14.4.38.59.72.59.27,0,.49-.12.65-.36Z"/></g></g></g><g id="ytick_7"><g id="line2d_19"><g class="cls-44"><path class="cls-3" d="M36.43,76.01h158.72"/></g></g><g id="line2d_20"><path id="m615a5551e9-7" class="cls-5" d="M36.43,76.01h-3.5"/></g><g id="text_13"><g class="cls-6"><path d="M25.49,74.44c.18.24.28.49.28.75h-.52c-.03-.17-.08-.3-.15-.39-.13-.18-.32-.26-.58-.26-.29,0-.53.14-.7.41-.17.27-.27.66-.29,1.17.12-.18.27-.31.46-.4.17-.08.36-.12.56-.12.35,0,.66.11.92.34s.39.56.39,1c0,.38-.12.72-.37,1.01s-.6.44-1.06.44c-.39,0-.73-.15-1.02-.45s-.43-.8-.43-1.5c0-.52.06-.96.19-1.33.24-.7.69-1.04,1.34-1.04.47,0,.8.12.98.37ZM25.09,77.65c.14-.19.21-.41.21-.66,0-.21-.06-.42-.18-.61s-.35-.29-.67-.29c-.23,0-.43.08-.6.23s-.26.38-.26.68c0,.27.08.49.23.67s.37.27.65.27.48-.09.62-.28Z"/><path d="M28.89,74.76c.19.35.28.82.28,1.42,0,.57-.08,1.04-.25,1.42-.25.54-.65.8-1.21.8-.5,0-.88-.22-1.12-.66-.21-.37-.31-.86-.31-1.47,0-.48.06-.89.18-1.23.23-.64.65-.96,1.25-.96.54,0,.94.22,1.18.67ZM28.36,77.56c.16-.24.24-.69.24-1.35,0-.48-.06-.87-.18-1.18-.12-.31-.35-.46-.68-.46-.31,0-.54.15-.68.44-.14.29-.22.72-.22,1.29,0,.43.05.77.14,1.03.14.4.38.59.72.59.27,0,.49-.12.65-.36Z"/></g></g></g><g id="ytick_8"><g id="line2d_21"><g class="cls-43"><path class="cls-3" d="M36.43,59.38h158.72"/></g></g><g id="line2d_22"><path id="m615a5551e9-8" class="cls-5" d="M36.43,59.38h-3.5"/></g><g id="text_14"><g class="cls-6"><path d="M25.89,57.53v.46c-.13.13-.31.36-.54.68s-.42.67-.59,1.05c-.17.37-.3.7-.39,1-.06.19-.13.5-.22.93h-.58c.13-.8.43-1.6.88-2.39.27-.46.55-.87.84-1.2h-2.32v-.53h2.92Z"/><path d="M28.89,58.13c.19.35.28.82.28,1.42,0,.57-.08,1.04-.25,1.42-.25.54-.65.8-1.21.8-.5,0-.88-.22-1.12-.66-.21-.37-.31-.86-.31-1.47,0-.48.06-.89.18-1.23.23-.64.65-.96,1.25-.96.54,0,.94.22,1.18.67ZM28.36,60.93c.16-.24.24-.69.24-1.35,0-.48-.06-.87-.18-1.18-.12-.31-.35-.46-.68-.46-.31,0-.54.15-.68.44-.14.29-.22.72-.22,1.29,0,.43.05.77.14,1.03.14.4.38.59.72.59.27,0,.49-.12.65-.36Z"/></g></g></g><g id="ytick_9"><g id="line2d_23"><g class="cls-46"><path class="cls-3" d="M36.43,42.74h158.72"/></g></g><g id="line2d_24"><path id="m615a5551e9-9" class="cls-5" d="M36.43,42.74h-3.5"/></g><g id="text_15"><g class="cls-6"><path d="M23.32,42.57c-.15-.16-.23-.36-.23-.61,0-.31.11-.58.34-.81.23-.22.55-.34.96-.34s.72.11.95.32c.23.21.34.46.34.74,0,.26-.07.47-.2.64-.07.09-.19.18-.35.27.17.08.31.17.41.28.19.2.28.45.28.76,0,.37-.12.68-.37.94-.25.26-.6.39-1.05.39-.41,0-.75-.11-1.04-.33-.28-.22-.42-.54-.42-.96,0-.25.06-.46.18-.64s.3-.32.54-.42c-.15-.06-.26-.14-.34-.22ZM25.03,44.46c.16-.13.24-.33.24-.59s-.08-.48-.25-.62-.38-.21-.64-.21-.46.07-.62.22c-.16.14-.24.34-.24.6,0,.22.07.41.22.57.15.16.37.24.68.24.24,0,.45-.07.61-.2ZM24.93,42.39c.13-.13.2-.29.2-.47,0-.16-.06-.3-.19-.43-.12-.13-.31-.2-.57-.2s-.44.07-.55.2c-.11.13-.17.29-.17.46,0,.2.07.35.22.46.15.11.32.17.52.17.23,0,.41-.07.54-.2Z"/><path d="M28.89,41.5c.19.35.28.82.28,1.42,0,.57-.08,1.04-.25,1.42-.25.54-.65.8-1.21.8-.5,0-.88-.22-1.12-.66-.21-.37-.31-.86-.31-1.47,0-.48.06-.89.18-1.23.23-.64.65-.96,1.25-.96.54,0,.94.22,1.18.67ZM28.36,44.29c.16-.24.24-.69.24-1.35,0-.48-.06-.87-.18-1.18-.12-.31-.35-.46-.68-.46-.31,0-.54.15-.68.44-.14.29-.22.72-.22,1.29,0,.43.05.77.14,1.03.14.4.38.59.72.59.27,0,.49-.12.65-.36Z"/></g></g></g><g id="ytick_10"><g id="line2d_25"><g class="cls-45"><path class="cls-3" d="M36.43,26.11h158.72"/></g></g><g id="line2d_26"><path id="m615a5551e9-10" class="cls-5" d="M36.43,26.11h-3.5"/></g><g id="text_16"><g class="cls-6"><path d="M23.55,27.37c.02.29.13.49.34.6.11.06.23.09.36.09.25,0,.47-.1.64-.32.18-.21.3-.64.38-1.28-.12.19-.26.32-.44.39s-.36.11-.56.11c-.4,0-.72-.13-.96-.38-.24-.25-.35-.58-.35-.97s.12-.71.35-1c.23-.29.58-.43,1.03-.43.61,0,1.03.28,1.27.83.13.3.19.68.19,1.14,0,.51-.08.97-.23,1.36-.26.66-.69.99-1.3.99-.41,0-.72-.11-.93-.32s-.32-.48-.32-.81h.53ZM24.92,26.31c.17-.14.26-.38.26-.72,0-.31-.08-.54-.23-.69s-.35-.23-.59-.23c-.26,0-.46.09-.61.26s-.23.4-.23.69.07.49.2.65.34.24.64.24c.21,0,.4-.07.57-.21Z"/><path d="M28.89,24.87c.19.35.28.82.28,1.42,0,.57-.08,1.04-.25,1.42-.25.54-.65.8-1.21.8-.5,0-.88-.22-1.12-.66-.21-.37-.31-.86-.31-1.47,0-.48.06-.89.18-1.23.23-.64.65-.96,1.25-.96.54,0,.94.22,1.18.67ZM28.36,27.66c.16-.24.24-.69.24-1.35,0-.48-.06-.87-.18-1.18-.12-.31-.35-.46-.68-.46-.31,0-.54.15-.68.44-.14.29-.22.72-.22,1.29,0,.43.05.77.14,1.03.14.4.38.59.72.59.27,0,.49-.12.65-.36Z"/></g></g></g><g id="ytick_11"><g id="line2d_27"><g class="cls-11"><path class="cls-3" d="M36.43,9.48h158.72"/></g></g><g id="line2d_28"><path id="m615a5551e9-11" class="cls-5" d="M36.43,9.48h-3.5"/></g><g id="text_17"><g class="cls-6"><path d="M19.99,8.79v-.4c.38-.04.65-.1.8-.19s.26-.29.34-.62h.42v4.18h-.56v-2.97h-.99Z"/><path d="M25.55,8.23c.19.35.28.82.28,1.42,0,.57-.08,1.04-.25,1.42-.25.54-.65.8-1.21.8-.5,0-.88-.22-1.12-.66-.21-.37-.31-.86-.31-1.47,0-.48.06-.89.18-1.23.23-.64.65-.96,1.25-.96.54,0,.94.22,1.18.67ZM25.02,11.03c.16-.24.24-.69.24-1.35,0-.48-.06-.87-.18-1.18-.12-.31-.35-.46-.68-.46-.31,0-.54.15-.68.44-.14.29-.22.72-.22,1.29,0,.43.05.77.14,1.03.14.4.38.59.72.59.27,0,.49-.12.65-.36Z"/><path d="M28.89,8.23c.19.35.28.82.28,1.42,0,.57-.08,1.04-.25,1.42-.25.54-.65.8-1.21.8-.5,0-.88-.22-1.12-.66-.21-.37-.31-.86-.31-1.47,0-.48.06-.89.18-1.23.23-.64.65-.96,1.25-.96.54,0,.94.22,1.18.67ZM28.36,11.03c.16-.24.24-.69.24-1.35,0-.48-.06-.87-.18-1.18-.12-.31-.35-.46-.68-.46-.31,0-.54.15-.68.44-.14.29-.22.72-.22,1.29,0,.43.05.77.14,1.03.14.4.38.59.72.59.27,0,.49-.12.65-.36Z"/></g></g></g><g id="text_18"><g class="cls-6"><path d="M7.5,102.27h.6v1.69h4.42v.69h-4.42v1.69h-.6v-4.07Z"/><path d="M10.3,100.54c-.02-.14-.08-.24-.18-.28-.05-.03-.13-.04-.24-.04-.21,0-.36.07-.46.22-.09.15-.14.36-.14.64,0,.32.09.55.26.68.1.08.24.12.43.15v.57c-.45-.01-.77-.16-.94-.44-.18-.28-.27-.61-.27-.98,0-.43.08-.78.25-1.05.16-.27.42-.4.77-.4h2.11c.06,0,.12-.01.15-.04.04-.03.06-.08.06-.17,0-.03,0-.06,0-.09,0-.03,0-.07-.02-.11h.46c.03.1.04.17.05.22s0,.12,0,.21c0,.21-.07.37-.22.46-.08.05-.19.09-.34.11.16.13.31.31.43.54.12.23.18.49.18.78,0,.34-.1.62-.31.83-.21.22-.46.32-.77.32-.34,0-.6-.11-.79-.32-.19-.21-.3-.49-.34-.83l-.12-.98ZM11.97,101.83c.1-.13.15-.28.15-.46,0-.22-.05-.43-.15-.63-.17-.34-.44-.51-.82-.51h-.5c.05.08.09.17.12.29s.05.23.07.35l.05.37c.03.22.08.39.14.5.11.19.28.29.51.29.18,0,.32-.07.42-.19Z"/><path d="M8.86,98.95v-.8l1.29-.84-1.29-.85.02-.75,1.77,1.23,1.88-1.29v.79l-1.37.91,1.37.88v.78l-1.88-1.29-1.78,1.22Z"/><path d="M10.3,93.14c-.02-.14-.08-.24-.18-.28-.05-.03-.13-.04-.24-.04-.21,0-.36.07-.46.22-.09.15-.14.36-.14.64,0,.32.09.55.26.68.1.07.24.12.43.15v.57c-.45-.01-.77-.16-.94-.44-.18-.28-.27-.61-.27-.98,0-.43.08-.78.25-1.05.16-.27.42-.4.77-.4h2.11c.06,0,.12-.01.15-.04.04-.03.06-.08.06-.17,0-.03,0-.06,0-.09,0-.03,0-.07-.02-.11h.46c.03.1.04.17.05.22s0,.12,0,.21c0,.21-.07.37-.22.46-.08.05-.19.09-.34.11.16.13.31.31.43.54.12.23.18.49.18.78,0,.34-.1.62-.31.83-.21.22-.46.32-.77.32-.34,0-.6-.11-.79-.32s-.3-.49-.34-.83l-.12-.98ZM11.97,94.44c.1-.13.15-.28.15-.46,0-.22-.05-.43-.15-.63-.17-.34-.44-.51-.82-.51h-.5c.05.08.09.17.12.29s.05.23.07.35l.05.37c.03.22.08.39.14.5.11.19.28.29.51.29.18,0,.32-.06.42-.19Z"/><path d="M7.42,87.65c.7.36,1.21.59,1.54.7.5.16,1.08.24,1.73.24s1.26-.09,1.81-.28c.34-.11.82-.34,1.46-.67v.41c-.52.33-.85.54-1,.62-.14.08-.34.17-.58.26-.34.13-.7.22-1.08.27-.2.03-.39.04-.57.04-.67,0-1.27-.11-1.8-.32-.33-.13-.84-.42-1.5-.84v-.43Z"/><path d="M7.65,83.11v-.38l5,2.74v.38l-5-2.74ZM8.12,85.13c.23-.23.51-.35.84-.35s.61.12.84.35.35.51.35.84-.12.61-.35.84-.51.35-.84.35-.61-.12-.84-.35-.35-.51-.35-.84.12-.61.35-.84ZM9.46,85.47c-.14-.14-.3-.21-.5-.21s-.36.07-.5.21-.21.3-.21.5.07.36.21.5.3.21.5.21.36-.07.5-.21.21-.3.21-.5-.07-.36-.21-.5ZM10.49,81.77c.23-.23.51-.35.84-.35s.61.12.84.35c.23.23.35.51.35.84s-.12.61-.35.84c-.23.23-.51.35-.84.35s-.61-.12-.84-.35-.35-.51-.35-.84.12-.61.35-.84ZM11.83,82.12c-.14-.14-.3-.21-.5-.21s-.36.07-.5.21c-.14.14-.21.3-.21.5s.07.36.21.5c.14.14.3.21.5.21s.36-.07.5-.21c.14-.14.21-.3.21-.5s-.07-.36-.21-.5Z"/><path d="M13.95,80.92c-.71-.36-1.22-.6-1.54-.7-.49-.16-1.06-.24-1.72-.24s-1.26.09-1.81.28c-.34.11-.82.34-1.46.67v-.41c.56-.35.91-.56,1.04-.64s.31-.15.54-.24c.28-.11.57-.19.84-.23s.55-.07.8-.07c.67,0,1.28.11,1.8.32.34.13.84.41,1.5.84v.43Z"/></g></g></g><g id="patch_3"><g class="cls-8"><path class="cls-49" d="M43.64,175.8h17.72v-49.28h-17.72v49.28Z"/></g></g><g id="patch_4"><g class="cls-15"><path class="cls-49" d="M68.96,175.8h17.72v-42.76h-17.72v42.76Z"/></g></g><g id="patch_5"><g class="cls-13"><path class="cls-49" d="M94.27,175.8h17.72v-32.61h-17.72v32.61Z"/></g></g><g id="patch_6"><g class="cls-14"><path class="cls-49" d="M119.58,175.8h17.72v-27.45h-17.72v27.45Z"/></g></g><g id="patch_7"><g class="cls-12"><path class="cls-49" d="M144.9,175.8h17.72v-21.47h-17.72v21.47Z"/></g></g><g id="patch_8"><g class="cls-9"><path class="cls-49" d="M170.21,175.8h17.72v-8.12h-17.72v8.12Z"/></g></g><g id="patch_10"><g class="cls-10"><path class="cls-38" d="M68.96,133.04h17.72v-1.31h-17.72v1.31Z"/></g></g><g id="patch_11"><g class="cls-7"><path class="cls-38" d="M94.27,143.19h17.72v-2.25h-17.72v2.25Z"/></g></g><g id="patch_12"><g class="cls-30"><path class="cls-38" d="M119.58,148.35h17.72v-2.95h-17.72v2.95Z"/></g></g><g id="patch_13"><g class="cls-31"><path class="cls-38" d="M144.9,154.33h17.72v-10.03h-17.72v10.03Z"/></g></g><g id="patch_14"><g class="cls-32"><path class="cls-38" d="M170.21,167.68h17.72v-31.82h-17.72v31.82Z"/></g></g><g id="patch_15"><g class="cls-33"><path class="cls-4" d="M43.64,126.52h17.72V9.48h-17.72v117.04Z"/></g></g><g id="patch_16"><g class="cls-34"><path class="cls-4" d="M68.96,131.73h17.72V9.48h-17.72v122.25Z"/></g></g><g id="patch_17"><g class="cls-35"><path class="cls-4" d="M94.27,140.94h17.72V9.48h-17.72v131.46Z"/></g></g><g id="patch_18"><g class="cls-28"><path class="cls-4" d="M119.58,145.4h17.72V9.48h-17.72v135.92Z"/></g></g><g id="patch_19"><g class="cls-26"><path class="cls-4" d="M144.9,144.31h17.72V9.48h-17.72v134.83Z"/></g></g><g id="patch_20"><g class="cls-29"><path class="cls-4" d="M170.21,135.86h17.72V9.48h-17.72v126.38Z"/></g></g><g id="patch_21"><path class="cls-2" d="M36.43,175.8V9.48"/></g><g id="patch_23"><path class="cls-2" d="M36.43,175.8h158.72"/></g></g><g id="axes_2"><g id="patch_25"><path class="cls-48" d="M239.79,175.8h19.84V9.48h-19.84v166.32Z"/></g><g id="matplotlib.axis_3"><g id="xtick_7"><g id="line2d_29"><path id="m21d6d002bb-7" class="cls-5" d="M249.71,175.8v3.5"/></g><g id="text_19"><g class="cls-6"><path d="M238.79,183.18c.42.22.68.62.77,1.18h-.58c-.07-.31-.21-.54-.43-.69-.22-.14-.49-.21-.82-.21-.39,0-.72.15-.99.45s-.4.74-.4,1.34c0,.51.11.93.33,1.25.22.32.58.48,1.08.48.38,0,.7-.11.95-.34.25-.23.38-.59.38-1.09h-1.35v-.48h1.89v2.3h-.38l-.14-.55c-.19.22-.37.37-.52.45-.25.14-.57.22-.96.22-.5,0-.93-.17-1.29-.5-.39-.41-.59-.98-.59-1.71s.19-1.29.58-1.72c.37-.41.84-.61,1.42-.61.4,0,.74.08,1.03.23Z"/><path d="M242.46,184.31c.21.1.37.24.47.41.1.16.17.34.21.55.03.14.05.38.05.69h-2.28c0,.32.08.58.22.77.14.19.36.29.65.29.27,0,.49-.09.65-.27.09-.11.16-.23.19-.37h.52c-.01.12-.06.24-.14.38-.08.14-.16.26-.26.35-.16.16-.36.26-.59.32-.13.03-.27.05-.43.05-.39,0-.72-.14-.99-.43-.27-.29-.41-.68-.41-1.19s.14-.91.41-1.23c.27-.31.63-.47,1.07-.47.22,0,.44.05.64.16ZM242.65,185.54c-.02-.23-.07-.41-.15-.55-.14-.25-.38-.38-.72-.38-.24,0-.44.09-.6.26-.16.18-.25.4-.26.67h1.73Z"/><path d="M243.86,184.22h.5v.45c.15-.18.31-.32.47-.4s.35-.12.55-.12c.45,0,.75.16.9.47.09.17.13.41.13.73v2.01h-.54v-1.98c0-.19-.03-.35-.08-.46-.09-.2-.26-.29-.51-.29-.12,0-.23.01-.31.04-.14.04-.27.13-.38.26-.09.1-.14.21-.17.32-.03.11-.04.27-.04.47v1.64h-.53v-3.14Z"/><path d="M249.47,184.53c.28.27.42.67.42,1.19s-.12.92-.37,1.25c-.24.33-.62.5-1.14.5-.43,0-.77-.15-1.02-.44-.25-.29-.38-.68-.38-1.18,0-.53.13-.95.4-1.26.27-.31.62-.47,1.07-.47.4,0,.74.13,1.02.4ZM249.14,186.62c.13-.26.19-.56.19-.88,0-.29-.05-.53-.14-.71-.15-.29-.4-.43-.76-.43-.32,0-.55.12-.7.37-.15.25-.22.54-.22.89s.07.61.22.83c.14.22.37.33.69.33.35,0,.58-.13.71-.4Z"/><path d="M250.53,184.22h.52v.45c.12-.15.24-.27.34-.34.17-.12.37-.18.59-.18.25,0,.45.06.6.18.09.07.16.17.23.31.12-.17.25-.29.41-.37s.34-.12.53-.12c.42,0,.71.15.86.46.08.16.12.38.12.66v2.09h-.55v-2.18c0-.21-.05-.35-.16-.43-.11-.08-.23-.12-.38-.12-.21,0-.38.07-.54.21-.15.14-.22.37-.22.69v1.83h-.54v-2.05c0-.21-.03-.37-.08-.47-.08-.15-.23-.22-.45-.22-.2,0-.38.08-.54.23s-.25.43-.25.84v1.66h-.53v-3.14Z"/><path d="M257.47,184.31c.21.1.37.24.47.41.1.16.17.34.21.55.03.14.05.38.05.69h-2.28c0,.32.08.58.22.77.14.19.36.29.65.29.27,0,.49-.09.65-.27.09-.11.16-.23.19-.37h.52c-.01.12-.06.24-.14.38-.08.14-.16.26-.26.35-.16.16-.36.26-.59.32-.13.03-.27.05-.43.05-.39,0-.72-.14-.99-.43-.27-.29-.4-.68-.4-1.19s.14-.91.41-1.23c.27-.31.63-.47,1.07-.47.22,0,.44.05.64.16ZM257.66,185.54c-.02-.23-.07-.41-.15-.55-.14-.25-.38-.38-.72-.38-.24,0-.44.09-.6.26-.16.18-.25.4-.26.67h1.73Z"/><path d="M259.18,186.37c.02.18.06.31.13.4.14.17.37.25.71.25.2,0,.38-.04.53-.13.15-.08.23-.22.23-.39,0-.13-.06-.24-.18-.31-.08-.04-.23-.09-.46-.15l-.43-.11c-.27-.07-.47-.14-.6-.22-.23-.14-.35-.34-.35-.59,0-.3.11-.54.33-.72s.51-.28.87-.28c.48,0,.82.14,1.04.42.13.18.2.37.19.57h-.5c0-.12-.05-.23-.13-.32-.12-.14-.34-.21-.64-.21-.2,0-.36.04-.46.11-.1.08-.16.18-.16.3,0,.14.07.25.21.33.08.05.2.09.35.13l.35.08c.39.09.64.18.78.27.21.13.31.35.31.64s-.11.52-.32.72c-.21.2-.54.3-.98.3-.47,0-.81-.11-1-.32-.2-.21-.3-.47-.32-.79h.51Z"/></g><g class="cls-6"><path d="M240.44,189.95v.46c-.13.13-.31.36-.54.68s-.42.67-.59,1.05c-.17.37-.3.7-.39,1-.06.19-.13.5-.22.93h-.58c.13-.8.43-1.6.88-2.39.27-.46.55-.87.84-1.2h-2.32v-.53h2.92Z"/><path d="M241.12,193.78c-.22-.27-.34-.6-.34-.99h.55c.02.27.07.47.15.59.14.22.38.33.74.33.28,0,.5-.07.67-.22s.25-.34.25-.57c0-.29-.09-.49-.26-.61s-.42-.17-.74-.17c-.04,0-.07,0-.11,0-.04,0-.07,0-.11,0v-.47c.05,0,.1,0,.14.01s.08,0,.12,0c.2,0,.36-.03.49-.09.22-.11.33-.3.33-.59,0-.21-.07-.37-.22-.48s-.32-.17-.52-.17c-.35,0-.59.12-.73.35-.07.13-.12.31-.13.55h-.52c0-.31.06-.58.19-.8.21-.39.59-.59,1.13-.59.43,0,.76.1.99.29.23.19.35.47.35.83,0,.26-.07.47-.21.63-.09.1-.2.18-.33.23.22.06.39.18.52.35.12.17.19.38.19.63,0,.4-.13.73-.4.98s-.64.38-1.12.38-.86-.14-1.08-.41Z"/><path d="M244.39,193.13c.13-.27.38-.51.76-.73l.56-.33c.25-.15.43-.27.53-.38.16-.16.24-.35.24-.56,0-.25-.07-.44-.22-.58s-.34-.22-.59-.22c-.36,0-.61.14-.75.41-.07.15-.12.35-.12.61h-.54c0-.37.07-.66.2-.89.23-.41.63-.61,1.21-.61.48,0,.83.13,1.05.39s.33.55.33.87c0,.34-.12.62-.35.86-.14.14-.38.31-.74.5l-.4.22c-.19.11-.34.21-.45.3-.2.17-.32.36-.37.57h2.29v.5h-2.88c.02-.36.09-.68.22-.94Z"/><path d="M247.81,194.69c.13-.02.23-.12.28-.29.03-.09.04-.17.04-.26,0-.01,0-.03,0-.04s0-.02,0-.04h-.32v-.64h.63v.59c0,.23-.05.44-.14.61s-.26.28-.49.33v-.28Z"/><path d="M250.97,194.08v-1.03h-1.84v-.52l1.92-2.67h.45v2.72h.62v.46h-.62v1.03h-.53ZM250.96,192.59v-1.91l-1.34,1.91h1.34Z"/><path d="M255.45,189.95v.46c-.13.13-.31.36-.54.68s-.42.67-.59,1.05c-.17.37-.3.7-.39,1-.06.19-.13.5-.22.93h-.58c.13-.8.43-1.6.88-2.39.27-.46.55-.87.84-1.2h-2.32v-.53h2.92Z"/><path d="M256.39,193.01c.04.3.17.51.42.62.12.06.27.09.43.09.31,0,.54-.1.69-.3s.23-.42.23-.66c0-.29-.09-.52-.27-.68-.18-.16-.39-.24-.64-.24-.18,0-.34.04-.47.11s-.24.17-.33.29l-.46-.03.32-2.26h2.18v.51h-1.78l-.18,1.17c.1-.07.19-.13.28-.17.16-.06.34-.1.54-.1.38,0,.71.12.98.37s.4.56.4.94-.12.75-.37,1.05c-.25.3-.64.45-1.17.45-.34,0-.64-.1-.91-.29-.26-.19-.41-.49-.44-.89h.55Z"/></g></g></g></g><g id="matplotlib.axis_4"><g id="ytick_12"><g id="line2d_30"><g class="cls-27"><path class="cls-3" d="M239.79,175.8h19.84"/></g></g><g id="line2d_31"><path id="m615a5551e9-12" class="cls-5" d="M239.79,175.8h-3.5"/></g><g id="text_20"><g class="cls-6"><path d="M232.25,174.55c.19.35.28.82.28,1.42,0,.57-.08,1.04-.25,1.41-.25.54-.65.8-1.21.8-.5,0-.88-.22-1.12-.66-.21-.37-.31-.86-.31-1.47,0-.48.06-.88.18-1.23.23-.64.65-.96,1.25-.96.54,0,.94.22,1.18.67ZM231.72,177.35c.16-.24.24-.69.24-1.35,0-.48-.06-.87-.18-1.18-.12-.31-.35-.46-.68-.46-.31,0-.54.15-.68.44-.14.29-.22.72-.22,1.29,0,.43.05.77.14,1.03.14.4.38.59.72.59.27,0,.49-.12.65-.36Z"/></g></g></g><g id="ytick_13"><g id="line2d_32"><g class="cls-22"><path class="cls-3" d="M239.79,159.17h19.84"/></g></g><g id="line2d_33"><path id="m615a5551e9-13" class="cls-5" d="M239.79,159.17h-3.5"/></g><g id="text_21"><g class="cls-6"><path d="M226.69,158.48v-.4c.38-.04.65-.1.8-.19s.26-.29.34-.62h.42v4.18h-.56v-2.97h-.99Z"/><path d="M232.25,157.92c.19.35.28.82.28,1.42,0,.57-.08,1.04-.25,1.42-.25.54-.65.8-1.21.8-.5,0-.88-.22-1.12-.66-.21-.37-.31-.86-.31-1.47,0-.48.06-.89.18-1.23.23-.64.65-.96,1.25-.96.54,0,.94.22,1.18.67ZM231.72,160.72c.16-.24.24-.69.24-1.35,0-.48-.06-.87-.18-1.18-.12-.31-.35-.46-.68-.46-.31,0-.54.15-.68.44-.14.29-.22.72-.22,1.29,0,.43.05.77.14,1.03.14.4.38.59.72.59.27,0,.49-.12.65-.36Z"/></g></g></g><g id="ytick_14"><g id="line2d_34"><g class="cls-16"><path class="cls-3" d="M239.79,142.54h19.84"/></g></g><g id="line2d_35"><path id="m615a5551e9-14" class="cls-5" d="M239.79,142.54h-3.5"/></g><g id="text_22"><g class="cls-6"><path d="M226.53,143.87c.13-.27.38-.51.76-.73l.56-.33c.25-.15.43-.27.53-.38.16-.16.24-.35.24-.56,0-.25-.07-.44-.22-.58s-.34-.22-.59-.22c-.36,0-.61.14-.75.41-.07.15-.12.35-.12.61h-.54c0-.37.07-.66.2-.89.23-.41.63-.61,1.21-.61.48,0,.83.13,1.05.39s.33.55.33.87c0,.34-.12.62-.35.86-.14.14-.38.31-.74.5l-.4.22c-.19.11-.34.21-.45.3-.2.17-.32.36-.37.57h2.29v.5h-2.88c.02-.36.09-.68.22-.94Z"/><path d="M232.25,141.29c.19.35.28.82.28,1.42,0,.57-.08,1.04-.25,1.42-.25.54-.65.8-1.21.8-.5,0-.88-.22-1.12-.66-.21-.37-.31-.86-.31-1.47,0-.48.06-.89.18-1.23.23-.64.65-.96,1.25-.96.54,0,.94.22,1.18.67ZM231.72,144.09c.16-.24.24-.69.24-1.35,0-.48-.06-.87-.18-1.18-.12-.31-.35-.46-.68-.46-.31,0-.54.15-.68.44-.14.29-.22.72-.22,1.29,0,.43.05.77.14,1.03.14.4.38.59.72.59.27,0,.49-.12.65-.36Z"/></g></g></g><g id="ytick_15"><g id="line2d_36"><g class="cls-17"><path class="cls-3" d="M239.79,125.9h19.84"/></g></g><g id="line2d_37"><path id="m615a5551e9-15" class="cls-5" d="M239.79,125.9h-3.5"/></g><g id="text_23"><g class="cls-6"><path d="M226.59,127.89c-.22-.27-.34-.6-.34-.99h.55c.02.27.07.47.15.59.14.22.38.33.74.33.28,0,.5-.07.67-.22s.25-.34.25-.57c0-.29-.09-.49-.26-.61s-.42-.17-.74-.17c-.04,0-.07,0-.11,0-.04,0-.07,0-.11,0v-.47c.05,0,.1,0,.14.01s.08,0,.12,0c.2,0,.36-.03.49-.09.22-.11.33-.3.33-.59,0-.21-.07-.37-.22-.48s-.32-.17-.52-.17c-.35,0-.59.12-.73.35-.07.13-.12.31-.13.55h-.52c0-.31.06-.58.19-.8.21-.39.59-.59,1.13-.59.43,0,.76.1.99.29.23.19.35.47.35.83,0,.26-.07.47-.21.63-.09.1-.2.18-.33.23.22.06.39.18.52.35.12.17.19.38.19.63,0,.4-.13.73-.4.98s-.64.38-1.12.38-.86-.14-1.08-.41Z"/><path d="M232.25,124.66c.19.35.28.82.28,1.42,0,.57-.08,1.04-.25,1.42-.25.54-.65.8-1.21.8-.5,0-.88-.22-1.12-.66-.21-.37-.31-.86-.31-1.47,0-.48.06-.89.18-1.23.23-.64.65-.96,1.25-.96.54,0,.94.22,1.18.67ZM231.72,127.45c.16-.24.24-.69.24-1.35,0-.48-.06-.87-.18-1.18-.12-.31-.35-.46-.68-.46-.31,0-.54.15-.68.44-.14.29-.22.72-.22,1.29,0,.43.05.77.14,1.03.14.4.38.59.72.59.27,0,.49-.12.65-.36Z"/></g></g></g><g id="ytick_16"><g id="line2d_38"><g class="cls-18"><path class="cls-3" d="M239.79,109.27h19.84"/></g></g><g id="line2d_39"><path id="m615a5551e9-16" class="cls-5" d="M239.79,109.27h-3.5"/></g><g id="text_24"><g class="cls-6"><path d="M228.11,111.55v-1.03h-1.84v-.52l1.92-2.67h.45v2.72h.62v.46h-.62v1.03h-.53ZM228.1,110.07v-1.91l-1.34,1.91h1.34Z"/><path d="M232.25,108.03c.19.35.28.82.28,1.42,0,.57-.08,1.04-.25,1.42-.25.54-.65.8-1.21.8-.5,0-.88-.22-1.12-.66-.21-.37-.31-.86-.31-1.47,0-.48.06-.89.18-1.23.23-.64.65-.96,1.25-.96.54,0,.94.22,1.18.67ZM231.72,110.82c.16-.24.24-.69.24-1.35,0-.48-.06-.87-.18-1.18-.12-.31-.35-.46-.68-.46-.31,0-.54.15-.68.44-.14.29-.22.72-.22,1.29,0,.43.05.77.14,1.03.14.4.38.59.72.59.27,0,.49-.12.65-.36Z"/></g></g></g><g id="ytick_17"><g id="line2d_40"><g class="cls-19"><path class="cls-3" d="M239.79,92.64h19.84"/></g></g><g id="line2d_41"><path id="m615a5551e9-17" class="cls-5" d="M239.79,92.64h-3.5"/></g><g id="text_25"><g class="cls-6"><path d="M226.85,93.85c.04.3.17.51.42.62.12.06.27.09.43.09.31,0,.54-.1.69-.3s.23-.42.23-.66c0-.29-.09-.52-.27-.68s-.39-.24-.64-.24c-.18,0-.34.04-.47.11s-.24.17-.33.29l-.46-.03.32-2.26h2.18v.51h-1.78l-.18,1.17c.1-.07.19-.13.28-.17.16-.06.34-.1.54-.1.38,0,.71.12.98.37s.4.56.4.94-.12.75-.37,1.05-.64.45-1.17.45c-.34,0-.64-.1-.91-.29-.26-.19-.41-.49-.44-.89h.55Z"/><path d="M232.25,91.39c.19.35.28.82.28,1.42,0,.57-.08,1.04-.25,1.42-.25.54-.65.8-1.21.8-.5,0-.88-.22-1.12-.66-.21-.37-.31-.86-.31-1.47,0-.48.06-.89.18-1.23.23-.64.65-.96,1.25-.96.54,0,.94.22,1.18.67ZM231.72,94.19c.16-.24.24-.69.24-1.35,0-.48-.06-.87-.18-1.18-.12-.31-.35-.46-.68-.46-.31,0-.54.15-.68.44-.14.29-.22.72-.22,1.29,0,.43.05.77.14,1.03.14.4.38.59.72.59.27,0,.49-.12.65-.36Z"/></g></g></g><g id="ytick_18"><g id="line2d_42"><g class="cls-20"><path class="cls-3" d="M239.79,76.01h19.84"/></g></g><g id="line2d_43"><path id="m615a5551e9-18" class="cls-5" d="M239.79,76.01h-3.5"/></g><g id="text_26"><g class="cls-6"><path d="M228.85,74.44c.18.24.28.49.28.75h-.52c-.03-.17-.08-.3-.15-.39-.13-.18-.32-.26-.58-.26-.29,0-.53.14-.7.41-.17.27-.27.66-.29,1.17.12-.18.27-.31.46-.4.17-.08.36-.12.56-.12.35,0,.66.11.92.34s.39.56.39,1c0,.38-.12.72-.37,1.01s-.6.44-1.06.44c-.39,0-.73-.15-1.02-.45s-.43-.8-.43-1.5c0-.52.06-.96.19-1.33.24-.7.69-1.04,1.34-1.04.47,0,.8.12.98.37ZM228.45,77.65c.14-.19.21-.41.21-.66,0-.21-.06-.42-.18-.61s-.35-.29-.67-.29c-.23,0-.42.08-.6.23s-.26.38-.26.68c0,.27.08.49.23.67s.37.27.65.27.49-.09.62-.28Z"/><path d="M232.25,74.76c.19.35.28.82.28,1.42,0,.57-.08,1.04-.25,1.42-.25.54-.65.8-1.21.8-.5,0-.88-.22-1.12-.66-.21-.37-.31-.86-.31-1.47,0-.48.06-.89.18-1.23.23-.64.65-.96,1.25-.96.54,0,.94.22,1.18.67ZM231.72,77.56c.16-.24.24-.69.24-1.35,0-.48-.06-.87-.18-1.18-.12-.31-.35-.46-.68-.46-.31,0-.54.15-.68.44-.14.29-.22.72-.22,1.29,0,.43.05.77.14,1.03.14.4.38.59.72.59.27,0,.49-.12.65-.36Z"/></g></g></g><g id="ytick_19"><g id="line2d_44"><g class="cls-23"><path class="cls-3" d="M239.79,59.38h19.84"/></g></g><g id="line2d_45"><path id="m615a5551e9-19" class="cls-5" d="M239.79,59.38h-3.5"/></g><g id="text_27"><g class="cls-6"><path d="M229.25,57.53v.46c-.13.13-.31.36-.54.68s-.42.67-.59,1.05c-.17.37-.3.7-.39,1-.06.19-.13.5-.22.93h-.58c.13-.8.43-1.6.88-2.39.27-.46.55-.87.84-1.2h-2.32v-.53h2.92Z"/><path d="M232.25,58.13c.19.35.28.82.28,1.42,0,.57-.08,1.04-.25,1.42-.25.54-.65.8-1.21.8-.5,0-.88-.22-1.12-.66-.21-.37-.31-.86-.31-1.47,0-.48.06-.89.18-1.23.23-.64.65-.96,1.25-.96.54,0,.94.22,1.18.67ZM231.72,60.93c.16-.24.24-.69.24-1.35,0-.48-.06-.87-.18-1.18-.12-.31-.35-.46-.68-.46-.31,0-.54.15-.68.44-.14.29-.22.72-.22,1.29,0,.43.05.77.14,1.03.14.4.38.59.72.59.27,0,.49-.12.65-.36Z"/></g></g></g><g id="ytick_20"><g id="line2d_46"><g class="cls-24"><path class="cls-3" d="M239.79,42.74h19.84"/></g></g><g id="line2d_47"><path id="m615a5551e9-20" class="cls-5" d="M239.79,42.74h-3.5"/></g><g id="text_28"><g class="cls-6"><path d="M226.68,42.57c-.15-.16-.23-.36-.23-.61,0-.31.11-.58.34-.81s.55-.34.96-.34.72.11.95.32c.23.21.34.46.34.74,0,.26-.07.47-.2.64-.07.09-.19.18-.34.27.17.08.31.17.41.28.19.2.28.45.28.76,0,.37-.12.68-.37.94-.25.26-.6.39-1.05.39-.41,0-.75-.11-1.04-.33-.28-.22-.42-.54-.42-.96,0-.25.06-.46.18-.64s.3-.32.54-.42c-.15-.06-.26-.14-.34-.22ZM228.39,44.46c.16-.13.24-.33.24-.59s-.08-.48-.25-.62-.38-.21-.64-.21-.46.07-.62.22c-.16.14-.24.34-.24.6,0,.22.07.41.22.57.15.16.37.24.67.24.24,0,.45-.07.61-.2ZM228.29,42.39c.13-.13.2-.29.2-.47,0-.16-.06-.3-.19-.43-.12-.13-.32-.2-.57-.2s-.44.07-.55.2c-.11.13-.17.29-.17.46,0,.2.07.35.22.46.15.11.32.17.52.17.23,0,.41-.07.54-.2Z"/><path d="M232.25,41.5c.19.35.28.82.28,1.42,0,.57-.08,1.04-.25,1.42-.25.54-.65.8-1.21.8-.5,0-.88-.22-1.12-.66-.21-.37-.31-.86-.31-1.47,0-.48.06-.89.18-1.23.23-.64.65-.96,1.25-.96.54,0,.94.22,1.18.67ZM231.72,44.29c.16-.24.24-.69.24-1.35,0-.48-.06-.87-.18-1.18-.12-.31-.35-.46-.68-.46-.31,0-.54.15-.68.44-.14.29-.22.72-.22,1.29,0,.43.05.77.14,1.03.14.4.38.59.72.59.27,0,.49-.12.65-.36Z"/></g></g></g><g id="ytick_21"><g id="line2d_48"><g class="cls-25"><path class="cls-3" d="M239.79,26.11h19.84"/></g></g><g id="line2d_49"><path id="m615a5551e9-21" class="cls-5" d="M239.79,26.11h-3.5"/></g><g id="text_29"><g class="cls-6"><path d="M226.91,27.37c.02.29.13.49.34.6.11.06.23.09.36.09.25,0,.47-.1.64-.32.18-.21.3-.64.38-1.28-.12.19-.26.32-.43.39s-.36.11-.56.11c-.4,0-.72-.13-.96-.38-.24-.25-.35-.58-.35-.97s.12-.71.35-1c.23-.29.58-.43,1.03-.43.61,0,1.03.28,1.27.83.13.3.19.68.19,1.14,0,.51-.08.97-.23,1.36-.26.66-.69.99-1.3.99-.41,0-.72-.11-.93-.32s-.32-.48-.32-.81h.53ZM228.28,26.31c.17-.14.26-.38.26-.72,0-.31-.08-.54-.23-.69s-.35-.23-.59-.23c-.26,0-.46.09-.61.26s-.23.4-.23.69.07.49.2.65.34.24.64.24c.21,0,.4-.07.57-.21Z"/><path d="M232.25,24.87c.19.35.28.82.28,1.42,0,.57-.08,1.04-.25,1.42-.25.54-.65.8-1.21.8-.5,0-.88-.22-1.12-.66-.21-.37-.31-.86-.31-1.47,0-.48.06-.89.18-1.23.23-.64.65-.96,1.25-.96.54,0,.94.22,1.18.67ZM231.72,27.66c.16-.24.24-.69.24-1.35,0-.48-.06-.87-.18-1.18-.12-.31-.35-.46-.68-.46-.31,0-.54.15-.68.44-.14.29-.22.72-.22,1.29,0,.43.05.77.14,1.03.14.4.38.59.72.59.27,0,.49-.12.65-.36Z"/></g></g></g><g id="ytick_22"><g id="line2d_50"><g class="cls-21"><path class="cls-3" d="M239.79,9.48h19.84"/></g></g><g id="line2d_51"><path id="m615a5551e9-22" class="cls-5" d="M239.79,9.48h-3.5"/></g><g id="text_30"><g class="cls-6"><path d="M223.35,8.79v-.4c.38-.04.65-.1.8-.19s.26-.29.34-.62h.42v4.18h-.56v-2.97h-.99Z"/><path d="M228.91,8.23c.19.35.28.82.28,1.42,0,.57-.08,1.04-.25,1.42-.25.54-.65.8-1.21.8-.5,0-.88-.22-1.12-.66-.21-.37-.31-.86-.31-1.47,0-.48.06-.89.18-1.23.23-.64.65-.96,1.25-.96.54,0,.94.22,1.18.67ZM228.38,11.03c.16-.24.24-.69.24-1.35,0-.48-.06-.87-.18-1.18-.12-.31-.35-.46-.68-.46-.31,0-.54.15-.68.44-.14.29-.22.72-.22,1.29,0,.43.05.77.14,1.03.14.4.38.59.72.59.27,0,.49-.12.65-.36Z"/><path d="M232.25,8.23c.19.35.28.82.28,1.42,0,.57-.08,1.04-.25,1.42-.25.54-.65.8-1.21.8-.5,0-.88-.22-1.12-.66-.21-.37-.31-.86-.31-1.47,0-.48.06-.89.18-1.23.23-.64.65-.96,1.25-.96.54,0,.94.22,1.18.67ZM231.72,11.03c.16-.24.24-.69.24-1.35,0-.48-.06-.87-.18-1.18-.12-.31-.35-.46-.68-.46-.31,0-.54.15-.68.44-.14.29-.22.72-.22,1.29,0,.43.05.77.14,1.03.14.4.38.59.72.59.27,0,.49-.12.65-.36Z"/></g></g></g><g id="text_31"><g class="cls-6"><path d="M211,110.35c.26-.49.72-.79,1.38-.9v.67c-.37.08-.63.25-.8.5-.17.25-.25.57-.25.95,0,.46.17.84.52,1.15.35.31.87.47,1.56.47.6,0,1.08-.13,1.46-.39s.56-.67.56-1.26c0-.44-.13-.81-.39-1.1-.26-.29-.69-.44-1.28-.45v1.57h-.56v-2.2h2.69v.44l-.65.16c.25.23.43.43.53.6.17.29.25.67.25,1.12,0,.58-.19,1.09-.58,1.51-.48.46-1.15.69-1.99.69s-1.51-.22-2.01-.67c-.47-.43-.71-.98-.71-1.66,0-.46.09-.87.27-1.21Z"/><path d="M212.32,106.07c.12-.24.28-.43.47-.55.18-.12.4-.2.65-.24.17-.04.44-.05.81-.05v2.66c.37-.01.67-.1.9-.26.22-.16.34-.42.34-.76,0-.32-.11-.57-.32-.76-.12-.11-.27-.18-.43-.23v-.61c.13.02.28.07.45.16.17.09.3.19.41.3.18.19.31.41.37.69.04.15.05.31.05.5,0,.45-.17.84-.5,1.15-.33.32-.8.47-1.39.47s-1.07-.16-1.43-.48-.55-.73-.55-1.24c0-.26.06-.51.18-.75ZM213.76,105.85c-.27.02-.48.08-.64.17-.3.17-.44.45-.44.84,0,.28.1.52.31.71s.46.29.78.3v-2.02Z"/><path d="M212.22,104.44v-.58h.52c-.21-.17-.37-.36-.46-.55s-.14-.41-.14-.65c0-.52.18-.87.54-1.05.2-.1.48-.15.85-.15h2.35v.63h-2.31c-.22,0-.4.03-.54.1-.23.11-.34.31-.34.6,0,.15.02.27.04.36.05.17.15.32.3.44.12.1.25.17.37.2.13.03.31.05.55.05h1.92v.62h-3.66Z"/><path d="M212.58,97.9c.31-.32.78-.49,1.39-.49s1.08.14,1.46.43.58.73.58,1.33c0,.5-.17.9-.51,1.19-.34.29-.8.44-1.37.44-.61,0-1.1-.15-1.47-.46s-.55-.73-.55-1.25c0-.47.16-.86.47-1.19ZM215.02,98.28c-.31-.15-.65-.23-1.03-.23-.34,0-.62.05-.83.16-.34.17-.51.47-.51.89,0,.37.14.64.43.81s.63.25,1.04.25.71-.08.97-.25.39-.44.39-.8c0-.4-.15-.68-.46-.83Z"/><path d="M212.22,96.65v-.61h.52c-.18-.15-.31-.28-.39-.4-.14-.2-.21-.43-.21-.69,0-.29.07-.53.21-.7.08-.1.2-.19.36-.27-.2-.14-.34-.3-.44-.48-.09-.19-.14-.39-.14-.62,0-.49.18-.83.53-1,.19-.1.45-.14.77-.14h2.44v.64h-2.54c-.24,0-.41.06-.5.18-.09.12-.14.27-.14.45,0,.24.08.45.24.62.16.17.43.26.81.26h2.13v.62h-2.39c-.25,0-.43.03-.54.09-.17.09-.26.27-.26.52,0,.23.09.44.27.63s.51.29.98.29h1.94v.62h-3.66Z"/><path d="M212.32,88.56c.12-.24.28-.43.47-.55.18-.12.4-.2.65-.25.17-.04.44-.05.81-.05v2.66c.37-.01.67-.1.9-.26.22-.16.34-.42.34-.76,0-.32-.11-.57-.32-.76-.12-.11-.27-.18-.43-.23v-.61c.13.02.28.07.45.16s.3.19.41.3c.18.19.31.42.37.69.04.15.05.31.05.5,0,.45-.17.84-.5,1.15-.33.31-.8.47-1.39.47s-1.07-.16-1.43-.48c-.37-.32-.55-.73-.55-1.24,0-.26.06-.51.18-.75ZM213.76,88.34c-.27.02-.48.08-.64.17-.3.17-.44.45-.44.84,0,.28.1.52.31.71s.46.29.78.3v-2.02Z"/><path d="M214.73,86.57c.21-.02.36-.07.47-.16.2-.16.3-.43.3-.82,0-.23-.05-.44-.15-.61-.1-.18-.25-.26-.46-.26-.16,0-.28.07-.36.21-.05.09-.11.27-.17.54l-.12.5c-.08.32-.16.55-.26.7-.17.27-.4.4-.69.4-.35,0-.63-.13-.84-.38-.21-.25-.32-.59-.32-1.02,0-.56.16-.96.48-1.21.21-.15.43-.23.66-.23v.58c-.14.01-.26.06-.38.15-.16.14-.24.39-.24.75,0,.24.04.42.13.54.09.12.21.18.35.18.16,0,.29-.08.38-.24.06-.09.11-.23.15-.41l.1-.42c.11-.45.21-.75.31-.91.16-.24.4-.36.74-.36s.61.13.84.38c.24.25.36.63.36,1.14,0,.55-.12.94-.37,1.17s-.55.35-.92.37v-.59Z"/><path d="M210.78,79.87c.7.36,1.21.59,1.54.7.5.16,1.08.24,1.73.24s1.26-.09,1.81-.28c.34-.11.82-.34,1.46-.67v.41c-.52.33-.85.54-1,.62-.14.08-.34.17-.58.26-.34.13-.7.22-1.08.27-.2.03-.39.04-.57.04-.67,0-1.27-.11-1.8-.32-.33-.13-.84-.42-1.5-.84v-.43Z"/><path d="M211,75.33v-.38l5,2.74v.38l-5-2.74ZM211.48,77.35c.23-.23.51-.35.84-.35s.61.12.84.35.35.51.35.84-.12.61-.35.84-.51.35-.84.35-.61-.12-.84-.35-.35-.51-.35-.84.12-.61.35-.84ZM212.82,77.69c-.14-.14-.3-.21-.5-.21s-.36.07-.5.21-.21.3-.21.5.07.36.21.5.3.21.5.21.36-.07.5-.21.21-.3.21-.5-.07-.36-.21-.5ZM213.85,73.99c.23-.23.51-.35.84-.35s.61.12.84.35c.23.23.35.51.35.84s-.12.61-.35.84c-.23.23-.51.35-.84.35s-.61-.12-.84-.35-.35-.51-.35-.84.12-.61.35-.84ZM215.19,74.34c-.14-.14-.3-.21-.5-.21s-.36.07-.5.21c-.14.14-.21.3-.21.5s.07.36.21.5c.14.14.3.21.5.21s.36-.07.5-.21c.14-.14.21-.3.21-.5s-.07-.36-.21-.5Z"/><path d="M217.31,73.14c-.71-.36-1.22-.6-1.54-.7-.49-.16-1.06-.24-1.72-.24s-1.26.09-1.81.28c-.34.11-.82.34-1.46.67v-.41c.56-.35.91-.56,1.04-.64s.31-.15.54-.24c.28-.11.57-.19.84-.23s.55-.07.8-.07c.67,0,1.28.11,1.8.32.34.13.84.41,1.5.84v.43Z"/></g></g></g><g id="patch_27"><g class="cls-36"><path class="cls-38" d="M240.69,175.8h18.04v-86.09h-18.04v86.09Z"/></g></g><g id="patch_28"><g class="cls-37"><path class="cls-4" d="M240.69,89.71h18.04V9.48h-18.04v80.23Z"/></g></g><g id="patch_29"><path class="cls-2" d="M239.79,175.8V9.48"/></g><g id="patch_31"><path class="cls-2" d="M239.79,175.8h19.84"/></g><g id="legend_1"><g id="patch_33"><path class="cls-4" d="M265.03,19.44h12v-4.2h-12v4.2Z"/></g><g id="text_32"><g class="cls-6"><path d="M282.34,15.13h3.12v.53h-2.55v1.31h2.36v.5h-2.36v1.46h2.6v.51h-3.17v-4.3Z"/><path d="M285.92,16.3h.68l.72,1.1.73-1.1h.64s-1.06,1.53-1.06,1.53l1.1,1.61h-.67l-.78-1.18-.76,1.18h-.67l1.1-1.61-1.05-1.53Z"/><path d="M291.29,16.47c.22.17.35.47.4.89h-.51c-.03-.19-.1-.35-.21-.48s-.29-.19-.54-.19c-.34,0-.58.16-.72.49-.09.21-.14.48-.14.79s.07.58.2.79c.13.21.34.32.63.32.22,0,.39-.07.52-.2.13-.13.22-.32.26-.55h.51c-.06.42-.21.72-.44.91s-.53.29-.9.29c-.41,0-.74-.15-.98-.45-.24-.3-.37-.67-.37-1.12,0-.55.13-.98.4-1.29s.61-.46,1.02-.46c.35,0,.64.09.86.26Z"/><path d="M292.23,15.13h.53v4.3h-.53v-4.3Z"/><path d="M294.08,16.3v2.08c0,.16.03.29.07.39.09.19.26.28.51.28.36,0,.6-.16.73-.49.07-.18.11-.42.11-.72v-1.54h.53v3.14h-.5v-.46c-.06.12-.14.22-.24.3-.2.16-.44.25-.72.25-.44,0-.74-.15-.9-.45-.09-.16-.13-.37-.13-.64v-2.13h.54Z"/><path d="M297.2,18.45c.02.18.06.31.13.4.14.17.37.25.71.25.2,0,.37-.04.53-.13.15-.08.23-.22.23-.39,0-.13-.06-.24-.18-.31-.08-.04-.23-.09-.46-.15l-.43-.11c-.27-.07-.47-.14-.6-.22-.23-.14-.35-.34-.35-.59,0-.3.11-.54.33-.72s.51-.28.87-.28c.48,0,.82.14,1.04.42.13.18.2.37.19.57h-.5c0-.12-.05-.23-.13-.32-.12-.14-.34-.21-.65-.21-.2,0-.36.04-.46.11-.1.08-.16.18-.16.3,0,.14.07.25.21.33.08.05.2.09.35.13l.36.08c.39.09.64.18.78.27.21.13.31.35.31.64s-.11.52-.32.72c-.21.2-.54.3-.98.3-.47,0-.81-.11-1-.32-.2-.21-.3-.47-.32-.79h.51Z"/><path d="M299.89,15.13h.54v.6h-.54v-.6ZM299.89,16.32h.54v3.12h-.54v-3.12Z"/><path d="M301.48,16.3l.84,2.55.87-2.55h.58l-1.18,3.14h-.56l-1.16-3.14h.61Z"/><path d="M306.16,16.39c.21.1.37.24.47.41.1.16.17.34.21.55.03.14.05.38.05.69h-2.28c0,.32.08.58.22.77.14.19.36.29.65.29.27,0,.49-.09.65-.27.09-.11.16-.23.19-.37h.52c-.01.12-.06.24-.14.38-.08.14-.16.26-.26.35-.16.16-.36.26-.59.32-.13.03-.27.05-.43.05-.39,0-.72-.14-.99-.43-.27-.29-.4-.68-.4-1.19s.14-.91.41-1.23c.27-.31.63-.47,1.07-.47.22,0,.44.05.64.16ZM306.35,17.62c-.02-.23-.07-.41-.15-.55-.14-.25-.38-.38-.72-.38-.24,0-.44.09-.6.26-.16.18-.25.4-.26.67h1.73Z"/><path d="M307.57,15.13h.53v4.3h-.53v-4.3Z"/><path d="M310.85,16.3h.58c-.08.2-.24.66-.5,1.38-.19.54-.35.98-.48,1.32-.3.8-.52,1.29-.64,1.46s-.34.26-.64.26c-.07,0-.13,0-.17,0s-.09-.02-.15-.03v-.48c.09.03.16.04.2.05s.08,0,.11,0c.1,0,.17-.02.22-.05.04-.03.08-.07.12-.12,0-.02.04-.09.11-.24s.1-.25.13-.32l-1.16-3.23h.6l.84,2.56.85-2.56Z"/><path d="M313.61,15.13h.83l1.24,3.64,1.23-3.64h.83v4.3h-.56v-2.54c0-.09,0-.23,0-.44s0-.42,0-.65l-1.23,3.63h-.58l-1.24-3.63v.13c0,.11,0,.27,0,.48s0,.37,0,.48v2.54h-.56v-4.3Z"/><path d="M319.88,15.13h.66l1.56,4.3h-.64l-.44-1.29h-1.7l-.47,1.29h-.6l1.62-4.3ZM320.83,17.67l-.65-1.9-.69,1.9h1.35Z"/><path d="M325.49,15.26c.42.22.68.62.77,1.18h-.58c-.07-.31-.21-.54-.43-.69-.22-.14-.49-.21-.82-.21-.39,0-.72.15-.99.45s-.4.74-.4,1.34c0,.51.11.93.33,1.25.22.32.58.48,1.08.48.38,0,.7-.11.95-.34.25-.23.38-.59.38-1.09h-1.35v-.48h1.89v2.3h-.38l-.14-.55c-.19.22-.37.37-.52.45-.25.14-.57.22-.96.22-.5,0-.93-.17-1.29-.5-.39-.41-.59-.98-.59-1.71s.19-1.29.58-1.72c.37-.41.84-.61,1.42-.61.4,0,.74.08,1.03.23Z"/><path d="M327.54,18.45c.02.18.06.31.13.4.14.17.37.25.71.25.2,0,.38-.04.53-.13.15-.08.23-.22.23-.39,0-.13-.06-.24-.18-.31-.08-.04-.23-.09-.46-.15l-.43-.11c-.27-.07-.47-.14-.6-.22-.23-.14-.35-.34-.35-.59,0-.3.11-.54.33-.72s.51-.28.87-.28c.48,0,.82.14,1.04.42.13.18.2.37.19.57h-.5c0-.12-.05-.23-.13-.32-.12-.14-.34-.21-.64-.21-.2,0-.36.04-.46.11-.1.08-.16.18-.16.3,0,.14.07.25.21.33.08.05.2.09.35.13l.35.08c.39.09.64.18.78.27.21.13.31.35.31.64s-.11.52-.32.72c-.21.2-.54.3-.98.3-.47,0-.81-.11-1-.32-.2-.21-.3-.47-.32-.79h.51Z"/><path d="M333.57,17.54c.12-.02.2-.07.24-.15.02-.05.04-.12.04-.2,0-.18-.06-.31-.19-.39s-.31-.12-.55-.12c-.28,0-.47.07-.58.22-.06.08-.11.21-.13.37h-.49c0-.39.13-.66.38-.81.24-.15.52-.23.84-.23.37,0,.67.07.9.21.23.14.34.36.34.66v1.81c0,.05.01.1.03.13s.07.05.14.05c.02,0,.05,0,.08,0,.03,0,.06,0,.09-.01v.39c-.08.02-.14.04-.19.04s-.1,0-.18,0c-.18,0-.31-.06-.4-.19-.04-.07-.07-.17-.09-.29-.11.14-.26.26-.46.37s-.42.16-.67.16c-.29,0-.53-.09-.71-.26-.19-.18-.28-.4-.28-.66,0-.29.09-.52.27-.68s.42-.26.71-.3l.84-.1ZM332.46,18.96c.11.09.24.13.4.13.19,0,.37-.04.54-.13.29-.14.44-.38.44-.7v-.42c-.06.04-.15.08-.25.1-.1.03-.2.05-.3.06l-.32.04c-.19.03-.33.07-.43.12-.16.09-.24.24-.24.44,0,.15.06.27.17.36Z"/><path d="M335.23,16.3h.5v.45c.15-.18.31-.32.47-.4s.35-.12.55-.12c.45,0,.75.16.9.47.09.17.13.41.13.73v2.01h-.54v-1.98c0-.19-.03-.35-.08-.46-.09-.2-.26-.29-.51-.29-.12,0-.23.01-.31.04-.14.04-.27.13-.38.26-.09.1-.14.21-.17.32-.03.11-.04.27-.04.47v1.64h-.53v-3.14Z"/><path d="M340.29,16.4c.09.06.2.16.32.31v-1.58h.51v4.32h-.47v-.44c-.12.19-.27.33-.43.42-.17.09-.36.13-.58.13-.35,0-.65-.15-.9-.44-.26-.29-.38-.68-.38-1.17,0-.46.12-.85.35-1.19.23-.33.56-.5,1-.5.24,0,.44.05.6.15ZM339.11,18.75c.14.23.37.34.68.34.24,0,.44-.1.6-.32.16-.21.23-.51.23-.9s-.08-.69-.24-.88c-.16-.19-.36-.29-.6-.29-.26,0-.48.1-.64.3s-.25.5-.25.9c0,.34.07.62.21.84Z"/><path d="M342.88,15.13h.45l-1.37,4.3h-.45l1.37-4.3Z"/><path d="M345.84,16.61c.28.27.42.67.42,1.19s-.12.92-.37,1.25c-.25.33-.62.5-1.14.5-.43,0-.77-.15-1.02-.44s-.38-.68-.38-1.18c0-.53.13-.95.4-1.26.27-.31.62-.47,1.07-.47.4,0,.74.13,1.02.4ZM345.51,18.7c.13-.26.19-.56.19-.88,0-.29-.05-.53-.14-.71-.15-.29-.4-.43-.76-.43-.32,0-.55.12-.7.37-.14.25-.22.54-.22.89s.07.61.22.83c.15.22.38.33.69.33.35,0,.58-.13.71-.4Z"/><path d="M346.92,16.3h.5v.54c.04-.11.14-.23.3-.38s.34-.23.55-.23c0,0,.03,0,.05,0s.06,0,.12.01v.56s-.06,0-.09-.01c-.03,0-.06,0-.09,0-.27,0-.47.09-.61.26s-.21.37-.21.59v1.8h-.53v-3.14Z"/><path d="M351.02,18.05c.01.24.07.44.17.59.19.29.51.43.99.43.21,0,.4-.03.58-.09.33-.12.5-.34.5-.65,0-.23-.07-.4-.21-.5-.14-.1-.37-.18-.68-.25l-.56-.13c-.37-.09-.63-.18-.78-.28-.26-.18-.4-.45-.4-.81,0-.39.13-.7.39-.95s.63-.37,1.11-.37c.44,0,.81.11,1.12.33.31.22.46.57.46,1.04h-.55c-.03-.23-.09-.41-.18-.53-.17-.22-.46-.34-.87-.34-.33,0-.57.07-.71.22-.14.14-.22.31-.22.5,0,.21.08.37.26.46.11.06.36.14.76.23l.58.14c.28.07.5.16.65.27.26.2.4.49.4.88,0,.48-.17.82-.51,1.02-.34.21-.73.31-1.18.31-.52,0-.93-.14-1.23-.41-.3-.27-.44-.64-.43-1.1h.55Z"/><path d="M355.89,15.13h.66l1.56,4.3h-.64l-.44-1.29h-1.7l-.47,1.29h-.6l1.62-4.3ZM356.85,17.67l-.65-1.9-.69,1.9h1.35Z"/><path d="M361.51,15.26c.42.22.68.62.77,1.18h-.58c-.07-.31-.21-.54-.43-.69-.22-.14-.49-.21-.82-.21-.39,0-.72.15-.99.45s-.4.74-.4,1.34c0,.51.11.93.33,1.25.22.32.58.48,1.08.48.38,0,.7-.11.95-.34.25-.23.38-.59.38-1.09h-1.35v-.48h1.89v2.3h-.38l-.14-.55c-.19.22-.37.37-.52.45-.25.14-.57.22-.96.22-.5,0-.93-.17-1.29-.5-.39-.41-.59-.98-.59-1.71s.19-1.29.58-1.72c.37-.41.84-.61,1.42-.61.4,0,.74.08,1.03.23Z"/><path d="M363.55,18.45c.02.18.06.31.13.4.14.17.37.25.71.25.2,0,.38-.04.53-.13.15-.08.23-.22.23-.39,0-.13-.06-.24-.18-.31-.08-.04-.23-.09-.46-.15l-.43-.11c-.27-.07-.47-.14-.6-.22-.23-.14-.35-.34-.35-.59,0-.3.11-.54.33-.72s.51-.28.87-.28c.48,0,.82.14,1.04.42.13.18.2.37.19.57h-.5c0-.12-.05-.23-.13-.32-.12-.14-.34-.21-.64-.21-.2,0-.36.04-.46.11-.1.08-.16.18-.16.3,0,.14.07.25.21.33.08.05.2.09.35.13l.35.08c.39.09.64.18.78.27.21.13.31.35.31.64s-.11.52-.32.72c-.21.2-.54.3-.98.3-.47,0-.81-.11-1-.32-.2-.21-.3-.47-.32-.79h.51Z"/></g></g><g id="patch_34"><path class="cls-38" d="M265.03,28.25h12v-4.2h-12v4.2Z"/></g><g id="text_33"><g class="cls-6"><path d="M282.34,23.94h3.12v.53h-2.55v1.31h2.36v.5h-2.36v1.46h2.6v.51h-3.17v-4.3Z"/><path d="M285.92,25.11h.68l.72,1.1.73-1.1h.64s-1.06,1.53-1.06,1.53l1.1,1.61h-.67l-.78-1.18-.76,1.18h-.67l1.1-1.61-1.05-1.53Z"/><path d="M291.29,25.27c.22.17.35.47.4.89h-.51c-.03-.19-.1-.35-.21-.48s-.29-.19-.54-.19c-.34,0-.58.16-.72.49-.09.21-.14.48-.14.79s.07.58.2.79c.13.21.34.32.63.32.22,0,.39-.07.52-.2.13-.13.22-.32.26-.55h.51c-.06.42-.21.72-.44.91s-.53.29-.9.29c-.41,0-.74-.15-.98-.45-.24-.3-.37-.67-.37-1.12,0-.55.13-.98.4-1.29s.61-.46,1.02-.46c.35,0,.64.09.86.26Z"/><path d="M292.23,23.94h.53v4.3h-.53v-4.3Z"/><path d="M294.08,25.11v2.08c0,.16.03.29.07.39.09.19.26.28.51.28.36,0,.6-.16.73-.49.07-.18.11-.42.11-.72v-1.54h.53v3.14h-.5v-.46c-.06.12-.14.22-.24.3-.2.16-.44.25-.72.25-.44,0-.74-.15-.9-.45-.09-.16-.13-.37-.13-.64v-2.13h.54Z"/><path d="M297.2,27.26c.02.18.06.31.13.4.14.17.37.25.71.25.2,0,.37-.04.53-.13.15-.08.23-.22.23-.39,0-.13-.06-.24-.18-.31-.08-.04-.23-.09-.46-.15l-.43-.11c-.27-.07-.47-.14-.6-.22-.23-.14-.35-.34-.35-.59,0-.3.11-.54.33-.72s.51-.28.87-.28c.48,0,.82.14,1.04.42.13.18.2.37.19.57h-.5c0-.12-.05-.23-.13-.32-.12-.14-.34-.21-.65-.21-.2,0-.36.04-.46.11-.1.08-.16.18-.16.3,0,.14.07.25.21.33.08.05.2.09.35.13l.36.08c.39.09.64.18.78.27.21.13.31.35.31.64s-.11.52-.32.72c-.21.2-.54.3-.98.3-.47,0-.81-.11-1-.32-.2-.21-.3-.47-.32-.79h.51Z"/><path d="M299.89,23.94h.54v.6h-.54v-.6ZM299.89,25.12h.54v3.12h-.54v-3.12Z"/><path d="M301.48,25.11l.84,2.55.87-2.55h.58l-1.18,3.14h-.56l-1.16-3.14h.61Z"/><path d="M306.16,25.19c.21.1.37.24.47.41.1.16.17.34.21.55.03.14.05.38.05.69h-2.28c0,.32.08.58.22.77.14.19.36.29.65.29.27,0,.49-.09.65-.27.09-.11.16-.23.19-.37h.52c-.01.12-.06.24-.14.38-.08.14-.16.26-.26.35-.16.16-.36.26-.59.32-.13.03-.27.05-.43.05-.39,0-.72-.14-.99-.43-.27-.29-.4-.68-.4-1.19s.14-.91.41-1.23c.27-.31.63-.47,1.07-.47.22,0,.44.05.64.16ZM306.35,26.43c-.02-.23-.07-.41-.15-.55-.14-.25-.38-.38-.72-.38-.24,0-.44.09-.6.26-.16.18-.25.4-.26.67h1.73Z"/><path d="M307.57,23.94h.53v4.3h-.53v-4.3Z"/><path d="M310.85,25.11h.58c-.08.2-.24.66-.5,1.38-.19.54-.35.98-.48,1.32-.3.8-.52,1.29-.64,1.46s-.34.26-.64.26c-.07,0-.13,0-.17,0s-.09-.02-.15-.03v-.48c.09.03.16.04.2.05s.08,0,.11,0c.1,0,.17-.02.22-.05.04-.03.08-.07.12-.12,0-.02.04-.09.11-.24s.1-.25.13-.32l-1.16-3.23h.6l.84,2.56.85-2.56Z"/><path d="M313.56,23.94h.54v.6h-.54v-.6ZM313.56,25.12h.54v3.12h-.54v-3.12Z"/><path d="M315.2,27.26c.02.18.06.31.13.4.14.17.37.25.71.25.2,0,.38-.04.53-.13.15-.08.23-.22.23-.39,0-.13-.06-.24-.18-.31-.08-.04-.23-.09-.46-.15l-.43-.11c-.27-.07-.47-.14-.6-.22-.23-.14-.35-.34-.35-.59,0-.3.11-.54.33-.72s.51-.28.87-.28c.48,0,.82.14,1.04.42.13.18.2.37.19.57h-.5c0-.12-.05-.23-.13-.32-.12-.14-.34-.21-.64-.21-.2,0-.36.04-.46.11-.1.08-.16.18-.16.3,0,.14.07.25.21.33.08.05.2.09.35.13l.35.08c.39.09.64.18.78.27.21.13.31.35.31.64s-.11.52-.32.72c-.21.2-.54.3-.98.3-.47,0-.81-.11-1-.32-.2-.21-.3-.47-.32-.79h.51Z"/><path d="M320.16,25.42c.28.27.42.67.42,1.19s-.12.92-.37,1.25c-.25.33-.62.5-1.14.5-.43,0-.77-.15-1.02-.44s-.38-.68-.38-1.18c0-.53.13-.95.4-1.26.27-.31.62-.47,1.07-.47.4,0,.74.13,1.02.4ZM319.83,27.51c.13-.26.19-.56.19-.88,0-.29-.05-.53-.14-.71-.15-.29-.4-.43-.76-.43-.32,0-.55.12-.7.37-.14.25-.22.54-.22.89s.07.61.22.83c.15.22.38.33.69.33.35,0,.58-.13.71-.4Z"/><path d="M321.24,23.94h.53v4.3h-.53v-4.3Z"/><path d="M324.24,26.35c.12-.02.2-.07.24-.15.02-.05.04-.12.04-.2,0-.18-.06-.31-.19-.39s-.31-.12-.55-.12c-.28,0-.47.07-.58.22-.06.08-.11.21-.13.37h-.49c0-.39.13-.66.38-.81.24-.15.52-.23.84-.23.37,0,.67.07.9.21.23.14.34.36.34.66v1.81c0,.05.01.1.03.13s.07.05.14.05c.02,0,.05,0,.08,0,.03,0,.06,0,.09-.01v.39c-.08.02-.14.04-.19.04s-.1,0-.18,0c-.18,0-.31-.06-.4-.19-.04-.07-.07-.17-.09-.29-.11.14-.26.26-.46.37s-.42.16-.67.16c-.29,0-.53-.09-.71-.26-.19-.18-.28-.4-.28-.66,0-.29.09-.52.27-.68s.42-.26.71-.3l.84-.1ZM323.13,27.77c.11.09.24.13.4.13.19,0,.37-.04.54-.13.29-.14.44-.38.44-.7v-.42c-.06.04-.15.08-.25.1-.1.03-.2.05-.3.06l-.32.04c-.19.03-.33.07-.43.12-.16.09-.24.24-.24.44,0,.15.06.27.17.36Z"/><path d="M326,24.23h.53v.88h.5v.43h-.5v2.05c0,.11.04.18.11.22.04.02.11.03.21.03.03,0,.05,0,.08,0s.06,0,.1,0v.42c-.06.02-.12.03-.19.04-.07,0-.14.01-.21.01-.25,0-.41-.06-.5-.19-.09-.13-.13-.29-.13-.49v-2.08h-.42v-.43h.42v-.88Z"/><path d="M329.5,25.19c.21.1.37.24.47.41.1.16.17.34.21.55.03.14.05.38.05.69h-2.28c0,.32.08.58.22.77.14.19.36.29.65.29.27,0,.49-.09.65-.27.09-.11.16-.23.19-.37h.52c-.01.12-.06.24-.14.38-.08.14-.16.26-.26.35-.16.16-.36.26-.59.32-.13.03-.27.05-.43.05-.39,0-.72-.14-.99-.43-.27-.29-.4-.68-.4-1.19s.14-.91.41-1.23c.27-.31.63-.47,1.07-.47.22,0,.44.05.64.16ZM329.69,26.43c-.02-.23-.07-.41-.15-.55-.14-.25-.38-.38-.72-.38-.24,0-.44.09-.6.26-.16.18-.25.4-.26.67h1.73Z"/><path d="M331.21,27.26c.02.18.06.31.13.4.14.17.37.25.71.25.2,0,.38-.04.53-.13.15-.08.23-.22.23-.39,0-.13-.06-.24-.18-.31-.08-.04-.23-.09-.46-.15l-.43-.11c-.27-.07-.47-.14-.6-.22-.23-.14-.35-.34-.35-.59,0-.3.11-.54.33-.72s.51-.28.87-.28c.48,0,.82.14,1.04.42.13.18.2.37.19.57h-.5c0-.12-.05-.23-.13-.32-.12-.14-.34-.21-.64-.21-.2,0-.36.04-.46.11-.1.08-.16.18-.16.3,0,.14.07.25.21.33.08.05.2.09.35.13l.35.08c.39.09.64.18.78.27.21.13.31.35.31.64s-.11.52-.32.72c-.21.2-.54.3-.98.3-.47,0-.81-.11-1-.32-.2-.21-.3-.47-.32-.79h.51Z"/></g></g><g id="patch_35"><path class="cls-49" d="M265.03,37.05h12v-4.2h-12v4.2Z"/></g><g id="text_34"><g class="cls-6"><path d="M282.42,32.75h.59v4.3h-.59v-4.3Z"/><path d="M284.19,36.07c.02.18.06.31.13.4.14.17.37.25.71.25.2,0,.37-.04.53-.13.15-.08.23-.22.23-.39,0-.13-.06-.24-.18-.31-.08-.04-.23-.09-.46-.15l-.43-.11c-.27-.07-.47-.14-.6-.22-.23-.14-.35-.34-.35-.59,0-.3.11-.54.33-.72s.51-.28.88-.28c.48,0,.82.14,1.04.42.13.18.2.37.19.57h-.5c0-.12-.05-.23-.13-.32-.12-.14-.34-.21-.64-.21-.2,0-.36.04-.46.11-.1.08-.16.18-.16.3,0,.14.07.25.21.33.08.05.2.09.35.13l.36.08c.39.09.64.18.78.27.21.13.31.35.31.64s-.11.52-.32.72c-.21.2-.54.3-.98.3-.47,0-.81-.11-1-.32-.2-.21-.3-.47-.32-.79h.51Z"/><path d="M289.15,34.23c.28.27.42.67.42,1.19s-.12.92-.37,1.25c-.24.33-.62.5-1.14.5-.43,0-.77-.15-1.02-.44-.25-.29-.38-.68-.38-1.18,0-.53.13-.95.4-1.26.27-.31.62-.47,1.07-.47.4,0,.74.13,1.02.4ZM288.83,36.31c.13-.26.19-.56.19-.88,0-.29-.05-.53-.14-.71-.15-.29-.4-.43-.76-.43-.32,0-.55.12-.7.37-.15.25-.22.54-.22.89s.07.61.22.83c.14.22.37.33.69.33.35,0,.58-.13.71-.4Z"/><path d="M290.23,32.75h.53v4.3h-.53v-4.3Z"/><path d="M293.23,35.15c.12-.02.2-.07.24-.15.02-.05.04-.12.04-.2,0-.18-.06-.31-.19-.39s-.31-.12-.55-.12c-.28,0-.47.07-.58.22-.06.08-.11.21-.13.37h-.49c0-.39.14-.66.38-.81.24-.15.52-.23.84-.23.37,0,.67.07.9.21.23.14.34.36.34.66v1.81c0,.05.01.1.03.13s.07.05.14.05c.02,0,.05,0,.08,0,.03,0,.06,0,.09-.01v.39c-.08.02-.14.04-.19.04s-.1,0-.18,0c-.18,0-.31-.06-.4-.19-.04-.07-.07-.17-.09-.29-.11.14-.26.26-.46.37s-.42.16-.67.16c-.29,0-.53-.09-.71-.26s-.28-.4-.28-.66c0-.29.09-.52.27-.68s.42-.26.71-.3l.84-.1ZM292.12,36.58c.11.09.24.13.4.13.19,0,.37-.04.54-.13.29-.14.44-.38.44-.7v-.42c-.06.04-.15.08-.25.1-.1.03-.2.05-.3.06l-.32.04c-.19.03-.33.07-.43.12-.16.09-.25.24-.25.44,0,.15.06.27.17.36Z"/><path d="M294.99,33.04h.53v.88h.5v.43h-.5v2.05c0,.11.04.18.11.22.04.02.11.03.21.03.03,0,.05,0,.08,0s.06,0,.1,0v.42c-.06.02-.12.03-.19.04s-.14.01-.21.01c-.25,0-.41-.06-.5-.19-.09-.13-.13-.29-.13-.49v-2.08h-.42v-.43h.42v-.88Z"/><path d="M298.49,34c.21.1.37.24.47.41.1.16.17.34.21.55.03.14.05.38.05.69h-2.28c0,.32.08.58.22.77.14.19.36.29.65.29.27,0,.49-.09.65-.27.09-.11.16-.23.19-.37h.52c-.01.12-.06.24-.14.38-.08.14-.16.26-.26.35-.16.16-.36.26-.59.32-.13.03-.27.05-.43.05-.39,0-.72-.14-.99-.43-.27-.29-.41-.68-.41-1.19s.14-.91.41-1.23c.27-.31.63-.47,1.06-.47.22,0,.44.05.64.16ZM298.68,35.23c-.02-.23-.07-.41-.15-.55-.14-.25-.38-.38-.72-.38-.24,0-.44.09-.6.26-.16.18-.25.4-.26.67h1.73Z"/><path d="M303.24,35.15c.12-.02.2-.07.24-.15.02-.05.04-.12.04-.2,0-.18-.06-.31-.19-.39s-.31-.12-.55-.12c-.28,0-.47.07-.58.22-.06.08-.11.21-.13.37h-.49c0-.39.13-.66.38-.81.24-.15.52-.23.84-.23.37,0,.67.07.9.21.23.14.34.36.34.66v1.81c0,.05.01.1.03.13s.07.05.14.05c.02,0,.05,0,.08,0,.03,0,.06,0,.09-.01v.39c-.08.02-.14.04-.19.04s-.1,0-.18,0c-.18,0-.31-.06-.4-.19-.04-.07-.07-.17-.09-.29-.11.14-.26.26-.46.37s-.42.16-.67.16c-.29,0-.53-.09-.71-.26-.19-.18-.28-.4-.28-.66,0-.29.09-.52.27-.68s.42-.26.71-.3l.84-.1ZM302.13,36.58c.11.09.24.13.4.13.19,0,.37-.04.54-.13.29-.14.44-.38.44-.7v-.42c-.06.04-.15.08-.25.1-.1.03-.2.05-.3.06l-.32.04c-.19.03-.33.07-.43.12-.16.09-.24.24-.24.44,0,.15.06.27.17.36Z"/><path d="M304.9,33.91h.5v.45c.15-.18.31-.32.47-.4s.35-.12.55-.12c.45,0,.75.16.9.47.09.17.13.41.13.73v2.01h-.54v-1.98c0-.19-.03-.35-.08-.46-.09-.2-.26-.29-.51-.29-.12,0-.23.01-.31.04-.14.04-.27.13-.38.26-.09.1-.14.21-.17.32-.03.11-.04.27-.04.47v1.64h-.53v-3.14Z"/><path d="M309.96,34.01c.09.06.2.16.32.31v-1.58h.51v4.32h-.47v-.44c-.12.19-.27.33-.43.42-.17.09-.36.13-.58.13-.35,0-.65-.15-.9-.44-.26-.29-.38-.68-.38-1.17,0-.46.12-.85.35-1.19.23-.33.56-.5,1-.5.24,0,.44.05.6.15ZM308.78,36.36c.14.23.37.34.68.34.24,0,.44-.1.6-.32.16-.21.23-.51.23-.9s-.08-.69-.24-.88c-.16-.19-.36-.29-.6-.29-.26,0-.48.1-.64.3s-.25.5-.25.9c0,.34.07.62.21.84Z"/><path d="M315.17,34c.21.1.37.24.47.41.1.16.17.34.21.55.03.14.05.38.05.69h-2.28c0,.32.08.58.22.77.14.19.36.29.65.29.27,0,.49-.09.65-.27.09-.11.16-.23.19-.37h.52c-.01.12-.06.24-.14.38-.08.14-.16.26-.26.35-.16.16-.36.26-.59.32-.13.03-.27.05-.43.05-.39,0-.72-.14-.99-.43-.27-.29-.4-.68-.4-1.19s.14-.91.41-1.23c.27-.31.63-.47,1.07-.47.22,0,.44.05.64.16ZM315.36,35.23c-.02-.23-.07-.41-.15-.55-.14-.25-.38-.38-.72-.38-.24,0-.44.09-.6.26-.16.18-.25.4-.26.67h1.73Z"/><path d="M316.57,33.91h.5v.45c.15-.18.31-.32.47-.4s.35-.12.55-.12c.45,0,.75.16.9.47.09.17.13.41.13.73v2.01h-.54v-1.98c0-.19-.03-.35-.08-.46-.09-.2-.26-.29-.51-.29-.12,0-.23.01-.31.04-.14.04-.27.13-.38.26-.09.1-.14.21-.17.32-.03.11-.04.27-.04.47v1.64h-.53v-3.14Z"/><path d="M320.17,33.91l.84,2.55.87-2.55h.58l-1.18,3.14h-.56l-1.16-3.14h.61Z"/><path d="M322.91,32.75h.54v.6h-.54v-.6ZM322.91,33.93h.54v3.12h-.54v-3.12Z"/><path d="M324.26,33.91h.5v.54c.04-.11.14-.23.3-.38s.34-.23.55-.23c0,0,.03,0,.05,0s.06,0,.12.01v.56s-.06,0-.09-.01c-.03,0-.06,0-.09,0-.27,0-.47.09-.61.26s-.21.37-.21.59v1.8h-.53v-3.14Z"/><path d="M328.51,34.23c.28.27.42.67.42,1.19s-.12.92-.37,1.25c-.25.33-.62.5-1.14.5-.43,0-.77-.15-1.02-.44s-.38-.68-.38-1.18c0-.53.13-.95.4-1.26.27-.31.62-.47,1.07-.47.4,0,.74.13,1.02.4ZM328.19,36.31c.13-.26.19-.56.19-.88,0-.29-.05-.53-.14-.71-.15-.29-.4-.43-.76-.43-.32,0-.55.12-.7.37-.14.25-.22.54-.22.89s.07.61.22.83c.15.22.38.33.69.33.35,0,.58-.13.71-.4Z"/><path d="M329.58,33.91h.5v.45c.15-.18.31-.32.47-.4s.35-.12.55-.12c.45,0,.75.16.9.47.09.17.13.41.13.73v2.01h-.54v-1.98c0-.19-.03-.35-.08-.46-.09-.2-.26-.29-.51-.29-.12,0-.23.01-.31.04-.14.04-.27.13-.38.26-.09.1-.14.21-.17.32-.03.11-.04.27-.04.47v1.64h-.53v-3.14Z"/><path d="M332.92,33.91h.52v.45c.12-.15.24-.27.34-.34.17-.12.37-.18.59-.18.25,0,.45.06.6.18.09.07.16.17.23.31.12-.17.25-.29.41-.37s.34-.12.53-.12c.42,0,.71.15.86.46.08.16.12.38.12.66v2.09h-.55v-2.18c0-.21-.05-.35-.16-.43-.11-.08-.23-.12-.38-.12-.21,0-.38.07-.54.21-.15.14-.22.37-.22.69v1.83h-.54v-2.05c0-.21-.03-.37-.08-.47-.08-.15-.23-.22-.45-.22-.2,0-.38.08-.54.23s-.24.43-.24.84v1.66h-.53v-3.14Z"/><path d="M339.85,34c.21.1.37.24.47.41.1.16.17.34.21.55.03.14.05.38.05.69h-2.28c0,.32.08.58.22.77.14.19.36.29.65.29.27,0,.49-.09.65-.27.09-.11.16-.23.19-.37h.52c-.01.12-.06.24-.14.38-.08.14-.16.26-.26.35-.16.16-.36.26-.59.32-.13.03-.27.05-.43.05-.39,0-.72-.14-.99-.43-.27-.29-.4-.68-.4-1.19s.14-.91.41-1.23c.27-.31.63-.47,1.07-.47.22,0,.44.05.64.16ZM340.04,35.23c-.02-.23-.07-.41-.15-.55-.14-.25-.38-.38-.72-.38-.24,0-.44.09-.6.26-.16.18-.25.4-.26.67h1.73Z"/><path d="M341.25,33.91h.5v.45c.15-.18.31-.32.47-.4s.35-.12.55-.12c.45,0,.75.16.9.47.09.17.13.41.13.73v2.01h-.54v-1.98c0-.19-.03-.35-.08-.46-.09-.2-.26-.29-.51-.29-.12,0-.23.01-.31.04-.14.04-.27.13-.38.26-.09.1-.14.21-.17.32-.03.11-.04.27-.04.47v1.64h-.53v-3.14Z"/><path d="M344.69,33.04h.53v.88h.5v.43h-.5v2.05c0,.11.04.18.11.22.04.02.11.03.21.03.03,0,.05,0,.08,0s.06,0,.1,0v.42c-.06.02-.12.03-.19.04-.07,0-.14.01-.21.01-.25,0-.41-.06-.5-.19-.09-.13-.13-.29-.13-.49v-2.08h-.42v-.43h.42v-.88Z"/><path d="M347.94,35.15c.12-.02.2-.07.24-.15.02-.05.04-.12.04-.2,0-.18-.06-.31-.19-.39s-.31-.12-.55-.12c-.28,0-.47.07-.58.22-.06.08-.11.21-.13.37h-.49c0-.39.13-.66.38-.81.24-.15.52-.23.84-.23.37,0,.67.07.9.21.23.14.34.36.34.66v1.81c0,.05.01.1.03.13s.07.05.14.05c.02,0,.05,0,.08,0,.03,0,.06,0,.09-.01v.39c-.08.02-.14.04-.19.04s-.1,0-.18,0c-.18,0-.31-.06-.4-.19-.04-.07-.07-.17-.09-.29-.11.14-.26.26-.46.37s-.42.16-.67.16c-.29,0-.53-.09-.71-.26-.19-.18-.28-.4-.28-.66,0-.29.09-.52.27-.68s.42-.26.71-.3l.84-.1ZM346.83,36.58c.11.09.24.13.4.13.19,0,.37-.04.54-.13.29-.14.44-.38.44-.7v-.42c-.06.04-.15.08-.25.1-.1.03-.2.05-.3.06l-.32.04c-.19.03-.33.07-.43.12-.16.09-.24.24-.24.44,0,.15.06.27.17.36Z"/><path d="M349.61,32.75h.53v4.3h-.53v-4.3Z"/><path d="M354.33,34.04c.1.07.2.17.3.3v-.4h.49v2.85c0,.4-.06.71-.17.94-.22.43-.63.64-1.24.64-.34,0-.62-.08-.85-.23s-.36-.39-.39-.71h.54c.03.14.08.25.15.33.12.12.3.18.56.18.4,0,.67-.14.79-.43.07-.17.11-.47.1-.9-.11.16-.23.28-.38.36-.15.08-.34.12-.59.12-.34,0-.63-.12-.89-.36-.25-.24-.38-.64-.38-1.2,0-.53.13-.94.38-1.23s.56-.44.93-.44c.25,0,.46.06.64.18ZM354.4,34.61c-.16-.19-.36-.28-.61-.28-.37,0-.62.17-.76.52-.07.19-.11.43-.11.73,0,.35.07.62.21.81.14.19.33.28.58.28.38,0,.64-.17.8-.51.08-.19.13-.42.13-.68,0-.39-.08-.68-.24-.86Z"/><path d="M357.87,34c.21.1.37.24.47.41.1.16.17.34.21.55.03.14.05.38.05.69h-2.28c0,.32.08.58.22.77.14.19.36.29.65.29.27,0,.49-.09.65-.27.09-.11.16-.23.19-.37h.52c-.01.12-.06.24-.14.38-.08.14-.16.26-.26.35-.16.16-.36.26-.59.32-.13.03-.27.05-.43.05-.39,0-.72-.14-.99-.43-.27-.29-.4-.68-.4-1.19s.14-.91.41-1.23c.27-.31.63-.47,1.07-.47.22,0,.44.05.64.16ZM358.05,35.23c-.02-.23-.07-.41-.15-.55-.14-.25-.38-.38-.72-.38-.24,0-.44.09-.6.26-.16.18-.25.4-.26.67h1.73Z"/><path d="M359.26,33.91h.5v.45c.15-.18.31-.32.47-.4s.35-.12.55-.12c.45,0,.75.16.9.47.09.17.13.41.13.73v2.01h-.54v-1.98c0-.19-.03-.35-.08-.46-.09-.2-.26-.29-.51-.29-.12,0-.23.01-.31.04-.14.04-.27.13-.38.26-.09.1-.14.21-.17.32-.03.11-.04.27-.04.47v1.64h-.53v-3.14Z"/><path d="M364.88,34.23c.28.27.42.67.42,1.19s-.12.92-.37,1.25c-.25.33-.62.5-1.14.5-.43,0-.77-.15-1.02-.44s-.38-.68-.38-1.18c0-.53.13-.95.4-1.26.27-.31.62-.47,1.07-.47.4,0,.74.13,1.02.4ZM364.55,36.31c.13-.26.19-.56.19-.88,0-.29-.05-.53-.14-.71-.15-.29-.4-.43-.76-.43-.32,0-.55.12-.7.37-.14.25-.22.54-.22.89s.07.61.22.83c.15.22.38.33.69.33.35,0,.58-.13.71-.4Z"/><path d="M365.94,33.91h.52v.45c.12-.15.24-.27.34-.34.17-.12.37-.18.59-.18.25,0,.45.06.6.18.09.07.16.17.23.31.12-.17.25-.29.41-.37s.34-.12.53-.12c.42,0,.71.15.86.46.08.16.12.38.12.66v2.09h-.55v-2.18c0-.21-.05-.35-.16-.43-.11-.08-.23-.12-.38-.12-.21,0-.38.07-.54.21-.15.14-.22.37-.22.69v1.83h-.54v-2.05c0-.21-.03-.37-.08-.47-.08-.15-.23-.22-.45-.22-.2,0-.38.08-.54.23s-.24.43-.24.84v1.66h-.53v-3.14Z"/><path d="M372.88,34c.21.1.37.24.47.41.1.16.17.34.21.55.03.14.05.38.05.69h-2.28c0,.32.08.58.22.77.14.19.36.29.65.29.27,0,.49-.09.65-.27.09-.11.16-.23.19-.37h.52c-.01.12-.06.24-.14.38-.08.14-.16.26-.26.35-.16.16-.36.26-.59.32-.13.03-.27.05-.43.05-.39,0-.72-.14-.99-.43-.27-.29-.4-.68-.4-1.19s.14-.91.41-1.23c.27-.31.63-.47,1.07-.47.22,0,.44.05.64.16ZM373.06,35.23c-.02-.23-.07-.41-.15-.55-.14-.25-.38-.38-.72-.38-.24,0-.44.09-.6.26-.16.18-.25.4-.26.67h1.73Z"/><path d="M374.59,36.07c.02.18.06.31.13.4.14.17.37.25.71.25.2,0,.38-.04.53-.13.15-.08.23-.22.23-.39,0-.13-.06-.24-.18-.31-.08-.04-.23-.09-.46-.15l-.43-.11c-.27-.07-.47-.14-.6-.22-.23-.14-.35-.34-.35-.59,0-.3.11-.54.33-.72s.51-.28.87-.28c.48,0,.82.14,1.04.42.13.18.2.37.19.57h-.5c0-.12-.05-.23-.13-.32-.12-.14-.34-.21-.64-.21-.2,0-.36.04-.46.11-.1.08-.16.18-.16.3,0,.14.07.25.21.33.08.05.2.09.35.13l.35.08c.39.09.64.18.78.27.21.13.31.35.31.64s-.11.52-.32.72c-.21.2-.54.3-.98.3-.47,0-.81-.11-1-.32-.2-.21-.3-.47-.32-.79h.51Z"/></g></g></g></g></g></svg>