<?xml version="1.0" encoding="UTF-8"?><svg id="Layer_1" xmlns="http://www.w3.org/2000/svg" viewBox="0 0 284.88 181.24"><defs><style>.cls-1{fill:#bebada;}.cls-1,.cls-2,.cls-3,.cls-4,.cls-5,.cls-6{stroke:#fff;}.cls-2{fill:#fdae6b;}.cls-3{fill:#fb8072;}.cls-7{isolation:isolate;}.cls-8{fill:#fff;}.cls-4{fill:#70afda;}.cls-5{fill:#8dd3c7;}.cls-6{fill:#b9b9b9;}</style></defs><g id="figure_1"><g id="patch_1"><path class="cls-8" d="M0,181.24h284.88V0H0v181.24Z"/></g><g id="axes_1"><g id="patch_2"><path class="cls-2" d="M141.33,14.83c-10,0-19.91,1.99-29.13,5.86s-17.59,9.54-24.6,16.67l32.24,31.68c2.8-2.85,6.15-5.12,9.84-6.67,3.69-1.55,7.65-2.34,11.65-2.34V14.83Z"/></g><g id="patch_3"><path class="cls-4" d="M87.6,37.36c-.4.41-.8.83-1.2,1.25s-.78.85-1.17,1.28l33.66,30.17c.15-.17.31-.34.47-.51.16-.17.32-.33.48-.5l-32.24-31.68Z"/></g><g id="patch_4"><path class="cls-6" d="M85.23,39.89s0,0,0,.01c0,0,0,0,0,.01l33.67,30.15s0,0,0,0,0,0,0,0l-33.66-30.17Z"/></g><g id="patch_5"><path class="cls-2" d="M85.21,39.91c-.41.46-.81.92-1.21,1.39-.4.47-.79.94-1.18,1.42l35.11,28.47c.15-.19.31-.38.47-.57.16-.19.32-.37.48-.55l-33.67-30.15Z"/></g><g id="patch_6"><path class="cls-4" d="M82.82,42.71c-.16.2-.32.39-.47.59s-.31.4-.47.6l35.67,27.76c.06-.08.12-.16.19-.24.06-.08.13-.16.19-.24l-35.11-28.47Z"/></g><g id="patch_7"><path class="cls-6" d="M81.88,43.9s-.01.01-.02.02-.01.01-.02.02l35.69,27.74s0,0,0,0,0,0,0,0l-35.67-27.76Z"/></g><g id="patch_8"><path class="cls-2" d="M81.85,43.94c-5.06,6.51-9.01,13.8-11.71,21.59-2.7,7.79-4.09,15.97-4.14,24.21l45.2.25c.02-3.3.58-6.57,1.66-9.69,1.08-3.12,2.66-6.03,4.68-8.64l-35.69-27.74Z"/></g><g id="patch_9"><path class="cls-4" d="M66,89.74c-.08,14.82,4.21,29.34,12.33,41.73,8.13,12.39,19.73,22.12,33.35,27.95s28.67,7.52,43.24,4.84c14.58-2.67,28.04-9.59,38.71-19.88,10.66-10.29,18.06-23.5,21.26-37.97s2.05-29.57-3.29-43.39-14.64-25.77-26.73-34.33-26.45-13.38-41.26-13.82l-1.37,45.18c5.92.18,11.67,2.1,16.5,5.53,4.84,3.43,8.56,8.2,10.69,13.73,2.14,5.53,2.59,11.57,1.31,17.36-1.28,5.79-4.24,11.07-8.5,15.19-4.27,4.12-9.65,6.88-15.48,7.95-5.83,1.07-11.85.4-17.3-1.94-5.45-2.33-10.09-6.22-13.34-11.18-3.25-4.96-4.97-10.76-4.93-16.69l-45.2-.25Z"/></g><g id="patch_10"><path class="cls-6" d="M143.62,14.86c-.38-.01-.76-.02-1.14-.03-.38,0-.76,0-1.14,0v45.2c.15,0,.3,0,.46,0,.15,0,.3,0,.46.01l1.37-45.18Z"/></g><g id="patch_11"><path class="cls-3" d="M141.33,14.83c-10.59,0-21.07,2.23-30.74,6.56-9.67,4.32-18.32,10.63-25.39,18.52l22.45,20.1c4.24-4.73,9.43-8.52,15.23-11.11s12.09-3.93,18.44-3.93V14.83Z"/></g><g id="patch_12"><path class="cls-1" d="M85.21,39.91c-.58.65-1.16,1.31-1.72,1.98s-1.11,1.35-1.65,2.04l23.79,18.49c.32-.41.65-.82.99-1.23.34-.4.68-.8,1.03-1.19l-22.45-20.1Z"/></g><g id="patch_13"><path class="cls-5" d="M81.85,43.94c-5.19,6.67-9.21,14.17-11.91,22.18-2.7,8.01-4.03,16.42-3.94,24.87s1.61,16.83,4.48,24.78c2.87,7.95,7.06,15.36,12.4,21.92,5.33,6.56,11.73,12.17,18.93,16.61,7.2,4.44,15.09,7.63,23.34,9.44s16.76,2.23,25.15,1.22,16.56-3.42,24.15-7.13c7.59-3.72,14.51-8.68,20.45-14.69,5.94-6.01,10.83-12.98,14.47-20.61,3.63-7.63,5.95-15.82,6.87-24.23s.41-16.9-1.5-25.14c-1.91-8.23-5.19-16.09-9.7-23.24-4.51-7.15-10.2-13.48-16.82-18.74-6.62-5.26-14.07-9.37-22.05-12.15-7.98-2.79-16.37-4.21-24.83-4.21v30.13c5.07,0,10.11.85,14.9,2.52s9.26,4.14,13.23,7.29,7.38,6.96,10.09,11.25c2.71,4.29,4.68,9,5.82,13.94,1.14,4.94,1.45,10.04.9,15.08s-1.94,9.96-4.12,14.54c-2.18,4.58-5.11,8.76-8.68,12.37-3.57,3.61-7.71,6.59-12.27,8.81-4.56,2.23-9.45,3.68-14.49,4.28-5.04.6-10.14.35-15.09-.73s-9.69-3.01-14.01-5.67c-4.32-2.66-8.16-6.03-11.36-9.97s-5.71-8.38-7.44-13.15c-1.72-4.77-2.63-9.8-2.69-14.87s.74-10.12,2.36-14.92c1.62-4.81,4.03-9.31,7.15-13.31l-23.79-18.49Z"/></g><g id="text_1"><g class="cls-7"><path d="M73.47,7.5v.6h-1.69v4.42h-.69v-4.42h-1.69v-.6h4.07Z"/><path d="M75.92,8.86h.68c-.09.23-.28.77-.58,1.61-.22.63-.41,1.14-.56,1.54-.35.93-.61,1.5-.75,1.71s-.4.31-.75.31c-.09,0-.15,0-.2,0-.05,0-.1-.02-.17-.04v-.56c.11.03.18.05.23.05.05,0,.09,0,.13,0,.11,0,.2-.02.25-.06.05-.04.1-.08.13-.14.01-.02.05-.11.12-.28.07-.17.12-.29.15-.38l-1.35-3.77h.7l.98,2.98.99-2.98Z"/><path d="M77.08,8.88h.6v.49c.12-.17.26-.29.4-.39.21-.14.45-.21.73-.21.42,0,.77.16,1.06.48.29.32.44.77.44,1.36,0,.8-.21,1.37-.63,1.71-.27.22-.57.32-.93.32-.28,0-.51-.06-.7-.18-.11-.07-.23-.19-.37-.35v1.87h-.62v-5.1ZM79.39,11.74c.19-.24.29-.6.29-1.08,0-.29-.04-.54-.13-.75-.16-.4-.45-.6-.88-.6s-.72.21-.88.64c-.08.23-.13.52-.13.87,0,.28.04.52.13.72.16.38.45.57.88.57.29,0,.53-.12.72-.36Z"/><path d="M83.28,8.96c.24.12.43.28.55.47.12.18.2.4.24.65.04.17.05.44.05.81h-2.66c.01.37.1.67.26.9.16.22.41.34.76.34.32,0,.57-.11.76-.32.11-.12.18-.27.23-.43h.6c-.02.13-.07.28-.16.45-.09.17-.19.3-.3.41-.19.18-.42.31-.69.37-.15.04-.31.05-.5.05-.45,0-.84-.17-1.15-.5-.31-.33-.47-.8-.47-1.39s.16-1.07.48-1.43.73-.55,1.24-.55c.26,0,.51.06.75.18ZM83.5,10.4c-.02-.27-.08-.48-.17-.64-.17-.3-.45-.44-.84-.44-.28,0-.52.1-.71.31-.19.2-.29.46-.3.78h2.02Z"/><path d="M87.22,11.37c.02.21.07.36.16.47.16.2.43.3.82.3.23,0,.44-.05.61-.15.18-.1.26-.25.26-.46,0-.16-.07-.28-.21-.36-.09-.05-.27-.11-.54-.17l-.5-.12c-.32-.08-.55-.16-.7-.26-.27-.17-.4-.4-.4-.69,0-.35.13-.63.38-.84.25-.21.59-.32,1.02-.32.56,0,.96.16,1.21.48.15.21.23.43.23.66h-.58c-.01-.14-.06-.26-.15-.38-.14-.16-.39-.24-.75-.24-.24,0-.42.04-.54.13-.12.09-.18.21-.18.35,0,.16.08.29.24.38.09.06.23.11.41.15l.42.1c.45.11.75.21.91.31.24.16.36.4.36.74s-.13.61-.38.84c-.25.24-.63.36-1.14.36-.55,0-.94-.12-1.17-.37s-.35-.55-.37-.92h.59Z"/><path d="M90.48,7.84h.62v1.02h.58v.5h-.58v2.39c0,.13.04.21.13.26.05.03.13.04.24.04.03,0,.06,0,.1,0,.03,0,.07,0,.12-.01v.49c-.07.02-.14.04-.22.04-.08,0-.16.01-.25.01-.29,0-.48-.07-.58-.22-.1-.15-.15-.34-.15-.57v-2.42h-.5v-.5h.5v-1.02Z"/><path d="M92.32,8.86h.58v.63c.05-.12.17-.27.35-.45.19-.18.4-.26.65-.26.01,0,.03,0,.06,0s.07,0,.14.01v.65s-.07-.01-.1-.01c-.03,0-.06,0-.1,0-.31,0-.55.1-.71.3s-.25.43-.25.69v2.11h-.62v-3.66Z"/><path d="M96.6,10.3c.14-.02.24-.08.28-.18.03-.05.04-.13.04-.24,0-.21-.08-.36-.22-.46-.15-.09-.36-.14-.64-.14-.32,0-.55.09-.68.26-.08.1-.12.24-.15.43h-.57c.01-.45.16-.77.44-.94.28-.18.61-.27.98-.27.43,0,.78.08,1.05.25.27.16.4.42.4.77v2.11c0,.06.01.12.04.15.03.04.08.06.17.06.03,0,.06,0,.09,0,.04,0,.07,0,.11-.02v.46c-.1.03-.17.04-.22.05-.05,0-.12,0-.21,0-.21,0-.37-.07-.46-.22-.05-.08-.09-.19-.11-.34-.13.16-.31.31-.54.43-.23.12-.49.18-.78.18-.34,0-.62-.1-.83-.31-.22-.21-.32-.46-.32-.77,0-.34.11-.6.32-.79.21-.19.49-.3.83-.34l.98-.12ZM95.3,11.97c.13.1.28.15.46.15.22,0,.43-.05.63-.15.34-.17.51-.44.51-.82v-.5c-.08.05-.17.09-.29.12s-.23.05-.35.07l-.37.05c-.22.03-.39.08-.5.14-.19.11-.29.28-.29.51,0,.18.07.32.19.42Z"/><path d="M98.53,7.5h.62v.7h-.62v-.7ZM98.53,8.88h.62v3.64h-.62v-3.64Z"/><path d="M100.08,8.86h.58v.52c.17-.21.36-.37.55-.46s.41-.14.65-.14c.52,0,.87.18,1.05.54.1.2.15.48.15.85v2.35h-.63v-2.31c0-.22-.03-.4-.1-.54-.11-.23-.31-.34-.6-.34-.15,0-.26.02-.36.04-.17.05-.32.15-.44.3-.1.12-.17.25-.2.37-.03.13-.05.31-.05.55v1.92h-.62v-3.66Z"/></g><g class="cls-7"><path d="M79.64,15.25c-.36.7-.59,1.21-.7,1.54-.16.5-.24,1.08-.24,1.73s.09,1.26.28,1.81c.11.34.34.82.67,1.46h-.41c-.33-.52-.54-.85-.62-1-.08-.14-.17-.34-.26-.58-.13-.34-.22-.7-.27-1.08-.02-.2-.04-.39-.04-.57,0-.67.11-1.27.32-1.8.13-.33.41-.84.84-1.5h.43Z"/><path d="M80.57,16.89v-.47c.44-.04.75-.12.93-.22s.31-.34.39-.72h.49v4.87h-.66v-3.47h-1.15Z"/><path d="M84.72,19.17c.02.34.15.57.39.7.13.07.27.1.42.1.29,0,.54-.12.75-.37s.35-.74.44-1.49c-.14.22-.31.37-.51.46-.2.09-.42.13-.65.13-.47,0-.84-.15-1.12-.44-.27-.29-.41-.67-.41-1.13s.14-.83.41-1.17.67-.5,1.2-.5c.71,0,1.21.32,1.48.96.15.35.23.79.23,1.33,0,.6-.09,1.13-.27,1.59-.3.77-.8,1.15-1.52,1.15-.48,0-.84-.12-1.09-.38-.25-.25-.37-.57-.37-.94h.62ZM86.32,17.93c.2-.16.3-.44.3-.84,0-.36-.09-.63-.27-.8-.18-.18-.41-.26-.69-.26-.3,0-.54.1-.72.3-.18.2-.26.47-.26.81,0,.32.08.57.23.76s.4.28.74.28c.24,0,.47-.08.67-.24Z"/><path d="M88.27,21.08c.16-.03.27-.14.33-.33.03-.1.05-.2.05-.3,0-.02,0-.03,0-.04,0-.01,0-.03,0-.04h-.37v-.75h.73v.69c0,.27-.05.51-.16.71s-.3.33-.57.38v-.32Z"/><path d="M90.11,19.26c.15-.31.45-.6.89-.85l.66-.38c.29-.17.5-.32.62-.44.19-.19.28-.41.28-.65,0-.29-.09-.51-.26-.68s-.4-.25-.68-.25c-.42,0-.71.16-.88.48-.09.17-.13.41-.14.71h-.63c0-.43.09-.77.24-1.04.27-.47.74-.71,1.41-.71.56,0,.97.15,1.23.46.26.3.39.64.39,1.01,0,.39-.14.73-.41,1-.16.16-.45.36-.86.59l-.47.26c-.22.12-.4.24-.53.35-.23.2-.37.42-.43.66h2.67v.58h-3.36c.02-.42.11-.79.26-1.1Z"/><path d="M94.19,16.89v-.47c.44-.04.75-.12.93-.22s.31-.34.39-.72h.49v4.87h-.66v-3.47h-1.15Z"/><path d="M97.57,16.89v-.47c.44-.04.75-.12.93-.22s.31-.34.39-.72h.49v4.87h-.66v-3.47h-1.15Z"/><path d="M101.04,21.79c.36-.71.6-1.22.7-1.54.16-.49.24-1.06.24-1.72s-.09-1.26-.28-1.81c-.11-.34-.34-.82-.67-1.46h.41c.35.56.56.91.64,1.04s.15.31.24.54c.11.28.19.57.23.84s.07.55.07.8c0,.67-.11,1.28-.32,1.8-.13.34-.41.84-.84,1.5h-.43Z"/></g></g><g id="text_2"><g class="cls-7"><path d="M107.49,33.61v-.47c.44-.04.75-.12.93-.22s.31-.34.39-.72h.49v4.87h-.66v-3.47h-1.15Z"/><path d="M111.27,36.73c-.26-.32-.39-.7-.39-1.16h.64c.03.32.09.55.18.69.16.26.45.39.86.39.32,0,.58-.09.78-.26.2-.17.29-.4.29-.67,0-.34-.1-.57-.31-.71-.21-.13-.49-.2-.86-.2-.04,0-.08,0-.12,0-.04,0-.08,0-.13,0v-.54c.06,0,.12.01.16.01s.09,0,.14,0c.23,0,.42-.04.57-.11.26-.13.39-.36.39-.68,0-.24-.09-.43-.26-.56s-.38-.2-.6-.2c-.41,0-.69.14-.85.41-.09.15-.14.36-.15.64h-.61c0-.36.07-.67.22-.93.25-.46.69-.68,1.32-.68.5,0,.89.11,1.16.33.27.22.41.54.41.97,0,.3-.08.54-.24.73-.1.12-.23.21-.39.27.26.07.46.21.6.41.14.2.22.45.22.74,0,.47-.15.85-.46,1.14s-.74.44-1.31.44-1-.16-1.26-.48Z"/><path d="M115.2,36.33h.71v.75h-.71v-.75Z"/><path d="M118.88,37.07v-1.2h-2.15v-.6l2.24-3.11h.52v3.18h.72v.54h-.72v1.2h-.62ZM118.87,35.34v-2.22l-1.57,2.22h1.57Z"/><path d="M122.7,32.67c.23.23.35.51.35.84s-.12.61-.35.84c-.23.23-.51.35-.84.35s-.61-.12-.84-.35-.35-.51-.35-.84.12-.61.35-.84.51-.35.84-.35.61.12.84.35ZM122.36,34.01c.14-.14.21-.3.21-.5s-.07-.36-.21-.5c-.14-.14-.31-.21-.5-.21s-.36.07-.5.21c-.14.14-.21.3-.21.5s.07.36.21.5c.14.14.3.21.5.21s.36-.07.5-.21ZM124.72,32.2h.38l-2.74,5h-.38l2.74-5ZM126.06,35.04c.23.23.35.51.35.84s-.12.61-.35.84c-.23.23-.51.35-.84.35s-.61-.12-.84-.35c-.23-.23-.35-.51-.35-.84s.12-.61.35-.84.51-.35.84-.35.61.12.84.35ZM125.71,36.38c.14-.14.21-.3.21-.5s-.07-.36-.21-.5c-.14-.14-.3-.21-.5-.21s-.36.07-.5.21c-.14.14-.21.3-.21.5s.07.36.21.5c.14.14.3.21.5.21s.36-.07.5-.21Z"/></g></g><g id="text_3"><g class="cls-7"><path d="M7.73,30.06h.68v4.42h2.52v.6h-3.2v-5.02Z"/><path d="M13.51,32.86c.14-.02.24-.08.28-.18.03-.05.04-.13.04-.24,0-.21-.07-.36-.22-.46-.15-.09-.36-.14-.64-.14-.32,0-.55.09-.68.26-.07.1-.12.24-.15.43h-.57c.01-.45.16-.77.44-.94.28-.18.61-.27.98-.27.43,0,.78.08,1.05.25.27.16.4.42.4.77v2.11c0,.06.01.12.04.15.03.04.08.06.17.06.03,0,.06,0,.09,0,.03,0,.07,0,.11-.02v.46c-.1.03-.17.04-.22.05s-.12,0-.21,0c-.21,0-.37-.07-.46-.22-.05-.08-.09-.19-.11-.34-.13.16-.31.31-.54.43-.23.12-.49.18-.78.18-.34,0-.62-.1-.83-.31-.22-.21-.32-.46-.32-.77,0-.34.11-.6.32-.79s.49-.3.83-.34l.98-.12ZM12.21,34.52c.13.1.28.15.46.15.22,0,.43-.05.63-.15.34-.17.51-.44.51-.82v-.5c-.08.05-.17.09-.29.12s-.23.05-.35.07l-.37.05c-.22.03-.39.08-.5.14-.19.11-.29.28-.29.51,0,.18.06.32.19.42Z"/><path d="M15.56,30.4h.62v1.02h.58v.5h-.58v2.39c0,.13.04.21.13.26.05.03.13.04.24.04.03,0,.06,0,.1,0,.03,0,.07,0,.12-.01v.49c-.07.02-.14.04-.22.04-.08,0-.16.01-.25.01-.29,0-.48-.07-.58-.22-.1-.15-.15-.34-.15-.57v-2.42h-.5v-.5h.5v-1.02Z"/><path d="M17.38,30.06h.63v.7h-.63v-.7ZM17.38,31.44h.63v3.64h-.63v-3.64Z"/><path d="M18.94,31.42h.58v.52c.17-.21.36-.37.55-.46s.41-.14.65-.14c.52,0,.87.18,1.05.54.1.2.15.48.15.85v2.35h-.63v-2.31c0-.22-.03-.4-.1-.54-.11-.23-.31-.34-.59-.34-.15,0-.27.02-.36.04-.17.05-.32.15-.44.3-.1.12-.17.25-.2.37-.03.13-.05.31-.05.55v1.92h-.62v-3.66Z"/><path d="M22.96,35.8c.16-.03.27-.14.33-.33.03-.1.05-.2.05-.3,0-.02,0-.03,0-.04,0-.01,0-.03,0-.04h-.37v-.75h.73v.69c0,.27-.05.51-.16.71s-.3.33-.57.38v-.32Z"/><path d="M26.72,31.42h.58v.52c.17-.21.36-.37.55-.46s.41-.14.65-.14c.52,0,.87.18,1.05.54.1.2.15.48.15.85v2.35h-.63v-2.31c0-.22-.03-.4-.1-.54-.11-.23-.31-.34-.6-.34-.15,0-.26.02-.36.04-.17.05-.32.15-.44.3-.1.12-.17.25-.2.37-.03.13-.05.31-.05.55v1.92h-.62v-3.66Z"/><path d="M33.27,31.78c.32.31.49.78.49,1.39s-.14,1.08-.43,1.46-.73.58-1.33.58c-.5,0-.9-.17-1.19-.51-.29-.34-.44-.8-.44-1.37,0-.61.16-1.1.47-1.47.31-.36.73-.55,1.25-.55.47,0,.86.16,1.19.47ZM32.88,34.22c.15-.31.22-.65.22-1.03,0-.34-.05-.62-.16-.83-.17-.34-.47-.51-.89-.51-.37,0-.64.14-.81.43s-.25.63-.25,1.04.08.71.25.97.44.39.8.39c.4,0,.68-.15.83-.46Z"/><path d="M36.57,30.4h.62v1.02h.58v.5h-.58v2.39c0,.13.04.21.13.26.05.03.13.04.24.04.03,0,.06,0,.1,0,.03,0,.07,0,.12-.01v.49c-.07.02-.14.04-.22.04-.08,0-.16.01-.25.01-.29,0-.48-.07-.58-.22-.1-.15-.15-.34-.15-.57v-2.42h-.5v-.5h.5v-1.02Z"/><path d="M40.68,31.42h.68c-.09.23-.28.77-.58,1.61-.22.63-.41,1.14-.56,1.54-.35.93-.61,1.5-.75,1.71s-.4.31-.75.31c-.09,0-.15,0-.2,0s-.1-.02-.17-.04v-.56c.11.03.18.05.23.05.05,0,.09,0,.13,0,.11,0,.2-.02.25-.06.05-.04.1-.08.13-.14.01-.02.05-.11.12-.28.07-.17.12-.29.15-.38l-1.35-3.77h.7l.98,2.98.99-2.98Z"/><path d="M41.84,31.44h.6v.49c.12-.17.26-.29.4-.39.21-.14.45-.21.73-.21.42,0,.77.16,1.06.48.29.32.43.77.43,1.36,0,.8-.21,1.37-.63,1.71-.26.22-.57.32-.93.32-.28,0-.51-.06-.7-.18-.11-.07-.23-.19-.37-.35v1.87h-.62v-5.1ZM44.16,34.3c.19-.24.29-.6.29-1.08,0-.29-.04-.54-.13-.75-.16-.4-.45-.6-.88-.6s-.72.21-.88.64c-.08.23-.13.52-.13.87,0,.28.04.52.13.72.16.38.45.57.88.57.29,0,.53-.12.72-.36Z"/><path d="M48.05,31.52c.24.12.43.28.55.47.12.18.2.4.25.65.04.17.05.44.05.81h-2.66c.01.37.1.67.26.9.16.22.42.34.76.34.32,0,.57-.11.76-.32.11-.12.18-.27.23-.43h.61c-.02.13-.07.28-.16.45s-.19.3-.3.41c-.19.18-.42.31-.69.37-.15.04-.31.05-.5.05-.45,0-.84-.17-1.15-.5-.31-.33-.47-.8-.47-1.39s.16-1.07.48-1.43c.32-.37.73-.55,1.24-.55.26,0,.51.06.75.18ZM48.27,32.96c-.02-.27-.08-.48-.17-.64-.17-.3-.45-.44-.84-.44-.28,0-.52.1-.71.31s-.29.46-.3.78h2.02Z"/><path d="M51.99,33.93c.02.21.07.36.16.47.16.2.43.3.82.3.23,0,.44-.05.61-.15.18-.1.26-.25.26-.46,0-.16-.07-.28-.21-.36-.09-.05-.27-.11-.54-.17l-.5-.12c-.32-.08-.55-.16-.7-.26-.27-.17-.4-.4-.4-.69,0-.35.13-.63.38-.84.25-.21.59-.32,1.02-.32.56,0,.96.16,1.21.48.15.21.23.43.23.66h-.58c-.01-.14-.06-.26-.15-.38-.14-.16-.39-.24-.75-.24-.24,0-.42.04-.54.13-.12.09-.18.21-.18.35,0,.16.08.29.24.38.09.06.23.11.41.15l.42.1c.45.11.75.21.91.31.24.16.36.4.36.74s-.13.61-.38.84c-.25.24-.63.36-1.14.36-.55,0-.94-.12-1.17-.37s-.35-.55-.37-.92h.59Z"/><path d="M55.25,30.4h.62v1.02h.58v.5h-.58v2.39c0,.13.04.21.13.26.05.03.13.04.24.04.03,0,.06,0,.1,0,.03,0,.07,0,.12-.01v.49c-.07.02-.14.04-.22.04-.08,0-.16.01-.25.01-.29,0-.48-.07-.58-.22-.1-.15-.15-.34-.15-.57v-2.42h-.5v-.5h.5v-1.02Z"/><path d="M57.09,31.42h.58v.63c.05-.12.17-.27.35-.45.19-.18.4-.26.65-.26.01,0,.03,0,.06,0s.07,0,.14.01v.65s-.07-.01-.1-.01c-.03,0-.06,0-.1,0-.31,0-.55.1-.71.3s-.25.43-.25.69v2.11h-.62v-3.66Z"/><path d="M61.37,32.86c.14-.02.24-.08.28-.18.03-.05.04-.13.04-.24,0-.21-.08-.36-.22-.46-.15-.09-.36-.14-.64-.14-.32,0-.55.09-.68.26-.08.1-.12.24-.15.43h-.57c.01-.45.16-.77.44-.94.28-.18.61-.27.98-.27.43,0,.78.08,1.05.25.27.16.4.42.4.77v2.11c0,.06.01.12.04.15.03.04.08.06.17.06.03,0,.06,0,.09,0,.04,0,.07,0,.11-.02v.46c-.1.03-.17.04-.22.05-.05,0-.12,0-.21,0-.21,0-.37-.07-.46-.22-.05-.08-.09-.19-.11-.34-.13.16-.31.31-.54.43-.23.12-.49.18-.78.18-.34,0-.62-.1-.83-.31-.22-.21-.32-.46-.32-.77,0-.34.11-.6.32-.79.21-.19.49-.3.83-.34l.98-.12ZM60.07,34.52c.13.1.28.15.46.15.22,0,.43-.05.63-.15.34-.17.51-.44.51-.82v-.5c-.08.05-.17.09-.29.12s-.23.05-.35.07l-.37.05c-.22.03-.39.08-.5.14-.19.11-.29.28-.29.51,0,.18.07.32.19.42Z"/><path d="M63.3,30.06h.62v.7h-.62v-.7ZM63.3,31.44h.62v3.64h-.62v-3.64Z"/><path d="M64.85,31.42h.58v.52c.17-.21.36-.37.55-.46s.41-.14.65-.14c.52,0,.87.18,1.05.54.1.2.15.48.15.85v2.35h-.63v-2.31c0-.22-.03-.4-.1-.54-.11-.23-.31-.34-.6-.34-.15,0-.26.02-.36.04-.17.05-.32.15-.44.3-.1.12-.17.25-.2.37-.03.13-.05.31-.05.55v1.92h-.62v-3.66Z"/></g><g class="cls-7"><path d="M54.28,37.81c-.36.7-.59,1.21-.7,1.54-.16.5-.24,1.08-.24,1.73s.09,1.26.28,1.81c.11.34.34.82.67,1.46h-.41c-.33-.52-.54-.85-.62-1-.08-.14-.17-.34-.26-.58-.13-.34-.22-.7-.27-1.08-.02-.2-.04-.39-.04-.57,0-.67.11-1.27.32-1.8.13-.33.41-.84.84-1.5h.43Z"/><path d="M55.21,39.45v-.47c.44-.04.75-.12.93-.22s.31-.34.39-.72h.49v4.87h-.66v-3.47h-1.15Z"/><path d="M59.01,43.63c.16-.03.27-.14.33-.33.03-.1.05-.2.05-.3,0-.02,0-.03,0-.04,0-.01,0-.03,0-.04h-.37v-.75h.73v.69c0,.27-.05.51-.16.71s-.3.33-.57.38v-.32Z"/><path d="M61.24,41.67c.04.35.2.59.49.73.15.07.31.1.51.1.36,0,.63-.12.81-.35s.26-.49.26-.77c0-.34-.1-.61-.31-.79-.21-.19-.46-.28-.75-.28-.21,0-.39.04-.55.12-.15.08-.28.2-.39.34l-.53-.03.37-2.63h2.54v.59h-2.08l-.21,1.36c.11-.09.22-.15.32-.2.18-.07.39-.11.63-.11.45,0,.83.14,1.14.43.31.29.47.66.47,1.1s-.14.87-.43,1.22c-.29.35-.74.53-1.37.53-.4,0-.75-.11-1.06-.34-.31-.22-.48-.57-.51-1.03h.64Z"/><path d="M65.2,41.73c.02.34.15.57.39.7.13.07.27.1.42.1.29,0,.54-.12.75-.37s.35-.74.44-1.49c-.14.22-.31.37-.51.46-.2.09-.42.13-.65.13-.47,0-.84-.15-1.12-.44-.27-.29-.41-.67-.41-1.13s.14-.83.41-1.17.67-.5,1.2-.5c.71,0,1.21.32,1.48.96.15.35.23.79.23,1.33,0,.6-.09,1.13-.27,1.59-.3.77-.8,1.15-1.52,1.15-.48,0-.84-.12-1.09-.38-.25-.25-.37-.57-.37-.94h.62ZM66.8,40.49c.2-.16.3-.44.3-.84,0-.36-.09-.63-.27-.8-.18-.18-.41-.26-.69-.26-.3,0-.54.1-.72.3-.18.2-.26.47-.26.81,0,.32.08.57.23.76s.4.28.74.28c.24,0,.47-.08.67-.24Z"/><path d="M68.64,41.82c.15-.31.45-.6.89-.85l.66-.38c.29-.17.5-.32.62-.44.19-.19.28-.41.28-.65,0-.29-.08-.51-.26-.68s-.4-.25-.68-.25c-.42,0-.71.16-.88.48-.09.17-.13.41-.14.71h-.63c0-.43.09-.77.24-1.04.27-.47.74-.71,1.41-.71.56,0,.97.15,1.23.46s.39.64.39,1.01c0,.39-.14.73-.41,1-.16.16-.45.36-.86.59l-.47.26c-.22.12-.4.24-.53.35-.23.2-.37.42-.43.66h2.67v.58h-3.36c.02-.42.11-.79.26-1.1Z"/><path d="M72.3,44.35c.36-.71.6-1.22.7-1.54.16-.49.24-1.06.24-1.72s-.09-1.26-.28-1.81c-.11-.34-.34-.82-.67-1.46h.41c.35.56.56.91.64,1.04s.15.31.24.54c.11.28.19.57.23.84s.07.55.07.8c0,.67-.11,1.28-.32,1.8-.13.34-.41.84-.84,1.5h-.43Z"/></g></g><g id="text_4"><g class="cls-7"><path d="M87.75,50.01v-.47c.44-.04.75-.12.93-.22s.31-.34.39-.72h.49v4.87h-.66v-3.47h-1.15Z"/><path d="M91.58,52.73h.71v.75h-.71v-.75Z"/><path d="M93.59,50.01v-.47c.44-.04.75-.12.93-.22s.31-.34.39-.72h.49v4.87h-.66v-3.47h-1.15Z"/><path d="M99.08,49.08c.23.23.35.51.35.84s-.12.61-.35.84-.51.35-.84.35-.61-.12-.84-.35-.35-.51-.35-.84.12-.61.35-.84.51-.35.84-.35.61.12.84.35ZM98.73,50.42c.14-.14.21-.3.21-.5s-.07-.36-.21-.5c-.14-.14-.31-.21-.5-.21s-.36.07-.5.21c-.14.14-.21.3-.21.5s.07.36.21.5c.14.14.3.21.5.21s.36-.07.5-.21ZM101.09,48.61h.38l-2.74,5h-.38l2.74-5ZM102.43,51.45c.23.23.35.51.35.84s-.12.61-.35.84c-.23.23-.51.35-.84.35s-.61-.12-.84-.35c-.23-.23-.35-.51-.35-.84s.12-.61.35-.84.51-.35.84-.35.61.12.84.35ZM102.08,52.79c.14-.14.21-.3.21-.5s-.07-.36-.21-.5c-.14-.14-.3-.21-.5-.21s-.36.07-.5.21c-.14.14-.21.3-.21.5s.07.36.21.5c.14.14.31.21.5.21s.36-.07.5-.21Z"/></g></g><g id="text_5"><g class="cls-7"><path d="M178.35,157.59h2.25c.44,0,.8.13,1.08.38.27.25.41.61.41,1.06,0,.39-.12.73-.37,1.02-.24.29-.62.44-1.12.44h-1.57v2.12h-.68v-5.02ZM180.99,158.28c-.15-.07-.35-.11-.61-.11h-1.34v1.74h1.34c.3,0,.55-.06.74-.19.19-.13.28-.36.28-.69,0-.37-.14-.62-.41-.75Z"/><path d="M182.89,157.59h.62v5.02h-.62v-5.02Z"/><path d="M186.39,160.4c.14-.02.24-.08.28-.18.03-.05.04-.13.04-.24,0-.21-.07-.36-.22-.46-.15-.09-.36-.14-.64-.14-.32,0-.55.09-.68.26-.08.1-.12.24-.15.43h-.57c.01-.45.16-.77.44-.94.28-.18.61-.27.98-.27.43,0,.78.08,1.05.25.27.16.4.42.4.77v2.11c0,.06.01.12.04.15.03.04.08.06.17.06.03,0,.06,0,.09,0,.03,0,.07,0,.11-.02v.46c-.1.03-.17.04-.22.05-.05,0-.12,0-.21,0-.21,0-.37-.07-.46-.22-.05-.08-.09-.19-.11-.34-.12.16-.3.31-.54.43-.23.12-.49.18-.78.18-.34,0-.62-.1-.83-.31-.22-.21-.32-.46-.32-.77,0-.34.11-.6.32-.79s.49-.3.83-.34l.98-.12ZM185.1,162.06c.13.1.28.15.46.15.22,0,.43-.05.63-.15.34-.17.51-.44.51-.82v-.5c-.08.05-.17.09-.29.12s-.23.05-.35.07l-.37.05c-.22.03-.39.08-.5.14-.19.11-.29.28-.29.51,0,.18.06.32.19.42Z"/><path d="M190.74,159.15c.26.2.42.55.47,1.04h-.6c-.04-.23-.12-.41-.25-.56s-.34-.22-.62-.22c-.39,0-.67.19-.84.57-.11.25-.16.55-.16.92s.08.67.23.92c.15.25.4.38.73.38.25,0,.46-.08.61-.23s.25-.37.31-.64h.6c-.07.48-.24.84-.51,1.06s-.62.34-1.05.34c-.48,0-.86-.17-1.15-.52-.28-.35-.43-.79-.43-1.31,0-.64.16-1.14.47-1.5.31-.36.71-.54,1.19-.54.41,0,.75.1,1.01.3Z"/><path d="M194.09,159.05c.24.12.43.28.55.47.12.18.2.4.25.65.04.17.05.44.05.81h-2.66c.01.37.1.67.26.9.16.22.41.34.76.34.32,0,.57-.11.76-.32.11-.12.18-.27.23-.43h.61c-.02.13-.07.28-.16.45s-.19.3-.3.41c-.19.18-.42.31-.69.37-.15.04-.31.05-.5.05-.45,0-.84-.17-1.15-.5-.31-.33-.47-.8-.47-1.39s.16-1.07.48-1.43c.32-.37.73-.55,1.24-.55.26,0,.51.06.75.18ZM194.31,160.49c-.02-.27-.08-.48-.17-.64-.17-.3-.45-.44-.84-.44-.28,0-.52.1-.71.31s-.29.46-.3.78h2.02Z"/><path d="M195.72,157.57h.62v1.87c.15-.18.28-.31.39-.39.2-.13.45-.2.74-.2.53,0,.89.19,1.08.56.1.2.15.48.15.84v2.35h-.63v-2.31c0-.27-.03-.47-.1-.59-.11-.2-.32-.3-.63-.3-.25,0-.49.09-.69.26-.21.17-.31.51-.31.99v1.94h-.62v-5.04Z"/><path d="M202.26,159.32c.32.31.49.78.49,1.39s-.14,1.08-.43,1.46-.73.58-1.33.58c-.5,0-.9-.17-1.19-.51-.29-.34-.44-.8-.44-1.37,0-.61.16-1.1.47-1.47.31-.36.73-.55,1.25-.55.47,0,.86.16,1.19.47ZM201.88,161.75c.15-.31.22-.65.22-1.03,0-.34-.05-.62-.16-.83-.17-.34-.47-.51-.89-.51-.37,0-.64.14-.81.43s-.25.63-.25,1.04.08.71.25.97.44.39.8.39c.4,0,.68-.15.83-.46Z"/><path d="M203.52,157.59h.62v5.02h-.62v-5.02Z"/><path d="M207.07,159.06c.11.07.23.19.37.36v-1.85h.59v5.04h-.55v-.51c-.14.23-.31.39-.51.49-.19.1-.42.15-.67.15-.41,0-.76-.17-1.06-.51-.3-.34-.45-.8-.45-1.37,0-.53.14-1,.41-1.39.27-.39.66-.59,1.16-.59.28,0,.51.06.7.18ZM205.7,161.81c.17.26.43.4.8.4.28,0,.52-.12.7-.37s.27-.6.27-1.05-.09-.81-.28-1.03c-.19-.22-.42-.33-.7-.33-.31,0-.56.12-.75.36-.19.24-.29.59-.29,1.05,0,.39.08.72.25.98Z"/><path d="M211.21,159.05c.24.12.43.28.55.47.12.18.2.4.25.65.04.17.05.44.05.81h-2.66c.01.37.1.67.26.9.16.22.42.34.76.34.32,0,.57-.11.76-.32.11-.12.18-.27.23-.43h.61c-.02.13-.07.28-.16.45s-.19.3-.3.41c-.19.18-.42.31-.69.37-.15.04-.31.05-.5.05-.45,0-.84-.17-1.15-.5-.31-.33-.47-.8-.47-1.39s.16-1.07.48-1.43c.32-.37.73-.55,1.24-.55.26,0,.51.06.75.18ZM211.43,160.49c-.02-.27-.08-.48-.17-.64-.17-.3-.45-.44-.84-.44-.28,0-.52.1-.71.31s-.29.46-.3.78h2.02Z"/><path d="M212.86,158.95h.58v.63c.05-.12.17-.27.35-.45.19-.18.4-.26.65-.26.01,0,.03,0,.06,0s.07,0,.14.01v.65s-.07-.01-.1-.01c-.03,0-.06,0-.1,0-.31,0-.55.1-.71.3s-.25.43-.25.69v2.11h-.62v-3.66Z"/></g><g class="cls-7"><path d="M179.83,165.35c-.36.7-.59,1.21-.7,1.54-.16.5-.24,1.08-.24,1.73s.09,1.26.28,1.81c.11.34.34.82.67,1.46h-.41c-.33-.52-.54-.85-.62-1-.08-.14-.17-.34-.26-.58-.13-.34-.22-.7-.27-1.08-.03-.2-.04-.39-.04-.57,0-.67.11-1.27.32-1.8.13-.33.41-.84.84-1.5h.43Z"/><path d="M180.76,166.98v-.47c.44-.04.75-.12.93-.22.18-.1.31-.34.39-.72h.49v4.87h-.66v-3.47h-1.15Z"/><path d="M184.46,169.35c.15-.31.45-.6.89-.85l.66-.38c.29-.17.5-.32.62-.44.19-.19.28-.41.28-.65,0-.29-.08-.51-.26-.68s-.4-.25-.68-.25c-.42,0-.71.16-.88.48-.09.17-.13.41-.14.71h-.63c0-.43.09-.77.24-1.04.27-.47.74-.71,1.41-.71.56,0,.97.15,1.23.46.26.3.39.64.39,1.01,0,.39-.14.73-.41,1-.16.16-.45.36-.86.59l-.47.26c-.22.12-.4.24-.53.35-.23.2-.37.42-.43.66h2.67v.58h-3.36c.02-.42.11-.79.26-1.1Z"/><path d="M188.35,169.35c.15-.31.45-.6.89-.85l.66-.38c.29-.17.5-.32.62-.44.19-.19.28-.41.28-.65,0-.29-.09-.51-.26-.68s-.4-.25-.68-.25c-.42,0-.71.16-.88.48-.09.17-.13.41-.14.71h-.62c0-.43.08-.77.24-1.04.27-.47.74-.71,1.41-.71.56,0,.97.15,1.23.46s.39.64.39,1.01c0,.39-.14.73-.41,1-.16.16-.45.36-.86.59l-.47.26c-.22.12-.4.24-.53.35-.23.2-.37.42-.43.66h2.67v.58h-3.36c.02-.42.11-.79.26-1.1Z"/><path d="M192.35,171.17c.16-.03.27-.14.33-.33.03-.1.05-.2.05-.3,0-.02,0-.03,0-.04s0-.03,0-.04h-.37v-.75h.73v.69c0,.27-.05.51-.16.71s-.3.33-.57.38v-.32Z"/><path d="M194.38,167.59c-.18-.18-.27-.42-.27-.71,0-.36.13-.68.4-.94.26-.26.64-.39,1.12-.39s.84.12,1.1.37.4.54.4.87c0,.31-.08.55-.23.74-.09.11-.22.21-.4.31.2.09.36.2.48.32.22.23.33.52.33.89,0,.43-.14.79-.43,1.09-.29.3-.7.45-1.23.45-.48,0-.88-.13-1.21-.39s-.49-.63-.49-1.13c0-.29.07-.54.21-.75s.35-.37.63-.48c-.17-.07-.3-.16-.4-.26ZM196.36,169.8c.19-.15.28-.38.28-.69s-.1-.56-.29-.72c-.19-.16-.44-.25-.75-.25s-.53.08-.72.25c-.19.17-.28.4-.28.7,0,.25.09.48.25.66.17.19.43.28.79.28.29,0,.52-.08.71-.23ZM196.25,167.38c.15-.15.23-.33.23-.54,0-.18-.07-.35-.22-.5s-.37-.23-.67-.23-.51.08-.64.23-.2.33-.2.54c0,.23.08.41.25.54.17.13.37.2.6.2.27,0,.48-.08.63-.23Z"/><path d="M198.27,166.98v-.47c.44-.04.75-.12.93-.22s.31-.34.39-.72h.49v4.87h-.66v-3.47h-1.15Z"/><path d="M201.65,166.98v-.47c.44-.04.75-.12.93-.22s.31-.34.39-.72h.49v4.87h-.66v-3.47h-1.15Z"/><path d="M205.12,171.88c.36-.71.6-1.22.7-1.54.16-.49.24-1.06.24-1.72s-.09-1.26-.28-1.81c-.11-.34-.34-.82-.67-1.46h.41c.35.56.56.91.64,1.04s.15.31.24.54c.11.28.19.57.23.84s.07.55.07.8c0,.67-.11,1.28-.32,1.8-.13.34-.41.84-.84,1.5h-.43Z"/></g></g><g id="text_6"><g class="cls-7"><path d="M158.56,143.37c-.18-.18-.27-.42-.27-.71,0-.36.13-.68.4-.94.26-.26.64-.39,1.12-.39s.84.12,1.1.37c.27.25.4.54.4.87,0,.31-.08.55-.23.74-.09.11-.22.21-.4.31.2.09.36.2.48.32.22.23.33.52.33.89,0,.43-.14.79-.43,1.09-.29.3-.7.45-1.23.45-.48,0-.88-.13-1.21-.39-.33-.26-.49-.63-.49-1.13,0-.29.07-.54.21-.75.14-.21.35-.37.63-.48-.17-.07-.3-.16-.4-.26ZM160.55,145.58c.19-.15.28-.38.28-.69s-.1-.56-.29-.72c-.19-.16-.44-.25-.75-.25s-.53.08-.72.25c-.19.17-.28.4-.28.7,0,.25.08.48.25.66s.43.28.79.28c.28,0,.52-.08.71-.23ZM160.43,143.16c.15-.15.23-.33.23-.54,0-.18-.07-.35-.22-.5s-.37-.23-.67-.23-.51.08-.64.23-.2.33-.2.54c0,.23.09.41.26.54.17.13.37.2.6.2.27,0,.48-.08.63-.23Z"/><path d="M162.66,144.98c.04.35.2.59.49.73.15.07.31.1.51.1.37,0,.63-.12.81-.35.17-.23.26-.49.26-.77,0-.34-.1-.61-.31-.79-.21-.19-.46-.28-.75-.28-.21,0-.39.04-.55.12-.15.08-.28.2-.39.34l-.53-.03.37-2.63h2.54v.59h-2.08l-.21,1.36c.11-.09.22-.15.32-.2.18-.07.39-.11.63-.11.45,0,.83.14,1.14.43.31.29.47.66.47,1.1s-.14.87-.43,1.22c-.29.35-.74.53-1.37.53-.4,0-.75-.11-1.06-.34s-.48-.57-.51-1.03h.64Z"/><path d="M166.28,145.49h.71v.75h-.71v-.75Z"/><path d="M168.49,144.98c.04.35.2.59.49.73.15.07.31.1.51.1.37,0,.63-.12.81-.35.17-.23.26-.49.26-.77,0-.34-.1-.61-.31-.79-.21-.19-.46-.28-.75-.28-.21,0-.39.04-.55.12-.15.08-.28.2-.39.34l-.53-.03.37-2.63h2.54v.59h-2.08l-.21,1.36c.11-.09.22-.15.32-.2.18-.07.39-.11.63-.11.45,0,.83.14,1.14.43.31.29.47.66.47,1.1s-.14.87-.43,1.22c-.29.35-.74.53-1.37.53-.4,0-.75-.11-1.06-.34s-.48-.57-.51-1.03h.64Z"/><path d="M173.78,141.83c.23.23.35.51.35.84s-.12.61-.35.84-.51.35-.84.35-.61-.12-.84-.35-.35-.51-.35-.84.12-.61.35-.84.51-.35.84-.35.61.12.84.35ZM173.44,143.17c.14-.14.21-.3.21-.5s-.07-.36-.21-.5c-.14-.14-.31-.21-.5-.21s-.36.07-.5.21c-.14.14-.21.3-.21.5s.07.36.21.5c.14.14.3.21.5.21s.36-.07.5-.21ZM175.8,141.36h.38l-2.74,5h-.38l2.74-5ZM177.13,144.2c.23.23.35.51.35.84s-.12.61-.35.84c-.23.23-.51.35-.84.35s-.61-.12-.84-.35c-.23-.23-.35-.51-.35-.84s.12-.61.35-.84.51-.35.84-.35.61.12.84.35ZM176.79,145.54c.14-.14.21-.3.21-.5s-.07-.36-.21-.5c-.14-.14-.3-.21-.5-.21s-.36.07-.5.21c-.14.14-.21.3-.21.5s.07.36.21.5c.14.14.3.21.5.21s.36-.07.5-.21Z"/></g></g><g id="legend_1"><g id="patch_14"><path class="cls-2" d="M232,19.34h14v-4.9h-14v4.9Z"/></g><g id="text_7"><g class="cls-7"><path d="M252.29,14.32h.69v5.02h-.69v-5.02Z"/><path d="M254.36,18.19c.02.21.07.36.16.47.16.2.43.3.82.3.23,0,.44-.05.61-.15.18-.1.27-.25.27-.46,0-.16-.07-.28-.21-.36-.09-.05-.27-.11-.54-.17l-.5-.12c-.32-.08-.55-.16-.7-.26-.27-.17-.4-.4-.4-.69,0-.35.13-.63.38-.84.25-.21.59-.32,1.02-.32.56,0,.96.16,1.21.48.16.21.23.43.23.66h-.58c-.01-.14-.06-.26-.15-.38-.14-.16-.4-.24-.75-.24-.24,0-.42.04-.54.13-.12.09-.18.21-.18.35,0,.16.08.29.24.38.09.06.23.11.41.15l.41.1c.45.11.75.21.91.31.24.16.36.4.36.74s-.12.61-.38.84c-.25.24-.63.36-1.14.36-.55,0-.94-.12-1.17-.37s-.35-.55-.37-.92h.59Z"/><path d="M260.15,16.05c.32.31.49.78.49,1.39s-.14,1.08-.43,1.46-.73.58-1.33.58c-.5,0-.9-.17-1.19-.51-.29-.34-.44-.8-.44-1.37,0-.61.15-1.1.46-1.47.31-.36.73-.55,1.25-.55.47,0,.86.16,1.19.47ZM259.77,18.48c.15-.31.22-.65.22-1.03,0-.34-.05-.62-.16-.83-.17-.34-.47-.51-.89-.51-.37,0-.64.14-.81.43s-.25.63-.25,1.04.08.71.25.97.44.39.8.39c.4,0,.68-.15.83-.46Z"/><path d="M261.41,14.32h.62v5.02h-.62v-5.02Z"/><path d="M264.91,17.13c.14-.02.24-.08.28-.18.03-.05.04-.13.04-.24,0-.21-.08-.36-.22-.46-.15-.09-.36-.14-.64-.14-.32,0-.55.09-.68.26-.07.1-.12.24-.15.43h-.57c.01-.45.16-.77.44-.94.28-.18.61-.27.98-.27.43,0,.78.08,1.05.25.27.16.4.42.4.77v2.11c0,.06.01.12.04.15.03.04.08.06.17.06.03,0,.06,0,.09,0,.03,0,.07,0,.11-.02v.46c-.1.03-.17.04-.22.05-.05,0-.12,0-.21,0-.21,0-.37-.07-.46-.22-.05-.08-.08-.19-.11-.34-.13.16-.31.31-.54.43-.24.12-.49.18-.78.18-.34,0-.62-.1-.83-.31-.22-.21-.32-.46-.32-.77,0-.34.11-.6.32-.79s.49-.3.83-.34l.98-.12ZM263.61,18.79c.13.1.28.15.46.15.22,0,.43-.05.63-.15.34-.17.51-.44.51-.82v-.5c-.08.05-.17.09-.29.12s-.23.05-.35.07l-.37.05c-.22.03-.39.08-.5.14-.19.11-.29.28-.29.51,0,.18.07.32.2.42Z"/><path d="M266.96,14.66h.62v1.02h.58v.5h-.58v2.39c0,.13.04.21.13.26.05.03.13.04.24.04.03,0,.06,0,.1,0,.03,0,.07,0,.12-.01v.49c-.07.02-.14.04-.22.04-.08,0-.16.01-.25.01-.29,0-.48-.07-.58-.22-.1-.15-.15-.34-.15-.57v-2.42h-.5v-.5h.5v-1.02Z"/><path d="M271.04,15.78c.24.12.43.28.55.47.12.18.2.4.25.65.04.17.05.44.05.81h-2.66c.01.37.1.67.26.9.16.22.42.34.76.34.32,0,.57-.11.76-.32.11-.12.18-.27.23-.43h.61c-.02.13-.07.28-.16.45s-.19.3-.3.41c-.19.18-.42.31-.69.37-.15.04-.31.05-.5.05-.45,0-.84-.17-1.15-.5-.31-.33-.47-.8-.47-1.39s.16-1.07.48-1.43c.32-.37.73-.55,1.24-.55.26,0,.51.06.75.18ZM271.26,17.22c-.02-.27-.08-.48-.17-.64-.17-.3-.45-.44-.84-.44-.28,0-.52.1-.71.31s-.29.46-.3.78h2.02Z"/></g></g><g id="patch_15"><path class="cls-4" d="M232,29.62h14v-4.9h-14v4.9Z"/></g><g id="text_8"><g class="cls-7"><path d="M252.12,24.6h.97l1.44,4.25,1.43-4.25h.97v5.02h-.65v-2.96c0-.1,0-.27,0-.51,0-.24,0-.49,0-.76l-1.43,4.23h-.67l-1.45-4.23v.15c0,.12,0,.31.01.56s0,.44,0,.56v2.96h-.65v-5.02Z"/><path d="M259.42,24.6h.77l1.82,5.02h-.75l-.51-1.5h-1.99l-.54,1.5h-.7l1.89-5.02ZM260.54,27.56l-.76-2.22-.81,2.22h1.57Z"/><path d="M265.98,24.74c.49.26.79.72.9,1.38h-.67c-.08-.37-.25-.63-.5-.8-.25-.17-.57-.25-.95-.25-.46,0-.84.17-1.15.52-.31.35-.47.87-.47,1.56,0,.6.13,1.08.39,1.46s.67.56,1.26.56c.44,0,.81-.13,1.1-.39.29-.26.44-.69.45-1.28h-1.57v-.56h2.21v2.69h-.44l-.16-.65c-.23.25-.43.43-.6.53-.29.17-.67.25-1.12.25-.58,0-1.09-.19-1.51-.58-.46-.48-.69-1.15-.69-1.99s.22-1.51.67-2.01c.43-.47.98-.71,1.66-.71.46,0,.87.09,1.21.27Z"/></g></g><g id="patch_16"><path class="cls-6" d="M232,39.89h14v-4.9h-14v4.9Z"/></g><g id="text_9"><g class="cls-7"><path d="M252.58,38.27c.02.29.08.52.19.69.22.33.6.5,1.15.5.25,0,.47-.04.67-.11.39-.14.59-.39.59-.76,0-.27-.08-.47-.25-.58-.17-.11-.43-.21-.79-.3l-.66-.15c-.43-.1-.73-.21-.91-.33-.31-.21-.46-.52-.46-.94,0-.45.15-.82.46-1.11.3-.29.73-.43,1.29-.43.51,0,.95.13,1.31.38.36.25.54.66.54,1.22h-.64c-.03-.27-.1-.48-.21-.62-.2-.26-.54-.39-1.01-.39-.38,0-.66.08-.83.25-.17.17-.25.36-.25.59,0,.25.1.43.3.54.13.07.43.16.88.27l.68.16c.33.08.58.18.76.32.31.23.46.58.46,1.02,0,.56-.2.95-.59,1.19s-.85.36-1.38.36c-.61,0-1.08-.16-1.43-.48-.34-.32-.51-.75-.51-1.29h.64Z"/><path d="M258.26,34.87h.77l1.82,5.02h-.75l-.51-1.5h-1.99l-.54,1.5h-.7l1.89-5.02ZM259.38,37.83l-.76-2.22-.81,2.22h1.57Z"/><path d="M264.81,35.02c.49.26.79.72.9,1.38h-.67c-.08-.37-.25-.63-.5-.8-.25-.17-.57-.25-.95-.25-.46,0-.84.17-1.15.52-.31.35-.47.87-.47,1.56,0,.6.13,1.08.39,1.46s.67.56,1.26.56c.44,0,.81-.13,1.1-.39.29-.26.44-.69.45-1.28h-1.57v-.56h2.21v2.69h-.44l-.16-.65c-.23.25-.43.43-.6.53-.29.17-.67.25-1.12.25-.58,0-1.09-.19-1.51-.58-.46-.48-.69-1.15-.69-1.99s.22-1.51.67-2.01c.43-.47.98-.71,1.66-.71.46,0,.87.09,1.21.27Z"/></g></g></g></g></g></svg>