<?xml version="1.0" encoding="utf-8"?>
<!-- Generator: Adobe Illustrator 27.5.0, SVG Export Plug-In . SVG Version: 6.00 Build 0)  -->
<svg version="1.1" id="Layer_1" xmlns="http://www.w3.org/2000/svg" xmlns:xlink="http://www.w3.org/1999/xlink" x="0px" y="0px"
	 viewBox="0 0 345.44 195.81" style="enable-background:new 0 0 345.44 195.81;" xml:space="preserve">
<style type="text/css">
	.st0{fill:#FFFFFF;}
	.st1{fill:#808080;stroke:#000000;stroke-width:0.8;stroke-linejoin:round;}
	.st2{enable-background:new    ;}
	
		.st3{clip-path:url(#SVGID_00000004520120970859881910000001025945070847686026_);fill:none;stroke:#D3D3D3;stroke-width:0.8;stroke-linecap:square;stroke-linejoin:round;stroke-opacity:0.7;}
	
		.st4{clip-path:url(#SVGID_00000139972510091638981080000007964049128180309912_);fill:none;stroke:#D3D3D3;stroke-width:0.8;stroke-linecap:square;stroke-linejoin:round;stroke-opacity:0.7;}
	
		.st5{clip-path:url(#SVGID_00000176723442806616877330000001626624713999761599_);fill:none;stroke:#D3D3D3;stroke-width:0.8;stroke-linecap:square;stroke-linejoin:round;stroke-opacity:0.7;}
	
		.st6{clip-path:url(#SVGID_00000062887352304304785610000018311840506776309397_);fill:none;stroke:#D3D3D3;stroke-width:0.8;stroke-linecap:square;stroke-linejoin:round;stroke-opacity:0.7;}
	
		.st7{clip-path:url(#SVGID_00000035526914680502015020000005630172202918367137_);fill:none;stroke:#D3D3D3;stroke-width:0.8;stroke-linecap:square;stroke-linejoin:round;stroke-opacity:0.7;}
	
		.st8{clip-path:url(#SVGID_00000008855464731250735810000013781812724850131644_);fill:none;stroke:#D3D3D3;stroke-width:0.8;stroke-linecap:square;stroke-linejoin:round;stroke-opacity:0.7;}
	
		.st9{clip-path:url(#SVGID_00000152233267118865656390000012462616177353149631_);fill:none;stroke:#D3D3D3;stroke-width:0.8;stroke-linecap:square;stroke-linejoin:round;stroke-opacity:0.7;}
	
		.st10{clip-path:url(#SVGID_00000175301660059010993380000012090888616966976171_);fill:none;stroke:#D3D3D3;stroke-width:0.8;stroke-linecap:square;stroke-linejoin:round;stroke-opacity:0.7;}
	
		.st11{clip-path:url(#SVGID_00000064346701561352869750000016785186882821566374_);fill:none;stroke:#D3D3D3;stroke-width:0.8;stroke-linecap:square;stroke-linejoin:round;stroke-opacity:0.7;}
	
		.st12{clip-path:url(#SVGID_00000183967782464718158840000010380564571805533056_);fill:none;stroke:#D3D3D3;stroke-width:0.8;stroke-linecap:square;stroke-linejoin:round;stroke-opacity:0.7;}
	
		.st13{clip-path:url(#SVGID_00000026159914927933125420000001758036548183924865_);fill:none;stroke:#D3D3D3;stroke-width:0.8;stroke-linecap:square;stroke-linejoin:round;stroke-opacity:0.7;}
	.st14{clip-path:url(#SVGID_00000041266250012723853050000009679028034617537706_);fill:#80B1D3;}
	.st15{clip-path:url(#SVGID_00000119081536557749423870000005899198528920447153_);fill:#80B1D3;}
	.st16{clip-path:url(#SVGID_00000029028853386191287580000015189861636287934613_);fill:#80B1D3;}
	.st17{clip-path:url(#SVGID_00000165946537509078369100000000400903714983068349_);fill:#80B1D3;}
	.st18{clip-path:url(#SVGID_00000121961722066963622920000003948483403502899349_);fill:#80B1D3;}
	.st19{clip-path:url(#SVGID_00000029764255976123915870000000374979796461024147_);fill:#80B1D3;}
	.st20{clip-path:url(#SVGID_00000133524512142226614410000007737072484170819477_);fill:#FDAE6B;}
	.st21{clip-path:url(#SVGID_00000127005404140156810540000013686144368650321589_);fill:#FDAE6B;}
	.st22{clip-path:url(#SVGID_00000062870784856750154340000005268665786856438704_);fill:#FDAE6B;}
	.st23{clip-path:url(#SVGID_00000029725585413642768230000015175816328128855428_);fill:#FDAE6B;}
	.st24{clip-path:url(#SVGID_00000036931103938844206030000008547279149127424685_);fill:#FDAE6B;}
	.st25{clip-path:url(#SVGID_00000168835163884609014190000012526255750046535865_);fill:#FDAE6B;}
	.st26{clip-path:url(#SVGID_00000081617929973608236590000007889376943825370266_);fill:#B3DE69;}
	.st27{clip-path:url(#SVGID_00000055685946644148490250000006466840501396715418_);fill:#B3DE69;}
	.st28{clip-path:url(#SVGID_00000113349542432179494790000016630554131290654083_);fill:#B3DE69;}
	.st29{clip-path:url(#SVGID_00000165203848540058018000000007038303640635091128_);fill:#B3DE69;}
	.st30{clip-path:url(#SVGID_00000059269431319585105480000005338522707724647062_);fill:#B3DE69;}
	.st31{clip-path:url(#SVGID_00000083784825148246243370000005169716608951809952_);fill:#B3DE69;}
	.st32{fill:none;stroke:#808080;stroke-width:0.8;stroke-linecap:square;}
	.st33{fill:none;}
	.st34{fill:#B3DE69;}
	.st35{fill:#FDAE6B;}
	.st36{fill:#80B1D3;}
</style>
<g id="figure_1">
	<g id="patch_1">
		<path class="st0" d="M0,195.81h345.44V0H0V195.81z"/>
	</g>
	<g id="axes_1">
		<g id="patch_2">
			<path class="st0" d="M44.27,175.8h223.2V9.48H44.27V175.8z"/>
		</g>
		<g id="matplotlib.axis_1">
			<g id="xtick_1">
				<g id="line2d_1">
					<g>
						<g>
							<path id="ma28e98f081" class="st1" d="M66.87,175.8v3.5"/>
						</g>
					</g>
				</g>
				<g id="text_1">
					<g class="st2">
						<path d="M57.38,183.05h1.93c0.38,0,0.69,0.11,0.92,0.32c0.23,0.22,0.35,0.52,0.35,0.91c0,0.34-0.1,0.63-0.31,0.88
							c-0.21,0.25-0.53,0.37-0.96,0.37h-1.34v1.82h-0.58V183.05z M59.64,183.65c-0.13-0.06-0.3-0.09-0.53-0.09h-1.15v1.49h1.15
							c0.26,0,0.47-0.06,0.63-0.17c0.16-0.11,0.24-0.31,0.24-0.59C59.99,183.97,59.87,183.76,59.64,183.65z"/>
						<path d="M61.26,183.04h0.53v1.61c0.12-0.16,0.24-0.27,0.34-0.33c0.17-0.11,0.38-0.17,0.64-0.17c0.46,0,0.76,0.16,0.93,0.48
							c0.09,0.17,0.13,0.42,0.13,0.72v2.01h-0.54v-1.98c0-0.23-0.03-0.4-0.09-0.51c-0.1-0.17-0.28-0.26-0.54-0.26
							c-0.22,0-0.42,0.08-0.59,0.23s-0.27,0.43-0.27,0.85v1.66h-0.53V183.04z"/>
						<path d="M66.55,184.22h0.58c-0.07,0.2-0.24,0.66-0.5,1.38c-0.19,0.54-0.35,0.98-0.48,1.32c-0.3,0.8-0.52,1.29-0.64,1.46
							s-0.34,0.26-0.64,0.26c-0.07,0-0.13,0-0.17-0.01s-0.09-0.02-0.15-0.03v-0.48c0.09,0.03,0.16,0.04,0.2,0.05
							s0.08,0.01,0.11,0.01c0.1,0,0.17-0.02,0.21-0.05s0.08-0.07,0.12-0.12c0.01-0.02,0.04-0.09,0.1-0.24
							c0.06-0.14,0.1-0.25,0.13-0.32l-1.16-3.23h0.6l0.84,2.56L66.55,184.22z"/>
						<path d="M67.61,183.05h0.53v4.3h-0.53V183.05z"/>
						<path d="M69.45,184.22v2.08c0,0.16,0.02,0.29,0.07,0.39c0.09,0.19,0.26,0.28,0.51,0.28c0.36,0,0.6-0.16,0.73-0.49
							c0.07-0.18,0.11-0.42,0.11-0.72v-1.54h0.53v3.14h-0.5l0.01-0.46c-0.07,0.12-0.15,0.22-0.25,0.3c-0.2,0.16-0.44,0.25-0.72,0.25
							c-0.44,0-0.74-0.15-0.9-0.45c-0.09-0.16-0.13-0.37-0.13-0.64v-2.13H69.45z"/>
						<path d="M72.26,184.22h0.52v0.45c0.12-0.15,0.24-0.27,0.34-0.34c0.17-0.12,0.37-0.18,0.59-0.18c0.25,0,0.45,0.06,0.6,0.18
							c0.09,0.07,0.16,0.17,0.23,0.31c0.12-0.17,0.25-0.29,0.41-0.37s0.34-0.12,0.53-0.12c0.42,0,0.71,0.15,0.86,0.46
							c0.08,0.16,0.12,0.38,0.12,0.66v2.09h-0.55v-2.18c0-0.21-0.05-0.35-0.16-0.43s-0.23-0.12-0.38-0.12
							c-0.21,0-0.39,0.07-0.53,0.21s-0.22,0.37-0.22,0.69v1.83H74.1v-2.05c0-0.21-0.03-0.37-0.08-0.47
							c-0.08-0.15-0.23-0.22-0.45-0.22c-0.2,0-0.38,0.08-0.54,0.23s-0.24,0.43-0.24,0.84v1.66h-0.53V184.22z"/>
					</g>
				</g>
			</g>
			<g id="xtick_2">
				<g id="line2d_2">
					<g>
						<g>
							<path id="ma28e98f081_00000066494717526648203510000009811119476719022982_" class="st1" d="M102.47,175.8v3.5"/>
						</g>
					</g>
				</g>
				<g id="text_2">
					<g class="st2">
						<path d="M98.47,183.37c0.3,0.29,0.46,0.61,0.5,0.98H98.4c-0.06-0.28-0.19-0.5-0.38-0.66s-0.45-0.24-0.8-0.24
							c-0.42,0-0.75,0.15-1.01,0.45c-0.26,0.3-0.38,0.75-0.38,1.37c0,0.5,0.12,0.91,0.35,1.23c0.23,0.31,0.58,0.47,1.03,0.47
							c0.42,0,0.74-0.17,0.96-0.5c0.12-0.17,0.2-0.4,0.26-0.69H99c-0.05,0.45-0.22,0.83-0.5,1.14c-0.34,0.37-0.79,0.55-1.37,0.55
							c-0.49,0-0.91-0.15-1.25-0.45c-0.44-0.4-0.66-1.02-0.66-1.86c0-0.63,0.17-1.16,0.5-1.56c0.36-0.44,0.85-0.66,1.49-0.66
							C97.75,182.94,98.17,183.08,98.47,183.37z"/>
						<path d="M99.7,183.05h0.53v4.3H99.7V183.05z"/>
						<path d="M102.7,185.46c0.12-0.02,0.2-0.07,0.24-0.15c0.02-0.05,0.04-0.12,0.04-0.2c0-0.18-0.06-0.31-0.19-0.39
							c-0.13-0.08-0.31-0.12-0.55-0.12c-0.27,0-0.47,0.07-0.58,0.22c-0.06,0.08-0.11,0.21-0.13,0.37h-0.49
							c0.01-0.39,0.14-0.66,0.38-0.81c0.24-0.15,0.52-0.23,0.84-0.23c0.37,0,0.67,0.07,0.9,0.21c0.23,0.14,0.34,0.36,0.34,0.66v1.81
							c0,0.05,0.01,0.1,0.03,0.13s0.07,0.05,0.14,0.05c0.02,0,0.05,0,0.08,0c0.03,0,0.06-0.01,0.09-0.01v0.39
							c-0.08,0.02-0.14,0.04-0.19,0.04s-0.1,0.01-0.18,0.01c-0.18,0-0.31-0.06-0.4-0.19c-0.04-0.07-0.07-0.17-0.09-0.29
							c-0.11,0.14-0.26,0.26-0.46,0.37s-0.42,0.16-0.67,0.16c-0.29,0-0.53-0.09-0.71-0.26s-0.28-0.4-0.28-0.66
							c0-0.29,0.09-0.52,0.27-0.68s0.42-0.26,0.71-0.3L102.7,185.46z M101.59,186.88c0.11,0.09,0.24,0.13,0.4,0.13
							c0.19,0,0.37-0.04,0.54-0.13c0.29-0.14,0.44-0.38,0.44-0.7v-0.42c-0.06,0.04-0.15,0.08-0.25,0.1c-0.1,0.03-0.2,0.05-0.3,0.06
							l-0.32,0.04c-0.19,0.03-0.33,0.07-0.43,0.12c-0.16,0.09-0.24,0.24-0.24,0.44C101.42,186.68,101.48,186.8,101.59,186.88z"/>
						<path d="M104.67,186.37c0.02,0.18,0.06,0.31,0.13,0.4c0.14,0.17,0.37,0.25,0.71,0.25c0.2,0,0.37-0.04,0.53-0.13
							c0.15-0.08,0.23-0.22,0.23-0.39c0-0.13-0.06-0.24-0.18-0.31c-0.08-0.04-0.23-0.09-0.46-0.15l-0.43-0.11
							c-0.27-0.07-0.47-0.14-0.6-0.22c-0.23-0.14-0.35-0.34-0.35-0.59c0-0.3,0.11-0.54,0.33-0.72s0.51-0.28,0.87-0.28
							c0.48,0,0.82,0.14,1.04,0.42c0.13,0.18,0.2,0.37,0.19,0.57h-0.5c-0.01-0.12-0.05-0.23-0.13-0.32
							c-0.12-0.14-0.34-0.21-0.65-0.21c-0.2,0-0.36,0.04-0.46,0.11c-0.1,0.08-0.16,0.18-0.16,0.3c0,0.14,0.07,0.25,0.21,0.33
							c0.08,0.05,0.2,0.09,0.35,0.13l0.36,0.08c0.39,0.09,0.64,0.18,0.78,0.27c0.21,0.13,0.31,0.35,0.31,0.64
							c0,0.28-0.11,0.52-0.32,0.72c-0.21,0.2-0.54,0.3-0.98,0.3c-0.47,0-0.81-0.11-1-0.32c-0.2-0.21-0.3-0.47-0.32-0.79H104.67z"/>
						<path d="M107.67,186.37c0.02,0.18,0.06,0.31,0.13,0.4c0.14,0.17,0.37,0.25,0.71,0.25c0.2,0,0.37-0.04,0.53-0.13
							c0.15-0.08,0.23-0.22,0.23-0.39c0-0.13-0.06-0.24-0.18-0.31c-0.08-0.04-0.23-0.09-0.46-0.15l-0.43-0.11
							c-0.27-0.07-0.47-0.14-0.6-0.22c-0.23-0.14-0.35-0.34-0.35-0.59c0-0.3,0.11-0.54,0.33-0.72s0.51-0.28,0.87-0.28
							c0.48,0,0.82,0.14,1.04,0.42c0.13,0.18,0.2,0.37,0.19,0.57h-0.5c-0.01-0.12-0.05-0.23-0.13-0.32
							c-0.12-0.14-0.34-0.21-0.65-0.21c-0.2,0-0.36,0.04-0.46,0.11c-0.1,0.08-0.16,0.18-0.16,0.3c0,0.14,0.07,0.25,0.21,0.33
							c0.08,0.05,0.2,0.09,0.35,0.13l0.36,0.08c0.39,0.09,0.64,0.18,0.78,0.27c0.21,0.13,0.31,0.35,0.31,0.64
							c0,0.28-0.11,0.52-0.32,0.72c-0.21,0.2-0.54,0.3-0.98,0.3c-0.47,0-0.81-0.11-1-0.32c-0.2-0.21-0.3-0.47-0.32-0.79H107.67z"/>
					</g>
				</g>
			</g>
			<g id="xtick_3">
				<g id="line2d_3">
					<g>
						<g>
							<path id="ma28e98f081_00000062166863378573703440000001581941076093702792_" class="st1" d="M138.07,175.8v3.5"/>
						</g>
					</g>
				</g>
				<g id="text_3">
					<g class="st2">
						<path d="M134.4,183.67c0.29,0.38,0.43,0.87,0.43,1.46c0,0.64-0.16,1.18-0.49,1.6c-0.38,0.5-0.93,0.75-1.64,0.75
							c-0.66,0-1.18-0.22-1.56-0.66c-0.34-0.42-0.51-0.96-0.51-1.6c0-0.58,0.14-1.08,0.43-1.49c0.37-0.53,0.92-0.8,1.65-0.8
							C133.47,182.94,134.03,183.18,134.4,183.67z M133.89,186.41c0.23-0.37,0.34-0.79,0.34-1.27c0-0.51-0.13-0.91-0.4-1.22
							c-0.26-0.31-0.63-0.46-1.09-0.46c-0.45,0-0.81,0.15-1.09,0.46s-0.42,0.76-0.42,1.35c0,0.48,0.12,0.88,0.36,1.21
							s0.63,0.49,1.17,0.49C133.28,186.97,133.66,186.78,133.89,186.41z"/>
						<path d="M135.47,184.22h0.5v0.54c0.04-0.11,0.14-0.23,0.3-0.38s0.34-0.23,0.55-0.23c0.01,0,0.03,0,0.05,0s0.06,0.01,0.12,0.01
							v0.56c-0.03-0.01-0.06-0.01-0.09-0.01s-0.06,0-0.09,0c-0.27,0-0.47,0.09-0.61,0.26s-0.21,0.37-0.21,0.59v1.8h-0.53V184.22z"/>
						<path d="M139.17,184.32c0.09,0.06,0.2,0.16,0.32,0.31v-1.58H140v4.32h-0.47v-0.44c-0.12,0.19-0.27,0.33-0.44,0.42
							c-0.17,0.09-0.36,0.13-0.57,0.13c-0.35,0-0.65-0.15-0.9-0.44c-0.25-0.29-0.38-0.68-0.38-1.17c0-0.46,0.12-0.85,0.35-1.19
							c0.23-0.33,0.56-0.5,1-0.5C138.81,184.16,139.01,184.22,139.17,184.32z M138,186.67c0.14,0.23,0.37,0.34,0.68,0.34
							c0.24,0,0.44-0.1,0.6-0.32c0.16-0.21,0.23-0.51,0.23-0.9c0-0.4-0.08-0.69-0.24-0.88c-0.16-0.19-0.36-0.29-0.6-0.29
							c-0.26,0-0.48,0.1-0.64,0.3c-0.16,0.2-0.25,0.5-0.25,0.9C137.78,186.16,137.85,186.44,138,186.67z"/>
						<path d="M142.72,184.31c0.21,0.1,0.37,0.24,0.47,0.41c0.1,0.16,0.17,0.34,0.21,0.55c0.03,0.14,0.05,0.38,0.05,0.69h-2.28
							c0.01,0.32,0.08,0.58,0.22,0.77c0.14,0.19,0.36,0.29,0.65,0.29c0.27,0,0.49-0.09,0.65-0.27c0.09-0.11,0.16-0.23,0.19-0.37
							h0.52c-0.01,0.12-0.06,0.24-0.14,0.38c-0.08,0.14-0.16,0.26-0.26,0.35c-0.16,0.16-0.36,0.26-0.59,0.32
							c-0.13,0.03-0.27,0.05-0.43,0.05c-0.39,0-0.72-0.14-0.99-0.43c-0.27-0.29-0.4-0.68-0.4-1.19c0-0.5,0.14-0.91,0.41-1.23
							c0.27-0.31,0.63-0.47,1.07-0.47C142.3,184.15,142.52,184.2,142.72,184.31z M142.91,185.54c-0.02-0.23-0.07-0.41-0.15-0.55
							c-0.14-0.25-0.38-0.38-0.72-0.38c-0.24,0-0.44,0.09-0.6,0.26c-0.16,0.18-0.25,0.4-0.26,0.67H142.91z"/>
						<path d="M144.14,184.22h0.5v0.54c0.04-0.11,0.14-0.23,0.3-0.38s0.34-0.23,0.55-0.23c0.01,0,0.03,0,0.05,0s0.06,0.01,0.12,0.01
							v0.56c-0.03-0.01-0.06-0.01-0.09-0.01s-0.06,0-0.09,0c-0.27,0-0.47,0.09-0.61,0.26s-0.21,0.37-0.21,0.59v1.8h-0.53V184.22z"/>
					</g>
				</g>
			</g>
			<g id="xtick_4">
				<g id="line2d_4">
					<g>
						<g>
							<path id="ma28e98f081_00000014627881723909728370000010833880683708813733_" class="st1" d="M173.66,175.8v3.5"/>
						</g>
					</g>
				</g>
				<g id="text_4">
					<g class="st2">
						<path d="M165.34,183.05h2.99v0.53h-2.4v1.31h2.11v0.51h-2.11v1.96h-0.58V183.05z"/>
						<path d="M170.56,185.46c0.12-0.02,0.2-0.07,0.24-0.15c0.02-0.05,0.04-0.12,0.04-0.2c0-0.18-0.06-0.31-0.19-0.39
							c-0.13-0.08-0.31-0.12-0.55-0.12c-0.27,0-0.47,0.07-0.58,0.22c-0.06,0.08-0.11,0.21-0.13,0.37h-0.49
							c0.01-0.39,0.14-0.66,0.38-0.81c0.24-0.15,0.52-0.23,0.84-0.23c0.37,0,0.67,0.07,0.9,0.21c0.23,0.14,0.34,0.36,0.34,0.66v1.81
							c0,0.05,0.01,0.1,0.03,0.13s0.07,0.05,0.14,0.05c0.02,0,0.05,0,0.08,0c0.03,0,0.06-0.01,0.09-0.01v0.39
							c-0.08,0.02-0.14,0.04-0.19,0.04s-0.1,0.01-0.18,0.01c-0.18,0-0.31-0.06-0.4-0.19c-0.04-0.07-0.07-0.17-0.09-0.29
							c-0.11,0.14-0.26,0.26-0.46,0.37s-0.42,0.16-0.67,0.16c-0.29,0-0.53-0.09-0.71-0.26s-0.28-0.4-0.28-0.66
							c0-0.29,0.09-0.52,0.27-0.68s0.42-0.26,0.71-0.3L170.56,185.46z M169.45,186.88c0.11,0.09,0.24,0.13,0.4,0.13
							c0.19,0,0.37-0.04,0.54-0.13c0.29-0.14,0.44-0.38,0.44-0.7v-0.42c-0.06,0.04-0.15,0.08-0.25,0.1c-0.1,0.03-0.2,0.05-0.3,0.06
							l-0.32,0.04c-0.19,0.03-0.33,0.07-0.43,0.12c-0.16,0.09-0.24,0.24-0.24,0.44C169.29,186.68,169.34,186.8,169.45,186.88z"/>
						<path d="M172.22,184.22h0.52v0.45c0.12-0.15,0.24-0.27,0.34-0.34c0.17-0.12,0.37-0.18,0.59-0.18c0.25,0,0.45,0.06,0.6,0.18
							c0.09,0.07,0.16,0.17,0.23,0.31c0.12-0.17,0.25-0.29,0.41-0.37s0.34-0.12,0.53-0.12c0.42,0,0.71,0.15,0.86,0.46
							c0.08,0.16,0.12,0.38,0.12,0.66v2.09h-0.55v-2.18c0-0.21-0.05-0.35-0.16-0.43s-0.23-0.12-0.38-0.12
							c-0.21,0-0.39,0.07-0.54,0.21s-0.22,0.37-0.22,0.69v1.83h-0.54v-2.05c0-0.21-0.03-0.37-0.08-0.47
							c-0.08-0.15-0.23-0.22-0.45-0.22c-0.2,0-0.38,0.08-0.54,0.23s-0.24,0.43-0.24,0.84v1.66h-0.53V184.22z"/>
						<path d="M177.22,183.05h0.54v0.6h-0.54V183.05z M177.22,184.24h0.54v3.12h-0.54V184.24z"/>
						<path d="M178.57,183.05h0.53v4.3h-0.53V183.05z"/>
						<path d="M181.85,184.22h0.58c-0.07,0.2-0.24,0.66-0.5,1.38c-0.19,0.54-0.35,0.98-0.48,1.32c-0.3,0.8-0.52,1.29-0.64,1.46
							s-0.34,0.26-0.64,0.26c-0.07,0-0.13,0-0.17-0.01s-0.09-0.02-0.15-0.03v-0.48c0.09,0.03,0.16,0.04,0.2,0.05
							s0.08,0.01,0.11,0.01c0.1,0,0.17-0.02,0.21-0.05s0.08-0.07,0.12-0.12c0.01-0.02,0.04-0.09,0.1-0.24
							c0.06-0.14,0.1-0.25,0.13-0.32l-1.16-3.23h0.6l0.84,2.56L181.85,184.22z"/>
					</g>
				</g>
			</g>
			<g id="xtick_5">
				<g id="line2d_5">
					<g>
						<g>
							<path id="ma28e98f081_00000012463192947207924780000003603216325935971201_" class="st1" d="M209.26,175.8v3.5"/>
						</g>
					</g>
				</g>
				<g id="text_5">
					<g class="st2">
						<path d="M203.75,183.18c0.42,0.22,0.68,0.62,0.77,1.18h-0.58c-0.07-0.31-0.21-0.54-0.43-0.69c-0.22-0.14-0.49-0.21-0.82-0.21
							c-0.39,0-0.72,0.15-0.99,0.45s-0.4,0.74-0.4,1.34c0,0.51,0.11,0.93,0.33,1.25c0.22,0.32,0.58,0.48,1.08,0.48
							c0.38,0,0.7-0.11,0.95-0.34c0.25-0.23,0.38-0.59,0.38-1.09h-1.35v-0.48h1.89v2.3h-0.38l-0.14-0.55
							c-0.19,0.22-0.37,0.37-0.52,0.45c-0.25,0.14-0.57,0.22-0.96,0.22c-0.5,0-0.93-0.17-1.29-0.5c-0.39-0.41-0.59-0.98-0.59-1.71
							c0-0.72,0.19-1.29,0.58-1.72c0.37-0.41,0.84-0.61,1.42-0.61C203.11,182.94,203.46,183.02,203.75,183.18z"/>
						<path d="M207.42,184.31c0.21,0.1,0.37,0.24,0.47,0.41c0.1,0.16,0.17,0.34,0.21,0.55c0.03,0.14,0.05,0.38,0.05,0.69h-2.28
							c0.01,0.32,0.08,0.58,0.22,0.77c0.14,0.19,0.36,0.29,0.65,0.29c0.27,0,0.49-0.09,0.65-0.27c0.09-0.11,0.16-0.23,0.19-0.37
							h0.52c-0.01,0.12-0.06,0.24-0.14,0.38c-0.08,0.14-0.16,0.26-0.26,0.35c-0.16,0.16-0.36,0.26-0.59,0.32
							c-0.13,0.03-0.27,0.05-0.43,0.05c-0.39,0-0.72-0.14-0.99-0.43c-0.27-0.29-0.41-0.68-0.41-1.19c0-0.5,0.14-0.91,0.41-1.23
							c0.27-0.31,0.63-0.47,1.07-0.47C206.99,184.15,207.21,184.2,207.42,184.31z M207.6,185.54c-0.02-0.23-0.07-0.41-0.15-0.55
							c-0.14-0.25-0.38-0.38-0.72-0.38c-0.24,0-0.44,0.09-0.6,0.26c-0.16,0.18-0.25,0.4-0.26,0.67H207.6z"/>
						<path d="M208.81,184.22h0.5v0.45c0.15-0.18,0.31-0.32,0.47-0.4s0.35-0.12,0.55-0.12c0.45,0,0.75,0.16,0.9,0.47
							c0.09,0.17,0.13,0.41,0.13,0.73v2.01h-0.54v-1.98c0-0.19-0.03-0.35-0.08-0.46c-0.09-0.2-0.26-0.29-0.51-0.29
							c-0.12,0-0.23,0.01-0.31,0.04c-0.14,0.04-0.27,0.13-0.38,0.26c-0.09,0.1-0.14,0.21-0.17,0.32c-0.03,0.11-0.04,0.27-0.04,0.47
							v1.64h-0.53V184.22z"/>
						<path d="M212.68,184.22v2.08c0,0.16,0.03,0.29,0.07,0.39c0.09,0.19,0.26,0.28,0.51,0.28c0.36,0,0.6-0.16,0.73-0.49
							c0.07-0.18,0.11-0.42,0.11-0.72v-1.54h0.53v3.14h-0.5l0.01-0.46c-0.07,0.12-0.15,0.22-0.25,0.3c-0.2,0.16-0.44,0.25-0.72,0.25
							c-0.44,0-0.74-0.15-0.9-0.45c-0.09-0.16-0.13-0.37-0.13-0.64v-2.13H212.68z"/>
						<path d="M215.8,186.37c0.02,0.18,0.06,0.31,0.13,0.4c0.14,0.17,0.37,0.25,0.71,0.25c0.2,0,0.37-0.04,0.53-0.13
							c0.15-0.08,0.23-0.22,0.23-0.39c0-0.13-0.06-0.24-0.18-0.31c-0.08-0.04-0.23-0.09-0.46-0.15l-0.43-0.11
							c-0.27-0.07-0.47-0.14-0.6-0.22c-0.23-0.14-0.35-0.34-0.35-0.59c0-0.3,0.11-0.54,0.33-0.72s0.51-0.28,0.88-0.28
							c0.48,0,0.82,0.14,1.04,0.42c0.13,0.18,0.2,0.37,0.19,0.57h-0.5c-0.01-0.12-0.05-0.23-0.13-0.32
							c-0.12-0.14-0.34-0.21-0.64-0.21c-0.2,0-0.36,0.04-0.46,0.11c-0.1,0.08-0.16,0.18-0.16,0.3c0,0.14,0.07,0.25,0.21,0.33
							c0.08,0.05,0.2,0.09,0.35,0.13l0.36,0.08c0.39,0.09,0.64,0.18,0.78,0.27c0.21,0.13,0.31,0.35,0.31,0.64
							c0,0.28-0.11,0.52-0.32,0.72c-0.21,0.2-0.54,0.3-0.98,0.3c-0.47,0-0.81-0.11-1-0.32c-0.2-0.21-0.3-0.47-0.32-0.79H215.8z"/>
					</g>
				</g>
			</g>
			<g id="xtick_6">
				<g id="line2d_6">
					<g>
						<g>
							<path id="ma28e98f081_00000005228680300340394540000007090766060426682268_" class="st1" d="M244.86,175.8v3.5"/>
						</g>
					</g>
				</g>
				<g id="text_6">
					<g class="st2">
						<path d="M235.03,185.97c0.01,0.24,0.07,0.44,0.17,0.59c0.19,0.29,0.51,0.43,0.99,0.43c0.21,0,0.4-0.03,0.58-0.09
							c0.33-0.12,0.5-0.34,0.5-0.65c0-0.23-0.07-0.4-0.21-0.5c-0.14-0.1-0.37-0.18-0.68-0.25l-0.56-0.13
							c-0.37-0.09-0.63-0.18-0.78-0.28c-0.27-0.18-0.4-0.45-0.4-0.81c0-0.39,0.13-0.7,0.39-0.95c0.26-0.25,0.63-0.37,1.11-0.37
							c0.44,0,0.81,0.11,1.12,0.33c0.31,0.22,0.46,0.57,0.46,1.04h-0.55c-0.03-0.23-0.09-0.41-0.18-0.53
							c-0.17-0.22-0.46-0.34-0.87-0.34c-0.33,0-0.57,0.07-0.71,0.22c-0.14,0.14-0.22,0.31-0.22,0.5c0,0.21,0.08,0.37,0.25,0.46
							c0.11,0.06,0.36,0.14,0.76,0.23l0.58,0.14c0.28,0.07,0.5,0.16,0.65,0.27c0.26,0.2,0.4,0.49,0.4,0.88
							c0,0.48-0.17,0.82-0.51,1.02c-0.34,0.21-0.73,0.31-1.18,0.31c-0.52,0-0.93-0.14-1.23-0.41c-0.29-0.27-0.44-0.64-0.43-1.1
							H235.03z"/>
						<path d="M238.53,184.24h0.52v0.42c0.11-0.14,0.22-0.25,0.35-0.33c0.18-0.12,0.39-0.18,0.63-0.18c0.36,0,0.66,0.14,0.91,0.41
							c0.25,0.27,0.37,0.66,0.37,1.17c0,0.68-0.18,1.17-0.54,1.46c-0.23,0.19-0.49,0.28-0.79,0.28c-0.24,0-0.44-0.05-0.6-0.16
							c-0.09-0.06-0.2-0.16-0.31-0.3v1.6h-0.53V184.24z M240.52,186.69c0.16-0.21,0.25-0.51,0.25-0.92c0-0.25-0.04-0.46-0.11-0.64
							c-0.14-0.35-0.39-0.52-0.75-0.52c-0.37,0-0.62,0.18-0.75,0.55c-0.07,0.2-0.11,0.44-0.11,0.74c0,0.24,0.04,0.45,0.11,0.62
							c0.14,0.32,0.39,0.49,0.75,0.49C240.15,187,240.35,186.9,240.52,186.69z"/>
						<path d="M243.85,184.31c0.21,0.1,0.37,0.24,0.47,0.41c0.11,0.16,0.17,0.34,0.21,0.55c0.03,0.14,0.05,0.38,0.05,0.69h-2.28
							c0.01,0.32,0.08,0.58,0.22,0.77c0.14,0.19,0.36,0.29,0.65,0.29c0.27,0,0.49-0.09,0.65-0.27c0.09-0.11,0.16-0.23,0.19-0.37
							h0.52c-0.01,0.12-0.06,0.24-0.14,0.38c-0.08,0.14-0.16,0.26-0.26,0.35c-0.16,0.16-0.36,0.26-0.59,0.32
							c-0.13,0.03-0.27,0.05-0.43,0.05c-0.39,0-0.72-0.14-0.99-0.43c-0.27-0.29-0.4-0.68-0.4-1.19c0-0.5,0.14-0.91,0.41-1.23
							s0.63-0.47,1.07-0.47C243.43,184.15,243.64,184.2,243.85,184.31z M244.04,185.54c-0.02-0.23-0.07-0.41-0.15-0.55
							c-0.14-0.25-0.38-0.38-0.72-0.38c-0.24,0-0.44,0.09-0.6,0.26c-0.16,0.18-0.25,0.4-0.26,0.67H244.04z"/>
						<path d="M247.32,184.39c0.22,0.17,0.36,0.47,0.4,0.89h-0.51c-0.03-0.19-0.1-0.35-0.21-0.48s-0.29-0.19-0.54-0.19
							c-0.34,0-0.58,0.16-0.72,0.49c-0.09,0.21-0.14,0.48-0.14,0.79c0,0.31,0.07,0.58,0.2,0.79c0.13,0.21,0.34,0.32,0.63,0.32
							c0.22,0,0.39-0.07,0.52-0.2c0.13-0.13,0.22-0.32,0.27-0.55h0.51c-0.06,0.42-0.21,0.72-0.44,0.91s-0.53,0.29-0.9,0.29
							c-0.41,0-0.74-0.15-0.98-0.45c-0.24-0.3-0.37-0.67-0.37-1.12c0-0.55,0.13-0.98,0.4-1.29s0.61-0.46,1.02-0.46
							C246.81,184.13,247.1,184.22,247.32,184.39z"/>
						<path d="M248.25,183.05h0.54v0.6h-0.54V183.05z M248.25,184.24h0.54v3.12h-0.54V184.24z"/>
						<path d="M251.52,184.31c0.21,0.1,0.37,0.24,0.47,0.41c0.11,0.16,0.17,0.34,0.21,0.55c0.03,0.14,0.05,0.38,0.05,0.69h-2.28
							c0.01,0.32,0.08,0.58,0.22,0.77c0.14,0.19,0.36,0.29,0.65,0.29c0.27,0,0.49-0.09,0.65-0.27c0.09-0.11,0.16-0.23,0.19-0.37
							h0.52c-0.01,0.12-0.06,0.24-0.14,0.38c-0.08,0.14-0.16,0.26-0.26,0.35c-0.16,0.16-0.36,0.26-0.59,0.32
							c-0.13,0.03-0.27,0.05-0.43,0.05c-0.39,0-0.72-0.14-0.99-0.43c-0.27-0.29-0.4-0.68-0.4-1.19c0-0.5,0.14-0.91,0.41-1.23
							s0.63-0.47,1.07-0.47C251.1,184.15,251.31,184.2,251.52,184.31z M251.71,185.54c-0.02-0.23-0.07-0.41-0.15-0.55
							c-0.14-0.25-0.38-0.38-0.72-0.38c-0.24,0-0.44,0.09-0.6,0.26c-0.16,0.18-0.25,0.4-0.26,0.67H251.71z"/>
						<path d="M253.23,186.37c0.02,0.18,0.06,0.31,0.13,0.4c0.13,0.17,0.37,0.25,0.71,0.25c0.2,0,0.38-0.04,0.53-0.13
							c0.15-0.08,0.23-0.22,0.23-0.39c0-0.13-0.06-0.24-0.18-0.31c-0.08-0.04-0.23-0.09-0.46-0.15l-0.43-0.11
							c-0.27-0.07-0.47-0.14-0.6-0.22c-0.23-0.14-0.34-0.34-0.34-0.59c0-0.3,0.11-0.54,0.33-0.72s0.51-0.28,0.87-0.28
							c0.48,0,0.82,0.14,1.04,0.42c0.13,0.18,0.2,0.37,0.19,0.57h-0.5c-0.01-0.12-0.05-0.23-0.13-0.32
							c-0.12-0.14-0.34-0.21-0.65-0.21c-0.2,0-0.36,0.04-0.46,0.11c-0.11,0.08-0.16,0.18-0.16,0.3c0,0.14,0.07,0.25,0.21,0.33
							c0.08,0.05,0.2,0.09,0.35,0.13l0.36,0.08c0.39,0.09,0.64,0.18,0.78,0.27c0.21,0.13,0.31,0.35,0.31,0.64
							c0,0.28-0.11,0.52-0.32,0.72s-0.54,0.3-0.98,0.3c-0.47,0-0.81-0.11-1-0.32c-0.2-0.21-0.3-0.47-0.32-0.79H253.23z"/>
					</g>
				</g>
			</g>
		</g>
		<g id="matplotlib.axis_2">
			<g id="ytick_1">
				<g id="line2d_7">
					<g>
						<defs>
							<rect id="SVGID_1_" x="44.27" y="9.48" width="223.2" height="166.32"/>
						</defs>
						<clipPath id="SVGID_00000075856597070402485410000012101646428744505270_">
							<use xlink:href="#SVGID_1_"  style="overflow:visible;"/>
						</clipPath>
						
							<path style="clip-path:url(#SVGID_00000075856597070402485410000012101646428744505270_);fill:none;stroke:#D3D3D3;stroke-width:0.8;stroke-linecap:square;stroke-linejoin:round;stroke-opacity:0.7;" d="
							M44.27,175.8h223.2"/>
					</g>
				</g>
				<g id="line2d_8">
					<g>
						<g>
							<path id="m23a314aad6" class="st1" d="M44.27,175.8h-3.5"/>
						</g>
					</g>
				</g>
				<g id="text_7">
					<g class="st2">
						<path d="M36.73,174.55c0.19,0.35,0.28,0.82,0.28,1.42c0,0.57-0.08,1.04-0.25,1.42c-0.25,0.54-0.65,0.8-1.21,0.8
							c-0.5,0-0.88-0.22-1.12-0.66c-0.21-0.37-0.31-0.86-0.31-1.47c0-0.48,0.06-0.89,0.18-1.23c0.23-0.64,0.65-0.96,1.25-0.96
							C36.09,173.88,36.49,174.11,36.73,174.55z M36.2,177.35c0.16-0.24,0.24-0.69,0.24-1.35c0-0.48-0.06-0.87-0.18-1.18
							c-0.12-0.31-0.35-0.46-0.68-0.46c-0.31,0-0.54,0.15-0.68,0.44c-0.14,0.29-0.22,0.72-0.22,1.29c0,0.43,0.05,0.77,0.14,1.03
							c0.14,0.4,0.38,0.59,0.72,0.59C35.82,177.71,36.04,177.59,36.2,177.35z"/>
					</g>
				</g>
			</g>
			<g id="ytick_2">
				<g id="line2d_9">
					<g>
						<defs>
							<rect id="SVGID_00000042000119396894510130000010246186688891819151_" x="44.27" y="9.48" width="223.2" height="166.32"/>
						</defs>
						<clipPath id="SVGID_00000096769226483473768120000005661034573052632501_">
							<use xlink:href="#SVGID_00000042000119396894510130000010246186688891819151_"  style="overflow:visible;"/>
						</clipPath>
						
							<path style="clip-path:url(#SVGID_00000096769226483473768120000005661034573052632501_);fill:none;stroke:#D3D3D3;stroke-width:0.8;stroke-linecap:square;stroke-linejoin:round;stroke-opacity:0.7;" d="
							M44.27,159.17h223.2"/>
					</g>
				</g>
				<g id="line2d_10">
					<g>
						<g>
							<path id="m23a314aad6_00000150793685938670096740000014029904278862836151_" class="st1" d="M44.27,159.17h-3.5"/>
						</g>
					</g>
				</g>
				<g id="text_8">
					<g class="st2">
						<path d="M31.17,158.48v-0.4c0.38-0.04,0.65-0.1,0.8-0.19s0.26-0.29,0.34-0.62h0.42v4.18h-0.56v-2.97H31.17z"/>
						<path d="M36.73,157.92c0.19,0.35,0.28,0.82,0.28,1.42c0,0.57-0.08,1.04-0.25,1.42c-0.25,0.54-0.65,0.8-1.21,0.8
							c-0.5,0-0.88-0.22-1.12-0.66c-0.21-0.37-0.31-0.86-0.31-1.47c0-0.48,0.06-0.89,0.18-1.23c0.23-0.64,0.65-0.96,1.25-0.96
							C36.09,157.25,36.49,157.48,36.73,157.92z M36.2,160.72c0.16-0.24,0.24-0.69,0.24-1.35c0-0.48-0.06-0.87-0.18-1.18
							c-0.12-0.31-0.35-0.46-0.68-0.46c-0.31,0-0.54,0.15-0.68,0.44c-0.14,0.29-0.22,0.72-0.22,1.29c0,0.43,0.05,0.77,0.14,1.03
							c0.14,0.4,0.38,0.59,0.72,0.59C35.82,161.08,36.04,160.96,36.2,160.72z"/>
					</g>
				</g>
			</g>
			<g id="ytick_3">
				<g id="line2d_11">
					<g>
						<defs>
							<rect id="SVGID_00000015316852601680884730000009503520568170264760_" x="44.27" y="9.48" width="223.2" height="166.32"/>
						</defs>
						<clipPath id="SVGID_00000073706089882970566970000012825899444333323405_">
							<use xlink:href="#SVGID_00000015316852601680884730000009503520568170264760_"  style="overflow:visible;"/>
						</clipPath>
						
							<path style="clip-path:url(#SVGID_00000073706089882970566970000012825899444333323405_);fill:none;stroke:#D3D3D3;stroke-width:0.8;stroke-linecap:square;stroke-linejoin:round;stroke-opacity:0.7;" d="
							M44.27,142.54h223.2"/>
					</g>
				</g>
				<g id="line2d_12">
					<g>
						<g>
							<path id="m23a314aad6_00000033331072432844519980000007144516345275439512_" class="st1" d="M44.27,142.54h-3.5"/>
						</g>
					</g>
				</g>
				<g id="text_9">
					<g class="st2">
						<path d="M31,143.87c0.13-0.27,0.38-0.51,0.76-0.73l0.56-0.33c0.25-0.15,0.43-0.27,0.53-0.38c0.16-0.16,0.24-0.35,0.24-0.56
							c0-0.25-0.07-0.44-0.22-0.58s-0.34-0.22-0.59-0.22c-0.36,0-0.61,0.14-0.75,0.41c-0.07,0.15-0.12,0.35-0.12,0.61h-0.54
							c0.01-0.37,0.07-0.66,0.2-0.89c0.23-0.41,0.63-0.61,1.21-0.61c0.48,0,0.83,0.13,1.05,0.39s0.33,0.55,0.33,0.87
							c0,0.34-0.12,0.62-0.35,0.86c-0.14,0.14-0.38,0.31-0.74,0.5l-0.4,0.22c-0.19,0.11-0.34,0.21-0.45,0.3
							c-0.2,0.17-0.32,0.36-0.37,0.57h2.29v0.5h-2.88C30.8,144.45,30.87,144.14,31,143.87z"/>
						<path d="M36.73,141.29c0.19,0.35,0.28,0.82,0.28,1.42c0,0.57-0.08,1.04-0.25,1.42c-0.25,0.54-0.65,0.8-1.21,0.8
							c-0.5,0-0.88-0.22-1.12-0.66c-0.21-0.37-0.31-0.86-0.31-1.47c0-0.48,0.06-0.89,0.18-1.23c0.23-0.64,0.65-0.96,1.25-0.96
							C36.09,140.62,36.49,140.84,36.73,141.29z M36.2,144.09c0.16-0.24,0.24-0.69,0.24-1.35c0-0.48-0.06-0.87-0.18-1.18
							c-0.12-0.31-0.35-0.46-0.68-0.46c-0.31,0-0.54,0.15-0.68,0.44c-0.14,0.29-0.22,0.72-0.22,1.29c0,0.43,0.05,0.77,0.14,1.03
							c0.14,0.4,0.38,0.59,0.72,0.59C35.82,144.45,36.04,144.33,36.2,144.09z"/>
					</g>
				</g>
			</g>
			<g id="ytick_4">
				<g id="line2d_13">
					<g>
						<defs>
							<rect id="SVGID_00000003078110201197923660000000962344665747668905_" x="44.27" y="9.48" width="223.2" height="166.32"/>
						</defs>
						<clipPath id="SVGID_00000040558317113293299480000016028748359516434589_">
							<use xlink:href="#SVGID_00000003078110201197923660000000962344665747668905_"  style="overflow:visible;"/>
						</clipPath>
						
							<path style="clip-path:url(#SVGID_00000040558317113293299480000016028748359516434589_);fill:none;stroke:#D3D3D3;stroke-width:0.8;stroke-linecap:square;stroke-linejoin:round;stroke-opacity:0.7;" d="
							M44.27,125.9h223.2"/>
					</g>
				</g>
				<g id="line2d_14">
					<g>
						<g>
							<path id="m23a314aad6_00000114784337994255203660000010784226229750861485_" class="st1" d="M44.27,125.9h-3.5"/>
						</g>
					</g>
				</g>
				<g id="text_10">
					<g class="st2">
						<path d="M31.07,127.89c-0.22-0.27-0.34-0.6-0.34-0.99h0.55c0.02,0.27,0.07,0.47,0.15,0.59c0.14,0.22,0.38,0.33,0.74,0.33
							c0.28,0,0.5-0.07,0.67-0.22s0.25-0.34,0.25-0.57c0-0.29-0.09-0.49-0.27-0.61s-0.42-0.17-0.74-0.17c-0.04,0-0.07,0-0.11,0
							c-0.04,0-0.07,0-0.11,0v-0.47c0.05,0.01,0.1,0.01,0.14,0.01s0.08,0,0.12,0c0.2,0,0.36-0.03,0.49-0.09
							c0.22-0.11,0.33-0.3,0.33-0.59c0-0.21-0.07-0.37-0.22-0.48s-0.32-0.17-0.52-0.17c-0.35,0-0.59,0.12-0.73,0.35
							c-0.07,0.13-0.12,0.31-0.13,0.55h-0.52c0-0.31,0.06-0.58,0.19-0.8c0.21-0.39,0.59-0.59,1.13-0.59c0.43,0,0.76,0.1,0.99,0.29
							c0.23,0.19,0.35,0.47,0.35,0.83c0,0.26-0.07,0.47-0.21,0.63c-0.09,0.1-0.2,0.18-0.33,0.23c0.22,0.06,0.39,0.18,0.52,0.35
							c0.12,0.17,0.19,0.38,0.19,0.63c0,0.4-0.13,0.73-0.4,0.98c-0.26,0.25-0.64,0.38-1.12,0.38
							C31.65,128.3,31.29,128.16,31.07,127.89z"/>
						<path d="M36.73,124.66c0.19,0.35,0.28,0.82,0.28,1.42c0,0.57-0.08,1.04-0.25,1.42c-0.25,0.54-0.65,0.8-1.21,0.8
							c-0.5,0-0.88-0.22-1.12-0.66c-0.21-0.37-0.31-0.86-0.31-1.47c0-0.48,0.06-0.89,0.18-1.23c0.23-0.64,0.65-0.96,1.25-0.96
							C36.09,123.99,36.49,124.21,36.73,124.66z M36.2,127.45c0.16-0.24,0.24-0.69,0.24-1.35c0-0.48-0.06-0.87-0.18-1.18
							c-0.12-0.31-0.35-0.46-0.68-0.46c-0.31,0-0.54,0.15-0.68,0.44c-0.14,0.29-0.22,0.72-0.22,1.29c0,0.43,0.05,0.77,0.14,1.03
							c0.14,0.4,0.38,0.59,0.72,0.59C35.82,127.82,36.04,127.7,36.2,127.45z"/>
					</g>
				</g>
			</g>
			<g id="ytick_5">
				<g id="line2d_15">
					<g>
						<defs>
							<rect id="SVGID_00000144301119857269052730000000946812719378082433_" x="44.27" y="9.48" width="223.2" height="166.32"/>
						</defs>
						<clipPath id="SVGID_00000137810541961448828710000017808522452653121422_">
							<use xlink:href="#SVGID_00000144301119857269052730000000946812719378082433_"  style="overflow:visible;"/>
						</clipPath>
						
							<path style="clip-path:url(#SVGID_00000137810541961448828710000017808522452653121422_);fill:none;stroke:#D3D3D3;stroke-width:0.8;stroke-linecap:square;stroke-linejoin:round;stroke-opacity:0.7;" d="
							M44.27,109.27h223.2"/>
					</g>
				</g>
				<g id="line2d_16">
					<g>
						<g>
							<path id="m23a314aad6_00000095317409895229106630000003892623941224990083_" class="st1" d="M44.27,109.27h-3.5"/>
						</g>
					</g>
				</g>
				<g id="text_11">
					<g class="st2">
						<path d="M32.58,111.55v-1.03h-1.84v-0.52l1.92-2.67h0.45v2.72h0.62v0.46h-0.62v1.03H32.58z M32.58,110.07v-1.91l-1.34,1.91
							H32.58z"/>
						<path d="M36.73,108.03c0.19,0.35,0.28,0.82,0.28,1.42c0,0.57-0.08,1.04-0.25,1.42c-0.25,0.54-0.65,0.8-1.21,0.8
							c-0.5,0-0.88-0.22-1.12-0.66c-0.21-0.37-0.31-0.86-0.31-1.47c0-0.48,0.06-0.89,0.18-1.23c0.23-0.64,0.65-0.96,1.25-0.96
							C36.09,107.36,36.49,107.58,36.73,108.03z M36.2,110.82c0.16-0.24,0.24-0.69,0.24-1.35c0-0.48-0.06-0.87-0.18-1.18
							c-0.12-0.31-0.35-0.46-0.68-0.46c-0.31,0-0.54,0.15-0.68,0.44c-0.14,0.29-0.22,0.72-0.22,1.29c0,0.43,0.05,0.77,0.14,1.03
							c0.14,0.4,0.38,0.59,0.72,0.59C35.82,111.18,36.04,111.06,36.2,110.82z"/>
					</g>
				</g>
			</g>
			<g id="ytick_6">
				<g id="line2d_17">
					<g>
						<defs>
							<rect id="SVGID_00000119804739343629897400000004842858507336492977_" x="44.27" y="9.48" width="223.2" height="166.32"/>
						</defs>
						<clipPath id="SVGID_00000181087106720349148540000004816961382537731007_">
							<use xlink:href="#SVGID_00000119804739343629897400000004842858507336492977_"  style="overflow:visible;"/>
						</clipPath>
						
							<path style="clip-path:url(#SVGID_00000181087106720349148540000004816961382537731007_);fill:none;stroke:#D3D3D3;stroke-width:0.8;stroke-linecap:square;stroke-linejoin:round;stroke-opacity:0.7;" d="
							M44.27,92.64h223.2"/>
					</g>
				</g>
				<g id="line2d_18">
					<g>
						<g>
							<path id="m23a314aad6_00000166634436666749988630000005997006436721746563_" class="st1" d="M44.27,92.64h-3.5"/>
						</g>
					</g>
				</g>
				<g id="text_12">
					<g class="st2">
						<path d="M31.33,93.85c0.04,0.3,0.17,0.51,0.42,0.62c0.12,0.06,0.27,0.09,0.43,0.09c0.31,0,0.54-0.1,0.69-0.3
							s0.23-0.42,0.23-0.66c0-0.29-0.09-0.52-0.27-0.68s-0.39-0.24-0.64-0.24c-0.18,0-0.34,0.04-0.47,0.11s-0.24,0.17-0.33,0.29
							l-0.46-0.03l0.32-2.26h2.18v0.51h-1.78l-0.18,1.17c0.1-0.07,0.19-0.13,0.28-0.17c0.16-0.06,0.34-0.1,0.54-0.1
							c0.38,0,0.71,0.12,0.98,0.37s0.4,0.56,0.4,0.94c0,0.4-0.12,0.75-0.37,1.05s-0.64,0.45-1.17,0.45c-0.34,0-0.64-0.1-0.91-0.29
							c-0.26-0.19-0.41-0.49-0.44-0.89H31.33z"/>
						<path d="M36.73,91.39c0.19,0.35,0.28,0.82,0.28,1.42c0,0.57-0.08,1.04-0.25,1.42c-0.25,0.54-0.65,0.8-1.21,0.8
							c-0.5,0-0.88-0.22-1.12-0.66c-0.21-0.37-0.31-0.86-0.31-1.47c0-0.48,0.06-0.89,0.18-1.23c0.23-0.64,0.65-0.96,1.25-0.96
							C36.09,90.72,36.49,90.95,36.73,91.39z M36.2,94.19c0.16-0.24,0.24-0.69,0.24-1.35c0-0.48-0.06-0.87-0.18-1.18
							c-0.12-0.31-0.35-0.46-0.68-0.46c-0.31,0-0.54,0.15-0.68,0.44c-0.14,0.29-0.22,0.72-0.22,1.29c0,0.43,0.05,0.77,0.14,1.03
							c0.14,0.4,0.38,0.59,0.72,0.59C35.82,94.55,36.04,94.43,36.2,94.19z"/>
					</g>
				</g>
			</g>
			<g id="ytick_7">
				<g id="line2d_19">
					<g>
						<defs>
							<rect id="SVGID_00000179608492221006661130000016532721212857227402_" x="44.27" y="9.48" width="223.2" height="166.32"/>
						</defs>
						<clipPath id="SVGID_00000104708349410445959290000003712922910262259379_">
							<use xlink:href="#SVGID_00000179608492221006661130000016532721212857227402_"  style="overflow:visible;"/>
						</clipPath>
						
							<path style="clip-path:url(#SVGID_00000104708349410445959290000003712922910262259379_);fill:none;stroke:#D3D3D3;stroke-width:0.8;stroke-linecap:square;stroke-linejoin:round;stroke-opacity:0.7;" d="
							M44.27,76.01h223.2"/>
					</g>
				</g>
				<g id="line2d_20">
					<g>
						<g>
							<path id="m23a314aad6_00000071562039950550995840000015611877991172582279_" class="st1" d="M44.27,76.01h-3.5"/>
						</g>
					</g>
				</g>
				<g id="text_13">
					<g class="st2">
						<path d="M33.33,74.44c0.18,0.24,0.28,0.49,0.28,0.75h-0.52c-0.03-0.17-0.08-0.3-0.15-0.39c-0.13-0.18-0.32-0.26-0.58-0.26
							c-0.29,0-0.53,0.14-0.7,0.41c-0.17,0.27-0.27,0.66-0.29,1.17c0.12-0.18,0.27-0.31,0.46-0.4c0.17-0.08,0.36-0.12,0.56-0.12
							c0.35,0,0.66,0.11,0.92,0.34s0.39,0.56,0.39,1c0,0.38-0.12,0.72-0.37,1.01s-0.6,0.44-1.06,0.44c-0.39,0-0.73-0.15-1.02-0.45
							s-0.43-0.8-0.43-1.5c0-0.52,0.06-0.96,0.19-1.33c0.24-0.7,0.69-1.04,1.34-1.04C32.82,74.07,33.14,74.2,33.33,74.44z
							 M32.93,77.65c0.14-0.19,0.21-0.41,0.21-0.66c0-0.21-0.06-0.42-0.18-0.61s-0.35-0.29-0.67-0.29c-0.23,0-0.43,0.08-0.6,0.23
							s-0.26,0.38-0.26,0.68c0,0.27,0.08,0.49,0.23,0.67s0.37,0.27,0.65,0.27C32.59,77.93,32.79,77.83,32.93,77.65z"/>
						<path d="M36.73,74.76c0.19,0.35,0.28,0.82,0.28,1.42c0,0.57-0.08,1.04-0.25,1.42c-0.25,0.54-0.65,0.8-1.21,0.8
							c-0.5,0-0.88-0.22-1.12-0.66c-0.21-0.37-0.31-0.86-0.31-1.47c0-0.48,0.06-0.89,0.18-1.23c0.23-0.64,0.65-0.96,1.25-0.96
							C36.09,74.09,36.49,74.32,36.73,74.76z M36.2,77.56c0.16-0.24,0.24-0.69,0.24-1.35c0-0.48-0.06-0.87-0.18-1.18
							c-0.12-0.31-0.35-0.46-0.68-0.46c-0.31,0-0.54,0.15-0.68,0.44c-0.14,0.29-0.22,0.72-0.22,1.29c0,0.43,0.05,0.77,0.14,1.03
							c0.14,0.4,0.38,0.59,0.72,0.59C35.82,77.92,36.04,77.8,36.2,77.56z"/>
					</g>
				</g>
			</g>
			<g id="ytick_8">
				<g id="line2d_21">
					<g>
						<defs>
							<rect id="SVGID_00000081632274947284578500000014204053710040874420_" x="44.27" y="9.48" width="223.2" height="166.32"/>
						</defs>
						<clipPath id="SVGID_00000051358427255353324590000012224702526280201607_">
							<use xlink:href="#SVGID_00000081632274947284578500000014204053710040874420_"  style="overflow:visible;"/>
						</clipPath>
						
							<path style="clip-path:url(#SVGID_00000051358427255353324590000012224702526280201607_);fill:none;stroke:#D3D3D3;stroke-width:0.8;stroke-linecap:square;stroke-linejoin:round;stroke-opacity:0.7;" d="
							M44.27,59.38h223.2"/>
					</g>
				</g>
				<g id="line2d_22">
					<g>
						<g>
							<path id="m23a314aad6_00000100374926062890185260000017019639667857602468_" class="st1" d="M44.27,59.38h-3.5"/>
						</g>
					</g>
				</g>
				<g id="text_14">
					<g class="st2">
						<path d="M33.73,57.53v0.46c-0.13,0.13-0.31,0.36-0.54,0.68s-0.42,0.67-0.59,1.05c-0.17,0.37-0.3,0.7-0.39,1
							c-0.06,0.19-0.13,0.5-0.22,0.93h-0.58c0.13-0.8,0.43-1.6,0.88-2.39c0.27-0.46,0.55-0.87,0.84-1.2h-2.32v-0.53H33.73z"/>
						<path d="M36.73,58.13c0.19,0.35,0.28,0.82,0.28,1.42c0,0.57-0.08,1.04-0.25,1.42c-0.25,0.54-0.65,0.8-1.21,0.8
							c-0.5,0-0.88-0.22-1.12-0.66c-0.21-0.37-0.31-0.86-0.31-1.47c0-0.48,0.06-0.89,0.18-1.23c0.23-0.64,0.65-0.96,1.25-0.96
							C36.09,57.46,36.49,57.68,36.73,58.13z M36.2,60.93c0.16-0.24,0.24-0.69,0.24-1.35c0-0.48-0.06-0.87-0.18-1.18
							c-0.12-0.31-0.35-0.46-0.68-0.46c-0.31,0-0.54,0.15-0.68,0.44c-0.14,0.29-0.22,0.72-0.22,1.29c0,0.43,0.05,0.77,0.14,1.03
							c0.14,0.4,0.38,0.59,0.72,0.59C35.82,61.29,36.04,61.17,36.2,60.93z"/>
					</g>
				</g>
			</g>
			<g id="ytick_9">
				<g id="line2d_23">
					<g>
						<defs>
							<rect id="SVGID_00000042720461474735040380000011863755655832058764_" x="44.27" y="9.48" width="223.2" height="166.32"/>
						</defs>
						<clipPath id="SVGID_00000121998702807372994340000015469475011826243514_">
							<use xlink:href="#SVGID_00000042720461474735040380000011863755655832058764_"  style="overflow:visible;"/>
						</clipPath>
						
							<path style="clip-path:url(#SVGID_00000121998702807372994340000015469475011826243514_);fill:none;stroke:#D3D3D3;stroke-width:0.8;stroke-linecap:square;stroke-linejoin:round;stroke-opacity:0.7;" d="
							M44.27,42.74h223.2"/>
					</g>
				</g>
				<g id="line2d_24">
					<g>
						<g>
							<path id="m23a314aad6_00000168086745123197962110000015551267124349792183_" class="st1" d="M44.27,42.74h-3.5"/>
						</g>
					</g>
				</g>
				<g id="text_15">
					<g class="st2">
						<path d="M31.16,42.57c-0.15-0.16-0.23-0.36-0.23-0.61c0-0.31,0.11-0.58,0.34-0.81c0.23-0.22,0.55-0.34,0.96-0.34
							c0.4,0,0.72,0.11,0.95,0.32c0.23,0.21,0.34,0.46,0.34,0.74c0,0.26-0.07,0.47-0.2,0.64c-0.07,0.09-0.19,0.18-0.35,0.27
							c0.17,0.08,0.31,0.17,0.41,0.28c0.19,0.2,0.28,0.45,0.28,0.76c0,0.37-0.12,0.68-0.37,0.94c-0.25,0.26-0.6,0.39-1.05,0.39
							c-0.41,0-0.75-0.11-1.04-0.33c-0.28-0.22-0.42-0.54-0.42-0.96c0-0.25,0.06-0.46,0.18-0.64s0.3-0.32,0.54-0.42
							C31.36,42.73,31.25,42.65,31.16,42.57z M32.86,44.46c0.16-0.13,0.24-0.33,0.24-0.59c0-0.27-0.08-0.48-0.25-0.62
							s-0.38-0.21-0.64-0.21c-0.25,0-0.46,0.07-0.62,0.22c-0.16,0.14-0.24,0.34-0.24,0.6c0,0.22,0.07,0.41,0.22,0.57
							c0.15,0.16,0.37,0.24,0.68,0.24C32.5,44.66,32.7,44.6,32.86,44.46z M32.77,42.39c0.13-0.13,0.2-0.29,0.2-0.47
							c0-0.16-0.06-0.3-0.19-0.43c-0.12-0.13-0.31-0.2-0.57-0.2c-0.25,0-0.44,0.07-0.55,0.2c-0.11,0.13-0.17,0.29-0.17,0.46
							c0,0.2,0.07,0.35,0.22,0.46c0.15,0.11,0.32,0.17,0.52,0.17C32.45,42.59,32.64,42.52,32.77,42.39z"/>
						<path d="M36.73,41.5c0.19,0.35,0.28,0.82,0.28,1.42c0,0.57-0.08,1.04-0.25,1.42c-0.25,0.54-0.65,0.8-1.21,0.8
							c-0.5,0-0.88-0.22-1.12-0.66c-0.21-0.37-0.31-0.86-0.31-1.47c0-0.48,0.06-0.89,0.18-1.23c0.23-0.64,0.65-0.96,1.25-0.96
							C36.09,40.83,36.49,41.05,36.73,41.5z M36.2,44.29c0.16-0.24,0.24-0.69,0.24-1.35c0-0.48-0.06-0.87-0.18-1.18
							c-0.12-0.31-0.35-0.46-0.68-0.46c-0.31,0-0.54,0.15-0.68,0.44c-0.14,0.29-0.22,0.72-0.22,1.29c0,0.43,0.05,0.77,0.14,1.03
							c0.14,0.4,0.38,0.59,0.72,0.59C35.82,44.66,36.04,44.54,36.2,44.29z"/>
					</g>
				</g>
			</g>
			<g id="ytick_10">
				<g id="line2d_25">
					<g>
						<defs>
							<rect id="SVGID_00000078003987438081260180000003923360659433042054_" x="44.27" y="9.48" width="223.2" height="166.32"/>
						</defs>
						<clipPath id="SVGID_00000075868218952402636610000016423329756941572257_">
							<use xlink:href="#SVGID_00000078003987438081260180000003923360659433042054_"  style="overflow:visible;"/>
						</clipPath>
						
							<path style="clip-path:url(#SVGID_00000075868218952402636610000016423329756941572257_);fill:none;stroke:#D3D3D3;stroke-width:0.8;stroke-linecap:square;stroke-linejoin:round;stroke-opacity:0.7;" d="
							M44.27,26.11h223.2"/>
					</g>
				</g>
				<g id="line2d_26">
					<g>
						<g>
							<path id="m23a314aad6_00000054981756363076197260000010067737011281057429_" class="st1" d="M44.27,26.11h-3.5"/>
						</g>
					</g>
				</g>
				<g id="text_16">
					<g class="st2">
						<path d="M31.39,27.37c0.02,0.29,0.13,0.49,0.34,0.6c0.11,0.06,0.23,0.09,0.36,0.09c0.25,0,0.47-0.1,0.64-0.32
							c0.18-0.21,0.3-0.64,0.38-1.28c-0.12,0.19-0.26,0.32-0.44,0.39s-0.36,0.11-0.56,0.11c-0.4,0-0.72-0.13-0.96-0.38
							c-0.24-0.25-0.35-0.58-0.35-0.97c0-0.38,0.12-0.71,0.35-1c0.23-0.29,0.58-0.43,1.03-0.43c0.61,0,1.03,0.28,1.27,0.83
							c0.13,0.3,0.19,0.68,0.19,1.14c0,0.51-0.08,0.97-0.23,1.36c-0.26,0.66-0.69,0.99-1.3,0.99c-0.41,0-0.72-0.11-0.93-0.32
							s-0.32-0.48-0.32-0.81H31.39z M32.76,26.31c0.17-0.14,0.26-0.38,0.26-0.72c0-0.31-0.08-0.54-0.23-0.69s-0.35-0.23-0.59-0.23
							c-0.26,0-0.46,0.09-0.61,0.26s-0.23,0.4-0.23,0.69c0,0.27,0.07,0.49,0.2,0.65s0.34,0.24,0.64,0.24
							C32.4,26.51,32.59,26.44,32.76,26.31z"/>
						<path d="M36.73,24.87c0.19,0.35,0.28,0.82,0.28,1.42c0,0.57-0.08,1.04-0.25,1.42c-0.25,0.54-0.65,0.8-1.21,0.8
							c-0.5,0-0.88-0.22-1.12-0.66c-0.21-0.37-0.31-0.86-0.31-1.47c0-0.48,0.06-0.89,0.18-1.23c0.23-0.64,0.65-0.96,1.25-0.96
							C36.09,24.2,36.49,24.42,36.73,24.87z M36.2,27.66c0.16-0.24,0.24-0.69,0.24-1.35c0-0.48-0.06-0.87-0.18-1.18
							c-0.12-0.31-0.35-0.46-0.68-0.46c-0.31,0-0.54,0.15-0.68,0.44c-0.14,0.29-0.22,0.72-0.22,1.29c0,0.43,0.05,0.77,0.14,1.03
							c0.14,0.4,0.38,0.59,0.72,0.59C35.82,28.02,36.04,27.9,36.2,27.66z"/>
					</g>
				</g>
			</g>
			<g id="ytick_11">
				<g id="line2d_27">
					<g>
						<defs>
							<rect id="SVGID_00000001638601642664245410000011377339271835888802_" x="44.27" y="9.48" width="223.2" height="166.32"/>
						</defs>
						<clipPath id="SVGID_00000042711879448400668720000010755432120165100955_">
							<use xlink:href="#SVGID_00000001638601642664245410000011377339271835888802_"  style="overflow:visible;"/>
						</clipPath>
						
							<path style="clip-path:url(#SVGID_00000042711879448400668720000010755432120165100955_);fill:none;stroke:#D3D3D3;stroke-width:0.8;stroke-linecap:square;stroke-linejoin:round;stroke-opacity:0.7;" d="
							M44.27,9.48h223.2"/>
					</g>
				</g>
				<g id="line2d_28">
					<g>
						<g>
							<path id="m23a314aad6_00000033341399829000724780000006500115649457799102_" class="st1" d="M44.27,9.48h-3.5"/>
						</g>
					</g>
				</g>
				<g id="text_17">
					<g class="st2">
						<path d="M27.83,8.79v-0.4c0.38-0.04,0.65-0.1,0.8-0.19s0.26-0.29,0.34-0.62h0.42v4.18h-0.56V8.79H27.83z"/>
						<path d="M33.39,8.23c0.19,0.35,0.28,0.82,0.28,1.42c0,0.57-0.08,1.04-0.25,1.42c-0.25,0.54-0.65,0.8-1.21,0.8
							c-0.5,0-0.88-0.22-1.12-0.66c-0.21-0.37-0.31-0.86-0.31-1.47c0-0.48,0.06-0.89,0.18-1.23c0.23-0.64,0.65-0.96,1.25-0.96
							C32.76,7.56,33.15,7.79,33.39,8.23z M32.86,11.03c0.16-0.24,0.24-0.69,0.24-1.35c0-0.48-0.06-0.87-0.18-1.18
							c-0.12-0.31-0.35-0.46-0.68-0.46c-0.31,0-0.54,0.15-0.68,0.44c-0.14,0.29-0.22,0.72-0.22,1.29c0,0.43,0.05,0.77,0.14,1.03
							c0.14,0.4,0.38,0.59,0.72,0.59C32.48,11.39,32.7,11.27,32.86,11.03z"/>
						<path d="M36.73,8.23c0.19,0.35,0.28,0.82,0.28,1.42c0,0.57-0.08,1.04-0.25,1.42c-0.25,0.54-0.65,0.8-1.21,0.8
							c-0.5,0-0.88-0.22-1.12-0.66c-0.21-0.37-0.31-0.86-0.31-1.47c0-0.48,0.06-0.89,0.18-1.23c0.23-0.64,0.65-0.96,1.25-0.96
							C36.09,7.56,36.49,7.79,36.73,8.23z M36.2,11.03c0.16-0.24,0.24-0.69,0.24-1.35c0-0.48-0.06-0.87-0.18-1.18
							c-0.12-0.31-0.35-0.46-0.68-0.46c-0.31,0-0.54,0.15-0.68,0.44c-0.14,0.29-0.22,0.72-0.22,1.29c0,0.43,0.05,0.77,0.14,1.03
							c0.14,0.4,0.38,0.59,0.72,0.59C35.82,11.39,36.04,11.27,36.2,11.03z"/>
					</g>
				</g>
			</g>
			<g id="text_18">
				<g class="st2">
					<path d="M7.5,143.36v-2.28c0-0.38,0.06-0.69,0.17-0.93c0.21-0.46,0.61-0.69,1.19-0.69c0.3,0,0.55,0.06,0.74,0.19
						c0.19,0.12,0.35,0.3,0.46,0.52c0.08-0.2,0.18-0.34,0.31-0.44c0.13-0.1,0.34-0.16,0.63-0.17l0.67-0.02
						c0.19-0.01,0.33-0.02,0.43-0.05c0.16-0.04,0.26-0.11,0.31-0.22h0.11v0.83c-0.04,0.02-0.1,0.04-0.17,0.05s-0.2,0.02-0.4,0.03
						l-0.84,0.04c-0.33,0.02-0.55,0.13-0.66,0.36c-0.06,0.13-0.09,0.32-0.09,0.59v1.5h2.15v0.68H7.5z M9.8,141.15
						c0-0.31-0.06-0.56-0.19-0.74s-0.36-0.27-0.69-0.27c-0.36,0-0.6,0.13-0.73,0.38c-0.07,0.14-0.1,0.32-0.1,0.54v1.62H9.8V141.15z"
						/>
					<path d="M8.96,136.21c0.12-0.24,0.28-0.43,0.47-0.55c0.18-0.12,0.4-0.2,0.65-0.25c0.17-0.04,0.44-0.05,0.81-0.05v2.66
						c0.37-0.01,0.67-0.1,0.9-0.26c0.22-0.16,0.34-0.41,0.34-0.76c0-0.32-0.11-0.57-0.32-0.76c-0.12-0.11-0.27-0.18-0.43-0.23v-0.6
						c0.13,0.02,0.28,0.07,0.45,0.16s0.3,0.19,0.41,0.3c0.18,0.19,0.31,0.42,0.37,0.69c0.04,0.15,0.05,0.31,0.05,0.5
						c0,0.45-0.17,0.84-0.5,1.15c-0.33,0.31-0.8,0.47-1.39,0.47c-0.59,0-1.07-0.16-1.43-0.48s-0.55-0.73-0.55-1.24
						C8.78,136.7,8.84,136.45,8.96,136.21z M10.4,135.99c-0.27,0.03-0.48,0.08-0.64,0.17c-0.3,0.17-0.44,0.45-0.44,0.84
						c0,0.28,0.1,0.52,0.31,0.71c0.2,0.19,0.46,0.29,0.78,0.3V135.99z"/>
					<path d="M8.88,134.63v-0.6h0.49c-0.17-0.12-0.29-0.26-0.39-0.4c-0.14-0.21-0.21-0.45-0.21-0.73c0-0.42,0.16-0.77,0.48-1.06
						c0.32-0.29,0.77-0.44,1.36-0.44c0.8,0,1.37,0.21,1.71,0.63c0.22,0.27,0.32,0.57,0.32,0.93c0,0.28-0.06,0.51-0.18,0.7
						c-0.07,0.11-0.19,0.23-0.35,0.37h1.87v0.62H8.88z M11.74,132.31c-0.24-0.19-0.6-0.29-1.08-0.29c-0.29,0-0.54,0.04-0.75,0.13
						c-0.4,0.16-0.6,0.45-0.6,0.88c0,0.43,0.21,0.72,0.64,0.88c0.23,0.08,0.52,0.13,0.87,0.13c0.28,0,0.52-0.04,0.72-0.13
						c0.38-0.16,0.57-0.45,0.57-0.88C12.1,132.75,11.98,132.5,11.74,132.31z"/>
					<path d="M8.86,130.67v-0.58h0.63c-0.12-0.05-0.27-0.16-0.45-0.35s-0.26-0.4-0.26-0.65c0-0.01,0-0.03,0-0.06
						s0.01-0.07,0.01-0.14h0.65c-0.01,0.04-0.01,0.07-0.01,0.1c0,0.03,0,0.06,0,0.1c0,0.31,0.1,0.55,0.3,0.71
						c0.2,0.17,0.43,0.25,0.69,0.25h2.11v0.62H8.86z"/>
					<path d="M8.96,126.09c0.12-0.24,0.28-0.43,0.47-0.55c0.18-0.12,0.4-0.2,0.65-0.25c0.17-0.04,0.44-0.05,0.81-0.05v2.66
						c0.37-0.01,0.67-0.1,0.9-0.26c0.22-0.16,0.34-0.41,0.34-0.76c0-0.32-0.11-0.57-0.32-0.76c-0.12-0.11-0.27-0.18-0.43-0.23v-0.6
						c0.13,0.02,0.28,0.07,0.45,0.16s0.3,0.19,0.41,0.3c0.18,0.19,0.31,0.42,0.37,0.69c0.04,0.15,0.05,0.31,0.05,0.5
						c0,0.45-0.17,0.84-0.5,1.15c-0.33,0.31-0.8,0.47-1.39,0.47c-0.59,0-1.07-0.16-1.43-0.48c-0.37-0.32-0.55-0.73-0.55-1.24
						C8.78,126.58,8.84,126.33,8.96,126.09z M10.4,125.87c-0.27,0.03-0.48,0.08-0.64,0.17c-0.3,0.17-0.44,0.45-0.44,0.84
						c0,0.28,0.1,0.52,0.31,0.71c0.2,0.19,0.46,0.29,0.78,0.3V125.87z"/>
					<path d="M11.37,124.09c0.21-0.02,0.36-0.07,0.47-0.16c0.2-0.16,0.3-0.43,0.3-0.82c0-0.23-0.05-0.44-0.15-0.61
						c-0.1-0.18-0.25-0.27-0.46-0.27c-0.16,0-0.28,0.07-0.36,0.21c-0.05,0.09-0.11,0.27-0.17,0.53l-0.12,0.5
						c-0.08,0.32-0.16,0.55-0.26,0.7c-0.17,0.27-0.4,0.4-0.69,0.4c-0.35,0-0.63-0.13-0.84-0.38c-0.21-0.25-0.32-0.59-0.32-1.02
						c0-0.56,0.16-0.96,0.48-1.21c0.21-0.15,0.43-0.23,0.66-0.22v0.58c-0.14,0.01-0.26,0.06-0.38,0.15
						c-0.16,0.14-0.24,0.4-0.24,0.75c0,0.24,0.04,0.42,0.13,0.54c0.09,0.12,0.21,0.18,0.35,0.18c0.16,0,0.29-0.08,0.38-0.24
						c0.06-0.09,0.11-0.23,0.15-0.41l0.1-0.41c0.11-0.45,0.21-0.75,0.31-0.91c0.16-0.24,0.4-0.36,0.74-0.36
						c0.33,0,0.61,0.12,0.84,0.38c0.24,0.25,0.36,0.63,0.36,1.14c0,0.55-0.12,0.94-0.37,1.17c-0.25,0.23-0.55,0.35-0.92,0.37V124.09
						z"/>
					<path d="M8.96,118.7c0.12-0.24,0.28-0.43,0.47-0.55c0.18-0.12,0.4-0.2,0.65-0.24c0.17-0.04,0.44-0.05,0.81-0.05v2.66
						c0.37-0.01,0.67-0.1,0.9-0.26c0.22-0.16,0.34-0.42,0.34-0.76c0-0.32-0.11-0.57-0.32-0.76c-0.12-0.11-0.27-0.18-0.43-0.23v-0.6
						c0.13,0.02,0.28,0.07,0.45,0.16s0.3,0.19,0.41,0.3c0.18,0.19,0.31,0.42,0.37,0.69c0.04,0.15,0.05,0.31,0.05,0.5
						c0,0.45-0.17,0.84-0.5,1.15c-0.33,0.32-0.8,0.47-1.39,0.47c-0.59,0-1.07-0.16-1.43-0.47c-0.37-0.32-0.55-0.73-0.55-1.24
						C8.78,119.19,8.84,118.94,8.96,118.7z M10.4,118.48c-0.27,0.03-0.48,0.08-0.64,0.17c-0.3,0.17-0.44,0.45-0.44,0.84
						c0,0.28,0.1,0.52,0.31,0.71s0.46,0.29,0.78,0.3V118.48z"/>
					<path d="M8.86,117.07v-0.58h0.52c-0.21-0.17-0.37-0.36-0.46-0.55c-0.09-0.19-0.14-0.41-0.14-0.65c0-0.52,0.18-0.87,0.54-1.05
						c0.2-0.1,0.48-0.15,0.85-0.15h2.35v0.63h-2.31c-0.22,0-0.4,0.03-0.54,0.1c-0.23,0.11-0.34,0.31-0.34,0.59
						c0,0.15,0.02,0.27,0.04,0.36c0.05,0.17,0.15,0.32,0.3,0.44c0.12,0.1,0.25,0.17,0.37,0.2c0.13,0.03,0.31,0.04,0.55,0.04h1.92
						v0.62H8.86z"/>
					<path d="M7.84,113.05v-0.62h1.02v-0.58h0.5v0.58h2.39c0.13,0,0.21-0.04,0.26-0.13c0.03-0.05,0.04-0.13,0.04-0.24
						c0-0.03,0-0.06,0-0.1c0-0.03,0-0.07-0.01-0.12h0.49c0.02,0.07,0.04,0.14,0.04,0.22c0.01,0.08,0.01,0.16,0.01,0.25
						c0,0.29-0.07,0.48-0.22,0.58c-0.15,0.1-0.34,0.15-0.57,0.15H9.36v0.5h-0.5v-0.5H7.84z"/>
					<path d="M10.3,109.27c-0.02-0.14-0.08-0.24-0.18-0.28c-0.05-0.03-0.13-0.04-0.24-0.04c-0.21,0-0.36,0.08-0.46,0.22
						c-0.09,0.15-0.14,0.36-0.14,0.64c0,0.32,0.09,0.55,0.26,0.68c0.1,0.08,0.24,0.12,0.43,0.15v0.57
						c-0.45-0.01-0.77-0.16-0.94-0.44c-0.18-0.28-0.27-0.61-0.27-0.98c0-0.43,0.08-0.78,0.25-1.05c0.16-0.27,0.42-0.4,0.77-0.4h2.11
						c0.06,0,0.12-0.01,0.15-0.04c0.04-0.03,0.06-0.08,0.06-0.17c0-0.03,0-0.06,0-0.09c0-0.04-0.01-0.07-0.02-0.11h0.46
						c0.03,0.1,0.04,0.17,0.05,0.22c0.01,0.05,0.01,0.12,0.01,0.21c0,0.21-0.07,0.37-0.22,0.46c-0.08,0.05-0.19,0.09-0.34,0.11
						c0.16,0.13,0.31,0.31,0.43,0.54c0.12,0.23,0.18,0.49,0.18,0.78c0,0.34-0.1,0.62-0.31,0.83c-0.21,0.22-0.46,0.32-0.77,0.32
						c-0.34,0-0.6-0.11-0.79-0.32c-0.19-0.21-0.3-0.49-0.34-0.83L10.3,109.27z M11.97,110.56c0.1-0.13,0.15-0.28,0.15-0.46
						c0-0.22-0.05-0.43-0.15-0.63c-0.17-0.34-0.44-0.51-0.82-0.51h-0.5c0.05,0.08,0.09,0.17,0.12,0.29s0.05,0.23,0.07,0.35
						l0.05,0.37c0.03,0.22,0.08,0.39,0.14,0.5c0.11,0.19,0.28,0.29,0.51,0.29C11.72,110.76,11.86,110.69,11.97,110.56z"/>
					<path d="M7.84,107.21v-0.62h1.02v-0.58h0.5v0.58h2.39c0.13,0,0.21-0.04,0.26-0.13c0.03-0.05,0.04-0.13,0.04-0.24
						c0-0.03,0-0.06,0-0.1c0-0.03,0-0.07-0.01-0.12h0.49c0.02,0.07,0.04,0.14,0.04,0.22c0.01,0.08,0.01,0.16,0.01,0.25
						c0,0.29-0.07,0.48-0.22,0.58c-0.15,0.1-0.34,0.15-0.57,0.15H9.36v0.5h-0.5v-0.5H7.84z"/>
					<path d="M7.5,105.39v-0.62h0.7v0.62H7.5z M8.88,105.39v-0.62h3.64v0.62H8.88z"/>
					<path d="M8.86,103.53l2.98-0.98l-2.98-1.02v-0.67l3.66,1.38v0.66l-3.66,1.35V103.53z"/>
					<path d="M8.96,98.08c0.12-0.24,0.28-0.43,0.47-0.55c0.18-0.12,0.4-0.2,0.65-0.25c0.17-0.04,0.44-0.05,0.81-0.05v2.66
						c0.37-0.01,0.67-0.1,0.9-0.26c0.22-0.16,0.34-0.42,0.34-0.76c0-0.32-0.11-0.57-0.32-0.76c-0.12-0.11-0.27-0.18-0.43-0.23v-0.61
						c0.13,0.02,0.28,0.07,0.45,0.16s0.3,0.19,0.41,0.3c0.18,0.19,0.31,0.42,0.37,0.69c0.04,0.15,0.05,0.31,0.05,0.5
						c0,0.45-0.17,0.84-0.5,1.15c-0.33,0.31-0.8,0.47-1.39,0.47c-0.59,0-1.07-0.16-1.43-0.48c-0.37-0.32-0.55-0.73-0.55-1.24
						C8.78,98.57,8.84,98.32,8.96,98.08z M10.4,97.86c-0.27,0.02-0.48,0.08-0.64,0.17c-0.3,0.17-0.44,0.45-0.44,0.84
						c0,0.28,0.1,0.52,0.31,0.71s0.46,0.29,0.78,0.3V97.86z"/>
					<path d="M7.64,91.07c0.26-0.49,0.72-0.79,1.38-0.9v0.67c-0.37,0.08-0.63,0.25-0.8,0.5c-0.17,0.25-0.25,0.57-0.25,0.95
						c0,0.46,0.17,0.84,0.52,1.15c0.35,0.31,0.87,0.47,1.56,0.47c0.6,0,1.08-0.13,1.46-0.39s0.56-0.68,0.56-1.26
						c0-0.44-0.13-0.81-0.39-1.1c-0.26-0.29-0.69-0.44-1.28-0.45v1.57H9.83v-2.2h2.69v0.44l-0.65,0.16c0.25,0.23,0.43,0.43,0.53,0.6
						c0.17,0.29,0.25,0.67,0.25,1.12c0,0.58-0.19,1.09-0.58,1.51c-0.48,0.46-1.15,0.69-1.99,0.69c-0.84,0-1.51-0.22-2.01-0.67
						c-0.47-0.43-0.71-0.98-0.71-1.66C7.37,91.82,7.46,91.41,7.64,91.07z"/>
					<path d="M8.96,86.79c0.12-0.24,0.28-0.43,0.47-0.55c0.18-0.12,0.4-0.2,0.65-0.25c0.17-0.04,0.44-0.05,0.81-0.05v2.66
						c0.37-0.01,0.67-0.1,0.9-0.26c0.22-0.16,0.34-0.42,0.34-0.76c0-0.32-0.11-0.57-0.32-0.76c-0.12-0.11-0.27-0.18-0.43-0.23v-0.61
						c0.13,0.02,0.28,0.07,0.45,0.16s0.3,0.19,0.41,0.3c0.18,0.19,0.31,0.42,0.37,0.69c0.04,0.15,0.05,0.31,0.05,0.5
						c0,0.45-0.17,0.84-0.5,1.15c-0.33,0.31-0.8,0.47-1.39,0.47c-0.59,0-1.07-0.16-1.43-0.48c-0.37-0.32-0.55-0.73-0.55-1.24
						C8.78,87.29,8.84,87.04,8.96,86.79z M10.4,86.57c-0.27,0.02-0.48,0.08-0.64,0.17c-0.3,0.17-0.44,0.45-0.44,0.84
						c0,0.28,0.1,0.52,0.31,0.71s0.46,0.29,0.78,0.3V86.57z"/>
					<path d="M8.86,85.16v-0.58h0.52c-0.21-0.17-0.37-0.36-0.46-0.55s-0.14-0.41-0.14-0.65c0-0.52,0.18-0.87,0.54-1.05
						c0.2-0.1,0.48-0.15,0.85-0.15h2.35v0.63h-2.31c-0.22,0-0.4,0.03-0.54,0.1c-0.23,0.11-0.34,0.31-0.34,0.6
						c0,0.15,0.02,0.26,0.04,0.36c0.05,0.17,0.15,0.32,0.3,0.44c0.12,0.1,0.25,0.17,0.37,0.2c0.13,0.03,0.31,0.05,0.55,0.05h1.92
						v0.62H8.86z"/>
					<path d="M9.22,78.62c0.31-0.32,0.78-0.49,1.39-0.49c0.59,0,1.08,0.14,1.46,0.43s0.58,0.73,0.58,1.33c0,0.5-0.17,0.9-0.51,1.19
						c-0.34,0.29-0.8,0.44-1.37,0.44c-0.61,0-1.1-0.16-1.47-0.47c-0.36-0.31-0.55-0.73-0.55-1.25C8.75,79.34,8.91,78.94,9.22,78.62z
						 M11.66,79c-0.31-0.15-0.65-0.22-1.03-0.22c-0.34,0-0.62,0.05-0.83,0.16c-0.34,0.17-0.51,0.47-0.51,0.89
						c0,0.37,0.14,0.64,0.43,0.81s0.63,0.25,1.04,0.25c0.39,0,0.71-0.08,0.97-0.25s0.39-0.44,0.39-0.8
						C12.12,79.42,11.97,79.15,11.66,79z"/>
					<path d="M8.86,77.37v-0.61h0.52c-0.18-0.15-0.31-0.28-0.39-0.4c-0.14-0.2-0.21-0.43-0.21-0.69c0-0.29,0.07-0.53,0.21-0.7
						c0.08-0.1,0.2-0.19,0.36-0.27c-0.2-0.14-0.34-0.3-0.44-0.48c-0.09-0.19-0.14-0.39-0.14-0.62c0-0.49,0.18-0.83,0.53-1
						c0.19-0.1,0.45-0.14,0.77-0.14h2.44v0.64H9.98c-0.24,0-0.41,0.06-0.5,0.18c-0.09,0.12-0.14,0.27-0.14,0.45
						c0,0.24,0.08,0.45,0.24,0.62c0.16,0.17,0.43,0.26,0.81,0.26h2.13v0.62h-2.39c-0.25,0-0.43,0.03-0.54,0.09
						c-0.17,0.09-0.26,0.27-0.26,0.52c0,0.23,0.09,0.44,0.27,0.63s0.51,0.29,0.98,0.29h1.94v0.62H8.86z"/>
					<path d="M8.96,69.28c0.12-0.24,0.28-0.43,0.47-0.55c0.18-0.12,0.4-0.2,0.65-0.25c0.17-0.04,0.44-0.05,0.81-0.05v2.66
						c0.37-0.01,0.67-0.1,0.9-0.26c0.22-0.16,0.34-0.42,0.34-0.76c0-0.32-0.11-0.57-0.32-0.76c-0.12-0.11-0.27-0.18-0.43-0.23v-0.61
						c0.13,0.02,0.28,0.07,0.45,0.16s0.3,0.19,0.41,0.3c0.18,0.19,0.31,0.42,0.37,0.69c0.04,0.15,0.05,0.31,0.05,0.5
						c0,0.45-0.17,0.84-0.5,1.15c-0.33,0.31-0.8,0.47-1.39,0.47c-0.59,0-1.07-0.16-1.43-0.48c-0.37-0.32-0.55-0.73-0.55-1.24
						C8.78,69.78,8.84,69.53,8.96,69.28z M10.4,69.06c-0.27,0.02-0.48,0.08-0.64,0.17c-0.3,0.17-0.44,0.45-0.44,0.84
						c0,0.28,0.1,0.52,0.31,0.71s0.46,0.29,0.78,0.3V69.06z"/>
					<path d="M11.37,67.29c0.21-0.02,0.36-0.07,0.47-0.16c0.2-0.16,0.3-0.43,0.3-0.82c0-0.23-0.05-0.44-0.15-0.61
						c-0.1-0.18-0.25-0.26-0.46-0.26c-0.16,0-0.28,0.07-0.36,0.21c-0.05,0.09-0.11,0.27-0.17,0.54l-0.12,0.5
						c-0.08,0.32-0.16,0.55-0.26,0.7c-0.17,0.27-0.4,0.4-0.69,0.4c-0.35,0-0.63-0.13-0.84-0.38c-0.21-0.25-0.32-0.59-0.32-1.02
						c0-0.56,0.16-0.96,0.48-1.21c0.21-0.15,0.43-0.23,0.66-0.23v0.58c-0.14,0.01-0.26,0.06-0.38,0.15
						c-0.16,0.14-0.24,0.39-0.24,0.75c0,0.24,0.04,0.42,0.13,0.54c0.09,0.12,0.21,0.18,0.35,0.18c0.16,0,0.29-0.08,0.38-0.24
						c0.06-0.09,0.11-0.23,0.15-0.41l0.1-0.42c0.11-0.45,0.21-0.75,0.31-0.91c0.16-0.24,0.4-0.36,0.74-0.36
						c0.33,0,0.61,0.13,0.84,0.38c0.24,0.25,0.36,0.63,0.36,1.14c0,0.55-0.12,0.94-0.37,1.17s-0.55,0.35-0.92,0.37V67.29z"/>
					<path d="M7.42,60.59c0.7,0.36,1.21,0.59,1.54,0.7c0.5,0.16,1.08,0.24,1.73,0.24c0.66,0,1.26-0.09,1.81-0.28
						c0.34-0.11,0.82-0.34,1.46-0.67v0.41c-0.52,0.33-0.85,0.54-1,0.62c-0.14,0.08-0.34,0.17-0.58,0.26
						c-0.34,0.13-0.7,0.22-1.08,0.27c-0.2,0.03-0.39,0.04-0.57,0.04c-0.67,0-1.27-0.11-1.8-0.32c-0.33-0.13-0.84-0.42-1.5-0.84
						V60.59z"/>
					<path d="M7.65,56.05v-0.38l5,2.74v0.38L7.65,56.05z M8.12,58.07c0.23-0.23,0.51-0.35,0.84-0.35s0.61,0.12,0.84,0.35
						s0.35,0.51,0.35,0.84c0,0.33-0.12,0.61-0.35,0.84S9.29,60.1,8.96,60.1s-0.61-0.12-0.84-0.35s-0.35-0.51-0.35-0.84
						C7.77,58.58,7.89,58.3,8.12,58.07z M9.46,58.41c-0.14-0.14-0.3-0.21-0.5-0.21s-0.36,0.07-0.5,0.21s-0.21,0.3-0.21,0.5
						c0,0.19,0.07,0.36,0.21,0.5s0.3,0.21,0.5,0.21c0.19,0,0.36-0.07,0.5-0.21s0.21-0.3,0.21-0.5C9.67,58.71,9.6,58.55,9.46,58.41z
						 M10.49,54.71c0.23-0.23,0.51-0.35,0.84-0.35c0.33,0,0.61,0.12,0.84,0.35c0.23,0.23,0.35,0.51,0.35,0.84
						c0,0.33-0.12,0.61-0.35,0.84c-0.23,0.23-0.51,0.35-0.84,0.35c-0.33,0-0.61-0.12-0.84-0.35s-0.35-0.51-0.35-0.84
						C10.14,55.23,10.25,54.95,10.49,54.71z M11.83,55.06c-0.14-0.14-0.3-0.21-0.5-0.21s-0.36,0.07-0.5,0.21
						c-0.14,0.14-0.21,0.3-0.21,0.5c0,0.2,0.07,0.36,0.21,0.5c0.14,0.14,0.3,0.21,0.5,0.21s0.36-0.07,0.5-0.21
						c0.14-0.14,0.21-0.3,0.21-0.5C12.03,55.36,11.96,55.2,11.83,55.06z"/>
					<path d="M13.95,53.86c-0.71-0.36-1.22-0.6-1.54-0.7c-0.49-0.16-1.06-0.24-1.72-0.24s-1.26,0.09-1.81,0.28
						c-0.34,0.11-0.82,0.34-1.46,0.67v-0.41c0.56-0.35,0.91-0.56,1.04-0.64S8.77,52.67,9,52.58c0.28-0.11,0.57-0.19,0.84-0.23
						s0.55-0.07,0.8-0.07c0.67,0,1.28,0.11,1.8,0.32c0.34,0.13,0.84,0.41,1.5,0.84V53.86z"/>
				</g>
				<g class="st2">
					<path d="M15.25,105.55c0.7,0.36,1.21,0.59,1.54,0.7c0.5,0.16,1.08,0.24,1.73,0.24c0.66,0,1.26-0.09,1.81-0.28
						c0.34-0.11,0.82-0.34,1.46-0.67v0.41c-0.52,0.33-0.85,0.54-1,0.62c-0.14,0.08-0.34,0.17-0.58,0.26
						c-0.34,0.13-0.7,0.22-1.08,0.27c-0.2,0.03-0.39,0.04-0.57,0.04c-0.67,0-1.27-0.11-1.8-0.32c-0.33-0.13-0.84-0.42-1.5-0.84
						V105.55z"/>
					<path d="M17.49,104.62c-0.18,0.18-0.42,0.27-0.71,0.27c-0.36,0-0.68-0.13-0.94-0.4c-0.26-0.26-0.39-0.64-0.39-1.12
						c0-0.47,0.12-0.84,0.37-1.1s0.54-0.4,0.87-0.4c0.31,0,0.55,0.08,0.74,0.23c0.11,0.09,0.21,0.22,0.31,0.4
						c0.09-0.2,0.2-0.36,0.32-0.48c0.23-0.22,0.52-0.33,0.89-0.33c0.43,0,0.79,0.14,1.09,0.43c0.3,0.29,0.45,0.7,0.45,1.23
						c0,0.48-0.13,0.88-0.39,1.21c-0.26,0.33-0.63,0.49-1.13,0.49c-0.29,0-0.54-0.07-0.75-0.21s-0.37-0.35-0.48-0.63
						C17.68,104.39,17.59,104.52,17.49,104.62z M17.29,102.75c-0.15-0.15-0.33-0.23-0.54-0.23c-0.18,0-0.35,0.07-0.5,0.22
						s-0.23,0.37-0.23,0.67c0,0.3,0.08,0.51,0.23,0.64s0.33,0.2,0.54,0.2c0.23,0,0.41-0.09,0.54-0.26c0.13-0.17,0.2-0.37,0.2-0.6
						C17.51,103.11,17.44,102.9,17.29,102.75z M19.71,102.64c-0.15-0.19-0.38-0.28-0.69-0.28c-0.32,0-0.56,0.1-0.72,0.29
						c-0.16,0.19-0.25,0.44-0.25,0.74c0,0.29,0.08,0.53,0.25,0.72c0.17,0.19,0.4,0.28,0.7,0.28c0.25,0,0.48-0.08,0.66-0.25
						s0.28-0.43,0.28-0.79C19.94,103.06,19.86,102.82,19.71,102.64z"/>
					<path d="M19.11,100.53c0.35-0.04,0.59-0.2,0.73-0.49c0.07-0.15,0.1-0.31,0.1-0.51c0-0.36-0.12-0.63-0.35-0.81
						s-0.49-0.26-0.77-0.26c-0.34,0-0.61,0.1-0.79,0.31s-0.28,0.46-0.28,0.75c0,0.21,0.04,0.39,0.12,0.54
						c0.08,0.15,0.2,0.28,0.34,0.39l-0.03,0.53l-2.63-0.37v-2.54h0.59v2.08l1.36,0.21c-0.09-0.11-0.15-0.22-0.2-0.33
						c-0.07-0.18-0.11-0.39-0.11-0.63c0-0.45,0.14-0.83,0.43-1.14c0.29-0.31,0.66-0.47,1.1-0.47c0.46,0,0.87,0.14,1.22,0.43
						c0.35,0.29,0.53,0.74,0.53,1.37c0,0.4-0.11,0.75-0.34,1.06c-0.22,0.31-0.57,0.48-1.03,0.52V100.53z"/>
					<path d="M21.08,96.92c-0.03-0.16-0.14-0.27-0.33-0.33c-0.1-0.03-0.2-0.05-0.3-0.05c-0.02,0-0.03,0-0.04,0
						c-0.01,0-0.03,0-0.04,0.01v0.37h-0.75v-0.73h0.69c0.27,0,0.51,0.05,0.71,0.16s0.33,0.3,0.38,0.57H21.08z"/>
					<path d="M19.26,95.08c-0.31-0.15-0.6-0.45-0.85-0.89l-0.38-0.66c-0.17-0.29-0.32-0.5-0.44-0.62c-0.19-0.19-0.41-0.28-0.65-0.28
						c-0.29,0-0.51,0.09-0.68,0.26s-0.25,0.4-0.25,0.68c0,0.42,0.16,0.71,0.48,0.88c0.17,0.09,0.41,0.13,0.71,0.14v0.63
						c-0.43-0.01-0.77-0.09-1.04-0.24c-0.47-0.27-0.71-0.74-0.71-1.41c0-0.56,0.15-0.97,0.46-1.23c0.3-0.26,0.64-0.39,1.01-0.39
						c0.39,0,0.73,0.14,1,0.41c0.16,0.16,0.36,0.45,0.59,0.86l0.26,0.47c0.12,0.22,0.24,0.4,0.35,0.53c0.2,0.23,0.42,0.37,0.66,0.43
						v-2.67h0.58v3.36C19.94,95.31,19.57,95.23,19.26,95.08z"/>
					<path d="M16.25,88.4c0.4-0.22,0.96-0.33,1.66-0.33c0.67,0,1.22,0.1,1.65,0.3c0.62,0.29,0.94,0.76,0.94,1.41
						c0,0.59-0.25,1.03-0.77,1.31c-0.43,0.24-1,0.36-1.71,0.36c-0.56,0-1.03-0.07-1.43-0.22c-0.74-0.27-1.11-0.76-1.11-1.46
						C15.46,89.14,15.72,88.68,16.25,88.4z M19.51,89.01c-0.28-0.19-0.81-0.28-1.58-0.28c-0.56,0-1.01,0.07-1.37,0.21
						c-0.36,0.14-0.54,0.4-0.54,0.8c0,0.36,0.17,0.63,0.51,0.8c0.34,0.17,0.84,0.25,1.51,0.25c0.5,0,0.9-0.05,1.2-0.16
						c0.46-0.16,0.69-0.44,0.69-0.84C19.93,89.46,19.79,89.2,19.51,89.01z"/>
					<path d="M19.11,86.91c0.35-0.04,0.59-0.2,0.73-0.49c0.07-0.15,0.1-0.31,0.1-0.51c0-0.36-0.12-0.63-0.35-0.81
						s-0.49-0.26-0.77-0.26c-0.34,0-0.61,0.1-0.79,0.31c-0.19,0.21-0.28,0.46-0.28,0.75c0,0.21,0.04,0.39,0.12,0.55
						c0.08,0.15,0.2,0.28,0.34,0.39l-0.03,0.53l-2.63-0.37v-2.54h0.59v2.08l1.36,0.21c-0.09-0.11-0.15-0.22-0.2-0.32
						c-0.07-0.18-0.11-0.39-0.11-0.63c0-0.45,0.14-0.83,0.43-1.14c0.29-0.31,0.66-0.47,1.1-0.47c0.46,0,0.87,0.14,1.22,0.43
						c0.35,0.29,0.53,0.74,0.53,1.37c0,0.4-0.11,0.75-0.34,1.06c-0.22,0.31-0.57,0.48-1.03,0.51V86.91z"/>
					<path d="M21.79,83.63c-0.71-0.36-1.22-0.6-1.54-0.7c-0.49-0.16-1.06-0.24-1.72-0.24s-1.26,0.09-1.81,0.28
						c-0.34,0.11-0.82,0.34-1.46,0.67v-0.41c0.56-0.35,0.91-0.56,1.04-0.64c0.13-0.07,0.31-0.15,0.54-0.24
						c0.28-0.11,0.57-0.19,0.84-0.23c0.28-0.05,0.55-0.07,0.8-0.07c0.67,0,1.28,0.11,1.8,0.32c0.34,0.13,0.84,0.41,1.5,0.84V83.63z"
						/>
				</g>
			</g>
		</g>
		<g id="patch_3">
			<g>
				<defs>
					<rect id="SVGID_00000003074580689415178350000009470813047035145391_" x="44.27" y="9.48" width="223.2" height="166.32"/>
				</defs>
				<clipPath id="SVGID_00000128449794670336075110000014038379371968567739_">
					<use xlink:href="#SVGID_00000003074580689415178350000009470813047035145391_"  style="overflow:visible;"/>
				</clipPath>
				<path style="clip-path:url(#SVGID_00000128449794670336075110000014038379371968567739_);fill:#80B1D3;" d="M54.41,175.8h24.92
					v-2.6H54.41V175.8z"/>
			</g>
		</g>
		<g id="patch_4">
			<g>
				<defs>
					<rect id="SVGID_00000000205448508141520750000002117331852478668946_" x="44.27" y="9.48" width="223.2" height="166.32"/>
				</defs>
				<clipPath id="SVGID_00000117660577298547752580000015283974400694670215_">
					<use xlink:href="#SVGID_00000000205448508141520750000002117331852478668946_"  style="overflow:visible;"/>
				</clipPath>
				<path style="clip-path:url(#SVGID_00000117660577298547752580000015283974400694670215_);fill:#80B1D3;" d="M90.01,175.8h24.92
					V78.36H90.01V175.8z"/>
			</g>
		</g>
		<g id="patch_5">
			<g>
				<defs>
					<rect id="SVGID_00000068641385336064885550000007084566704634439334_" x="44.27" y="9.48" width="223.2" height="166.32"/>
				</defs>
				<clipPath id="SVGID_00000183230686246787460360000012802770417182192547_">
					<use xlink:href="#SVGID_00000068641385336064885550000007084566704634439334_"  style="overflow:visible;"/>
				</clipPath>
				<path style="clip-path:url(#SVGID_00000183230686246787460360000012802770417182192547_);fill:#80B1D3;" d="M125.61,175.8h24.92
					v-60.16h-24.92V175.8z"/>
			</g>
		</g>
		<g id="patch_6">
			<g>
				<defs>
					<rect id="SVGID_00000099649714556132099940000006269458748123905708_" x="44.27" y="9.48" width="223.2" height="166.32"/>
				</defs>
				<clipPath id="SVGID_00000034789614590218737720000007909787697246995123_">
					<use xlink:href="#SVGID_00000099649714556132099940000006269458748123905708_"  style="overflow:visible;"/>
				</clipPath>
				<path style="clip-path:url(#SVGID_00000034789614590218737720000007909787697246995123_);fill:#80B1D3;" d="M161.21,175.8h24.92
					v-62.08h-24.92V175.8z"/>
			</g>
		</g>
		<g id="patch_7">
			<g>
				<defs>
					<rect id="SVGID_00000142166597822950718250000007804679494518236076_" x="44.27" y="9.48" width="223.2" height="166.32"/>
				</defs>
				<clipPath id="SVGID_00000063622089895425123930000008477212580443710599_">
					<use xlink:href="#SVGID_00000142166597822950718250000007804679494518236076_"  style="overflow:visible;"/>
				</clipPath>
				<path style="clip-path:url(#SVGID_00000063622089895425123930000008477212580443710599_);fill:#80B1D3;" d="M196.8,175.8h24.92
					v-50.69H196.8V175.8z"/>
			</g>
		</g>
		<g id="patch_8">
			<g>
				<defs>
					<rect id="SVGID_00000177465445070873570540000000724636076331299749_" x="44.27" y="9.48" width="223.2" height="166.32"/>
				</defs>
				<clipPath id="SVGID_00000151526756628881289940000015246795902382122379_">
					<use xlink:href="#SVGID_00000177465445070873570540000000724636076331299749_"  style="overflow:visible;"/>
				</clipPath>
				<path style="clip-path:url(#SVGID_00000151526756628881289940000015246795902382122379_);fill:#80B1D3;" d="M232.4,175.8h24.92
					v-26.38H232.4V175.8z"/>
			</g>
		</g>
		<g id="patch_9">
			<g>
				<defs>
					<rect id="SVGID_00000000931341703321168410000017641656659211718289_" x="44.27" y="9.48" width="223.2" height="166.32"/>
				</defs>
				<clipPath id="SVGID_00000052100114470060355730000006800878186167077563_">
					<use xlink:href="#SVGID_00000000931341703321168410000017641656659211718289_"  style="overflow:visible;"/>
				</clipPath>
				<path style="clip-path:url(#SVGID_00000052100114470060355730000006800878186167077563_);fill:#FDAE6B;" d="M54.41,173.2h24.92
					v-5.61H54.41V173.2z"/>
			</g>
		</g>
		<g id="patch_10">
			<g>
				<defs>
					<rect id="SVGID_00000080180217498426596340000017958437597060249020_" x="44.27" y="9.48" width="223.2" height="166.32"/>
				</defs>
				<clipPath id="SVGID_00000152238658808402402920000013315009841270674622_">
					<use xlink:href="#SVGID_00000080180217498426596340000017958437597060249020_"  style="overflow:visible;"/>
				</clipPath>
				<path style="clip-path:url(#SVGID_00000152238658808402402920000013315009841270674622_);fill:#FDAE6B;" d="M90.01,78.36h24.92
					V41.85H90.01V78.36z"/>
			</g>
		</g>
		<g id="patch_11">
			<g>
				<defs>
					<rect id="SVGID_00000078039028304698614280000010853489819424793747_" x="44.27" y="9.48" width="223.2" height="166.32"/>
				</defs>
				<clipPath id="SVGID_00000061445076541979203800000004400101366637931194_">
					<use xlink:href="#SVGID_00000078039028304698614280000010853489819424793747_"  style="overflow:visible;"/>
				</clipPath>
				<path style="clip-path:url(#SVGID_00000061445076541979203800000004400101366637931194_);fill:#FDAE6B;" d="M125.61,115.64
					h24.92V61.52h-24.92V115.64z"/>
			</g>
		</g>
		<g id="patch_12">
			<g>
				<defs>
					<rect id="SVGID_00000075135417969333671400000012466880507152476318_" x="44.27" y="9.48" width="223.2" height="166.32"/>
				</defs>
				<clipPath id="SVGID_00000131339566199572940380000010853719400685800341_">
					<use xlink:href="#SVGID_00000075135417969333671400000012466880507152476318_"  style="overflow:visible;"/>
				</clipPath>
				<path style="clip-path:url(#SVGID_00000131339566199572940380000010853719400685800341_);fill:#FDAE6B;" d="M161.21,113.72
					h24.92V42.74h-24.92V113.72z"/>
			</g>
		</g>
		<g id="patch_13">
			<g>
				<defs>
					<rect id="SVGID_00000155825624257682629750000017479890411119235761_" x="44.27" y="9.48" width="223.2" height="166.32"/>
				</defs>
				<clipPath id="SVGID_00000136395099676150983120000005727502020607736482_">
					<use xlink:href="#SVGID_00000155825624257682629750000017479890411119235761_"  style="overflow:visible;"/>
				</clipPath>
				<path style="clip-path:url(#SVGID_00000136395099676150983120000005727502020607736482_);fill:#FDAE6B;" d="M196.8,125.11h24.92
					v-92.5H196.8V125.11z"/>
			</g>
		</g>
		<g id="patch_14">
			<g>
				<defs>
					<rect id="SVGID_00000022528978571880982270000007068814038469154190_" x="44.27" y="9.48" width="223.2" height="166.32"/>
				</defs>
				<clipPath id="SVGID_00000067926637715713744020000003279602337844860801_">
					<use xlink:href="#SVGID_00000022528978571880982270000007068814038469154190_"  style="overflow:visible;"/>
				</clipPath>
				<path style="clip-path:url(#SVGID_00000067926637715713744020000003279602337844860801_);fill:#FDAE6B;" d="M232.4,149.42h24.92
					V23.39H232.4V149.42z"/>
			</g>
		</g>
		<g id="patch_15">
			<g>
				<defs>
					<rect id="SVGID_00000061437241511246598800000007179208723659420330_" x="44.27" y="9.48" width="223.2" height="166.32"/>
				</defs>
				<clipPath id="SVGID_00000016775984418166976740000004904142181809061043_">
					<use xlink:href="#SVGID_00000061437241511246598800000007179208723659420330_"  style="overflow:visible;"/>
				</clipPath>
				<path style="clip-path:url(#SVGID_00000016775984418166976740000004904142181809061043_);fill:#B3DE69;" d="M54.41,167.58h24.92
					V9.48H54.41V167.58z"/>
			</g>
		</g>
		<g id="patch_16">
			<g>
				<defs>
					<rect id="SVGID_00000003801221246044661060000014119552937781703081_" x="44.27" y="9.48" width="223.2" height="166.32"/>
				</defs>
				<clipPath id="SVGID_00000105414893395152027890000012280787314875454887_">
					<use xlink:href="#SVGID_00000003801221246044661060000014119552937781703081_"  style="overflow:visible;"/>
				</clipPath>
				<path style="clip-path:url(#SVGID_00000105414893395152027890000012280787314875454887_);fill:#B3DE69;" d="M90.01,41.85h24.92
					V9.48H90.01V41.85z"/>
			</g>
		</g>
		<g id="patch_17">
			<g>
				<defs>
					<rect id="SVGID_00000156562690780815228020000012224296596979646607_" x="44.27" y="9.48" width="223.2" height="166.32"/>
				</defs>
				<clipPath id="SVGID_00000108276859549793623960000000462633700063653031_">
					<use xlink:href="#SVGID_00000156562690780815228020000012224296596979646607_"  style="overflow:visible;"/>
				</clipPath>
				<path style="clip-path:url(#SVGID_00000108276859549793623960000000462633700063653031_);fill:#B3DE69;" d="M125.61,61.52h24.92
					V9.48h-24.92V61.52z"/>
			</g>
		</g>
		<g id="patch_18">
			<g>
				<defs>
					<rect id="SVGID_00000060724426283756856880000014660079208265856162_" x="44.27" y="9.48" width="223.2" height="166.32"/>
				</defs>
				<clipPath id="SVGID_00000130612731428145463590000012151068300193361339_">
					<use xlink:href="#SVGID_00000060724426283756856880000014660079208265856162_"  style="overflow:visible;"/>
				</clipPath>
				<path style="clip-path:url(#SVGID_00000130612731428145463590000012151068300193361339_);fill:#B3DE69;" d="M161.21,42.74h24.92
					V9.48h-24.92V42.74z"/>
			</g>
		</g>
		<g id="patch_19">
			<g>
				<defs>
					<rect id="SVGID_00000029749361321629248060000013983460584832263332_" x="44.27" y="9.48" width="223.2" height="166.32"/>
				</defs>
				<clipPath id="SVGID_00000173140476810791852420000011688829716813971634_">
					<use xlink:href="#SVGID_00000029749361321629248060000013983460584832263332_"  style="overflow:visible;"/>
				</clipPath>
				<path style="clip-path:url(#SVGID_00000173140476810791852420000011688829716813971634_);fill:#B3DE69;" d="M196.8,32.61h24.92
					V9.48H196.8V32.61z"/>
			</g>
		</g>
		<g id="patch_20">
			<g>
				<defs>
					<rect id="SVGID_00000037661882555967526800000005296375503384377003_" x="44.27" y="9.48" width="223.2" height="166.32"/>
				</defs>
				<clipPath id="SVGID_00000146474661572766473530000000918386982090273923_">
					<use xlink:href="#SVGID_00000037661882555967526800000005296375503384377003_"  style="overflow:visible;"/>
				</clipPath>
				<path style="clip-path:url(#SVGID_00000146474661572766473530000000918386982090273923_);fill:#B3DE69;" d="M232.4,23.39h24.92
					V9.48H232.4V23.39z"/>
			</g>
		</g>
		<g id="patch_21">
			<path class="st32" d="M44.27,175.8V9.48"/>
		</g>
		<g id="patch_22">
			<path class="st33" d="M267.47,175.8V9.48"/>
		</g>
		<g id="patch_23">
			<path class="st32" d="M44.27,175.8h223.2"/>
		</g>
		<g id="patch_24">
			<path class="st33" d="M44.27,9.48h223.2"/>
		</g>
		<g id="legend_1">
			<g id="patch_25">
				<path class="st34" d="M272.87,19.44h12v-4.2h-12V19.44z"/>
			</g>
			<g id="text_19">
				<g class="st2">
					<path d="M291.37,15.13h0.66l1.56,4.3h-0.64l-0.44-1.29h-1.7l-0.47,1.29h-0.6L291.37,15.13z M292.33,17.67l-0.65-1.9l-0.69,1.9
						H292.33z"/>
					<path d="M296.13,16.47c0.22,0.17,0.36,0.47,0.4,0.89h-0.51c-0.03-0.19-0.1-0.35-0.21-0.48s-0.29-0.19-0.54-0.19
						c-0.34,0-0.58,0.16-0.72,0.49c-0.09,0.21-0.14,0.48-0.14,0.79c0,0.31,0.07,0.58,0.2,0.79c0.13,0.21,0.34,0.32,0.63,0.32
						c0.22,0,0.39-0.07,0.52-0.2c0.13-0.13,0.22-0.32,0.27-0.55h0.51c-0.06,0.42-0.21,0.72-0.44,0.91s-0.53,0.29-0.9,0.29
						c-0.41,0-0.74-0.15-0.98-0.45c-0.24-0.3-0.37-0.67-0.37-1.12c0-0.55,0.13-0.98,0.4-1.29s0.61-0.46,1.02-0.46
						C295.62,16.21,295.91,16.3,296.13,16.47z"/>
					<path d="M297.16,15.42h0.53v0.88h0.5v0.43h-0.5v2.05c0,0.11,0.04,0.18,0.11,0.22c0.04,0.02,0.11,0.03,0.21,0.03
						c0.03,0,0.05,0,0.08,0s0.06,0,0.1-0.01v0.42c-0.06,0.02-0.12,0.03-0.19,0.04s-0.14,0.01-0.21,0.01c-0.25,0-0.41-0.06-0.5-0.19
						c-0.09-0.13-0.13-0.29-0.13-0.49v-2.08h-0.42V16.3h0.42V15.42z"/>
					<path d="M298.72,15.13h0.54v0.6h-0.54V15.13z M298.72,16.32h0.54v3.12h-0.54V16.32z"/>
					<path d="M300.31,16.3l0.84,2.55l0.87-2.55h0.58l-1.18,3.14h-0.56l-1.16-3.14H300.31z"/>
					<path d="M304.99,16.39c0.21,0.1,0.37,0.24,0.47,0.41c0.11,0.16,0.17,0.34,0.21,0.55c0.03,0.14,0.05,0.38,0.05,0.69h-2.28
						c0.01,0.32,0.08,0.58,0.22,0.77c0.14,0.19,0.36,0.29,0.65,0.29c0.27,0,0.49-0.09,0.65-0.27c0.09-0.11,0.16-0.23,0.19-0.37h0.52
						c-0.01,0.12-0.06,0.24-0.14,0.38c-0.08,0.14-0.16,0.26-0.26,0.35c-0.16,0.16-0.36,0.26-0.59,0.32
						c-0.13,0.03-0.27,0.05-0.43,0.05c-0.39,0-0.72-0.14-0.99-0.43c-0.27-0.29-0.4-0.68-0.4-1.19c0-0.5,0.14-0.91,0.41-1.23
						s0.63-0.47,1.07-0.47C304.57,16.23,304.79,16.28,304.99,16.39z M305.18,17.62c-0.02-0.23-0.07-0.41-0.15-0.55
						c-0.14-0.25-0.38-0.38-0.72-0.38c-0.24,0-0.44,0.09-0.6,0.26c-0.16,0.18-0.25,0.4-0.26,0.67H305.18z"/>
					<path d="M310.13,16.47c0.22,0.17,0.36,0.47,0.4,0.89h-0.51c-0.03-0.19-0.1-0.35-0.21-0.48s-0.29-0.19-0.54-0.19
						c-0.34,0-0.58,0.16-0.72,0.49c-0.09,0.21-0.14,0.48-0.14,0.79c0,0.31,0.07,0.58,0.2,0.79c0.13,0.21,0.34,0.32,0.63,0.32
						c0.22,0,0.39-0.07,0.52-0.2c0.13-0.13,0.22-0.32,0.27-0.55h0.51c-0.06,0.42-0.21,0.72-0.44,0.91s-0.53,0.29-0.9,0.29
						c-0.41,0-0.74-0.15-0.98-0.45c-0.24-0.3-0.37-0.67-0.37-1.12c0-0.55,0.13-0.98,0.4-1.29s0.61-0.46,1.02-0.46
						C309.62,16.21,309.91,16.3,310.13,16.47z"/>
					<path d="M311.06,15.12h0.53v1.61c0.12-0.16,0.24-0.27,0.34-0.33c0.17-0.11,0.38-0.17,0.64-0.17c0.46,0,0.76,0.16,0.93,0.48
						c0.09,0.17,0.13,0.42,0.13,0.72v2.01h-0.54v-1.98c0-0.23-0.03-0.4-0.09-0.51c-0.1-0.17-0.28-0.26-0.54-0.26
						c-0.22,0-0.42,0.08-0.59,0.23s-0.27,0.43-0.27,0.85v1.66h-0.53V15.12z"/>
					<path d="M316.08,17.54c0.12-0.02,0.2-0.07,0.24-0.15c0.02-0.05,0.04-0.12,0.04-0.2c0-0.18-0.06-0.31-0.19-0.39
						c-0.13-0.08-0.31-0.12-0.55-0.12c-0.27,0-0.47,0.07-0.58,0.22c-0.06,0.08-0.11,0.21-0.12,0.37h-0.49
						c0.01-0.39,0.13-0.66,0.38-0.81c0.24-0.15,0.52-0.23,0.84-0.23c0.37,0,0.67,0.07,0.9,0.21c0.23,0.14,0.34,0.36,0.34,0.66v1.81
						c0,0.05,0.01,0.1,0.03,0.13s0.07,0.05,0.14,0.05c0.02,0,0.05,0,0.08,0c0.03,0,0.06-0.01,0.09-0.01v0.39
						c-0.08,0.02-0.14,0.04-0.19,0.04s-0.1,0.01-0.18,0.01c-0.18,0-0.31-0.06-0.4-0.19c-0.04-0.07-0.07-0.17-0.09-0.29
						c-0.11,0.14-0.26,0.26-0.46,0.37s-0.42,0.16-0.67,0.16c-0.29,0-0.53-0.09-0.71-0.26s-0.28-0.4-0.28-0.66
						c0-0.29,0.09-0.52,0.27-0.68s0.42-0.26,0.71-0.3L316.08,17.54z M314.97,18.96c0.11,0.09,0.24,0.13,0.4,0.13
						c0.19,0,0.37-0.04,0.54-0.13c0.29-0.14,0.44-0.38,0.44-0.7v-0.42c-0.06,0.04-0.15,0.08-0.25,0.1c-0.1,0.03-0.2,0.05-0.3,0.06
						l-0.32,0.04c-0.19,0.03-0.33,0.07-0.43,0.12c-0.16,0.09-0.24,0.24-0.24,0.44C314.8,18.76,314.86,18.88,314.97,18.96z"/>
					<path d="M317.73,16.3h0.5v0.45c0.15-0.18,0.31-0.32,0.47-0.4s0.35-0.12,0.55-0.12c0.45,0,0.75,0.16,0.9,0.47
						c0.09,0.17,0.13,0.41,0.13,0.73v2.01h-0.54v-1.98c0-0.19-0.03-0.35-0.08-0.46c-0.09-0.2-0.26-0.29-0.51-0.29
						c-0.12,0-0.23,0.01-0.31,0.04c-0.14,0.04-0.27,0.13-0.38,0.26c-0.09,0.1-0.15,0.21-0.17,0.32c-0.03,0.11-0.04,0.27-0.04,0.47
						v1.64h-0.53V16.3z"/>
					<path d="M322.81,16.43c0.1,0.07,0.2,0.17,0.3,0.3v-0.4h0.49v2.85c0,0.4-0.06,0.71-0.17,0.94c-0.22,0.43-0.63,0.64-1.24,0.64
						c-0.34,0-0.62-0.08-0.85-0.23s-0.36-0.39-0.39-0.71h0.54c0.03,0.14,0.08,0.25,0.15,0.33c0.12,0.12,0.3,0.18,0.56,0.18
						c0.4,0,0.67-0.14,0.79-0.43c0.07-0.17,0.11-0.47,0.1-0.9c-0.11,0.16-0.23,0.28-0.38,0.36c-0.15,0.08-0.34,0.12-0.59,0.12
						c-0.34,0-0.63-0.12-0.89-0.36c-0.25-0.24-0.38-0.64-0.38-1.2c0-0.53,0.13-0.94,0.38-1.23s0.56-0.44,0.93-0.44
						C322.42,16.25,322.63,16.31,322.81,16.43z M322.88,16.99c-0.16-0.19-0.36-0.28-0.61-0.28c-0.37,0-0.62,0.17-0.76,0.52
						c-0.07,0.19-0.11,0.43-0.11,0.73c0,0.35,0.07,0.62,0.21,0.81c0.14,0.19,0.33,0.28,0.58,0.28c0.38,0,0.64-0.17,0.8-0.51
						c0.08-0.19,0.13-0.42,0.13-0.68C323.12,17.47,323.04,17.18,322.88,16.99z"/>
					<path d="M326.34,16.39c0.21,0.1,0.37,0.24,0.47,0.41c0.1,0.16,0.17,0.34,0.21,0.55c0.03,0.14,0.05,0.38,0.05,0.69h-2.28
						c0.01,0.32,0.08,0.58,0.22,0.77c0.14,0.19,0.36,0.29,0.65,0.29c0.27,0,0.49-0.09,0.65-0.27c0.09-0.11,0.16-0.23,0.19-0.37h0.52
						c-0.01,0.12-0.06,0.24-0.14,0.38c-0.08,0.14-0.16,0.26-0.26,0.35c-0.16,0.16-0.36,0.26-0.59,0.32
						c-0.13,0.03-0.27,0.05-0.43,0.05c-0.39,0-0.72-0.14-0.99-0.43c-0.27-0.29-0.4-0.68-0.4-1.19c0-0.5,0.14-0.91,0.41-1.23
						c0.27-0.31,0.63-0.47,1.07-0.47C325.92,16.23,326.14,16.28,326.34,16.39z M326.53,17.62c-0.02-0.23-0.07-0.41-0.15-0.55
						c-0.14-0.25-0.38-0.38-0.72-0.38c-0.24,0-0.44,0.09-0.6,0.26c-0.16,0.18-0.25,0.4-0.26,0.67H326.53z"/>
				</g>
			</g>
			<g id="patch_26">
				<path class="st35" d="M272.87,28.25h12v-4.2h-12V28.25z"/>
			</g>
			<g id="text_20">
				<g class="st2">
					<path d="M290.18,23.94h1.93c0.38,0,0.69,0.11,0.92,0.32c0.23,0.22,0.35,0.52,0.35,0.91c0,0.34-0.1,0.63-0.31,0.88
						c-0.21,0.25-0.53,0.37-0.96,0.37h-1.34v1.82h-0.58V23.94z M292.44,24.53c-0.13-0.06-0.3-0.09-0.53-0.09h-1.15v1.49h1.15
						c0.26,0,0.47-0.06,0.63-0.17s0.24-0.31,0.24-0.59C292.79,24.86,292.67,24.65,292.44,24.53z"/>
					<path d="M295.74,26.35c0.12-0.02,0.2-0.07,0.24-0.15c0.02-0.05,0.04-0.12,0.04-0.2c0-0.18-0.06-0.31-0.19-0.39
						c-0.13-0.08-0.31-0.12-0.55-0.12c-0.27,0-0.47,0.07-0.58,0.22c-0.06,0.08-0.11,0.21-0.12,0.37h-0.49
						c0.01-0.39,0.13-0.66,0.38-0.81c0.24-0.15,0.52-0.23,0.84-0.23c0.37,0,0.67,0.07,0.9,0.21c0.23,0.14,0.34,0.36,0.34,0.66v1.81
						c0,0.05,0.01,0.1,0.03,0.13s0.07,0.05,0.14,0.05c0.02,0,0.05,0,0.08,0c0.03,0,0.06-0.01,0.09-0.01v0.39
						c-0.08,0.02-0.14,0.04-0.19,0.04s-0.1,0.01-0.18,0.01c-0.18,0-0.31-0.06-0.4-0.19c-0.04-0.07-0.07-0.17-0.09-0.29
						c-0.11,0.14-0.26,0.26-0.46,0.37s-0.42,0.16-0.67,0.16c-0.29,0-0.53-0.09-0.71-0.26s-0.28-0.4-0.28-0.66
						c0-0.29,0.09-0.52,0.27-0.68s0.42-0.26,0.71-0.3L295.74,26.35z M294.63,27.77c0.11,0.09,0.24,0.13,0.4,0.13
						c0.19,0,0.37-0.04,0.54-0.13c0.29-0.14,0.44-0.38,0.44-0.7v-0.42c-0.06,0.04-0.15,0.08-0.25,0.1c-0.1,0.03-0.2,0.05-0.3,0.06
						l-0.32,0.04c-0.19,0.03-0.33,0.07-0.43,0.12c-0.16,0.09-0.24,0.24-0.24,0.44C294.46,27.56,294.51,27.68,294.63,27.77z"/>
					<path d="M297.71,27.26c0.02,0.18,0.06,0.31,0.13,0.4c0.13,0.17,0.37,0.25,0.71,0.25c0.2,0,0.38-0.04,0.53-0.13
						c0.15-0.08,0.23-0.22,0.23-0.39c0-0.13-0.06-0.24-0.18-0.31c-0.08-0.04-0.23-0.09-0.46-0.15l-0.43-0.11
						c-0.27-0.07-0.47-0.14-0.6-0.22c-0.23-0.14-0.34-0.34-0.34-0.59c0-0.3,0.11-0.54,0.33-0.72s0.51-0.28,0.87-0.28
						c0.48,0,0.82,0.14,1.04,0.42c0.13,0.18,0.2,0.37,0.19,0.57h-0.5c-0.01-0.12-0.05-0.23-0.13-0.32
						c-0.12-0.14-0.34-0.21-0.65-0.21c-0.2,0-0.36,0.04-0.46,0.11c-0.11,0.08-0.16,0.18-0.16,0.3c0,0.14,0.07,0.25,0.21,0.33
						c0.08,0.05,0.2,0.09,0.35,0.13l0.36,0.08c0.39,0.09,0.64,0.18,0.78,0.27c0.21,0.13,0.31,0.35,0.31,0.64
						c0,0.28-0.11,0.52-0.32,0.72s-0.54,0.3-0.98,0.3c-0.47,0-0.81-0.11-1-0.32c-0.2-0.21-0.3-0.47-0.32-0.79H297.71z"/>
					<path d="M300.71,27.26c0.02,0.18,0.06,0.31,0.13,0.4c0.13,0.17,0.37,0.25,0.71,0.25c0.2,0,0.38-0.04,0.53-0.13
						c0.15-0.08,0.23-0.22,0.23-0.39c0-0.13-0.06-0.24-0.18-0.31c-0.08-0.04-0.23-0.09-0.46-0.15l-0.43-0.11
						c-0.27-0.07-0.47-0.14-0.6-0.22c-0.23-0.14-0.34-0.34-0.34-0.59c0-0.3,0.11-0.54,0.33-0.72s0.51-0.28,0.87-0.28
						c0.48,0,0.82,0.14,1.04,0.42c0.13,0.18,0.2,0.37,0.19,0.57h-0.5c-0.01-0.12-0.05-0.23-0.13-0.32
						c-0.12-0.14-0.34-0.21-0.65-0.21c-0.2,0-0.36,0.04-0.46,0.11c-0.11,0.08-0.16,0.18-0.16,0.3c0,0.14,0.07,0.25,0.21,0.33
						c0.08,0.05,0.2,0.09,0.35,0.13l0.36,0.08c0.39,0.09,0.64,0.18,0.78,0.27c0.21,0.13,0.31,0.35,0.31,0.64
						c0,0.28-0.11,0.52-0.32,0.72s-0.54,0.3-0.98,0.3c-0.47,0-0.81-0.11-1-0.32c-0.2-0.21-0.3-0.47-0.32-0.79H300.71z"/>
					<path d="M303.39,23.94h0.54v0.6h-0.54V23.94z M303.39,25.12h0.54v3.12h-0.54V25.12z"/>
					<path d="M304.98,25.11l0.84,2.55l0.87-2.55h0.58l-1.18,3.14h-0.56l-1.16-3.14H304.98z"/>
					<path d="M309.66,25.19c0.21,0.1,0.37,0.24,0.47,0.41c0.11,0.16,0.17,0.34,0.21,0.55c0.03,0.14,0.05,0.38,0.05,0.69h-2.28
						c0.01,0.32,0.08,0.58,0.22,0.77c0.14,0.19,0.36,0.29,0.65,0.29c0.27,0,0.49-0.09,0.65-0.27c0.09-0.11,0.16-0.23,0.19-0.37h0.52
						c-0.01,0.12-0.06,0.24-0.14,0.38c-0.08,0.14-0.16,0.26-0.26,0.35c-0.16,0.16-0.36,0.26-0.59,0.32
						c-0.13,0.03-0.27,0.05-0.43,0.05c-0.39,0-0.72-0.14-0.99-0.43c-0.27-0.29-0.4-0.68-0.4-1.19c0-0.5,0.14-0.91,0.41-1.23
						s0.63-0.47,1.07-0.47C309.24,25.04,309.46,25.09,309.66,25.19z M309.85,26.43c-0.02-0.23-0.07-0.41-0.15-0.55
						c-0.14-0.25-0.38-0.38-0.72-0.38c-0.24,0-0.44,0.09-0.6,0.26c-0.16,0.18-0.25,0.4-0.26,0.67H309.85z"/>
					<path d="M314.8,25.27c0.22,0.17,0.36,0.47,0.4,0.89h-0.51c-0.03-0.19-0.1-0.35-0.21-0.48s-0.29-0.19-0.54-0.19
						c-0.34,0-0.58,0.16-0.72,0.49c-0.09,0.21-0.14,0.48-0.14,0.79c0,0.31,0.07,0.58,0.2,0.79c0.13,0.21,0.34,0.32,0.63,0.32
						c0.22,0,0.39-0.07,0.52-0.2c0.13-0.13,0.22-0.32,0.27-0.55h0.51c-0.06,0.42-0.21,0.72-0.44,0.91s-0.53,0.29-0.9,0.29
						c-0.41,0-0.74-0.15-0.98-0.45c-0.24-0.3-0.37-0.67-0.37-1.12c0-0.55,0.13-0.98,0.4-1.29s0.61-0.46,1.02-0.46
						C314.29,25.02,314.58,25.1,314.8,25.27z"/>
					<path d="M315.73,23.93h0.53v1.61c0.12-0.16,0.24-0.27,0.34-0.33c0.17-0.11,0.38-0.17,0.64-0.17c0.46,0,0.76,0.16,0.93,0.48
						c0.09,0.17,0.13,0.42,0.13,0.72v2.01h-0.54v-1.98c0-0.23-0.03-0.4-0.09-0.51c-0.1-0.17-0.28-0.26-0.54-0.26
						c-0.22,0-0.42,0.08-0.59,0.23s-0.27,0.43-0.27,0.85v1.66h-0.53V23.93z"/>
					<path d="M320.75,26.35c0.12-0.02,0.2-0.07,0.24-0.15c0.02-0.05,0.04-0.12,0.04-0.2c0-0.18-0.06-0.31-0.19-0.39
						s-0.31-0.12-0.55-0.12c-0.28,0-0.47,0.07-0.58,0.22c-0.06,0.08-0.11,0.21-0.13,0.37h-0.49c0.01-0.39,0.13-0.66,0.38-0.81
						c0.24-0.15,0.52-0.23,0.84-0.23c0.37,0,0.67,0.07,0.9,0.21c0.23,0.14,0.34,0.36,0.34,0.66v1.81c0,0.05,0.01,0.1,0.03,0.13
						s0.07,0.05,0.14,0.05c0.02,0,0.05,0,0.08,0c0.03,0,0.06-0.01,0.09-0.01v0.39c-0.08,0.02-0.14,0.04-0.19,0.04
						s-0.1,0.01-0.18,0.01c-0.18,0-0.31-0.06-0.4-0.19c-0.04-0.07-0.07-0.17-0.09-0.29c-0.11,0.14-0.26,0.26-0.46,0.37
						s-0.42,0.16-0.67,0.16c-0.29,0-0.53-0.09-0.71-0.26c-0.19-0.18-0.28-0.4-0.28-0.66c0-0.29,0.09-0.52,0.27-0.68
						s0.42-0.26,0.71-0.3L320.75,26.35z M319.64,27.77c0.11,0.09,0.24,0.13,0.4,0.13c0.19,0,0.37-0.04,0.54-0.13
						c0.29-0.14,0.44-0.38,0.44-0.7v-0.42c-0.06,0.04-0.15,0.08-0.25,0.1c-0.1,0.03-0.2,0.05-0.3,0.06l-0.32,0.04
						c-0.19,0.03-0.33,0.07-0.43,0.12c-0.16,0.09-0.24,0.24-0.24,0.44C319.47,27.56,319.53,27.68,319.64,27.77z"/>
					<path d="M322.4,25.11h0.5v0.45c0.15-0.18,0.31-0.32,0.47-0.4s0.35-0.12,0.55-0.12c0.45,0,0.75,0.16,0.9,0.47
						c0.09,0.17,0.13,0.41,0.13,0.73v2.01h-0.54v-1.98c0-0.19-0.03-0.35-0.08-0.46c-0.09-0.2-0.26-0.29-0.51-0.29
						c-0.12,0-0.23,0.01-0.31,0.04c-0.14,0.04-0.27,0.13-0.38,0.26c-0.09,0.1-0.14,0.21-0.17,0.32c-0.03,0.11-0.04,0.27-0.04,0.47
						v1.64h-0.53V25.11z"/>
					<path d="M327.48,25.23c0.1,0.07,0.2,0.17,0.3,0.3v-0.4h0.49v2.85c0,0.4-0.06,0.71-0.17,0.94c-0.22,0.43-0.63,0.64-1.24,0.64
						c-0.34,0-0.62-0.08-0.85-0.23s-0.36-0.39-0.39-0.71h0.54c0.03,0.14,0.08,0.25,0.15,0.33c0.12,0.12,0.3,0.18,0.56,0.18
						c0.4,0,0.67-0.14,0.79-0.43c0.07-0.17,0.11-0.47,0.1-0.9c-0.11,0.16-0.23,0.28-0.38,0.36c-0.15,0.08-0.34,0.12-0.59,0.12
						c-0.34,0-0.63-0.12-0.89-0.36c-0.25-0.24-0.38-0.64-0.38-1.2c0-0.53,0.13-0.94,0.38-1.23s0.56-0.44,0.93-0.44
						C327.09,25.05,327.3,25.11,327.48,25.23z M327.55,25.8c-0.16-0.19-0.36-0.28-0.61-0.28c-0.37,0-0.62,0.17-0.76,0.52
						c-0.07,0.19-0.11,0.43-0.11,0.73c0,0.35,0.07,0.62,0.21,0.81c0.14,0.19,0.33,0.28,0.58,0.28c0.38,0,0.64-0.17,0.8-0.51
						c0.08-0.19,0.13-0.42,0.13-0.68C327.79,26.27,327.71,25.99,327.55,25.8z"/>
					<path d="M331.01,25.19c0.21,0.1,0.37,0.24,0.47,0.41c0.1,0.16,0.17,0.34,0.21,0.55c0.03,0.14,0.05,0.38,0.05,0.69h-2.28
						c0.01,0.32,0.08,0.58,0.22,0.77c0.14,0.19,0.36,0.29,0.65,0.29c0.27,0,0.49-0.09,0.65-0.27c0.09-0.11,0.16-0.23,0.19-0.37h0.52
						c-0.01,0.12-0.06,0.24-0.14,0.38c-0.08,0.14-0.16,0.26-0.26,0.35c-0.16,0.16-0.36,0.26-0.59,0.32
						c-0.13,0.03-0.27,0.05-0.43,0.05c-0.39,0-0.72-0.14-0.99-0.43c-0.27-0.29-0.4-0.68-0.4-1.19c0-0.5,0.14-0.91,0.41-1.23
						c0.27-0.31,0.63-0.47,1.07-0.47C330.59,25.04,330.81,25.09,331.01,25.19z M331.2,26.43c-0.02-0.23-0.07-0.41-0.15-0.55
						c-0.14-0.25-0.38-0.38-0.72-0.38c-0.24,0-0.44,0.09-0.6,0.26c-0.16,0.18-0.25,0.4-0.26,0.67H331.2z"/>
				</g>
			</g>
			<g id="patch_27">
				<path class="st36" d="M272.87,37.05h12v-4.2h-12V37.05z"/>
			</g>
			<g id="text_21">
				<g class="st2">
					<path d="M290.75,32.75v2.66c0,0.31,0.06,0.57,0.18,0.78c0.18,0.31,0.47,0.47,0.89,0.47c0.5,0,0.84-0.17,1.02-0.51
						c0.1-0.18,0.14-0.43,0.14-0.74v-2.66h0.59v2.42c0,0.53-0.07,0.94-0.21,1.22c-0.26,0.52-0.76,0.78-1.49,0.78
						c-0.73,0-1.22-0.26-1.48-0.78c-0.14-0.29-0.21-0.69-0.21-1.22v-2.42H290.75z"/>
					<path d="M294.39,33.91h0.5v0.45c0.15-0.18,0.31-0.32,0.47-0.4s0.35-0.12,0.55-0.12c0.45,0,0.75,0.16,0.9,0.47
						c0.09,0.17,0.13,0.41,0.13,0.73v2.01h-0.54v-1.98c0-0.19-0.03-0.35-0.08-0.46c-0.09-0.2-0.26-0.29-0.51-0.29
						c-0.12,0-0.23,0.01-0.31,0.04c-0.14,0.04-0.27,0.13-0.38,0.26c-0.09,0.1-0.15,0.21-0.17,0.32c-0.03,0.11-0.04,0.27-0.04,0.47
						v1.64h-0.53V33.91z"/>
					<path d="M299.79,34.08c0.22,0.17,0.36,0.47,0.4,0.89h-0.51c-0.03-0.19-0.1-0.35-0.21-0.48s-0.29-0.19-0.54-0.19
						c-0.34,0-0.58,0.16-0.72,0.49c-0.09,0.21-0.14,0.48-0.14,0.79c0,0.31,0.07,0.58,0.2,0.79c0.13,0.21,0.34,0.32,0.63,0.32
						c0.22,0,0.39-0.07,0.52-0.2c0.13-0.13,0.22-0.32,0.27-0.55h0.51c-0.06,0.42-0.21,0.72-0.44,0.91s-0.53,0.29-0.9,0.29
						c-0.41,0-0.74-0.15-0.98-0.45c-0.24-0.3-0.37-0.67-0.37-1.12c0-0.55,0.13-0.98,0.4-1.29s0.61-0.46,1.02-0.46
						C299.29,33.82,299.57,33.91,299.79,34.08z"/>
					<path d="M300.72,32.73h0.53v1.61c0.12-0.16,0.24-0.27,0.34-0.33c0.17-0.11,0.38-0.17,0.64-0.17c0.46,0,0.76,0.16,0.93,0.48
						c0.09,0.17,0.13,0.42,0.13,0.72v2.01h-0.54v-1.98c0-0.23-0.03-0.4-0.09-0.51c-0.1-0.17-0.28-0.26-0.54-0.26
						c-0.22,0-0.42,0.08-0.59,0.23s-0.27,0.43-0.27,0.85v1.66h-0.53V32.73z"/>
					<path d="M305.74,35.15c0.12-0.02,0.2-0.07,0.24-0.15c0.02-0.05,0.04-0.12,0.04-0.2c0-0.18-0.06-0.31-0.19-0.39
						c-0.13-0.08-0.31-0.12-0.55-0.12c-0.27,0-0.47,0.07-0.58,0.22c-0.06,0.08-0.11,0.21-0.12,0.37h-0.49
						c0.01-0.39,0.13-0.66,0.38-0.81c0.24-0.15,0.52-0.23,0.84-0.23c0.37,0,0.67,0.07,0.9,0.21c0.23,0.14,0.34,0.36,0.34,0.66v1.81
						c0,0.05,0.01,0.1,0.03,0.13s0.07,0.05,0.14,0.05c0.02,0,0.05,0,0.08,0c0.03,0,0.06-0.01,0.09-0.01v0.39
						c-0.08,0.02-0.14,0.04-0.19,0.04s-0.1,0.01-0.18,0.01c-0.18,0-0.31-0.06-0.4-0.19c-0.04-0.07-0.07-0.17-0.09-0.29
						c-0.11,0.14-0.26,0.26-0.46,0.37s-0.42,0.16-0.67,0.16c-0.29,0-0.53-0.09-0.71-0.26s-0.28-0.4-0.28-0.66
						c0-0.29,0.09-0.52,0.27-0.68s0.42-0.26,0.71-0.3L305.74,35.15z M304.63,36.58c0.11,0.09,0.24,0.13,0.4,0.13
						c0.19,0,0.37-0.04,0.54-0.13c0.29-0.14,0.44-0.38,0.44-0.7v-0.42c-0.06,0.04-0.15,0.08-0.25,0.1c-0.1,0.03-0.2,0.05-0.3,0.06
						l-0.32,0.04c-0.19,0.03-0.33,0.07-0.43,0.12c-0.16,0.09-0.24,0.24-0.24,0.44C304.46,36.37,304.52,36.49,304.63,36.58z"/>
					<path d="M307.4,33.91h0.5v0.45c0.15-0.18,0.31-0.32,0.47-0.4s0.35-0.12,0.55-0.12c0.45,0,0.75,0.16,0.9,0.47
						c0.09,0.17,0.13,0.41,0.13,0.73v2.01h-0.54v-1.98c0-0.19-0.03-0.35-0.08-0.46c-0.09-0.2-0.26-0.29-0.51-0.29
						c-0.12,0-0.23,0.01-0.31,0.04c-0.14,0.04-0.27,0.13-0.38,0.26c-0.09,0.1-0.15,0.21-0.17,0.32c-0.03,0.11-0.04,0.27-0.04,0.47
						v1.64h-0.53V33.91z"/>
					<path d="M312.48,34.04c0.1,0.07,0.2,0.17,0.3,0.3v-0.4h0.49v2.85c0,0.4-0.06,0.71-0.18,0.94c-0.22,0.43-0.63,0.64-1.23,0.64
						c-0.34,0-0.62-0.08-0.85-0.23c-0.23-0.15-0.36-0.39-0.39-0.71h0.54c0.03,0.14,0.08,0.25,0.15,0.33
						c0.12,0.12,0.3,0.18,0.56,0.18c0.4,0,0.67-0.14,0.79-0.43c0.07-0.17,0.11-0.47,0.1-0.9c-0.11,0.16-0.23,0.28-0.38,0.36
						c-0.15,0.08-0.34,0.12-0.59,0.12c-0.34,0-0.63-0.12-0.89-0.36c-0.25-0.24-0.38-0.64-0.38-1.2c0-0.53,0.13-0.94,0.38-1.23
						s0.56-0.44,0.93-0.44C312.08,33.86,312.29,33.92,312.48,34.04z M312.54,34.61c-0.16-0.19-0.36-0.28-0.61-0.28
						c-0.37,0-0.62,0.17-0.76,0.52c-0.07,0.19-0.11,0.43-0.11,0.73c0,0.35,0.07,0.62,0.21,0.81c0.14,0.19,0.33,0.28,0.58,0.28
						c0.38,0,0.64-0.17,0.79-0.51c0.09-0.19,0.13-0.42,0.13-0.68C312.78,35.08,312.7,34.79,312.54,34.61z"/>
					<path d="M316.01,34c0.21,0.1,0.37,0.24,0.47,0.41c0.11,0.16,0.17,0.34,0.21,0.55c0.03,0.14,0.05,0.38,0.05,0.69h-2.28
						c0.01,0.32,0.08,0.58,0.22,0.77c0.14,0.19,0.36,0.29,0.65,0.29c0.27,0,0.49-0.09,0.65-0.27c0.09-0.11,0.16-0.23,0.19-0.37h0.52
						c-0.01,0.12-0.06,0.24-0.14,0.38c-0.08,0.14-0.16,0.26-0.26,0.35c-0.16,0.16-0.36,0.26-0.59,0.32
						c-0.13,0.03-0.27,0.05-0.43,0.05c-0.39,0-0.72-0.14-0.99-0.43c-0.27-0.29-0.4-0.68-0.4-1.19c0-0.5,0.14-0.91,0.41-1.23
						s0.63-0.47,1.07-0.47C315.59,33.84,315.8,33.9,316.01,34z M316.2,35.23c-0.02-0.23-0.07-0.41-0.15-0.55
						c-0.14-0.25-0.38-0.38-0.72-0.38c-0.24,0-0.44,0.09-0.6,0.26c-0.16,0.18-0.25,0.4-0.26,0.67H316.2z"/>
					<path d="M319.13,34.01c0.09,0.06,0.2,0.16,0.32,0.31v-1.58h0.51v4.32h-0.47v-0.44c-0.12,0.19-0.27,0.33-0.43,0.42
						c-0.17,0.09-0.36,0.13-0.58,0.13c-0.35,0-0.65-0.15-0.91-0.44c-0.25-0.29-0.38-0.68-0.38-1.17c0-0.46,0.12-0.85,0.35-1.19
						c0.23-0.33,0.56-0.5,1-0.5C318.77,33.86,318.97,33.91,319.13,34.01z M317.95,36.36c0.14,0.23,0.37,0.34,0.68,0.34
						c0.24,0,0.44-0.1,0.6-0.32c0.16-0.21,0.23-0.51,0.23-0.9c0-0.4-0.08-0.69-0.24-0.88c-0.16-0.19-0.36-0.29-0.6-0.29
						c-0.26,0-0.48,0.1-0.64,0.3s-0.25,0.5-0.25,0.9C317.74,35.86,317.81,36.14,317.95,36.36z"/>
				</g>
			</g>
		</g>
	</g>
</g>
</svg>
