<?xml version="1.0" encoding="utf-8"?>
<!-- Generator: Adobe Illustrator 27.5.0, SVG Export Plug-In . SVG Version: 6.00 Build 0)  -->
<svg version="1.1" id="Layer_1" xmlns="http://www.w3.org/2000/svg" xmlns:xlink="http://www.w3.org/1999/xlink" x="0px" y="0px"
	 viewBox="0 0 297 180.72" style="enable-background:new 0 0 297 180.72;" xml:space="preserve">
<style type="text/css">
	.st0{fill:#FFFFFF;}
	.st1{fill:#FDAE6B;stroke:#FFFFFF;}
	.st2{fill:#B3DE69;stroke:#FFFFFF;}
	.st3{fill:#80B1D3;stroke:#FFFFFF;}
	.st4{fill:#FB8072;stroke:#FFFFFF;}
	.st5{fill:#BEBADA;stroke:#FFFFFF;}
	.st6{fill:#8DD3C7;stroke:#FFFFFF;}
	.st7{enable-background:new    ;}
</style>
<g id="figure_1">
	<g id="patch_1">
		<path class="st0" d="M0,180.72h297V0H0V180.72z"/>
	</g>
	<g id="axes_1">
		<g id="patch_2">
			<path class="st1" d="M154.28,14.76c-13.75,0-27.23,3.74-39.01,10.83S93.88,42.83,87.45,54.96l40.1,21.17
				c2.57-4.85,6.42-8.92,11.13-11.75c4.71-2.83,10.11-4.33,15.6-4.33V14.76z"/>
		</g>
		<g id="patch_3">
			<path class="st2" d="M87.45,54.96c-0.05,0.09-0.1,0.19-0.15,0.28s-0.1,0.19-0.15,0.28l40.27,20.83c0.02-0.04,0.04-0.07,0.06-0.11
				c0.02-0.04,0.04-0.07,0.06-0.11L87.45,54.96z"/>
		</g>
		<g id="patch_4">
			<path class="st3" d="M87.16,55.52c0,0.01-0.01,0.01-0.01,0.02s-0.01,0.01-0.01,0.02l40.28,20.81c0,0,0,0,0-0.01c0,0,0,0,0-0.01
				L87.16,55.52z"/>
		</g>
		<g id="patch_5">
			<path class="st1" d="M87.14,55.55c-0.54,1.05-1.06,2.11-1.56,3.18c-0.49,1.07-0.96,2.16-1.4,3.25l42.06,16.95
				c0.18-0.44,0.36-0.87,0.56-1.3c0.2-0.43,0.4-0.85,0.62-1.27L87.14,55.55z"/>
		</g>
		<g id="patch_6">
			<path class="st2" d="M84.18,61.99c-0.28,0.69-0.55,1.38-0.8,2.08c-0.26,0.7-0.51,1.4-0.74,2.1l42.99,14.44
				c0.09-0.28,0.19-0.56,0.3-0.84s0.21-0.56,0.32-0.83L84.18,61.99z"/>
		</g>
		<g id="patch_7">
			<path class="st3" d="M82.63,66.17c0,0.01-0.01,0.02-0.01,0.03c0,0.01-0.01,0.02-0.01,0.03l43,14.4c0,0,0-0.01,0-0.01
				c0,0,0-0.01,0-0.01L82.63,66.17z"/>
		</g>
		<g id="patch_8">
			<path class="st1" d="M82.61,66.24c-3.36,9.99-4.58,20.57-3.59,31.07c0.99,10.49,4.16,20.66,9.33,29.85l39.56-22.15
				c-2.06-3.68-3.34-7.74-3.73-11.94s0.09-8.43,1.44-12.43L82.61,66.24z"/>
		</g>
		<g id="patch_9">
			<path class="st2" d="M88.35,127.16c6.45,11.49,15.8,21.09,27.12,27.85c11.32,6.76,24.21,10.45,37.4,10.7
				c13.19,0.25,26.21-2.95,37.77-9.29c11.56-6.33,21.27-15.58,28.15-26.82s10.69-24.08,11.06-37.24c0.37-13.16-2.71-26.2-8.95-37.8
				s-15.4-21.38-26.59-28.35c-11.19-6.97-24.01-10.9-37.19-11.39l-1.7,45.26c5.27,0.2,10.4,1.77,14.88,4.56
				c4.48,2.79,8.14,6.7,10.64,11.34c2.49,4.64,3.73,9.86,3.58,15.12s-1.67,10.4-4.43,14.9c-2.75,4.49-6.63,8.19-11.26,10.73
				c-4.63,2.53-9.84,3.81-15.11,3.72s-10.43-1.57-14.96-4.28c-4.53-2.71-8.27-6.55-10.85-11.14L88.35,127.16z"/>
		</g>
		<g id="patch_10">
			<path class="st3" d="M157.11,14.81c-0.47-0.02-0.94-0.03-1.42-0.04s-0.94-0.01-1.42-0.01v45.29c0.19,0,0.38,0,0.57,0.01
				c0.19,0,0.38,0.01,0.57,0.02L157.11,14.81z"/>
		</g>
		<g id="patch_11">
			<path class="st4" d="M154.28,14.76c-13.86,0-27.46,3.81-39.3,11s-21.47,17.5-27.84,29.79L114,69.43
				c3.82-7.37,9.6-13.56,16.71-17.88c7.1-4.32,15.26-6.6,23.58-6.6V14.76z"/>
		</g>
		<g id="patch_12">
			<path class="st5" d="M87.14,55.55c-0.89,1.72-1.72,3.47-2.47,5.26c-0.76,1.78-1.44,3.59-2.06,5.43l28.67,9.6
				c0.37-1.1,0.78-2.19,1.24-3.26c0.45-1.07,0.95-2.12,1.48-3.15L87.14,55.55z"/>
		</g>
		<g id="patch_13">
			<path class="st6" d="M82.61,66.24c-2.53,7.52-3.85,15.4-3.92,23.33c-0.07,7.94,1.11,15.83,3.51,23.4
				c2.39,7.57,5.97,14.71,10.59,21.17c4.62,6.46,10.23,12.14,16.63,16.85c6.4,4.71,13.5,8.38,21.04,10.88
				c7.54,2.5,15.43,3.8,23.38,3.85s15.85-1.16,23.42-3.57c7.57-2.41,14.71-6,21.17-10.64c6.45-4.63,12.13-10.26,16.83-16.66
				s8.36-13.5,10.84-21.04s3.76-15.42,3.78-23.36s-1.21-15.83-3.64-23.38c-2.44-7.55-6.05-14.68-10.71-21.1
				c-4.66-6.43-10.31-12.08-16.73-16.75c-6.42-4.67-13.55-8.3-21.1-10.76s-15.45-3.71-23.4-3.71v30.19c4.77,0,9.51,0.75,14.04,2.22
				s8.81,3.65,12.66,6.46s7.24,6.2,10.04,10.05c2.8,3.86,4.97,8.13,6.43,12.66c1.46,4.53,2.2,9.27,2.19,14.03
				c-0.01,4.76-0.78,9.49-2.27,14.01c-1.49,4.52-3.68,8.78-6.5,12.62s-6.23,7.21-10.1,9.99s-8.16,4.93-12.7,6.38
				c-4.54,1.45-9.29,2.17-14.05,2.14s-9.5-0.81-14.03-2.31s-8.79-3.7-12.62-6.53c-3.84-2.83-7.21-6.24-9.98-10.11
				c-2.77-3.87-4.92-8.16-6.35-12.7c-1.44-4.54-2.15-9.28-2.1-14.04c0.04-4.76,0.84-9.49,2.35-14L82.61,66.24z"/>
		</g>
		<g id="matplotlib.axis_1">
		</g>
		<g id="matplotlib.axis_2">
		</g>
		<g id="text_1">
			<g class="st7">
				<path d="M77,12.3v0.6h-1.69v4.42h-0.69V12.9h-1.69v-0.6H77z"/>
				<path d="M79.45,13.66h0.68c-0.09,0.23-0.28,0.77-0.58,1.61c-0.22,0.63-0.41,1.14-0.56,1.54c-0.35,0.93-0.61,1.5-0.75,1.71
					s-0.4,0.31-0.75,0.31c-0.09,0-0.15,0-0.2-0.01c-0.05-0.01-0.1-0.02-0.17-0.04v-0.56c0.11,0.03,0.18,0.05,0.23,0.05
					c0.05,0.01,0.09,0.01,0.13,0.01c0.11,0,0.2-0.02,0.25-0.06c0.05-0.04,0.1-0.08,0.13-0.14c0.01-0.02,0.05-0.11,0.12-0.28
					c0.07-0.17,0.12-0.29,0.15-0.38l-1.35-3.77h0.7l0.98,2.98L79.45,13.66z"/>
				<path d="M80.61,13.68h0.6v0.49c0.12-0.17,0.26-0.29,0.4-0.39c0.21-0.14,0.45-0.21,0.73-0.21c0.42,0,0.77,0.16,1.06,0.48
					c0.29,0.32,0.44,0.77,0.44,1.36c0,0.8-0.21,1.37-0.63,1.71c-0.27,0.22-0.57,0.32-0.93,0.32c-0.28,0-0.51-0.06-0.7-0.18
					c-0.11-0.07-0.23-0.19-0.37-0.35v1.87h-0.62V13.68z M82.92,16.55c0.19-0.24,0.29-0.6,0.29-1.08c0-0.29-0.04-0.54-0.13-0.75
					c-0.16-0.4-0.45-0.6-0.88-0.6c-0.43,0-0.72,0.21-0.88,0.64c-0.08,0.23-0.13,0.52-0.13,0.87c0,0.28,0.04,0.52,0.13,0.72
					c0.16,0.38,0.45,0.57,0.88,0.57C82.49,16.91,82.73,16.79,82.92,16.55z"/>
				<path d="M86.81,13.76c0.24,0.12,0.43,0.28,0.55,0.47c0.12,0.18,0.2,0.4,0.24,0.65c0.04,0.17,0.05,0.44,0.05,0.81H85
					c0.01,0.37,0.1,0.67,0.26,0.9c0.16,0.22,0.41,0.34,0.76,0.34c0.32,0,0.57-0.11,0.76-0.32c0.11-0.12,0.18-0.27,0.23-0.43h0.6
					c-0.02,0.13-0.07,0.28-0.16,0.45c-0.09,0.17-0.19,0.3-0.3,0.41c-0.19,0.18-0.42,0.31-0.69,0.37c-0.15,0.04-0.31,0.05-0.5,0.05
					c-0.45,0-0.84-0.17-1.15-0.5c-0.31-0.33-0.47-0.8-0.47-1.39c0-0.59,0.16-1.07,0.48-1.43s0.73-0.55,1.24-0.55
					C86.32,13.58,86.57,13.64,86.81,13.76z M87.04,15.2c-0.02-0.27-0.08-0.48-0.17-0.64c-0.17-0.3-0.45-0.44-0.84-0.44
					c-0.28,0-0.52,0.1-0.71,0.31c-0.19,0.2-0.29,0.46-0.3,0.78H87.04z"/>
				<path d="M90.76,16.18c0.02,0.21,0.07,0.36,0.16,0.47c0.16,0.2,0.43,0.3,0.82,0.3c0.23,0,0.44-0.05,0.61-0.15
					c0.18-0.1,0.27-0.25,0.27-0.46c0-0.16-0.07-0.28-0.21-0.36c-0.09-0.05-0.27-0.11-0.53-0.17l-0.5-0.12
					c-0.32-0.08-0.55-0.16-0.7-0.26c-0.27-0.17-0.4-0.4-0.4-0.69c0-0.35,0.13-0.63,0.38-0.84c0.25-0.21,0.59-0.32,1.02-0.32
					c0.56,0,0.96,0.16,1.21,0.48c0.15,0.21,0.23,0.43,0.23,0.66h-0.58c-0.01-0.14-0.06-0.26-0.15-0.38
					c-0.14-0.16-0.4-0.24-0.75-0.24c-0.24,0-0.42,0.04-0.54,0.13s-0.18,0.21-0.18,0.35c0,0.16,0.08,0.29,0.24,0.38
					c0.09,0.06,0.23,0.11,0.41,0.15l0.41,0.1c0.45,0.11,0.75,0.21,0.91,0.31c0.24,0.16,0.36,0.4,0.36,0.74
					c0,0.33-0.12,0.61-0.38,0.84c-0.25,0.24-0.63,0.36-1.14,0.36c-0.55,0-0.94-0.12-1.17-0.37s-0.35-0.55-0.37-0.92H90.76z"/>
				<path d="M94.01,12.64h0.62v1.02h0.58v0.5h-0.58v2.39c0,0.13,0.04,0.21,0.13,0.26c0.05,0.03,0.13,0.04,0.24,0.04
					c0.03,0,0.06,0,0.1,0c0.03,0,0.07,0,0.12-0.01v0.49c-0.07,0.02-0.14,0.04-0.22,0.04c-0.08,0.01-0.16,0.01-0.25,0.01
					c-0.29,0-0.48-0.07-0.58-0.22c-0.1-0.15-0.15-0.34-0.15-0.57v-2.42h-0.5v-0.5h0.5V12.64z"/>
				<path d="M95.85,13.66h0.58v0.63c0.05-0.12,0.17-0.27,0.35-0.45s0.4-0.26,0.65-0.26c0.01,0,0.03,0,0.06,0s0.07,0.01,0.14,0.01
					v0.65c-0.04-0.01-0.07-0.01-0.1-0.01c-0.03,0-0.06,0-0.1,0c-0.31,0-0.55,0.1-0.71,0.3s-0.25,0.43-0.25,0.69v2.11h-0.62V13.66z"
					/>
				<path d="M100.13,15.11c0.14-0.02,0.24-0.08,0.28-0.18c0.03-0.05,0.04-0.13,0.04-0.24c0-0.21-0.07-0.36-0.22-0.46
					c-0.15-0.09-0.36-0.14-0.64-0.14c-0.32,0-0.55,0.09-0.68,0.26c-0.07,0.1-0.12,0.24-0.15,0.43h-0.57
					c0.01-0.45,0.16-0.77,0.44-0.94c0.28-0.18,0.61-0.27,0.98-0.27c0.43,0,0.78,0.08,1.05,0.25c0.27,0.16,0.4,0.42,0.4,0.77v2.11
					c0,0.06,0.01,0.12,0.04,0.15c0.03,0.04,0.08,0.06,0.17,0.06c0.03,0,0.06,0,0.09,0c0.03,0,0.07-0.01,0.11-0.02v0.46
					c-0.1,0.03-0.17,0.04-0.22,0.05s-0.12,0.01-0.21,0.01c-0.21,0-0.37-0.07-0.46-0.22c-0.05-0.08-0.09-0.19-0.11-0.34
					c-0.13,0.16-0.31,0.31-0.54,0.43c-0.23,0.12-0.49,0.18-0.78,0.18c-0.34,0-0.62-0.1-0.83-0.31C98.1,16.93,98,16.67,98,16.37
					c0-0.34,0.11-0.6,0.32-0.79s0.49-0.3,0.83-0.34L100.13,15.11z M98.83,16.77c0.13,0.1,0.28,0.15,0.46,0.15
					c0.22,0,0.43-0.05,0.63-0.15c0.34-0.17,0.51-0.44,0.51-0.82v-0.5c-0.08,0.05-0.17,0.09-0.29,0.12s-0.23,0.05-0.35,0.07
					l-0.37,0.05c-0.22,0.03-0.39,0.08-0.5,0.14c-0.19,0.11-0.29,0.28-0.29,0.51C98.64,16.53,98.7,16.67,98.83,16.77z"/>
				<path d="M102.06,12.3h0.62V13h-0.62V12.3z M102.06,13.68h0.62v3.64h-0.62V13.68z"/>
				<path d="M103.62,13.66h0.58v0.52c0.17-0.21,0.36-0.37,0.55-0.46s0.41-0.14,0.65-0.14c0.52,0,0.87,0.18,1.05,0.54
					c0.1,0.2,0.15,0.48,0.15,0.85v2.35h-0.63v-2.31c0-0.22-0.03-0.4-0.1-0.54c-0.11-0.23-0.31-0.34-0.6-0.34
					c-0.15,0-0.26,0.02-0.36,0.04c-0.17,0.05-0.32,0.15-0.44,0.3c-0.1,0.12-0.17,0.25-0.2,0.37c-0.03,0.13-0.05,0.31-0.05,0.55v1.92
					h-0.62V13.66z"/>
			</g>
			<g class="st7">
				<path d="M83.17,20.06c-0.36,0.7-0.59,1.21-0.7,1.54c-0.16,0.5-0.24,1.08-0.24,1.73c0,0.66,0.09,1.26,0.28,1.81
					c0.11,0.34,0.34,0.82,0.67,1.46h-0.41c-0.33-0.52-0.54-0.85-0.62-1c-0.08-0.14-0.17-0.34-0.26-0.58
					c-0.13-0.34-0.22-0.7-0.27-1.08c-0.02-0.2-0.04-0.39-0.04-0.57c0-0.67,0.11-1.27,0.32-1.8c0.13-0.33,0.41-0.84,0.84-1.5H83.17z"
					/>
				<path d="M84.1,21.7v-0.47c0.44-0.04,0.75-0.12,0.93-0.22s0.31-0.34,0.39-0.72h0.49v4.87h-0.66V21.7H84.1z"/>
				<path d="M89.65,25.16v-1.2H87.5v-0.6l2.24-3.11h0.52v3.18h0.72v0.54h-0.72v1.2H89.65z M89.64,23.43v-2.22l-1.57,2.22H89.64z"/>
				<path d="M91.8,25.88c0.16-0.03,0.27-0.14,0.33-0.33c0.03-0.1,0.05-0.2,0.05-0.3c0-0.02,0-0.03,0-0.04c0-0.01,0-0.03-0.01-0.04
					H91.8v-0.75h0.73v0.69c0,0.27-0.05,0.51-0.16,0.71s-0.3,0.33-0.57,0.38V25.88z"/>
				<path d="M93.83,22.3c-0.18-0.18-0.27-0.42-0.27-0.71c0-0.36,0.13-0.68,0.4-0.94c0.26-0.26,0.64-0.39,1.12-0.39
					c0.47,0,0.84,0.12,1.1,0.37s0.4,0.54,0.4,0.87c0,0.31-0.08,0.55-0.23,0.74c-0.09,0.11-0.22,0.21-0.4,0.31
					c0.2,0.09,0.36,0.2,0.48,0.32c0.22,0.23,0.33,0.52,0.33,0.89c0,0.43-0.14,0.79-0.43,1.09s-0.7,0.45-1.23,0.45
					c-0.48,0-0.88-0.13-1.21-0.39c-0.33-0.26-0.49-0.63-0.49-1.13c0-0.29,0.07-0.54,0.21-0.75s0.35-0.37,0.63-0.48
					C94.06,22.48,93.92,22.4,93.83,22.3z M95.81,24.51c0.19-0.15,0.28-0.38,0.28-0.69c0-0.32-0.1-0.56-0.29-0.72
					s-0.44-0.25-0.75-0.25c-0.29,0-0.53,0.08-0.72,0.25c-0.19,0.17-0.28,0.4-0.28,0.7c0,0.25,0.08,0.48,0.25,0.66
					c0.17,0.19,0.43,0.28,0.79,0.28C95.39,24.74,95.63,24.67,95.81,24.51z M95.7,22.09c0.15-0.15,0.23-0.33,0.23-0.54
					c0-0.18-0.07-0.35-0.22-0.5s-0.37-0.23-0.67-0.23c-0.3,0-0.51,0.08-0.64,0.23s-0.2,0.33-0.2,0.54c0,0.23,0.09,0.41,0.26,0.54
					s0.37,0.2,0.6,0.2C95.34,22.32,95.55,22.24,95.7,22.09z"/>
				<path d="M97.54,24.06c0.15-0.31,0.45-0.6,0.89-0.85l0.66-0.38c0.29-0.17,0.5-0.32,0.62-0.44c0.19-0.19,0.28-0.41,0.28-0.65
					c0-0.29-0.09-0.51-0.26-0.68s-0.4-0.25-0.68-0.25c-0.42,0-0.71,0.16-0.88,0.48c-0.09,0.17-0.13,0.41-0.14,0.71h-0.63
					c0.01-0.43,0.09-0.77,0.24-1.04c0.27-0.47,0.74-0.71,1.41-0.71c0.56,0,0.97,0.15,1.23,0.46c0.26,0.3,0.39,0.64,0.39,1.01
					c0,0.39-0.14,0.73-0.41,1c-0.16,0.16-0.45,0.36-0.86,0.59l-0.47,0.26c-0.22,0.12-0.4,0.24-0.53,0.35
					c-0.23,0.2-0.37,0.42-0.43,0.66h2.67v0.58h-3.36C97.3,24.74,97.38,24.37,97.54,24.06z"/>
				<path d="M104.14,20.67c0.22,0.28,0.32,0.58,0.32,0.88h-0.61c-0.04-0.19-0.09-0.34-0.17-0.45c-0.15-0.21-0.37-0.31-0.67-0.31
					c-0.34,0-0.62,0.16-0.82,0.48c-0.2,0.32-0.32,0.77-0.34,1.37c0.14-0.21,0.32-0.36,0.53-0.46c0.2-0.09,0.41-0.14,0.66-0.14
					c0.41,0,0.77,0.13,1.07,0.39s0.46,0.65,0.46,1.17c0,0.44-0.14,0.84-0.43,1.18s-0.7,0.51-1.24,0.51c-0.46,0-0.85-0.17-1.19-0.52
					s-0.5-0.93-0.5-1.76c0-0.61,0.07-1.12,0.22-1.55c0.28-0.81,0.81-1.22,1.56-1.22C103.54,20.25,103.92,20.39,104.14,20.67z
					 M103.68,24.42c0.16-0.22,0.24-0.47,0.24-0.77c0-0.25-0.07-0.49-0.22-0.72s-0.4-0.34-0.78-0.34c-0.26,0-0.5,0.09-0.7,0.26
					c-0.2,0.18-0.3,0.44-0.3,0.79c0,0.31,0.09,0.57,0.27,0.78c0.18,0.21,0.43,0.32,0.75,0.32
					C103.28,24.74,103.52,24.63,103.68,24.42z"/>
				<path d="M105.08,26.59c0.36-0.71,0.6-1.22,0.7-1.54c0.16-0.49,0.24-1.06,0.24-1.72s-0.09-1.26-0.28-1.81
					c-0.11-0.34-0.34-0.82-0.67-1.46h0.41c0.35,0.56,0.56,0.91,0.64,1.04c0.07,0.13,0.15,0.31,0.24,0.54
					c0.11,0.28,0.19,0.57,0.23,0.84c0.05,0.28,0.07,0.55,0.07,0.8c0,0.67-0.11,1.28-0.32,1.8c-0.13,0.34-0.41,0.84-0.84,1.5H105.08z
					"/>
			</g>
		</g>
		<g id="text_2">
			<g class="st7">
				<path d="M113.59,37.12v-0.47c0.44-0.04,0.75-0.12,0.93-0.22s0.31-0.34,0.39-0.72h0.49v4.87h-0.66v-3.47H113.59z"/>
				<path d="M120.47,35.78v0.54c-0.16,0.15-0.37,0.42-0.63,0.8c-0.26,0.38-0.49,0.79-0.69,1.22c-0.2,0.43-0.35,0.81-0.45,1.17
					c-0.07,0.22-0.15,0.59-0.26,1.09h-0.68c0.15-0.93,0.5-1.86,1.03-2.79c0.31-0.54,0.64-1.01,0.98-1.4h-2.71v-0.62H120.47z"/>
				<path d="M121.31,39.84h0.71v0.75h-0.71V39.84z"/>
				<path d="M124.98,40.59v-1.2h-2.15v-0.6l2.24-3.11h0.52v3.18h0.72v0.54h-0.72v1.2H124.98z M124.97,38.86v-2.22l-1.57,2.22H124.97
					z"/>
				<path d="M128.8,36.19c0.23,0.23,0.35,0.51,0.35,0.84s-0.12,0.61-0.35,0.84s-0.51,0.35-0.84,0.35c-0.33,0-0.61-0.12-0.84-0.35
					s-0.35-0.51-0.35-0.84s0.12-0.61,0.35-0.84s0.51-0.35,0.84-0.35C128.29,35.84,128.57,35.96,128.8,36.19z M128.46,37.53
					c0.14-0.14,0.21-0.3,0.21-0.5s-0.07-0.36-0.21-0.5c-0.14-0.14-0.31-0.21-0.5-0.21c-0.19,0-0.36,0.07-0.5,0.21
					c-0.14,0.14-0.21,0.3-0.21,0.5c0,0.19,0.07,0.36,0.21,0.5c0.14,0.14,0.3,0.21,0.5,0.21C128.16,37.74,128.32,37.67,128.46,37.53z
					 M130.82,35.71h0.38l-2.74,5h-0.38L130.82,35.71z M132.16,38.56c0.23,0.23,0.35,0.51,0.35,0.84c0,0.33-0.12,0.61-0.35,0.84
					c-0.23,0.23-0.51,0.35-0.84,0.35c-0.33,0-0.61-0.12-0.84-0.35c-0.23-0.23-0.35-0.51-0.35-0.84c0-0.33,0.12-0.61,0.35-0.84
					s0.51-0.35,0.84-0.35C131.64,38.21,131.92,38.32,132.16,38.56z M131.81,39.9c0.14-0.14,0.21-0.3,0.21-0.5s-0.07-0.36-0.21-0.5
					c-0.14-0.14-0.3-0.21-0.5-0.21c-0.2,0-0.36,0.07-0.5,0.21c-0.14,0.14-0.21,0.3-0.21,0.5s0.07,0.36,0.21,0.5
					c0.14,0.14,0.31,0.21,0.5,0.21C131.51,40.1,131.68,40.03,131.81,39.9z"/>
			</g>
		</g>
		<g id="text_3">
			<g class="st7">
				<path d="M7.73,50.86h0.68v4.42h2.52v0.6h-3.2V50.86z"/>
				<path d="M13.51,53.66c0.14-0.02,0.24-0.08,0.28-0.18c0.03-0.05,0.04-0.13,0.04-0.24c0-0.21-0.07-0.36-0.22-0.46
					c-0.15-0.09-0.36-0.14-0.64-0.14c-0.32,0-0.55,0.09-0.68,0.26c-0.07,0.1-0.12,0.24-0.15,0.43h-0.57
					c0.01-0.45,0.16-0.77,0.44-0.94c0.28-0.18,0.61-0.27,0.98-0.27c0.43,0,0.78,0.08,1.05,0.25c0.27,0.16,0.4,0.42,0.4,0.77v2.11
					c0,0.06,0.01,0.12,0.04,0.15c0.03,0.04,0.08,0.06,0.17,0.06c0.03,0,0.06,0,0.09,0c0.03,0,0.07-0.01,0.11-0.02v0.46
					c-0.1,0.03-0.17,0.04-0.22,0.05s-0.12,0.01-0.21,0.01c-0.21,0-0.37-0.07-0.46-0.22c-0.05-0.08-0.09-0.19-0.11-0.34
					c-0.13,0.16-0.31,0.31-0.54,0.43C13.07,55.94,12.81,56,12.53,56c-0.34,0-0.62-0.1-0.83-0.31c-0.22-0.21-0.32-0.46-0.32-0.77
					c0-0.34,0.11-0.6,0.32-0.79s0.49-0.3,0.83-0.34L13.51,53.66z M12.21,55.33c0.13,0.1,0.28,0.15,0.46,0.15
					c0.22,0,0.43-0.05,0.63-0.15c0.34-0.17,0.51-0.44,0.51-0.82v-0.5c-0.08,0.05-0.17,0.09-0.29,0.12s-0.23,0.05-0.35,0.07
					l-0.37,0.05c-0.22,0.03-0.39,0.08-0.5,0.14c-0.19,0.11-0.29,0.28-0.29,0.51C12.02,55.08,12.08,55.22,12.21,55.33z"/>
				<path d="M15.56,51.2h0.62v1.02h0.58v0.5h-0.58v2.39c0,0.13,0.04,0.21,0.13,0.26c0.05,0.03,0.13,0.04,0.24,0.04
					c0.03,0,0.06,0,0.1,0c0.03,0,0.07,0,0.12-0.01v0.49c-0.07,0.02-0.14,0.04-0.22,0.04c-0.08,0.01-0.16,0.01-0.25,0.01
					c-0.29,0-0.48-0.07-0.58-0.22c-0.1-0.15-0.15-0.34-0.15-0.57v-2.42h-0.5v-0.5h0.5V51.2z"/>
				<path d="M17.38,50.86h0.63v0.7h-0.63V50.86z M17.38,52.24h0.63v3.64h-0.63V52.24z"/>
				<path d="M18.94,52.22h0.58v0.52c0.17-0.21,0.36-0.37,0.55-0.46s0.41-0.14,0.65-0.14c0.52,0,0.87,0.18,1.05,0.54
					c0.1,0.2,0.15,0.48,0.15,0.85v2.35H21.3v-2.31c0-0.22-0.03-0.4-0.1-0.54c-0.11-0.23-0.31-0.34-0.59-0.34
					c-0.15,0-0.27,0.02-0.36,0.04c-0.17,0.05-0.32,0.15-0.44,0.3c-0.1,0.12-0.17,0.25-0.2,0.37c-0.03,0.13-0.05,0.31-0.05,0.55v1.92
					h-0.62V52.22z"/>
				<path d="M22.96,56.6c0.16-0.03,0.27-0.14,0.33-0.33c0.03-0.1,0.05-0.2,0.05-0.3c0-0.02,0-0.03,0-0.04c0-0.01,0-0.03-0.01-0.04
					h-0.37v-0.75h0.73v0.69c0,0.27-0.05,0.51-0.16,0.71s-0.3,0.33-0.57,0.38V56.6z"/>
				<path d="M26.72,52.22h0.58v0.52c0.17-0.21,0.36-0.37,0.55-0.46s0.41-0.14,0.65-0.14c0.52,0,0.87,0.18,1.05,0.54
					c0.1,0.2,0.15,0.48,0.15,0.85v2.35h-0.63v-2.31c0-0.22-0.03-0.4-0.1-0.54c-0.11-0.23-0.31-0.34-0.59-0.34
					c-0.15,0-0.27,0.02-0.36,0.04c-0.17,0.05-0.32,0.15-0.44,0.3c-0.1,0.12-0.17,0.25-0.2,0.37c-0.03,0.13-0.05,0.31-0.05,0.55v1.92
					h-0.62V52.22z"/>
				<path d="M33.27,52.58c0.32,0.31,0.49,0.78,0.49,1.39c0,0.59-0.14,1.08-0.43,1.46S32.6,56.01,32,56.01c-0.5,0-0.9-0.17-1.19-0.51
					c-0.29-0.34-0.44-0.8-0.44-1.37c0-0.61,0.15-1.1,0.46-1.47s0.73-0.55,1.25-0.55C32.55,52.11,32.94,52.27,33.27,52.58z
					 M32.88,55.02c0.15-0.31,0.22-0.65,0.22-1.03c0-0.34-0.05-0.62-0.16-0.83c-0.17-0.34-0.47-0.51-0.89-0.51
					c-0.37,0-0.64,0.14-0.81,0.43S31,53.71,31,54.12c0,0.39,0.08,0.71,0.25,0.97s0.44,0.39,0.8,0.39
					C32.46,55.48,32.73,55.33,32.88,55.02z"/>
				<path d="M36.57,51.2h0.62v1.02h0.58v0.5H37.2v2.39c0,0.13,0.04,0.21,0.13,0.26c0.05,0.03,0.13,0.04,0.24,0.04
					c0.03,0,0.06,0,0.1,0c0.03,0,0.07,0,0.12-0.01v0.49c-0.07,0.02-0.14,0.04-0.22,0.04c-0.08,0.01-0.16,0.01-0.25,0.01
					c-0.29,0-0.48-0.07-0.58-0.22c-0.1-0.15-0.15-0.34-0.15-0.57v-2.42h-0.5v-0.5h0.5V51.2z"/>
				<path d="M40.68,52.22h0.68c-0.09,0.23-0.28,0.77-0.58,1.61c-0.22,0.63-0.41,1.14-0.56,1.54c-0.35,0.93-0.61,1.5-0.75,1.71
					s-0.4,0.31-0.75,0.31c-0.09,0-0.15,0-0.2-0.01s-0.1-0.02-0.17-0.04v-0.56c0.11,0.03,0.18,0.05,0.23,0.05
					c0.05,0.01,0.09,0.01,0.13,0.01c0.11,0,0.2-0.02,0.25-0.06c0.05-0.04,0.1-0.08,0.13-0.14c0.01-0.02,0.05-0.11,0.12-0.28
					c0.07-0.17,0.12-0.29,0.15-0.38l-1.35-3.77h0.7l0.98,2.98L40.68,52.22z"/>
				<path d="M41.84,52.24h0.6v0.49c0.12-0.17,0.26-0.29,0.4-0.39c0.21-0.14,0.45-0.21,0.73-0.21c0.42,0,0.77,0.16,1.06,0.48
					c0.29,0.32,0.43,0.77,0.43,1.36c0,0.8-0.21,1.37-0.63,1.71C44.18,55.89,43.88,56,43.52,56c-0.28,0-0.51-0.06-0.7-0.18
					c-0.11-0.07-0.23-0.19-0.37-0.35v1.87h-0.62V52.24z M44.16,55.1c0.19-0.24,0.29-0.6,0.29-1.08c0-0.29-0.04-0.54-0.13-0.75
					c-0.16-0.4-0.45-0.6-0.88-0.6c-0.43,0-0.72,0.21-0.88,0.64c-0.08,0.23-0.13,0.52-0.13,0.87c0,0.28,0.04,0.52,0.13,0.72
					c0.16,0.38,0.45,0.57,0.88,0.57C43.73,55.47,43.97,55.35,44.16,55.1z"/>
				<path d="M48.05,52.32c0.24,0.12,0.43,0.28,0.55,0.47c0.12,0.18,0.2,0.4,0.25,0.65c0.04,0.17,0.05,0.44,0.05,0.81h-2.66
					c0.01,0.37,0.1,0.67,0.26,0.9c0.16,0.22,0.42,0.34,0.76,0.34c0.32,0,0.57-0.11,0.76-0.32c0.11-0.12,0.18-0.27,0.23-0.43h0.61
					c-0.02,0.13-0.07,0.28-0.16,0.45s-0.19,0.3-0.3,0.41c-0.19,0.18-0.42,0.31-0.69,0.37c-0.15,0.04-0.31,0.05-0.5,0.05
					c-0.45,0-0.84-0.17-1.15-0.5c-0.31-0.33-0.47-0.8-0.47-1.39c0-0.59,0.16-1.07,0.48-1.43c0.32-0.37,0.73-0.55,1.24-0.55
					C47.56,52.14,47.81,52.2,48.05,52.32z M48.27,53.76c-0.02-0.27-0.08-0.48-0.17-0.64c-0.17-0.3-0.45-0.44-0.84-0.44
					c-0.28,0-0.52,0.1-0.71,0.31s-0.29,0.46-0.3,0.78H48.27z"/>
				<path d="M51.99,54.73c0.02,0.21,0.07,0.36,0.16,0.47c0.16,0.2,0.43,0.3,0.82,0.3c0.23,0,0.44-0.05,0.61-0.15
					c0.18-0.1,0.26-0.25,0.26-0.46c0-0.16-0.07-0.28-0.21-0.36c-0.09-0.05-0.27-0.11-0.54-0.17l-0.5-0.12
					c-0.32-0.08-0.55-0.16-0.7-0.26c-0.27-0.17-0.4-0.4-0.4-0.69c0-0.35,0.13-0.63,0.38-0.84c0.25-0.21,0.59-0.32,1.02-0.32
					c0.56,0,0.96,0.16,1.21,0.48c0.15,0.21,0.23,0.43,0.23,0.66h-0.58c-0.01-0.14-0.06-0.26-0.15-0.38
					c-0.14-0.16-0.39-0.24-0.75-0.24c-0.24,0-0.42,0.04-0.54,0.13c-0.12,0.09-0.18,0.21-0.18,0.35c0,0.16,0.08,0.29,0.24,0.38
					c0.09,0.06,0.23,0.11,0.41,0.15l0.42,0.1c0.45,0.11,0.75,0.21,0.91,0.31c0.24,0.16,0.36,0.4,0.36,0.74
					c0,0.33-0.13,0.61-0.38,0.84c-0.25,0.24-0.63,0.36-1.14,0.36c-0.55,0-0.94-0.12-1.17-0.37s-0.35-0.55-0.37-0.92H51.99z"/>
				<path d="M55.25,51.2h0.62v1.02h0.58v0.5h-0.58v2.39c0,0.13,0.04,0.21,0.13,0.26c0.05,0.03,0.13,0.04,0.24,0.04
					c0.03,0,0.06,0,0.1,0c0.03,0,0.07,0,0.12-0.01v0.49c-0.07,0.02-0.14,0.04-0.22,0.04c-0.08,0.01-0.16,0.01-0.25,0.01
					c-0.29,0-0.48-0.07-0.58-0.22c-0.1-0.15-0.15-0.34-0.15-0.57v-2.42h-0.5v-0.5h0.5V51.2z"/>
				<path d="M57.09,52.22h0.58v0.63c0.05-0.12,0.17-0.27,0.35-0.45c0.19-0.18,0.4-0.26,0.65-0.26c0.01,0,0.03,0,0.06,0
					s0.07,0.01,0.14,0.01v0.65c-0.04-0.01-0.07-0.01-0.1-0.01c-0.03,0-0.06,0-0.1,0c-0.31,0-0.55,0.1-0.71,0.3s-0.25,0.43-0.25,0.69
					v2.11h-0.62V52.22z"/>
				<path d="M61.37,53.66c0.14-0.02,0.24-0.08,0.28-0.18c0.03-0.05,0.04-0.13,0.04-0.24c0-0.21-0.08-0.36-0.22-0.46
					c-0.15-0.09-0.36-0.14-0.64-0.14c-0.32,0-0.55,0.09-0.68,0.26c-0.08,0.1-0.12,0.24-0.15,0.43h-0.57
					c0.01-0.45,0.16-0.77,0.44-0.94c0.28-0.18,0.61-0.27,0.98-0.27c0.43,0,0.78,0.08,1.05,0.25c0.27,0.16,0.4,0.42,0.4,0.77v2.11
					c0,0.06,0.01,0.12,0.04,0.15c0.03,0.04,0.08,0.06,0.17,0.06c0.03,0,0.06,0,0.09,0c0.04,0,0.07-0.01,0.11-0.02v0.46
					c-0.1,0.03-0.17,0.04-0.22,0.05c-0.05,0.01-0.12,0.01-0.21,0.01c-0.21,0-0.37-0.07-0.46-0.22c-0.05-0.08-0.09-0.19-0.11-0.34
					c-0.13,0.16-0.31,0.31-0.54,0.43C60.93,55.94,60.67,56,60.39,56c-0.34,0-0.62-0.1-0.83-0.31c-0.22-0.21-0.32-0.46-0.32-0.77
					c0-0.34,0.11-0.6,0.32-0.79c0.21-0.19,0.49-0.3,0.83-0.34L61.37,53.66z M60.07,55.33c0.13,0.1,0.28,0.15,0.46,0.15
					c0.22,0,0.43-0.05,0.63-0.15c0.34-0.17,0.51-0.44,0.51-0.82v-0.5c-0.08,0.05-0.17,0.09-0.29,0.12s-0.23,0.05-0.35,0.07
					l-0.37,0.05c-0.22,0.03-0.39,0.08-0.5,0.14c-0.19,0.11-0.29,0.28-0.29,0.51C59.88,55.08,59.94,55.22,60.07,55.33z"/>
				<path d="M63.3,50.86h0.62v0.7H63.3V50.86z M63.3,52.24h0.62v3.64H63.3V52.24z"/>
				<path d="M64.85,52.22h0.58v0.52c0.17-0.21,0.36-0.37,0.55-0.46s0.41-0.14,0.65-0.14c0.52,0,0.87,0.18,1.05,0.54
					c0.1,0.2,0.15,0.48,0.15,0.85v2.35h-0.63v-2.31c0-0.22-0.03-0.4-0.1-0.54c-0.11-0.23-0.31-0.34-0.6-0.34
					c-0.15,0-0.26,0.02-0.36,0.04c-0.17,0.05-0.32,0.15-0.44,0.3c-0.1,0.12-0.17,0.25-0.2,0.37c-0.03,0.13-0.05,0.31-0.05,0.55v1.92
					h-0.62V52.22z"/>
			</g>
			<g class="st7">
				<path d="M54.28,58.61c-0.36,0.7-0.59,1.21-0.7,1.54c-0.16,0.5-0.24,1.08-0.24,1.73c0,0.66,0.09,1.26,0.28,1.81
					c0.11,0.34,0.34,0.82,0.67,1.46h-0.41c-0.33-0.52-0.54-0.85-0.62-1c-0.08-0.14-0.17-0.34-0.26-0.58
					c-0.13-0.34-0.22-0.7-0.27-1.08c-0.02-0.2-0.04-0.39-0.04-0.57c0-0.67,0.11-1.27,0.32-1.8c0.13-0.33,0.41-0.84,0.84-1.5H54.28z"
					/>
				<path d="M55.02,62.62c0.15-0.31,0.45-0.6,0.89-0.85l0.66-0.38c0.29-0.17,0.5-0.32,0.62-0.44c0.19-0.19,0.28-0.41,0.28-0.65
					c0-0.29-0.09-0.51-0.26-0.68s-0.4-0.25-0.68-0.25c-0.42,0-0.71,0.16-0.88,0.48c-0.09,0.17-0.13,0.41-0.14,0.71h-0.63
					c0.01-0.43,0.09-0.77,0.24-1.04c0.27-0.47,0.74-0.71,1.41-0.71c0.56,0,0.97,0.15,1.23,0.46c0.26,0.3,0.39,0.64,0.39,1.01
					c0,0.39-0.14,0.73-0.41,1c-0.16,0.16-0.45,0.36-0.86,0.59l-0.47,0.26c-0.22,0.12-0.4,0.24-0.53,0.35
					c-0.23,0.2-0.37,0.42-0.43,0.66h2.67v0.58h-3.36C54.78,63.3,54.87,62.93,55.02,62.62z"/>
				<path d="M59.01,64.44c0.16-0.03,0.27-0.14,0.33-0.33c0.03-0.1,0.05-0.2,0.05-0.3c0-0.02,0-0.03,0-0.04c0-0.01,0-0.03-0.01-0.04
					h-0.37v-0.75h0.73v0.69c0,0.27-0.05,0.51-0.16,0.71s-0.3,0.33-0.57,0.38V64.44z"/>
				<path d="M63.65,59.61c0.22,0.4,0.33,0.96,0.33,1.66c0,0.67-0.1,1.22-0.3,1.65c-0.29,0.62-0.76,0.94-1.41,0.94
					c-0.59,0-1.03-0.25-1.31-0.77c-0.24-0.43-0.36-1-0.36-1.71c0-0.56,0.07-1.03,0.22-1.43c0.27-0.74,0.76-1.11,1.46-1.11
					C62.9,58.82,63.36,59.08,63.65,59.61z M63.03,62.87c0.19-0.28,0.28-0.81,0.28-1.58c0-0.56-0.07-1.01-0.21-1.37
					c-0.14-0.36-0.4-0.54-0.8-0.54c-0.36,0-0.63,0.17-0.8,0.51c-0.17,0.34-0.25,0.84-0.25,1.51c0,0.5,0.05,0.9,0.16,1.2
					c0.16,0.46,0.44,0.69,0.84,0.69C62.58,63.29,62.84,63.15,63.03,62.87z"/>
				<path d="M64.94,60.85c-0.18-0.18-0.27-0.42-0.27-0.71c0-0.36,0.13-0.68,0.4-0.94c0.26-0.26,0.64-0.39,1.12-0.39
					c0.47,0,0.84,0.12,1.1,0.37s0.4,0.54,0.4,0.87c0,0.31-0.08,0.55-0.23,0.74c-0.09,0.11-0.22,0.21-0.4,0.31
					c0.2,0.09,0.36,0.2,0.48,0.32c0.22,0.23,0.33,0.52,0.33,0.89c0,0.43-0.14,0.79-0.43,1.09s-0.7,0.45-1.23,0.45
					c-0.48,0-0.88-0.13-1.21-0.39c-0.33-0.26-0.49-0.63-0.49-1.13c0-0.29,0.07-0.54,0.21-0.75s0.35-0.37,0.63-0.48
					C65.17,61.04,65.03,60.95,64.94,60.85z M66.92,63.07c0.19-0.15,0.28-0.38,0.28-0.69c0-0.32-0.1-0.56-0.29-0.72
					s-0.44-0.25-0.75-0.25c-0.29,0-0.53,0.08-0.72,0.25c-0.19,0.17-0.28,0.4-0.28,0.7c0,0.25,0.08,0.48,0.25,0.66
					c0.17,0.19,0.43,0.28,0.79,0.28C66.5,63.3,66.73,63.22,66.92,63.07z M66.81,60.65c0.15-0.15,0.23-0.33,0.23-0.54
					c0-0.18-0.07-0.35-0.22-0.5s-0.37-0.23-0.67-0.23c-0.3,0-0.51,0.08-0.64,0.23s-0.2,0.33-0.2,0.54c0,0.23,0.09,0.41,0.26,0.54
					s0.37,0.2,0.6,0.2C66.44,60.87,66.66,60.8,66.81,60.65z"/>
				<path d="M71.82,58.91v0.54c-0.16,0.15-0.37,0.42-0.63,0.8c-0.26,0.38-0.49,0.79-0.69,1.22c-0.2,0.43-0.35,0.81-0.45,1.17
					c-0.07,0.22-0.15,0.59-0.26,1.09h-0.68c0.15-0.93,0.5-1.86,1.03-2.79c0.31-0.54,0.64-1.01,0.98-1.4h-2.71v-0.62H71.82z"/>
				<path d="M72.3,65.15c0.36-0.71,0.6-1.22,0.7-1.54c0.16-0.49,0.24-1.06,0.24-1.72s-0.09-1.26-0.28-1.81
					c-0.11-0.34-0.34-0.82-0.67-1.46h0.41c0.35,0.56,0.56,0.91,0.64,1.04c0.07,0.13,0.15,0.31,0.24,0.54
					c0.11,0.28,0.19,0.57,0.23,0.84c0.05,0.28,0.07,0.55,0.07,0.8c0,0.67-0.11,1.28-0.32,1.8c-0.13,0.34-0.41,0.84-0.84,1.5H72.3z"
					/>
			</g>
		</g>
		<g id="text_4">
			<g class="st7">
				<path d="M91.1,67.53c0.15-0.31,0.45-0.6,0.89-0.85l0.66-0.38c0.29-0.17,0.5-0.32,0.62-0.44c0.19-0.19,0.28-0.41,0.28-0.65
					c0-0.29-0.09-0.51-0.26-0.68s-0.4-0.25-0.68-0.25c-0.42,0-0.71,0.16-0.88,0.48c-0.09,0.17-0.13,0.41-0.14,0.71h-0.63
					c0.01-0.43,0.09-0.77,0.24-1.04c0.27-0.47,0.74-0.71,1.41-0.71c0.56,0,0.97,0.15,1.23,0.46c0.26,0.3,0.39,0.64,0.39,1.01
					c0,0.39-0.14,0.73-0.41,1c-0.16,0.16-0.45,0.36-0.86,0.59l-0.47,0.26c-0.22,0.12-0.4,0.24-0.53,0.35
					c-0.23,0.2-0.37,0.42-0.43,0.66h2.67v0.58h-3.36C90.86,68.21,90.94,67.84,91.1,67.53z"/>
				<path d="M95.11,67.88h0.71v0.75h-0.71V67.88z"/>
				<path d="M98.78,68.63v-1.2h-2.15v-0.6l2.24-3.11h0.52v3.18h0.72v0.54h-0.72v1.2H98.78z M98.77,66.9v-2.22L97.2,66.9H98.77z"/>
				<path d="M102.61,64.23c0.23,0.23,0.35,0.51,0.35,0.84s-0.12,0.61-0.35,0.84s-0.51,0.35-0.84,0.35c-0.33,0-0.61-0.12-0.84-0.35
					s-0.35-0.51-0.35-0.84s0.12-0.61,0.35-0.84s0.51-0.35,0.84-0.35C102.09,63.88,102.37,64,102.61,64.23z M102.26,65.57
					c0.14-0.14,0.21-0.3,0.21-0.5s-0.07-0.36-0.21-0.5c-0.14-0.14-0.31-0.21-0.5-0.21c-0.19,0-0.36,0.07-0.5,0.21
					c-0.14,0.14-0.21,0.3-0.21,0.5c0,0.19,0.07,0.36,0.21,0.5c0.14,0.14,0.3,0.21,0.5,0.21C101.96,65.78,102.12,65.71,102.26,65.57z
					 M104.62,63.75H105l-2.74,5h-0.38L104.62,63.75z M105.96,66.6c0.23,0.23,0.35,0.51,0.35,0.84c0,0.33-0.12,0.61-0.35,0.84
					c-0.23,0.23-0.51,0.35-0.84,0.35c-0.33,0-0.61-0.12-0.84-0.35c-0.23-0.23-0.35-0.51-0.35-0.84c0-0.33,0.12-0.61,0.35-0.84
					s0.51-0.35,0.84-0.35C105.45,66.25,105.73,66.36,105.96,66.6z M105.62,67.94c0.14-0.14,0.21-0.3,0.21-0.5s-0.07-0.36-0.21-0.5
					c-0.14-0.14-0.3-0.21-0.5-0.21c-0.2,0-0.36,0.07-0.5,0.21c-0.14,0.14-0.21,0.3-0.21,0.5s0.07,0.36,0.21,0.5
					c0.14,0.14,0.31,0.21,0.5,0.21C105.31,68.14,105.48,68.07,105.62,67.94z"/>
			</g>
		</g>
		<g id="text_5">
			<g class="st7">
				<path d="M203.44,150.64h2.25c0.44,0,0.8,0.13,1.08,0.38c0.27,0.25,0.41,0.61,0.41,1.06c0,0.39-0.12,0.73-0.37,1.02
					c-0.24,0.29-0.62,0.44-1.12,0.44h-1.57v2.12h-0.68V150.64z M206.07,151.33c-0.15-0.07-0.35-0.11-0.61-0.11h-1.34v1.74h1.34
					c0.3,0,0.55-0.06,0.74-0.19c0.19-0.13,0.28-0.36,0.28-0.69C206.48,151.71,206.35,151.46,206.07,151.33z"/>
				<path d="M207.98,150.64h0.62v5.02h-0.62V150.64z"/>
				<path d="M211.48,153.44c0.14-0.02,0.24-0.08,0.28-0.18c0.03-0.05,0.04-0.13,0.04-0.24c0-0.21-0.07-0.36-0.22-0.46
					c-0.15-0.09-0.36-0.14-0.64-0.14c-0.32,0-0.55,0.09-0.68,0.26c-0.08,0.1-0.12,0.24-0.15,0.43h-0.57
					c0.01-0.45,0.16-0.77,0.44-0.94c0.28-0.18,0.61-0.27,0.98-0.27c0.43,0,0.78,0.08,1.05,0.25c0.27,0.16,0.4,0.42,0.4,0.77v2.11
					c0,0.06,0.01,0.12,0.04,0.15c0.03,0.04,0.08,0.06,0.17,0.06c0.03,0,0.06,0,0.09,0c0.03,0,0.07-0.01,0.11-0.02v0.46
					c-0.1,0.03-0.17,0.04-0.22,0.05c-0.05,0.01-0.12,0.01-0.21,0.01c-0.21,0-0.37-0.07-0.46-0.22c-0.05-0.08-0.09-0.19-0.11-0.34
					c-0.12,0.16-0.3,0.31-0.54,0.43c-0.23,0.12-0.49,0.18-0.78,0.18c-0.34,0-0.62-0.1-0.83-0.31c-0.22-0.21-0.32-0.46-0.32-0.77
					c0-0.34,0.11-0.6,0.32-0.79s0.49-0.3,0.83-0.34L211.48,153.44z M210.18,155.1c0.13,0.1,0.28,0.15,0.46,0.15
					c0.22,0,0.43-0.05,0.63-0.15c0.34-0.17,0.51-0.44,0.51-0.82v-0.5c-0.08,0.05-0.17,0.09-0.29,0.12s-0.23,0.05-0.35,0.07
					l-0.37,0.05c-0.22,0.03-0.39,0.08-0.5,0.14c-0.19,0.11-0.29,0.28-0.29,0.51C209.99,154.86,210.05,155,210.18,155.1z"/>
				<path d="M215.82,152.19c0.26,0.2,0.42,0.55,0.47,1.04h-0.6c-0.04-0.23-0.12-0.41-0.25-0.56s-0.34-0.22-0.62-0.22
					c-0.39,0-0.67,0.19-0.84,0.57c-0.11,0.25-0.16,0.55-0.16,0.92c0,0.37,0.08,0.67,0.23,0.92c0.15,0.25,0.4,0.38,0.73,0.38
					c0.25,0,0.46-0.08,0.61-0.23s0.25-0.37,0.31-0.64h0.6c-0.07,0.48-0.24,0.84-0.51,1.06s-0.62,0.34-1.05,0.34
					c-0.48,0-0.86-0.17-1.15-0.52c-0.28-0.35-0.43-0.79-0.43-1.31c0-0.64,0.16-1.14,0.47-1.5c0.31-0.36,0.71-0.54,1.19-0.54
					C215.23,151.89,215.57,151.99,215.82,152.19z"/>
				<path d="M219.17,152.1c0.24,0.12,0.43,0.28,0.55,0.47c0.12,0.18,0.2,0.4,0.24,0.65c0.04,0.17,0.05,0.44,0.05,0.81h-2.66
					c0.01,0.37,0.1,0.67,0.26,0.9c0.16,0.22,0.41,0.34,0.76,0.34c0.32,0,0.57-0.11,0.76-0.32c0.11-0.12,0.18-0.27,0.23-0.43h0.6
					c-0.02,0.13-0.07,0.28-0.16,0.45c-0.09,0.17-0.19,0.3-0.3,0.41c-0.19,0.18-0.42,0.31-0.69,0.37c-0.15,0.04-0.31,0.05-0.5,0.05
					c-0.45,0-0.84-0.17-1.15-0.5c-0.31-0.33-0.47-0.8-0.47-1.39c0-0.59,0.16-1.07,0.48-1.43c0.32-0.37,0.73-0.55,1.24-0.55
					C218.67,151.92,218.92,151.98,219.17,152.1z M219.39,153.54c-0.02-0.27-0.08-0.48-0.17-0.64c-0.17-0.3-0.45-0.44-0.84-0.44
					c-0.28,0-0.52,0.1-0.71,0.31s-0.29,0.46-0.3,0.78H219.39z"/>
				<path d="M220.8,150.62h0.62v1.87c0.15-0.18,0.28-0.31,0.39-0.39c0.2-0.13,0.45-0.2,0.74-0.2c0.53,0,0.89,0.19,1.08,0.56
					c0.1,0.2,0.15,0.48,0.15,0.84v2.35h-0.63v-2.31c0-0.27-0.03-0.47-0.1-0.59c-0.11-0.2-0.32-0.3-0.63-0.3
					c-0.26,0-0.49,0.09-0.69,0.26c-0.21,0.17-0.31,0.51-0.31,0.99v1.94h-0.62V150.62z"/>
				<path d="M227.34,152.36c0.32,0.31,0.49,0.78,0.49,1.39c0,0.59-0.14,1.08-0.43,1.46s-0.73,0.58-1.33,0.58
					c-0.5,0-0.9-0.17-1.19-0.51c-0.29-0.34-0.44-0.8-0.44-1.37c0-0.61,0.15-1.1,0.46-1.47c0.31-0.36,0.73-0.55,1.25-0.55
					C226.62,151.89,227.02,152.05,227.34,152.36z M226.96,154.8c0.15-0.31,0.22-0.65,0.22-1.03c0-0.34-0.05-0.62-0.16-0.83
					c-0.17-0.34-0.47-0.51-0.89-0.51c-0.37,0-0.64,0.14-0.81,0.43s-0.25,0.63-0.25,1.04c0,0.39,0.08,0.71,0.25,0.97
					s0.44,0.39,0.8,0.39C226.54,155.26,226.81,155.1,226.96,154.8z"/>
				<path d="M228.6,150.64h0.62v5.02h-0.62V150.64z"/>
				<path d="M232.15,152.11c0.11,0.07,0.23,0.19,0.37,0.36v-1.85h0.59v5.04h-0.55v-0.51c-0.14,0.23-0.31,0.39-0.51,0.49
					s-0.42,0.15-0.67,0.15c-0.41,0-0.76-0.17-1.06-0.51c-0.3-0.34-0.45-0.8-0.45-1.37c0-0.53,0.14-1,0.41-1.39s0.66-0.59,1.16-0.59
					C231.73,151.93,231.96,151.99,232.15,152.11z M230.78,154.86c0.17,0.26,0.43,0.4,0.8,0.4c0.28,0,0.52-0.12,0.7-0.37
					c0.18-0.25,0.27-0.6,0.27-1.05c0-0.46-0.09-0.81-0.28-1.03c-0.19-0.22-0.42-0.33-0.7-0.33c-0.31,0-0.56,0.12-0.75,0.36
					c-0.19,0.24-0.29,0.59-0.29,1.05C230.53,154.26,230.61,154.59,230.78,154.86z"/>
				<path d="M236.29,152.1c0.24,0.12,0.43,0.28,0.55,0.47c0.12,0.18,0.2,0.4,0.25,0.65c0.04,0.17,0.05,0.44,0.05,0.81h-2.66
					c0.01,0.37,0.1,0.67,0.26,0.9c0.16,0.22,0.42,0.34,0.76,0.34c0.32,0,0.57-0.11,0.76-0.32c0.11-0.12,0.18-0.27,0.23-0.43h0.61
					c-0.02,0.13-0.07,0.28-0.16,0.45s-0.19,0.3-0.3,0.41c-0.19,0.18-0.42,0.31-0.69,0.37c-0.15,0.04-0.31,0.05-0.5,0.05
					c-0.45,0-0.84-0.17-1.15-0.5c-0.31-0.33-0.47-0.8-0.47-1.39c0-0.59,0.16-1.07,0.48-1.43c0.32-0.37,0.73-0.55,1.24-0.55
					C235.8,151.92,236.05,151.98,236.29,152.1z M236.51,153.54c-0.02-0.27-0.08-0.48-0.17-0.64c-0.17-0.3-0.45-0.44-0.84-0.44
					c-0.28,0-0.52,0.1-0.71,0.31s-0.29,0.46-0.3,0.78H236.51z"/>
				<path d="M237.94,152h0.58v0.63c0.05-0.12,0.17-0.27,0.35-0.45c0.19-0.18,0.4-0.26,0.65-0.26c0.01,0,0.03,0,0.06,0
					s0.07,0.01,0.14,0.01v0.65c-0.04-0.01-0.07-0.01-0.1-0.01c-0.03,0-0.06,0-0.1,0c-0.31,0-0.55,0.1-0.71,0.3s-0.25,0.43-0.25,0.69
					v2.11h-0.62V152z"/>
			</g>
			<g class="st7">
				<path d="M204.91,158.39c-0.36,0.7-0.59,1.21-0.7,1.54c-0.16,0.5-0.24,1.08-0.24,1.73c0,0.66,0.09,1.26,0.28,1.81
					c0.11,0.34,0.34,0.82,0.67,1.46h-0.41c-0.33-0.52-0.54-0.85-0.62-1c-0.08-0.14-0.17-0.34-0.26-0.58
					c-0.13-0.34-0.22-0.7-0.27-1.08c-0.03-0.2-0.04-0.39-0.04-0.57c0-0.67,0.11-1.27,0.32-1.8c0.13-0.33,0.41-0.84,0.84-1.5H204.91z
					"/>
				<path d="M208.36,159.01c0.22,0.28,0.32,0.58,0.32,0.88h-0.61c-0.04-0.19-0.09-0.34-0.17-0.45c-0.15-0.21-0.37-0.31-0.67-0.31
					c-0.34,0-0.62,0.16-0.82,0.48c-0.2,0.32-0.32,0.77-0.34,1.37c0.14-0.21,0.32-0.36,0.53-0.46c0.2-0.09,0.41-0.14,0.66-0.14
					c0.41,0,0.77,0.13,1.07,0.39c0.3,0.26,0.46,0.65,0.46,1.17c0,0.44-0.14,0.84-0.43,1.18c-0.29,0.34-0.7,0.51-1.24,0.51
					c-0.46,0-0.85-0.17-1.19-0.52c-0.33-0.35-0.5-0.93-0.5-1.76c0-0.61,0.07-1.12,0.22-1.55c0.29-0.81,0.81-1.22,1.56-1.22
					C207.76,158.58,208.14,158.72,208.36,159.01z M207.9,162.75c0.16-0.22,0.24-0.47,0.24-0.77c0-0.25-0.07-0.49-0.22-0.72
					s-0.4-0.34-0.78-0.34c-0.26,0-0.5,0.09-0.7,0.26c-0.2,0.18-0.3,0.44-0.3,0.79c0,0.31,0.09,0.57,0.27,0.78
					c0.18,0.21,0.43,0.32,0.75,0.32C207.5,163.08,207.74,162.97,207.9,162.75z"/>
				<path d="M209.73,160.63c-0.18-0.18-0.27-0.42-0.27-0.71c0-0.36,0.13-0.68,0.4-0.94c0.26-0.26,0.64-0.39,1.12-0.39
					c0.47,0,0.84,0.12,1.1,0.37c0.27,0.25,0.4,0.54,0.4,0.87c0,0.31-0.08,0.55-0.23,0.74c-0.09,0.11-0.22,0.21-0.4,0.31
					c0.2,0.09,0.36,0.2,0.48,0.32c0.22,0.23,0.33,0.52,0.33,0.89c0,0.43-0.14,0.79-0.43,1.09c-0.29,0.3-0.7,0.45-1.23,0.45
					c-0.48,0-0.88-0.13-1.21-0.39c-0.33-0.26-0.49-0.63-0.49-1.13c0-0.29,0.07-0.54,0.21-0.75c0.14-0.21,0.35-0.37,0.63-0.48
					C209.96,160.82,209.82,160.73,209.73,160.63z M211.71,162.85c0.19-0.15,0.28-0.38,0.28-0.69c0-0.32-0.1-0.56-0.29-0.72
					c-0.19-0.16-0.44-0.25-0.75-0.25c-0.29,0-0.53,0.08-0.72,0.25c-0.19,0.17-0.28,0.4-0.28,0.7c0,0.25,0.08,0.48,0.25,0.66
					s0.43,0.28,0.79,0.28C211.29,163.08,211.53,163,211.71,162.85z M211.6,160.43c0.15-0.15,0.23-0.33,0.23-0.54
					c0-0.18-0.07-0.35-0.22-0.5s-0.37-0.23-0.67-0.23c-0.3,0-0.51,0.08-0.64,0.23s-0.2,0.33-0.2,0.54c0,0.23,0.09,0.41,0.26,0.54
					c0.17,0.13,0.37,0.2,0.6,0.2C211.24,160.65,211.45,160.58,211.6,160.43z"/>
				<path d="M213.54,164.21c0.16-0.03,0.27-0.14,0.33-0.33c0.03-0.1,0.05-0.2,0.05-0.3c0-0.02,0-0.03,0-0.04
					c0-0.01,0-0.03-0.01-0.04h-0.37v-0.75h0.73v0.69c0,0.27-0.05,0.51-0.16,0.71s-0.3,0.33-0.57,0.38V164.21z"/>
				<path d="M215.38,162.4c0.15-0.31,0.45-0.6,0.89-0.85l0.66-0.38c0.29-0.17,0.5-0.32,0.62-0.44c0.19-0.19,0.28-0.41,0.28-0.65
					c0-0.29-0.08-0.51-0.26-0.68s-0.4-0.25-0.68-0.25c-0.42,0-0.71,0.16-0.88,0.48c-0.09,0.17-0.13,0.41-0.14,0.71h-0.63
					c0.01-0.43,0.09-0.77,0.24-1.04c0.27-0.47,0.74-0.71,1.41-0.71c0.56,0,0.97,0.15,1.23,0.46c0.26,0.3,0.39,0.64,0.39,1.01
					c0,0.39-0.14,0.73-0.41,1c-0.16,0.16-0.45,0.36-0.86,0.59l-0.47,0.26c-0.22,0.12-0.4,0.24-0.53,0.35
					c-0.23,0.2-0.37,0.42-0.43,0.66h2.67v0.58h-3.36C215.14,163.08,215.23,162.71,215.38,162.4z"/>
				<path d="M219.72,162.31c0.02,0.34,0.15,0.57,0.39,0.7c0.12,0.07,0.27,0.1,0.42,0.1c0.29,0,0.54-0.12,0.75-0.37
					c0.21-0.25,0.35-0.74,0.44-1.49c-0.14,0.22-0.31,0.37-0.51,0.46c-0.2,0.09-0.42,0.13-0.65,0.13c-0.47,0-0.84-0.15-1.12-0.44
					c-0.27-0.29-0.41-0.67-0.41-1.13c0-0.44,0.14-0.83,0.41-1.17c0.27-0.34,0.67-0.5,1.2-0.5c0.71,0,1.21,0.32,1.48,0.96
					c0.15,0.35,0.23,0.79,0.23,1.33c0,0.6-0.09,1.13-0.27,1.59c-0.3,0.77-0.8,1.15-1.52,1.15c-0.48,0-0.84-0.12-1.09-0.38
					c-0.25-0.25-0.37-0.57-0.37-0.94H219.72z M221.32,161.07c0.2-0.16,0.3-0.44,0.3-0.84c0-0.36-0.09-0.63-0.27-0.8
					c-0.18-0.18-0.41-0.26-0.69-0.26c-0.3,0-0.54,0.1-0.72,0.3c-0.18,0.2-0.26,0.47-0.26,0.81c0,0.32,0.08,0.57,0.23,0.76
					c0.16,0.19,0.4,0.28,0.74,0.28C220.9,161.31,221.12,161.23,221.32,161.07z"/>
				<path d="M223.17,162.4c0.15-0.31,0.45-0.6,0.89-0.85l0.66-0.38c0.29-0.17,0.5-0.32,0.62-0.44c0.19-0.19,0.28-0.41,0.28-0.65
					c0-0.29-0.08-0.51-0.26-0.68s-0.4-0.25-0.68-0.25c-0.42,0-0.71,0.16-0.88,0.48c-0.09,0.17-0.13,0.41-0.14,0.71h-0.63
					c0.01-0.43,0.09-0.77,0.24-1.04c0.27-0.47,0.74-0.71,1.41-0.71c0.56,0,0.97,0.15,1.23,0.46c0.26,0.3,0.39,0.64,0.39,1.01
					c0,0.39-0.14,0.73-0.41,1c-0.16,0.16-0.45,0.36-0.86,0.59l-0.47,0.26c-0.22,0.12-0.4,0.24-0.53,0.35
					c-0.23,0.2-0.37,0.42-0.43,0.66h2.67v0.58h-3.36C222.93,163.08,223.01,162.71,223.17,162.4z"/>
				<path d="M226.82,164.93c0.36-0.71,0.6-1.22,0.7-1.54c0.16-0.49,0.24-1.06,0.24-1.72s-0.09-1.26-0.28-1.81
					c-0.11-0.34-0.34-0.82-0.67-1.46h0.41c0.35,0.56,0.56,0.91,0.64,1.04c0.07,0.13,0.16,0.31,0.24,0.54
					c0.11,0.28,0.19,0.57,0.23,0.84s0.07,0.55,0.07,0.8c0,0.67-0.11,1.28-0.32,1.8c-0.13,0.34-0.41,0.84-0.84,1.5H226.82z"/>
			</g>
		</g>
		<g id="text_6">
			<g class="st7">
				<path d="M180.34,138.33c-0.18-0.18-0.27-0.42-0.27-0.71c0-0.36,0.13-0.68,0.4-0.94c0.26-0.26,0.64-0.39,1.12-0.39
					c0.47,0,0.84,0.12,1.1,0.37c0.27,0.25,0.4,0.54,0.4,0.87c0,0.31-0.08,0.55-0.23,0.74c-0.09,0.11-0.22,0.21-0.4,0.31
					c0.2,0.09,0.36,0.2,0.48,0.32c0.22,0.23,0.33,0.52,0.33,0.89c0,0.43-0.14,0.79-0.43,1.09c-0.29,0.3-0.7,0.45-1.23,0.45
					c-0.48,0-0.88-0.13-1.21-0.39s-0.49-0.63-0.49-1.13c0-0.29,0.07-0.54,0.21-0.75c0.14-0.21,0.35-0.37,0.63-0.48
					C180.57,138.51,180.43,138.43,180.34,138.33z M182.32,140.54c0.19-0.15,0.28-0.38,0.28-0.69c0-0.32-0.1-0.56-0.29-0.72
					c-0.19-0.16-0.44-0.25-0.75-0.25c-0.29,0-0.53,0.08-0.72,0.25c-0.19,0.17-0.28,0.4-0.28,0.7c0,0.25,0.08,0.48,0.25,0.66
					c0.17,0.19,0.43,0.28,0.79,0.28C181.9,140.78,182.13,140.7,182.32,140.54z M182.21,138.12c0.15-0.15,0.23-0.33,0.23-0.54
					c0-0.18-0.07-0.35-0.22-0.5s-0.37-0.23-0.67-0.23c-0.3,0-0.51,0.08-0.64,0.23s-0.2,0.33-0.2,0.54c0,0.23,0.08,0.41,0.26,0.54
					c0.17,0.13,0.37,0.2,0.6,0.2C181.84,138.35,182.06,138.28,182.21,138.12z"/>
				<path d="M186.83,137.08c0.22,0.4,0.33,0.96,0.33,1.66c0,0.67-0.1,1.22-0.3,1.65c-0.29,0.62-0.76,0.94-1.41,0.94
					c-0.59,0-1.03-0.25-1.31-0.77c-0.24-0.43-0.36-1-0.36-1.71c0-0.56,0.07-1.03,0.21-1.43c0.27-0.74,0.76-1.11,1.46-1.11
					C186.09,136.3,186.55,136.56,186.83,137.08z M186.21,140.34c0.19-0.28,0.28-0.81,0.28-1.58c0-0.56-0.07-1.01-0.21-1.37
					c-0.14-0.36-0.4-0.54-0.8-0.54c-0.36,0-0.63,0.17-0.8,0.51c-0.17,0.34-0.25,0.84-0.25,1.51c0,0.5,0.05,0.9,0.16,1.2
					c0.16,0.46,0.44,0.69,0.84,0.69C185.77,140.77,186.02,140.63,186.21,140.34z"/>
				<path d="M188.06,140.45h0.71v0.75h-0.71V140.45z"/>
				<path d="M189.88,140.09c0.15-0.31,0.45-0.6,0.89-0.85l0.66-0.38c0.29-0.17,0.5-0.32,0.62-0.44c0.19-0.19,0.28-0.41,0.28-0.65
					c0-0.29-0.08-0.51-0.26-0.68s-0.4-0.25-0.68-0.25c-0.42,0-0.71,0.16-0.88,0.48c-0.09,0.17-0.13,0.41-0.14,0.71h-0.63
					c0.01-0.43,0.09-0.77,0.24-1.04c0.27-0.47,0.74-0.71,1.41-0.71c0.56,0,0.97,0.15,1.23,0.46c0.26,0.3,0.39,0.64,0.39,1.01
					c0,0.39-0.14,0.73-0.41,1c-0.16,0.16-0.45,0.36-0.86,0.59l-0.47,0.26c-0.22,0.12-0.4,0.24-0.53,0.35
					c-0.23,0.2-0.37,0.42-0.43,0.66h2.67v0.58h-3.36C189.64,140.77,189.73,140.41,189.88,140.09z"/>
				<path d="M195.55,136.8c0.23,0.23,0.35,0.51,0.35,0.84s-0.12,0.61-0.35,0.84s-0.51,0.35-0.84,0.35c-0.33,0-0.61-0.12-0.84-0.35
					s-0.35-0.51-0.35-0.84s0.12-0.61,0.35-0.84s0.51-0.35,0.84-0.35C195.04,136.45,195.32,136.56,195.55,136.8z M195.21,138.14
					c0.14-0.14,0.21-0.3,0.21-0.5s-0.07-0.36-0.21-0.5s-0.3-0.21-0.5-0.21c-0.19,0-0.36,0.07-0.5,0.21s-0.21,0.3-0.21,0.5
					c0,0.19,0.07,0.36,0.21,0.5s0.3,0.21,0.5,0.21C194.91,138.34,195.07,138.28,195.21,138.14z M197.57,136.32h0.38l-2.74,5h-0.38
					L197.57,136.32z M198.91,139.16c0.23,0.23,0.35,0.51,0.35,0.84c0,0.33-0.12,0.61-0.35,0.84c-0.23,0.23-0.51,0.35-0.84,0.35
					c-0.33,0-0.61-0.12-0.84-0.35c-0.23-0.23-0.35-0.51-0.35-0.84c0-0.33,0.12-0.61,0.35-0.84s0.51-0.35,0.84-0.35
					C198.39,138.81,198.67,138.93,198.91,139.16z M198.56,140.5c0.14-0.14,0.21-0.3,0.21-0.5s-0.07-0.36-0.21-0.5
					c-0.14-0.14-0.3-0.21-0.5-0.21c-0.2,0-0.36,0.07-0.5,0.21c-0.14,0.14-0.21,0.3-0.21,0.5s0.07,0.36,0.21,0.5
					c0.14,0.14,0.31,0.21,0.5,0.21C198.26,140.71,198.43,140.64,198.56,140.5z"/>
			</g>
		</g>
		<g id="legend_1">
			<g id="patch_14">
				<path class="st1" d="M244.12,18.82h14v-4.9h-14V18.82z"/>
			</g>
			<g id="text_7">
				<g class="st7">
					<path d="M264.41,13.8h0.69v5.02h-0.69V13.8z"/>
					<path d="M266.49,17.67c0.02,0.21,0.07,0.36,0.16,0.47c0.16,0.2,0.43,0.3,0.82,0.3c0.23,0,0.44-0.05,0.61-0.15
						c0.18-0.1,0.27-0.25,0.27-0.46c0-0.16-0.07-0.28-0.21-0.36c-0.09-0.05-0.27-0.11-0.54-0.17l-0.5-0.12
						c-0.32-0.08-0.55-0.16-0.7-0.26c-0.27-0.17-0.4-0.4-0.4-0.69c0-0.35,0.13-0.63,0.38-0.84c0.25-0.21,0.59-0.32,1.02-0.32
						c0.56,0,0.96,0.16,1.21,0.48c0.16,0.21,0.23,0.43,0.23,0.66h-0.58c-0.01-0.14-0.06-0.26-0.15-0.38
						c-0.14-0.16-0.4-0.24-0.75-0.24c-0.24,0-0.42,0.04-0.54,0.13c-0.12,0.09-0.18,0.21-0.18,0.35c0,0.16,0.08,0.29,0.24,0.38
						c0.09,0.06,0.23,0.11,0.41,0.15l0.41,0.1c0.45,0.11,0.75,0.21,0.91,0.31c0.24,0.16,0.36,0.4,0.36,0.74
						c0,0.33-0.12,0.61-0.38,0.84c-0.25,0.24-0.63,0.36-1.14,0.36c-0.55,0-0.94-0.12-1.17-0.37s-0.35-0.55-0.37-0.92H266.49z"/>
					<path d="M272.27,15.52c0.32,0.31,0.49,0.78,0.49,1.39c0,0.59-0.14,1.08-0.43,1.46s-0.73,0.58-1.33,0.58
						c-0.5,0-0.9-0.17-1.19-0.51c-0.29-0.34-0.44-0.8-0.44-1.37c0-0.61,0.15-1.1,0.46-1.47c0.31-0.36,0.73-0.55,1.25-0.55
						C271.55,15.05,271.95,15.21,272.27,15.52z M271.89,17.96c0.15-0.31,0.22-0.65,0.22-1.03c0-0.34-0.05-0.62-0.16-0.83
						c-0.17-0.34-0.47-0.51-0.89-0.51c-0.37,0-0.64,0.14-0.81,0.43S270,16.65,270,17.06c0,0.39,0.08,0.71,0.25,0.97
						s0.44,0.39,0.8,0.39C271.46,18.42,271.74,18.27,271.89,17.96z"/>
					<path d="M273.53,13.8h0.62v5.02h-0.62V13.8z"/>
					<path d="M277.03,16.6c0.14-0.02,0.24-0.08,0.28-0.18c0.03-0.05,0.04-0.13,0.04-0.24c0-0.21-0.08-0.36-0.22-0.46
						c-0.15-0.09-0.36-0.14-0.64-0.14c-0.32,0-0.55,0.09-0.68,0.26c-0.07,0.1-0.12,0.24-0.15,0.43h-0.57
						c0.01-0.45,0.16-0.77,0.44-0.94c0.28-0.18,0.61-0.27,0.98-0.27c0.43,0,0.78,0.08,1.05,0.25c0.27,0.16,0.4,0.42,0.4,0.77v2.11
						c0,0.06,0.01,0.12,0.04,0.15c0.03,0.04,0.08,0.06,0.17,0.06c0.03,0,0.06,0,0.09,0c0.03,0,0.07-0.01,0.11-0.02v0.46
						c-0.1,0.03-0.17,0.04-0.22,0.05c-0.05,0.01-0.12,0.01-0.21,0.01c-0.21,0-0.37-0.07-0.46-0.22c-0.05-0.08-0.08-0.19-0.11-0.34
						c-0.13,0.16-0.31,0.31-0.54,0.43c-0.24,0.12-0.49,0.18-0.78,0.18c-0.34,0-0.62-0.1-0.83-0.31c-0.22-0.21-0.32-0.46-0.32-0.77
						c0-0.34,0.11-0.6,0.32-0.79s0.49-0.3,0.83-0.34L277.03,16.6z M275.73,18.27c0.13,0.1,0.28,0.15,0.46,0.15
						c0.22,0,0.43-0.05,0.63-0.15c0.34-0.17,0.51-0.44,0.51-0.82v-0.5c-0.08,0.05-0.17,0.09-0.29,0.12s-0.23,0.05-0.35,0.07
						l-0.37,0.05c-0.22,0.03-0.39,0.08-0.5,0.14c-0.19,0.11-0.29,0.28-0.29,0.51C275.54,18.02,275.6,18.16,275.73,18.27z"/>
					<path d="M279.08,14.14h0.62v1.02h0.58v0.5h-0.58v2.39c0,0.13,0.04,0.21,0.13,0.26c0.05,0.03,0.13,0.04,0.24,0.04
						c0.03,0,0.06,0,0.1,0c0.03,0,0.07,0,0.12-0.01v0.49c-0.07,0.02-0.14,0.04-0.22,0.04c-0.08,0.01-0.16,0.01-0.25,0.01
						c-0.29,0-0.48-0.07-0.58-0.22c-0.1-0.15-0.15-0.34-0.15-0.57v-2.42h-0.5v-0.5h0.5V14.14z"/>
					<path d="M283.17,15.26c0.24,0.12,0.43,0.28,0.55,0.47c0.12,0.18,0.2,0.4,0.24,0.65c0.04,0.17,0.05,0.44,0.05,0.81h-2.66
						c0.01,0.37,0.1,0.67,0.26,0.9c0.16,0.22,0.41,0.34,0.76,0.34c0.32,0,0.57-0.11,0.76-0.32c0.11-0.12,0.18-0.27,0.23-0.43h0.6
						c-0.02,0.13-0.07,0.28-0.16,0.45c-0.09,0.17-0.19,0.3-0.3,0.41c-0.19,0.18-0.42,0.31-0.69,0.37c-0.15,0.04-0.31,0.05-0.5,0.05
						c-0.45,0-0.84-0.17-1.15-0.5c-0.31-0.33-0.47-0.8-0.47-1.39c0-0.59,0.16-1.07,0.48-1.43c0.32-0.37,0.73-0.55,1.24-0.55
						C282.67,15.08,282.92,15.14,283.17,15.26z M283.39,16.7c-0.02-0.27-0.08-0.48-0.17-0.64c-0.17-0.3-0.45-0.44-0.84-0.44
						c-0.28,0-0.52,0.1-0.71,0.31s-0.29,0.46-0.3,0.78H283.39z"/>
				</g>
			</g>
			<g id="patch_15">
				<path class="st2" d="M244.12,29.09h14v-4.9h-14V29.09z"/>
			</g>
			<g id="text_8">
				<g class="st7">
					<path d="M264.24,24.07h0.97l1.44,4.25l1.43-4.25h0.97v5.02h-0.65v-2.96c0-0.1,0-0.27,0.01-0.51c0-0.24,0.01-0.49,0.01-0.76
						l-1.43,4.23h-0.67l-1.45-4.23v0.15c0,0.12,0,0.31,0.01,0.56s0.01,0.44,0.01,0.56v2.96h-0.65V24.07z"/>
					<path d="M271.55,24.07h0.77l1.82,5.02h-0.75l-0.51-1.5h-1.99l-0.54,1.5h-0.7L271.55,24.07z M272.67,27.04l-0.76-2.22
						l-0.81,2.22H272.67z"/>
					<path d="M278.1,24.22c0.49,0.26,0.79,0.72,0.9,1.38h-0.67c-0.08-0.37-0.25-0.63-0.5-0.8c-0.25-0.17-0.57-0.25-0.95-0.25
						c-0.46,0-0.84,0.17-1.15,0.52c-0.31,0.35-0.47,0.87-0.47,1.56c0,0.6,0.13,1.08,0.39,1.46s0.67,0.56,1.26,0.56
						c0.44,0,0.81-0.13,1.1-0.39c0.29-0.26,0.44-0.69,0.45-1.28h-1.57v-0.56h2.21v2.69h-0.44l-0.16-0.65
						c-0.23,0.25-0.43,0.43-0.6,0.53c-0.29,0.17-0.67,0.25-1.12,0.25c-0.58,0-1.09-0.19-1.51-0.58c-0.46-0.48-0.69-1.15-0.69-1.99
						c0-0.84,0.22-1.51,0.67-2.01c0.43-0.47,0.98-0.71,1.66-0.71C277.36,23.94,277.76,24.03,278.1,24.22z"/>
				</g>
			</g>
			<g id="patch_16">
				<path class="st3" d="M244.12,39.37h14v-4.9h-14V39.37z"/>
			</g>
			<g id="text_9">
				<g class="st7">
					<path d="M264.7,37.75c0.02,0.29,0.08,0.52,0.19,0.69c0.22,0.33,0.6,0.5,1.15,0.5c0.25,0,0.47-0.04,0.67-0.11
						c0.39-0.14,0.59-0.39,0.59-0.76c0-0.27-0.08-0.47-0.25-0.58c-0.17-0.11-0.43-0.21-0.79-0.3l-0.66-0.15
						c-0.43-0.1-0.73-0.21-0.91-0.33c-0.31-0.21-0.46-0.52-0.46-0.94c0-0.45,0.15-0.82,0.46-1.11c0.3-0.29,0.73-0.43,1.29-0.43
						c0.51,0,0.95,0.13,1.31,0.38c0.36,0.25,0.54,0.66,0.54,1.22h-0.64c-0.03-0.27-0.1-0.48-0.21-0.62
						c-0.2-0.26-0.54-0.39-1.01-0.39c-0.38,0-0.66,0.08-0.83,0.25c-0.17,0.17-0.25,0.36-0.25,0.59c0,0.25,0.1,0.43,0.3,0.54
						c0.13,0.07,0.43,0.16,0.88,0.27l0.68,0.16c0.33,0.08,0.58,0.18,0.76,0.32c0.31,0.23,0.46,0.58,0.46,1.02
						c0,0.56-0.2,0.95-0.59,1.19s-0.85,0.36-1.38,0.36c-0.61,0-1.08-0.16-1.43-0.48c-0.34-0.32-0.51-0.75-0.51-1.29H264.7z"/>
					<path d="M270.38,34.35h0.77l1.82,5.02h-0.75l-0.51-1.5h-1.99l-0.54,1.5h-0.7L270.38,34.35z M271.5,37.31l-0.76-2.22l-0.81,2.22
						H271.5z"/>
					<path d="M276.94,34.49c0.49,0.26,0.79,0.72,0.9,1.38h-0.67c-0.08-0.37-0.25-0.63-0.5-0.8c-0.25-0.17-0.57-0.25-0.95-0.25
						c-0.46,0-0.84,0.17-1.15,0.52c-0.31,0.35-0.47,0.87-0.47,1.56c0,0.6,0.13,1.08,0.39,1.46s0.67,0.56,1.26,0.56
						c0.44,0,0.81-0.13,1.1-0.39c0.29-0.26,0.44-0.69,0.45-1.28h-1.57v-0.56h2.21v2.69h-0.44l-0.16-0.65
						c-0.23,0.25-0.43,0.43-0.6,0.53c-0.29,0.17-0.67,0.25-1.12,0.25c-0.58,0-1.09-0.19-1.51-0.58c-0.46-0.48-0.69-1.15-0.69-1.99
						c0-0.84,0.22-1.51,0.67-2.01c0.43-0.47,0.98-0.71,1.66-0.71C276.2,34.22,276.6,34.31,276.94,34.49z"/>
				</g>
			</g>
		</g>
	</g>
</g>
</svg>
