<svg xmlns="http://www.w3.org/2000/svg" viewBox="0 0 800 285.06"><defs><style>.ed3f501b-9c8f-495e-886b-51ec2a1f535c,.f16ef6d7-02e5-4813-ac29-4dbdd9612d63{isolation:isolate;}.ed3f501b-9c8f-495e-886b-51ec2a1f535c{font-size:12px;}.ed3f501b-9c8f-495e-886b-51ec2a1f535c,.fd669aee-9212-4517-811b-16799cf7b675{font-family:Arial-BoldMT, Arial;font-weight:700;}.a77c577c-d507-4ba1-a0e6-adddc3baa3ec{fill:#aaa;}.fe4e0be4-aaa7-4ca6-aa16-e507a8d80baa{fill:#5a6855;}.a6ec5666-7bb4-453d-9370-7e292642f9ce,.ac61a7c7-b173-43c9-91c0-05957e3bcd78,.acb34083-cb51-4c3f-950d-26b1adaac364,.ad51e702-4020-4759-ac4b-5e1657a20a6d,.ae0367c9-2015-4603-86ad-2f02cb2b0363,.b1eb9f32-eb06-4f51-87e8-4a803b749f25,.e1b5f8a9-b47a-4d6b-9f8c-509648351b0e,.e48c7cec-7283-4f68-87bb-792727a088bc,.f914f99b-2c0f-4090-b0bc-8e085fdb6aef{fill:none;}.acb34083-cb51-4c3f-950d-26b1adaac364,.ad51e702-4020-4759-ac4b-5e1657a20a6d,.ae0367c9-2015-4603-86ad-2f02cb2b0363,.b1eb9f32-eb06-4f51-87e8-4a803b749f25,.e1b5f8a9-b47a-4d6b-9f8c-509648351b0e,.e48c7cec-7283-4f68-87bb-792727a088bc,.f914f99b-2c0f-4090-b0bc-8e085fdb6aef{stroke:#aaa;stroke-opacity:0.2;}.ad51e702-4020-4759-ac4b-5e1657a20a6d{stroke-width:15.94px;}.ae0367c9-2015-4603-86ad-2f02cb2b0363{stroke-width:18.8px;}.e1b5f8a9-b47a-4d6b-9f8c-509648351b0e{stroke-width:36.58px;}.b1eb9f32-eb06-4f51-87e8-4a803b749f25{stroke-width:46.48px;}.f914f99b-2c0f-4090-b0bc-8e085fdb6aef{stroke-width:30.29px;}.e48c7cec-7283-4f68-87bb-792727a088bc{stroke-width:36.64px;}.ac61a7c7-b173-43c9-91c0-05957e3bcd78{stroke:#ffc942;stroke-opacity:0.7;}.a6ec5666-7bb4-453d-9370-7e292642f9ce,.ac61a7c7-b173-43c9-91c0-05957e3bcd78,.acb34083-cb51-4c3f-950d-26b1adaac364{stroke-width:3px;}.f16ef6d7-02e5-4813-ac29-4dbdd9612d63,.fbed6570-3cc4-4414-a55d-8cddf583b1df,.fd669aee-9212-4517-811b-16799cf7b675{font-size:10px;}.f16ef6d7-02e5-4813-ac29-4dbdd9612d63,.fbed6570-3cc4-4414-a55d-8cddf583b1df{font-family:ArialMT, Arial;}.a1b4da80-46e9-40ca-b17b-cb0f8c9e3f5f{letter-spacing:-0.06em;}.be1735b4-5a65-4143-b6fe-cd4bbf53bacb{fill:#aae3ff;}.a6ec5666-7bb4-453d-9370-7e292642f9ce{stroke:#aae3ff;stroke-miterlimit:10;}.ef9f463d-cc59-480b-b9d3-b7e11687fa73{letter-spacing:-0.07em;}.e958e827-aa2e-4e56-ab68-810cdafc18e0{letter-spacing:-0.02em;}.e3565407-c06f-42f2-bb9e-411728a365a9{fill:#ff0e00;}</style></defs><title>taxon_history_link_highlighting</title><g id="bf337003-eb3b-41ec-a04a-09ef91aa3a45" data-name="Layer 1"><text class="ed3f501b-9c8f-495e-886b-51ec2a1f535c" transform="translate(0 10.29)">Release 86.2</text><text class="ed3f501b-9c8f-495e-886b-51ec2a1f535c" transform="translate(392.5 10.29)">Release 89</text><text class="ed3f501b-9c8f-495e-886b-51ec2a1f535c" transform="translate(770.67 10.29)">NCBI</text><rect id="eade3b5f-c5b0-4b54-8d6b-9b94e650653a" data-name="node-0" class="a77c577c-d507-4ba1-a0e6-adddc3baa3ec" y="81.4" width="15" height="17.34"/><rect id="f632575e-0910-4509-a283-2d019544be9a" data-name="node-1" class="a77c577c-d507-4ba1-a0e6-adddc3baa3ec" x="392.5" y="80.58" width="15" height="19.62"/><rect id="b4922d83-1291-4f84-abf0-b4a25f7f8d15" data-name="node-2" class="fe4e0be4-aaa7-4ca6-aa16-e507a8d80baa" x="785" y="26.18" width="15" height="104.84"/><rect id="b94a8ff3-91ab-4697-9afd-d7697146044d" data-name="node-3" class="a77c577c-d507-4ba1-a0e6-adddc3baa3ec" y="22.48" width="15" height="37.34"/><rect id="bef708f2-0f1e-49e5-b501-6e72c41f336f" data-name="node-4" class="a77c577c-d507-4ba1-a0e6-adddc3baa3ec" x="392.5" y="21.09" width="15" height="46.48"/><rect id="b7b5484b-753c-4fb0-b85f-4f4f91b517d4" data-name="node-5" class="fe4e0be4-aaa7-4ca6-aa16-e507a8d80baa" y="111.74" width="15" height="30.67"/><rect id="a10f9021-34b5-4c50-bfed-f0910a4ab98e" data-name="node-6" class="a77c577c-d507-4ba1-a0e6-adddc3baa3ec" x="392.5" y="113.2" width="15" height="36.64"/><rect id="b9b04ac7-a14c-4d55-bfca-35b99b2082c4" data-name="node-7" class="fe4e0be4-aaa7-4ca6-aa16-e507a8d80baa" x="392.5" y="160.84" width="15" height="5"/><rect id="fd505b37-7cfb-4b8b-bf24-f1a61be93636" data-name="node-8" class="a77c577c-d507-4ba1-a0e6-adddc3baa3ec" y="159.6" width="15" height="5"/><rect id="aecbce06-516e-4264-a48b-c200c518a296" data-name="node-9" class="a77c577c-d507-4ba1-a0e6-adddc3baa3ec" x="392.5" y="176.51" width="15" height="5"/><rect id="a55002d9-0d89-4f9b-8346-3879ea1e1dd8" data-name="node-10" class="a77c577c-d507-4ba1-a0e6-adddc3baa3ec" x="392.5" y="190.4" width="15" height="5"/><rect id="e0368d00-aa66-486e-8eb2-b9ac975d2d44" data-name="node-11" class="a77c577c-d507-4ba1-a0e6-adddc3baa3ec" y="173.88" width="15" height="5"/><rect id="a12d6ede-446a-45f2-bed1-cc96d38e7e29" data-name="node-12" class="a77c577c-d507-4ba1-a0e6-adddc3baa3ec" y="186.94" width="15" height="5"/><rect id="b2fd1e86-7bfa-49aa-bdde-a9c1e7f7f938" data-name="node-13" class="a77c577c-d507-4ba1-a0e6-adddc3baa3ec" x="392.5" y="203.52" width="15" height="5"/><rect id="ad89dc8b-15f7-4d01-80c6-5f478188e085" data-name="node-14" class="a77c577c-d507-4ba1-a0e6-adddc3baa3ec" y="213.32" width="15" height="5"/><rect id="f89d7acc-4fdf-4b71-b4d6-0dee60a20d6a" data-name="node-15" class="a77c577c-d507-4ba1-a0e6-adddc3baa3ec" x="392.5" y="216.65" width="15" height="5"/><rect id="a98282b6-e468-45c5-a646-7fbef4b9f9ee" data-name="node-16" class="a77c577c-d507-4ba1-a0e6-adddc3baa3ec" y="226.38" width="15" height="5"/><rect id="b687e1ab-6d38-4e70-abc0-8460c77c59d7" data-name="node-17" class="a77c577c-d507-4ba1-a0e6-adddc3baa3ec" x="392.5" y="229.71" width="15" height="5"/><rect id="bb449eb9-c993-48ab-918f-86cc13d1a785" data-name="node-18" class="a77c577c-d507-4ba1-a0e6-adddc3baa3ec" y="239.54" width="15" height="5"/><rect id="ac78dd28-5290-431d-90dc-3203a09a11ca" data-name="node-19" class="a77c577c-d507-4ba1-a0e6-adddc3baa3ec" x="392.5" y="242.9" width="15" height="5"/><rect id="b313d756-b0f5-461a-8d9c-0e082429ae4f" data-name="node-20" class="a77c577c-d507-4ba1-a0e6-adddc3baa3ec" y="252.6" width="15" height="5"/><rect id="bb117f46-010a-409e-ab76-b74df3ae9987" data-name="node-21" class="a77c577c-d507-4ba1-a0e6-adddc3baa3ec" x="392.5" y="255.97" width="15" height="5"/><rect id="a391ed5b-45cd-4a83-976f-c669275d2b87" data-name="node-22" class="a77c577c-d507-4ba1-a0e6-adddc3baa3ec" y="265.66" width="15" height="5"/><rect id="f1938efa-35a5-495b-b8cf-5cee15bf9c74" data-name="node-23" class="a77c577c-d507-4ba1-a0e6-adddc3baa3ec" x="392.5" y="269.03" width="15" height="5"/><rect id="a14ee2c1-3fcf-47d7-94e7-8ca1eba0b9d8" data-name="node-24" class="a77c577c-d507-4ba1-a0e6-adddc3baa3ec" y="200.07" width="15" height="5"/><rect id="b79ffada-effb-44f9-bf71-fc3ad52a05a4" data-name="node-25" class="a77c577c-d507-4ba1-a0e6-adddc3baa3ec" x="785" y="142.02" width="15" height="5"/><path id="b3cd1525-64c5-49da-8935-5a44fd11ef06" data-name="link-0" class="ad51e702-4020-4759-ac4b-5e1657a20a6d" d="M15,93.28c188.75,0,188.75-.83,377.5-.83" transform="translate(0 -3.91)"/><path id="bb3964ab-06cb-49b8-9413-76cf6c861ec6" data-name="link-1" class="ae0367c9-2015-4603-86ad-2f02cb2b0363" d="M407.5,93.88C596.25,93.88,596.25,86,785,86" transform="translate(0 -3.91)"/><path id="affc832a-9784-48cd-bb43-fa92f4c9073f" data-name="link-2" class="e1b5f8a9-b47a-4d6b-9f8c-509648351b0e" d="M15,44.68c188.75,0,188.75-1.39,377.5-1.39" transform="translate(0 -3.91)"/><path id="acae818d-4891-4d46-ac93-599670af5d40" data-name="link-3" class="b1eb9f32-eb06-4f51-87e8-4a803b749f25" d="M407.5,48.24c188.75,0,188.75,5.09,377.5,5.09" transform="translate(0 -3.91)"/><path id="a2815c0d-7e9d-4cad-ab28-bec3dee0b846" data-name="link-4" class="f914f99b-2c0f-4090-b0bc-8e085fdb6aef" d="M15,130.79c188.75,0,188.75,1.46,377.5,1.46" transform="translate(0 -3.91)"/><path id="b95869b5-6752-419c-8e43-2fbaa6a82619" data-name="link-5" class="e48c7cec-7283-4f68-87bb-792727a088bc" d="M407.5,135.43c188.75,0,188.75-21.74,377.5-21.74" transform="translate(0 -3.91)"/><path id="a2e57c31-dc05-4bc5-abde-e2c61b4706b2" data-name="link-6" class="ac61a7c7-b173-43c9-91c0-05957e3bcd78" d="M15,146.13c188.75,0,188.75,23,377.5,23" transform="translate(0 -3.91)"/><path id="f0149843-9147-4843-af30-620edf2b9228" data-name="link-7" class="ac61a7c7-b173-43c9-91c0-05957e3bcd78" d="M407.5,167.41c188.75,0,188.75-34.74,377.5-34.74" transform="translate(0 -3.91)"/><path id="a521a592-c934-460b-9472-086fb317ab8f" data-name="link-8" class="acb34083-cb51-4c3f-950d-26b1adaac364" d="M15,166c188.75,0,188.75,16.84,377.5,16.84" transform="translate(0 -3.91)"/><path id="a033fc5a-1c15-4066-af76-f449f454d19c" data-name="link-9" class="acb34083-cb51-4c3f-950d-26b1adaac364" d="M407.5,182.86c188.75,0,188.75-49.07,377.5-49.07" transform="translate(0 -3.91)"/><path id="aeea00d4-c760-4ed9-8eae-67c9fb0b6300" data-name="link-10" class="acb34083-cb51-4c3f-950d-26b1adaac364" d="M15,63.35c188.75,0,188.75,103.78,377.5,103.78" transform="translate(0 -3.91)"/><path id="ef766ae7-bde3-459f-b29a-f8c60a161079" data-name="link-11" class="acb34083-cb51-4c3f-950d-26b1adaac364" d="M407.5,196.36c188.75,0,188.75-62.07,377.5-62.07" transform="translate(0 -3.91)"/><path id="e07c6c43-846a-4a8a-bf95-2fbce99b523b" data-name="link-12" class="acb34083-cb51-4c3f-950d-26b1adaac364" d="M15,179.82c188.75,0,188.75,16.51,377.5,16.51" transform="translate(0 -3.91)"/><path id="bebf15d3-bb84-4ef5-869c-d5a23f87ab70" data-name="link-13" class="acb34083-cb51-4c3f-950d-26b1adaac364" d="M15,192.91c188.75,0,188.75,16.58,377.5,16.58" transform="translate(0 -3.91)"/><path id="ae3cfe26-7963-4581-a9fb-48b7c614f5b7" data-name="link-14" class="acb34083-cb51-4c3f-950d-26b1adaac364" d="M407.5,209.49c188.75,0,188.75-75.07,377.5-75.07" transform="translate(0 -3.91)"/><path id="a4865657-3cfe-4f6c-aa87-9832d059ee0b" data-name="link-15" class="acb34083-cb51-4c3f-950d-26b1adaac364" d="M15,219.26c188.75,0,188.75,3.33,377.5,3.33" transform="translate(0 -3.91)"/><path id="fb1084b5-260e-4cf7-9449-8e0f82e27ddb" data-name="link-16" class="acb34083-cb51-4c3f-950d-26b1adaac364" d="M407.5,222.59c188.75,0,188.75-88.07,377.5-88.07" transform="translate(0 -3.91)"/><path id="a5c03376-a2d6-4f5f-80cb-36f4a4ca5489" data-name="link-17" class="acb34083-cb51-4c3f-950d-26b1adaac364" d="M15,232.32c188.75,0,188.75,3.33,377.5,3.33" transform="translate(0 -3.91)"/><path id="edc0218c-8c74-4b3d-b75c-271abb3dcbd9" data-name="link-18" class="acb34083-cb51-4c3f-950d-26b1adaac364" d="M407.5,235.71c188.75,0,188.75-101.07,377.5-101.07" transform="translate(0 -3.91)"/><path id="b09343f0-3e6f-4913-84cd-066209cc2b6b" data-name="link-19" class="acb34083-cb51-4c3f-950d-26b1adaac364" d="M15,245.47c188.75,0,188.75,3.37,377.5,3.37" transform="translate(0 -3.91)"/><path id="a9e56ddf-40c8-475e-872b-595dfa43200a" data-name="link-20" class="acb34083-cb51-4c3f-950d-26b1adaac364" d="M407.5,248.84c188.75,0,188.75-114.07,377.5-114.07" transform="translate(0 -3.91)"/><path id="fdad74b5-c326-484a-ae70-fd4f88af7231" data-name="link-21" class="acb34083-cb51-4c3f-950d-26b1adaac364" d="M15,102c188.75,0,188.75,66.26,377.5,66.26" transform="translate(0 -3.91)"/><path id="beeceab4-c603-47b1-bd14-9846965f97b0" data-name="link-22" class="acb34083-cb51-4c3f-950d-26b1adaac364" d="M15,258.54c188.75,0,188.75,3.36,377.5,3.36" transform="translate(0 -3.91)"/><path id="b47ea9e6-d8c5-4242-93df-506ecef9ef89" data-name="link-23" class="acb34083-cb51-4c3f-950d-26b1adaac364" d="M407.5,261.9c188.75,0,188.75-127.07,377.5-127.07" transform="translate(0 -3.91)"/><path id="ef66808a-7097-42d1-b9fc-df3617f10b1e" data-name="link-24" class="acb34083-cb51-4c3f-950d-26b1adaac364" d="M15,271.6c188.75,0,188.75,3.37,377.5,3.37" transform="translate(0 -3.91)"/><path id="ff84c035-2652-41f1-99f7-56323af019da" data-name="link-25" class="acb34083-cb51-4c3f-950d-26b1adaac364" d="M407.5,275C596.25,275,596.25,134.9,785,134.9" transform="translate(0 -3.91)"/><path id="bc3b64d0-8995-494e-a172-c24da0eae772" data-name="link-26" class="acb34083-cb51-4c3f-950d-26b1adaac364" d="M15,206c188.75,0,188.75-36.63,377.5-36.63" transform="translate(0 -3.91)"/><path id="e5ff33dd-90b7-459d-b527-659d380ef33d" data-name="link-27" class="acb34083-cb51-4c3f-950d-26b1adaac364" d="M15,165.54c188.75,0,188.75,3.78,377.5,3.78" transform="translate(0 -3.91)"/><path id="a3ff6b1a-59c5-405c-97b6-e429b3dacbce" data-name="link-28" class="acb34083-cb51-4c3f-950d-26b1adaac364" d="M407.5,103.69c188.75,0,188.75,44.65,377.5,44.65" transform="translate(0 -3.91)"/><path id="e2a8ad73-4bb6-4e37-ab72-f363ae1dbd74" data-name="link-29" class="acb34083-cb51-4c3f-950d-26b1adaac364" d="M407.5,168.75c188.75,0,188.75-19.33,377.5-19.33" transform="translate(0 -3.91)"/><text class="f16ef6d7-02e5-4813-ac29-4dbdd9612d63" transform="translate(21 93.57)">p__Euryarchaeota (273)</text><text class="f16ef6d7-02e5-4813-ac29-4dbdd9612d63" transform="translate(413.5 93.89)">p__Euryarchaeota (309)</text><text class="f16ef6d7-02e5-4813-ac29-4dbdd9612d63" transform="translate(662.81 82.1)">p__Euryarchaeota (1,651)</text><text class="f16ef6d7-02e5-4813-ac29-4dbdd9612d63" transform="translate(21 44.65)">p__Halobacterota (588)</text><text class="f16ef6d7-02e5-4813-ac29-4dbdd9612d63" transform="translate(413.5 47.84)">p__Halobacterota (732)</text><text class="f16ef6d7-02e5-4813-ac29-4dbdd9612d63" transform="translate(21 130.58)">p__Thermoplasmatota (483)</text><text class="f16ef6d7-02e5-4813-ac29-4dbdd9612d63" transform="translate(413.5 135.02)">p__Thermoplasmatota (577)</text><text class="f16ef6d7-02e5-4813-ac29-4dbdd9612d63" transform="translate(413.5 167.67)">Not Present (42)</text><text class="f16ef6d7-02e5-4813-ac29-4dbdd9612d63" transform="translate(21 165.58)">p__Altiarchaeota (15)</text><text class="f16ef6d7-02e5-4813-ac29-4dbdd9612d63" transform="translate(413.5 182.45)">p__Altiarchaeota (14)</text><text class="f16ef6d7-02e5-4813-ac29-4dbdd9612d63" transform="translate(413.5 195.96)">p__Crenarchaeota (2)</text><text class="f16ef6d7-02e5-4813-ac29-4dbdd9612d63" transform="translate(21 179.41)">p__Crenarchaeota (1)</text><text class="f16ef6d7-02e5-4813-ac29-4dbdd9612d63" transform="translate(21 192.51)">p__Hadesarchaeota (2)</text><text class="f16ef6d7-02e5-4813-ac29-4dbdd9612d63" transform="translate(413.5 209.09)">p__Hadarchaeota (2)</text><text class="f16ef6d7-02e5-4813-ac29-4dbdd9612d63" transform="translate(21 218.85)">p__Nanoarchaeota (1)</text><text class="f16ef6d7-02e5-4813-ac29-4dbdd9612d63" transform="translate(413.5 222.18)">p__Nanoarchaeota (1)</text><text class="f16ef6d7-02e5-4813-ac29-4dbdd9612d63" transform="translate(21 231.92)">p__JdFR-18 (1)</text><text class="f16ef6d7-02e5-4813-ac29-4dbdd9612d63" transform="translate(413.5 235.31)">p__Hydrothermarchaeota (3)</text><text class="f16ef6d7-02e5-4813-ac29-4dbdd9612d63" transform="translate(21 245.07)">p__Micrarchaeota (1)</text><text class="f16ef6d7-02e5-4813-ac29-4dbdd9612d63" transform="translate(413.5 248.44)">p__Micrarchaeota (1)</text><text class="f16ef6d7-02e5-4813-ac29-4dbdd9612d63" transform="translate(21 258.13)">p__UAP2 (1)</text><text class="f16ef6d7-02e5-4813-ac29-4dbdd9612d63" transform="translate(413.5 261.5)">p__UAP2 (1)</text><text class="f16ef6d7-02e5-4813-ac29-4dbdd9612d63" transform="translate(21 271.2)">p__Proteobacteria (1)</text><text class="f16ef6d7-02e5-4813-ac29-4dbdd9612d63" transform="translate(413.5 274.56)">p__Proteobacteria (1)</text><text class="f16ef6d7-02e5-4813-ac29-4dbdd9612d63" transform="translate(21 205.6)">p__<tspan class="a1b4da80-46e9-40ca-b17b-cb0f8c9e3f5f" x="16.68" y="0">V</tspan><tspan x="22.8" y="0">errucomicrobiota (1)</tspan></text><text class="f16ef6d7-02e5-4813-ac29-4dbdd9612d63" transform="translate(705.64 148.6)">Not Present (34)</text></g><g id="ba4e6a8d-b1cc-4c49-bfc8-87fc818a89d2" data-name="Layer 3"><rect class="be1735b4-5a65-4143-b6fe-cd4bbf53bacb" x="633.76" y="3.78" width="108.13" height="44.58"/><rect class="be1735b4-5a65-4143-b6fe-cd4bbf53bacb" x="586.27" y="181.23" width="204.63" height="103.83"/><line class="a6ec5666-7bb4-453d-9370-7e292642f9ce" x1="623.66" y1="189.01" x2="613.05" y2="144.52"/><rect class="be1735b4-5a65-4143-b6fe-cd4bbf53bacb" x="138.11" y="39.77" width="142.98" height="65.61"/><line class="a6ec5666-7bb4-453d-9370-7e292642f9ce" x1="173.07" y1="148.6" x2="165.89" y2="93.89"/><rect class="be1735b4-5a65-4143-b6fe-cd4bbf53bacb" x="418.78" y="22.36" width="146.69" height="77.84"/><line class="a6ec5666-7bb4-453d-9370-7e292642f9ce" x1="492.12" y1="86.02" x2="562.27" y2="149.84"/></g><g id="f87a98b5-a679-4127-a85e-e5d5007ec8f2" data-name="Layer 2"><text class="fd669aee-9212-4517-811b-16799cf7b675" transform="translate(638.3 16.67)">The NCBI taxonomy <tspan x="0" y="12">is at the time of the </tspan><tspan x="0" y="24">latest GTDB release.</tspan></text><text class="fbed6570-3cc4-4414-a55d-8cddf583b1df" transform="translate(593.35 192.72)">Genomes which were present in a previous <tspan x="0" y="12">GTDB release, but are not present in R89 </tspan><tspan x="0" y="24">can still have an NCBI taxonom</tspan><tspan class="ef9f463d-cc59-480b-b9d3-b7e11687fa73" x="139.51" y="24">y</tspan><tspan x="143.77" y="24">.</tspan><tspan x="0" y="48">e.g. GCF_000151085.1 was classified as </tspan><tspan x="0" y="60">p__Thermoplasmatota in R86.2 but failed </tspan><tspan x="0" y="72">QC in R89.</tspan><tspan class="e958e827-aa2e-4e56-ab68-810cdafc18e0" x="49.46" y="72"> </tspan><tspan x="52.06" y="72">This genome still has an NCBI </tspan><tspan x="0" y="84">taxonomy which is p__Euryarchaeota.</tspan></text><path class="e3565407-c06f-42f2-bb9e-411728a365a9" d="M172.66,171.53A1.19,1.19,0,0,1,173,173a1.24,1.24,0,0,1-1.22.83h-7.86l4.13,9.8a1.24,1.24,0,0,1,0,1,1.35,1.35,0,0,1-.7.73l-3.64,1.54a1.27,1.27,0,0,1-1,0,1.33,1.33,0,0,1-.72-.7l-3.93-9.3-6.42,6.42a1.27,1.27,0,0,1-.93.39,1.43,1.43,0,0,1-.49-.1,1.24,1.24,0,0,1-.83-1.22v-31a1.37,1.37,0,0,1,1.32-1.32,1.21,1.21,0,0,1,.93.4Z" transform="translate(0 -3.91)"/><text class="fbed6570-3cc4-4414-a55d-8cddf583b1df" transform="translate(143.59 51.66)">Of the 483<tspan class="e958e827-aa2e-4e56-ab68-810cdafc18e0" x="46.7" y="0"> </tspan><tspan x="49.3" y="0">Thermoplasmatota </tspan><tspan x="0" y="12">genomes in R86.2, 6 did not </tspan><tspan x="0" y="24">have an R89 taxonomy (i.e. </tspan><tspan x="0" y="36">failed QC, or no longer </tspan><tspan x="0" y="48">present at NCBI).</tspan></text><text class="fbed6570-3cc4-4414-a55d-8cddf583b1df" transform="translate(425.06 34.77)">The trajectory of those 6 <tspan x="0" y="12">genomes which transition from </tspan><tspan x="0" y="24">“Thermoplasmatota” to “Not </tspan><tspan x="0" y="36">Present” has been highlighted. </tspan><tspan x="0" y="48">In this case, all are classified </tspan><tspan x="0" y="60">as Euryarchaeota at NCBI.</tspan></text></g></svg>