<svg xmlns="http://www.w3.org/2000/svg" viewBox="0 0 800 277.81"><defs><style>.a51c40ed-48f9-478e-8527-1b3b4bf2800e,.ac7f82e9-e581-4ba4-91bd-8b0bde982146,.eb8f2a3d-54eb-46f5-8ce3-ae88163b0911{isolation:isolate;}.ac7f82e9-e581-4ba4-91bd-8b0bde982146{font-size:12px;}.a51c40ed-48f9-478e-8527-1b3b4bf2800e,.ac7f82e9-e581-4ba4-91bd-8b0bde982146{font-family:Arial-BoldMT, Arial;font-weight:700;}.a0da11b6-3ca4-4f30-8fb4-f0a4f17f7a56{fill:#5a6855;}.ac1a335e-8e0d-4468-8f8b-f76e3f72ce0d{fill:#aaa;}.a1cbae88-5181-45d0-adb1-e1d22ced350a,.a4784d9a-a23b-4cbd-b440-a06e9ced1cc3,.a76d2fa1-b203-4f74-92eb-97cfb19206e8,.b4b6dd63-42f4-4053-8160-1daa97da6123,.b530538d-f49e-4a6d-82c7-f15c12f5ee5d,.bf80f81a-4f48-4d8c-9c3d-eee148c72b41,.f06c7b4c-b1c8-4dfd-bc01-a8b9d4c00e1a,.f3cdce57-251a-4c7b-a685-a2daa9839d0b,.f7be43a6-c169-44b2-8558-7a35ffc8b70b{fill:none;}.a76d2fa1-b203-4f74-92eb-97cfb19206e8,.b4b6dd63-42f4-4053-8160-1daa97da6123,.f06c7b4c-b1c8-4dfd-bc01-a8b9d4c00e1a{stroke:#ffc942;stroke-opacity:0.7;}.a76d2fa1-b203-4f74-92eb-97cfb19206e8{stroke-width:15.94px;}.b4b6dd63-42f4-4053-8160-1daa97da6123{stroke-width:18.8px;}.a1cbae88-5181-45d0-adb1-e1d22ced350a,.b530538d-f49e-4a6d-82c7-f15c12f5ee5d,.bf80f81a-4f48-4d8c-9c3d-eee148c72b41,.f3cdce57-251a-4c7b-a685-a2daa9839d0b,.f7be43a6-c169-44b2-8558-7a35ffc8b70b{stroke:#aaa;stroke-opacity:0.2;}.b530538d-f49e-4a6d-82c7-f15c12f5ee5d{stroke-width:36.58px;}.f3cdce57-251a-4c7b-a685-a2daa9839d0b{stroke-width:46.48px;}.bf80f81a-4f48-4d8c-9c3d-eee148c72b41{stroke-width:30.29px;}.a1cbae88-5181-45d0-adb1-e1d22ced350a{stroke-width:36.64px;}.a4784d9a-a23b-4cbd-b440-a06e9ced1cc3,.f06c7b4c-b1c8-4dfd-bc01-a8b9d4c00e1a,.f7be43a6-c169-44b2-8558-7a35ffc8b70b{stroke-width:3px;}.a51c40ed-48f9-478e-8527-1b3b4bf2800e,.eb8f2a3d-54eb-46f5-8ce3-ae88163b0911,.f9123e53-492f-4a14-a291-d7b4ffb752b6{font-size:10px;}.eb8f2a3d-54eb-46f5-8ce3-ae88163b0911,.f9123e53-492f-4a14-a291-d7b4ffb752b6{font-family:ArialMT, Arial;}.bb909205-9e5b-4da0-a3ed-93b6de139e29{letter-spacing:-0.06em;}.b3c26705-6ce6-4e15-94c1-bb136ae112e0{fill:#aae3ff;}.a4784d9a-a23b-4cbd-b440-a06e9ced1cc3{stroke:#aae3ff;stroke-miterlimit:10;}.af76fe36-8ec0-4321-9071-c97b4fef4a84{letter-spacing:-0.07em;}.a23c8bf3-989c-4914-b004-96416a9b8da5{letter-spacing:-0.04em;}.ad667797-20bf-4346-8d87-47288998bb4b{fill:#ff0e00;}</style></defs><title>taxon_history_node_highlighting</title><g id="fc74a316-0368-4e61-820e-337e0a426eb3" data-name="Layer 1"><text class="ac7f82e9-e581-4ba4-91bd-8b0bde982146" transform="translate(0 10.29)">Release 86.2</text><text class="ac7f82e9-e581-4ba4-91bd-8b0bde982146" transform="translate(392.5 10.29)">Release 89</text><text class="ac7f82e9-e581-4ba4-91bd-8b0bde982146" transform="translate(770.67 10.29)">NCBI</text><rect id="a7f64e03-308e-48a7-a0cd-3cd44e9af7b6" data-name="node-0" class="a0da11b6-3ca4-4f30-8fb4-f0a4f17f7a56" y="81.4" width="15" height="17.34"/><rect id="b1b89b95-a867-4a42-949c-5f8bde83e8bc" data-name="node-1" class="a0da11b6-3ca4-4f30-8fb4-f0a4f17f7a56" x="392.5" y="80.58" width="15" height="19.62"/><rect id="e6b93a5b-06ac-4253-bb1e-008c279c052e" data-name="node-2" class="a0da11b6-3ca4-4f30-8fb4-f0a4f17f7a56" x="785" y="26.18" width="15" height="104.84"/><rect id="e081b5d1-7ebd-451e-98bb-9c3699d5cc49" data-name="node-3" class="ac1a335e-8e0d-4468-8f8b-f76e3f72ce0d" y="22.48" width="15" height="37.34"/><rect id="a1707222-7155-4ce4-8582-593f1de2d68a" data-name="node-4" class="ac1a335e-8e0d-4468-8f8b-f76e3f72ce0d" x="392.5" y="21.09" width="15" height="46.48"/><rect id="ba446929-4432-44a2-821c-3c799cb58a3e" data-name="node-5" class="ac1a335e-8e0d-4468-8f8b-f76e3f72ce0d" y="111.74" width="15" height="30.67"/><rect id="f490eec8-db13-4dca-a70d-7658e2900319" data-name="node-6" class="ac1a335e-8e0d-4468-8f8b-f76e3f72ce0d" x="392.5" y="113.2" width="15" height="36.64"/><rect id="fc88de6b-69b4-47fa-9f3e-bc356ed47f8d" data-name="node-7" class="a0da11b6-3ca4-4f30-8fb4-f0a4f17f7a56" x="392.5" y="160.84" width="15" height="5"/><rect id="f38e0765-84d9-4304-8ea4-24bfd0804c8e" data-name="node-8" class="ac1a335e-8e0d-4468-8f8b-f76e3f72ce0d" y="159.6" width="15" height="5"/><rect id="a67ee269-3329-437e-aadd-7b02e73c9149" data-name="node-9" class="ac1a335e-8e0d-4468-8f8b-f76e3f72ce0d" x="392.5" y="176.51" width="15" height="5"/><rect id="b2366e5e-aa13-4f11-b124-48e52de840cb" data-name="node-10" class="ac1a335e-8e0d-4468-8f8b-f76e3f72ce0d" x="392.5" y="190.4" width="15" height="5"/><rect id="a513625a-0831-4209-8cbc-e0ee4341be56" data-name="node-11" class="ac1a335e-8e0d-4468-8f8b-f76e3f72ce0d" y="173.88" width="15" height="5"/><rect id="ff0f838d-bf4a-430d-ac2c-621cc1fb1cc0" data-name="node-12" class="ac1a335e-8e0d-4468-8f8b-f76e3f72ce0d" y="186.94" width="15" height="5"/><rect id="a3b91a27-4ae8-4cc9-8d3e-ea397d60f635" data-name="node-13" class="ac1a335e-8e0d-4468-8f8b-f76e3f72ce0d" x="392.5" y="203.52" width="15" height="5"/><rect id="a46bb4b4-0cc4-4f03-9214-1e4222f11743" data-name="node-14" class="ac1a335e-8e0d-4468-8f8b-f76e3f72ce0d" y="213.32" width="15" height="5"/><rect id="aa4261f4-90ff-4389-bc7a-3767ce3e2b47" data-name="node-15" class="ac1a335e-8e0d-4468-8f8b-f76e3f72ce0d" x="392.5" y="216.65" width="15" height="5"/><rect id="aa7eb48f-92ff-4e86-bc67-1538915da6cf" data-name="node-16" class="ac1a335e-8e0d-4468-8f8b-f76e3f72ce0d" y="226.38" width="15" height="5"/><rect id="bcee7aab-1fc2-44cc-a541-e10a07680326" data-name="node-17" class="ac1a335e-8e0d-4468-8f8b-f76e3f72ce0d" x="392.5" y="229.71" width="15" height="5"/><rect id="b56ef353-5aec-4fa4-b391-372630bdad5c" data-name="node-18" class="ac1a335e-8e0d-4468-8f8b-f76e3f72ce0d" y="239.54" width="15" height="5"/><rect id="a95f7bbc-2997-4333-8eb1-dc336d44f843" data-name="node-19" class="ac1a335e-8e0d-4468-8f8b-f76e3f72ce0d" x="392.5" y="242.9" width="15" height="5"/><rect id="aa1c4c35-8aa8-4c50-8991-2737bd731be2" data-name="node-20" class="ac1a335e-8e0d-4468-8f8b-f76e3f72ce0d" y="252.6" width="15" height="5"/><rect id="be773620-a367-4436-8134-538fcac34107" data-name="node-21" class="ac1a335e-8e0d-4468-8f8b-f76e3f72ce0d" x="392.5" y="255.97" width="15" height="5"/><rect id="f902d968-b58a-487c-b8e1-7ebac1cea99e" data-name="node-22" class="ac1a335e-8e0d-4468-8f8b-f76e3f72ce0d" y="265.66" width="15" height="5"/><rect id="a184fc34-13b2-4a2d-b9d0-2b76796f5e85" data-name="node-23" class="ac1a335e-8e0d-4468-8f8b-f76e3f72ce0d" x="392.5" y="269.03" width="15" height="5"/><rect id="f1da336f-8ff8-43bf-ab7d-33872840f9cc" data-name="node-24" class="ac1a335e-8e0d-4468-8f8b-f76e3f72ce0d" y="200.07" width="15" height="5"/><rect id="b6e1d738-d3df-4bfd-a4e7-924c13b12ee2" data-name="node-25" class="a0da11b6-3ca4-4f30-8fb4-f0a4f17f7a56" x="785" y="142.02" width="15" height="5"/><path id="fea48a61-488b-48f3-bcb5-49635877cbde" data-name="link-0" class="a76d2fa1-b203-4f74-92eb-97cfb19206e8" d="M15,93.28c188.75,0,188.75-.83,377.5-.83" transform="translate(0 -3.91)"/><path id="a9f61676-3787-4465-b991-9b7b832edca6" data-name="link-1" class="b4b6dd63-42f4-4053-8160-1daa97da6123" d="M407.5,93.88C596.25,93.88,596.25,86,785,86" transform="translate(0 -3.91)"/><path id="f35c2505-2884-469d-9d99-00c6a91a52be" data-name="link-2" class="b530538d-f49e-4a6d-82c7-f15c12f5ee5d" d="M15,44.68c188.75,0,188.75-1.39,377.5-1.39" transform="translate(0 -3.91)"/><path id="a88e1c8c-fbac-4650-ba0a-cf42cc553803" data-name="link-3" class="f3cdce57-251a-4c7b-a685-a2daa9839d0b" d="M407.5,48.24c188.75,0,188.75,5.09,377.5,5.09" transform="translate(0 -3.91)"/><path id="b1935d0c-4f09-4371-a9c4-05ee87516cfb" data-name="link-4" class="bf80f81a-4f48-4d8c-9c3d-eee148c72b41" d="M15,130.79c188.75,0,188.75,1.46,377.5,1.46" transform="translate(0 -3.91)"/><path id="be5ec60c-eb3e-46c0-b581-16f9c3b8b887" data-name="link-5" class="a1cbae88-5181-45d0-adb1-e1d22ced350a" d="M407.5,135.43c188.75,0,188.75-21.74,377.5-21.74" transform="translate(0 -3.91)"/><path id="a3017df6-6c72-4c17-b976-8ba6ac43f65c" data-name="link-6" class="f7be43a6-c169-44b2-8558-7a35ffc8b70b" d="M15,146.13c188.75,0,188.75,23,377.5,23" transform="translate(0 -3.91)"/><path id="f6057613-a654-4a83-a333-7af0ae211bff" data-name="link-7" class="f06c7b4c-b1c8-4dfd-bc01-a8b9d4c00e1a" d="M407.5,167.41c188.75,0,188.75-34.74,377.5-34.74" transform="translate(0 -3.91)"/><path id="ecbbf652-9c6c-4efb-a427-58d709188bcb" data-name="link-8" class="f7be43a6-c169-44b2-8558-7a35ffc8b70b" d="M15,166c188.75,0,188.75,16.84,377.5,16.84" transform="translate(0 -3.91)"/><path id="aa96affd-21c6-42da-97cd-8cd2026f7006" data-name="link-9" class="f7be43a6-c169-44b2-8558-7a35ffc8b70b" d="M407.5,182.86c188.75,0,188.75-49.07,377.5-49.07" transform="translate(0 -3.91)"/><path id="bbc364f4-3eb1-4844-aa2a-097e3467e989" data-name="link-10" class="f7be43a6-c169-44b2-8558-7a35ffc8b70b" d="M15,63.35c188.75,0,188.75,103.78,377.5,103.78" transform="translate(0 -3.91)"/><path id="a0d2592b-94b7-41d4-be61-281c78fdceb7" data-name="link-11" class="f7be43a6-c169-44b2-8558-7a35ffc8b70b" d="M407.5,196.36c188.75,0,188.75-62.07,377.5-62.07" transform="translate(0 -3.91)"/><path id="be4a8450-525f-4490-b235-0966fe09b4b5" data-name="link-12" class="f7be43a6-c169-44b2-8558-7a35ffc8b70b" d="M15,179.82c188.75,0,188.75,16.51,377.5,16.51" transform="translate(0 -3.91)"/><path id="bb4c8652-11f7-4e66-a5a3-0b7aa7176cbe" data-name="link-13" class="f7be43a6-c169-44b2-8558-7a35ffc8b70b" d="M15,192.91c188.75,0,188.75,16.58,377.5,16.58" transform="translate(0 -3.91)"/><path id="eeb757e2-59cf-44e5-9795-f1b8e7fefa28" data-name="link-14" class="f7be43a6-c169-44b2-8558-7a35ffc8b70b" d="M407.5,209.49c188.75,0,188.75-75.07,377.5-75.07" transform="translate(0 -3.91)"/><path id="e865752f-a95a-457a-8d40-774f4b50fdab" data-name="link-15" class="f7be43a6-c169-44b2-8558-7a35ffc8b70b" d="M15,219.26c188.75,0,188.75,3.33,377.5,3.33" transform="translate(0 -3.91)"/><path id="b0bc7969-c97e-41d6-91df-da85e2e9b6f2" data-name="link-16" class="f7be43a6-c169-44b2-8558-7a35ffc8b70b" d="M407.5,222.59c188.75,0,188.75-88.07,377.5-88.07" transform="translate(0 -3.91)"/><path id="a442e2c0-2211-4a59-8a07-f52400c35a64" data-name="link-17" class="f7be43a6-c169-44b2-8558-7a35ffc8b70b" d="M15,232.32c188.75,0,188.75,3.33,377.5,3.33" transform="translate(0 -3.91)"/><path id="bdefbf04-8251-4e84-a12a-5d15978cdc34" data-name="link-18" class="f7be43a6-c169-44b2-8558-7a35ffc8b70b" d="M407.5,235.71c188.75,0,188.75-101.07,377.5-101.07" transform="translate(0 -3.91)"/><path id="b5bbbe6d-817f-4d2c-b69e-434ef2606150" data-name="link-19" class="f7be43a6-c169-44b2-8558-7a35ffc8b70b" d="M15,245.47c188.75,0,188.75,3.37,377.5,3.37" transform="translate(0 -3.91)"/><path id="fef2aed7-046d-4b2b-87cf-51212d483911" data-name="link-20" class="f7be43a6-c169-44b2-8558-7a35ffc8b70b" d="M407.5,248.84c188.75,0,188.75-114.07,377.5-114.07" transform="translate(0 -3.91)"/><path id="e75318c4-da01-484d-9e43-ef44e3205c1d" data-name="link-21" class="f06c7b4c-b1c8-4dfd-bc01-a8b9d4c00e1a" d="M15,102c188.75,0,188.75,66.26,377.5,66.26" transform="translate(0 -3.91)"/><path id="bae49322-85ab-43db-9500-e4d02103134a" data-name="link-22" class="f7be43a6-c169-44b2-8558-7a35ffc8b70b" d="M15,258.54c188.75,0,188.75,3.36,377.5,3.36" transform="translate(0 -3.91)"/><path id="bdb9a123-e5a2-4f81-9072-5c5cb8656202" data-name="link-23" class="f7be43a6-c169-44b2-8558-7a35ffc8b70b" d="M407.5,261.9c188.75,0,188.75-127.07,377.5-127.07" transform="translate(0 -3.91)"/><path id="ed002269-1908-46ca-bc22-496c5c2be6a5" data-name="link-24" class="f7be43a6-c169-44b2-8558-7a35ffc8b70b" d="M15,271.6c188.75,0,188.75,3.37,377.5,3.37" transform="translate(0 -3.91)"/><path id="a9cc5839-72de-4a07-9e2f-c4f5b77a48f8" data-name="link-25" class="f7be43a6-c169-44b2-8558-7a35ffc8b70b" d="M407.5,275C596.25,275,596.25,134.9,785,134.9" transform="translate(0 -3.91)"/><path id="adb17565-0f87-4d4f-9548-6d53dad98480" data-name="link-26" class="f7be43a6-c169-44b2-8558-7a35ffc8b70b" d="M15,206c188.75,0,188.75-36.63,377.5-36.63" transform="translate(0 -3.91)"/><path id="aaa25e8e-bd2a-4443-bc27-5b88d60955dc" data-name="link-27" class="f7be43a6-c169-44b2-8558-7a35ffc8b70b" d="M15,165.54c188.75,0,188.75,3.78,377.5,3.78" transform="translate(0 -3.91)"/><path id="bac72e97-20b2-4f1b-8312-23ae39d09699" data-name="link-28" class="f06c7b4c-b1c8-4dfd-bc01-a8b9d4c00e1a" d="M407.5,103.69c188.75,0,188.75,44.65,377.5,44.65" transform="translate(0 -3.91)"/><path id="e7c0e25b-a764-4a4a-ac1b-01b7a023141f" data-name="link-29" class="f06c7b4c-b1c8-4dfd-bc01-a8b9d4c00e1a" d="M407.5,168.75c188.75,0,188.75-19.33,377.5-19.33" transform="translate(0 -3.91)"/><text class="a51c40ed-48f9-478e-8527-1b3b4bf2800e" transform="translate(21 93.57)">p__Euryarchaeota (273)</text><text class="eb8f2a3d-54eb-46f5-8ce3-ae88163b0911" transform="translate(413.5 93.89)">p__Euryarchaeota (309)</text><text class="eb8f2a3d-54eb-46f5-8ce3-ae88163b0911" transform="translate(662.81 82.1)">p__Euryarchaeota (1,651)</text><text class="eb8f2a3d-54eb-46f5-8ce3-ae88163b0911" transform="translate(21 44.65)">p__Halobacterota (588)</text><text class="eb8f2a3d-54eb-46f5-8ce3-ae88163b0911" transform="translate(413.5 47.84)">p__Halobacterota (732)</text><text class="eb8f2a3d-54eb-46f5-8ce3-ae88163b0911" transform="translate(21 130.58)">p__Thermoplasmatota (483)</text><text class="eb8f2a3d-54eb-46f5-8ce3-ae88163b0911" transform="translate(413.5 135.02)">p__Thermoplasmatota (577)</text><text class="eb8f2a3d-54eb-46f5-8ce3-ae88163b0911" transform="translate(413.5 167.67)">Not Present (42)</text><text class="eb8f2a3d-54eb-46f5-8ce3-ae88163b0911" transform="translate(21 165.58)">p__Altiarchaeota (15)</text><text class="eb8f2a3d-54eb-46f5-8ce3-ae88163b0911" transform="translate(413.5 182.45)">p__Altiarchaeota (14)</text><text class="eb8f2a3d-54eb-46f5-8ce3-ae88163b0911" transform="translate(413.5 195.96)">p__Crenarchaeota (2)</text><text class="eb8f2a3d-54eb-46f5-8ce3-ae88163b0911" transform="translate(21 179.41)">p__Crenarchaeota (1)</text><text class="eb8f2a3d-54eb-46f5-8ce3-ae88163b0911" transform="translate(21 192.51)">p__Hadesarchaeota (2)</text><text class="eb8f2a3d-54eb-46f5-8ce3-ae88163b0911" transform="translate(413.5 209.09)">p__Hadarchaeota (2)</text><text class="eb8f2a3d-54eb-46f5-8ce3-ae88163b0911" transform="translate(21 218.85)">p__Nanoarchaeota (1)</text><text class="eb8f2a3d-54eb-46f5-8ce3-ae88163b0911" transform="translate(413.5 222.18)">p__Nanoarchaeota (1)</text><text class="eb8f2a3d-54eb-46f5-8ce3-ae88163b0911" transform="translate(21 231.92)">p__JdFR-18 (1)</text><text class="eb8f2a3d-54eb-46f5-8ce3-ae88163b0911" transform="translate(413.5 235.31)">p__Hydrothermarchaeota (3)</text><text class="eb8f2a3d-54eb-46f5-8ce3-ae88163b0911" transform="translate(21 245.07)">p__Micrarchaeota (1)</text><text class="eb8f2a3d-54eb-46f5-8ce3-ae88163b0911" transform="translate(413.5 248.44)">p__Micrarchaeota (1)</text><text class="eb8f2a3d-54eb-46f5-8ce3-ae88163b0911" transform="translate(21 258.13)">p__UAP2 (1)</text><text class="eb8f2a3d-54eb-46f5-8ce3-ae88163b0911" transform="translate(413.5 261.5)">p__UAP2 (1)</text><text class="eb8f2a3d-54eb-46f5-8ce3-ae88163b0911" transform="translate(21 271.2)">p__Proteobacteria (1)</text><text class="eb8f2a3d-54eb-46f5-8ce3-ae88163b0911" transform="translate(413.5 274.56)">p__Proteobacteria (1)</text><text class="eb8f2a3d-54eb-46f5-8ce3-ae88163b0911" transform="translate(21 205.6)">p__<tspan class="bb909205-9e5b-4da0-a3ed-93b6de139e29" x="16.68" y="0">V</tspan><tspan x="22.8" y="0">errucomicrobiota (1)</tspan></text><text class="eb8f2a3d-54eb-46f5-8ce3-ae88163b0911" transform="translate(705.64 148.6)">Not Present (34)</text></g><g id="fd0daf33-15f8-4ca9-9d32-fa253e2aaf0d" data-name="Layer 3"><rect class="b3c26705-6ce6-4e15-94c1-bb136ae112e0" x="134.57" y="27.11" width="133.39" height="27.32"/><rect class="b3c26705-6ce6-4e15-94c1-bb136ae112e0" x="164.88" y="170.51" width="193.52" height="29.56"/><line class="a4784d9a-a23b-4cbd-b440-a06e9ced1cc3" x1="179.03" y1="44.65" x2="101.73" y2="81.4"/><line class="a4784d9a-a23b-4cbd-b440-a06e9ced1cc3" x1="228.55" y1="173.09" x2="222.35" y2="137.63"/><rect class="b3c26705-6ce6-4e15-94c1-bb136ae112e0" x="271.49" y="100.51" width="113.18" height="31.01"/><line class="a4784d9a-a23b-4cbd-b440-a06e9ced1cc3" x1="247.24" y1="90.39" x2="335.66" y2="108"/><rect class="b3c26705-6ce6-4e15-94c1-bb136ae112e0" x="550.16" y="10.4" width="170.01" height="52.63"/><line class="a4784d9a-a23b-4cbd-b440-a06e9ced1cc3" x1="587.17" y1="50.9" x2="543.33" y2="86.02"/><line class="a4784d9a-a23b-4cbd-b440-a06e9ced1cc3" x1="584.75" y1="54.98" x2="553.94" y2="113.2"/><rect class="b3c26705-6ce6-4e15-94c1-bb136ae112e0" x="550.16" y="184.17" width="170.01" height="70.04"/><line class="a4784d9a-a23b-4cbd-b440-a06e9ced1cc3" x1="574.19" y1="192.9" x2="569.35" y2="157.87"/><line class="a4784d9a-a23b-4cbd-b440-a06e9ced1cc3" x1="571.77" y1="187.9" x2="611.46" y2="143.36"/></g><g id="bea26d7d-dac3-4103-8dc4-74dfc172e6b1" data-name="Layer 2"><text class="f9123e53-492f-4a14-a291-d7b4ffb752b6" transform="translate(138.12 38.13)">In R86.2, 273 genomes were <tspan x="0" y="12">classified as Euryarchaeota.</tspan></text><text class="f9123e53-492f-4a14-a291-d7b4ffb752b6" transform="translate(275.28 114.05)">251/273 retained the <tspan x="0" y="12">same taxonomy in R89.</tspan></text><text class="f9123e53-492f-4a14-a291-d7b4ffb752b6" transform="translate(169.43 182.78)">22/273 were not present in R89 (i.e. failed <tspan x="0" y="12">QC, or were removed at NCBI).</tspan></text><text class="f9123e53-492f-4a14-a291-d7b4ffb752b6" transform="translate(553.94 20.53)">The trajectory of those 251 genomes <tspan x="0" y="12">has been highlighted. Some are </tspan><tspan x="0" y="24">congruent with the NCBI taxonom</tspan><tspan class="af76fe36-8ec0-4321-9071-c97b4fef4a84" x="149.52" y="24">y</tspan><tspan x="153.78" y="24">, </tspan><tspan x="0" y="36">and some are not present at NCBI.</tspan></text><text class="f9123e53-492f-4a14-a291-d7b4ffb752b6" transform="translate(553.94 197.31)">Similarl<tspan class="af76fe36-8ec0-4321-9071-c97b4fef4a84" x="32.78" y="0">y</tspan><tspan x="37.04" y="0">, the trajectory of those 22 </tspan><tspan x="0" y="12">genomes “Not Present</tspan><tspan class="a23c8bf3-989c-4914-b004-96416a9b8da5" x="100.05" y="12">’</tspan><tspan x="101.9" y="12" xml:space="preserve"> have been </tspan><tspan x="0" y="24">higlighted, showing that some are </tspan><tspan x="0" y="36">classified as Euryarchaeota at NCBI, </tspan><tspan x="0" y="48">and some are not present at NCBI.</tspan></text></g><g id="bcc18784-616d-4046-b788-5f8897b34282" data-name="Layer 4"><path class="ad667797-20bf-4346-8d87-47288998bb4b" d="M30.88,113.83a1.17,1.17,0,0,1,.29,1.42,1.24,1.24,0,0,1-1.21.82H22.09l4.14,9.8a1.27,1.27,0,0,1,0,1,1.33,1.33,0,0,1-.7.72l-3.64,1.54a1.27,1.27,0,0,1-1,0,1.33,1.33,0,0,1-.72-.7l-3.94-9.3L9.8,125.56a1.29,1.29,0,0,1-1.42.29,1.24,1.24,0,0,1-.82-1.22v-31a1.22,1.22,0,0,1,.82-1.21,1.27,1.27,0,0,1,.5-.1,1.2,1.2,0,0,1,.92.39Z" transform="translate(0 -3.91)"/></g></svg>