<?xml version="1.0" encoding="UTF-8"?>
<svg id="Layer_1" data-name="Layer 1" xmlns="http://www.w3.org/2000/svg" version="1.1" viewBox="0 0 250.7 56">
  <defs>
    <style>
      .cls-1 {
        fill: none;
        stroke: #fff;
        stroke-miterlimit: 3.9;
        stroke-width: 1.3px;
      }

      .cls-2 {
        fill-rule: evenodd;
      }

      .cls-2, .cls-3 {
        fill: #fff;
        stroke-width: 0px;
      }
    </style>
  </defs>
  <path class="cls-2" d="M89.8,24.9h-3.7l-.4,1c-.1.3-.2.5-.2.8,0,.3.1.5.3.6.3.1.7.2,1,.2v.3h-3.4v-.3c.4,0,.7-.2.9-.5.4-.5.7-1,.9-1.6l3.7-8.3h.2l3.7,8.5c.2.6.5,1.1.9,1.5.2.2.5.3.7.3v.3h-5v-.3h.2c.3,0,.6,0,.8-.2.1,0,.2-.2.2-.4,0,0,0-.2,0-.3,0,0,0-.2-.2-.6l-.6-1.3h0ZM89.6,24.3l-1.5-3.6-1.6,3.6h3.1Z"/>
  <path class="cls-3" d="M100.8,20.7v5.6c0,.3,0,.7.2,1,.2.2.4.3.6.2v.3h-2.9v-1c-.3.4-.6.7-1,.9-.4.2-.8.3-1.2.3-.4,0-.8-.1-1.1-.4-.3-.2-.5-.5-.6-.9-.1-.5-.2-1.1-.2-1.6v-2.8c0-.3,0-.7-.2-1-.2-.2-.4-.3-.6-.3v-.3h2.9v4.9c0,.3,0,.7,0,1,0,.1.1.3.2.3.1,0,.2.1.4.1.2,0,.4,0,.5-.1.3-.2.5-.5.7-.8v-3.8c0-.3,0-.7-.2-1-.2-.2-.4-.3-.6-.3v-.3h2.9ZM106.6,20.5v2.4c.1,0-.2,0-.2,0-.2-.6-.6-1.1-1-1.5-.3-.2-.6-.4-1-.4-.2,0-.4,0-.5.2-.1.1-.2.3-.2.5,0,.1,0,.3.2.4.4.4.9.8,1.4,1.1.6.3,1.1.8,1.5,1.3.2.3.4.8.4,1.2,0,.4-.1.8-.3,1.2-.2.4-.5.7-.8.9-.4.2-.8.3-1.2.3-.5,0-.9-.1-1.4-.3,0,0-.2,0-.3,0-.2,0-.3.1-.4.4h-.2v-2.6c-.1,0,.1,0,.1,0,.2.6.5,1.1.9,1.5.3.3.7.5,1.1.5.2,0,.4,0,.6-.2.2-.1.2-.3.2-.5,0-.2,0-.5-.2-.6-.3-.3-.6-.6-1-.8-.6-.4-1.1-.8-1.5-1.3-.3-.4-.5-.9-.5-1.4,0-.5.2-1.1.6-1.5.4-.5,1-.7,1.7-.7.4,0,.8,0,1.1.3.1,0,.2.1.3.1,0,0,.2,0,.2,0,.1,0,.2-.2.3-.3h.3ZM110.3,18.1v2.6h1.7v.8h-1.7v4.4c0,.3,0,.5,0,.8,0,.1.1.2.2.3,0,0,.2.1.3.1.3,0,.6-.3.9-.8l.2.2c-.3.9-1.1,1.5-2,1.5-.4,0-.8-.1-1.2-.4-.3-.2-.5-.5-.6-.9,0-.5,0-.9,0-1.4v-3.9h-.9v-.3c.6-.4,1.1-.9,1.6-1.4.5-.5.9-1.1,1.2-1.7h.2ZM115.5,20.7v1.6c.3-.6.7-1.1,1.2-1.5.3-.2.6-.3,1-.4.3,0,.5,0,.7.3.2.2.3.5.3.7,0,.3,0,.6-.2.8-.1.2-.4.3-.6.3-.3,0-.5,0-.7-.3l-.3-.3c0,0-.1,0-.2,0-.2,0-.3,0-.4.2-.2.2-.4.5-.5.7-.2.5-.2,1.1-.2,1.6v2.1c0,.2,0,.4,0,.6,0,.1.1.2.3.3.2,0,.4.1.6.1v.3h-3.9v-.3c.2,0,.5,0,.6-.2.2-.4.2-.8.2-1.1v-4c0-.3,0-.5,0-.8,0-.1-.1-.2-.2-.3-.2,0-.3-.1-.5-.1v-.3h2.9Z"/>
  <path class="cls-2" d="M122.7,26.8c-.6.6-1.4,1.1-2.3,1.1-.4,0-.7-.1-1-.4-.3-.3-.4-.6-.4-1,0-.6.3-1.1.7-1.5.9-.7,2-1.3,3.1-1.7v-.7c0-.3,0-.7,0-1,0-.2-.2-.3-.3-.4-.2-.1-.4-.2-.6-.2-.3,0-.6,0-.8.2-.1,0-.2.2-.2.3,0,.2,0,.3.2.4.2.2.3.4.3.6,0,.2,0,.5-.3.6-.2.2-.5.3-.7.3-.3,0-.6,0-.8-.3-.2-.2-.3-.4-.3-.7,0-.4.2-.7.4-1,.3-.4.7-.6,1.2-.8.5-.2,1.1-.3,1.6-.3.6,0,1.1.1,1.6.4.3.2.6.5.8.9,0,.5.1,1,.1,1.5v2.8c0,.2,0,.4,0,.6,0,0,0,.1.1.2,0,0,.1,0,.2,0,.1,0,.3,0,.4-.3l.2.2c-.2.3-.5.6-.8.8-.3.2-.6.3-.9.2-.4,0-.7,0-1-.3-.2-.2-.4-.5-.4-.9h0ZM122.7,26.2v-2.4c-.5.3-1,.7-1.4,1.2-.2.2-.3.5-.3.8,0,.2,0,.5.2.6.1.1.3.2.5.2.3,0,.7-.2.9-.4h0Z"/>
  <path class="cls-3" d="M128.9,17.5v8.9c0,.3,0,.7.2,1,.2.2.4.2.7.2v.3h-3.9v-.3c.3,0,.5,0,.7-.3.1-.3.2-.6.1-.9v-7.4c0-.3,0-.7-.2-1-.2-.2-.4-.3-.7-.2v-.3h3Z"/>
  <path class="cls-2" d="M132.1,17.2c.7,0,1.2.5,1.2,1.2s-.5,1.2-1.2,1.2c-.7,0-1.2-.5-1.2-1.2,0-.3.1-.6.3-.9.2-.2.5-.4.8-.4ZM133.2,20.7v5.7c0,.3,0,.7.2,1,.2.2.4.2.7.2v.3h-3.9v-.3c.3,0,.5,0,.7-.3.1-.3.2-.6.1-.9v-4.2c0-.3,0-.7-.2-1-.2-.2-.4-.3-.7-.2v-.3h3ZM138.2,26.8c-.6.6-1.4,1.1-2.3,1.1-.4,0-.7-.1-1-.4-.3-.3-.4-.6-.4-1,0-.6.3-1.1.7-1.5.9-.7,2-1.3,3.1-1.7v-.7c0-.3,0-.7,0-1,0-.2-.2-.3-.3-.4-.2-.1-.4-.2-.6-.2-.3,0-.6,0-.8.2-.1,0-.2.2-.2.3,0,.2,0,.3.2.4.2.2.3.4.3.6,0,.2,0,.5-.3.6-.2.2-.5.3-.7.3-.3,0-.6,0-.8-.3-.2-.2-.3-.4-.3-.7,0-.4.2-.7.4-1,.3-.4.7-.6,1.2-.8.5-.2,1.1-.3,1.6-.3.6,0,1.1.1,1.6.4.3.2.6.5.8.9,0,.5.1,1,.1,1.5v2.8c0,.2,0,.4,0,.6,0,0,0,.1.1.2,0,0,.1,0,.2,0,.1,0,.3,0,.4-.3l.2.2c-.2.3-.5.6-.8.8-.3.2-.6.3-.9.2-.4,0-.7,0-1-.3-.2-.2-.4-.5-.4-.9h0ZM138.2,26.2v-2.4c-.5.3-1,.7-1.4,1.2-.2.2-.3.5-.3.8,0,.2,0,.5.2.6.1.1.3.2.5.2.3,0,.7-.2.9-.4h0Z"/>
  <path class="cls-3" d="M144.4,20.7v.9c.3-.3.7-.6,1.1-.9.3-.2.7-.3,1.1-.3.4,0,.8.1,1.1.4.3.3.5.6.6,1,.1.6.1,1.1.1,1.7v2.8c0,.3,0,.7.1,1,.2.2.4.3.6.2v.3h-3.6v-.3c.2,0,.5-.1.6-.3.1-.3.2-.6.1-1v-3.2c0-.4,0-.7,0-1.1,0-.1-.1-.3-.2-.4-.1,0-.2-.1-.4-.1-.4,0-.8.3-1.2.9v3.8c0,.3,0,.7.1,1,.1.2.3.3.6.3v.3h-3.6v-.3c.2,0,.5-.1.6-.3.1-.3.2-.7.1-1v-4c0-.3,0-.7-.1-1-.2-.2-.4-.3-.6-.3v-.3h2.9ZM163.3,17.2v3.6h-.3c-.3-.9-.8-1.7-1.5-2.3-.6-.5-1.4-.8-2.2-.8-.7,0-1.4.2-1.9.7-.5.5-.9,1.1-1.1,1.8-.2.8-.3,1.6-.3,2.4,0,.9.1,1.8.4,2.6.2.7.6,1.3,1.1,1.7.6.4,1.2.5,1.9.5.3,0,.5,0,.8,0,.3,0,.5-.1.8-.2v-2.2c0-.3,0-.5,0-.8,0-.1-.2-.3-.4-.3-.2-.1-.4-.2-.6-.1h-.3v-.3h5v.3c-.3,0-.5,0-.8.2-.2,0-.3.2-.3.4,0,.2,0,.5,0,.7v2.1c-.7.3-1.4.5-2.1.7-.7.2-1.5.2-2.2.2-.8,0-1.7-.1-2.4-.4-.6-.3-1.2-.6-1.7-1-.5-.4-.9-.9-1.2-1.5-.4-.7-.5-1.5-.5-2.4,0-1.5.6-2.9,1.6-4,1.1-1.1,2.6-1.7,4.1-1.6.5,0,.9,0,1.4.1.4,0,.7.2,1.1.4.3.1.6.2.9.3.1,0,.3,0,.4-.1.2-.2.3-.4.3-.6h.3Z"/>
  <path class="cls-2" d="M168.2,20.5c.6,0,1.2.2,1.7.5.5.3,1,.8,1.2,1.4.3.6.4,1.3.4,1.9,0,.9-.2,1.8-.8,2.5-.6.8-1.6,1.2-2.6,1.2-1,0-1.9-.4-2.5-1.1-.6-.7-.9-1.7-.9-2.6,0-1,.3-1.9.9-2.7.6-.8,1.5-1.2,2.4-1.1h0ZM168.2,21c-.3,0-.5.1-.7.3-.2.3-.4.7-.4,1.2,0,.6,0,1.4,0,2.4,0,.5,0,1,.1,1.5,0,.3.2.6.4.8.2.2.4.3.6.3.2,0,.4,0,.6-.2.2-.2.4-.4.4-.7.1-1,.2-2,.1-2.9,0-.6,0-1.2-.1-1.8,0-.3-.2-.5-.4-.7-.1-.1-.3-.2-.5-.2h0Z"/>
  <path class="cls-3" d="M175,28l-2.4-5.5c-.2-.5-.4-.9-.7-1.3-.1-.1-.3-.2-.5-.3v-.3h3.8v.3c-.2,0-.3,0-.5.1-.1.1-.2.2-.2.4,0,.4.2.7.3,1.1l1.2,2.7.9-2.3c.2-.4.3-.9.4-1.4,0-.1,0-.3-.2-.4-.2-.1-.4-.2-.6-.2v-.3h2.3v.3c-.2,0-.4.1-.6.2-.3.4-.5.8-.6,1.2l-2.4,5.5h-.4Z"/>
  <path class="cls-2" d="M184.5,24h-3.9c0,.8.3,1.6.8,2.2.3.4.8.6,1.3.6.3,0,.6,0,.8-.2.3-.3.6-.6.8-.9l.3.2c-.3.7-.7,1.2-1.3,1.7-.5.3-1.1.5-1.6.4-1,0-1.9-.4-2.4-1.2-.5-.7-.7-1.6-.7-2.4,0-1,.3-2.1,1-2.8.6-.7,1.4-1.1,2.3-1.1.7,0,1.4.3,1.9.9.6.7.9,1.7.9,2.6h0ZM182.6,23.5c0-.6,0-1.1-.1-1.7,0-.3-.2-.5-.4-.7-.1,0-.3-.1-.4-.1-.3,0-.5.2-.6.4-.3.6-.5,1.2-.4,1.9v.3h2.1Z"/>
  <path class="cls-3" d="M187.9,20.7v1.6c.3-.6.7-1.1,1.2-1.5.3-.2.6-.3,1-.4.3,0,.5,0,.7.3.2.2.3.5.3.7,0,.3,0,.6-.2.8-.1.2-.4.3-.6.3-.3,0-.5,0-.7-.3l-.4-.3c0,0-.1,0-.2,0-.2,0-.3,0-.4.2-.2.2-.4.5-.5.7-.2.5-.2,1.1-.2,1.6v2.1c0,.2,0,.4,0,.6,0,.1.1.2.3.3.2,0,.4.1.6.1v.3h-3.9v-.3c.2,0,.5,0,.6-.2.2-.4.2-.8.2-1.1v-4c0-.3,0-.5,0-.8,0-.1-.1-.2-.2-.3-.2,0-.3-.1-.5-.1v-.3h2.9ZM194.5,20.7v.9c.3-.3.7-.6,1.1-.9.3-.2.7-.3,1.1-.3.4,0,.8.1,1.1.4.3.3.5.6.6,1,.1.6.1,1.1.1,1.7v2.8c0,.3,0,.7.1,1,.2.2.4.3.6.2v.3h-3.6v-.3c.2,0,.5-.1.6-.3.1-.3.2-.6.1-1v-3.2c0-.4,0-.7,0-1.1,0-.1-.1-.3-.2-.4-.1,0-.2-.1-.4-.1-.4,0-.8.3-1.2.9v3.8c0,.3,0,.7.1,1,.1.2.3.3.6.3v.3h-3.6v-.3c.2,0,.5-.1.6-.3.1-.3.2-.7.1-1v-4c0-.3,0-.7-.1-1-.2-.2-.4-.3-.6-.3v-.3h2.9ZM202.8,20.7v.9c.3-.4.7-.7,1.1-.9.3-.2.7-.3,1.1-.3.4,0,.8,0,1.1.3.3.2.6.6.7,1,.3-.4.7-.7,1.2-1,.4-.2.8-.3,1.2-.3.4,0,.8,0,1.2.3.3.2.5.5.6.9.1.5.2,1.1.2,1.7v2.9c0,.3,0,.7.1,1,.2.2.4.3.6.3v.3h-3.7v-.3c.3,0,.5-.1.6-.3.1-.3.2-.6.1-1v-3.1c0-.4,0-.8,0-1.2,0-.1-.1-.3-.2-.4-.1,0-.2-.1-.4-.1-.2,0-.5,0-.7.2-.3.2-.5.4-.7.7v3.8c0,.3,0,.7.1,1,.2.2.4.3.7.3v.3h-3.7v-.3c.2,0,.3,0,.5-.1.1,0,.2-.2.2-.3,0-.3,0-.5,0-.8v-3.1c0-.4,0-.8,0-1.2,0-.2-.1-.3-.3-.4-.1,0-.2-.1-.4-.1-.2,0-.4,0-.6.2-.3.2-.6.5-.8.8v3.8c0,.3,0,.7.1,1,.2.2.4.3.6.3v.3h-3.7v-.3c.2,0,.5-.1.6-.3.1-.3.2-.7.1-1v-4c0-.3,0-.7-.1-1-.2-.2-.4-.3-.6-.3v-.3h2.9Z"/>
  <path class="cls-2" d="M218.3,24h-3.9c0,.8.3,1.6.8,2.2.3.4.8.6,1.3.6.3,0,.6,0,.8-.2.3-.3.6-.6.8-.9l.3.2c-.3.7-.7,1.2-1.3,1.7-.5.3-1,.5-1.6.5-1,0-1.9-.4-2.4-1.2-.5-.7-.7-1.6-.7-2.4,0-1,.3-2.1,1-2.8.6-.7,1.4-1.1,2.3-1.1.7,0,1.4.3,1.9.9.6.7.9,1.7.9,2.6h0ZM216.4,23.5c0-.6,0-1.1-.1-1.7,0-.3-.2-.5-.4-.7-.1,0-.3-.1-.4-.1-.3,0-.5.2-.6.4-.3.6-.5,1.2-.4,1.9v.3h2.1Z"/>
  <path class="cls-3" d="M221.4,20.7v.9c.3-.3.7-.6,1.1-.9.3-.2.7-.3,1.1-.3.4,0,.8.1,1.1.4.3.3.5.6.6,1,.1.6.1,1.1.1,1.7v2.8c0,.3,0,.7.1,1,.2.2.4.3.6.2v.3h-3.6v-.3c.2,0,.5-.1.6-.3.1-.3.2-.6.1-1v-3.2c0-.4,0-.7,0-1.1,0-.1-.1-.3-.2-.4-.1,0-.2-.1-.4-.1-.4,0-.8.3-1.2.9v3.8c0,.3,0,.7.1,1,.1.2.3.3.6.3v.3h-3.6v-.3c.2,0,.5-.1.6-.3.1-.3.2-.7.1-1v-4c0-.3,0-.7-.1-1-.2-.2-.4-.3-.6-.3v-.3h2.9ZM229.3,18.1v2.6h1.7v.8h-1.7v4.4c0,.3,0,.5,0,.8,0,.1.1.2.2.3,0,0,.2.1.3.1.3,0,.6-.3.9-.8l.2.2c-.3.9-1.1,1.5-2,1.5-.4,0-.8-.1-1.1-.4-.3-.2-.5-.5-.6-.9,0-.5,0-.9,0-1.4v-3.9h-.9v-.3c.6-.4,1.1-.9,1.6-1.4.5-.5.9-1.1,1.2-1.7h.2ZM25.8,44.9c0,0-.1.2-.2.2M27.6,30.9c.2,0,.4-.2.4-.4s-.2-.4-.4-.4c-.2,0-.4.2-.4.4,0,0,0,0,0,0,0,.2.2.4.4.4,0,0,0,0,0,0ZM44.9,15.1h-13.5v10.9c0,.9.3,1.7,1.1,2.2l5.2,3.1c.2.2.6.2.9,0l5.3-3.1c.7-.5,1.1-1.3,1.1-2.2v-10.9h0ZM35.9,18.2h-1.2v-2.8h1.2v2.8ZM35,19.2l.2-.2v-.2c0,0,.1,0,.1,0v-.2c.1,0,.3.2.3.2h.2v.2c0,0,0,.2,0,.2h-.2v.2h-.2c0-.1-.2,0-.2,0v-.2h-.2ZM31.8,22.7v-2.7h1.4v2.6h-1.4ZM32,18.8h.2v-.2c.1,0,.3.2.3.2h.2-.1c0,.1.2.3.2.3h-.2v.2h-.2c0-.1-.2,0-.2,0v-.2h-.2l.2-.2v-.2c0,0,0,0,0,0ZM33.6,21.5h.2v-.2c.1,0,.3.2.3.2h.2v.2c0,0,0,.2,0,.2h-.2v.2h-.2c0-.1-.2,0-.2,0v-.2h-.2l.2-.2v-.2h-.1ZM34.6,19.4c0,0,0,0-.1,0s-.2.2-.3.2-.1,0-.1,0,.2-.1.2-.2c-.9,0-.9.4-1,.4s.2-.4.3-.5c-.2,0-.3-.2-.5-.4,0-.1.1,0,.3,0,0,0,0-.2.3-.2.4,0,.3.4.3.4s0-.4.3-.4.9,1,.4,1,0-.1,0-.2h0ZM33.6,16.5l.2-.2v-.2c0,0,.1,0,.1,0v-.2c.1,0,.3.2.3.2h.2v.2c0,0,0,.2,0,.2h-.2v.2h-.2c0-.1-.2,0-.2,0v-.2h-.2ZM33.2,15.5v2.8h-1.5v-2.8h1.5ZM35.9,29.8l-3.2-1.9c-.5-.4-.9-1.1-.9-1.8v-3.1h4.1v6.8h0ZM34.7,22.7v-2.7h1.2v2.6h-1.2ZM40,30.1l-1.5.9c-.1,0-.2.1-.4.1-.1,0-.3,0-.4-.1l-1.5-.9v-7h3.8v7h0ZM40,22.7h-3.8v-7.2h3.8v7.2h0ZM44.5,26.1c0,.7-.3,1.4-.9,1.8l-3.2,1.9v-6.8h4.1v3.1h0ZM44.5,22.7h-4.1v-7.2h4.1v7.2Z"/>
  <path class="cls-3" d="M35.7,25.5s-.5.2-.4.1c0-.2.2-.4.4-.5,0-.2-.2,0-.5.1.8-1.1.3-.6-.2-.6.7-.7.5-.7,0-.5.4-.3.5-.7.4-.8-.4.5-.7.4-.7.9,0,.4,0,.7-.3,1-.2.2,0-.8-.6-.8s-.6,0-.7.2c.1,0,.3.3.3.4s0,.4,0,.4-.4-.4-.4-.6v-.4c-.1-.5-.5-.9-1-1,0,.3.4.4.4.8-.2,0-.4-.3-.4-.1s.2.2.2.4-.3,0-.3.1.2.1.2.3h-.2s0,.1.1.2,0,.1,0,.4c0,.9.5,1.3.9,1.3s.2-.2.3-.3c0,.1.2,0,.2.2s-.3.1-.3.4.4,0,.4.3c0,.2,0,.4,0,.6,0,.1.5-.1.4-.2s0,.4.3.4.2-.3.3-.4c0,0,.4.3.4.2,0-.4-.2-.2-.2-.5s.5-.2.5-.3-.1,0-.2-.2c0,0-.4-.6,0-.3s.6-.9.6-.9h0ZM50,28.4c.2,0,.4-.2.3-.5s-.2-.4-.5-.3c-.2,0-.3.2-.3.4,0,.2.2.4.4.4h0ZM48.2,29.5c.2,0,.4-.2.3-.4,0-.2-.2-.4-.4-.3-.2,0-.3.2-.3.4,0,.2.2.4.4.4ZM26.9,31.9c.2,0,.4-.2.3-.4,0-.2-.2-.4-.4-.3-.2,0-.3.2-.3.4,0,.2.2.4.4.4ZM28.3,32c.2,0,.4-.2.3-.4,0-.2-.2-.4-.4-.3-.2,0-.3.2-.3.4,0,.2.2.4.4.4ZM66.7,13.4c.7.8.8,2,.3,2.9-.3,0-.2-.4-.3-.5-.6-.9-.7-2-.4-3,.3,0,.2.4.3.6h0ZM10.4,14.5c-.1.6-.1,1.3,0,1.9-.1.1,0-.1-.2,0-.9-.7-.5-2-.7-2.9,0,0,.2,0,.2,0,.4.3.6.7.7,1.2h0ZM68.7,14.6c.1.3-.1.5-.3.6-.2,0-.5,0-.6-.3,0-.2,0-.5.3-.6.2,0,.5,0,.6.2h0ZM9,15.6c0,.2-.1.4-.3.5-.1,0-.4,0-.4-.1-.1-.1-.2-.3,0-.5.1-.1.3-.2.4-.2.2,0,.3.1.4.3h0ZM69.6,16c0,.2,0,.5-.2.6-.1,0-.3,0-.4,0-.1,0-.2-.2-.3-.4,0-.2.2-.4.4-.4.2,0,.4.1.5.2ZM68.3,16c.2,0,0,.3,0,.5s-.3.3-.5.2-.3-.1-.3-.3c0-.2.1-.5.3-.5.2,0,.3,0,.4.1h0ZM66.6,16.4c0,.3,0,.6-.3.6-.2,0-.5,0-.5-.3,0-.2.1-.5.3-.6.2,0,.4.1.5.3ZM11.6,16.5c0,.2-.2.4-.3.5-.2,0-.4,0-.5-.3-.2-.2,0-.3,0-.5.2-.1.5-.1.6,0,0,0,0,0,0,.1ZM10.1,16.6c0,.2,0,.4-.3.5-.2,0-.4,0-.5-.2,0-.2,0-.4.2-.5,0,0,0,0,0,0,.3,0,.4.1.5.3h0ZM60.9,16.7c.3.5.4,1.1.5,1.7,0,.5,0,1-.3,1.4-.3-.1-.3-.5-.6-.7-.3-.9-.2-1.8,0-2.6.2,0,.2.2.3.3ZM9,17c0,.3-.1.4-.3.6-.2,0-.5,0-.6-.3,0-.2.1-.5.3-.6.2,0,.5,0,.6.3ZM64.6,17.7c.3.7.3,1.5.1,2.3h-.1c-.4-.5-.7-1.1-1-1.8,0-.5,0-.9.3-1.4.2-.1.3,0,.3.2,0,.3.2.5.4.7h0ZM67.6,17.2c0,.2-.1.5-.3.6-.2,0-.5,0-.5-.3,0,0,0,0,0,0,0-.2,0-.5.3-.6.3-.1.5.1.6.3h0ZM10.1,18c0,.2-.2.4-.4.5-.2.1-.3,0-.5-.2,0-.2,0-.4,0-.5,0-.1.2-.1.4-.2.2.1.4.2.5.5h0ZM11.2,17.8c0,.2-.2.4-.3.5-.3,0-.4-.1-.5-.3s0-.4.3-.5.4.1.5.3ZM68.2,17.8c0,.3-.5.6-.5.9-.3.6-.8,1.1-1.5,1.3-.1.2-.3.3-.5.3,0-.5.4-.9.6-1.3.5-.6,1.1-1,1.9-1.2h0ZM9.7,18.8c.3.4.6.8,1,1.1,0,.1,0,.2-.1.2,0,0,0,0,0,0-1.2,0-1.9-1.2-2.5-2.1,0-.3.4,0,.5,0,.4.3.9.4,1.1.8h0ZM68.5,19.1c0,1.1-.6,2-1.5,2.6-.3,0-.5.4-.8.2.6-1,1.2-1.9,2.1-2.8h.2ZM64,19.8c0,.3-.1.6-.4.7-.3,0-.4-.2-.5-.4,0-.2.1-.4.3-.5,0,0,.2,0,.3,0,.1,0,.2.2.3.3ZM8.4,20c.4.3.9.7,1.3,1.1-.3.2-.7,0-1,0-.8-.3-1.3-1-2.2-1.2,0-.3.3-.2.5-.2.5,0,1,.1,1.4.3Z"/>
  <path class="cls-3" d="M33.6,13c-1.3-.5-2.2.9-3.5.7-.2,0-.1.3-.2.4,0,.1-.2,0-.3,0,0-.6-.3-1.1-.3-1.6-.1-.2,0-.6-.2-.8-.8-2.1,1.8-.5,2.3-1.7.5-1-.9-1.2-1.3-1.9v-.4c-.4-.4-.8-.5-1-1,.2-.6.2-1.2,0-1.8,0-.1-.1-.3-.3-.3-.5.6-.8,1.1-1.2,1.7-.4-.4-.9-.7-1.4-1-.4,0-.7-.4-1.1-.3,0,.1,0,.3,0,.3,0,.9.5,1.7,1.1,2.3v.4c-.2,1-.4,2.1-.4,3.1-1.1,2.8-2.8,5.3-5.1,7.2-1.3,1.5-2.9,3-3.1,5.1,0,.3,0,.7-.2,1-.8-.3-1.5-.7-2.2-1.2-1.1-.8-2.6-.7-3.3-2-.3-.5,0-1.1.3-1.5.7-.9.8-2,.3-3,0,0-.1,0-.2.1,0,1.4-1.2,2.4-.8,3.9,0,.5.3.7.4,1.2-.2,0-.4,0-.5-.1-.5-.1-1-.2-1.6-.2-1.1.5-2.6-.1-3.4.9-.1,0-.3,0-.3.3.5,0,1,.1,1.5.1.8.1,1.4-.5,1.9-.9h.1c.2-.2.6,0,.9-.1,1.4.2,2.7.8,3.8,1.6h0c-.5.3-1,.5-1.5.7-.6.4-1.1.9-1.3,1.6-.4.6.1,1.1.4,1.6,0,.2,0,.5.3.6.8-.8,0-1.8.2-2.7.2-.7.8-1.2,1.5-1.3,1.3-.6,2.3.5,3.4,1.1,0,1.1,0,2.1-.1,3.2-.4.1-.7.2-1.1.2-1.9.1-3.3,1.2-5,1.7-.8.3-1.6.2-2.4.5.6,0,1.2,0,1.8,0,2.3-.3,4.1-2.1,6.6-1.8h0c-.3.6-.6,1.2-1.1,1.6,0-.3,0-.5-.3-.6-.2,0-.4,0-.5.2,0,.1,0,.3,0,.4.1.2.3.3.5.3,0,.2-.3.3-.5.5-.7,1.1-2,.7-2.8,1.4-.1.2-.5.3-.4.5.9,0,1.7-.1,2.4-.6.9-1,1.8-1.9,2.7-2.8.1.8,0,1.5-.5,2.2-.2-.1-.4-.3-.6-.4-.2,0-.4.2-.4.5,0,.2.2.3.4.5-.9.4-1.8.7-2.7.9-1.7.2-3.4.3-5.1.4-.8,0-1.7,0-2.5,0-.9.2-1.9-.1-2.6.4,0,.1,0,.2,0,.3,1.1.7,2.6.1,3.8.4h9.3c.7,0,1.3,0,1.9-.4,1.1-.8,2-1.9,2.5-3.1.2-.4.4-.9.5-1.4.2-.8.9-1.4,1.8-1.4,0,1.2,0,2.4-.4,3.6-.1.8-.6,1.5-.3,2.3,0,.4.5.4.8.4,2.8,0,5.7-.2,8.7,0,.5.1,1.1.2,1.6.2,0,0,.2,0,.1-.2,0-.3-.3-.6-.6-.7,0-.1-.3,0-.3-.2-1.5-.8-3.3-.4-5.1-.4-.9.2-1.8.1-2.6-.3-.4-.4,0-1.8,0-1.8.4-1.6.9-3.1,1.5-4.6,0-.4.1-.7.1-1.1.1-.5.2-1.1.1-1.6.2-.8.4-1.5.7-2.2.1-.4.3-.7.4-1.1,0-.4.2-.9.5-1.2.8.5,1.5.5,1.9,1.3l.3,2c0,.1,0,.4.3.2.6-.4.4-1.3.4-1.9s-.4-1.1-.6-1.7c-.2-.2-.3-.4-.4-.7,0-.5-1.2-.9-1-1.5,0-.5.4-1,.8-1.4,0,0,.1,0,.1.2l.3-.2v-2c.8,0,1.9,0,2.7,0,.2,0,.4.2.6.3l.2-.3,1.9-.4c-.8,0-1.3-.8-2.1-.8h0Z"/>
  <path class="cls-3" d="M35.6,13.8h.2-.2Z"/>
  <path class="cls-3" d="M15.1,20.4c0,.2-.1.5-.4.5-.2,0-.3,0-.4-.3s.1-.5.3-.5.4,0,.5.3ZM13.6,20.4c.1.1.2.4,0,.5-.2.1-.4.3-.6,0s-.3-.3-.2-.5.4-.3.6-.1h0ZM64.2,21.1c0,.3-.1.5-.3.5-.2,0-.5-.1-.5-.4,0-.2.3-.4.5-.4.1,0,.3.1.3.3h0ZM65.5,21c0,.1.2.3,0,.4,0,0-.2.1-.2.2-.2,0-.5,0-.6-.3,0-.3.2-.4.3-.5s.3,0,.4.2h0ZM7.7,21.3c0,.2-.3.4-.6.3,0,0,0,0,0,0,0,0-.1-.2-.2-.3,0-.2.1-.3.3-.4.3,0,.5.2.6.4ZM15.6,21.7c0,.2-.2.4-.4.5-.2,0-.4-.1-.5-.3,0-.2,0-.4.3-.5.3,0,.6,0,.6.4h0ZM14.2,21.6c0,.1.1.3,0,.4-.1.1-.4.3-.6.2s-.3-.2-.3-.5c0-.1.2-.2.4-.3.2,0,.3,0,.4.2h0ZM69.1,21.8c0,.2-.1.4-.3.5-.2,0-.4,0-.5-.1-.1,0,0-.2,0-.4.1-.2.3-.3.4-.3.2,0,.4.2.5.3h0ZM70.6,22.1c0,.2-.2.4-.4.4-.1,0-.4,0-.3-.3,0-.2,0-.3.2-.4.2-.1.4,0,.6.2,0,0,0,0,0,0h0ZM10.4,22.4c0,.2,0,.5-.3.6-.2,0-.3,0-.4-.1-.1-.1-.2-.3-.1-.5,0-.2.3-.2.4-.3.2,0,.4.1.4.3ZM11.6,22.6c0,.2-.1.3-.2.4-.1,0-.3,0-.4,0-.2-.1-.4-.4-.2-.6s.7-.2.8.1h0ZM67.7,22.5c0,.2-.2.4-.3.5-.2,0-.4,0-.5-.3,0-.2,0-.4.3-.5.2,0,.4,0,.5.2ZM69.6,22.9c0,.2,0,.5-.3.6-.2,0-.4,0-.6,0-.1-.1-.2-.3,0-.5.1-.2.3-.3.6-.3.2,0,.2.2.3.3ZM9.5,23.4c0,.2-.1.2-.2.3-.1,0-.3,0-.5,0-.2,0,0-.3,0-.5.2-.4.6-.1.7.2h0ZM68.1,23.8c0,0,0,.2,0,.2-.6.3-1.3.3-1.9,0-.3-.2-.6-.4-.9-.5.1-.3.5-.3.8-.4.7,0,1.2.7,2,.8h0ZM10.6,23.6c0,.2,0,.3-.1.4s-.3,0-.4,0c-.2,0-.3-.3-.2-.5,0-.2.3-.3.5-.2.1,0,.2.1.2.3h0ZM12.7,23.7c0,.2,0,.4-.2.5s-.3,0-.4,0-.3-.4-.1-.5c.2-.4.6-.2.8.1h0ZM39.9,24.7c0,.5-.8,0-.7.6,0,.5.2.9.5,1.3.2.3.1.8,0,1.2-.2.3-.5.6-.9.8-.7,0-1.7.3-2-.5-.2-.3-.3-.7-.3-1.1,0,0,.2,0,.2-.1s-.2-.2-.2-.4c.8-.1-.3-.8.3-.9.5.6,1.4.4,1.9,1,0,.1.2.2.3.3,0-.6-.4-1.1-.5-1.7,0-.3,0-.6.3-.8.4-.3.7.1,1,.4h0ZM14.8,24.6c0,.2-.1.4-.3.5s-.3-.1-.4-.3,0-.4.2-.5c.2,0,.4,0,.5.2h0ZM29.3,24.8c.3.9.2,1.8-.3,2.6,0,.2,0,.5-.2.5-.6-.9-.2-2.1,0-3,0-.2.3-.3.4,0h0ZM49.4,25.3c.3.7.3,1.5,0,2.2l-.2.2c-.3-.5-.4-1.1-.5-1.7.1-.4.2-.8.3-1.2.3,0,.3.4.4.5h0ZM16.6,25.5c-.1.3-.5.4-.8.5-.6.4-1.4.5-2.1.4.6-.9,1.6-1.3,2.7-1.1,0,0,.2,0,.2.2ZM6.9,26.4c.7.6,1.3,1.4,1.6,2.3,0,0,.3.1.2.3s-.4-.1-.6,0c-.9-.5-1.5-1.4-1.4-2.4,0,0,.1,0,.2,0h0ZM48.5,27.1c0,.2,0,.5-.2.5-.2,0-.5,0-.5-.3,0,0,0,0,0,0,0-.2,0-.3.1-.4.2-.1.4-.1.6,0,0,0,0,0,0,0Z"/>
  <path class="cls-3" d="M58.4,28.4c0-.4,0-.9.2-1.3,0-.2.1-.3,0-.5.6-.8,1.7-.5,2.6-.5.4.1.8.2,1.2.3.2-.1.4-.2.6-.1.8-.4.3-1.3.3-2l-.3-.7c0-.2-.1-.3-.2-.5-.1-.2-.2-.5-.4-.6-.5-.9-1.1-1.7-1.8-2.5-1.3-1.5-3.1-2.6-5-3-1.9-.6-3.7.2-5.4.8-.5-.1-.8-.5-.9-1,0-.9,0-1.7.5-2.5.2-.5.4-1.1.6-1.6.5-1.3.8-2.7,1-4.1,0-.8-.5-1.5-1.3-1.9-.5-.1-.9,0-1.3.3-.4.6-.9,1.1-1.5,1.4,0,.4.5.1.6.3.5,0,1.1,0,1.5.3,0,.9-.4,1.8-1,2.4-.8,1.1-1.6,2.4-2.1,3.6h0c0,0,.1,5.7.1,5.7.8,1.2,1.7,2.7,3.1,3.1.8.6,1.7,1.4,2.7.8.5-.2.6.6.8.9.3.9-.3,1.5-.4,2.3l-.6,1.3c-.6,1.4-1.4,2.8-2.4,4-.3,0-.6.4-.9.4-.2.3-.6,0-.8.2-.7.3-1.8.1-2.3.8,0,0,.1.1.2.1,1.4,0,3,.1,4.6,0,.2,0,.3-.2.4-.5-.2-.4,0-.8.3-1.1.1-.6.5-.9.7-1.5.5-1,1.1-1.9,1.6-2.9l.7-1.2c.2-.5.4-.9.7-1.3.2-.2.3-.4.4-.6,0-.2,0-.3-.2-.5.2-.2.4-.1.6-.2.6.3,1.1.9,1.3,1.6l.2.6v.3c0,0,0,.8,0,.8v.7c.1,1.1,0,2.3-.1,3.4-.4,1.4-2,1.2-3.1,1.5-.3.2-.8,0-.8.6,1.5.2,2.9.2,4.4,0,.2,0,.3-.3.4-.5s.3-.6.3-.9c-.3-.3,0-.8,0-1.3,0-.1,0-.3,0-.5.2-.7.1-1.5.3-2.2v-.9c0,0,0,.1,0,.1ZM69.9,27.5c-.8,1.1-1.6,2.3-2.9,2.7,0,0-.2,0-.2,0,.8-.9,1.2-2.2,2.5-2.5.2-.1.4-.2.6,0h0ZM5.8,28.6c-.1,0,0,.3-.2.3-.2,0-.4,0-.5-.2,0-.2,0-.5.3-.5,0,0,0,0,0,0,.2,0,.4.2.4.4ZM12.6,29c0,.2-.2.2-.3.3-1,.3-2,0-2.7-.7,0,0,0-.2,0-.2,1,.2,2.1,0,2.9.6ZM7.1,28.6c0,.1,0,.2,0,.4-.1.2-.4.3-.6.2-.1,0-.2-.2-.3-.3,0-.2.2-.4.4-.5.2,0,.3,0,.4.2h0ZM29.1,28.8c0,.2-.1.4-.3.5-.2,0-.4,0-.5-.2,0-.2,0-.4.2-.5.2,0,.5,0,.6.2ZM70.8,28.9c0,.2-.1.4-.3.5-.2,0-.3,0-.4,0,0-.1-.2-.2-.1-.4,0-.2.3-.3.5-.3.1,0,.2.2.3.2h0ZM72.4,28.8c.1.2,0,.4,0,.5,0,.2-.3.2-.4.1-.1-.1-.3-.2-.3-.4s.2-.3.3-.4.3.1.5.1h0ZM4.8,29.4c0,.2-.1.3-.2.4s-.2.1-.4,0c-.2,0-.3-.2-.3-.4,0-.2.2-.4.4-.5.2,0,.4.2.5.4h0Z"/>
  <path class="cls-3" d="M54.3,29.4c0,.1,0,.2,0,.3-.1.2-.3.4-.6.2s-.3-.3-.2-.5c.1-.2.4-.3.6-.1,0,0,.1,0,.1.1h0ZM8.6,29.8c0,.2-.1.3-.3.3s-.3-.2-.4-.3,0-.4.2-.5c.2,0,.5,0,.5.3,0,0,0,0,0,.1ZM6.3,29.8c0,.2,0,.4-.2.5-.3,0-.5-.1-.6-.4,0-.2.2-.5.4-.5.2,0,.3.2.4.4h0ZM55.8,29.8c0,.2,0,.5-.3.6-.3,0-.5-.1-.6-.3.1-.2.1-.5.4-.5.2,0,.4,0,.5.3ZM7.4,29.9c0,.2,0,.2-.1.4s-.2.1-.3,0-.3-.2-.3-.3.1-.4.3-.5c.2,0,.4.1.4.3h0ZM69.6,30.1c0,.2-.2.3-.4.4-.2,0-.3-.1-.4-.2s0-.3,0-.4c.1-.2.4-.3.6-.2.1,0,.2.2.2.4h0ZM71.3,30.2c0,.2-.3.4-.6.4-.2,0-.4-.3-.3-.5,0,0,.1-.2.3-.2.2,0,.5,0,.6.3,0,0,0,0,0,0h0ZM60.2,30.3c.1.3-.2.4-.3.5-.2,0-.3,0-.5-.2,0-.3,0-.5.3-.6.2,0,.4.1.5.3h0ZM53.7,30.6c.1,0,0,.2,0,.3s-.3.3-.5.2c-.2,0-.3-.3-.2-.5.1-.2.4-.3.6-.1,0,0,0,0,.1.1h0ZM55,30.8c0,.2,0,.3-.2.4-.2.2-.3,0-.5,0,0-.1,0-.2,0-.3,0,0,.2-.2.3-.2.2,0,.3,0,.4.2h0ZM15.1,30.8c.1.1,0,.3,0,.5-.1.2-.4.2-.6.1-.2,0-.2-.4-.2-.6s.1-.2.3-.2c.2,0,.3.1.5.2h0ZM62.7,30.9c0,.2-.2.3-.3.4s-.4-.1-.5-.3.1-.2.2-.3c.3-.1.5,0,.7.3ZM61.4,30.9c0,.2-.2.4-.3.5-.2,0-.4,0-.5,0-.1,0-.1-.2-.1-.4s.2-.3.4-.3c.2,0,.4.1.5.3h0ZM72,31.2c0,.3-.4.2-.5.3-1,.6-2.3.1-3.2-.2,0-.3.4-.2.6-.3,1-.6,2,.1,3.1.2h0c0,0,0,0,0,0ZM7.7,30.9v.2c-1,.6-2.1.8-3.1.5h0c.9-.8,2.1-1,3.2-.8h0c0,0,0,0,0,0ZM65.1,31.1c0,.2,0,.3-.2.5-.2,0-.5,0-.6-.3,0-.2.1-.4.3-.5s.4,0,.5.3ZM11.9,31.2c0,.2,0,.4-.3.5-.2,0-.5,0-.6-.3,0-.3.1-.3.2-.5.3-.1.5,0,.6.3h0ZM10.2,31.3c0,.2,0,.3-.1.4-.1.1-.3.1-.5,0-.2-.1-.3-.3-.3-.6.1-.1.2-.2.4-.3.2,0,.4.2.5.4ZM66.7,31.8c0,.2-.2.4-.4.4-.2,0-.4,0-.4-.2,0-.2,0-.3,0-.5,0,0,.2,0,.3-.1.2,0,.4.2.4.4h0ZM8.5,31.6c0,.2,0,.3-.1.4-.1.4-.3.7-.5,1-.4.5-1.1.5-1.7.7v-.2c.5-.9,1.3-1.5,2.3-2h0ZM65.6,32.1c0,.3-.2.3-.3.5-.2,0-.4-.1-.5-.3,0-.3.2-.4.3-.5.2,0,.4,0,.5.3h0ZM11.2,32.1s0,0,0,.1c0,.3-.2.3-.4.5-.2,0-.4,0-.5-.2,0-.2,0-.4.2-.5,0,0,0,0,0,0,.2,0,.5,0,.6.2h0ZM69.9,32.8c.2,0,.3-.3.5-.4.2,0,.4,0,.6.3,0,.3-.1.4-.3.5s-.5-.1-.5.2c.2.1.3.3.3.5,0,0-.2,0-.3,0-.7-.3-1.3-.8-1.7-1.4,0-.2-.5-.4-.3-.6.7,0,1.2.4,1.6.9h0ZM72.1,32.1c.1.1.1.3,0,.5-.1.2-.5.1-.7.1s-.2-.2-.2-.4c0-.1.2-.2.3-.3.2,0,.4,0,.5.2h0ZM63.6,33.4c.2.3.4.6.5,1,0,0-.2,0-.2,0-.8-.5-1.8-1-2.1-1.9,0,0-.3-.2-.2-.4.6,0,1.2.2,1.6.7.2.2.3.4.4.6h0ZM9.9,32.5c0,.2,0,.4-.2.5-.2,0-.4,0-.5-.2-.2-.3.1-.5.3-.6s.3.2.4.3h0ZM66.6,33c0,.1-.2.2-.2.3s-.4,0-.5,0-.2-.3,0-.4c.3-.3.6,0,.8.2h0ZM72.4,33.3c0,.2-.1.5-.3.6-.2,0-.4,0-.6-.2-.1-.1,0-.3,0-.5.2-.2.4-.2.6-.2.1,0,.2.1.3.2ZM56.1,36.6c0,.3-.5.2-.7.4-.8.3-1.6.5-2.5.4h0c.9-.9,2.1-1.1,3.2-.8h0ZM21.8,37.6c0,.2-.2.4-.4.4-.2,0-.3,0-.4-.2,0-.3.1-.4.3-.5.2,0,.4.2.5.3h0ZM55.7,37.9c0,.2-.1.4-.3.5-.2,0-.3,0-.5-.2s0-.3,0-.4c.1-.3.4-.4.7-.3.1,0,.2.1.3.3h0ZM60.4,38c-.6.5-1.3.8-2,.8h-1.4c.8-1,2.2-1,3.4-.9h0c0,.1,0,.1,0,.1ZM15.4,38.5c0,.2-.1.4-.3.5-.2,0-.4,0-.5-.2,0-.2,0-.4.2-.5.3-.2.5.1.6.3h0ZM16.6,38.8c0,.1,0,.2,0,.3-.1,0-.3,0-.5,0-.1,0-.2-.3-.1-.4,0-.1.2-.1.3-.2.2,0,.3.2.4.3h0ZM7.6,41.2c-.2.3-.6,0-.9-.2-.8-.5-.8-1.4-1.6-1.9,0-.3.3,0,.5,0,.2.1.3.2.5.3.8.5,1,1.2,1.5,1.9h0Z"/>
  <path class="cls-3" d="M76.1,32c-.3-.6-1-1-1.8-1-.6,0-1.1.4-1.3,1-.1.5,0,1,.4,1.3.2,0,.4,0,.5-.1.1-.3-.2-.3-.3-.5,0-.3,0-.6.3-.8.2-.2.6-.1.9-.1.3.2.5.4.7.7.1.4.1.8,0,1.2-.3.6-.8,1-1.5,1.2-2,.3-23.4.2-23.4.2-2.5.2-5.4-.5-7.5.8-.9.6-1.6,1.5-1.7,2.5-.7.6-1.3,1.2-1.9,1.9h0c.1-.6.4-1.1.5-1.7.3-.5.5-1.1.6-1.6.8-1.5,1.8-2.8,3.1-3.9.6-.8,1.6-.6,2.5-.6,1,.4,2.2.6,3.3.5,0,0,0-.1,0-.2-.3-.3-.9-.4-1.2-.7-.9-.5-1.8.1-2.8,0,0,0,0,0,0-.1.9-.6,1.9-1.2,2.9-1.6.8-.4,1.7-.7,2.6-1,.3,0,.7-.3,1,0l1.2-.3s0,0,.2,0c1.1-.4,2.4,0,3.6,0h.2c0,.1,1.1.4,1.1.4.4,0,.6.5,1.1.6.2-.3-.3-.5-.4-.7.5-.1,1.1,0,1.6.1l-.2.3c-.1.3,0,.4.3.5s.3,0,.4-.1c.3-.2,0-.4,0-.6,1.7.3,3.4.8,5,1.4.4.2.9.4,1.4.5-.5-.4-1.1-.7-1.8-1-.4-.2-1-.3-1.3-.6,0-.1.2,0,.3-.2.8-.2,1.5-.7,2-1.3,0-.1.3,0,.3-.3-.2-.2-.6,0-.8,0-1,.2-1.4,1.4-2.4,1.6-1.2-.3-2.4-.6-3.6-.9-.6,0-1.2-.2-1.8-.4h-1.3c0-.1-2.4-.1-2.4-.1,0,0,0,0,0-.1.8-.2,1.6-.7,2.4-.9l6.3-2.9c.7-.6,1.2-1.2,1.8-1.9,0-.2,0-.4-.3-.5-.2,0-.4,0-.5,0-.3.2,0,.5,0,.7-.3.4-.7.7-1.1.9,0,0-6.5,2.9-6.5,2.9-.9.4-1.9.8-2.9,1.1l-1.3.3c-.1.3-.3.5-.6.5-.3.1-.7.2-1.1.3-3.1,1.2-6.2,2.4-8.7,4.9.1-.3.2-.7.2-1,0-.4,0-.7-.3-1,0-.1-.2-.5-.2-.7l-.3.2c-.3.6-.3,1.3-.2,2,0,.4.4.9,0,1.3-1,1.4-1.8,3-2.5,4.6-.3,0-.4-.3-.5-.6.8-1,1.4-2.2,1.7-3.4.2-.1,0-.4.2-.6,0-.4.2-.8,0-1.1.2-.5-.7-1-.2-1.3l-.4.2c-1,1.3.5,3.3-.6,4.6h0c-.2.5-.6.9-.9,1.2-.6-.2-.8-.9-1.1-1.3-.5-.6-.6-1.5-.2-2.2.2-.7-.1-1.3-.2-1.9l-.2-.2c-.6.8-.7,1.9-.3,2.8.2.4.3,1,.6,1.4.3.6.6,1.2,1,1.8,0,.2-.1.3-.3.4-.3-.2-.2-.5-.5-.7-.8-1.6-1.8-3-3-4.3,0-.2-.3-.4-.1-.6.4-.5.6-1.2.3-1.8,0-.1-.2-.3-.2-.4l-.3-.3c0,.8-.5,1.6-.3,2.4-2.4-1.8-5.1-3.4-7.8-4.7l-.2.6c.9.4,1.7.8,2.5,1.3.8.4,1.6.8,2.4,1.2,3.1,1.8,5.4,4.7,6.7,8,0,.3.3.5,0,.8-.5-.7-1.1-1.3-1.8-1.8-.2-1.1-.8-2.1-1.8-2.6-.3-.5-1.1-.6-1.7-.7h-8.6c-7,0-13.3.2-20.2,0-1,0-2.1-.4-2.4-1.4-.2-.4-.2-.9,0-1.3.3-.4.7-.6,1.2-.6.3,0,.6.3.8.7,0,.3-.3.6-.4.8,0,0,.1.3.3.2.3-.1.5-.4.6-.8,0-.2,0-.4,0-.5-.2-.5-.6-.9-1.1-1-.6,0-1.2.1-1.6.5-.5.5-.6,1.3-.4,2,.4,1,1.4,1.8,2.5,1.9h22.9c2.2.2,4.8-.2,7,.3.9.2,1.6.9,1.9,1.8h-.2c-2-1.2-4.3-1.7-6.6-1.4-.9,0-1.8.2-2.6.5-.4,0-.8,0-1.1-.4-1-.7-2.3-.8-3.4-.4v.2c1.1,0,1.8.9,2.9,1,.2,0,.4-.2.6,0-1,.6-2.1,1.1-3.3,1.5-.4,0-.5-.4-.8-.6-.5-.5-1.3-.3-1.9-.3-.2,0-.4,0-.5,0,.2.4.6.6,1,.8.6.3,1.3,0,1.8.3-.1.1-.3.2-.5.3-1.1.4-2,1.4-3.2,1.3-1.3.2-2.6-.2-3.5-1.1-.4-.9-1.4-1.5-2.4-1.4,0,0-.2,0-.1.2.5.3.9.9,1.4,1.3.3.4,1,0,1.3.5.5.3,1,.5,1.5.7.4.1.8.3,1.2.3h-.2c-2.3.7-4.6,1-7,.8-.7,0-1.4-.2-2.1-.2.2.2.3.3.6.3-.2.1-.4.2-.6.2-.3,0-.6.1-.9.2-.3,0-.7,0-1,.2-.4.4-.8.8-1.3,1.1,0,0,0,.2,0,.2.4-.2,1,0,1.5-.2.8,0,1.2-.9,1.8-1.3.7-.4,1.6-.5,2.4-.3.5.1,0,.3,0,.6s.4.3.6.3c0,0,0,0,.2-.1.1-.2.1-.4,0-.6.3-.2.8,0,1.1-.1.9,0,1.8-.2,2.7-.2.1,0,.3-.2.4,0,0,.2-.3.2-.2.5s.3.3.5.4c.2,0,.4-.3.3-.6s-.2-.3-.3-.3c.5-.2,1.1-.3,1.5-.5.3,0,.7-.2,1-.3.3,0,.6-.3.9-.2-.1.4-.3.7-.5,1.1-.5,1.3-.5,2.8,0,4.1h.1c-.4-1.3-.3-2.7.2-3.9.3-2,2.4-2.6,3.9-3.4h0c-.5,1.1-.9,2.2-.9,3.4,0,.2,0,.4,0,.6.4-.3.7-.7.9-1.1.2-1.1-.5-2.4.6-3.2,1.9-.8,3.7-1.8,6-1.8,0,0,.2,0,.3,0-.5.5-1.1,1-1.4,1.7-.7,1.3-.8,2.7-.4,4.1.2.7-.4,1.1-.7,1.7-.1.2-.2.5-.3.8h.5c.4-.4.7-.9.8-1.5,0,.2.2.4.5.5.2-.3-.1-.5-.2-.7.4-.2.5.3.9.4.5.2.9.3,1.4.3l.2-.2c-.6-.7-1.5-1.1-2.4-1-.4-.8-.5-1.8-.4-2.7,0-.5.2-1,.5-1.5.2-.3.4-.6.7-.9.4-.4.9-.7,1.5-.8h0s0,0,0,0c-.6.5-.7,1.2-1.1,1.8-.5.6-.5,1.4-.2,2.1.1.3,0,.8.4,1,.2-.5.4-.9.5-1.4,0-.8-.5-1.5,0-2.3.3-.5.7-.9,1.3-1,1.2,0,2.5.4,3.6,1,.2.2.6.3.7.6,0,1.1-.9,1.9-1.9,1.9-.4,0-.7-.1-1.1-.3-.4-.4-.5-1-.4-1.5.2-.3.6-.5,1-.4.2.1.5.4.8.2.1,0,.2-.2,0-.4-.3-.1-.3-.5-.7-.5-.4-.1-.9,0-1.3.3-.4.4-.6,1.1-.5,1.7.2.7.7,1.3,1.5,1.5,1.1.3,2.2-.1,2.9-1,.2-.3.4-.6.5-1,1.1.7,2,1.8,2.4,3.1,0,.4,0,.8,0,1.2h.8c0-.1,0-.3,0-.5.4-1.5,1.2-2.9,2.4-3.9.4-.2.3.3.4.5.4.9,1.1,1.5,2,1.8.9.2,1.9-.1,2.5-.8.3-.6.7-1.4.2-2-.3-.4-.8-.6-1.3-.6-.6,0-1,.4-1.3.9,0,.2,0,.4.1.5s.3,0,.3-.1c0-.4.3-.5.6-.7.3,0,.5,0,.8.1.2.2.4.6.3.9,0,.5-.3.9-.8,1.1-.7.3-1.6.2-2.3-.2-.3-.3-.5-.6-.7-1-.1-.4-.1-.7,0-1.1,1-.7,2.2-1.1,3.4-1.2.5.1.9.4,1.2.8,1.1,1.1-.2,2.7.5,3.9.3,0,.3-.4.4-.7.3-.8,0-1.8-.3-2.6-.2-.5-.5-1-.9-1.4,0,0,.2,0,.3,0,.5.3,1,.7,1.4,1.2.7,1.2,1,2.5.9,3.9-.2.7-.9,1-1.5,1.3-.3.2-.5.5-.6.8.3.2.7,0,1-.1.5-.2.7-.7,1-1h0c0,.4-.1.8.1.8.1-.4.2-.8.2-1.2.3.3.4.8.5,1.2.2.4.6,1,1.1,1.1.1-.2,0-.4,0-.6,0-.6-.6-.9-.9-1.3-.8-1.1-.5-2.9-1.1-4.2-.3-.7-.7-1.3-1.3-1.8h0c1.1,0,2.1.2,3.2.5,1.3.6,3.2.5,3.8,2.2.2.9.7,1.8,1.3,2.6h0c.1-.3.1-.6,0-.9-.1-1.2-1.2-1.5-1.7-2.5h0c.6,0,1.2.2,1.7.5,1.8.6,3.2,2.3,3.4,4.2,0,1.4-.3,2.7-.9,4,0,.2-.4.4-.2.6.3-.2.3-.5.5-.7.9-1.4,1.2-3.1.8-4.8,0-.3-.4-.5-.2-.8.1.1.2.2.4.2.1,0,.3,0,.5-.3s.1-.3,0-.4c-.2-.2-.4-.2-.7-.2-.1.1-.2.3-.3.5-.2-.5-.5-.9-.9-1.2h0c1.1.3,2,.8,3.1,1.1.2.2.5.3.8.3.9.3,1.9.5,2.9.7.7,0,1.3.3,2,0-.3-.3-.8,0-1.1-.3-1.6-.2-3.1-.6-4.6-1.2,0,0,.1,0,.2,0,.2,0,.4-.3.4-.6-.1-.2-.3-.3-.5-.3-.2,0-.3.2-.3.4,0,.2.2.4.3.5h-.2c-.7-.3-1.4-.6-2.1-1-.3,0-.5-.3-.7-.3-.5-.3-1.1-.5-1.6-.7-1.5-.7-3.1-1.3-4.8-1.8l-1-.3-1.7-.5c-2-.5-4.7-.5-6.4.5-.3,0-.5.3-.6,0,.5-1.3,1.9-1.7,3.2-1.8,9.4,0,18.3-.2,27.5-.3,1.1,0,2.1-.4,2.7-1.3.4-.7.5-1.5.2-2.2ZM38.7,40.7c-.1.3-.2.5-.3.8h0c0-.4-.3-.6-.2-1-.2-.3-.2-.6-.3-1s.2-.5.3-.8c.3.1.5.5.7.7s-.2.7-.1,1.1h0Z"/>
  <path class="cls-3" d="M64.2,39.2c0,0,.1,0,0,.2-.9.7-2,1-3.2,1,0,0-.2,0-.3,0s0-.1,0-.2c.9-1,2.2-1.4,3.4-1.1h0ZM60.4,39.6c0,.3-.1.5-.4.6-.2,0-.4-.2-.5-.4,0-.2,0-.3.2-.4.2-.2.5-.2.6,0,0,0,0,0,0,.1h0ZM15.8,39.6c0,.2,0,.4-.1.5-.1.1-.3.1-.4.1-.2,0-.3-.2-.3-.3,0-.2.1-.4.3-.5.2,0,.4,0,.5.2h0ZM11.6,41.2v.2c-.5.1-1.1,0-1.6-.4-.3-.5-.7-.9-1.2-1.2,0,0-.1-.2,0-.2,1.2,0,1.9,1,2.8,1.6h0ZM67.8,39.6c-.5.8-1,1.8-2,2.2-.2,0-.3.2-.4,0,.4-1,1.1-1.8,2.1-2.2.1,0,.2,0,.3,0h0ZM17.1,39.9c0,.3-.2.3-.3.5s-.3-.1-.4-.3.1-.3.2-.5c.2,0,.4,0,.5.3ZM70.8,40c-.2.3-.1.8-.3,1.1-.5.5-.9,1.2-1.6,1.3-.1-.2.2-.5.3-.7.3-.8.8-1.4,1.6-1.8h.1ZM4.3,40.3c.1.2.1.4,0,.5-.2.1-.4.2-.5,0-.2-.1-.3-.4-.2-.6.1-.2.6-.3.7,0h0ZM2.9,40.5c0,.1,0,.2,0,.3,0,.1-.2.2-.3.3-.2,0-.5,0-.5-.3,0-.2,0-.4.2-.5.2,0,.4,0,.6.2h0ZM5.7,40.7c0,.2,0,.5-.2.6s-.5,0-.7-.3c0-.2.1-.4.3-.5.2,0,.5,0,.6.2h0ZM9.6,41c0,.2,0,.4-.2.5s-.3,0-.4,0-.3-.3-.2-.4c0-.1.2-.2.3-.3.1,0,.4,0,.4.2h0ZM73,41.2c0,.2-.2.4-.3.4s-.4,0-.5-.3.1-.4.3-.5.5,0,.6.3h0ZM68.7,41.3c0,.2-.2.3-.3.4-.3.1-.6,0-.7-.3,0,0,0,0,0,0,0-.2.2-.4.4-.4.3,0,.5.1.6.4h0ZM71.6,41.2c0,.2,0,.3-.2.4-.2,0-.4,0-.6,0-.2-.2,0-.4,0-.5s.6,0,.7.2ZM3.7,41.6c0,.2,0,.5-.3.6-.2,0-.4-.1-.5-.3,0-.2,0-.4.2-.5.2,0,.4,0,.6.2h0ZM67.6,41.9c0,.3,0,.5-.3.6-.2,0-.3,0-.4-.2s-.2-.4,0-.5c.1-.2.4-.3.6-.2,0,0,.1.1.2.2h0ZM16.3,42.2c0,.3-.2.3-.3.5s-.3,0-.4,0-.3-.3-.2-.5.2-.2.3-.2.4.2.5.3h0ZM72.6,42.3c0,.2,0,.2-.1.3-.2.1-.4.2-.5,0-.2-.1-.2-.3-.2-.5s.2-.2.3-.3c.2,0,.5.1.5.3ZM71.1,42.4c0,.3-.2.4-.3.5s-.2,0-.3,0c.5.3,1,.8,1.5,1.2v.2c-.9,0-1.7-.3-2.3-.9-.2-.1-.4-.1-.6-.3.3-.3.9-.2,1.3-.2.3-.3-.3-.6,0-.8.1,0,.2-.2.4-.1.1,0,.3.2.3.3h0ZM61.5,42.4c0,.1,0,.3-.1.4-.1.1-.3.2-.5,0-.1-.2-.3-.3-.2-.5.1-.2.4-.3.7-.2,0,0,.2.1.2.2h0ZM9,43.2c0,.2-.2.3-.4.4-.2,0-.3-.1-.4-.3,0-.2,0-.3.1-.4.3-.2.7,0,.7.3ZM10.9,42.9c0,.3-.4.5-.5.8-.3.8-1,1.4-1.9,1.6,0-.2.3-.5.4-.7.4-.7,1.1-1.3,1.8-1.7h.1ZM60.9,43.3c0,.3-.2.5-.4.5s-.4,0-.5-.2,0-.4,0-.6c.3-.3.7,0,.9.2h0ZM62.4,43.4c0,.2-.2.5-.4.5,0,0-.2,0-.2,0-.2,0-.3-.2-.3-.4.1-.1.2-.3.3-.3s.6,0,.6.3h0ZM14.5,43.4c0,.2-.1.4-.4.5-.2,0-.4-.1-.4-.3,0-.2.2-.3.3-.5.3,0,.4.1.5.3h0ZM16.1,43.5c0,.2-.2.4-.5.4-.2,0-.4,0-.4-.3s.2-.3.3-.5c.2,0,.5.1.5.3ZM67.5,45.2c.1,0,.3.2.3.4-.4.2-.7-.3-1-.3-.5-.5-1-1.2-1.2-1.9.2-.2.4,0,.6.1.6.5,1,1.1,1.3,1.7h0ZM68.3,43.5c0,.2,0,.4,0,.5-.1.2-.4.2-.7.1s-.3-.3-.2-.5.3-.2.4-.3.3.1.4.2h0ZM18.3,44.1c0,.2,0,.5-.2.6-.2,0-.5,0-.6-.3-.1-.3.1-.3.3-.5s.3,0,.5.2h0ZM62.3,45.7c.3.5.6,1.1.6,1.7,0,.2.1.3,0,.5h0c-.9-.8-1.5-1.8-1.7-2.9,0,0-.1-.1,0-.2.2-.2.4.2.6.3l.7.7h0ZM21.3,44.9c-.9.8-2.2.9-3.3.4,0,0,0-.2.1-.2.6-.3,1.4-.5,2.1-.5l1.1.2h0ZM16,45c-.8.5-1.5,1.5-2.5,1.7-.2,0-.3.3-.5.2.5-1.2,1.7-2,3.1-2.1,0,0,0,.2,0,.2ZM60.9,46c0,.2,0,.5-.2.5-.1.1-.3.1-.5,0-.2,0-.2-.3-.2-.5s.2-.2.3-.3.4,0,.5.2h0ZM59,46.2c-.2.3-.5.5-.8.6-.8.1-1.5,0-2.2-.3,0-.2.3-.1.4-.2.8-.2,1.6-.3,2.4-.1,0,0,.2,0,.3,0h0ZM16,46.8c0,0,0,.3-.3.4-.2,0-.3,0-.5,0,0-.1-.2-.3,0-.4s.2-.2.4-.3c.2,0,.4.2.5.4h0ZM17.4,47.1c0,.2-.2.3-.3.5-.2,0-.4,0-.5-.2,0-.1-.1-.3,0-.5,0-.1.2-.1.3-.2s.5.2.5.4ZM60.5,47.3c0,.2,0,.3-.2.5-.1.2-.3.2-.5,0-.2,0-.2-.2-.3-.3s0-.3.2-.5c.2-.2.5-.1.7,0,0,0,0,.1,0,.2ZM61.6,47.2c0,.1,0,.2,0,.3s-.2.4-.5.3c-.1,0-.2-.1-.3-.2-.1-.2,0-.5.2-.6,0,0,0,0,0,0,.2,0,.3.1.5.2h0ZM16.6,47.9c0,.2,0,.5-.2.6-.3,0-.6,0-.7-.3,0-.3,0-.5.3-.7.3,0,.5,0,.6.3h0ZM17.9,47.8c0,.7-.3,1.4-.9,1.8-.4,0-.8.4-1.1.2h0c.6-.8,1.3-1.4,2-2h0ZM56.8,48.4c0,.1,0,.3-.1.4s-.4,0-.6,0-.2-.3-.1-.5c0-.1.2-.2.3-.3.2,0,.4.2.5.3h0ZM20.2,49.5c.3.5.1,1.3.3,1.9-.4,0-.6-.4-.8-.6-.4-.8-.6-1.6-.7-2.5,0,0,.1,0,.2,0,.3.3.6.6.9,1,0,.2.1.2.1.3h0ZM58,48.6c0,.2-.2.2-.3.3-.2,0-.3,0-.5-.2,0-.2.1-.3.2-.4.2,0,.4,0,.5.2,0,0,0,0,0,0h0ZM60.8,50.7c0,0,0,.2-.1.2h0c-.8-.5-1.2-1.3-1.3-2.2h.1c.7.5,1.2,1.2,1.4,2.1h0ZM59,49.9c0,.2,0,.3-.2.5-.3,0-.7,0-.7-.3s.2-.4.3-.5c.2,0,.5,0,.6.3h0ZM57.5,50.4c-.3.9-1.2,1.3-1.8,2-.1,0,0-.3,0-.4.3-.9.9-1.7,1.8-2.1.4,0,0,.3,0,.5h0ZM59.2,51.1c0,.2-.2.3-.3.4-.2,0-.4-.1-.5-.3,0-.2.2-.3.3-.4.2,0,.4,0,.5.3h0ZM41.8,8.2c.3,0,.6.3.5.7,0,.3-.2.5-.5.5h-7c-.3,0-.6-.3-.5-.7,0-.3.2-.5.5-.5h7ZM36.8,9.2c.7,0,0-.8-.3-.8h-.7c-.7,0,0,.8.3.8h.7ZM39.7,9.2c.7,0,0-.8-.3-.8h-.7c-.7,0,0,.8.3.8h.7ZM41.8,8.3h-.2c-.7,0,0,.8.3.8s.5-.8,0-.8h0ZM41.1,16.1l1.3.5,1.3-.5-.5,2,1-.2-.3,1.2.3,1.1-.9-.3.4,2.1-1.3-.5-1.3.5.5-2.1-1.1.3.3-1.2-.3-1.2,1,.2-.5-2h0ZM43.1,19.7c.3,0,.3-.4.3-.8,0-.8-.6,0-1-.8-.2.6-.9,0-.9.7s0,.8.5.8h1.1ZM41.8,19c0,.3.4.1.7.1s.7.2.7-.1-.4-.3-.7-.3-.7-.1-.7.3Z"/>
  <path class="cls-3" d="M38,19v-.2h-.2s.2-.2.2-.2v-.2c-.1,0,.1,0,.1,0v-.2c.1,0,.3.2.3.2h.2s-.1.2-.1.2l.2.2h-.2v.3l-.2-.2s-.2.2-.2.2ZM37,20.4v-.2h-.2s.2-.2.2-.2v-.2c-.1,0,.1,0,.1,0v-.2c.1,0,.3.2.3.2h.2s-.1.2-.1.2l.2.2h-.2v.3l-.2-.2-.2.2ZM38.7,20.2v-.2h-.2s.2-.2.2-.2v-.2c-.1,0,.1,0,.1,0v-.2c.1,0,.3.2.3.2h.2s-.1.2-.1.2l.2.2h-.2v.3l-.2-.2s-.2.2-.2.2ZM39,21.2h0c0-.1-.1-.2-.1-.2h0c0-.1,0-.2,0-.2h.1s0-.1,0-.1h0c0,.1.1.1.1.1h0c0,.1,0,.2,0,.2h-.1v.2h-.1c0,0-.1,0-.1,0ZM37.3,22.3v-.4h-.4c0,0,.3-.4.3-.4l-.2-.3h.4s.2-.4.2-.4l.2.4h.4s-.2.3-.2.3l.3.3h-.4v.5l-.4-.3-.4.3ZM38.2,0l.8,2,2.1-.6-1.1,1.9,1.8,1.3-2.2.4v2.2c.1,0-1.5-1.5-1.5-1.5l-1.6,1.5v-2.2c.1,0-2-.4-2-.4l1.8-1.3-1.1-1.9,2.1.6S38.2,0,38.2,0Z"/>
  <path class="cls-3" d="M30.6,45.7c-.2,0-.4.2-.3.4l.3,1.2c0,.3,0,.6,0,.8-.2.3-.5.4-.9.5-.3,0-.7,0-1,0-.3,0-.5-.3-.5-.6l-.3-1.3c0-.3-.2-.3-.5-.3h0c0,0,1.6-.5,1.6-.5h0c-.3.2-.5.2-.4.6l.3,1.3c0,.2.2.8.9.6.4,0,.7-.4.7-.8,0,0,0-.1,0-.2l-.3-1.2c0-.2-.1-.4-.5-.3h0c0,0,1-.3,1-.3h0c0,0,0,0,0,0ZM32.9,45.9c-.2-.4-.6-.6-1.1-.5-.2,0-.5.2-.4.5s.2.3.6.4h.8c.3.2.6.4.7.7,0,.3-.1.9-1,1.1-.3,0-.6,0-.8,0,0,0-.1,0-.1.2h-.1l-.2-1h.1c.2.5.7.7,1.1.6.6-.1.5-.5.5-.6,0-.3-.3-.3-.6-.4h-.3c-.9-.2-1-.5-1-.7s0-.8.9-1c.3,0,.5,0,.8,0,.1,0,.1,0,.1-.2h.1l.2.8h-.1,0ZM36,47.5l-1.7.2h0c.3-.2.5-.2.4-.5l-.2-2.1c-.3,0-.8.1-.9.8h-.1v-.8s2.8-.3,2.8-.3v.8c0,0,0,0,0,0-.2-.6-.7-.6-1-.6l.2,2.1c0,.3.2.3.5.3h0c0,0,0,0,0,0ZM40,47.5h-1l-1-1.3h-.1v.8c0,.3,0,.3.4.4h0c0,0-1.6,0-1.6,0h0c.3,0,.4,0,.4-.5v-1.8c0-.3-.1-.4-.4-.4h0c0,0,1.5,0,1.5,0,.3,0,1.3,0,1.3.7,0,.5-.5.6-.8.7l.9,1.2c0,0,.1,0,.2,0h0c0,0,0,0,0,0ZM37.9,46c.6,0,.9,0,.9-.6,0-.3-.1-.5-.4-.6,0,0-.1,0-.2,0-.3,0-.3,0-.3.2v1h0Z"/>
  <path class="cls-3" d="M43.1,47.9l-1.6-.2h0c.3,0,.4,0,.4-.2,0-.2,0-.4-.2-.6h-1.1c-.1,0-.2.2-.3.4,0,.2.2.2.4.2h0c0,0-1,0-1,0h0c.3,0,.3-.2.5-.5l1.3-2.1h.1l.8,2.2c.2.5.2.6.5.6h0c0,0,0,.1,0,.1ZM41.8,46.7l-.4-1-.6.9h.9c0,.1,0,0,0,0ZM45.9,48.4l-2.7-.5h0c.3,0,.4,0,.5-.3l.3-1.9c0-.3-.1-.3-.3-.4h0c0,0,1.7.2,1.7.2h0c-.3,0-.5,0-.5.4l-.3,1.9c0,.2,0,.2.4.3.5.1,1.1,0,1.3-.6h.1l-.4.9h0Z"/>
  <path class="cls-3" d="M47.7,48.8l-1.6-.3h0c.3,0,.4,0,.5-.3l.4-1.9c0-.3-.2-.3-.4-.4h0c0,0,1.6.2,1.6.2h0c-.2,0-.5,0-.5.3l-.4,1.9c0,.2.1.3.4.4h0ZM51.1,49.3l-1.5-.2h0c.3-.1.4-.1.4-.2,0-.2,0-.4-.2-.6h-1.1c-.1,0-.2.2-.3.4,0,.2.2.2.4.2h0c0,0-1,0-1,0h0c.3,0,.3-.2.5-.5l1.3-2.1h.1l.8,2.3c.2.5.2.6.5.6h0c0,0,0,0,0,0ZM49.7,48.2l-.4-1-.5.9h.9c0,0,0,0,0,0ZM38.8,16.8c0-1-.5,0-.8-.9-.2.7-.9.1-.9.9,0,.2,0,.4.2.5v.3c0,0,0,.1.1.1h1c0,0,.1,0,.1-.1h0v-.3c.1-.1.2-.3.2-.5h0ZM38,17c-.3,0-.7.2-.7-.1s.3-.4.6-.4.7-.1.7.4-.4.1-.7.1ZM47.2,28.7c.2,0,.4-.2.3-.4,0-.2-.2-.4-.4-.3-.2,0-.3.2-.3.4,0,.2.2.4.4.4ZM45.1,14.3c0,.1-.2.3-.2.4,0,.1,0,.2.2.2s.2,0,.2-.2h0s-.2-.4-.2-.4ZM30.9,14.3c0,.1-.2.3-.2.4,0,.1,0,.2.2.2s.2,0,.2-.2h0s-.2-.4-.2-.4ZM34.5,14.3c0,.1-.2.3-.2.4,0,.1,0,.2.2.2s.2,0,.2-.2h0s-.2-.4-.2-.4ZM38,14.3c0,.1-.2.3-.2.4,0,.1,0,.2.2.2s.2,0,.2-.2h0s-.2-.4-.2-.4ZM41.6,14.3c0,.1-.2.3-.2.4,0,.1,0,.2.2.2s.2,0,.2-.2h0s-.2-.4-.2-.4ZM31,19.2c0,.1.2.3.2.4,0,.1,0,.2-.2.2s-.2,0-.2-.2h0s.2-.4.2-.4ZM31,24c0,.1.2.3.2.4,0,.1,0,.2-.2.2s-.2,0-.2-.2h0s.2-.4.2-.4ZM31.5,27.7c0,.1.2.3.2.4,0,.1,0,.2-.2.2s-.2,0-.2-.2h0s.2-.4.2-.4ZM34.5,29.7c0,.1.2.3.2.4,0,.1,0,.2-.2.2-.1,0-.2,0-.2-.2h0s.2-.4.2-.4ZM45.3,19.2c0,.1-.2.3-.2.4,0,.1,0,.2.2.2s.2,0,.2-.2h0s-.2-.4-.2-.4ZM45.3,24c0,.1-.2.3-.2.4,0,.1,0,.2.2.2s.2,0,.2-.2h0s-.2-.4-.2-.4ZM44.8,27.7c0,.1-.2.3-.2.4,0,.1,0,.2.2.2s.2,0,.2-.2h0s-.2-.4-.2-.4ZM41.8,29.7c0,.1-.2.3-.2.4,0,.1,0,.2.2.2.1,0,.2,0,.2-.2h0s-.2-.4-.2-.4ZM38.2,31.8c0,.1-.2.3-.2.4,0,.1,0,.2.2.2.1,0,.2,0,.2-.2h0s-.2-.4-.2-.4ZM43.9,24.7c0,0,.2,0,.3,0v-.4c.1,0,0-.2-.1-.1-.4,0-.8.1-1,.5,0,.2.2.5.4.6.1,0,.2,0,.2.2,0,0,0,.2-.1.2,0,0,0,0,0,0-.3-.3-.7,0-.9-.2,0-.3.3-.7,0-1,0,0,.1-.1,0-.2-.1-.3-.5,0-.7,0-.3,0-.6.1-.8.4,0,.1,0,.2.2.3,0,0,.1,0,.2,0h-.2c0,.2,0,.3,0,.4-.2,0-.3-.2-.4-.3s0-.5-.2-.5c0,0-.1,0-.2,0,0,.1,0,.2,0,.4,0,.1,0,.3,0,.4.3.2.6.5.8.8-.2.4-.2,1-.7,1.2-.1,0-.2.2-.1.4h.1c.3,0,.8-.1.8-.6,0-.2.2-.4.4-.6.2,0,.4,0,.5.2,0,.3-.3.6-.6.7v.2c0,0,.3,0,.5,0,.4-.2.5-.7.9-.8,0,.2-.5.3-.1.5.2,0,.5,0,.6-.2-.2-.4.5-.6.1-.9,0-.3.4-.5.3-.8s-.6-.4-.7-.7c.1,0,.3,0,.5,0h0ZM27.6,28.8c.2,0,.4-.2.3-.4,0-.2-.2-.4-.4-.3-.2,0-.3.2-.3.4,0,.2.2.4.4.4ZM4.6,42.3c.2,0,.4-.2.4-.4,0-.2-.2-.4-.4-.4-.2,0-.4.2-.4.4,0,.2.2.4.4.4,0,0,0,0,0,0ZM19.2,45.5h0s0,0,0,0ZM19.4,45.5h0c0,0,0,0,0,0h0s0,0,0,0ZM19.5,45.5h0,0Z"/>
  <path class="cls-3" d="M46.3,13.8h-16.4v12.5c0,1.1.4,2.1,1.3,2.7l6.3,4c.3.3.7.3,1,0l6.4-4.1c.9-.6,1.4-1.7,1.3-2.7v-12.5h0ZM45.9,26.5c0,.8-.4,1.7-1.1,2.2l-6.2,3.9c-.3.3-.7.3-1,0l-6.2-3.9c-.7-.5-1.1-1.3-1.1-2.2v-12.3h15.5s0,12.2,0,12.2ZM40.3,32h.2c0,0-.2,0-.2,0ZM28,49.1l-1.5.2h0c.3-.1.4-.2.4-.3,0-.2-.2-.4-.3-.5h-1.1c0,.3-.1.5-.1.7,0,.2.2.1.4.1h0c0,0-1,.2-1,.2h0c.2-.2.3-.3.4-.6l.8-2.3h.1l1.3,2c.3.4.4.5.6.5h0c0,0,0,0,0,0ZM26.4,48.4l-.6-.9-.3,1h.9c0-.1,0,0,0,0Z"/>
  <path class="cls-3" d="M55.1,43.3c-.3-.7-.9-1.3-1.6-1.5-.7-.2-1.5,0-2,.5-.8.7-.3,1.8-.2,2.8,0,.2,0,.3-.2.4-3.4-.3-6.6-1.2-10-1.5-.8-.1-1.6,0-2.3-.3h-1c-2.9,0-5.8.3-8.6.9-.6.2-1.2.2-1.8.5-.4,0-.8.2-1.2.1l-.8.2c0,0-.2,0-.3,0-.4-1,.8-1.6.4-2.5-.3-.6-.9-1-1.6-1-.8,0-1.5.3-1.9,1-.5,1.2.1,2.4.4,3.6,0,.4.4.8,0,1.1-.8-.6-1.7-.8-2.7-.6-.3.1-.8,0-.9.3,1.1.4,2.3.6,3.4.4.1,0,.2,0,.4,0,0,.6-.1,1.4.3,2,.5.5,1.1.8,1.8.8,2.1-.2,4.1-.6,6.1-1.2.3,0,.5-.2.9-.2,1.1-.3,2.2-.4,3.3-.5-.5.6-.8,1.4-1,2.1-.3.6.5.7.7,1.1-.7.3-1.3.6-1.9,1-1.5,0-2.8.5-4.2.7,0,.3.5.2.5.5s-.3.2-.5.3,0,.2.1.2c.1-.2.5,0,.6-.2.5,0,.9-.1,1.3-.2.4,0,.8-.3,1.2-.5.5-.1.8-.5,1.3-.6.7,0,1.3-.2,2-.3h0c-.5,1-1.1,1.9-1.7,2.7,0,.1,0,.3.1.4,0,0,0,0,0,0,.3,0,.6,0,.9-.1.5-.8.9-1.7,1.3-2.5.2-.7.7-1.4,1.3-1.8,0,0,.2-.2.3,0-.4.5-.8,1.1-1.1,1.7-.3.7-.1,1.5.3,2.1.3.2.7.2,1.1.2.9-.5,2.1.3,2.8-.6.4,0,.5.4.7.7.4.1.8.5,1.2.2,0-.3-.3-.5-.5-.7-.3-.5-.6-.9-.9-1.3-.2-.3-.3-.6-.4-.9.4.2.8.4,1.3.5.4,0,.9.2,1.3.4.3.4.7.7,1.2.9.6.3,1.2.3,1.9.6.2,0,.6.2.8,0,0-.1-.2-.2-.3-.3,0-.3.4-.1.6-.4,0-.1-.2-.2-.3-.2-.3-.2-1.2-.2-1.4-.4-.3,0-.6-.2-.8-.3-1.4,0-2.2-1.3-3.3-1.8.3-.2.7-.4.8-.8.2-.4.3-.9,0-1.3-.2-.7-1.2-.6-1.7-1h0c.9-.1,1.8,0,2.6.2,2.3.3,4.3,1.2,6.7,1.2,1.3,0,2.9,0,3.5-1.2.1-.7.3-1.5.4-2.2.3-1.2,1.1-2.3.9-3.6h0ZM29.7,54.1l-.3-.3c.2-.2.5,0,.8-.2.6-.3,1.3-.4,2-.3-.7.5-1.6.7-2.4.8ZM44.4,53.7c.8.3,1.7.5,2.5.6,0,.3-.7,0-.6.5-.8-.2-1.5-.5-2.1-1,0,0,0,0,.2,0h0ZM22.3,43.6c0-.5.2-.9.6-1.2.6-.3,1.3-.3,1.9,0,.2.1.3.3.4.5,0,.4,0,.8-.4,1h-.2c0-.3,0-.7.1-1,0-.3-.3-.3-.5-.4-.4,0-.8,0-1.1.2-.3.3-.4.6-.3,1,.2.3,0,.6.1.9h0c-.4-.2-.6-.6-.6-1.1h0ZM23.4,44.3c.4.3.9.1,1.3.2,0,.3,0,.6-.1.8-.4,0-.9,0-1.1-.4,0-.2,0-.4,0-.6h0ZM23.4,43.5c0-.2,0-.5.3-.5s.4,0,.5.1c0,.3,0,.6-.1.8-.3,0-.5-.2-.6-.5ZM34.4,51.1c0-.8.2-1.6.8-2.1.3-.1.7-.1,1,0-.6.2-1.4.3-1.5,1.1,0,.3,0,.5,0,.7.3.5.8.3,1.2.6,0,.1,0,.2-.2.3-.4-.2-.9-.4-1.3-.6h0ZM33.6,52.7c.6-.2,1.2-.7,1.8-.5-.5.3-1.2.5-1.8.5ZM35.8,53c-.3.8-.7,1.5-1.2,2.2,0,.1-.2.1-.4.2,0-.3.3-.6.5-.9.5-.6.6-1.3,1.2-1.9.1.1-.1.2-.1.4ZM36.4,51.6h0c0,0,0,0,0,0h0s0,0,0,0h0ZM36.2,51c-.4,0-.8-.1-1.1-.3-.2-.2,0-.5,0-.8.4-.6,1.1-.7,1.7-.4,0,0,0,0,0,0,0,.5-.3,1-.6,1.3ZM36.7,51c0-.3.2-.7.4-1,0,.4-.2.7-.4,1ZM36.9,49c-.3,0-.5-.4-.8-.4.3,0,.6,0,.9,0,.1.2,0,.3,0,.5h0ZM37.2,49.7v-.2.3h0ZM37.2,50.8c0,0,0-.2,0-.3s.2,0,.3.2c0,.1-.2.2-.3.2h0ZM37.6,49.4c0-.3.2-.6.3-.9.2,0,.4,0,.6,0,0,.5.6,1.1,0,1.5-.2,0-.5.3-.8,0-.3-.2-.4-.5-.2-.8h0ZM39.3,48.7c0-.2.2,0,.3-.1h.7c-.4,0-.8.8-1,0h0ZM40.5,49c-.3,0-.5.4-.8.5.2-.3.5-.5.8-.5ZM39.5,50.5h0c0,0,0,0,0,0ZM39.5,51.9v.2l-.5-.4c.2,0,.5,0,.6.3h0ZM38.8,51.2c0,0,.1,0,.2,0h-.2ZM38.6,50.9c0-.1.2-.3.4-.3h0c-.1.2-.3.3-.4.3h0ZM38,50.9h0,.1c0-.1,0,0,0,0h0ZM38.1,51.8c.3-.3.6.2.7.5.3.5,1.3,1,.9,1.7-.5.4-1.2,0-1.7.3-.3,0-.7,0-.8-.2.2-.8.5-1.5.9-2.3ZM37.4,52.2v-.2c0,.6-.3,1.2-.7,1.7-.1-.6.5-1,.7-1.5h0ZM38.4,55c-.5,0-1.1.3-1.5,0,0-.2-.2-.3-.2-.5.4-.1.7.3,1.1,0,.5,0,1.1,0,1.6,0,.3,0,.7-.4.7,0-.2.8-1.1.2-1.7.5h0ZM39.8,51.6h0c0,0,0,0,0,0ZM39.9,53.1c0,.2.3.3.1.5-.1-.2-.2-.4-.1-.5ZM40.6,54.5h-.1c-.1,0,0-.4,0-.5.1.1.3.3.2.5h0ZM41.8,55.1c0,0-.1,0-.2,0-.6-.9-1.1-1.8-1.5-2.8h0c.6.9,1,1.9,1.6,2.8h0ZM42.7,52.9s0,0,0,0c-.6,0-1.2-.3-1.6-.7h0c.6,0,1.2.3,1.7.6h0ZM42,49.8c.3,0,.3.4.3.6,0,.8-.7,1.4-1.5,1.3,0,0-.1,0-.2,0,.6,0,1.1-.3,1.4-.8v-1.1h0ZM41.6,49.6c.2.3.3.7.2,1-.2.5-.7.5-1.1.5-.2,0-.4,0-.5-.2,0,0,0-.2,0-.2,0-.3-.5-.6-.1-.9s1.3-1.2,1.7-.3h0ZM53.5,47.9c-.2.2,0,.6-.3.8,0,.4-.3.6-.7.8-2.8.6-5.5-.3-8.2-.8-4-.9-8.1-1-12.1-.2-1.8.3-3.6.8-5.3,1.3-1.1.2-2.2.2-3.3,0-.9-.4-.5-1.5-.8-2.2,0-.5,0-1.1-.2-1.6,0-.2-.1-.4,0-.6.4,0,.7.3,1.1.4,2,.4,3.7-.3,5.6-.6,1.8-.4,3.6-.7,5.4-.8,2.1-.1,4.2,0,6.3.2.7,0,1.2.2,1.9.2,1.3.2,2.5.5,3.9.6.2,0,.5,0,.7.1,2.1.3,4.5.9,6.5,0,0,.8-.3,1.7-.5,2.5h0ZM52.8,45c0,.4-.3.3-.5.4h-.6c0-.2-.1-.4,0-.7.4,0,.8.1,1.2.2h0ZM52.6,44.4c.3-.3,0-1.8.7-.8,0,.2,0,.5-.2.6s-.3.3-.5.2h0ZM54.5,44.2c-.2.4-.6.7-1,.8,0-.6.5-1,.3-1.6-.4-.4-.9-.6-1.5-.5-.2.1-.1.4-.2.6v.8c-.6,0-.6-.4-.7-.8,0-.5.3-1,.7-1.2.4-.2.9-.2,1.4,0,.3,0,.6.2.8.5.3.3.3.9.2,1.3h0Z"/>
  <path class="cls-1" d="M83.4,35.3h167.3"/>
  <path class="cls-2" d="M89.2,49h-3.3l-.4.9c-.1.2-.2.5-.2.8,0,.2.1.5.3.6.3.1.6.2.9.2v.3h-3.1v-.3c.3,0,.6-.2.8-.4.3-.4.6-.9.8-1.4l3.4-7.6h.1l3.4,7.7c.2.5.5,1,.8,1.4.2.2.4.2.7.2v.3h-4.6v-.3h.2c.3,0,.5,0,.8-.2.1,0,.2-.2.2-.3,0,0,0-.2,0-.3,0,0,0-.2-.2-.5,0,0-.5-1.1-.5-1.1ZM88.9,48.5l-1.3-3.3-1.4,3.2h2.8Z"/>
  <path class="cls-3" d="M99.3,45.1v5.1c0,.3,0,.6.1.9.1.1.4.2.6.2v.2h-2.6v-.9c-.3.3-.6.6-.9.8-.3.2-.7.2-1,.2-.4,0-.7-.1-1-.3-.3-.2-.5-.5-.6-.8-.1-.5-.2-1-.2-1.6v-2.6c0-.3,0-.6-.1-.9-.1-.1-.3-.2-.6-.2v-.3h2.7v4.4c0,.3,0,.6,0,.9,0,.1.1.2.2.3,0,0,.2.1.3,0,.2,0,.3,0,.4-.1.3-.2.5-.4.7-.7v-3.5c0-.3,0-.6-.1-.9-.1-.1-.3-.2-.6-.2v-.3h2.6ZM104.8,45v2.2c0,0-.1,0-.1,0-.2-.5-.5-1-.9-1.3-.2-.2-.6-.3-.9-.4-.2,0-.4,0-.5.2-.1.1-.2.3-.2.4,0,.1,0,.3.1.4.4.4.8.7,1.2,1,.5.3,1,.7,1.3,1.2.2.3.3.7.3,1.1,0,.4,0,.7-.3,1.1-.2.3-.4.6-.8.8-.3.2-.7.3-1.1.3-.4,0-.8-.1-1.2-.3,0,0-.2,0-.3,0-.2,0-.3.1-.4.3h-.2v-2.3c-.1,0,.1,0,.1,0,.2.5.4,1,.8,1.4.3.3.6.4,1,.5.2,0,.4,0,.5-.2.1-.1.2-.3.2-.5,0-.2,0-.5-.2-.7-.3-.3-.6-.5-.9-.7-.5-.3-1-.7-1.4-1.1-.3-.4-.5-.8-.5-1.3,0-.5.2-1,.5-1.3.4-.4.9-.6,1.5-.6.3,0,.7,0,1,.3,0,0,.2,0,.3,0,0,0,.1,0,.2,0,0,0,.2-.2.2-.3h.2ZM108.6,42.8v2.4h1.5v.7h-1.5v4c0,.2,0,.5,0,.7,0,.1.1.2.2.3,0,0,.2,0,.2,0,.3,0,.6-.2.8-.7l.2.2c-.3.8-1,1.3-1.8,1.3-.4,0-.7-.1-1-.3-.3-.2-.4-.5-.5-.8,0-.4,0-.9,0-1.3v-3.5h-.8v-.2c.5-.4,1-.8,1.5-1.3.4-.5.8-1,1.1-1.5h.2ZM113.4,45.1v1.5c.3-.5.7-1,1.1-1.3.3-.2.6-.3.9-.3.2,0,.5,0,.6.2.2.2.3.4.2.7,0,.3,0,.5-.2.7-.1.2-.3.3-.5.3-.2,0-.5,0-.6-.2l-.3-.3c0,0-.1,0-.2,0-.1,0-.3,0-.4.2-.2.2-.4.4-.4.7-.2.5-.2,1-.2,1.5v1.8c0,.2,0,.3,0,.5,0,.1.1.2.2.3.2,0,.4.1.6,0v.2h-3.5v-.2c.2,0,.4,0,.6-.2.1-.3.2-.7.2-1v-3.6c0-.2,0-.5,0-.7,0-.1-.1-.2-.2-.3-.1,0-.3-.1-.5-.1v-.3h2.7Z"/>
  <path class="cls-2" d="M120.2,50.7c-.6.6-1.3.9-2.1,1-.3,0-.7-.1-.9-.4-.2-.2-.4-.6-.4-.9,0-.5.2-1,.6-1.3.9-.6,1.8-1.2,2.8-1.6v-.7c0-.3,0-.6,0-.9,0-.1-.2-.3-.3-.3-.1,0-.3-.2-.5-.2-.3,0-.5,0-.7.2-.1,0-.2.2-.2.3,0,.1,0,.3.2.4.2.2.2.4.3.6,0,.2,0,.4-.3.6-.2.2-.4.3-.7.2-.3,0-.5,0-.7-.3-.2-.2-.3-.4-.3-.6,0-.4.1-.7.4-1,.3-.3.7-.6,1.1-.7.5-.2,1-.2,1.5-.2.5,0,1,.1,1.5.4.3.2.6.5.7.8,0,.4.1.9,0,1.3v2.5c0,.2,0,.4,0,.6,0,0,0,.1,0,.2,0,0,.1,0,.2,0,.1,0,.2,0,.4-.3l.2.2c-.2.3-.4.6-.7.8-.3.2-.5.2-.8.2-.3,0-.6,0-.9-.3-.2-.2-.4-.5-.4-.8h0ZM120.2,50.2v-2.2c-.5.3-.9.6-1.2,1.1-.2.2-.3.5-.3.8,0,.2,0,.4.2.6.1.1.3.2.5.2.3,0,.6-.2.8-.4h0Z"/>
  <path class="cls-3" d="M125.9,42.2v8.1c0,.3,0,.6.2.9.2.2.4.2.6.2v.2h-3.5v-.2c.2,0,.5,0,.6-.2.1-.3.2-.6.1-.8v-6.7c0-.3,0-.6-.2-.9-.2-.2-.4-.2-.6-.2v-.3h2.7Z"/>
  <path class="cls-2" d="M129,42c.6,0,1.1.5,1.1,1.1,0,.6-.5,1.1-1.1,1.1s-1.1-.5-1.1-1.1c0-.3.1-.6.3-.8.2-.2.5-.3.8-.3ZM130,45.2v5.2c0,.3,0,.6.2.9.2.2.4.2.6.2v.2h-3.5v-.2c.2,0,.5,0,.6-.2.1-.3.2-.6.1-.8v-3.8c0-.3,0-.6-.2-.9-.2-.2-.4-.2-.6-.2v-.3h2.7ZM134.9,50.7c-.6.6-1.3.9-2.1,1-.3,0-.7-.1-.9-.4-.2-.2-.4-.6-.4-.9,0-.5.2-1,.6-1.3.9-.6,1.8-1.2,2.8-1.6v-.7c0-.3,0-.6,0-.9,0-.1-.2-.3-.3-.3-.1,0-.3-.2-.5-.2-.3,0-.5,0-.7.2-.1,0-.2.2-.2.3,0,.1,0,.3.2.4.2.2.2.4.3.6,0,.2,0,.4-.3.6-.2.2-.4.3-.7.2-.3,0-.5,0-.7-.3-.2-.2-.3-.4-.3-.6,0-.4.1-.7.4-1,.3-.3.7-.6,1.1-.7.5-.2,1-.2,1.5-.2.5,0,1,.1,1.5.4.3.2.6.5.7.8,0,.4.1.9.1,1.3v2.5c0,.2,0,.4,0,.6,0,0,0,.1.1.2,0,0,.1,0,.2,0,.1,0,.2,0,.4-.3l.2.2c-.2.3-.4.6-.7.8-.3.2-.5.2-.8.2-.3,0-.6,0-.9-.3-.2-.2-.4-.5-.4-.8h0ZM134.9,50.2v-2.2c-.5.3-.9.6-1.2,1.1-.2.2-.3.5-.3.8,0,.2,0,.4.2.6.1.1.3.2.5.2.3,0,.6-.2.8-.4h0Z"/>
  <path class="cls-3" d="M140.6,45.1v.9c.3-.3.6-.6,1-.8.3-.2.7-.3,1-.2.4,0,.7.1,1,.3.3.2.5.5.6.9,0,.5.1,1,.1,1.5v2.5c0,.3,0,.6.1.9.2.1.4.2.6.2v.2h-3.3v-.2c.2,0,.4-.1.5-.3,0-.3.1-.6.1-.9v-2.9c0-.3,0-.7,0-1,0-.1-.1-.2-.2-.3,0,0-.2-.1-.3-.1-.4,0-.8.3-1.1.8v3.5c0,.3,0,.6.1.9.1.1.3.2.5.2v.2h-3.3v-.2c.2,0,.4,0,.6-.3.1-.3.1-.6.1-.9v-3.7c0-.3,0-.6-.1-.9-.1-.1-.3-.2-.6-.2v-.3h2.6Z"/>
  <path class="cls-2" d="M152,47.3v2.7c0,.3,0,.7,0,1,0,.1.2.2.3.3.3,0,.6.1.9.1v.3h-4.8v-.3c.3,0,.6,0,.9-.1.1,0,.3-.2.3-.3,0-.3.1-.7.1-1v-6.1c0-.3,0-.7-.1-1,0-.1-.2-.3-.3-.3-.3,0-.6-.1-.9-.1v-.3h4.4c.8,0,1.7,0,2.5.2.5.1,1,.5,1.3.9.3.4.5,1,.5,1.5,0,.7-.3,1.3-.8,1.7-.4.3-.8.5-1.3.7l2.3,3.2c.2.3.4.5.6.8.2.1.4.2.7.2v.3h-3l-3-4.3h-.6ZM152,42.7v4.1h.4c.5,0,1,0,1.4-.2.3-.1.6-.3.8-.6.2-.4.3-.8.3-1.2.2-1-.5-1.9-1.5-2.1-.2,0-.4,0-.6,0h-.8ZM164.1,48.2h-3.6c0,.7.3,1.4.7,2,.3.4.7.6,1.1.6.3,0,.5,0,.8-.2.3-.2.5-.5.7-.8l.2.2c-.3.6-.7,1.1-1.2,1.5-.4.3-1,.5-1.5.4-.9,0-1.7-.4-2.2-1.1-.4-.7-.6-1.4-.6-2.2,0-.9.3-1.9.9-2.6.5-.6,1.3-1,2.1-1,.7,0,1.3.3,1.7.8.5.7.8,1.5.8,2.4h0ZM162.4,47.7c0-.5,0-1-.1-1.5,0-.2-.2-.5-.4-.6-.1,0-.2-.1-.4-.1-.2,0-.5.1-.6.3-.3.5-.4,1.1-.4,1.7v.2h1.9Z"/>
  <path class="cls-3" d="M169,45v2.2c.1,0-.1,0-.1,0-.2-.5-.5-1-.9-1.3-.2-.2-.6-.3-.9-.4-.2,0-.4,0-.5.2-.1.1-.2.3-.2.4,0,.1,0,.3.1.4.4.4.8.7,1.2,1,.5.3,1,.7,1.3,1.2.2.3.3.7.3,1.1,0,.4,0,.7-.3,1.1-.2.3-.4.6-.8.8-.3.2-.7.3-1.1.3-.4,0-.8-.1-1.2-.3,0,0-.2,0-.3,0-.2,0-.3.1-.4.3h-.2v-2.3c-.1,0,.1,0,.1,0,.2.5.4,1,.9,1.4.3.3.6.4,1,.5.2,0,.4,0,.5-.2.1-.1.2-.3.2-.5,0-.2,0-.4-.2-.6-.3-.3-.6-.5-.9-.7-.5-.3-1-.7-1.4-1.1-.3-.4-.5-.8-.5-1.3,0-.5.2-1,.5-1.3.4-.4.9-.6,1.5-.6.3,0,.7,0,1,.3,0,0,.2,0,.3,0,0,0,.1,0,.2,0,0,0,.2-.2.2-.3h.3Z"/>
  <path class="cls-2" d="M175.8,48.2h-3.6c0,.7.3,1.4.7,2,.3.4.7.6,1.1.6.3,0,.5,0,.8-.2.3-.2.5-.5.7-.8l.2.2c-.3.6-.7,1.2-1.2,1.6-.4.3-1,.5-1.5.4-.9,0-1.7-.4-2.2-1.1-.4-.7-.6-1.4-.6-2.2,0-.9.3-1.9.9-2.6.5-.6,1.3-1,2.1-1,.7,0,1.3.3,1.7.8.5.7.8,1.5.8,2.4h0ZM174.1,47.7c0-.5,0-1-.1-1.5,0-.2-.2-.5-.4-.6-.1,0-.2-.1-.4-.1-.2,0-.5.1-.6.3-.3.5-.4,1.1-.4,1.7v.2h1.9ZM180,50.7c-.6.6-1.3.9-2.1,1-.3,0-.7-.1-.9-.4-.2-.2-.4-.6-.4-.9,0-.5.2-1,.6-1.3.9-.6,1.8-1.2,2.8-1.6v-.7c0-.3,0-.6,0-.9,0-.1-.2-.3-.3-.3-.1,0-.3-.2-.5-.2-.3,0-.5,0-.7.2-.1,0-.2.2-.2.3,0,.1,0,.3.2.4.2.2.2.4.3.6,0,.2,0,.4-.3.6-.2.2-.4.3-.7.2-.3,0-.5,0-.7-.3-.2-.2-.3-.4-.3-.6,0-.4.1-.7.4-1,.3-.3.7-.6,1.1-.7.5-.2,1-.2,1.5-.2.5,0,1,.1,1.5.4.3.2.6.5.7.8,0,.4.1.9.1,1.3v2.5c0,.2,0,.4,0,.6,0,0,0,.1.1.2,0,0,.1,0,.2,0,.1,0,.2,0,.4-.3l.2.2c-.2.3-.4.6-.7.8-.3.2-.5.2-.8.2-.3,0-.6,0-.9-.3-.2-.2-.4-.5-.4-.8h0ZM180,50.2v-2.2c-.5.3-.9.6-1.2,1.1-.2.2-.3.5-.3.8,0,.2,0,.4.2.6.1.1.3.2.5.2.3,0,.6-.2.8-.4h0Z"/>
  <path class="cls-3" d="M186.1,45.1v1.5c.3-.5.7-1,1.1-1.3.3-.2.6-.3.9-.3.2,0,.5,0,.6.2.2.2.3.4.2.7,0,.3,0,.5-.2.7-.1.2-.3.3-.5.3-.2,0-.5,0-.6-.2l-.3-.3c0,0-.1,0-.2,0-.1,0-.3,0-.4.2-.2.2-.4.4-.4.7-.2.5-.2,1-.2,1.5v1.8c0,.2,0,.3,0,.5,0,.1.1.2.2.3.2,0,.4.1.6,0v.2h-3.5v-.2c.2,0,.4,0,.6-.2.1-.3.2-.7.1-1v-3.6c0-.2,0-.5,0-.7,0-.1-.1-.2-.2-.3-.1,0-.3-.1-.5-.1v-.3h2.7ZM194.6,50l.2.2c-.3.5-.7,1-1.1,1.3-.4.3-.9.4-1.4.4-.8,0-1.6-.4-2.1-1-.5-.7-.8-1.5-.8-2.3,0-.8.2-1.6.7-2.3.5-.8,1.4-1.2,2.4-1.2.6,0,1.1.2,1.6.5.4.3.6.7.6,1.1,0,.5-.3.8-.8.9,0,0,0,0-.1,0-.3,0-.5,0-.7-.3-.2-.3-.3-.6-.3-1,0-.2,0-.4-.2-.6,0-.1-.2-.2-.4-.2-.2,0-.5.1-.6.3-.3.5-.4,1.1-.4,1.6,0,.6,0,1.2.3,1.8.1.5.4.9.8,1.2.3.2.6.3.9.3.2,0,.4,0,.6-.2.3-.1.5-.3.7-.6ZM197.8,42.2v3.8c.3-.3.6-.6,1-.8.3-.2.6-.2.9-.2.4,0,.7.1,1,.3.3.2.5.5.6.8.1.5.2,1,.1,1.6v2.5c0,.3,0,.6.1.9.1.1.4.2.6.2v.2h-3.3v-.2c.2,0,.4-.1.5-.3.1-.3.2-.6.1-.9v-2.9c0-.3,0-.7,0-1,0-.1-.1-.2-.2-.3,0,0-.2-.1-.3-.1-.2,0-.4,0-.5.2-.2.2-.4.4-.6.7v3.5c0,.3,0,.6.1.9.1.2.3.3.5.3v.2h-3.3v-.2c.2,0,.4,0,.6-.3.1-.3.2-.6.1-.9v-6.6c0-.3,0-.6-.1-.9-.1-.1-.3-.2-.6-.2v-.3h2.7Z"/>
  <path class="cls-2" d="M215,42v3.3h-.3c-.1-.8-.5-1.5-1.1-2-.5-.4-1.2-.7-1.9-.7-.6,0-1.1.2-1.6.5-.5.3-.9.8-1.1,1.3-.3.8-.4,1.6-.4,2.4,0,.8,0,1.6.3,2.3.2.6.5,1.2,1,1.6.5.4,1.1.6,1.8.5.6,0,1.1-.1,1.6-.4.6-.3,1.1-.8,1.6-1.3v.8c-.5.5-1,.9-1.6,1.2-.6.3-1.3.4-2,.4-.9,0-1.8-.2-2.7-.6-.8-.4-1.4-1-1.8-1.7-.4-.7-.6-1.6-.6-2.4,0-1.8,1-3.5,2.6-4.4.8-.4,1.7-.7,2.6-.7.7,0,1.4.2,2.1.4.3.1.5.2.8.2.1,0,.3,0,.4-.2.1-.1.2-.3.2-.5h.2ZM218.6,44.9c.6,0,1.1.1,1.6.4.5.3.9.7,1.1,1.2.3.6.4,1.2.4,1.8,0,.8-.2,1.6-.7,2.3-.5.7-1.4,1.2-2.4,1.1-.9,0-1.7-.3-2.3-1-.5-.7-.8-1.5-.8-2.4,0-.9.3-1.7.8-2.4.5-.7,1.4-1,2.2-1h0ZM218.6,45.4c-.2,0-.5,0-.6.3-.2.3-.3.7-.3,1.1,0,.5,0,1.3,0,2.2,0,.5,0,.9.1,1.4,0,.3.1.5.3.8.1.2.4.3.6.3.2,0,.4,0,.5-.2.2-.2.3-.4.4-.7.1-.9.2-1.8.1-2.7,0-.5,0-1.1-.1-1.6,0-.3-.2-.5-.4-.7-.1-.1-.3-.2-.5-.2h0Z"/>
  <path class="cls-3" d="M228.3,45.1v5.1c0,.3,0,.6.1.9.1.1.4.2.6.2v.2h-2.6v-.9c-.3.3-.6.6-.9.8-.3.2-.7.2-1,.2-.4,0-.7-.1-1-.3-.3-.2-.5-.5-.6-.8-.1-.5-.2-1-.1-1.6v-2.6c0-.3,0-.6-.1-.9-.1-.1-.3-.2-.6-.2v-.3h2.6v4.4c0,.3,0,.6,0,.9,0,.1.1.2.2.3,0,0,.2.1.3,0,.2,0,.3,0,.4-.1.3-.2.5-.4.7-.7v-3.5c0-.3,0-.6-.1-.9-.1-.1-.3-.2-.6-.2v-.3h2.6ZM232.3,45.1v.9c.3-.3.6-.6,1-.8.3-.2.7-.3,1-.2.4,0,.7.1,1,.3.3.2.5.5.6.9,0,.5.1,1,.1,1.5v2.5c0,.3,0,.6.1.9.2.1.4.2.6.2v.2h-3.3v-.2c.2,0,.4-.1.5-.3,0-.3.1-.6.1-.9v-2.9c0-.3,0-.7,0-1,0-.1-.1-.2-.2-.3,0,0-.2-.1-.3-.1-.4,0-.8.3-1.1.8v3.5c0,.3,0,.6.1.9.1.1.3.2.5.2v.2h-3.3v-.2c.2,0,.4,0,.6-.3.1-.3.1-.6.1-.9v-3.7c0-.3,0-.6-.1-.9-.1-.1-.3-.2-.6-.2v-.3h2.6ZM242.3,50l.2.2c-.3.5-.7,1-1.1,1.3-.4.3-.9.4-1.4.4-.8,0-1.6-.4-2.1-1-.5-.7-.8-1.5-.8-2.3,0-.8.2-1.6.7-2.3.5-.8,1.4-1.2,2.4-1.2.6,0,1.1.2,1.6.5.4.3.6.7.6,1.1,0,.5-.3.8-.8.9,0,0,0,0-.1,0-.3,0-.5,0-.7-.3-.2-.3-.3-.6-.3-1,0-.2,0-.4-.2-.6,0-.1-.2-.2-.4-.2-.2,0-.5.1-.6.3-.3.5-.4,1.1-.4,1.6,0,.6,0,1.2.3,1.8.1.5.4.9.8,1.2.3.2.6.3.9.3.2,0,.4,0,.6-.2.3-.2.5-.4.7-.6h0Z"/>
  <path class="cls-2" d="M244.6,42c.6,0,1.1.5,1.1,1.1,0,.6-.5,1.1-1.1,1.1s-1.1-.5-1.1-1.1c0-.3.1-.6.3-.8.2-.2.5-.3.8-.3ZM245.6,45.2v5.2c0,.3,0,.6.2.9.2.2.4.2.6.2v.2h-3.5v-.2c.2,0,.5,0,.6-.2.1-.3.2-.6.1-.8v-3.8c0-.3,0-.6-.2-.9-.2-.2-.4-.2-.6-.2v-.3h2.7Z"/>
  <path class="cls-3" d="M249.9,42.2v8.1c0,.3,0,.6.2.9.2.2.4.2.6.2v.2h-3.5v-.2c.2,0,.5,0,.6-.2.1-.3.2-.6.1-.8v-6.7c0-.3,0-.6-.2-.9-.2-.2-.4-.2-.6-.2v-.3h2.7Z"/>
</svg>