<?xml version="1.0" encoding="utf-8"?>
<!-- Generator: Adobe Illustrator 27.3.1, SVG Export Plug-In . SVG Version: 6.00 Build 0)  -->
<svg version="1.1" id="Layer_1" xmlns="http://www.w3.org/2000/svg" xmlns:xlink="http://www.w3.org/1999/xlink" x="0px" y="0px"
	 viewBox="0 0 24 24" style="enable-background:new 0 0 24 24;" xml:space="preserve">
<style type="text/css">
	.st0{fill:#D5A747;}
	.st1{fill:#FFFFFF;}
</style>
<path class="st0" d="M4.63,24C2.11,24,0,21.89,0,19.37V4.63C0,2.11,2.11,0,4.63,0h14.74C21.89,0,24,2.11,24,4.63v14.74
	c0,2.53-2.11,4.63-4.63,4.63H4.63z"/>
<g>
	<path class="st1" d="M3.74,16.27V7.73h2.79c1,0,1.79,0.2,2.35,0.59s0.84,0.98,0.84,1.75c0,0.39-0.1,0.74-0.3,1.05
		s-0.5,0.54-0.89,0.7c0.53,0.1,0.93,0.33,1.2,0.69c0.27,0.36,0.4,0.79,0.4,1.27c0,0.82-0.27,1.43-0.81,1.85s-1.3,0.63-2.29,0.63
		H3.74z M5.45,11.31h1.14c0.46,0,0.81-0.09,1.05-0.28s0.37-0.46,0.37-0.82c0-0.39-0.12-0.69-0.37-0.87S7.03,9.05,6.54,9.05H5.45
		V11.31z M5.45,12.49v2.46h1.59c0.45,0,0.8-0.1,1.04-0.3s0.36-0.49,0.36-0.88c0-0.41-0.12-0.73-0.35-0.96s-0.59-0.33-1.06-0.33H5.45
		z"/>
	<path class="st1" d="M15.8,14.02h0.04l2.19-6.29h2.23v8.53h-1.71v-5.82l-0.04-0.01l-2.11,5.83h-1.16l-2.11-5.84l-0.04,0.01v5.84
		h-1.71V7.73h2.24L15.8,14.02z"/>
</g>
<g>
</g>
<g>
</g>
<g>
</g>
<g>
</g>
<g>
</g>
<g>
</g>
<g>
</g>
<g>
</g>
<g>
</g>
<g>
</g>
<g>
</g>
<g>
</g>
<g>
</g>
<g>
</g>
<g>
</g>
</svg>
