<?xml version="1.0" encoding="utf-8"?>
<!-- Generator: Adobe Illustrator 27.0.1, SVG Export Plug-In . SVG Version: 6.00 Build 0)  -->
<svg version="1.1" id="Layer_1" xmlns="http://www.w3.org/2000/svg" xmlns:xlink="http://www.w3.org/1999/xlink" x="0px" y="0px"
	 viewBox="0 0 24 24" style="enable-background:new 0 0 24 24;" xml:space="preserve">
<style type="text/css">
	.st0{fill:#D5A747;}
	.st1{fill:#8E5E0A;}
	.st2{fill:#FFFFFF;}
</style>
<g>
	<path class="st0" d="M5,23.4c-2.4,0-4.4-2-4.4-4.4V5c0-2.4,2-4.4,4.4-4.4h14c2.4,0,4.4,2,4.4,4.4v14c0,2.4-2,4.4-4.4,4.4H5z"/>
	<path class="st1" d="M19,1.2c2.1,0,3.8,1.7,3.8,3.8v14c0,2.1-1.7,3.8-3.8,3.8H5c-2.1,0-3.8-1.7-3.8-3.8V5c0-2.1,1.7-3.8,3.8-3.8H19
		 M19,0H5C2.2,0,0,2.2,0,5v14c0,2.8,2.2,5,5,5h14c2.8,0,5-2.2,5-5V5C24,2.2,21.8,0,19,0L19,0z"/>
</g>
<g>
	<g>
		<g>
			<path class="st2" d="M3.7,17V7h2.9c1,0,1.8,0.2,2.4,0.7s0.9,1.1,0.9,2c0,0.5-0.1,0.9-0.3,1.3S9,11.6,8.6,11.8
				c0.6,0.1,1,0.4,1.2,0.8s0.4,0.9,0.4,1.5c0,1-0.3,1.7-0.8,2.2C8.9,16.7,8.1,17,7.1,17H3.7z M5.6,11.2h1c0.4,0,0.7-0.1,1-0.3
				s0.3-0.5,0.3-1c0-0.5-0.1-0.8-0.3-1S7,8.5,6.6,8.5H5.6V11.2z M5.6,12.6v2.9h1.4c0.4,0,0.7-0.1,1-0.4c0.2-0.2,0.3-0.6,0.3-1
				c0-0.5-0.1-0.8-0.3-1.1c-0.2-0.3-0.5-0.4-0.9-0.4H7.1H5.6z"/>
		</g>
		<g>
			<path class="st2" d="M15.8,14.4L15.8,14.4L17.8,7h2.5v10h-1.9v-6.3l0,0L16.5,17h-1.3l-1.8-6.2l0,0V17h-1.9V7H14L15.8,14.4z"/>
		</g>
	</g>
</g>
<g>
</g>
<g>
</g>
<g>
</g>
<g>
</g>
<g>
</g>
<g>
</g>
<g>
</g>
<g>
</g>
<g>
</g>
<g>
</g>
<g>
</g>
<g>
</g>
<g>
</g>
<g>
</g>
<g>
</g>
</svg>
