<svg xmlns="http://www.w3.org/2000/svg" version="1.1" id="Layer_1" x="0px"
	 y="0px" style="enable-background:new 0 0 566.9 566.9;" xml:space="preserve" viewBox="87.9 228.54 392.8 112.56">
<style type="text/css">
	.st0 {
        fill: #3C3C3B;
    }

    .st1 {
        fill: #00953B;
    }

    .st2 {
        fill: #2A7382;
    }
</style>
    <g>
	<g>
		<path class="st0" d="M87.9,335.1v-20.9h12.8v2.2H90.4v7h9.6v2.2h-9.6v7.2h10.2v2.2H87.9z"/>
        <path class="st0"
              d="M114.6,332.6h-0.1c-0.6,1.5-1.8,2.9-4.3,2.9c-3.2,0-5.2-2.2-5.2-5.9v-9.9h2.4v9.5c0,2.8,1.2,4.2,3.5,4.2    c1.9,0,3.7-0.9,3.7-3v-10.7h2.4v15.4h-2.4V332.6z"/>
        <path class="st0"
              d="M122.1,335.1v-15.4h2.4v2.8h0.1c0.5-1.5,1.9-2.8,4.5-2.8h0.9v2.4h-1.4c-2.6,0-4.1,1.1-4.1,2.6v10.5H122.1z"/>
        <path class="st0"
              d="M131.8,327.4c0-4.9,2.8-8.1,7-8.1c4.1,0,7,3.2,7,8.1s-2.8,8.1-7,8.1C134.6,335.5,131.8,332.3,131.8,327.4z     M143.2,328.5v-2.2c0-3.3-1.8-4.9-4.4-4.9c-2.6,0-4.4,1.6-4.4,4.9v2.2c0,3.3,1.8,4.8,4.4,4.8C141.4,333.4,143.2,331.8,143.2,328.5    z"/>
        <path class="st0"
              d="M149.7,319.7h2.4v2.5h0.1c0.8-1.9,2.4-2.9,4.5-2.9c3.9,0,6.3,3.1,6.3,8.1c0,4.9-2.4,8.1-6.3,8.1    c-2.1,0-3.6-1-4.5-2.9h-0.1v8.5h-2.4V319.7z M160.4,328.7v-2.6c0-2.8-1.7-4.6-4.4-4.6c-2.2,0-4,1.3-4,3v5.7c0,2,1.8,3.1,4,3.1    C158.8,333.4,160.4,331.5,160.4,328.7z"/>
        <path class="st0"
              d="M165.9,327.4c0-4.9,2.8-8.1,6.9-8.1c4.1,0,6.7,3.2,6.7,7.5v1.1h-11.1v0.7c0,2.7,1.7,4.7,4.6,4.7    c1.9,0,3.4-1,4.3-2.7l1.7,1.2c-1,2.1-3.2,3.5-6.1,3.5C168.7,335.5,165.9,332.3,165.9,327.4z M168.4,326v0.2h8.5v-0.3    c0-2.7-1.6-4.5-4.1-4.5C170.3,321.3,168.4,323.3,168.4,326z"/>
        <path class="st0"
              d="M194.7,335.1c-1.8,0-2.5-1.1-2.7-2.5h-0.1c-0.7,1.9-2.3,2.9-4.5,2.9c-3.3,0-5.2-1.8-5.2-4.7    c0-2.9,2.1-4.5,6.6-4.5h3.1v-1.5c0-2.2-1.2-3.4-3.7-3.4c-1.9,0-3.1,0.9-3.9,2.3l-1.4-1.3c0.8-1.6,2.7-3,5.5-3    c3.7,0,5.9,1.9,5.9,5.2v8.5h1.8v2.1H194.7z M191.9,330.7v-2.5h-3.2c-2.7,0-4,0.8-4,2.3v0.6c0,1.5,1.2,2.4,3.1,2.4    C190.2,333.5,191.9,332.2,191.9,330.7z"/>
        <path class="st0"
              d="M199.5,335.1v-15.4h2.4v2.5h0.1c0.7-1.7,2.1-2.9,4.4-2.9c3.2,0,5.2,2.2,5.2,5.9v9.9h-2.4v-9.5    c0-2.8-1.2-4.2-3.5-4.2c-1.9,0-3.8,1-3.8,2.9v10.7H199.5z"/>
        <path class="st0"
              d="M228.8,322.4l-2.5-4.6h-0.1v17.4h-2.5v-20.9h2.9l7.6,12.8l2.5,4.6h0.1v-17.4h2.5v20.9h-2.9L228.8,322.4z"/>
        <path class="st0"
              d="M254.2,332.6h-0.1c-0.6,1.5-1.8,2.9-4.3,2.9c-3.2,0-5.2-2.2-5.2-5.9v-9.9h2.4v9.5c0,2.8,1.2,4.2,3.5,4.2    c1.9,0,3.7-0.9,3.7-3v-10.7h2.4v15.4h-2.4V332.6z"/>
        <path class="st0"
              d="M260.5,327.4c0-4.9,2.5-8.1,6.9-8.1c3.1,0,4.9,1.5,5.8,3.6l-2,1c-0.6-1.6-1.9-2.5-3.8-2.5    c-2.8,0-4.3,1.9-4.3,4.6v2.6c0,2.7,1.5,4.6,4.3,4.6c1.9,0,3.4-0.9,4.2-2.7l1.7,1.2c-1,2.2-3,3.7-5.9,3.7    C263.1,335.5,260.5,332.4,260.5,327.4z"/>
        <path class="st0" d="M279.3,335.1c-1.6,0-2.5-1-2.5-2.5V313h2.4v20.1h2.3v2.1H279.3z"/>
        <path class="st0"
              d="M283.7,327.4c0-4.9,2.8-8.1,6.9-8.1c4.1,0,6.7,3.2,6.7,7.5v1.1h-11.1v0.7c0,2.7,1.7,4.7,4.6,4.7    c1.9,0,3.4-1,4.3-2.7l1.7,1.2c-1,2.1-3.2,3.5-6.1,3.5C286.5,335.5,283.7,332.3,283.7,327.4z M286.2,326v0.2h8.5v-0.3    c0-2.7-1.6-4.5-4.1-4.5C288.1,321.3,286.2,323.3,286.2,326z"/>
        <path class="st0"
              d="M300.2,327.4c0-4.9,2.8-8.1,7-8.1c4.1,0,7,3.2,7,8.1s-2.8,8.1-7,8.1C303,335.5,300.2,332.3,300.2,327.4z     M311.5,328.5v-2.2c0-3.3-1.8-4.9-4.4-4.9c-2.6,0-4.4,1.6-4.4,4.9v2.2c0,3.3,1.8,4.8,4.4,4.8C309.7,333.4,311.5,331.8,311.5,328.5    z"/>
        <path class="st0"
              d="M321.5,335.1c-1.6,0-2.5-1-2.5-2.5v-10.8h-2.5v-2.1h1.4c1,0,1.3-0.4,1.3-1.4v-2.9h2.2v4.3h3.4v2.1h-3.4v11.3    h3.1v2.1H321.5z"/>
        <path class="st0"
              d="M328.3,314.7v-0.4c0-0.8,0.4-1.3,1.5-1.3s1.5,0.5,1.5,1.3v0.4c0,0.8-0.4,1.3-1.5,1.3S328.3,315.5,328.3,314.7    z M328.6,319.7h2.4v15.4h-2.4V319.7z"/>
        <path class="st0"
              d="M345.9,332.6h-0.1c-0.9,1.9-2.4,2.9-4.5,2.9c-3.9,0-6.3-3.1-6.3-8.1c0-4.9,2.4-8.1,6.3-8.1    c2.1,0,3.7,0.9,4.5,2.9h0.1V313h2.4v22.2h-2.4V332.6z M345.9,330.2v-5.7c0-1.7-1.8-3-4-3c-2.7,0-4.4,1.9-4.4,4.6v2.6    c0,2.8,1.7,4.6,4.4,4.6C344.1,333.4,345.9,332.2,345.9,330.2z"/>
        <path class="st0"
              d="M352.3,327.4c0-4.9,2.8-8.1,6.9-8.1c4.1,0,6.7,3.2,6.7,7.5v1.1h-11.1v0.7c0,2.7,1.7,4.7,4.6,4.7    c1.9,0,3.4-1,4.3-2.7l1.7,1.2c-1,2.1-3.2,3.5-6.1,3.5C355,335.5,352.3,332.3,352.3,327.4z M354.8,326v0.2h8.5v-0.3    c0-2.7-1.6-4.5-4.1-4.5C356.6,321.3,354.8,323.3,354.8,326z"/>
        <path class="st0"
              d="M390.2,335.1l-2.1-6.2h-8.4l-2.1,6.2H375l7.3-20.9h3.2l7.3,20.9H390.2z M384,316.6h-0.1l-3.5,10.2h7.2    L384,316.6z"/>
        <path class="st0"
              d="M396.1,335.1v-15.4h2.4v2.8h0.1c0.5-1.5,1.9-2.8,4.5-2.8h0.9v2.4h-1.4c-2.6,0-4.1,1.1-4.1,2.6v10.5H396.1z"/>
        <path class="st0"
              d="M405.8,327.4c0-4.9,2.5-8.1,6.9-8.1c3.1,0,4.9,1.5,5.8,3.6l-2,1c-0.6-1.6-1.9-2.5-3.8-2.5    c-2.8,0-4.3,1.9-4.3,4.6v2.6c0,2.7,1.5,4.6,4.3,4.6c1.9,0,3.4-0.9,4.2-2.7l1.7,1.2c-1,2.2-3,3.7-5.9,3.7    C408.3,335.5,405.8,332.4,405.8,327.4z"/>
        <path class="st0"
              d="M422,313h2.4v9.2h0.1c0.7-1.7,2.1-2.9,4.4-2.9c3.2,0,5.2,2.2,5.2,5.9v9.9h-2.4v-9.5c0-2.8-1.2-4.2-3.5-4.2    c-1.9,0-3.8,1-3.8,2.9v10.7H422V313z"/>
        <path class="st0"
              d="M438.7,314.7v-0.4c0-0.8,0.4-1.3,1.5-1.3s1.5,0.5,1.5,1.3v0.4c0,0.8-0.4,1.3-1.5,1.3S438.7,315.5,438.7,314.7    z M439,319.7h2.4v15.4H439V319.7z"/>
        <path class="st0" d="M449.8,335.1l-5.4-15.4h2.4l2.7,7.7l1.7,5.3h0.1l1.7-5.3l2.8-7.7h2.3l-5.4,15.4H449.8z"/>
        <path class="st0"
              d="M459.8,327.4c0-4.9,2.8-8.1,6.9-8.1c4.1,0,6.7,3.2,6.7,7.5v1.1h-11.1v0.7c0,2.7,1.7,4.7,4.6,4.7    c1.9,0,3.4-1,4.3-2.7l1.7,1.2c-1,2.1-3.2,3.5-6.1,3.5C462.5,335.5,459.8,332.3,459.8,327.4z M462.3,326v0.2h8.5v-0.3    c0-2.7-1.6-4.5-4.1-4.5C464.1,321.3,462.3,323.3,462.3,326z"/>
	</g>
        <g>
		<path class="st1"
              d="M479.2,238.9c-0.3,0-0.5,0.1-0.7,0.3c-0.1,0.1-0.2,0.2-0.2,0.3c-1,1.2-2.3,2.7-3.5,4.2    c-12.6,14.6-23.3,25.7-32.4,34.2l-2.3-2.7c-0.7-0.8-1.9-0.8-2.7-0.1l-1,1c-0.8,0.7-0.8,1.9-0.1,2.7l2.3,2.7    c-1.3,1.1-2.5,2.2-3.8,3.3l-3.8-4.2c-0.7-0.8-1.9-0.8-2.7-0.1l-1,1c-0.8,0.7-0.8,1.9-0.1,2.7l3.6,4c-1.4,1.1-2.7,2.1-4,3l-5.7-6.1    c-0.7-0.8-1.9-0.8-2.7-0.1l-1,1c-0.8,0.7-0.8,1.9-0.1,2.7l5.1,5.6c-1.5,1-3,1.8-4.4,2.6l-7.7-8.3c-0.7-0.8-1.9-0.8-2.7-0.1l-1,1    c-0.8,0.7-0.8,1.9-0.1,2.7l6.5,7.1c-2,0.7-3.8,1.2-5.5,1.3l-3.4-3.7c0,0,0,0,0,0l-4.8-5.1c-0.7-0.8-1.9-0.8-2.7-0.1l-1,1    c-0.8,0.7-0.8,1.9-0.1,2.7l3.6,3.9c-1.9-1-3.6-2.3-5.1-4c-2.1-2.4-3.9-5.4-5.6-8.8c-0.7-1.4-1.4-2.9-2.1-4.4    c-1.2-2.6-2.3-5.4-3.5-8.2c-8.1-19.1-18.1-39.5-51-28.8c0,0,0,0,0,0c0.9,1.6,2,3.9,3.4,6.9c2.3-0.6,4.5-1.1,6.5-1.3    c-0.2,0.6-0.1,1.3,0.4,1.8l1,1c0.7,0.8,1.9,0.8,2.7,0l2.9-2.8c2,0.3,3.9,0.8,5.6,1.5l-5.1,4.9c-0.8,0.7-0.8,1.9-0.1,2.7l1,1    c0.7,0.8,1.9,0.8,2.7,0l6.1-5.9c1.3,1,2.5,2.1,3.7,3.4l-6.3,6.1c-0.8,0.7-0.8,1.9,0,2.7l1,1c0.7,0.8,1.9,0.8,2.7,0l5.9-5.7    c0.9,1.4,1.8,2.8,2.7,4.4l-5.1,5c-0.8,0.7-0.8,1.9,0,2.7l1,1c0.7,0.8,1.9,0.8,2.7,0l4-3.9c0.7,1.6,1.5,3.2,2.2,4.8l-2.7,2.6    c-0.8,0.7-0.8,1.9,0,2.7l1,1c0,0,0,0,0,0c0,0,0,0,0,0c0.2,0.2,0.4,0.3,0.7,0.4c0.1,0,0.2,0,0.2,0.1c0.2,0,0.4,0.1,0.5,0    c0.1,0,0.3,0,0.4-0.1c0.1,0,0.1,0,0.2-0.1c0.2-0.1,0.4-0.2,0.6-0.4c0,0,0,0,0,0l1.3-1.2c1,2.4,2,4.8,3.1,7.2l0,0    c0.5,1,0.9,2.1,1.4,3.1c0.5,1,1,2.1,1.5,3.1l0,0c0,0,0,0,0,0.1c0.2,0.4,0.4,0.8,0.6,1.1c26.6,47.3,85.3-33.9,98.2-54.8    c0.1-0.1,0.2-0.2,0.2-0.3c0.1-0.1,0.1-0.3,0.1-0.4C480.4,239.5,479.8,238.9,479.2,238.9z"/>
            <path class="st2"
                  d="M450.5,257.5c0,0-35.3-1.9-63.3,16.8c1.4,3.6,3.4,8,3.4,8c1.5-1.1,2.9-2.2,4.4-3.2l5.5,5.9    c0.7,0.8,1.9,0.8,2.7,0.1l1-1c0.8-0.7,0.8-1.9,0.1-2.7l-4.9-5.3c1.5-0.9,2.9-1.8,4.4-2.6l6.2,6.7c0.7,0.8,1.9,0.8,2.7,0.1l1-1    c0.8-0.7,0.8-1.9,0.1-2.7l-5.2-5.7c1.6-0.8,3.2-1.5,4.7-2.2l6.5,7c0.7,0.8,1.9,0.8,2.7,0.1l1-1c0.8-0.7,0.8-1.9,0.1-2.7l-5.2-5.5    c1.7-0.7,3.4-1.3,5.1-1.8l6.1,6.5c0.7,0.8,1.9,0.8,2.7,0.1l1-1c0.8-0.7,0.8-1.9,0.1-2.7l-4.4-4.7c12.1-3.4,20.9-4,21.4-4    c0,0,0,0,0.1,0c0,0,0,0,0,0c0.5,0,0.9-0.4,0.9-0.9S451,257.5,450.5,257.5z"/>
	</g>
        <g>
		<path class="st2"
              d="M374.1,285.5c-0.2,0.1-0.4,0.1-0.7,0.2c-1.5,0.2-3-0.3-4.1-1.4l-0.6-0.6c-1,0.5-8.6,4.1-13.7,2.9l5-4.8    c0.8-0.7,0.8-1.9,0-2.7l-1-1c-0.7-0.8-1.9-0.8-2.7,0l-6.8,6.6c-1.1-0.7-2.1-1.6-2.8-2.8c-0.2-0.2-0.4-0.5-0.6-0.8l6.8-6.5    c0.8-0.7,0.8-1.9,0-2.7l-1-1c-0.7-0.8-1.9-0.8-2.7,0l-5.9,5.7c-0.8-1.5-1.5-3.1-2.3-4.7l4.8-4.6c0.8-0.7,0.8-1.9,0-2.7l-1-1    c-0.7-0.8-1.9-0.8-2.7,0l-3.4,3.3c-0.3-0.7-0.6-1.4-0.9-2c-0.4-0.9-0.8-1.9-1.2-2.9l2-1.9c0.8-0.7,0.8-1.9,0-2.7l-1-1    c-0.7-0.8-1.9-0.8-2.7,0l-0.6,0.6c-1.7-3.9-3.6-7.7-5.6-11.1c-11.9-20.6-31.8-20.6-51.2-11.7c-7,3.1-13.1,6.6-18.6,10.5    c0.4,2.4,0.8,4.6,1.1,6.8c1.4-0.8,2.8-1.7,4.3-2.5l4.3,9.4c0.4,0.9,1.6,1.4,2.5,0.9l1.3-0.6c0.9-0.4,1.4-1.6,0.9-2.5l-4.4-9.7    c1.5-0.8,3-1.5,4.5-2.2l4.5,9.8c0.4,0.9,1.6,1.4,2.5,0.9l1.3-0.6c0.9-0.4,1.4-1.6,0.9-2.5l-4.5-9.8c1.6-0.6,3.1-1.2,4.7-1.8    l4.3,9.5c0.4,0.9,1.6,1.4,2.5,0.9l1.3-0.6c0.9-0.4,1.4-1.6,0.9-2.5l-4-8.8c1.7-0.4,3.3-0.8,5-1.1l3.6,7.8c0.4,0.9,1.6,1.4,2.5,0.9    l1.3-0.6c0.9-0.4,1.4-1.6,0.9-2.5l-2.8-6.1c2,0,3.9,0.1,5.7,0.5l1.7,3.6c0.4,0.9,1.6,1.4,2.5,0.9l1.3-0.6c0.6-0.3,1-0.9,1.1-1.5    c2.5,1.4,4.7,3.4,6.5,6c0.9,1.2,1.7,2.4,2.5,3.6c0,0,0,0,0,0c0.1,0.2,0.2,0.4,0.3,0.6c7,11.6,9.2,24.6,17.7,36.5    c10.2,13.7,23.5,12,36,5.1l4.1,2.6C376.6,291.3,375.3,288.4,374.1,285.5z"/>
	</g>
</g>
    <g>
	<g>
		<g>
			<path d="M256.9,301.8c-5.9-0.4-6.1-2.5-7.1-7.2l-0.7-4.4h-28.5l-2.7,4.4c-4.5,7.7-4.1,7.3-19.6,7.3l33.4-55.2     c4.4-7.4,5.1-7.8,13.2-7.8h8.3l11.9,63C260,301.9,258.6,301.9,256.9,301.8z M243,250.8l-16.7,28.9h21.2L243,250.8z"/>
		</g>
        <g>
			<g>
				<path d="M144.3,250.4h-33l-2.8,13.8h19.6c5,0,7.5,0.2,8.4,1.4c1.6,1.9-0.1,7.5-0.6,9.8H106l-3.3,14.9h22c5.4,0,8,0.3,9.1,1.4      c1.8,2,0.1,7.6-0.5,10H98.9c-2.6,0-8.2,0.4-10-1.3c-1.8-1.8-0.5-6.1,0-8.7l9-42.7c2.1-9.7,3.1-10,14.4-10h24.1      c5,0,7.5,0.2,8.5,1.4C146.5,242.4,144.9,248.1,144.3,250.4z"/>
			</g>
		</g>
        <g>
			<path d="M198.1,301.9h-6.7c-8.7,0-8.8-1-11.8-7.4l-18.1-37.4l-9.6,44.8c-12.8,0-13.7-0.4-11.8-9.8l3-13.3l8.4-39.9h6.5     c7.9,0,9-0.2,12.3,6.7l18,37.7l7.7-35.7c1.7-8.5,3.1-8.8,15.6-8.8L198.1,301.9z"/>
		</g>
	</g>
</g>
    <path class="st1"
          d="M267,288.8l1,5.1c0,0,0,0,0.1,0c15.8-13.3,34.5-27.8,53.1-36.8c-0.9-2-1.9-3.9-3.1-5.8l-0.4-0.6  c0-0.1-0.1-0.1-0.1-0.2c-0.3,0.1-0.5,0.2-0.8,0.4l-2.3-4.6c-0.5-0.9-1.6-1.3-2.5-0.8l-1.3,0.6c-0.9,0.5-1.3,1.6-0.8,2.5l2.4,4.8  c-1.5,0.9-3,1.7-4.3,2.5l-2.5-5c-0.5-0.9-1.6-1.3-2.5-0.8l-1.3,0.6c-0.9,0.5-1.3,1.6-0.8,2.5l2.8,5.5c-1.4,0.9-2.8,1.8-4.2,2.8  l-3-6.1c-0.5-0.9-1.6-1.3-2.5-0.8l-1.3,0.6c-0.9,0.5-1.3,1.6-0.8,2.5l3.4,6.8c-1.4,1-2.7,2-4.1,3l-3.8-7.6c-0.5-0.9-1.6-1.3-2.5-0.8  l-1.3,0.6c-0.9,0.5-1.3,1.6-0.8,2.5l4.2,8.5c-1.3,1.1-2.6,2.2-3.9,3.2l-4.8-9.6c-0.5-0.9-1.6-1.3-2.5-0.8l-1.3,0.6  c-0.9,0.5-1.3,1.6-0.8,2.5l5.3,10.7C274.6,281,270.6,285,267,288.8z"/>
</svg>