<?xml version="1.0" encoding="utf-8"?>
<!-- Generator: Adobe Illustrator 27.4.0, SVG Export Plug-In . SVG Version: 6.00 Build 0)  -->
<svg version="1.1" id="Layer_1" xmlns="http://www.w3.org/2000/svg" xmlns:xlink="http://www.w3.org/1999/xlink" x="0px" y="0px"
	 viewBox="0 0 24 24" style="enable-background:new 0 0 24 24;" xml:space="preserve">
<style type="text/css">
	.st0{fill:#9A499C;}
	.st1{fill:#FFFFFF;}
	.st2{fill:#AFAFAF;}
</style>
<path class="st0" d="M4.63,24C2.11,24,0,21.89,0,19.37V4.63C0,2.11,2.11,0,4.63,0h14.74C21.89,0,24,2.11,24,4.63v14.74
	C24,21.9,21.89,24,19.37,24H4.63z"/>
<g id="layer1" transform="translate(-43.959589,-13.449811)">
	<g id="flowRoot18" transform="scale(0.26458333)">
		<path id="path824" class="st1" d="M170.41,107.89V84.67h4.73v19.28h11.75v3.94H170.41z"/>
		<path id="path826" class="st1" d="M190.28,107.89V84.47h7.59c2.87,0,4.75,0.12,5.62,0.35c1.34,0.35,2.46,1.12,3.37,2.3
			c0.91,1.17,1.36,2.69,1.36,4.55c0,1.44-0.26,2.65-0.78,3.63c-0.52,0.98-1.19,1.75-2,2.32c-0.8,0.55-1.61,0.92-2.44,1.1
			c-1.13,0.22-2.76,0.34-4.9,0.34H195v8.83H190.28z M195,88.43v6.64h2.59c1.86,0,3.11-0.12,3.74-0.37s1.12-0.63,1.47-1.15
			c0.36-0.52,0.54-1.13,0.54-1.82c0-0.85-0.25-1.55-0.75-2.11c-0.5-0.55-1.13-0.9-1.9-1.04c-0.56-0.11-1.7-0.16-3.4-0.16H195z"/>
		<path id="path828" class="st1" d="M210.93,100.27l4.6-0.45c0.28,1.54,0.84,2.68,1.68,3.4c0.85,0.72,2,1.09,3.43,1.09
			c1.52,0,2.67-0.32,3.43-0.96c0.78-0.65,1.17-1.41,1.17-2.27c0-0.55-0.17-1.02-0.5-1.41c-0.32-0.39-0.88-0.73-1.69-1.02
			c-0.55-0.19-1.82-0.53-3.79-1.02c-2.53-0.63-4.31-1.4-5.33-2.32c-1.44-1.29-2.16-2.86-2.16-4.71c0-1.19,0.34-2.31,1.01-3.34
			c0.68-1.04,1.66-1.84,2.92-2.38c1.28-0.54,2.82-0.81,4.62-0.81c2.94,0,5.15,0.64,6.63,1.93c1.49,1.29,2.27,3.01,2.35,5.16
			l-4.73,0.21c-0.2-1.2-0.64-2.07-1.31-2.59c-0.66-0.53-1.66-0.8-2.99-0.8c-1.37,0-2.45,0.28-3.23,0.85
			c-0.5,0.36-0.75,0.85-0.75,1.45c0,0.55,0.23,1.03,0.7,1.42c0.6,0.5,2.04,1.02,4.34,1.57c2.3,0.54,4,1.11,5.09,1.69
			c1.11,0.57,1.97,1.37,2.59,2.38c0.63,1,0.94,2.24,0.94,3.72c0,1.34-0.37,2.6-1.12,3.77c-0.75,1.17-1.8,2.04-3.16,2.62
			c-1.36,0.56-3.06,0.85-5.09,0.85c-2.96,0-5.23-0.68-6.82-2.04C212.18,104.88,211.23,102.89,210.93,100.27z"/>
		<path id="path830" class="st1" d="M234.02,107.89V84.47h4.6l9.58,15.64V84.47h4.39v23.41h-4.74l-9.44-15.27v15.27H234.02z"/>
	</g>
</g>
<path id="path842" class="st2" d="M-134.86,185.81c-1.6,5.62-7.72,8.96-13.68,7.45c-3.65-0.92-6.39-3.45-7.6-6.56
	c1.27,2.77,3.87,5,7.26,5.86c5.8,1.47,11.72-1.65,13.23-6.95c1.51-5.3-1.97-10.79-7.77-12.26c-3.39-0.86-6.83-0.15-9.39,1.65
	c2.7-2.12,6.41-3.02,10.06-2.1C-136.79,174.41-133.26,180.19-134.86,185.81"/>
</svg>
