<?xml version="1.0" encoding="UTF-8" standalone="no"?>
<!-- Created with Inkscape (http://www.inkscape.org/) -->

<svg
   xmlns:dc="http://purl.org/dc/elements/1.1/"
   xmlns:cc="http://creativecommons.org/ns#"
   xmlns:rdf="http://www.w3.org/1999/02/22-rdf-syntax-ns#"
   xmlns:svg="http://www.w3.org/2000/svg"
   xmlns="http://www.w3.org/2000/svg"
   xmlns:sodipodi="http://sodipodi.sourceforge.net/DTD/sodipodi-0.dtd"
   xmlns:inkscape="http://www.inkscape.org/namespaces/inkscape"
   width="156.21471mm"
   height="127.66524mm"
   viewBox="0 0 156.21471 127.66524"
   version="1.1"
   id="svg8"
   inkscape:version="0.92.4 (5da689c313, 2019-01-14)"
   sodipodi:docname="lpsn_logo.svg"
   inkscape:export-filename="d:\user\lor15\LPSN.test2.png"
   inkscape:export-xdpi="300"
   inkscape:export-ydpi="300">
  <defs
     id="defs2" />
  <sodipodi:namedview
     id="base"
     pagecolor="#ffffff"
     bordercolor="#666666"
     borderopacity="1.0"
     inkscape:pageopacity="0.0"
     inkscape:pageshadow="2"
     inkscape:zoom="0.7"
     inkscape:cx="-246.30728"
     inkscape:cy="35.278019"
     inkscape:document-units="mm"
     inkscape:current-layer="layer1"
     showgrid="false"
     inkscape:window-width="1920"
     inkscape:window-height="1017"
     inkscape:window-x="-8"
     inkscape:window-y="-8"
     inkscape:window-maximized="1"
     fit-margin-top="0"
     fit-margin-left="0"
     fit-margin-right="0"
     fit-margin-bottom="0" />
  <metadata
     id="metadata5">
    <rdf:RDF>
      <cc:Work
         rdf:about="">
        <dc:format>image/svg+xml</dc:format>
        <dc:type
           rdf:resource="http://purl.org/dc/dcmitype/StillImage" />
        <dc:title />
      </cc:Work>
    </rdf:RDF>
  </metadata>
  <g
     inkscape:label="Ebene 1"
     inkscape:groupmode="layer"
     id="layer1"
     transform="translate(-43.959589,-13.449811)">
    <path
       style="fill:#afafaf;stroke-width:0.57858127"
       d="M 196.16028,93.500897 C 186.51253,127.4839 149.48245,147.64646 113.45802,138.54206 91.387488,132.96466 74.827146,117.69059 67.520145,98.889486 75.204262,115.61436 90.89897,129.12184 111.40086,134.30365 146.45719,143.16029 182.25822,124.35414 191.3668,92.291123 200.47777,60.228104 179.44265,27.050299 144.39109,18.19142 123.88443,13.00903 103.1347,17.304739 87.612757,28.169027 103.9074,15.329117 126.34611,9.9118496 148.41247,15.48701 c 36.02384,9.105552 57.4009,44.034785 47.74781,78.013887"
       id="path842"
       inkscape:connector-curvature="0" />
    <flowRoot
       xml:space="preserve"
       id="flowRoot10"
       style="font-style:normal;font-weight:normal;font-size:40px;line-height:1.25;font-family:sans-serif;letter-spacing:0px;word-spacing:0px;fill:#000000;fill-opacity:1;stroke:none"><flowRegion
         id="flowRegion12"><rect
           id="rect14"
           width="582.85712"
           height="285.71429"
           x="97.14286"
           y="133.94826" /></flowRegion><flowPara
         id="flowPara16" /></flowRoot>    <g
       aria-label="LPSN "
       transform="scale(0.26458333)"
       style="font-style:normal;font-weight:normal;font-size:40px;line-height:1.25;font-family:sans-serif;letter-spacing:0px;word-spacing:0px;fill:#000000;fill-opacity:1;stroke:none"
       id="flowRoot18">
      <path
         d="m 166.14648,284.03665 v -136.3125 h 27.75 V 260.8804 h 69 v 23.15625 z"
         style="font-style:normal;font-variant:normal;font-weight:bold;font-stretch:normal;font-size:192px;font-family:Arial;-inkscape-font-specification:'Arial Bold';fill:#9a499c;fill-opacity:1"
         id="path824"
         inkscape:connector-curvature="0" />
      <path
         d="m 282.77148,284.03665 v -137.4375 h 44.53125 q 25.3125,0 33,2.0625 11.8125,3.09375 19.78125,13.5 7.96875,10.3125 7.96875,26.71875 0,12.65625 -4.59375,21.28125 -4.59375,8.625 -11.71875,13.59375 -7.03125,4.875 -14.34375,6.46875 -9.9375,1.96875 -28.78125,1.96875 h -18.09375 v 51.84375 z m 27.75,-114.1875 v 39 h 15.1875 q 16.40625,0 21.9375,-2.15625 5.53125,-2.15625 8.625,-6.75 3.1875,-4.59375 3.1875,-10.6875 0,-7.5 -4.40625,-12.375 -4.40625,-4.875 -11.15625,-6.09375 -4.96875,-0.9375 -19.96875,-0.9375 z"
         style="font-style:normal;font-variant:normal;font-weight:bold;font-stretch:normal;font-size:192px;font-family:Arial;-inkscape-font-specification:'Arial Bold';fill:#9a499c;fill-opacity:1"
         id="path826"
         inkscape:connector-curvature="0" />
      <path
         d="m 403.99023,239.3179 27,-2.625 q 2.4375,13.59375 9.84375,19.96875 7.5,6.375 20.15625,6.375 13.40625,0 20.15625,-5.625 6.84375,-5.71875 6.84375,-13.3125 0,-4.875 -2.90625,-8.25 -2.8125,-3.46875 -9.9375,-6 -4.875,-1.6875 -22.21875,-6 -22.3125,-5.53125 -31.3125,-13.59375 -12.65625,-11.34375 -12.65625,-27.65625 0,-10.5 5.90625,-19.59375 6,-9.1875 17.15625,-13.96875 11.25,-4.78125 27.09375,-4.78125 25.875,0 38.90625,11.34375 13.125,11.34375 13.78125,30.28125 l -27.75,1.21875 q -1.78125,-10.59375 -7.6875,-15.1875 -5.8125,-4.6875 -17.53125,-4.6875 -12.09375,0 -18.9375,4.96875 -4.40625,3.1875 -4.40625,8.53125 0,4.875 4.125,8.34375 5.25,4.40625 25.5,9.1875 20.25,4.78125 29.90625,9.9375 9.75,5.0625 15.1875,13.96875 5.53125,8.8125 5.53125,21.84375 0,11.8125 -6.5625,22.125 -6.5625,10.3125 -18.5625,15.375 -12,4.96875 -29.90625,4.96875 -26.0625,0 -40.03125,-12 -13.96875,-12.09375 -16.6875,-35.15625 z"
         style="font-style:normal;font-variant:normal;font-weight:bold;font-stretch:normal;font-size:192px;font-family:Arial;-inkscape-font-specification:'Arial Bold';fill:#9a499c;fill-opacity:1"
         id="path828"
         inkscape:connector-curvature="0" />
      <path
         d="m 539.55273,284.03665 v -137.4375 h 27 l 56.25,91.78125 v -91.78125 h 25.78125 v 137.4375 h -27.84375 l -55.40625,-89.625 v 89.625 z"
         style="font-style:normal;font-variant:normal;font-weight:bold;font-stretch:normal;font-size:192px;font-family:Arial;-inkscape-font-specification:'Arial Bold';fill:#9a499c;fill-opacity:1"
         id="path830"
         inkscape:connector-curvature="0" />
    </g>
    <g
       aria-label=".dsmz.de"
       transform="scale(1.0105417,0.98956827)"
       style="font-style:normal;font-weight:normal;font-size:10.95929241px;line-height:1.25;font-family:sans-serif;letter-spacing:0px;word-spacing:0px;fill:#000000;fill-opacity:0.5723473;stroke:none;stroke-width:0.27398232"
       id="text30">
      <path
         d="m 64.708127,93.084933 h 2.107666 v 2.537191 h -2.107666 z"
         style="font-style:normal;font-variant:normal;font-weight:normal;font-stretch:normal;font-size:20.45734596px;font-family:sans-serif;-inkscape-font-specification:sans-serif;fill:#000000;fill-opacity:0.5723473;stroke-width:0.27398232"
         id="path833"
         inkscape:connector-curvature="0" />
      <path
         d="m 78.32305,86.132632 v -6.053297 h 1.837965 V 95.622124 H 78.32305 v -1.678142 q -0.579358,0.998894 -1.468374,1.488352 -0.879026,0.479469 -2.117655,0.479469 -2.027754,0 -3.306338,-1.618208 -1.268595,-1.618208 -1.268595,-4.255288 0,-2.63708 1.268595,-4.255288 1.278584,-1.618208 3.306338,-1.618208 1.238629,0 2.117655,0.489458 0.889016,0.479469 1.468374,1.478363 z m -6.263064,3.905675 q 0,2.027755 0.829082,3.186471 0.839071,1.148728 2.297456,1.148728 1.458385,0 2.297456,-1.148728 0.83907,-1.158716 0.83907,-3.186471 0,-2.027754 -0.83907,-3.176482 -0.839071,-1.158717 -2.297456,-1.158717 -1.458385,0 -2.297456,1.158717 -0.829082,1.148728 -0.829082,3.176482 z"
         style="font-style:normal;font-variant:normal;font-weight:normal;font-stretch:normal;font-size:20.45734596px;font-family:sans-serif;-inkscape-font-specification:sans-serif;fill:#000000;fill-opacity:0.5723473;stroke-width:0.27398232"
         id="path835"
         inkscape:connector-curvature="0" />
      <path
         d="m 91.078924,84.764148 v 1.738075 q -0.779137,-0.399558 -1.618208,-0.599336 -0.839071,-0.199779 -1.738075,-0.199779 -1.368485,0 -2.057721,0.419535 -0.679248,0.419536 -0.679248,1.258606 0,0.639293 0.489458,1.008883 0.489458,0.359602 1.967821,0.689237 l 0.629303,0.139845 q 1.957832,0.419536 2.776925,1.188684 0.829082,0.759159 0.829082,2.127644 0,1.558274 -1.238629,2.467268 -1.228639,0.908993 -3.38625,0.908993 -0.899004,0 -1.87792,-0.179801 -0.968927,-0.169812 -2.047733,-0.519425 v -1.897898 q 1.018872,0.529414 2.007777,0.799115 0.988905,0.259712 1.957832,0.259712 1.298562,0 1.997788,-0.439513 0.699225,-0.449502 0.699225,-1.258606 0,-0.749171 -0.509436,-1.148728 -0.499447,-0.399558 -2.207555,-0.769148 l -0.639292,-0.149834 q -1.708109,-0.359602 -2.467268,-1.098784 -0.759159,-0.74917 -0.759159,-2.047732 0,-1.578252 1.118761,-2.437301 1.118761,-0.859049 3.176482,-0.859049 1.018872,0 1.917877,0.149834 0.899004,0.149834 1.658163,0.449503 z"
         style="font-style:normal;font-variant:normal;font-weight:normal;font-stretch:normal;font-size:20.45734596px;font-family:sans-serif;-inkscape-font-specification:sans-serif;fill:#000000;fill-opacity:0.5723473;stroke-width:0.27398232"
         id="path837"
         inkscape:connector-curvature="0" />
      <path
         d="m 103.32536,86.582134 q 0.68924,-1.238628 1.64818,-1.827975 0.95894,-0.589348 2.2575,-0.589348 1.74806,0 2.69701,1.22864 0.94895,1.21865 0.94895,3.47615 v 6.752523 h -1.84795 v -6.692589 q 0,-1.608219 -0.56937,-2.387356 -0.56937,-0.779138 -1.73808,-0.779138 -1.42842,0 -2.2575,0.94895 -0.82908,0.948949 -0.82908,2.587135 v 6.322998 h -1.84795 v -6.692589 q 0,-1.618208 -0.56937,-2.387356 -0.56937,-0.779138 -1.758056,-0.779138 -1.408441,0 -2.237523,0.958939 -0.829082,0.948949 -0.829082,2.577146 v 6.322998 H 94.545086 V 84.434513 h 1.847953 v 1.738075 q 0.629304,-1.028861 1.50833,-1.518319 0.879027,-0.489458 2.087688,-0.489458 1.218653,0 2.067713,0.619314 0.85905,0.619315 1.26859,1.798009 z"
         style="font-style:normal;font-variant:normal;font-weight:normal;font-stretch:normal;font-size:20.45734596px;font-family:sans-serif;-inkscape-font-specification:sans-serif;fill:#000000;fill-opacity:0.5723473;stroke-width:0.27398232"
         id="path839"
         inkscape:connector-curvature="0" />
      <path
         d="m 113.75381,84.434513 h 8.73034 v 1.678141 l -6.91235,8.041096 h 6.91235 v 1.468374 h -8.98006 v -1.678142 l 6.91235,-8.041095 h -6.66263 z"
         style="font-style:normal;font-variant:normal;font-weight:normal;font-stretch:normal;font-size:20.45734596px;font-family:sans-serif;-inkscape-font-specification:sans-serif;fill:#000000;fill-opacity:0.5723473;stroke-width:0.27398232"
         id="path841"
         inkscape:connector-curvature="0" />
      <path
         d="m 125.56074,93.084933 h 2.10766 v 2.537191 h -2.10766 z"
         style="font-style:normal;font-variant:normal;font-weight:normal;font-stretch:normal;font-size:20.45734596px;font-family:sans-serif;-inkscape-font-specification:sans-serif;fill:#000000;fill-opacity:0.5723473;stroke-width:0.27398232"
         id="path843"
         inkscape:connector-curvature="0" />
      <path
         d="m 139.17566,86.132632 v -6.053297 h 1.83797 v 15.542789 h -1.83797 v -1.678142 q -0.57935,0.998894 -1.46837,1.488352 -0.87903,0.479469 -2.11765,0.479469 -2.02776,0 -3.30634,-1.618208 -1.2686,-1.618208 -1.2686,-4.255288 0,-2.63708 1.2686,-4.255288 1.27858,-1.618208 3.30634,-1.618208 1.23862,0 2.11765,0.489458 0.88902,0.479469 1.46837,1.478363 z m -6.26306,3.905675 q 0,2.027755 0.82908,3.186471 0.83907,1.148728 2.29746,1.148728 1.45838,0 2.29745,-1.148728 0.83907,-1.158716 0.83907,-3.186471 0,-2.027754 -0.83907,-3.176482 -0.83907,-1.158717 -2.29745,-1.158717 -1.45839,0 -2.29746,1.158717 -0.82908,1.148728 -0.82908,3.176482 z"
         style="font-style:normal;font-variant:normal;font-weight:normal;font-stretch:normal;font-size:20.45734596px;font-family:sans-serif;-inkscape-font-specification:sans-serif;fill:#000000;fill-opacity:0.5723473;stroke-width:0.27398232"
         id="path845"
         inkscape:connector-curvature="0" />
      <path
         d="m 154.36884,89.568827 v 0.899004 h -8.45064 q 0.11986,1.897899 1.13874,2.896793 1.02886,0.988905 2.85683,0.988905 1.05883,0 2.04773,-0.259713 0.9989,-0.259712 1.97781,-0.779137 v 1.738075 q -0.9889,0.419536 -2.02775,0.639292 -1.03885,0.219757 -2.10767,0.219757 -2.67703,0 -4.24529,-1.558274 -1.55828,-1.558275 -1.55828,-4.215332 0,-2.746959 1.47836,-4.355178 1.48836,-1.618208 4.00557,-1.618208 2.2575,0 3.56605,1.458385 1.31854,1.448396 1.31854,3.945631 z m -1.83797,-0.539403 q -0.02,-1.508329 -0.84906,-2.407334 -0.81909,-0.899004 -2.17758,-0.899004 -1.5383,0 -2.46727,0.869037 -0.91898,0.869038 -1.05883,2.44729 z"
         style="font-style:normal;font-variant:normal;font-weight:normal;font-stretch:normal;font-size:20.45734596px;font-family:sans-serif;-inkscape-font-specification:sans-serif;fill:#000000;fill-opacity:0.5723473;stroke-width:0.27398232"
         id="path847"
         inkscape:connector-curvature="0" />
    </g>
  </g>
</svg>
