<?xml version="1.0" encoding="utf-8"?>
<!-- Generator: Adobe Illustrator 27.4.0, SVG Export Plug-In . SVG Version: 6.00 Build 0)  -->
<svg version="1.1"
	 id="svg8" xmlns:rdf="http://www.w3.org/1999/02/22-rdf-syntax-ns#" xmlns:cc="http://creativecommons.org/ns#" xmlns:dc="http://purl.org/dc/elements/1.1/" xmlns:svg="http://www.w3.org/2000/svg" xmlns:inkscape="http://www.inkscape.org/namespaces/inkscape" xmlns:sodipodi="http://sodipodi.sourceforge.net/DTD/sodipodi-0.dtd" inkscape:export-filename="d:\user\lor15\LPSN.test2.png" inkscape:export-xdpi="300" inkscape:export-ydpi="300" inkscape:version="0.92.4 (5da689c313, 2019-01-14)" sodipodi:docname="lpsn_logo.svg"
	 xmlns="http://www.w3.org/2000/svg" xmlns:xlink="http://www.w3.org/1999/xlink" x="0px" y="0px" viewBox="0 0 442.8 361.9"
	 style="enable-background:new 0 0 442.8 361.9;" xml:space="preserve">
<style type="text/css">
	.st0{fill:#AFAFAF;}
	.st1{fill:#9A499C;}
	.st2{fill-opacity:0.5723;}
</style>
<g id="layer1" transform="translate(-43.959589,-13.449811)" inkscape:groupmode="layer" inkscape:label="Ebene 1">
	<path id="path842" inkscape:connector-curvature="0" class="st0" d="M475.4,240.4C448,336.7,343.1,393.8,241,368
		c-62.6-15.8-109.5-59.1-130.2-112.4c21.8,47.4,66.3,85.7,124.4,100.4c99.4,25.1,200.9-28.2,226.7-119.1
		C487.6,146,428,52,328.6,26.9c-58.1-14.7-116.9-2.5-160.9,28.3C213.9,18.8,277.5,3.4,340,19.2C442.2,45,502.8,144,475.4,240.4"/>
	<g id="flowRoot10">
	</g>
	<g id="flowRoot18" transform="scale(0.26458333)">
		<path id="path824" inkscape:connector-curvature="0" class="st1" d="M166.1,711.9V325.5h78.7v320.8h195.6v65.6H166.1z"/>
		<path id="path826" inkscape:connector-curvature="0" class="st1" d="M496.7,711.9V322.3H623c47.8,0,79,1.9,93.5,5.8
			c22.3,5.8,41,18.6,56.1,38.3c15.1,19.5,22.6,44.7,22.6,75.7c0,23.9-4.3,44-13,60.3c-8.7,16.3-19.8,29.1-33.2,38.5
			c-13.3,9.2-26.8,15.3-40.7,18.3c-18.8,3.7-46,5.6-81.6,5.6h-51.3v147H496.7z M575.4,388.2v110.6h43.1c31,0,51.7-2,62.2-6.1
			c10.5-4.1,18.6-10.5,24.4-19.1c6-8.7,9-18.8,9-30.3c0-14.2-4.2-25.9-12.5-35.1c-8.3-9.2-18.9-15-31.6-17.3
			c-9.4-1.8-28.3-2.7-56.6-2.7H575.4z"/>
		<path id="path828" inkscape:connector-curvature="0" class="st1" d="M840.4,585.1l76.5-7.4c4.6,25.7,13.9,44.6,27.9,56.6
			c14.2,12,33.2,18.1,57.1,18.1c25.3,0,44.4-5.3,57.1-15.9c12.9-10.8,19.4-23.4,19.4-37.7c0-9.2-2.7-17-8.2-23.4
			c-5.3-6.6-14.7-12.2-28.2-17c-9.2-3.2-30.2-8.9-63-17c-42.2-10.5-71.8-23.3-88.8-38.5c-23.9-21.4-35.9-47.6-35.9-78.4
			c0-19.8,5.6-38.4,16.7-55.5c11.3-17.4,27.5-30.6,48.6-39.6c21.3-9,46.9-13.6,76.8-13.6c48.9,0,85.7,10.7,110.3,32.2
			c24.8,21.4,37.8,50,39.1,85.8l-78.7,3.5c-3.4-20-10.6-34.4-21.8-43.1c-11-8.9-27.5-13.3-49.7-13.3c-22.9,0-40.7,4.7-53.7,14.1
			c-8.3,6-12.5,14.1-12.5,24.2c0,9.2,3.9,17.1,11.7,23.7c9.9,8.3,34,17,72.3,26c38.3,9,66.5,18.4,84.8,28.2
			c18.4,9.6,32.8,22.8,43.1,39.6c10.5,16.7,15.7,37.3,15.7,61.9c0,22.3-6.2,43.2-18.6,62.7c-12.4,19.5-29.9,34-52.6,43.6
			c-22.7,9.4-50.9,14.1-84.8,14.1c-49.3,0-87.1-11.3-113.5-34C861.3,661.9,845.5,628.7,840.4,585.1z"/>
		<path id="path830" inkscape:connector-curvature="0" class="st1" d="M1224.6,711.9V322.3h76.5l159.4,260.2V322.3h73.1v389.6h-78.9
			l-157.1-254.1v254.1H1224.6z"/>
	</g>
	<g id="text30" transform="scale(1.0105417,0.98956827)">
		<path id="path833" inkscape:connector-curvature="0" class="st2" d="M103.6,238.9h6v7.2h-6V238.9z"/>
		<path id="path835" inkscape:connector-curvature="0" class="st2" d="M142.2,219.2v-17.2h5.2v44.1h-5.2v-4.8
			c-1.1,1.9-2.5,3.3-4.2,4.2c-1.7,0.9-3.7,1.4-6,1.4c-3.8,0-7-1.5-9.4-4.6c-2.4-3.1-3.6-7.1-3.6-12.1c0-5,1.2-9,3.6-12.1
			c2.4-3.1,5.5-4.6,9.4-4.6c2.3,0,4.3,0.5,6,1.4C139.7,215.9,141.1,217.3,142.2,219.2z M124.5,230.3c0,3.8,0.8,6.8,2.4,9
			c1.6,2.2,3.8,3.3,6.5,3.3c2.8,0,4.9-1.1,6.5-3.3c1.6-2.2,2.4-5.2,2.4-9c0-3.8-0.8-6.8-2.4-9c-1.6-2.2-3.8-3.3-6.5-3.3
			c-2.8,0-4.9,1.1-6.5,3.3C125.2,223.5,124.5,226.5,124.5,230.3z"/>
		<path id="path837" inkscape:connector-curvature="0" class="st2" d="M178.4,215.3v4.9c-1.5-0.8-3-1.3-4.6-1.7
			c-1.6-0.4-3.2-0.6-4.9-0.6c-2.6,0-4.5,0.4-5.8,1.2c-1.3,0.8-1.9,2-1.9,3.6c0,1.2,0.5,2.2,1.4,2.9c0.9,0.7,2.8,1.3,5.6,2l1.8,0.4
			c3.7,0.8,6.3,1.9,7.9,3.4c1.6,1.4,2.4,3.4,2.4,6c0,2.9-1.2,5.3-3.5,7c-2.3,1.7-5.5,2.6-9.6,2.6c-1.7,0-3.5-0.2-5.3-0.5
			c-1.8-0.3-3.8-0.8-5.8-1.5v-5.4c1.9,1,3.8,1.8,5.7,2.3c1.9,0.5,3.7,0.7,5.5,0.7c2.5,0,4.3-0.4,5.7-1.2c1.3-0.8,2-2,2-3.6
			c0-1.4-0.5-2.5-1.4-3.3c-0.9-0.8-3-1.5-6.3-2.2l-1.8-0.4c-3.2-0.7-5.6-1.7-7-3.1c-1.4-1.4-2.2-3.4-2.2-5.8c0-3,1.1-5.3,3.2-6.9
			c2.1-1.6,5.1-2.4,9-2.4c1.9,0,3.7,0.1,5.4,0.4C175.4,214.3,176.9,214.8,178.4,215.3L178.4,215.3z"/>
		<path id="path839" inkscape:connector-curvature="0" class="st2" d="M213.1,220.5c1.3-2.3,2.9-4.1,4.7-5.2s3.9-1.7,6.4-1.7
			c3.3,0,5.9,1.2,7.6,3.5c1.8,2.3,2.7,5.6,2.7,9.9v19.1h-5.2v-19c0-3-0.5-5.3-1.6-6.8c-1.1-1.5-2.7-2.2-4.9-2.2
			c-2.7,0-4.8,0.9-6.4,2.7s-2.4,4.2-2.4,7.3v17.9h-5.2v-19c0-3.1-0.5-5.3-1.6-6.8c-1.1-1.5-2.7-2.2-5-2.2c-2.7,0-4.8,0.9-6.3,2.7
			c-1.6,1.8-2.4,4.2-2.4,7.3v17.9h-5.2v-31.7h5.2v4.9c1.2-1.9,2.6-3.4,4.3-4.3c1.7-0.9,3.6-1.4,5.9-1.4c2.3,0,4.3,0.6,5.9,1.8
			C211.1,216.6,212.3,218.3,213.1,220.5L213.1,220.5z"/>
		<path id="path841" inkscape:connector-curvature="0" class="st2" d="M242.6,214.4h24.7v4.8L247.8,242h19.6v4.2h-25.5v-4.8
			l19.6-22.8h-18.9L242.6,214.4z"/>
		<path id="path843" inkscape:connector-curvature="0" class="st2" d="M276.1,238.9h6v7.2h-6V238.9z"/>
		<path id="path845" inkscape:connector-curvature="0" class="st2" d="M314.7,219.2v-17.2h5.2v44.1h-5.2v-4.8
			c-1.1,1.9-2.5,3.3-4.2,4.2c-1.7,0.9-3.7,1.4-6,1.4c-3.8,0-7-1.5-9.4-4.6c-2.4-3.1-3.6-7.1-3.6-12.1c0-5,1.2-9,3.6-12.1
			c2.4-3.1,5.5-4.6,9.4-4.6c2.3,0,4.3,0.5,6,1.4C312.2,215.9,313.6,217.3,314.7,219.2L314.7,219.2z M297,230.3c0,3.8,0.8,6.8,2.4,9
			c1.6,2.2,3.8,3.3,6.5,3.3s4.9-1.1,6.5-3.3c1.6-2.2,2.4-5.2,2.4-9c0-3.8-0.8-6.8-2.4-9c-1.6-2.2-3.8-3.3-6.5-3.3
			c-2.8,0-4.9,1.1-6.5,3.3C297.7,223.5,297,226.5,297,230.3z"/>
		<path id="path847" inkscape:connector-curvature="0" class="st2" d="M357.8,229v2.5h-24c0.2,3.6,1.3,6.3,3.2,8.2
			c1.9,1.9,4.6,2.8,8.1,2.8c2,0,3.9-0.2,5.8-0.7c1.9-0.5,3.8-1.2,5.6-2.2v4.9c-1.9,0.8-3.8,1.4-5.7,1.8c-2,0.4-4,0.6-6,0.6
			c-5.1,0-9.1-1.5-12-4.4c-2.9-2.9-4.4-6.9-4.4-11.9c0-5.2,1.4-9.3,4.2-12.3c2.8-3.1,6.6-4.6,11.4-4.6c4.3,0,7.6,1.4,10.1,4.1
			C356.5,220.5,357.8,224.2,357.8,229L357.8,229z M352.6,227.4c0-2.9-0.8-5.1-2.4-6.8c-1.5-1.7-3.6-2.5-6.2-2.5
			c-2.9,0-5.2,0.8-7,2.5c-1.7,1.6-2.7,4-3,6.9L352.6,227.4z"/>
	</g>
</g>
</svg>
