<?xml version="1.0" encoding="utf-8"?>
<!-- Generator: Adobe Illustrator 27.0.1, SVG Export Plug-In . SVG Version: 6.00 Build 0)  -->
<svg version="1.1" id="Layer_1" xmlns="http://www.w3.org/2000/svg" xmlns:xlink="http://www.w3.org/1999/xlink" x="0px" y="0px"
	 viewBox="0 0 24 24" style="enable-background:new 0 0 24 24;" xml:space="preserve">
<style type="text/css">
	.st0{fill:#322348;}
	.st1{fill:#221731;}
	.st2{fill:#FFFFFF;}
</style>
<g>
	<path class="st0" d="M5,23.4c-2.4,0-4.4-2-4.4-4.4V5c0-2.4,2-4.4,4.4-4.4h14c2.4,0,4.4,2,4.4,4.4v14c0,2.4-2,4.4-4.4,4.4H5z"/>
	<path class="st1" d="M19,1.2c2.1,0,3.8,1.7,3.8,3.8v14c0,2.1-1.7,3.8-3.8,3.8H5c-2.1,0-3.8-1.7-3.8-3.8V5c0-2.1,1.7-3.8,3.8-3.8H19
		 M19,0H5C2.2,0,0,2.2,0,5v14c0,2.8,2.2,5,5,5h14c2.8,0,5-2.2,5-5V5C24,2.2,21.8,0,19,0L19,0z"/>
</g>
<g>
	<g>
		<g>
			<path class="st2" d="M9.5,14.4c0-0.4-0.1-0.7-0.3-0.9c-0.2-0.2-0.6-0.5-1.1-0.7c-1-0.4-1.8-0.8-2.3-1.2S5,10.5,5,9.6
				c0-0.8,0.3-1.5,0.9-2s1.3-0.8,2.2-0.8c1,0,1.7,0.3,2.3,0.8s0.9,1.3,0.9,2.2l0,0H9.4c0-0.5-0.1-0.9-0.3-1.2s-0.6-0.4-1-0.4
				c-0.4,0-0.7,0.1-0.9,0.4S6.9,9.3,6.9,9.6c0,0.3,0.1,0.6,0.3,0.8s0.6,0.5,1.2,0.7c1,0.3,1.7,0.7,2.2,1.2s0.7,1.1,0.7,2
				c0,0.9-0.3,1.5-0.9,2c-0.6,0.5-1.3,0.7-2.3,0.7c-0.9,0-1.7-0.3-2.4-0.8s-1-1.3-1-2.4l0,0h1.9c0,0.6,0.1,1.1,0.4,1.3
				s0.6,0.4,1.1,0.4c0.4,0,0.7-0.1,0.9-0.3C9.4,15.1,9.5,14.8,9.5,14.4z"/>
		</g>
		<g>
			<path class="st2" d="M19.2,13.9L19.2,13.9c0,1.1-0.2,1.9-0.8,2.4c-0.6,0.5-1.4,0.8-2.4,0.8c-1.1,0-1.9-0.3-2.6-0.9
				c-0.6-0.6-0.9-1.5-0.9-2.7v-3c0-1.2,0.3-2.1,0.9-2.7s1.4-1,2.5-1c1.1,0,1.9,0.3,2.5,0.8c0.6,0.5,0.9,1.3,0.8,2.4l0,0h-1.9
				c0-0.6-0.1-1.1-0.3-1.3c-0.2-0.3-0.6-0.4-1.1-0.4c-0.5,0-0.8,0.2-1.1,0.5c-0.2,0.3-0.4,0.9-0.4,1.6v3c0,0.7,0.1,1.3,0.4,1.6
				s0.7,0.5,1.2,0.5c0.5,0,0.8-0.1,1-0.4c0.2-0.3,0.3-0.7,0.3-1.4H19.2z"/>
		</g>
	</g>
</g>
<g>
</g>
<g>
</g>
<g>
</g>
<g>
</g>
<g>
</g>
<g>
</g>
<g>
</g>
<g>
</g>
<g>
</g>
<g>
</g>
<g>
</g>
<g>
</g>
<g>
</g>
<g>
</g>
<g>
</g>
</svg>
